<svg width="45" height="45" viewBox="0 0 45 45" fill="none" xmlns="http://www.w3.org/2000/svg">
<path opacity="0.2" d="M37.9688 23.9062C37.9688 26.9657 37.0615 29.9564 35.3618 32.5002C33.6621 35.044 31.2462 37.0267 28.4196 38.1975C25.5931 39.3683 22.4828 39.6746 19.4822 39.0778C16.4816 38.4809 13.7253 37.0077 11.5619 34.8443C9.39861 32.681 7.92535 29.9247 7.32848 26.9241C6.73162 23.9234 7.03795 20.8132 8.20875 17.9866C9.37954 15.1601 11.3622 12.7442 13.906 11.0445C16.4499 9.34473 19.4406 8.4375 22.5 8.4375C26.6026 8.4375 30.5371 10.0672 33.4381 12.9682C36.339 15.8691 37.9688 19.8037 37.9688 23.9062Z" fill="#1F4062"/>
<path d="M22.5 7.03124C19.1624 7.03124 15.8998 8.02094 13.1247 9.87519C10.3497 11.7294 8.18675 14.365 6.90952 17.4485C5.63229 20.532 5.29811 23.925 5.94924 27.1984C6.60036 30.4718 8.20755 33.4787 10.5676 35.8387C12.9276 38.1987 15.9344 39.8059 19.2078 40.457C22.4813 41.1081 25.8743 40.7739 28.9578 39.4967C32.0413 38.2195 34.6768 36.0566 36.531 33.2815C38.3853 30.5064 39.375 27.2438 39.375 23.9062C39.3699 19.4323 37.5903 15.143 34.4268 11.9795C31.2632 8.8159 26.9739 7.03636 22.5 7.03124ZM22.5 37.9687C19.7187 37.9687 16.9998 37.144 14.6873 35.5988C12.3747 34.0536 10.5723 31.8573 9.50793 29.2877C8.44358 26.7181 8.16509 23.8906 8.7077 21.1628C9.2503 18.4349 10.5896 15.9292 12.5563 13.9625C14.523 11.9959 17.0287 10.6565 19.7565 10.1139C22.4844 9.57134 25.3119 9.84983 27.8815 10.9142C30.4511 11.9785 32.6473 13.781 34.1925 16.0935C35.7377 18.4061 36.5625 21.1249 36.5625 23.9062C36.5583 27.6346 35.0754 31.209 32.4391 33.8453C29.8027 36.4816 26.2283 37.9646 22.5 37.9687ZM10.8387 6.61991L5.21366 12.2449C4.94979 12.5088 4.59191 12.657 4.21874 12.657C3.84557 12.657 3.48769 12.5088 3.22382 12.2449C2.95995 11.981 2.81171 11.6232 2.81171 11.25C2.81171 10.8768 2.95995 10.5189 3.22382 10.2551L8.84882 4.63007C9.11269 4.3662 9.47057 4.21796 9.84374 4.21796C10.2169 4.21796 10.5748 4.3662 10.8387 4.63007C11.1025 4.89394 11.2508 5.25182 11.2508 5.62499C11.2508 5.99816 11.1025 6.35604 10.8387 6.61991ZM41.7762 12.2449C41.6456 12.3757 41.4905 12.4794 41.3197 12.5501C41.149 12.6209 40.966 12.6573 40.7812 12.6573C40.5964 12.6573 40.4134 12.6209 40.2427 12.5501C40.072 12.4794 39.9169 12.3757 39.7863 12.2449L34.1613 6.61991C33.8974 6.35604 33.7492 5.99816 33.7492 5.62499C33.7492 5.25182 33.8974 4.89394 34.1613 4.63007C34.4252 4.3662 34.7831 4.21796 35.1562 4.21796C35.5294 4.21796 35.8873 4.3662 36.1512 4.63007L41.7762 10.2551C41.9069 10.3857 42.0106 10.5408 42.0814 10.7115C42.1522 10.8822 42.1886 11.0652 42.1886 11.25C42.1886 11.4348 42.1522 11.6178 42.0814 11.7885C42.0106 11.9592 41.9069 12.1143 41.7762 12.2449ZM32.3437 22.5C32.7167 22.5 33.0744 22.6481 33.3381 22.9119C33.6018 23.1756 33.75 23.5333 33.75 23.9062C33.75 24.2792 33.6018 24.6369 33.3381 24.9006C33.0744 25.1643 32.7167 25.3125 32.3437 25.3125H22.5C22.127 25.3125 21.7693 25.1643 21.5056 24.9006C21.2419 24.6369 21.0937 24.2792 21.0937 23.9062V14.0625C21.0937 13.6895 21.2419 13.3318 21.5056 13.0681C21.7693 12.8044 22.127 12.6562 22.5 12.6562C22.8729 12.6562 23.2306 12.8044 23.4944 13.0681C23.7581 13.3318 23.9062 13.6895 23.9062 14.0625V22.5H32.3437Z" fill="#1F4062"/>
</svg>
