<svg width="45" height="45" viewBox="0 0 45 45" fill="none" xmlns="http://www.w3.org/2000/svg">
<path opacity="0.2" d="M39.375 14.0625V35.1562C39.375 35.5292 39.2268 35.8869 38.9631 36.1506C38.6994 36.4143 38.3417 36.5625 37.9688 36.5625H7.03125C6.65829 36.5625 6.3006 36.4143 6.03688 36.1506C5.77316 35.8869 5.625 35.5292 5.625 35.1562V14.0625C5.625 13.6895 5.77316 13.3319 6.03688 13.0681C6.3006 12.8044 6.65829 12.6562 7.03125 12.6562H37.9688C38.3417 12.6562 38.6994 12.8044 38.9631 13.0681C39.2268 13.3319 39.375 13.6895 39.375 14.0625Z" fill="#1F4062"/>
<path d="M37.9688 11.25H30.9375C30.9375 9.01224 30.0486 6.86612 28.4662 5.28379C26.8839 3.70145 24.7378 2.8125 22.5 2.8125C20.2622 2.8125 18.1161 3.70145 16.5338 5.28379C14.9514 6.86612 14.0625 9.01224 14.0625 11.25H7.03125C6.28533 11.25 5.56996 11.5463 5.04251 12.0738C4.51507 12.6012 4.21875 13.3166 4.21875 14.0625V35.1562C4.21875 35.9022 4.51507 36.6175 5.04251 37.145C5.56996 37.6724 6.28533 37.9688 7.03125 37.9688H37.9688C38.7147 37.9688 39.43 37.6724 39.9575 37.145C40.4849 36.6175 40.7812 35.9022 40.7812 35.1562V14.0625C40.7812 13.3166 40.4849 12.6012 39.9575 12.0738C39.43 11.5463 38.7147 11.25 37.9688 11.25ZM22.5 5.625C23.9918 5.625 25.4226 6.21763 26.4775 7.27252C27.5324 8.32742 28.125 9.75816 28.125 11.25H16.875C16.875 9.75816 17.4676 8.32742 18.5225 7.27252C19.5774 6.21763 21.0082 5.625 22.5 5.625ZM37.9688 35.1562H7.03125V14.0625H14.0625V16.875C14.0625 17.248 14.2107 17.6056 14.4744 17.8694C14.7381 18.1331 15.0958 18.2812 15.4688 18.2812C15.8417 18.2812 16.1994 18.1331 16.4631 17.8694C16.7268 17.6056 16.875 17.248 16.875 16.875V14.0625H28.125V16.875C28.125 17.248 28.2732 17.6056 28.5369 17.8694C28.8006 18.1331 29.1583 18.2812 29.5312 18.2812C29.9042 18.2812 30.2619 18.1331 30.5256 17.8694C30.7893 17.6056 30.9375 17.248 30.9375 16.875V14.0625H37.9688V35.1562Z" fill="#1F4062"/>
</svg>
