<svg width="45" height="45" viewBox="0 0 45 45" fill="none" xmlns="http://www.w3.org/2000/svg">
<path opacity="0.2" d="M36.5625 33.75H8.43749C8.19137 33.7485 7.94994 33.6825 7.73733 33.5584C7.52473 33.4344 7.34841 33.2568 7.22599 33.0432C7.10357 32.8297 7.03933 32.5878 7.0397 32.3416C7.04008 32.0955 7.10505 31.8538 7.22812 31.6406C8.38652 29.6367 9.84374 25.9822 9.84374 19.6875C9.84374 16.3309 11.1772 13.1117 13.5507 10.7382C15.9242 8.36467 19.1433 7.03125 22.5 7.03125C25.8566 7.03125 29.0758 8.36467 31.4493 10.7382C33.8228 13.1117 35.1562 16.3309 35.1562 19.6875C35.1562 25.984 36.6152 29.6367 37.7754 31.6406C37.8986 31.854 37.9636 32.0961 37.9638 32.3425C37.964 32.5889 37.8995 32.8311 37.7766 33.0447C37.6538 33.2584 37.477 33.436 37.2639 33.5597C37.0508 33.6835 36.8089 33.7491 36.5625 33.75Z" fill="#1F4062"/>
<path d="M39.375 12.498C39.044 12.6695 38.6584 12.7024 38.3031 12.5897C37.9478 12.477 37.6517 12.2278 37.4801 11.8969C36.1378 9.24519 34.1061 7.004 31.5984 5.40878C31.4422 5.31022 31.3068 5.18183 31.2002 5.03096C31.0935 4.88009 31.0176 4.70969 30.9768 4.52949C30.936 4.34928 30.9311 4.16281 30.9623 3.9807C30.9936 3.7986 31.0604 3.62444 31.159 3.46816C31.2576 3.31188 31.3859 3.17655 31.5368 3.06989C31.6877 2.96322 31.8581 2.88732 32.0383 2.84652C32.2185 2.80571 32.405 2.8008 32.5871 2.83206C32.7692 2.86332 32.9433 2.93014 33.0996 3.02871C36.0221 4.89996 38.3952 7.51388 39.9762 10.6031C40.1476 10.9341 40.1806 11.3197 40.0678 11.675C39.9551 12.0303 39.7059 12.3264 39.375 12.498ZM6.27715 12.6562C6.53478 12.6561 6.78743 12.5853 7.00752 12.4513C7.22761 12.3174 7.40669 12.1256 7.5252 11.8969C8.86747 9.24519 10.8992 7.004 13.4068 5.40878C13.7225 5.20972 13.9461 4.89342 14.0285 4.52949C14.1109 4.16555 14.0454 3.78378 13.8463 3.46816C13.6472 3.15254 13.3309 2.92893 12.967 2.84652C12.6031 2.7641 12.2213 2.82964 11.9057 3.02871C8.98313 4.89996 6.61005 7.51388 5.0291 10.6031C4.91808 10.8174 4.86408 11.0567 4.87231 11.2979C4.88054 11.5392 4.95071 11.7742 5.07609 11.9805C5.20146 12.1867 5.37781 12.3572 5.58816 12.4756C5.79851 12.5939 6.03579 12.6561 6.27715 12.6562ZM38.99 30.927C39.2392 31.3542 39.3713 31.8395 39.3729 32.3341C39.3746 32.8286 39.2459 33.3149 38.9997 33.7438C38.7535 34.1728 38.3986 34.5292 37.9707 34.7772C37.5428 35.0251 37.0571 35.1559 36.5625 35.1562H29.3906C29.0679 36.7457 28.2055 38.1747 26.9497 39.2012C25.6939 40.2276 24.1219 40.7883 22.5 40.7883C20.8781 40.7883 19.3061 40.2276 18.0503 39.2012C16.7945 38.1747 15.9321 36.7457 15.6094 35.1562H8.4375C7.94324 35.1553 7.45797 35.0241 7.03056 34.7758C6.60315 34.5276 6.24871 34.1711 6.00293 33.7423C5.75715 33.3135 5.62872 32.8275 5.63057 32.3332C5.63242 31.839 5.76449 31.3539 6.01348 30.927C7.59727 28.1936 8.4375 24.307 8.4375 19.6875C8.4375 15.9579 9.91908 12.381 12.5563 9.74381C15.1935 7.10658 18.7704 5.625 22.5 5.625C26.2296 5.625 29.8065 7.10658 32.4437 9.74381C35.0809 12.381 36.5625 15.9579 36.5625 19.6875C36.5625 24.3053 37.4027 28.1918 38.99 30.927ZM26.4762 35.1562H18.5238C18.8152 35.9779 19.3539 36.6891 20.0659 37.192C20.7779 37.695 21.6283 37.9651 22.5 37.9651C23.3718 37.9651 24.2221 37.695 24.9341 37.192C25.6461 36.6891 26.1848 35.9779 26.4762 35.1562ZM36.5625 32.3437C34.6922 29.1322 33.75 24.8748 33.75 19.6875C33.75 16.7038 32.5647 13.8423 30.455 11.7325C28.3452 9.62276 25.4837 8.4375 22.5 8.4375C19.5163 8.4375 16.6548 9.62276 14.5451 11.7325C12.4353 13.8423 11.25 16.7038 11.25 19.6875C11.25 24.8766 10.3043 29.134 8.4375 32.3437H36.5625Z" fill="#1F4062"/>
</svg>
