<svg width="45" height="45" viewBox="0 0 45 45" fill="none" xmlns="http://www.w3.org/2000/svg">
<path opacity="0.2" d="M18.2813 29.5312C18.2813 30.9219 17.8689 32.2813 17.0963 33.4376C16.3237 34.5939 15.2255 35.4951 13.9407 36.0273C12.656 36.5595 11.2422 36.6987 9.87827 36.4274C8.51435 36.1561 7.2615 35.4864 6.27816 34.5031C5.29482 33.5198 4.62516 32.2669 4.35386 30.903C4.08255 29.5391 4.2218 28.1253 4.75398 26.8405C5.28615 25.5557 6.18737 24.4576 7.34365 23.685C8.49993 22.9124 9.85935 22.5 11.25 22.5C13.1148 22.5 14.9032 23.2408 16.2218 24.5594C17.5405 25.878 18.2813 27.6664 18.2813 29.5312ZM33.75 22.5C32.3594 22.5 30.9999 22.9124 29.8436 23.685C28.6874 24.4576 27.7862 25.5557 27.254 26.8405C26.7218 28.1253 26.5826 29.5391 26.8539 30.903C27.1252 32.2669 27.7948 33.5198 28.7782 34.5031C29.7615 35.4864 31.0143 36.1561 32.3783 36.4274C33.7422 36.6987 35.156 36.5595 36.4407 36.0273C37.7255 35.4951 38.8237 34.5939 39.5963 33.4376C40.3689 32.2813 40.7813 30.9219 40.7813 29.5312C40.7813 27.6664 40.0405 25.878 38.7218 24.5594C37.4032 23.2408 35.6148 22.5 33.75 22.5Z" fill="#1F4062"/>
<path d="M41.6953 26.6959C41.5779 26.3682 41.4399 26.0482 41.2822 25.7378L33.9715 9.10542C33.9023 8.94523 33.8033 8.79967 33.6797 8.67652C33.1573 8.15405 32.5372 7.7396 31.8546 7.45684C31.1721 7.17408 30.4406 7.02854 29.7018 7.02854C28.963 7.02854 28.2314 7.17408 27.5489 7.45684C26.8663 7.7396 26.2462 8.15405 25.7238 8.67652C25.461 8.93961 25.3131 9.29607 25.3125 9.66792V14.0625H19.6875V9.66792C19.6876 9.4832 19.6514 9.30025 19.5808 9.12954C19.5102 8.95883 19.4067 8.8037 19.2762 8.673C18.7538 8.15054 18.1337 7.73609 17.4511 7.45332C16.7686 7.17056 16.037 7.02502 15.2982 7.02502C14.5595 7.02502 13.8279 7.17056 13.1454 7.45332C12.4628 7.73609 11.8427 8.15054 11.3203 8.673C11.1967 8.79616 11.0977 8.94172 11.0285 9.10191L3.71777 25.7343C3.56008 26.0447 3.42211 26.3646 3.30469 26.6923C2.89072 27.8506 2.73501 29.0854 2.84847 30.3102C2.96192 31.535 3.3418 32.7202 3.96148 33.7827C4.58117 34.8452 5.42568 35.7594 6.43585 36.4613C7.44601 37.1631 8.59742 37.6355 9.80939 37.8456C11.0214 38.0556 12.2646 37.9981 13.452 37.677C14.6394 37.356 15.7423 36.7793 16.6833 35.9872C17.6244 35.1951 18.3809 34.2068 18.8998 33.0916C19.4188 31.9764 19.6876 30.7612 19.6875 29.5312V16.875H25.3125V29.5312C25.3119 30.7614 25.5803 31.9768 26.0989 33.0924C26.6175 34.2079 27.3737 35.1965 28.3146 35.989C29.2556 36.7815 30.3584 37.3586 31.5459 37.68C32.7333 38.0013 33.9767 38.0592 35.1889 37.8494C36.401 37.6396 37.5527 37.1673 38.5631 36.4655C39.5735 35.7638 40.4182 34.8496 41.0381 33.787C41.6579 32.7244 42.038 31.5391 42.1515 30.3142C42.265 29.0892 42.1093 27.8543 41.6953 26.6959ZM13.4842 10.5029C13.953 10.1081 14.538 9.87731 15.1501 9.84558C15.7622 9.81385 16.3679 9.98294 16.875 10.3271V23.2488C15.7771 22.2629 14.4393 21.5829 12.9958 21.2769C11.5523 20.9708 10.0537 21.0495 8.6502 21.505L13.4842 10.5029ZM11.25 35.1562C10.1375 35.1562 9.04994 34.8263 8.12492 34.2082C7.19989 33.5901 6.47892 32.7116 6.05318 31.6838C5.62744 30.656 5.51604 29.525 5.73308 28.4338C5.95013 27.3427 6.48585 26.3404 7.27253 25.5537C8.0592 24.7671 9.06147 24.2313 10.1526 24.0143C11.2438 23.7972 12.3748 23.9086 13.4026 24.3344C14.4304 24.7601 15.3089 25.4811 15.927 26.4061C16.5451 27.3312 16.875 28.4187 16.875 29.5312C16.875 31.023 16.2824 32.4538 15.2275 33.5087C14.1726 34.5636 12.7418 35.1562 11.25 35.1562ZM28.125 10.3253C28.6322 9.98118 29.2378 9.81209 29.8499 9.84383C30.462 9.87556 31.047 10.1064 31.5158 10.5011L36.3498 21.5015C34.9461 21.0462 33.4474 20.9678 32.0039 21.2742C30.5604 21.5805 29.2228 22.2609 28.125 23.247V10.3253ZM33.75 35.1562C32.6375 35.1562 31.5499 34.8263 30.6249 34.2082C29.6999 33.5901 28.9789 32.7116 28.5532 31.6838C28.1274 30.656 28.016 29.525 28.2331 28.4338C28.4501 27.3427 28.9859 26.3404 29.7725 25.5537C30.5592 24.7671 31.5615 24.2313 32.6526 24.0143C33.7438 23.7972 34.8748 23.9086 35.9026 24.3344C36.9304 24.7601 37.8089 25.4811 38.427 26.4061C39.0451 27.3312 39.375 28.4187 39.375 29.5312C39.375 31.023 38.7824 32.4538 37.7275 33.5087C36.6726 34.5636 35.2418 35.1562 33.75 35.1562Z" fill="#1F4062"/>
</svg>
