<svg width="45" height="45" viewBox="0 0 45 45" fill="none" xmlns="http://www.w3.org/2000/svg">
<path opacity="0.2" d="M36.5625 5.625V33.75H12.6562C11.5374 33.75 10.4643 34.1945 9.67314 34.9856C8.88197 35.7768 8.4375 36.8499 8.4375 37.9688V9.84375C8.4375 8.72487 8.88197 7.65181 9.67314 6.86064C10.4643 6.06947 11.5374 5.625 12.6562 5.625H36.5625Z" fill="#1F4062"/>
<path d="M36.5625 4.21875H12.6562C11.1644 4.21875 9.73367 4.81138 8.67877 5.86627C7.62388 6.92117 7.03125 8.35191 7.03125 9.84375V39.375C7.03125 39.748 7.17941 40.1056 7.44313 40.3694C7.70685 40.6331 8.06454 40.7812 8.4375 40.7812H33.75C34.123 40.7812 34.4806 40.6331 34.7444 40.3694C35.0081 40.1056 35.1562 39.748 35.1562 39.375C35.1562 39.002 35.0081 38.6444 34.7444 38.3806C34.4806 38.1169 34.123 37.9688 33.75 37.9688H9.84375C9.84375 37.2228 10.1401 36.5075 10.6675 35.98C11.195 35.4526 11.9103 35.1562 12.6562 35.1562H36.5625C36.9355 35.1562 37.2931 35.0081 37.5569 34.7444C37.8206 34.4806 37.9688 34.123 37.9688 33.75V5.625C37.9688 5.25204 37.8206 4.89435 37.5569 4.63063C37.2931 4.36691 36.9355 4.21875 36.5625 4.21875ZM35.1562 32.3438H12.6562C11.6686 32.3424 10.6982 32.6026 9.84375 33.0979V9.84375C9.84375 9.09783 10.1401 8.38246 10.6675 7.85501C11.195 7.32757 11.9103 7.03125 12.6562 7.03125H35.1562V32.3438Z" fill="#1F4062"/>
</svg>
