<svg width="45" height="45" viewBox="0 0 45 45" fill="none" xmlns="http://www.w3.org/2000/svg">
<path opacity="0.2" d="M33.8906 29.025L7.72208 18.5572C8.56642 17.069 9.60307 15.6984 10.8053 14.4809C10.9997 14.2837 11.2481 14.1482 11.5192 14.0916C11.7904 14.035 12.0722 14.0598 12.3293 14.1627L16.7906 15.9697C17.1347 16.1071 17.5025 16.1751 17.873 16.1699C18.2434 16.1647 18.6092 16.0863 18.9493 15.9393C19.2894 15.7923 19.597 15.5795 19.8546 15.3133C20.1122 15.047 20.3147 14.7325 20.4504 14.3877L24.1418 5.05373C24.8713 3.29591 26.8611 2.359 28.6471 3.02697C29.0898 3.19163 29.4948 3.44382 29.838 3.76849C30.1811 4.09316 30.4552 4.48364 30.6441 4.91662C30.8329 5.34961 30.9326 5.81621 30.9371 6.28856C30.9416 6.76091 30.8509 7.22933 30.6703 7.66584L26.9174 16.9998C26.6431 17.6918 26.6544 18.4642 26.9486 19.1479C27.2428 19.8316 27.7961 20.3708 28.4871 20.6473L32.8711 22.377C33.1312 22.4822 33.3538 22.6627 33.5104 22.8955C33.6671 23.1282 33.7505 23.4025 33.75 23.683V26.7188C33.7485 27.4897 33.7954 28.26 33.8906 29.025Z" fill="#1F4062"/>
<path d="M41.3965 38.1112C37.4309 36.1776 35.1563 32.0326 35.1563 26.7205V23.683C35.1577 23.1195 34.9893 22.5686 34.6729 22.1023C34.3565 21.636 33.9068 21.276 33.3826 21.0692L29.0039 19.336C28.6594 19.1982 28.3833 18.9298 28.2358 18.5894C28.0883 18.2489 28.0813 17.864 28.2164 17.5184L31.9641 8.20198C32.2184 7.59051 32.3467 6.93399 32.3414 6.27175C32.336 5.60952 32.197 4.95517 31.9328 4.34791C31.6685 3.74065 31.2844 3.19296 30.8035 2.73765C30.3226 2.28233 29.7548 1.92875 29.134 1.69807C27.9249 1.25504 26.5906 1.30101 25.4148 1.8262C24.2391 2.35139 23.3144 3.31441 22.8375 4.51057C22.8368 4.51759 22.8368 4.52465 22.8375 4.53167L19.1426 13.8867C19.0052 14.2328 18.7361 14.5103 18.3943 14.6583C18.0526 14.8062 17.6662 14.8126 17.3197 14.676L12.8514 12.8567C12.3362 12.6479 11.7704 12.5976 11.2265 12.7122C10.6826 12.8268 10.1852 13.1011 9.79805 13.5C6.0961 17.3057 4.21876 21.753 4.21876 26.7188C4.20903 31.8005 6.17427 36.6871 9.69962 40.3471C9.8317 40.4852 9.99053 40.5949 10.1664 40.6695C10.3423 40.7442 10.5316 40.7822 10.7227 40.7813H40.7813C41.0991 40.781 41.4075 40.673 41.6561 40.475C41.9047 40.2769 42.0789 40.0005 42.1502 39.6908C42.2216 39.381 42.1859 39.0563 42.0491 38.7694C41.9122 38.4825 41.6822 38.2505 41.3965 38.1112ZM11.802 15.4688L16.2686 17.2793C16.7841 17.4856 17.3354 17.588 17.8906 17.5808C18.4459 17.5735 18.9943 17.4567 19.5043 17.2371C20.0143 17.0174 20.476 16.6992 20.8627 16.3008C21.2495 15.9023 21.5538 15.4314 21.7582 14.9151L25.4496 5.59866C25.8996 4.52463 27.1143 3.96917 28.1619 4.36819C28.429 4.46729 28.6733 4.61947 28.8799 4.81554C29.0866 5.01162 29.2514 5.24753 29.3645 5.50904C29.4775 5.77055 29.5363 6.05225 29.5375 6.33713C29.5387 6.62202 29.4821 6.90419 29.3713 7.16663L25.6096 16.4813C25.1977 17.5203 25.215 18.6803 25.6576 19.7065C26.1002 20.7328 26.932 21.5415 27.9703 21.9551L32.3438 23.683V26.7188C32.3438 26.7768 32.3438 26.8348 32.3438 26.8946L9.80333 17.8787C10.4026 17.0222 11.071 16.2161 11.802 15.4688ZM20.2395 37.9688C18.1458 35.9604 16.6625 33.4011 15.9609 30.586C15.8632 30.2299 15.6293 29.9266 15.3098 29.7415C14.9903 29.5564 14.6108 29.5044 14.2533 29.5968C13.8958 29.6891 13.5889 29.9183 13.399 30.2349C13.209 30.5516 13.1513 30.9302 13.2381 31.2891C13.8514 33.7109 14.9493 35.9832 16.4654 37.9688H11.3273C8.55384 34.8788 7.02334 30.8709 7.03126 26.7188C7.01406 24.5188 7.4778 22.3417 8.39004 20.3397L32.6127 30.0287C33.14 33.1928 34.469 35.9139 36.4606 37.967L20.2395 37.9688Z" fill="#1F4062"/>
</svg>
