<svg width="45" height="45" viewBox="0 0 45 45" fill="none" xmlns="http://www.w3.org/2000/svg">
<path opacity="0.2" d="M23.9062 5.62496V37.9687H7.03125V15.0029C7.0311 14.7713 7.08814 14.5433 7.19731 14.3391C7.30648 14.1348 7.46439 13.9607 7.65703 13.8322L21.7195 4.45778C21.9311 4.31661 22.177 4.23547 22.4311 4.223C22.6851 4.21054 22.9378 4.26721 23.1622 4.38698C23.3866 4.50675 23.5743 4.68513 23.7053 4.90314C23.8363 5.12115 23.9058 5.37061 23.9062 5.62496Z" fill="#1F4062"/>
<path d="M42.1875 36.5625H39.375V16.875C39.375 16.1291 39.0787 15.4137 38.5512 14.8863C38.0238 14.3588 37.3084 14.0625 36.5625 14.0625H25.3125V5.625C25.3128 5.11569 25.1749 4.61586 24.9133 4.17884C24.6518 3.74183 24.2765 3.38403 23.8275 3.14365C23.3785 2.90327 22.8726 2.78932 22.3639 2.81396C21.8552 2.83861 21.3627 3.00093 20.9391 3.28359L6.87656 12.6562C6.49079 12.9136 6.17465 13.2624 5.95629 13.6715C5.73793 14.0806 5.62412 14.5374 5.625 15.0012V36.5625H2.8125C2.43954 36.5625 2.08185 36.7107 1.81813 36.9744C1.55441 37.2381 1.40625 37.5958 1.40625 37.9687C1.40625 38.3417 1.55441 38.6994 1.81813 38.9631C2.08185 39.2268 2.43954 39.375 2.8125 39.375H42.1875C42.5605 39.375 42.9181 39.2268 43.1819 38.9631C43.4456 38.6994 43.5938 38.3417 43.5938 37.9687C43.5938 37.5958 43.4456 37.2381 43.1819 36.9744C42.9181 36.7107 42.5605 36.5625 42.1875 36.5625ZM36.5625 16.875V36.5625H25.3125V16.875H36.5625ZM8.4375 15.0012L22.5 5.625V36.5625H8.4375V15.0012ZM19.6875 19.6875V22.5C19.6875 22.873 19.5393 23.2306 19.2756 23.4944C19.0119 23.7581 18.6542 23.9062 18.2812 23.9062C17.9083 23.9062 17.5506 23.7581 17.2869 23.4944C17.0232 23.2306 16.875 22.873 16.875 22.5V19.6875C16.875 19.3145 17.0232 18.9569 17.2869 18.6931C17.5506 18.4294 17.9083 18.2812 18.2812 18.2812C18.6542 18.2812 19.0119 18.4294 19.2756 18.6931C19.5393 18.9569 19.6875 19.3145 19.6875 19.6875ZM14.0625 19.6875V22.5C14.0625 22.873 13.9143 23.2306 13.6506 23.4944C13.3869 23.7581 13.0292 23.9062 12.6562 23.9062C12.2833 23.9062 11.9256 23.7581 11.6619 23.4944C11.3982 23.2306 11.25 22.873 11.25 22.5V19.6875C11.25 19.3145 11.3982 18.9569 11.6619 18.6931C11.9256 18.4294 12.2833 18.2812 12.6562 18.2812C13.0292 18.2812 13.3869 18.4294 13.6506 18.6931C13.9143 18.9569 14.0625 19.3145 14.0625 19.6875ZM14.0625 29.5312V32.3437C14.0625 32.7167 13.9143 33.0744 13.6506 33.3381C13.3869 33.6018 13.0292 33.75 12.6562 33.75C12.2833 33.75 11.9256 33.6018 11.6619 33.3381C11.3982 33.0744 11.25 32.7167 11.25 32.3437V29.5312C11.25 29.1583 11.3982 28.8006 11.6619 28.5369C11.9256 28.2732 12.2833 28.125 12.6562 28.125C13.0292 28.125 13.3869 28.2732 13.6506 28.5369C13.9143 28.8006 14.0625 29.1583 14.0625 29.5312ZM19.6875 29.5312V32.3437C19.6875 32.7167 19.5393 33.0744 19.2756 33.3381C19.0119 33.6018 18.6542 33.75 18.2812 33.75C17.9083 33.75 17.5506 33.6018 17.2869 33.3381C17.0232 33.0744 16.875 32.7167 16.875 32.3437V29.5312C16.875 29.1583 17.0232 28.8006 17.2869 28.5369C17.5506 28.2732 17.9083 28.125 18.2812 28.125C18.6542 28.125 19.0119 28.2732 19.2756 28.5369C19.5393 28.8006 19.6875 29.1583 19.6875 29.5312Z" fill="#1F4062"/>
</svg>
