<svg width="45" height="45" viewBox="0 0 45 45" fill="none" xmlns="http://www.w3.org/2000/svg">
<path opacity="0.2" d="M30.9375 11.25V19.6875H14.0625V11.25H30.9375Z" fill="#1F4062"/>
<path d="M14.0625 21.0938H30.9375C31.3105 21.0938 31.6681 20.9456 31.9319 20.6819C32.1956 20.4181 32.3438 20.0605 32.3438 19.6875V11.25C32.3438 10.877 32.1956 10.5194 31.9319 10.2556C31.6681 9.99191 31.3105 9.84375 30.9375 9.84375H14.0625C13.6895 9.84375 13.3319 9.99191 13.0681 10.2556C12.8044 10.5194 12.6562 10.877 12.6562 11.25V19.6875C12.6562 20.0605 12.8044 20.4181 13.0681 20.6819C13.3319 20.9456 13.6895 21.0938 14.0625 21.0938ZM15.4688 12.6562H29.5312V18.2812H15.4688V12.6562ZM35.1562 4.21875H9.84375C9.09783 4.21875 8.38246 4.51507 7.85501 5.04251C7.32757 5.56996 7.03125 6.28533 7.03125 7.03125V37.9688C7.03125 38.7147 7.32757 39.43 7.85501 39.9575C8.38246 40.4849 9.09783 40.7812 9.84375 40.7812H35.1562C35.9022 40.7812 36.6175 40.4849 37.145 39.9575C37.6724 39.43 37.9688 38.7147 37.9688 37.9688V7.03125C37.9688 6.28533 37.6724 5.56996 37.145 5.04251C36.6175 4.51507 35.9022 4.21875 35.1562 4.21875ZM35.1562 37.9688H9.84375V7.03125H35.1562V37.9688ZM17.5781 26.0156C17.5781 26.4328 17.4544 26.8406 17.2226 27.1875C16.9909 27.5344 16.6614 27.8048 16.276 27.9644C15.8905 28.1241 15.4664 28.1659 15.0572 28.0845C14.6481 28.0031 14.2722 27.8022 13.9772 27.5072C13.6822 27.2122 13.4813 26.8363 13.3999 26.4271C13.3185 26.018 13.3603 25.5938 13.5199 25.2084C13.6796 24.823 13.95 24.4935 14.2968 24.2617C14.6437 24.03 15.0516 23.9062 15.4688 23.9062C16.0282 23.9062 16.5647 24.1285 16.9603 24.5241C17.3559 24.9197 17.5781 25.4562 17.5781 26.0156ZM24.6094 26.0156C24.6094 26.4328 24.4857 26.8406 24.2539 27.1875C24.0221 27.5344 23.6927 27.8048 23.3072 27.9644C22.9218 28.1241 22.4977 28.1659 22.0885 28.0845C21.6793 28.0031 21.3034 27.8022 21.0084 27.5072C20.7134 27.2122 20.5125 26.8363 20.4312 26.4271C20.3498 26.018 20.3915 25.5938 20.5512 25.2084C20.7108 24.823 20.9812 24.4935 21.3281 24.2617C21.675 24.03 22.0828 23.9062 22.5 23.9062C23.0594 23.9062 23.596 24.1285 23.9916 24.5241C24.3871 24.9197 24.6094 25.4562 24.6094 26.0156ZM31.6406 26.0156C31.6406 26.4328 31.5169 26.8406 31.2851 27.1875C31.0533 27.5344 30.7239 27.8048 30.3385 27.9644C29.953 28.1241 29.5289 28.1659 29.1197 28.0845C28.7106 28.0031 28.3347 27.8022 28.0397 27.5072C27.7447 27.2122 27.5438 26.8363 27.4624 26.4271C27.381 26.018 27.4228 25.5938 27.5824 25.2084C27.7421 24.823 28.0125 24.4935 28.3593 24.2617C28.7062 24.03 29.1141 23.9062 29.5312 23.9062C30.0907 23.9062 30.6272 24.1285 31.0228 24.5241C31.4184 24.9197 31.6406 25.4562 31.6406 26.0156ZM17.5781 33.0469C17.5781 33.4641 17.4544 33.8719 17.2226 34.2188C16.9909 34.5657 16.6614 34.836 16.276 34.9957C15.8905 35.1553 15.4664 35.1971 15.0572 35.1157C14.6481 35.0343 14.2722 34.8334 13.9772 34.5384C13.6822 34.2434 13.4813 33.8676 13.3999 33.4584C13.3185 33.0492 13.3603 32.6251 13.5199 32.2397C13.6796 31.8542 13.95 31.5248 14.2968 31.293C14.6437 31.0612 15.0516 30.9375 15.4688 30.9375C16.0282 30.9375 16.5647 31.1597 16.9603 31.5553C17.3559 31.9509 17.5781 32.4874 17.5781 33.0469ZM24.6094 33.0469C24.6094 33.4641 24.4857 33.8719 24.2539 34.2188C24.0221 34.5657 23.6927 34.836 23.3072 34.9957C22.9218 35.1553 22.4977 35.1971 22.0885 35.1157C21.6793 35.0343 21.3034 34.8334 21.0084 34.5384C20.7134 34.2434 20.5125 33.8676 20.4312 33.4584C20.3498 33.0492 20.3915 32.6251 20.5512 32.2397C20.7108 31.8542 20.9812 31.5248 21.3281 31.293C21.675 31.0612 22.0828 30.9375 22.5 30.9375C23.0594 30.9375 23.596 31.1597 23.9916 31.5553C24.3871 31.9509 24.6094 32.4874 24.6094 33.0469ZM31.6406 33.0469C31.6406 33.4641 31.5169 33.8719 31.2851 34.2188C31.0533 34.5657 30.7239 34.836 30.3385 34.9957C29.953 35.1553 29.5289 35.1971 29.1197 35.1157C28.7106 35.0343 28.3347 34.8334 28.0397 34.5384C27.7447 34.2434 27.5438 33.8676 27.4624 33.4584C27.381 33.0492 27.4228 32.6251 27.5824 32.2397C27.7421 31.8542 28.0125 31.5248 28.3593 31.293C28.7062 31.0612 29.1141 30.9375 29.5312 30.9375C30.0907 30.9375 30.6272 31.1597 31.0228 31.5553C31.4184 31.9509 31.6406 32.4874 31.6406 33.0469Z" fill="#1F4062"/>
</svg>
