<svg width="45" height="45" viewBox="0 0 45 45" fill="none" xmlns="http://www.w3.org/2000/svg">
<path opacity="0.2" d="M39.375 11.25V36.5625H5.625V8.4375H36.5625C37.3084 8.4375 38.0238 8.73382 38.5512 9.26126C39.0787 9.78871 39.375 10.5041 39.375 11.25Z" fill="#1F4062"/>
<path d="M40.7812 36.5625C40.7812 36.9355 40.6331 37.2931 40.3694 37.5569C40.1056 37.8206 39.748 37.9688 39.375 37.9688H5.625C5.25204 37.9688 4.89435 37.8206 4.63063 37.5569C4.36691 37.2931 4.21875 36.9355 4.21875 36.5625V8.4375C4.21875 8.06454 4.36691 7.70685 4.63063 7.44313C4.89435 7.17941 5.25204 7.03125 5.625 7.03125C5.99796 7.03125 6.35565 7.17941 6.61937 7.44313C6.88309 7.70685 7.03125 8.06454 7.03125 8.4375V10.6682L16.875 20.5119L21.5051 15.8801C21.6357 15.7493 21.7908 15.6456 21.9615 15.5748C22.1322 15.5041 22.3152 15.4676 22.5 15.4676C22.6848 15.4676 22.8678 15.5041 23.0385 15.5748C23.2092 15.6456 23.3643 15.7493 23.4949 15.8801L33.75 26.1369V22.5C33.75 22.127 33.8982 21.7694 34.1619 21.5056C34.4256 21.2419 34.7833 21.0938 35.1562 21.0938C35.5292 21.0938 35.8869 21.2419 36.1506 21.5056C36.4143 21.7694 36.5625 22.127 36.5625 22.5V29.5312C36.5652 29.5781 36.5652 29.625 36.5625 29.6719C36.5625 29.6912 36.5625 29.7088 36.5537 29.7281C36.5449 29.7475 36.5537 29.7809 36.5414 29.809C36.5376 29.831 36.5323 29.8527 36.5256 29.874C36.5256 29.8969 36.515 29.9197 36.508 29.9426C36.501 29.9654 36.4939 29.983 36.4869 30.0041L36.4623 30.0727L36.4359 30.1271C36.4254 30.15 36.4148 30.1746 36.4025 30.1975C36.3902 30.2203 36.3832 30.2291 36.3744 30.2467L36.3322 30.3152L36.2953 30.3645L36.2496 30.426C36.2303 30.4506 36.2074 30.4734 36.1863 30.4963L36.1582 30.5279L36.1283 30.5543C36.105 30.5774 36.0803 30.5991 36.0545 30.6193C36.0365 30.6349 36.0177 30.6496 35.9982 30.6633L35.9455 30.702L35.8787 30.7424C35.8617 30.7534 35.8441 30.7634 35.826 30.7723L35.7609 30.8057L35.7012 30.832L35.6379 30.8549C35.6162 30.8641 35.5939 30.8717 35.5711 30.8777L35.5078 30.8953C35.4832 30.8953 35.4621 30.9076 35.4375 30.9111L35.3637 30.9234L35.3021 30.9322C35.2559 30.9348 35.2095 30.9348 35.1633 30.9322H28.125C27.752 30.9322 27.3944 30.7841 27.1306 30.5203C26.8669 30.2566 26.7188 29.8989 26.7188 29.526C26.7188 29.153 26.8669 28.7953 27.1306 28.5316C27.3944 28.2679 27.752 28.1197 28.125 28.1197H31.7619L22.5 18.8631L17.8699 23.4949C17.7393 23.6257 17.5842 23.7294 17.4135 23.8002C17.2428 23.8709 17.0598 23.9074 16.875 23.9074C16.6902 23.9074 16.5072 23.8709 16.3365 23.8002C16.1658 23.7294 16.0107 23.6257 15.8801 23.4949L7.03125 14.6443V35.1562H39.375C39.748 35.1562 40.1056 35.3044 40.3694 35.5681C40.6331 35.8319 40.7812 36.1895 40.7812 36.5625Z" fill="#1F4062"/>
</svg>
