<svg width="45" height="45" viewBox="0 0 45 45" fill="none" xmlns="http://www.w3.org/2000/svg">
<path opacity="0.2" d="M39.375 22.5C39.3754 25.4636 38.5953 28.375 37.1132 30.9413C35.6311 33.5077 33.4993 35.6385 30.9323 37.1193C28.3652 38.6002 25.4534 39.3789 22.4899 39.3771C19.5263 39.3753 16.6155 38.5931 14.0502 37.1092L7.47773 39.3012C7.22996 39.3838 6.96407 39.3958 6.70986 39.3358C6.45565 39.2758 6.22317 39.1462 6.03848 38.9615C5.85379 38.7768 5.72419 38.5444 5.6642 38.2902C5.60421 38.0359 5.6162 37.7701 5.69883 37.5223L7.89082 30.9498C6.59515 28.7087 5.83245 26.1996 5.66174 23.6165C5.49102 21.0335 5.91686 18.4458 6.90632 16.0536C7.89577 13.6615 9.42231 11.5291 11.3678 9.82139C13.3133 8.11367 15.6256 6.87644 18.1258 6.20543C20.626 5.53442 23.2471 5.44762 25.7862 5.95174C28.3254 6.45586 30.7145 7.53738 32.7687 9.11264C34.8229 10.6879 36.4872 12.7146 37.6328 15.0361C38.7783 17.3575 39.3744 19.9113 39.375 22.5Z" fill="#1F4062"/>
<path d="M22.5 4.21875C19.3438 4.21806 16.2412 5.03453 13.4941 6.58868C10.7471 8.14284 8.44918 10.3817 6.82413 13.0874C5.19908 15.7932 4.30221 18.8735 4.22084 22.0287C4.13946 25.1838 4.87635 28.3063 6.35977 31.0922L4.36465 37.0775C4.19939 37.5731 4.1754 38.1049 4.29539 38.6133C4.41537 39.1217 4.67458 39.5867 5.04396 39.956C5.41334 40.3254 5.87829 40.5846 6.38671 40.7046C6.89512 40.8246 7.42691 40.8006 7.92246 40.6354L13.9078 38.6402C16.3596 39.9443 19.0762 40.6726 21.8514 40.77C24.6267 40.8674 27.3877 40.3312 29.9248 39.2023C32.4619 38.0733 34.7085 36.3811 36.494 34.2543C38.2795 32.1274 39.557 29.6218 40.2295 26.9275C40.9021 24.2332 40.952 21.4211 40.3754 18.7046C39.7989 15.9881 38.6111 13.4387 36.9022 11.2499C35.1932 9.06099 33.0081 7.29021 30.5126 6.07193C28.0172 4.85365 25.277 4.21989 22.5 4.21875ZM22.5 37.9688C19.7806 37.9706 17.109 37.2545 14.7551 35.8928C14.5414 35.7688 14.2989 35.7034 14.052 35.7029C13.9007 35.703 13.7504 35.7279 13.6072 35.7768L7.03125 37.9688L9.22324 31.3945C9.28643 31.2056 9.30876 31.0054 9.28876 30.8073C9.26876 30.6091 9.20688 30.4174 9.10723 30.2449C7.4021 27.2969 6.7175 23.8686 7.15962 20.4918C7.60175 17.115 9.14589 13.9785 11.5525 11.5689C13.9591 9.1592 17.0937 7.6111 20.4699 7.16471C23.8461 6.71832 27.2753 7.39859 30.2255 9.09999C33.1756 10.8014 35.4818 13.4288 36.7864 16.5747C38.0909 19.7205 38.3208 23.209 37.4404 26.4988C36.56 29.7887 34.6186 32.696 31.9172 34.7699C29.2159 36.8438 25.9056 37.9682 22.5 37.9688ZM24.6094 22.5C24.6094 22.9172 24.4857 23.325 24.2539 23.6719C24.0221 24.0188 23.6927 24.2892 23.3072 24.4488C22.9218 24.6085 22.4977 24.6502 22.0885 24.5688C21.6793 24.4875 21.3034 24.2866 21.0084 23.9916C20.7134 23.6966 20.5125 23.3207 20.4312 22.9115C20.3498 22.5023 20.3915 22.0782 20.5512 21.6928C20.7108 21.3073 20.9812 20.9779 21.3281 20.7461C21.675 20.5143 22.0828 20.3906 22.5 20.3906C23.0594 20.3906 23.596 20.6129 23.9916 21.0084C24.3871 21.404 24.6094 21.9406 24.6094 22.5ZM16.875 22.5C16.875 22.9172 16.7513 23.325 16.5195 23.6719C16.2877 24.0188 15.9583 24.2892 15.5728 24.4488C15.1874 24.6085 14.7633 24.6502 14.3541 24.5688C13.9449 24.4875 13.5691 24.2866 13.2741 23.9916C12.9791 23.6966 12.7782 23.3207 12.6968 22.9115C12.6154 22.5023 12.6572 22.0782 12.8168 21.6928C12.9765 21.3073 13.2468 20.9779 13.5937 20.7461C13.9406 20.5143 14.3484 20.3906 14.7656 20.3906C15.3251 20.3906 15.8616 20.6129 16.2572 21.0084C16.6528 21.404 16.875 21.9406 16.875 22.5ZM32.3438 22.5C32.3438 22.9172 32.22 23.325 31.9883 23.6719C31.7565 24.0188 31.427 24.2892 31.0416 24.4488C30.6562 24.6085 30.232 24.6502 29.8229 24.5688C29.4137 24.4875 29.0378 24.2866 28.7428 23.9916C28.4478 23.6966 28.2469 23.3207 28.1655 22.9115C28.0841 22.5023 28.1259 22.0782 28.2856 21.6928C28.4452 21.3073 28.7156 20.9779 29.0625 20.7461C29.4094 20.5143 29.8172 20.3906 30.2344 20.3906C30.7938 20.3906 31.3303 20.6129 31.7259 21.0084C32.1215 21.404 32.3438 21.9406 32.3438 22.5Z" fill="#1F4062"/>
</svg>
