<svg width="45" height="45" viewBox="0 0 45 45" fill="none" xmlns="http://www.w3.org/2000/svg">
<path opacity="0.2" d="M39.375 11.25V33.75C39.375 34.123 39.2268 34.4806 38.9631 34.7444C38.6994 35.0081 38.3417 35.1562 37.9688 35.1562H14.0625L7.93652 40.449C7.7317 40.6213 7.48196 40.7316 7.21663 40.7669C6.95131 40.8022 6.68143 40.761 6.43869 40.6482C6.19595 40.5354 5.99045 40.3557 5.84631 40.1302C5.70217 39.9046 5.6254 39.6427 5.625 39.375V11.25C5.625 10.877 5.77316 10.5194 6.03688 10.2556C6.3006 9.99191 6.65829 9.84375 7.03125 9.84375H37.9688C38.3417 9.84375 38.6994 9.99191 38.9631 10.2556C39.2268 10.5194 39.375 10.877 39.375 11.25Z" fill="#1F4062"/>
<path d="M20.3906 22.5C20.3906 22.0828 20.5143 21.675 20.7461 21.3281C20.9779 20.9812 21.3073 20.7108 21.6928 20.5512C22.0782 20.3915 22.5023 20.3498 22.9115 20.4312C23.3207 20.5125 23.6966 20.7134 23.9916 21.0084C24.2866 21.3034 24.4875 21.6793 24.5688 22.0885C24.6502 22.4977 24.6085 22.9218 24.4488 23.3072C24.2892 23.6927 24.0188 24.0221 23.6719 24.2539C23.325 24.4857 22.9172 24.6094 22.5 24.6094C21.9406 24.6094 21.404 24.3871 21.0084 23.9916C20.6129 23.596 20.3906 23.0594 20.3906 22.5ZM14.7656 24.6094C15.1828 24.6094 15.5906 24.4857 15.9375 24.2539C16.2844 24.0221 16.5548 23.6927 16.7144 23.3072C16.8741 22.9218 16.9159 22.4977 16.8345 22.0885C16.7531 21.6793 16.5522 21.3034 16.2572 21.0084C15.9622 20.7134 15.5863 20.5125 15.1771 20.4312C14.768 20.3498 14.3438 20.3915 13.9584 20.5512C13.573 20.7108 13.2435 20.9812 13.0117 21.3281C12.78 21.675 12.6563 22.0828 12.6563 22.5C12.6563 23.0594 12.8785 23.596 13.2741 23.9916C13.6697 24.3871 14.2062 24.6094 14.7656 24.6094ZM30.2344 24.6094C30.6516 24.6094 31.0594 24.4857 31.4063 24.2539C31.7532 24.0221 32.0235 23.6927 32.1832 23.3072C32.3428 22.9218 32.3846 22.4977 32.3032 22.0885C32.2218 21.6793 32.0209 21.3034 31.7259 21.0084C31.4309 20.7134 31.0551 20.5125 30.6459 20.4312C30.2367 20.3498 29.8126 20.3915 29.4272 20.5512C29.0417 20.7108 28.7123 20.9812 28.4805 21.3281C28.2487 21.675 28.125 22.0828 28.125 22.5C28.125 23.0594 28.3472 23.596 28.7428 23.9916C29.1384 24.3871 29.6749 24.6094 30.2344 24.6094ZM40.7812 11.25V33.75C40.7812 34.4959 40.4849 35.2113 39.9575 35.7387C39.43 36.2662 38.7147 36.5625 37.9688 36.5625H14.5898L8.85938 41.5125L8.84356 41.5248C8.33736 41.954 7.6949 42.1889 7.03125 42.1875C6.61811 42.1866 6.21015 42.0954 5.83594 41.9203C5.35055 41.696 4.93997 41.3367 4.65321 40.8854C4.36646 40.434 4.21563 39.9097 4.21875 39.375V11.25C4.21875 10.5041 4.51507 9.78871 5.04251 9.26126C5.56996 8.73382 6.28533 8.4375 7.03125 8.4375H37.9688C38.7147 8.4375 39.43 8.73382 39.9575 9.26126C40.4849 9.78871 40.7812 10.5041 40.7812 11.25ZM37.9688 11.25H7.03125V39.375L13.1432 34.1016C13.3973 33.8775 13.7237 33.7526 14.0625 33.75H37.9688V11.25Z" fill="#1F4062"/>
</svg>
