<svg width="45" height="45" viewBox="0 0 45 45" fill="none" xmlns="http://www.w3.org/2000/svg">
<path opacity="0.2" d="M5.625 7.03125H16.875V37.9688H5.625V7.03125ZM28.125 15.4688V37.9688H39.375V15.4688H28.125Z" fill="#1F4062"/>
<path d="M42.1875 36.5625H40.7812V15.4688C40.7812 15.0958 40.6331 14.7381 40.3694 14.4744C40.1056 14.2107 39.748 14.0625 39.375 14.0625H28.125C27.752 14.0625 27.3944 14.2107 27.1306 14.4744C26.8669 14.7381 26.7188 15.0958 26.7188 15.4688V22.5H18.2812V7.03125C18.2812 6.65829 18.1331 6.3006 17.8694 6.03688C17.6056 5.77316 17.248 5.625 16.875 5.625H5.625C5.25204 5.625 4.89435 5.77316 4.63063 6.03688C4.36691 6.3006 4.21875 6.65829 4.21875 7.03125V36.5625H2.8125C2.43954 36.5625 2.08185 36.7107 1.81813 36.9744C1.55441 37.2381 1.40625 37.5958 1.40625 37.9688C1.40625 38.3417 1.55441 38.6994 1.81813 38.9631C2.08185 39.2268 2.43954 39.375 2.8125 39.375H42.1875C42.5605 39.375 42.9181 39.2268 43.1819 38.9631C43.4456 38.6994 43.5938 38.3417 43.5938 37.9688C43.5938 37.5958 43.4456 37.2381 43.1819 36.9744C42.9181 36.7107 42.5605 36.5625 42.1875 36.5625ZM29.5312 16.875H37.9688V36.5625H29.5312V16.875ZM26.7188 25.3125V36.5625H18.2812V25.3125H26.7188ZM7.03125 8.4375H15.4688V36.5625H7.03125V8.4375ZM12.6562 12.6562V15.4688C12.6562 15.8417 12.5081 16.1994 12.2444 16.4631C11.9806 16.7268 11.623 16.875 11.25 16.875C10.877 16.875 10.5194 16.7268 10.2556 16.4631C9.99191 16.1994 9.84375 15.8417 9.84375 15.4688V12.6562C9.84375 12.2833 9.99191 11.9256 10.2556 11.6619C10.5194 11.3982 10.877 11.25 11.25 11.25C11.623 11.25 11.9806 11.3982 12.2444 11.6619C12.5081 11.9256 12.6562 12.2833 12.6562 12.6562ZM12.6562 21.0938V23.9062C12.6562 24.2792 12.5081 24.6369 12.2444 24.9006C11.9806 25.1643 11.623 25.3125 11.25 25.3125C10.877 25.3125 10.5194 25.1643 10.2556 24.9006C9.99191 24.6369 9.84375 24.2792 9.84375 23.9062V21.0938C9.84375 20.7208 9.99191 20.3631 10.2556 20.0994C10.5194 19.8357 10.877 19.6875 11.25 19.6875C11.623 19.6875 11.9806 19.8357 12.2444 20.0994C12.5081 20.3631 12.6562 20.7208 12.6562 21.0938ZM12.6562 29.5312V32.3438C12.6562 32.7167 12.5081 33.0744 12.2444 33.3381C11.9806 33.6018 11.623 33.75 11.25 33.75C10.877 33.75 10.5194 33.6018 10.2556 33.3381C9.99191 33.0744 9.84375 32.7167 9.84375 32.3438V29.5312C9.84375 29.1583 9.99191 28.8006 10.2556 28.5369C10.5194 28.2732 10.877 28.125 11.25 28.125C11.623 28.125 11.9806 28.2732 12.2444 28.5369C12.5081 28.8006 12.6562 29.1583 12.6562 29.5312ZM21.0938 32.3438V29.5312C21.0938 29.1583 21.2419 28.8006 21.5056 28.5369C21.7694 28.2732 22.127 28.125 22.5 28.125C22.873 28.125 23.2306 28.2732 23.4944 28.5369C23.7581 28.8006 23.9062 29.1583 23.9062 29.5312V32.3438C23.9062 32.7167 23.7581 33.0744 23.4944 33.3381C23.2306 33.6018 22.873 33.75 22.5 33.75C22.127 33.75 21.7694 33.6018 21.5056 33.3381C21.2419 33.0744 21.0938 32.7167 21.0938 32.3438ZM32.3438 32.3438V29.5312C32.3438 29.1583 32.4919 28.8006 32.7556 28.5369C33.0194 28.2732 33.377 28.125 33.75 28.125C34.123 28.125 34.4806 28.2732 34.7444 28.5369C35.0081 28.8006 35.1562 29.1583 35.1562 29.5312V32.3438C35.1562 32.7167 35.0081 33.0744 34.7444 33.3381C34.4806 33.6018 34.123 33.75 33.75 33.75C33.377 33.75 33.0194 33.6018 32.7556 33.3381C32.4919 33.0744 32.3438 32.7167 32.3438 32.3438ZM32.3438 23.9062V21.0938C32.3438 20.7208 32.4919 20.3631 32.7556 20.0994C33.0194 19.8357 33.377 19.6875 33.75 19.6875C34.123 19.6875 34.4806 19.8357 34.7444 20.0994C35.0081 20.3631 35.1562 20.7208 35.1562 21.0938V23.9062C35.1562 24.2792 35.0081 24.6369 34.7444 24.9006C34.4806 25.1643 34.123 25.3125 33.75 25.3125C33.377 25.3125 33.0194 25.1643 32.7556 24.9006C32.4919 24.6369 32.3438 24.2792 32.3438 23.9062Z" fill="#1F4062"/>
</svg>
