<svg width="45" height="45" viewBox="0 0 45 45" fill="none" xmlns="http://www.w3.org/2000/svg">
<path opacity="0.2" d="M42.1875 22.5C42.1875 26.2296 40.7059 29.8064 38.0687 32.4437C35.4315 35.0809 31.8546 36.5625 28.125 36.5625H12.6563C11.2605 36.5608 9.88103 36.2622 8.60943 35.6867C7.33784 35.1112 6.20318 34.2718 5.28074 33.2243C4.3583 32.1768 3.66918 30.9451 3.25909 29.6109C2.84901 28.2767 2.72734 26.8706 2.90217 25.4858C3.07699 24.101 3.54431 22.7692 4.27311 21.5788C5.00192 20.3884 5.97554 19.3667 7.12938 18.5813C8.28322 17.7959 9.59089 17.2648 10.9656 17.0234C12.3404 16.7819 13.7507 16.8356 15.1031 17.1808V17.1984C16.3337 14.1801 18.5745 11.683 21.4425 10.134C24.3105 8.58512 27.6275 8.0806 30.8264 8.70675C34.0252 9.33289 36.9072 11.0508 38.9795 13.5668C41.0518 16.0827 42.1858 19.2405 42.1875 22.5Z" fill="#1F4062"/>
<path d="M31.3488 29.1199L28.125 25.8943V36.5625C28.125 36.9355 27.9768 37.2931 27.7131 37.5569C27.4494 37.8206 27.0917 37.9688 26.7187 37.9688C26.3458 37.9688 25.9881 37.8206 25.7244 37.5569C25.4606 37.2931 25.3125 36.9355 25.3125 36.5625V25.8943L22.0887 29.1199C21.958 29.2506 21.8029 29.3542 21.6322 29.4249C21.4615 29.4956 21.2785 29.532 21.0937 29.532C20.909 29.532 20.726 29.4956 20.5553 29.4249C20.3846 29.3542 20.2295 29.2506 20.0988 29.1199C19.9682 28.9893 19.8645 28.8342 19.7938 28.6634C19.7231 28.4927 19.6867 28.3098 19.6867 28.125C19.6867 27.9402 19.7231 27.7573 19.7938 27.5866C19.8645 27.4158 19.9682 27.2607 20.0988 27.1301L25.7238 21.5051C25.8544 21.3743 26.0095 21.2706 26.1802 21.1998C26.3509 21.1291 26.5339 21.0926 26.7187 21.0926C26.9035 21.0926 27.0865 21.1291 27.2573 21.1998C27.428 21.2706 27.5831 21.3743 27.7137 21.5051L33.3387 27.1301C33.4693 27.2607 33.573 27.4158 33.6437 27.5866C33.7144 27.7573 33.7508 27.9402 33.7508 28.125C33.7508 28.3098 33.7144 28.4927 33.6437 28.6634C33.573 28.8342 33.4693 28.9893 33.3387 29.1199C33.208 29.2506 33.0529 29.3542 32.8822 29.4249C32.7115 29.4956 32.5285 29.532 32.3437 29.532C32.159 29.532 31.976 29.4956 31.8053 29.4249C31.6346 29.3542 31.4795 29.2506 31.3488 29.1199ZM28.125 7.03125C25.2519 7.03342 22.4362 7.83495 19.9927 9.34618C17.5492 10.8574 15.5744 13.0187 14.2892 15.5883C12.7591 15.3634 11.1991 15.4565 9.7065 15.8616C8.21394 16.2668 6.82096 16.9753 5.61453 17.943C4.40811 18.9107 3.41417 20.1168 2.69479 21.4858C1.97541 22.8549 1.54603 24.3576 1.43349 25.9001C1.32094 27.4425 1.52763 28.9916 2.04067 30.4506C2.5537 31.9096 3.36204 33.2472 4.41522 34.3797C5.46839 35.5123 6.74377 36.4155 8.16171 37.0331C9.57964 37.6506 11.1097 37.9691 12.6562 37.9688H19.6875C20.0605 37.9688 20.4181 37.8206 20.6819 37.5569C20.9456 37.2931 21.0937 36.9355 21.0937 36.5625C21.0937 36.1895 20.9456 35.8319 20.6819 35.5681C20.4181 35.3044 20.0605 35.1562 19.6875 35.1562H12.6562C10.4185 35.1562 8.27237 34.2673 6.69003 32.685C5.10769 31.1026 4.21874 28.9565 4.21874 26.7188C4.21874 24.481 5.10769 22.3349 6.69003 20.7525C8.27237 19.1702 10.4185 18.2812 12.6562 18.2812C12.8496 18.2812 13.043 18.2813 13.2346 18.3023C12.8502 19.6684 12.6556 21.0809 12.6562 22.5C12.6562 22.873 12.8044 23.2306 13.0681 23.4944C13.3318 23.7581 13.6895 23.9062 14.0625 23.9062C14.4355 23.9062 14.7931 23.7581 15.0569 23.4944C15.3206 23.2306 15.4687 22.873 15.4687 22.5C15.4691 20.2183 16.0863 17.9791 17.2549 16.0194C18.4236 14.0597 20.1004 12.4524 22.1077 11.3676C24.115 10.2828 26.3783 9.76081 28.658 9.8569C30.9377 9.95299 33.149 10.6636 35.0579 11.9135C36.9668 13.1634 38.5024 14.9061 39.502 16.9571C40.5016 19.0082 40.9282 21.2914 40.7365 23.565C40.5448 25.8387 39.7421 28.0182 38.4132 29.873C37.0843 31.7278 35.2787 33.1889 33.1875 34.1016C32.8905 34.2303 32.6471 34.4575 32.4982 34.7449C32.3493 35.0322 32.3041 35.3621 32.3702 35.679C32.4363 35.9958 32.6096 36.2801 32.861 36.484C33.1124 36.6879 33.4263 36.7988 33.75 36.798C33.9438 36.7979 34.1354 36.7572 34.3125 36.6785C37.5703 35.2574 40.2394 32.7578 41.8708 29.6C43.5021 26.4423 43.9963 22.819 43.2702 19.3397C42.544 15.8604 40.6418 12.7373 37.8836 10.4957C35.1253 8.25402 31.6793 7.03063 28.125 7.03125Z" fill="#1F4062"/>
</svg>
