<svg width="45" height="45" viewBox="0 0 45 45" fill="none" xmlns="http://www.w3.org/2000/svg">
<path opacity="0.2" d="M42.1875 22.5C42.1875 26.2296 40.7059 29.8064 38.0687 32.4437C35.4315 35.0809 31.8546 36.5625 28.125 36.5625H12.6563C11.2605 36.5608 9.88103 36.2622 8.60943 35.6867C7.33784 35.1112 6.20318 34.2718 5.28074 33.2243C4.3583 32.1768 3.66918 30.9451 3.25909 29.6109C2.84901 28.2767 2.72734 26.8706 2.90217 25.4858C3.07699 24.101 3.54431 22.7692 4.27311 21.5788C5.00192 20.3884 5.97554 19.3667 7.12938 18.5813C8.28322 17.7959 9.59089 17.2648 10.9656 17.0234C12.3404 16.7819 13.7507 16.8356 15.1031 17.1808V17.1984C16.3337 14.1801 18.5745 11.683 21.4425 10.134C24.3105 8.58512 27.6275 8.0806 30.8264 8.70675C34.0252 9.33289 36.9072 11.0508 38.9795 13.5668C41.0518 16.0827 42.1858 19.2405 42.1875 22.5Z" fill="#1F4062"/>
<path d="M28.125 7.03125C25.2522 7.03346 22.4366 7.83481 19.9932 9.34569C17.5498 10.8566 15.5748 13.0174 14.2893 15.5865C12.7599 15.3635 11.201 15.4579 9.70972 15.864C8.21848 16.2701 6.82691 16.9792 5.62181 17.9469C4.41671 18.9146 3.42393 20.1202 2.70539 21.4886C1.98686 22.8569 1.55798 24.3587 1.44552 25.9001C1.33306 27.4416 1.53941 28.9897 2.05172 30.4478C2.56403 31.906 3.3713 33.243 4.42318 34.3754C5.47506 35.5077 6.74898 36.4112 8.16549 37.0295C9.582 37.6477 11.1107 37.9675 12.6562 37.9688H28.125C32.2276 37.9688 36.1621 36.339 39.0631 33.4381C41.964 30.5371 43.5937 26.6026 43.5937 22.5C43.5937 18.3974 41.964 14.4629 39.0631 11.5619C36.1621 8.66099 32.2276 7.03125 28.125 7.03125ZM28.125 35.1562H12.6562C10.4185 35.1562 8.27237 34.2673 6.69003 32.685C5.1077 31.1026 4.21875 28.9565 4.21875 26.7188C4.21875 24.481 5.1077 22.3349 6.69003 20.7525C8.27237 19.1702 10.4185 18.2812 12.6562 18.2812C12.8496 18.2812 13.043 18.2812 13.2346 18.3006C12.85 19.6672 12.6554 21.0803 12.6562 22.5C12.6562 22.873 12.8044 23.2306 13.0681 23.4944C13.3319 23.7581 13.6895 23.9062 14.0625 23.9062C14.4355 23.9062 14.7931 23.7581 15.0569 23.4944C15.3206 23.2306 15.4687 22.873 15.4687 22.5C15.4687 19.9968 16.211 17.5499 17.6017 15.4686C18.9924 13.3873 20.969 11.7651 23.2817 10.8071C25.5943 9.84923 28.139 9.59859 30.5941 10.0869C33.0492 10.5753 35.3043 11.7807 37.0743 13.5507C38.8443 15.3207 40.0497 17.5758 40.5381 20.0309C41.0264 22.486 40.7758 25.0307 39.8178 27.3433C38.8599 29.656 37.2377 31.6326 35.1564 33.0233C33.0751 34.414 30.6282 35.1562 28.125 35.1562ZM34.7449 18.6926C34.8757 18.8232 34.9794 18.9783 35.0502 19.149C35.1209 19.3197 35.1574 19.5027 35.1574 19.6875C35.1574 19.8723 35.1209 20.0553 35.0502 20.226C34.9794 20.3967 34.8757 20.5518 34.7449 20.6824L26.3074 29.1199C26.1768 29.2507 26.0217 29.3544 25.851 29.4252C25.6803 29.4959 25.4973 29.5324 25.3125 29.5324C25.1277 29.5324 24.9447 29.4959 24.774 29.4252C24.6033 29.3544 24.4482 29.2507 24.3176 29.1199L20.0988 24.9012C19.835 24.6373 19.6867 24.2794 19.6867 23.9062C19.6867 23.5331 19.835 23.1752 20.0988 22.9113C20.3627 22.6475 20.7206 22.4992 21.0937 22.4992C21.4669 22.4992 21.8248 22.6475 22.0887 22.9113L25.3125 26.1369L32.7551 18.6926C32.8857 18.5618 33.0408 18.4581 33.2115 18.3873C33.3822 18.3166 33.5652 18.2801 33.75 18.2801C33.9348 18.2801 34.1178 18.3166 34.2885 18.3873C34.4592 18.4581 34.6143 18.5618 34.7449 18.6926Z" fill="#1F4062"/>
</svg>
