<svg width="45" height="45" viewBox="0 0 45 45" fill="none" xmlns="http://www.w3.org/2000/svg">
<path opacity="0.2" d="M26.7188 5.625V16.875C26.7188 17.6209 26.4224 18.3363 25.895 18.8637C25.3675 19.3912 24.6522 19.6875 23.9062 19.6875H5.625C4.87908 19.6875 4.16371 19.3912 3.63626 18.8637C3.10882 18.3363 2.8125 17.6209 2.8125 16.875V5.625C2.8125 4.87908 3.10882 4.16371 3.63626 3.63626C4.16371 3.10882 4.87908 2.8125 5.625 2.8125H23.9062C24.6522 2.8125 25.3675 3.10882 25.895 3.63626C26.4224 4.16371 26.7188 4.87908 26.7188 5.625Z" fill="#1F4062"/>
<path d="M10.2551 17.87L4.63009 12.245C4.49934 12.1144 4.39561 11.9593 4.32485 11.7886C4.25408 11.6178 4.21765 11.4349 4.21765 11.25C4.21765 11.0652 4.25408 10.8823 4.32485 10.7115C4.39561 10.5408 4.49934 10.3857 4.63009 10.2551L10.2551 4.63013C10.519 4.36626 10.8768 4.21802 11.25 4.21802C11.6232 4.21802 11.9811 4.36626 12.2449 4.63013C12.5088 4.894 12.657 5.25188 12.657 5.62505C12.657 5.99822 12.5088 6.3561 12.2449 6.61997L7.61309 11.25L12.2449 15.8801C12.5088 16.144 12.657 16.5019 12.657 16.875C12.657 17.2482 12.5088 17.6061 12.2449 17.87C11.9811 18.1338 11.6232 18.2821 11.25 18.2821C10.8768 18.2821 10.519 18.1338 10.2551 17.87ZM17.2863 17.87C17.4169 18.0007 17.572 18.1044 17.7427 18.1752C17.9135 18.246 18.0965 18.2824 18.2813 18.2824C18.4661 18.2824 18.6491 18.246 18.8198 18.1752C18.9905 18.1044 19.1456 18.0007 19.2762 17.87L24.9012 12.245C25.0319 12.1144 25.1357 11.9593 25.2064 11.7886C25.2772 11.6178 25.3136 11.4349 25.3136 11.25C25.3136 11.0652 25.2772 10.8823 25.2064 10.7115C25.1357 10.5408 25.0319 10.3857 24.9012 10.2551L19.2762 4.63013C19.0123 4.36626 18.6544 4.21802 18.2813 4.21802C17.9081 4.21802 17.5502 4.36626 17.2863 4.63013C17.0225 4.894 16.8742 5.25188 16.8742 5.62505C16.8742 5.99822 17.0225 6.3561 17.2863 6.61997L21.9182 11.25L17.2863 15.8801C17.1556 16.0107 17.0519 16.1658 16.9811 16.3365C16.9103 16.5073 16.8739 16.6902 16.8739 16.875C16.8739 17.0599 16.9103 17.2428 16.9811 17.4136C17.0519 17.5843 17.1556 17.7394 17.2863 17.87ZM35.1563 7.0313H30.9375C30.5645 7.0313 30.2069 7.17946 29.9431 7.44318C29.6794 7.7069 29.5313 8.06459 29.5313 8.43755C29.5313 8.81051 29.6794 9.1682 29.9431 9.43192C30.2069 9.69564 30.5645 9.8438 30.9375 9.8438H35.1563V35.1563H9.84376V23.9063C9.84376 23.5333 9.6956 23.1757 9.43188 22.9119C9.16815 22.6482 8.81047 22.5 8.43751 22.5C8.06455 22.5 7.70686 22.6482 7.44314 22.9119C7.17942 23.1757 7.03126 23.5333 7.03126 23.9063V35.1563C7.03126 35.9022 7.32757 36.6176 7.85502 37.145C8.38247 37.6725 9.09784 37.9688 9.84376 37.9688H35.1563C35.9022 37.9688 36.6175 37.6725 37.145 37.145C37.6724 36.6176 37.9688 35.9022 37.9688 35.1563V9.8438C37.9688 9.09788 37.6724 8.38251 37.145 7.85506C36.6175 7.32762 35.9022 7.0313 35.1563 7.0313Z" fill="#1F4062"/>
</svg>
