<svg width="45" height="45" viewBox="0 0 45 45" fill="none" xmlns="http://www.w3.org/2000/svg">
<path opacity="0.2" d="M42.1875 22.5L33.75 29.5312H11.25L2.8125 22.5L11.25 15.4688H33.75L42.1875 22.5Z" fill="#1F4062"/>
<path d="M12.15 16.5499L5.00977 22.5L12.15 28.4502C12.296 28.5671 12.4172 28.7119 12.5065 28.8762C12.5959 29.0404 12.6516 29.2209 12.6703 29.4069C12.6891 29.593 12.6706 29.7809 12.6158 29.9597C12.5611 30.1385 12.4713 30.3046 12.3516 30.4482C12.2319 30.5919 12.0847 30.7102 11.9187 30.7963C11.7527 30.8824 11.5713 30.9346 11.3849 30.9497C11.1985 30.9648 11.011 30.9426 10.8333 30.8844C10.6556 30.8262 10.4913 30.7331 10.35 30.6106L1.91251 23.5793C1.75418 23.4474 1.62681 23.2822 1.5394 23.0955C1.45199 22.9089 1.40668 22.7053 1.40668 22.4992C1.40668 22.2931 1.45199 22.0895 1.5394 21.9028C1.62681 21.7161 1.75418 21.551 1.91251 21.419L10.35 14.3877C10.6367 14.149 11.0065 14.034 11.378 14.068C11.7495 14.1019 12.0924 14.2821 12.3311 14.5688C12.5698 14.8555 12.6848 15.2253 12.6508 15.5968C12.6169 15.9683 12.4367 16.3112 12.15 16.5499ZM43.0875 21.419L34.65 14.3877C34.508 14.2696 34.3442 14.1805 34.1678 14.1256C33.9914 14.0708 33.8059 14.0512 33.622 14.068C33.438 14.0848 33.2592 14.1377 33.0957 14.2236C32.9321 14.3095 32.7871 14.4268 32.669 14.5688C32.4303 14.8555 32.3152 15.2253 32.3492 15.5968C32.3831 15.9683 32.5633 16.3112 32.85 16.5499L39.9902 22.5L32.85 28.4502C32.704 28.5671 32.5828 28.7119 32.4935 28.8762C32.4041 29.0404 32.3485 29.2209 32.3297 29.4069C32.3109 29.593 32.3294 29.7809 32.3842 29.9597C32.4389 30.1385 32.5288 30.3046 32.6485 30.4482C32.7681 30.5919 32.9153 30.7102 33.0813 30.7963C33.2473 30.8824 33.4288 30.9346 33.6151 30.9497C33.8015 30.9648 33.989 30.9426 34.1667 30.8844C34.3444 30.8262 34.5087 30.7331 34.65 30.6106L43.0875 23.5793C43.2458 23.4474 43.3732 23.2822 43.4606 23.0955C43.548 22.9089 43.5933 22.7053 43.5933 22.4992C43.5933 22.2931 43.548 22.0895 43.4606 21.9028C43.3732 21.7161 43.2458 21.551 43.0875 21.419ZM28.6049 5.70942C28.4313 5.6464 28.247 5.61818 28.0625 5.62639C27.878 5.6346 27.6969 5.67906 27.5296 5.75725C27.3623 5.83543 27.212 5.94581 27.0874 6.08207C26.9627 6.21834 26.8661 6.37782 26.8031 6.55141L15.5531 37.4889C15.4898 37.6626 15.4614 37.8471 15.4695 38.0318C15.4776 38.2165 15.522 38.3977 15.6002 38.5653C15.6784 38.7328 15.7888 38.8832 15.9252 39.008C16.0617 39.1328 16.2213 39.2294 16.3951 39.2924C16.5492 39.3472 16.7115 39.3751 16.875 39.375C17.1638 39.3751 17.4456 39.2861 17.6821 39.1204C17.9186 38.9547 18.0983 38.7201 18.1969 38.4487L29.4469 7.51118C29.5099 7.33759 29.5381 7.15328 29.5299 6.96879C29.5217 6.78429 29.4772 6.60322 29.3991 6.43591C29.3209 6.2686 29.2105 6.11833 29.0742 5.99368C28.938 5.86903 28.7785 5.77244 28.6049 5.70942Z" fill="#1F4062"/>
</svg>
