<svg width="45" height="45" viewBox="0 0 45 45" fill="none" xmlns="http://www.w3.org/2000/svg">
<path opacity="0.2" d="M39.375 11.25V26.7188H5.625V11.25C5.625 10.5041 5.92132 9.78871 6.44876 9.26126C6.97621 8.73382 7.69158 8.4375 8.4375 8.4375H36.5625C37.3084 8.4375 38.0238 8.73382 38.5512 9.26126C39.0787 9.78871 39.375 10.5041 39.375 11.25Z" fill="#1F4062"/>
<path d="M36.5625 7.03125H8.4375C7.31862 7.03125 6.24556 7.47572 5.45439 8.26689C4.66322 9.05806 4.21875 10.1311 4.21875 11.25V30.9375C4.21875 32.0564 4.66322 33.1294 5.45439 33.9206C6.24556 34.7118 7.31862 35.1562 8.4375 35.1562H21.0938V37.9688H16.875C16.502 37.9688 16.1444 38.1169 15.8806 38.3806C15.6169 38.6444 15.4688 39.002 15.4688 39.375C15.4688 39.748 15.6169 40.1056 15.8806 40.3694C16.1444 40.6331 16.502 40.7812 16.875 40.7812H28.125C28.498 40.7812 28.8556 40.6331 29.1194 40.3694C29.3831 40.1056 29.5312 39.748 29.5312 39.375C29.5312 39.002 29.3831 38.6444 29.1194 38.3806C28.8556 38.1169 28.498 37.9688 28.125 37.9688H23.9062V35.1562H36.5625C37.6814 35.1562 38.7544 34.7118 39.5456 33.9206C40.3368 33.1294 40.7812 32.0564 40.7812 30.9375V11.25C40.7812 10.1311 40.3368 9.05806 39.5456 8.26689C38.7544 7.47572 37.6814 7.03125 36.5625 7.03125ZM8.4375 9.84375H36.5625C36.9355 9.84375 37.2931 9.99191 37.5569 10.2556C37.8206 10.5194 37.9688 10.877 37.9688 11.25V25.3125H7.03125V11.25C7.03125 10.877 7.17941 10.5194 7.44313 10.2556C7.70685 9.99191 8.06454 9.84375 8.4375 9.84375ZM36.5625 32.3438H8.4375C8.06454 32.3438 7.70685 32.1956 7.44313 31.9319C7.17941 31.6681 7.03125 31.3105 7.03125 30.9375V28.125H37.9688V30.9375C37.9688 31.3105 37.8206 31.6681 37.5569 31.9319C37.2931 32.1956 36.9355 32.3438 36.5625 32.3438Z" fill="#1F4062"/>
</svg>
