<svg width="45" height="45" viewBox="0 0 45 45" fill="none" xmlns="http://www.w3.org/2000/svg">
<path opacity="0.2" d="M39.375 16.875L25.5674 26.7188H19.4326L5.625 16.875L22.5 5.625L39.375 16.875Z" fill="#1F4062"/>
<path d="M40.1555 15.7044L23.2805 4.45436C23.0494 4.30018 22.7778 4.2179 22.5 4.2179C22.2222 4.2179 21.9506 4.30018 21.7195 4.45436L4.84453 15.7044C4.65189 15.8329 4.49398 16.007 4.38481 16.2112C4.27564 16.4155 4.2186 16.6435 4.21875 16.8751V35.1563C4.21875 35.9022 4.51507 36.6176 5.04251 37.145C5.56996 37.6725 6.28533 37.9688 7.03125 37.9688H37.9688C38.7147 37.9688 39.43 37.6725 39.9575 37.145C40.4849 36.6176 40.7812 35.9022 40.7812 35.1563V16.8751C40.7814 16.6435 40.7244 16.4155 40.6152 16.2112C40.506 16.007 40.3481 15.8329 40.1555 15.7044ZM17.0016 26.7188L7.03125 33.7501V19.6049L17.0016 26.7188ZM19.8791 28.1251H25.1209L35.0754 35.1563H9.92461L19.8791 28.1251ZM27.9984 26.7188L37.9688 19.6049V33.7501L27.9984 26.7188ZM22.5 7.31432L36.8982 16.9137L25.1209 25.3126H19.8826L8.10527 16.9137L22.5 7.31432Z" fill="#1F4062"/>
</svg>
