<svg width="45" height="45" viewBox="0 0 45 45" fill="none" xmlns="http://www.w3.org/2000/svg">
<path opacity="0.2" d="M39.375 9.84375L22.5 25.3125L5.625 9.84375H39.375Z" fill="#1F4062"/>
<path d="M39.375 8.4375H5.625C5.25204 8.4375 4.89435 8.58566 4.63063 8.84938C4.36691 9.1131 4.21875 9.47079 4.21875 9.84375V33.75C4.21875 34.4959 4.51507 35.2113 5.04251 35.7387C5.56996 36.2662 6.28533 36.5625 7.03125 36.5625H37.9688C38.7147 36.5625 39.43 36.2662 39.9575 35.7387C40.4849 35.2113 40.7812 34.4959 40.7812 33.75V9.84375C40.7812 9.47079 40.6331 9.1131 40.3694 8.84938C40.1056 8.58566 39.748 8.4375 39.375 8.4375ZM22.5 23.4053L9.24082 11.25H35.7592L22.5 23.4053ZM17.3514 22.5L7.03125 31.9588V13.0412L17.3514 22.5ZM19.4326 24.4072L21.542 26.3496C21.8014 26.5878 22.1408 26.7199 22.493 26.7199C22.8451 26.7199 23.1845 26.5878 23.4439 26.3496L25.5533 24.4072L35.7486 33.75H9.24082L19.4326 24.4072ZM27.6486 22.5L37.9688 13.0395V31.9605L27.6486 22.5Z" fill="#1F4062"/>
</svg>
