<svg width="45" height="45" viewBox="0 0 45 45" fill="none" xmlns="http://www.w3.org/2000/svg">
<path opacity="0.2" d="M39.375 22.5C39.375 25.8376 38.3853 29.1002 36.5311 31.8752C34.6768 34.6503 32.0413 36.8132 28.9578 38.0905C25.8743 39.3677 22.4813 39.7019 19.2079 39.0507C15.9344 38.3996 12.9276 36.7924 10.5676 34.4324C8.20757 32.0724 6.60038 29.0656 5.94926 25.7921C5.29813 22.5187 5.63231 19.1257 6.90954 16.0422C8.18677 12.9587 10.3497 10.3232 13.1248 8.46895C15.8998 6.6147 19.1624 5.625 22.5 5.625C26.9755 5.625 31.2678 7.4029 34.4324 10.5676C37.5971 13.7322 39.375 18.0245 39.375 22.5Z" fill="#1F4062"/>
<path d="M12.6563 22.5C12.6663 26.1887 11.814 29.8287 10.1672 33.1295C10.0886 33.3006 9.97642 33.4542 9.83732 33.5812C9.69823 33.7081 9.53506 33.8059 9.35748 33.8686C9.1799 33.9312 8.99154 33.9576 8.80357 33.9462C8.6156 33.9347 8.43186 33.8856 8.26323 33.8017C8.0946 33.7179 7.94453 33.601 7.82193 33.4581C7.69932 33.3151 7.60667 33.149 7.54948 32.9696C7.49229 32.7902 7.47171 32.6011 7.48898 32.4136C7.50625 32.226 7.56101 32.0439 7.65001 31.8779C9.10196 28.9656 9.85319 25.7542 9.84376 22.5C9.84046 20.6023 10.2655 18.7284 11.0873 17.0179C11.9091 15.3074 13.1063 13.8045 14.5899 12.6211C14.881 12.388 15.2528 12.2801 15.6235 12.3211C15.9942 12.3622 16.3334 12.5488 16.5665 12.8399C16.7996 13.1311 16.9075 13.5029 16.8665 13.8736C16.8254 14.2443 16.6388 14.5835 16.3477 14.8166C15.1936 15.7367 14.2622 16.9056 13.623 18.236C12.9838 19.5664 12.6533 21.024 12.6563 22.5ZM22.5 21.0938C22.1271 21.0938 21.7694 21.2419 21.5056 21.5056C21.2419 21.7694 21.0938 22.127 21.0938 22.5C21.0935 27.9787 19.7024 33.3678 17.0508 38.1621C16.8699 38.4885 16.8261 38.8733 16.9289 39.2319C17.0318 39.5906 17.2729 39.8937 17.5992 40.0746C17.9256 40.2555 18.3104 40.2993 18.6691 40.1965C19.0277 40.0936 19.3308 39.8525 19.5117 39.5262C22.3938 34.3141 23.9059 28.4558 23.9063 22.5C23.9063 22.127 23.7581 21.7694 23.4944 21.5056C23.2307 21.2419 22.873 21.0938 22.5 21.0938ZM22.5 15.4688C20.6352 15.4688 18.8468 16.2095 17.5282 17.5282C16.2096 18.8468 15.4688 20.6352 15.4688 22.5C15.4688 22.873 15.6169 23.2306 15.8806 23.4944C16.1444 23.7581 16.5021 23.9062 16.875 23.9062C17.248 23.9062 17.6057 23.7581 17.8694 23.4944C18.1331 23.2306 18.2813 22.873 18.2813 22.5C18.2813 21.3811 18.7257 20.3081 19.5169 19.5169C20.3081 18.7257 21.3811 18.2812 22.5 18.2812C23.6189 18.2812 24.6919 18.7257 25.4831 19.5169C26.2743 20.3081 26.7188 21.3811 26.7188 22.5C26.7333 28.0915 25.5017 33.616 23.1135 38.6719C23.0347 38.8393 22.9896 39.0207 22.9808 39.2056C22.9721 39.3905 22.9999 39.5753 23.0625 39.7495C23.1252 39.9236 23.2216 40.0837 23.3461 40.2207C23.4707 40.3576 23.621 40.4686 23.7885 40.5475C23.956 40.6263 24.1373 40.6714 24.3222 40.6801C24.5071 40.6888 24.6919 40.6611 24.8661 40.5984C25.0402 40.5357 25.2004 40.4394 25.3373 40.3148C25.4742 40.1902 25.5852 40.0399 25.6641 39.8725C28.2276 34.4408 29.5486 28.5062 29.5313 22.5C29.5313 20.6352 28.7905 18.8468 27.4719 17.5282C26.1532 16.2095 24.3648 15.4688 22.5 15.4688ZM22.5 4.21875C17.6531 4.22387 13.0062 6.15157 9.57887 9.57886C6.15158 13.0061 4.22388 17.6531 4.21876 22.5C4.22137 24.2561 3.92413 25.9997 3.33985 27.6557C3.21561 28.0074 3.23619 28.3941 3.39706 28.7307C3.55793 29.0673 3.84592 29.3261 4.19767 29.4504C4.54942 29.5746 4.93611 29.5541 5.27269 29.3932C5.60927 29.2323 5.86815 28.9443 5.99239 28.5926C6.68229 26.6355 7.03361 24.5751 7.03126 22.5C7.03126 18.3974 8.661 14.4629 11.562 11.5619C14.4629 8.66099 18.3974 7.03125 22.5 7.03125C26.6026 7.03125 30.5371 8.66099 33.4381 11.5619C36.339 14.4629 37.9688 18.3974 37.9688 22.5C37.9695 25.713 37.658 28.9185 37.0389 32.0713C37.0031 32.2525 37.0033 32.439 37.0396 32.6201C37.0758 32.8012 37.1474 32.9734 37.2503 33.1269C37.3531 33.2803 37.4852 33.412 37.6389 33.5144C37.7927 33.6168 37.9651 33.6879 38.1463 33.7236C38.2361 33.741 38.3273 33.7499 38.4188 33.75C38.7442 33.7497 39.0594 33.6365 39.3107 33.4297C39.562 33.223 39.7338 32.9355 39.7969 32.6162C40.4517 29.284 40.7814 25.896 40.7813 22.5C40.7757 17.6532 38.8478 13.0066 35.4206 9.57937C31.9935 6.15218 27.3468 4.22433 22.5 4.21875ZM16.5938 26.7486C16.229 26.6761 15.8504 26.7509 15.5408 26.9568C15.2311 27.1627 15.0156 27.4829 14.9414 27.8473C14.3708 30.6556 13.3492 33.353 11.9162 35.8348C11.7297 36.1578 11.6792 36.5418 11.7758 36.9021C11.8724 37.2624 12.1082 37.5696 12.4313 37.7561C12.7543 37.9425 13.1383 37.993 13.4986 37.8965C13.8589 37.7999 14.1661 37.5641 14.3526 37.241C15.9361 34.4967 17.0641 31.5136 17.6924 28.408C17.7293 28.2269 17.7302 28.0403 17.695 27.8588C17.6598 27.6774 17.5891 27.5047 17.4871 27.3506C17.385 27.1964 17.2536 27.064 17.1003 26.9607C16.9471 26.8574 16.7749 26.7853 16.5938 26.7486ZM22.5 9.84375C21.9711 9.84386 21.4428 9.87674 20.918 9.94219C20.5548 9.9967 20.2274 10.1911 20.0057 10.4838C19.784 10.7765 19.6856 11.1444 19.7315 11.5087C19.7774 11.873 19.964 12.2049 20.2514 12.4335C20.5388 12.662 20.9042 12.7691 21.2695 12.7318C22.6549 12.5596 24.0611 12.6835 25.3949 13.0955C26.7288 13.5074 27.9599 14.198 29.0069 15.1215C30.0538 16.045 30.8927 17.1803 31.468 18.4523C32.0432 19.7243 32.3417 21.104 32.3438 22.5C32.3434 24.3216 32.2306 26.1415 32.0063 27.9492C31.9816 28.1331 31.9935 28.32 32.0414 28.4992C32.0893 28.6784 32.1721 28.8463 32.2852 28.9934C32.3983 29.1404 32.5393 29.2637 32.7002 29.356C32.8611 29.4483 33.0387 29.5079 33.2227 29.5312C33.281 29.5383 33.3397 29.5418 33.3984 29.5418C33.7404 29.5411 34.0704 29.4157 34.3267 29.1892C34.583 28.9627 34.7479 28.6506 34.7906 28.3113C35.0278 26.3869 35.1452 24.4496 35.1422 22.5105C35.1413 19.1556 33.8098 15.9381 31.4399 13.5635C29.0699 11.1889 25.8549 9.8512 22.5 9.84375ZM32.683 32.3877C32.5041 32.3414 32.3179 32.3309 32.1349 32.3567C31.9519 32.3824 31.7758 32.444 31.6166 32.5379C31.4574 32.6317 31.3183 32.7561 31.2072 32.9037C31.0961 33.0514 31.0152 33.2195 30.9692 33.3984C30.7125 34.3986 30.4154 35.4023 30.0902 36.3867C29.9712 36.7394 29.9969 37.1249 30.1617 37.4587C30.3264 37.7925 30.6168 38.0473 30.9692 38.1674C31.1135 38.2165 31.2649 38.2414 31.4174 38.2412C31.712 38.241 31.9992 38.1482 32.2382 37.976C32.4773 37.8038 32.6563 37.5608 32.7498 37.2814C33.1014 36.2408 33.416 35.1721 33.6902 34.1086C33.7374 33.9297 33.7488 33.7432 33.7237 33.5599C33.6987 33.3766 33.6377 33.2001 33.5443 33.0404C33.4509 32.8807 33.3269 32.741 33.1794 32.6293C33.0319 32.5176 32.8638 32.4361 32.6848 32.3895L32.683 32.3877Z" fill="#1F4062"/>
</svg>
