<svg width="45" height="45" viewBox="0 0 45 45" fill="none" xmlns="http://www.w3.org/2000/svg">
<path opacity="0.2" d="M39.375 9.84373V30.9375C28.125 40.681 19.6875 21.1939 8.4375 30.9375V9.84373C19.6875 0.100173 28.125 19.5873 39.375 9.84373Z" fill="#1F4062"/>
<path d="M7.51641 8.78906C7.36512 8.92019 7.24358 9.08211 7.15991 9.264C7.07625 9.44589 7.03238 9.64354 7.03125 9.84375V39.375C7.03125 39.748 7.17941 40.1056 7.44313 40.3694C7.70685 40.6331 8.06454 40.7812 8.4375 40.7812C8.81046 40.7812 9.16815 40.6331 9.43187 40.3694C9.69559 40.1056 9.84375 39.748 9.84375 39.375V31.6002C14.5529 27.8807 18.61 29.8863 23.2822 32.1996C26.165 33.6252 29.2693 35.1615 32.5986 35.1615C35.0473 35.1615 37.6154 34.3266 40.3014 31.9975C40.4527 31.8663 40.5742 31.7044 40.6579 31.5225C40.7415 31.3406 40.7854 31.143 40.7865 30.9428V9.84375C40.7859 9.57383 40.7076 9.30979 40.561 9.08317C40.4143 8.85655 40.2056 8.67691 39.9596 8.56571C39.7137 8.4545 39.4409 8.41643 39.1739 8.45603C38.9069 8.49564 38.657 8.61125 38.4539 8.78906C33.532 13.0482 29.3625 10.9846 24.5303 8.59218C19.524 6.11015 13.848 3.30292 7.51641 8.78906ZM37.9688 30.2783C33.2596 33.9978 29.2025 31.9904 24.5303 29.6789C20.1357 27.508 15.2473 25.0857 9.84375 28.2023V10.51C14.5529 6.79042 18.61 8.79609 23.2822 11.1076C27.6768 13.2785 32.567 15.7008 37.9688 12.5842V30.2783Z" fill="#1F4062"/>
</svg>
