<svg width="45" height="45" viewBox="0 0 45 45" fill="none" xmlns="http://www.w3.org/2000/svg">
<path opacity="0.2" d="M14.0625 30.9375C14.0625 32.05 13.7326 33.1376 13.1145 34.0626C12.4964 34.9876 11.6179 35.7086 10.5901 36.1343C9.56226 36.5601 8.43126 36.6715 7.34012 36.4544C6.24898 36.2374 5.2467 35.7016 4.46003 34.915C3.67336 34.1283 3.13763 33.126 2.92059 32.0349C2.70354 30.9437 2.81494 29.8127 3.24068 28.7849C3.66642 27.7571 4.38739 26.8786 5.31242 26.2605C6.23745 25.6424 7.32498 25.3125 8.4375 25.3125C9.92934 25.3125 11.3601 25.9051 12.415 26.96C13.4699 28.0149 14.0625 29.4457 14.0625 30.9375Z" fill="#1F4062"/>
<path d="M43.1824 13.0676L37.5574 7.44263C37.2936 7.17876 36.9357 7.03052 36.5625 7.03052C36.1893 7.03052 35.8314 7.17876 35.5676 7.44263C35.3037 7.7065 35.1555 8.06438 35.1555 8.43755C35.1555 8.81072 35.3037 9.1686 35.5676 9.43247L38.7932 12.6563H36.5625C27.8912 12.6563 25.8311 17.5993 24.0152 21.9586C22.3664 25.9155 21.041 29.0936 15.3176 29.4891C14.9584 27.7841 13.979 26.2731 12.5691 25.2492C11.1592 24.2253 9.41939 23.7614 7.68689 23.9473C5.95439 24.1333 4.35266 24.9559 3.19222 26.2557C2.03179 27.5556 1.39531 29.24 1.4062 30.9824C1.41709 32.7248 2.07457 34.4011 3.25116 35.6863C4.42776 36.9715 6.03965 37.774 7.77434 37.9383C9.50902 38.1026 11.2429 37.617 12.6399 36.5755C14.0368 35.5341 14.9973 34.011 15.3352 32.3016C22.9395 31.8358 24.8871 27.1776 26.6098 23.0397C28.3729 18.8086 29.765 15.4688 36.5625 15.4688H38.7932L35.5676 18.6926C35.3037 18.9565 35.1555 19.3144 35.1555 19.6876C35.1555 20.0607 35.3037 20.4186 35.5676 20.6825C35.8314 20.9463 36.1893 21.0946 36.5625 21.0946C36.9357 21.0946 37.2936 20.9463 37.5574 20.6825L43.1824 15.0575C43.3132 14.9269 43.4169 14.7718 43.4877 14.6011C43.5584 14.4303 43.5949 14.2474 43.5949 14.0626C43.5949 13.8777 43.5584 13.6948 43.4877 13.524C43.4169 13.3533 43.3132 13.1982 43.1824 13.0676ZM8.4375 35.1563C7.60311 35.1563 6.78746 34.9089 6.09369 34.4453C5.39992 33.9818 4.85919 33.3229 4.53988 32.552C4.22058 31.7811 4.13703 30.9329 4.29981 30.1145C4.46259 29.2962 4.86439 28.5444 5.45439 27.9544C6.0444 27.3644 6.79611 26.9626 7.61446 26.7999C8.43282 26.6371 9.28107 26.7206 10.0519 27.0399C10.8228 27.3592 11.4817 27.9 11.9453 28.5937C12.4088 29.2875 12.6562 30.1032 12.6562 30.9376C12.6562 32.0564 12.2118 33.1295 11.4206 33.9207C10.6294 34.7118 9.55638 35.1563 8.4375 35.1563Z" fill="#1F4062"/>
</svg>
