<svg width="45" height="45" viewBox="0 0 45 45" fill="none" xmlns="http://www.w3.org/2000/svg">
<path opacity="0.2" d="M14.0625 11.25C14.0625 12.0844 13.8151 12.9 13.3515 13.5938C12.888 14.2876 12.2291 14.8283 11.4582 15.1476C10.6873 15.4669 9.83907 15.5505 9.02071 15.3877C8.20236 15.2249 7.45065 14.8231 6.86064 14.2331C6.27064 13.6431 5.86885 12.8914 5.70606 12.073C5.54328 11.2547 5.62683 10.4064 5.94614 9.63555C6.26544 8.86468 6.80617 8.2058 7.49994 7.74224C8.19371 7.27868 9.00936 7.03125 9.84375 7.03125C10.9626 7.03125 12.0357 7.47572 12.8269 8.26689C13.618 9.05806 14.0625 10.1311 14.0625 11.25ZM35.1562 29.5312C34.3219 29.5312 33.5062 29.7787 32.8124 30.2422C32.1187 30.7058 31.5779 31.3647 31.2586 32.1356C30.9393 32.9064 30.8558 33.7547 31.0186 34.573C31.1813 35.3914 31.5831 36.1431 32.1731 36.7331C32.7631 37.3231 33.5149 37.7249 34.3332 37.8877C35.1516 38.0505 35.9998 37.9669 36.7707 37.6476C37.5416 37.3283 38.2005 36.7876 38.664 36.0938C39.1276 35.4 39.375 34.5844 39.375 33.75C39.375 32.6311 38.9305 31.5581 38.1394 30.7669C37.3482 29.9757 36.2751 29.5312 35.1562 29.5312Z" fill="#1F4062"/>
<path d="M19.6875 26.7187C19.3146 26.7187 18.9569 26.8669 18.6931 27.1306C18.4294 27.3943 18.2813 27.752 18.2813 28.125V33.1681L11.6613 26.5429C11.399 26.2803 11.2511 25.9245 11.25 25.5533V16.6992C12.5756 16.3569 13.7309 15.5429 14.4993 14.4098C15.2677 13.2767 15.5964 11.9022 15.4239 10.544C15.2514 9.18586 14.5895 7.93722 13.5622 7.03218C12.5349 6.12713 11.2129 5.62781 9.84376 5.62781C8.47468 5.62781 7.15259 6.12713 6.12531 7.03218C5.09804 7.93722 4.43611 9.18586 4.2636 10.544C4.09109 11.9022 4.41984 13.2767 5.18823 14.4098C5.95662 15.5429 7.1119 16.3569 8.43751 16.6992V25.5551C8.43471 26.1098 8.54202 26.6596 8.75324 27.1725C8.96446 27.6855 9.27538 28.1514 9.66798 28.5433L16.2932 35.1562H11.25C10.8771 35.1562 10.5194 35.3044 10.2556 35.5681C9.99192 35.8318 9.84376 36.1895 9.84376 36.5625C9.84376 36.9354 9.99192 37.2931 10.2556 37.5568C10.5194 37.8206 10.8771 37.9687 11.25 37.9687H19.6875C20.0605 37.9687 20.4182 37.8206 20.6819 37.5568C20.9456 37.2931 21.0938 36.9354 21.0938 36.5625V28.125C21.0938 27.752 20.9456 27.3943 20.6819 27.1306C20.4182 26.8669 20.0605 26.7187 19.6875 26.7187ZM7.03126 11.25C7.03126 10.6937 7.19621 10.1499 7.50526 9.68743C7.8143 9.22492 8.25355 8.86443 8.76747 8.65156C9.28138 8.43869 9.84688 8.38299 10.3925 8.49151C10.938 8.60003 11.4392 8.8679 11.8325 9.26123C12.2258 9.65457 12.4937 10.1557 12.6022 10.7013C12.7107 11.2469 12.655 11.8124 12.4422 12.3263C12.2293 12.8402 11.8688 13.2794 11.4063 13.5885C10.9438 13.8975 10.4 14.0625 9.84376 14.0625C9.09784 14.0625 8.38247 13.7662 7.85503 13.2387C7.32758 12.7113 7.03126 11.9959 7.03126 11.25ZM36.5625 28.3008V19.4467C36.5653 18.8919 36.458 18.3421 36.2468 17.8292C36.0356 17.3162 35.7247 16.8503 35.332 16.4584L28.7069 9.84372H33.75C34.123 9.84372 34.4807 9.69556 34.7444 9.43184C35.0081 9.16812 35.1563 8.81043 35.1563 8.43747C35.1563 8.06451 35.0081 7.70683 34.7444 7.4431C34.4807 7.17938 34.123 7.03122 33.75 7.03122H25.3125C24.9396 7.03122 24.5819 7.17938 24.3181 7.4431C24.0544 7.70683 23.9063 8.06451 23.9063 8.43747V16.875C23.9063 17.2479 24.0544 17.6056 24.3181 17.8693C24.5819 18.1331 24.9396 18.2812 25.3125 18.2812C25.6855 18.2812 26.0432 18.1331 26.3069 17.8693C26.5706 17.6056 26.7188 17.2479 26.7188 16.875V11.8318L33.3387 18.457C33.4692 18.5877 33.5728 18.7428 33.6433 18.9135C33.7139 19.0843 33.7502 19.2672 33.75 19.4519V28.3008C32.4244 28.643 31.2691 29.457 30.5007 30.5901C29.7323 31.7233 29.4036 33.0977 29.5761 34.4559C29.7486 35.8141 30.4105 37.0627 31.4378 37.9678C32.4651 38.8728 33.7872 39.3721 35.1563 39.3721C36.5254 39.3721 37.8474 38.8728 38.8747 37.9678C39.902 37.0627 40.5639 35.8141 40.7364 34.4559C40.9089 33.0977 40.5802 31.7233 39.8118 30.5901C39.0434 29.457 37.8881 28.643 36.5625 28.3008ZM35.1563 36.5625C34.6 36.5625 34.0562 36.3975 33.5937 36.0885C33.1312 35.7794 32.7707 35.3402 32.5579 34.8263C32.345 34.3124 32.2893 33.7469 32.3978 33.2013C32.5063 32.6557 32.7742 32.1546 33.1675 31.7612C33.5609 31.3679 34.062 31.1 34.6076 30.9915C35.1531 30.883 35.7186 30.9387 36.2326 31.1516C36.7465 31.3644 37.1857 31.7249 37.4948 32.1874C37.8038 32.6499 37.9688 33.1937 37.9688 33.75C37.9688 34.4959 37.6725 35.2113 37.145 35.7387C36.6176 36.2662 35.9022 36.5625 35.1563 36.5625Z" fill="#1F4062"/>
</svg>
