<svg width="45" height="45" viewBox="0 0 45 45" fill="none" xmlns="http://www.w3.org/2000/svg">
<path opacity="0.2" d="M37.9687 19.8756V29.2307C37.9695 29.5743 37.8445 29.9064 37.6172 30.1641C35.6309 32.3772 30.7793 36.5625 22.5 36.5625C14.2207 36.5625 9.37266 32.3772 7.38281 30.1641C7.15552 29.9064 7.03046 29.5743 7.03125 29.2307V19.8756L22.5 28.125L37.9687 19.8756Z" fill="#1F4062"/>
<path d="M44.2547 15.634L23.1609 4.38399C22.9575 4.27566 22.7305 4.21899 22.5 4.21899C22.2695 4.21899 22.0425 4.27566 21.8391 4.38399L0.745312 15.634C0.52032 15.7539 0.332157 15.9327 0.200953 16.1513C0.0697485 16.3699 0.000439167 16.6201 0.000439167 16.875C0.000439167 17.13 0.0697485 17.3801 0.200953 17.5987C0.332157 17.8173 0.52032 17.9961 0.745312 18.116L5.625 20.7193V29.2307C5.62354 29.9214 5.87776 30.5883 6.33867 31.1027C8.64141 33.6674 13.8006 37.9688 22.5 37.9688C25.3845 37.9926 28.2474 37.4701 30.9375 36.4289V42.1875C30.9375 42.5605 31.0857 42.9182 31.3494 43.1819C31.6131 43.4456 31.9708 43.5938 32.3438 43.5938C32.7167 43.5938 33.0744 43.4456 33.3381 43.1819C33.6018 42.9182 33.75 42.5605 33.75 42.1875V35.0701C35.5838 34.0116 37.2409 32.6729 38.6613 31.1027C39.1223 30.5883 39.3765 29.9214 39.375 29.2307V20.7193L44.2547 18.116C44.4797 17.9961 44.6678 17.8173 44.799 17.5987C44.9303 17.3801 44.9996 17.13 44.9996 16.875C44.9996 16.6201 44.9303 16.3699 44.799 16.1513C44.6678 15.9327 44.4797 15.7539 44.2547 15.634ZM22.5 35.1563C14.8939 35.1563 10.4203 31.4402 8.4375 29.2307V22.2188L21.8391 29.366C22.0425 29.4744 22.2695 29.531 22.5 29.531C22.7305 29.531 22.9575 29.4744 23.1609 29.366L30.9375 25.2193V33.365C28.7227 34.3986 25.9313 35.1563 22.5 35.1563ZM36.5625 29.2236C35.7195 30.1591 34.7764 30.9991 33.75 31.7285V23.7182L36.5625 22.2188V29.2236ZM33.0469 20.9074L33.0082 20.8846L23.1645 15.634C22.836 15.4662 22.4549 15.4342 22.103 15.5448C21.7512 15.6554 21.4569 15.8998 21.2836 16.2253C21.1102 16.5508 21.0717 16.9314 21.1762 17.285C21.2808 17.6387 21.5201 17.9371 21.8426 18.116L30.0586 22.5L22.5 26.5307L4.39453 16.875L22.5 7.21935L40.6055 16.875L33.0469 20.9074Z" fill="#1F4062"/>
</svg>
