<svg width="45" height="45" viewBox="0 0 45 45" fill="none" xmlns="http://www.w3.org/2000/svg">
<path opacity="0.2" d="M26.7188 22.5C26.7188 23.3344 26.4713 24.15 26.0078 24.8438C25.5442 25.5376 24.8853 26.0783 24.1144 26.3976C23.3436 26.7169 22.4953 26.8005 21.677 26.6377C20.8586 26.4749 20.1069 26.0731 19.5169 25.4831C18.9269 24.8931 18.5251 24.1414 18.3623 23.323C18.1995 22.5047 18.2831 21.6564 18.6024 20.8856C18.9217 20.1147 19.4624 19.4558 20.1562 18.9922C20.85 18.5287 21.6656 18.2813 22.5 18.2812C23.6189 18.2813 24.6919 18.7257 25.4831 19.5169C26.2743 20.3081 26.7188 21.3811 26.7188 22.5Z" fill="#1F4062"/>
<path d="M35.1563 26.7187C33.9133 26.7181 32.7054 27.1312 31.7232 27.893L27.6609 24.7289C27.9676 24.0259 28.1256 23.267 28.125 22.5C28.125 22.3699 28.125 22.2398 28.1109 22.1115L30.4365 21.3363C31.1723 22.4711 32.2922 23.3027 33.5912 23.679C34.8902 24.0553 36.2813 23.951 37.5096 23.3851C38.738 22.8193 39.7213 21.8299 40.2796 20.5981C40.8379 19.3664 40.9337 17.9747 40.5495 16.678C40.1652 15.3813 39.3267 14.2665 38.1875 13.5377C37.0483 12.8089 35.6846 12.515 34.3463 12.7097C33.008 12.9045 31.7847 13.5748 30.9004 14.5981C30.0161 15.6213 29.53 16.9288 29.5313 18.2812C29.5313 18.4113 29.5313 18.5414 29.5453 18.6697L27.2197 19.4449C26.7099 18.6568 26.011 18.0087 25.1866 17.5598C24.3623 17.111 23.4387 16.8755 22.5 16.875C22.1896 16.8756 21.8798 16.9015 21.5736 16.9523L20.3713 14.2383C21.4095 13.4087 22.1205 12.2384 22.3782 10.9348C22.636 9.63111 22.4238 8.2783 21.7794 7.1161C21.135 5.9539 20.1 5.05738 18.8577 4.58543C17.6154 4.11348 16.2462 4.0966 14.9927 4.53776C13.7391 4.97892 12.6823 5.84964 12.0094 6.99559C11.3365 8.14154 11.0911 9.48872 11.3166 10.7983C11.5421 12.108 12.224 13.2954 13.2415 14.1503C14.2589 15.0052 15.5461 15.4723 16.875 15.4687C17.1854 15.4681 17.4952 15.4422 17.8014 15.3914L19.0037 18.0984C17.9841 18.9054 17.2764 20.0415 17.0017 21.3124C16.7269 22.5834 16.9021 23.9103 17.4973 25.0664L12.9779 29.0812C11.8406 28.3145 10.4627 27.9889 9.10243 28.1654C7.74219 28.3419 6.49303 29.0085 5.58908 30.0402C4.68514 31.0718 4.18848 32.3977 4.1922 33.7694C4.19592 35.141 4.69975 36.4642 5.60927 37.4909C6.51879 38.5177 7.77155 39.1775 9.13272 39.3466C10.4939 39.5158 11.87 39.1827 13.0032 38.4098C14.1364 37.6369 14.9488 36.4773 15.2881 35.1483C15.6274 33.8193 15.4704 32.4121 14.8465 31.1906L19.3658 27.1758C20.3443 27.8346 21.5057 28.1682 22.6847 28.1291C23.8637 28.0899 25.0003 27.6801 25.933 26.9578L29.9953 30.1219C29.6896 30.8227 29.5316 31.5791 29.5313 32.3437C29.5313 33.4563 29.8612 34.5438 30.4792 35.4688C31.0973 36.3938 31.9758 37.1148 33.0037 37.5406C34.0315 37.9663 35.1625 38.0777 36.2536 37.8607C37.3448 37.6436 38.3471 37.1079 39.1337 36.3212C39.9204 35.5345 40.4561 34.5323 40.6732 33.4411C40.8902 32.35 40.7788 31.219 40.3531 30.1911C39.9273 29.1633 39.2064 28.2848 38.2813 27.6667C37.3563 27.0486 36.2688 26.7187 35.1563 26.7187ZM35.1563 15.4687C35.7125 15.4687 36.2563 15.6337 36.7188 15.9427C37.1813 16.2518 37.5418 16.691 37.7547 17.2049C37.9675 17.7189 38.0232 18.2844 37.9147 18.8299C37.8062 19.3755 37.5383 19.8766 37.145 20.27C36.7517 20.6633 36.2505 20.9312 35.7049 21.0397C35.1594 21.1482 34.5939 21.0925 34.08 20.8796C33.566 20.6668 33.1268 20.3063 32.8177 19.8438C32.5087 19.3813 32.3438 18.8375 32.3438 18.2812C32.3438 17.5353 32.6401 16.8199 33.1675 16.2925C33.695 15.765 34.4103 15.4687 35.1563 15.4687ZM14.0625 9.84373C14.0625 9.28747 14.2275 8.7437 14.5365 8.28119C14.8455 7.81868 15.2848 7.45819 15.7987 7.24532C16.3126 7.03245 16.8781 6.97675 17.4237 7.08527C17.9693 7.19379 18.4704 7.46166 18.8637 7.85499C19.2571 8.24833 19.5249 8.74947 19.6335 9.29504C19.742 9.84061 19.6863 10.4061 19.4734 10.92C19.2605 11.4339 18.9001 11.8732 18.4375 12.1822C17.975 12.4913 17.4313 12.6562 16.875 12.6562C16.1291 12.6562 15.4137 12.3599 14.8863 11.8325C14.3588 11.305 14.0625 10.5897 14.0625 9.84373ZM9.84375 36.5625C9.28749 36.5625 8.74372 36.3975 8.28121 36.0885C7.8187 35.7795 7.45821 35.3402 7.24534 34.8263C7.03247 34.3124 6.97677 33.7469 7.08529 33.2013C7.19381 32.6557 7.46168 32.1546 7.85501 31.7612C8.24835 31.3679 8.74949 31.1 9.29506 30.9915C9.84063 30.883 10.4061 30.9387 10.92 31.1516C11.434 31.3644 11.8732 31.7249 12.1823 32.1874C12.4913 32.65 12.6563 33.1937 12.6563 33.75C12.6563 34.4959 12.3599 35.2113 11.8325 35.7387C11.305 36.2662 10.5897 36.5625 9.84375 36.5625ZM19.6875 22.5C19.6875 21.9437 19.8525 21.4 20.1615 20.9374C20.4705 20.4749 20.9098 20.1144 21.4237 19.9016C21.9376 19.6887 22.5031 19.633 23.0487 19.7415C23.5943 19.85 24.0954 20.1179 24.4887 20.5112C24.8821 20.9046 25.1499 21.4057 25.2585 21.9513C25.367 22.4969 25.3113 23.0624 25.0984 23.5763C24.8855 24.0902 24.5251 24.5294 24.0625 24.8385C23.6 25.1475 23.0563 25.3125 22.5 25.3125C21.7541 25.3125 21.0387 25.0162 20.5113 24.4887C19.9838 23.9613 19.6875 23.2459 19.6875 22.5ZM35.1563 35.1562C34.6 35.1562 34.0562 34.9913 33.5937 34.6822C33.1312 34.3732 32.7707 33.9339 32.5578 33.42C32.345 32.9061 32.2893 32.3406 32.3978 31.795C32.5063 31.2495 32.7742 30.7483 33.1675 30.355C33.5609 29.9617 34.062 29.6938 34.6076 29.5853C35.1531 29.4768 35.7186 29.5324 36.2326 29.7453C36.7465 29.9582 37.1857 30.3187 37.4948 30.7812C37.8038 31.2437 37.9688 31.7875 37.9688 32.3437C37.9688 33.0897 37.6724 33.805 37.145 34.3325C36.6175 34.8599 35.9022 35.1562 35.1563 35.1562Z" fill="#1F4062"/>
</svg>
