<svg width="45" height="45" viewBox="0 0 45 45" fill="none" xmlns="http://www.w3.org/2000/svg">
<path opacity="0.2" d="M35.1562 26.7188L28.125 33.75L16.875 30.9375L7.03125 23.9062L12.7758 12.4154L22.5 9.84375L32.2242 12.4154L32.2734 12.6562H25.3125L17.2863 20.4416C17.1371 20.5907 17.0234 20.7715 16.9535 20.9706C16.8837 21.1696 16.8595 21.3819 16.8828 21.5915C16.9061 21.8012 16.9763 22.0029 17.0881 22.1818C17.2 22.3607 17.3506 22.5121 17.5289 22.6248C20.6068 24.5918 24.7852 24.4564 28.125 21.0938L35.1562 26.7188Z" fill="#1F4062"/>
<path d="M44.7012 18.9686L40.2152 9.99316C40.05 9.66281 39.8213 9.36825 39.5422 9.1263C39.263 8.88434 38.939 8.69974 38.5886 8.58303C38.2381 8.46632 37.8681 8.41979 37.4996 8.44609C37.1312 8.47239 36.7715 8.57102 36.4412 8.73633L32.0695 10.9213L22.8604 8.48496C22.6241 8.42347 22.3759 8.42347 22.1396 8.48496L12.9305 10.9213L8.55879 8.73633C8.22846 8.57102 7.86881 8.47239 7.50037 8.44609C7.13192 8.41979 6.76191 8.46632 6.41145 8.58303C6.06099 8.69974 5.73695 8.88434 5.45784 9.1263C5.17874 9.36825 4.95002 9.66281 4.78476 9.99316L0.298827 18.9668C0.133516 19.2971 0.0348925 19.6568 0.00858941 20.0252C-0.0177136 20.3937 0.0288188 20.7637 0.14553 21.1141C0.26224 21.4646 0.446843 21.7886 0.688796 22.0677C0.930748 22.3468 1.22531 22.5756 1.55566 22.7408L6.30176 25.1156L16.0559 32.0818C16.1996 32.1841 16.3611 32.2586 16.5322 32.3016L27.7822 35.1141C28.0178 35.1731 28.2647 35.1702 28.4988 35.1055C28.733 35.0408 28.9463 34.9166 29.1182 34.7449L38.7984 25.0629L43.4426 22.7408C44.1093 22.4071 44.6162 21.8222 44.8519 21.1149C45.0876 20.4075 45.0327 19.6355 44.6994 18.9686H44.7012ZM35.0525 24.8344L29.0039 19.9898C28.7329 19.7728 28.3913 19.6637 28.0447 19.6835C27.6981 19.7033 27.3711 19.8506 27.1266 20.0971C23.9959 23.2506 20.5066 22.8516 18.2812 21.4453L25.882 14.0625H31.4736L36.2566 23.6268L35.0525 24.8344ZM7.30019 11.25L10.8984 13.0465L6.40371 22.0201L2.8125 20.2254L7.30019 11.25ZM27.6908 32.1908L17.4762 29.6385L8.82773 23.4615L13.7496 13.6178L22.5 11.2992L24.2227 11.7545L16.3125 19.4326L16.2984 19.4484C16.0007 19.7462 15.7736 20.107 15.6339 20.5043C15.4942 20.9015 15.4455 21.3251 15.4914 21.7437C15.5373 22.1623 15.6766 22.5652 15.899 22.9228C16.1215 23.2803 16.4214 23.5834 16.7766 23.8096C20.3906 26.1176 24.7518 25.7432 28.1865 22.9307L33.0469 26.8348L27.6908 32.1908ZM38.5893 22.0184L34.1033 13.0535L37.6998 11.25L42.1875 20.2254L38.5893 22.0184ZM23.1645 38.308C23.0885 38.6119 22.9132 38.8818 22.6664 39.0748C22.4196 39.2678 22.1154 39.3728 21.8021 39.3732C21.6866 39.3731 21.5715 39.3589 21.4594 39.3311L14.1346 37.4994C13.9632 37.4571 13.8016 37.3826 13.6582 37.2797L9.02637 33.9715C8.74157 33.7479 8.554 33.423 8.50272 33.0646C8.45144 32.7061 8.5404 32.3417 8.75108 32.0472C8.96176 31.7527 9.27791 31.5509 9.63371 31.4836C9.98951 31.4164 10.3575 31.489 10.6611 31.6863L15.075 34.8398L22.1484 36.6047C22.5102 36.6952 22.8212 36.9256 23.013 37.2454C23.2049 37.5651 23.2619 37.948 23.1715 38.3098L23.1645 38.308Z" fill="#1F4062"/>
</svg>
