<svg width="45" height="46" viewBox="0 0 45 46" fill="none" xmlns="http://www.w3.org/2000/svg">
<path opacity="0.2" d="M34.9805 33.0047C35.465 30.1144 34.9267 27.1456 33.4582 24.6094L29.9074 18.457C29.4845 17.7613 28.8097 17.2553 28.0233 17.0444C27.2368 16.8335 26.3994 16.9339 25.6851 17.3246C24.9708 17.7154 24.4346 18.3665 24.1881 19.1425C23.9416 19.9185 24.0037 20.7596 24.3615 21.491L20.1639 14.2383C19.9603 13.8705 19.6855 13.5469 19.3555 13.2865C19.0255 13.0261 18.647 12.834 18.2419 12.7216C17.8369 12.6091 17.4135 12.5785 16.9965 12.6315C16.5795 12.6845 16.1772 12.8201 15.8132 13.0303C15.4491 13.2405 15.1306 13.5212 14.8763 13.8559C14.6219 14.1906 14.4368 14.5726 14.3318 14.9796C14.2267 15.3866 14.2038 15.8105 14.2645 16.2265C14.3251 16.6425 14.4679 17.0422 14.6848 17.4023L13.6775 15.6445L11.4434 11.7773C11.2356 11.4175 11.1008 11.0202 11.0465 10.6082C10.9923 10.1962 11.0198 9.77756 11.1273 9.37619C11.2349 8.97481 11.4205 8.59855 11.6735 8.26889C11.9264 7.93923 12.2419 7.66262 12.6018 7.45487C12.9616 7.24711 13.3589 7.11228 13.7709 7.05805C14.1829 7.00383 14.6015 7.03129 15.0029 7.13886C15.4043 7.24642 15.7805 7.43199 16.1102 7.68497C16.4399 7.93795 16.7165 8.25339 16.9242 8.61327L17.9297 10.3711C17.7129 10.0109 17.57 9.61122 17.5094 9.19524C17.4488 8.77927 17.4717 8.35538 17.5767 7.94836C17.6818 7.54133 17.8669 7.15931 18.1212 6.82462C18.3756 6.48994 18.6941 6.20929 19.0581 5.99907C19.4221 5.78885 19.8244 5.65328 20.2414 5.60027C20.6584 5.54726 21.0818 5.57788 21.4868 5.69034C21.8919 5.8028 22.2705 5.99484 22.6005 6.25525C22.9305 6.51566 23.2052 6.83921 23.4088 7.20702L27.668 14.5898C27.2484 13.8626 27.1349 12.9984 27.3525 12.1874C27.57 11.3765 28.1009 10.6852 28.8281 10.2656C29.5554 9.84603 30.4196 9.73254 31.2305 9.95011C32.0415 10.1677 32.7328 10.6985 33.1523 11.4258L36.8631 17.8541C38.2413 20.2401 38.8032 23.0108 38.4635 25.7452C38.1237 28.4797 36.9008 31.0285 34.9805 33.0047Z" fill="#1F4062"/>
<path d="M28.1637 4.21875V1.40625C28.1637 1.03329 28.3118 0.675604 28.5756 0.411881C28.8393 0.148158 29.197 0 29.5699 0C29.9429 0 30.3006 0.148158 30.5643 0.411881C30.828 0.675604 30.9762 1.03329 30.9762 1.40625V4.21875C30.9762 4.59171 30.828 4.9494 30.5643 5.21312C30.3006 5.47684 29.9429 5.625 29.5699 5.625C29.197 5.625 28.8393 5.47684 28.5756 5.21312C28.3118 4.9494 28.1637 4.59171 28.1637 4.21875ZM34.4707 7.20703C34.6911 7.34245 34.945 7.41367 35.2037 7.41269C35.445 7.41308 35.6824 7.35135 35.893 7.23344C36.1036 7.11553 36.2803 6.94541 36.406 6.73945L37.8123 4.43496C37.9084 4.27707 37.9725 4.10178 38.001 3.91911C38.0294 3.73645 38.0215 3.54997 37.9778 3.37034C37.9342 3.19071 37.8556 3.02143 37.7465 2.87218C37.6374 2.72294 37.5 2.59663 37.3421 2.50049C37.1842 2.40434 37.0089 2.34024 36.8262 2.31184C36.6436 2.28344 36.4571 2.29129 36.2775 2.33495C36.0978 2.37862 35.9286 2.45723 35.7793 2.56632C35.6301 2.6754 35.5038 2.81281 35.4076 2.9707L34.0014 5.27344C33.9051 5.43119 33.8409 5.60636 33.8124 5.78894C33.7839 5.97152 33.7917 6.15793 33.8353 6.33751C33.8789 6.51708 33.9574 6.68631 34.0665 6.83551C34.1755 6.98471 34.3129 7.11095 34.4707 7.20703ZM42.8221 9.42012C42.7654 9.24412 42.6746 9.08102 42.5549 8.94015C42.4351 8.79928 42.2888 8.68341 42.1242 8.59916C41.9596 8.51492 41.7801 8.46395 41.5958 8.44918C41.4115 8.43441 41.2261 8.45613 41.0502 8.51309L38.4029 9.36562C38.0831 9.46787 37.8104 9.68118 37.6342 9.96697C37.458 10.2528 37.3898 10.5922 37.442 10.9239C37.4943 11.2555 37.6635 11.5576 37.919 11.7754C38.1745 11.9932 38.4996 12.1123 38.8353 12.1113C38.9821 12.1108 39.128 12.0876 39.2678 12.0428L41.9133 11.1902C42.09 11.1338 42.2539 11.043 42.3954 10.9229C42.5368 10.8029 42.6532 10.6561 42.7376 10.4909C42.8221 10.3257 42.8731 10.1454 42.8876 9.96041C42.9021 9.77543 42.8798 9.58942 42.8221 9.41309V9.42012ZM38.1445 17.1527C39.6338 19.7421 40.2623 22.7376 39.9395 25.7073C39.6166 28.6769 38.359 31.4673 36.348 33.6762C36.2883 33.9803 36.2215 34.2844 36.1389 34.5867C35.4139 37.2756 33.9085 39.6893 31.8127 41.5233C29.7169 43.3572 27.1248 44.5291 24.3635 44.8909C21.6022 45.2528 18.7956 44.7884 16.2981 43.5564C13.8005 42.3244 11.724 40.38 10.3307 37.9688L4.13086 27.2461C3.75429 26.5937 3.54482 25.8583 3.52108 25.1054C3.49734 24.3525 3.66007 23.6054 3.99479 22.9306C4.32951 22.2557 4.82584 21.6741 5.43962 21.2374C6.05341 20.8007 6.76562 20.5225 7.51289 20.4275L6.98555 19.5135C6.60947 18.8616 6.40018 18.127 6.37627 17.3748C6.35235 16.6226 6.51455 15.8762 6.84846 15.2017C7.18237 14.5273 7.67766 13.9458 8.29035 13.5087C8.90303 13.0717 9.61414 12.7928 10.3605 12.6967L10.2375 12.4805C9.71619 11.5827 9.51607 10.5342 9.67007 9.5075C9.82408 8.48083 10.323 7.53718 11.0848 6.83187C11.8466 6.12656 12.8258 5.70163 13.8613 5.627C14.8968 5.55237 15.9268 5.83251 16.7818 6.42129C17.1945 5.74164 17.7769 5.1811 18.4719 4.7948C19.1669 4.40849 19.9504 4.20974 20.7455 4.21807C21.5406 4.22641 22.3198 4.44155 23.0065 4.84234C23.6932 5.24312 24.2638 5.81575 24.6621 6.50391L26.8172 10.2305C27.2755 9.63267 27.8742 9.15709 28.5601 8.84579C29.2461 8.5345 29.9982 8.39711 30.7499 8.44578C31.5016 8.49444 32.2298 8.72767 32.8699 9.12481C33.51 9.52194 34.0423 10.0708 34.4197 10.7227L38.1445 17.1527ZM19.1725 9.66797L23.567 17.2564C23.9335 16.7768 24.3914 16.3745 24.9143 16.0728C25.4371 15.7711 26.0146 15.5759 26.6133 15.4986L22.2223 7.91016C21.9892 7.50573 21.605 7.21046 21.1542 7.08931C20.7033 6.96817 20.2229 7.03106 19.8185 7.26416C19.414 7.49726 19.1188 7.88147 18.9976 8.33227C18.8765 8.78308 18.9394 9.26354 19.1725 9.66797ZM12.6773 11.0742L13.8129 13.0377C14.1795 12.5586 14.6373 12.1566 15.1597 11.855C15.6822 11.5533 16.2592 11.3579 16.8574 11.2799L15.7236 9.31641C15.6082 9.11638 15.4545 8.94105 15.2713 8.80043C15.0882 8.6598 14.8791 8.55663 14.656 8.49681C14.433 8.43698 14.2003 8.42168 13.9714 8.45177C13.7424 8.48186 13.5216 8.55675 13.3216 8.67217C13.1216 8.78759 12.9462 8.94127 12.8056 9.12445C12.665 9.30763 12.5618 9.51672 12.502 9.73977C12.4422 9.96282 12.4269 10.1955 12.4569 10.4244C12.487 10.6534 12.5619 10.8742 12.6773 11.0742ZM32.284 25.3125L28.7297 19.1602C28.5141 18.7466 28.143 18.4357 27.6981 18.2958C27.2533 18.1558 26.771 18.1983 26.3575 18.414C25.944 18.6296 25.6331 19.0006 25.4931 19.4455C25.3532 19.8904 25.3957 20.3726 25.6113 20.7861L27.8262 24.6094C28.0126 24.9327 28.0631 25.3168 27.9663 25.6773C27.8696 26.0378 27.6336 26.3451 27.3103 26.5315C26.9869 26.718 26.6028 26.7684 26.2423 26.6717C25.8818 26.5749 25.5746 26.3389 25.3881 26.0156L18.9721 14.9414C18.739 14.537 18.3548 14.2417 17.904 14.1206C17.4532 13.9994 16.9727 14.0623 16.5683 14.2954C16.1638 14.5285 15.8686 14.9127 15.7474 15.3635C15.6263 15.8143 15.6892 16.2948 15.9223 16.6992L20.5014 24.6094C20.6878 24.9327 20.7383 25.3168 20.6415 25.6773C20.5447 26.0378 20.3088 26.3451 19.9854 26.5315C19.6621 26.718 19.278 26.7684 18.9175 26.6717C18.557 26.5749 18.2498 26.3389 18.0633 26.0156L12.4805 16.3477C12.2474 15.9437 11.8633 15.6489 11.4129 15.5281C10.9624 15.4072 10.4824 15.4703 10.0784 15.7034C9.67445 15.9365 9.37963 16.3205 9.25882 16.771C9.138 17.2215 9.20108 17.7015 9.43418 18.1055L15.6252 28.8281C15.8117 29.1519 15.8619 29.5365 15.7648 29.8973C15.6677 30.2581 15.4313 30.5656 15.1075 30.7521C14.7837 30.9385 14.3991 30.9888 14.0383 30.8917C13.6775 30.7946 13.3701 30.5582 13.1836 30.2344L9.61875 24.082C9.38565 23.6778 9.00153 23.3828 8.55089 23.2618C8.10026 23.1408 7.62002 23.2038 7.21582 23.4369C6.81162 23.67 6.51658 24.0541 6.3956 24.5048C6.27462 24.9554 6.3376 25.4356 6.5707 25.8398L12.7705 36.5625C13.8857 38.4905 15.5472 40.0449 17.5452 41.0294C19.5432 42.0139 21.7881 42.3843 23.9964 42.0939C26.2048 41.8036 28.2776 40.8654 29.9531 39.3978C31.6287 37.9303 32.8318 35.9992 33.4107 33.8484C33.7972 32.4219 33.8966 30.9328 33.7032 29.4675C33.5098 28.0022 33.0274 26.5899 32.284 25.3125ZM35.6959 18.559L31.9799 12.1289C31.8645 11.9283 31.7107 11.7524 31.5273 11.6112C31.3439 11.4701 31.1345 11.3664 30.911 11.3062C30.4597 11.1846 29.9786 11.2472 29.5734 11.4803C29.3728 11.5957 29.1969 11.7495 29.0558 11.9329C28.9146 12.1163 28.811 12.3257 28.7507 12.5492C28.6291 13.0005 28.6917 13.4816 28.9248 13.8867L34.7256 23.915C35.5297 25.3016 36.0914 26.815 36.3867 28.3904C37.0223 26.8061 37.2903 25.0982 37.1707 23.3953C37.051 21.6925 36.5468 20.0389 35.6959 18.559Z" fill="#1F4062"/>
</svg>
