<svg width="45" height="45" viewBox="0 0 45 45" fill="none" xmlns="http://www.w3.org/2000/svg">
<path opacity="0.2" d="M38.2078 23.4422L22.5 39.3751L6.79219 23.4422C5.1437 21.7938 4.21759 19.5579 4.21759 17.2266C4.21759 14.8953 5.1437 12.6595 6.79219 11.011C8.44067 9.36251 10.6765 8.4364 13.0078 8.4364C15.3391 8.4364 17.575 9.36251 19.2234 11.011L22.5 14.0626L25.7766 11.011C26.5928 10.1947 27.5618 9.54727 28.6283 9.10552C29.6948 8.66377 30.8378 8.4364 31.9922 8.4364C33.1465 8.4364 34.2896 8.66377 35.3561 9.10552C36.4225 9.54727 37.3916 10.1947 38.2078 11.011C39.0241 11.8272 39.6715 12.7963 40.1133 13.8628C40.555 14.9292 40.7824 16.0723 40.7824 17.2266C40.7824 18.381 40.555 19.524 40.1133 20.5905C39.6715 21.657 39.0241 22.626 38.2078 23.4422Z" fill="#1F4062"/>
<path d="M39.1992 10.0195C37.2887 8.11375 34.7013 7.04206 32.0028 7.03877C29.3044 7.03547 26.7144 8.10084 24.7992 10.0019L22.5 12.1376L20.199 9.99486C18.2843 8.08554 15.6896 7.01502 12.9856 7.01881C10.2816 7.0226 7.68989 8.10039 5.78057 10.0151C3.87124 11.9298 2.80072 14.5245 2.80451 17.2285C2.80831 19.9325 3.8861 22.5242 5.80078 24.4335L21.5068 40.3699C21.6377 40.5027 21.7937 40.6082 21.9657 40.6803C22.1377 40.7523 22.3223 40.7894 22.5088 40.7894C22.6953 40.7894 22.8799 40.7523 23.0519 40.6803C23.2239 40.6082 23.3799 40.5027 23.5107 40.3699L39.1992 24.4335C41.1099 22.5217 42.1832 19.9294 42.1832 17.2265C42.1832 14.5236 41.1099 11.9313 39.1992 10.0195ZM37.2041 22.4578L22.5 37.371L7.78711 22.4437C6.40249 21.0591 5.62462 19.1811 5.62462 17.223C5.62462 15.2648 6.40249 13.3869 7.78711 12.0023C9.17173 10.6177 11.0497 9.8398 13.0078 9.8398C14.966 9.8398 16.8439 10.6177 18.2285 12.0023L18.2637 12.0374L21.542 15.0872C21.8022 15.3294 22.1445 15.464 22.5 15.464C22.8555 15.464 23.1978 15.3294 23.458 15.0872L26.7363 12.0374L26.7715 12.0023C28.157 10.6186 30.0355 9.84199 31.9936 9.84331C33.9518 9.84463 35.8292 10.6238 37.2129 12.0093C38.5966 13.3949 39.3732 15.2733 39.3719 17.2315C39.3705 19.1896 38.5914 21.067 37.2059 22.4507L37.2041 22.4578Z" fill="#1F4062"/>
</svg>
