<svg width="45" height="45" viewBox="0 0 45 45" fill="none" xmlns="http://www.w3.org/2000/svg">
<path opacity="0.2" d="M40.7812 17.2898C40.558 24.068 34.9225 29.5312 28.1408 29.5312C26.5197 29.5356 24.913 29.227 23.4088 28.6225L21.0938 30.9375H16.875V35.1562H12.6562V39.375H7.03125C6.65829 39.375 6.3006 39.2268 6.03688 38.9631C5.77316 38.6994 5.625 38.3417 5.625 37.9687V32.9256C5.62517 32.5531 5.7731 32.1959 6.03633 31.9324L16.3775 21.5912C15.773 20.087 15.4644 18.4803 15.4688 16.8592C15.4688 10.0775 20.932 4.44199 27.7102 4.22578C29.4417 4.16806 31.1666 4.46645 32.7781 5.10246C34.3896 5.73847 35.8533 6.69856 37.0787 7.92327C38.3041 9.14798 39.265 10.6112 39.9018 12.2224C40.5387 13.8335 40.838 15.5583 40.7812 17.2898Z" fill="#1F4062"/>
<path d="M38.069 6.93105C35.8353 4.69425 32.9131 3.27528 29.7739 2.90312C26.6348 2.53096 23.4618 3.22731 20.7671 4.87982C18.0723 6.53232 16.0128 9.04458 14.9211 12.0112C13.8294 14.9778 13.7691 18.2257 14.7498 21.2309L5.04318 30.9375C4.78088 31.1977 4.57292 31.5075 4.43139 31.8488C4.28986 32.1901 4.21758 32.5561 4.21876 32.9256V37.9687C4.21876 38.7147 4.51508 39.43 5.04253 39.9575C5.56997 40.4849 6.28534 40.7812 7.03126 40.7812H12.6563C13.0292 40.7812 13.3869 40.6331 13.6506 40.3694C13.9144 40.1056 14.0625 39.748 14.0625 39.375V36.5625H16.875C17.248 36.5625 17.6057 36.4143 17.8694 36.1506C18.1331 35.8869 18.2813 35.5292 18.2813 35.1562V32.3437H21.0938C21.2785 32.3439 21.4614 32.3076 21.6321 32.2371C21.8029 32.1665 21.958 32.063 22.0887 31.9324L23.7692 30.2502C25.1757 30.7077 26.6459 30.9397 28.125 30.9375H28.1426C30.9225 30.9341 33.639 30.1069 35.949 28.5604C38.2589 27.0138 40.0587 24.8174 41.1209 22.2484C42.1831 19.6795 42.4601 16.8534 41.9169 14.1271C41.3737 11.4008 40.0347 8.89667 38.069 6.93105ZM39.375 17.2441C39.1834 23.2365 34.1455 28.118 28.1444 28.125H28.125C26.7015 28.1274 25.2905 27.8583 23.9678 27.3322C23.709 27.2199 23.4225 27.188 23.1454 27.2407C22.8683 27.2934 22.6134 27.4281 22.4139 27.6275L20.5119 29.5312H16.875C16.5021 29.5312 16.1444 29.6794 15.8806 29.9431C15.6169 30.2068 15.4688 30.5645 15.4688 30.9375V33.75H12.6563C12.2833 33.75 11.9256 33.8981 11.6619 34.1619C11.3982 34.4256 11.25 34.7833 11.25 35.1562V37.9687H7.03126V32.9256L17.3725 22.5861C17.5719 22.3866 17.7066 22.1317 17.7593 21.8546C17.812 21.5775 17.7801 21.291 17.6678 21.0322C17.14 19.7051 16.8709 18.2892 16.875 16.8609C16.875 10.8598 21.7635 5.82187 27.7559 5.63027C29.2951 5.5789 30.8286 5.84413 32.2611 6.40953C33.6937 6.97493 34.995 7.82846 36.0842 8.91725C37.1735 10.006 38.0276 11.3069 38.5937 12.7392C39.1598 14.1715 39.4257 15.7048 39.375 17.2441ZM33.75 13.3594C33.75 13.7766 33.6263 14.1844 33.3945 14.5313C33.1627 14.8782 32.8333 15.1485 32.4479 15.3082C32.0624 15.4678 31.6383 15.5096 31.2291 15.4282C30.8199 15.3468 30.4441 15.1459 30.1491 14.8509C29.8541 14.5559 29.6532 14.1801 29.5718 13.7709C29.4904 13.3617 29.5322 12.9376 29.6918 12.5521C29.8515 12.1667 30.1218 11.8373 30.4687 11.6055C30.8156 11.3737 31.2234 11.25 31.6406 11.25C32.2001 11.25 32.7366 11.4722 33.1322 11.8678C33.5278 12.2634 33.75 12.7999 33.75 13.3594Z" fill="#1F4062"/>
</svg>
