<svg width="45" height="45" viewBox="0 0 45 45" fill="none" xmlns="http://www.w3.org/2000/svg">
<path opacity="0.2" d="M34.432 34.4321L27.4711 27.4711C28.7893 26.1526 29.5298 24.3645 29.5298 22.5C29.5298 20.6356 28.7893 18.8475 27.4711 17.5289L34.432 10.568C37.5965 13.7326 39.3742 18.0247 39.3742 22.5C39.3742 26.9754 37.5965 31.2674 34.432 34.4321ZM10.568 10.568C7.40354 13.7326 5.62579 18.0247 5.62579 22.5C5.62579 26.9754 7.40354 31.2674 10.568 34.4321L17.5289 27.4711C16.2108 26.1526 15.4703 24.3645 15.4703 22.5C15.4703 20.6356 16.2108 18.8475 17.5289 17.5289L10.568 10.568Z" fill="#1F4062"/>
<path d="M22.5 4.21875C18.8843 4.21875 15.3498 5.29093 12.3435 7.2997C9.33715 9.30847 6.994 12.1636 5.61034 15.5041C4.22667 18.8445 3.86464 22.5203 4.57003 26.0665C5.27541 29.6127 7.01653 32.8701 9.57321 35.4268C12.1299 37.9835 15.3873 39.7246 18.9335 40.43C22.4797 41.1354 26.1555 40.7733 29.4959 39.3897C32.8364 38.006 35.6915 35.6629 37.7003 32.6565C39.7091 29.6502 40.7813 26.1157 40.7813 22.5C40.7761 17.6531 38.8484 13.0061 35.4212 9.57886C31.9939 6.15157 27.3469 4.22387 22.5 4.21875ZM29.3731 27.385C30.3905 25.9593 30.9374 24.2515 30.9374 22.5C30.9374 20.7485 30.3905 19.0407 29.3731 17.615L34.3828 12.607C36.6998 15.383 37.9689 18.8841 37.9689 22.5C37.9689 26.1159 36.6998 29.617 34.3828 32.393L29.3731 27.385ZM16.875 22.5C16.875 21.3875 17.2049 20.2999 17.823 19.3749C18.4411 18.4499 19.3196 17.7289 20.3474 17.3032C21.3752 16.8774 22.5062 16.766 23.5974 16.9831C24.6885 17.2001 25.6908 17.7359 26.4775 18.5225C27.2642 19.3092 27.7999 20.3115 28.0169 21.4026C28.234 22.4938 28.1226 23.6248 27.6968 24.6526C27.2711 25.6804 26.5501 26.5589 25.6251 27.177C24.7001 27.7951 23.6125 28.125 22.5 28.125C21.0082 28.125 19.5774 27.5324 18.5225 26.4775C17.4676 25.4226 16.875 23.9918 16.875 22.5ZM32.393 10.6172L27.385 15.627C25.9593 14.6095 24.2515 14.0626 22.5 14.0626C20.7485 14.0626 19.0407 14.6095 17.615 15.627L12.607 10.6172C15.383 8.30021 18.8842 7.03108 22.5 7.03108C26.1159 7.03108 29.617 8.30021 32.393 10.6172ZM10.6172 12.607L15.627 17.615C14.6095 19.0407 14.0626 20.7485 14.0626 22.5C14.0626 24.2515 14.6095 25.9593 15.627 27.385L10.6172 32.393C8.30022 29.617 7.03108 26.1159 7.03108 22.5C7.03108 18.8841 8.30022 15.383 10.6172 12.607ZM12.607 34.3828L17.615 29.373C19.0407 30.3905 20.7485 30.9374 22.5 30.9374C24.2515 30.9374 25.9593 30.3905 27.385 29.373L32.393 34.3828C29.617 36.6998 26.1159 37.9689 22.5 37.9689C18.8842 37.9689 15.383 36.6998 12.607 34.3828Z" fill="#1F4062"/>
</svg>
