<svg width="45" height="45" viewBox="0 0 45 45" fill="none" xmlns="http://www.w3.org/2000/svg">
<path opacity="0.2" d="M10.0195 32.168C10.6081 32.7586 11.0084 33.5103 11.17 34.3282C11.3316 35.1462 11.2472 35.9937 10.9275 36.7637C10.6077 37.5337 10.067 38.1918 9.37354 38.6547C8.68009 39.1176 7.86502 39.3646 7.03125 39.3646C6.19749 39.3646 5.38241 39.1176 4.68896 38.6547C3.99551 38.1918 3.45478 37.5337 3.13504 36.7637C2.8153 35.9937 2.7309 35.1462 2.8925 34.3282C3.05409 33.5103 3.45443 32.7586 4.04297 32.168C4.43491 31.7747 4.90063 31.4626 5.41342 31.2497C5.92622 31.0368 6.47601 30.9271 7.03125 30.9271C7.5865 30.9271 8.13628 31.0368 8.64908 31.2497C9.16188 31.4626 9.6276 31.7747 10.0195 32.168ZM13.8867 13.8867C13.2982 14.4773 12.8978 15.229 12.7362 16.047C12.5747 16.865 12.6591 17.7125 12.9788 18.4825C13.2985 19.2525 13.8393 19.9105 14.5327 20.3734C15.2262 20.8363 16.0412 21.0834 16.875 21.0834C17.7088 21.0834 18.5238 20.8363 19.2173 20.3734C19.9107 19.9105 20.4515 19.2525 20.7712 18.4825C21.091 17.7125 21.1754 16.865 21.0138 16.047C20.8522 15.229 20.4518 14.4773 19.8633 13.8867C19.4713 13.4934 19.0056 13.1814 18.4928 12.9684C17.98 12.7555 17.4302 12.6459 16.875 12.6459C16.3198 12.6459 15.77 12.7555 15.2572 12.9684C14.7444 13.1814 14.2787 13.4934 13.8867 13.8867ZM25.1367 25.1367C24.5482 25.7273 24.1478 26.479 23.9862 27.297C23.8247 28.115 23.9091 28.9625 24.2288 29.7325C24.5485 30.5025 25.0893 31.1605 25.7827 31.6234C26.4762 32.0863 27.2912 32.3334 28.125 32.3334C28.9588 32.3334 29.7738 32.0863 30.4673 31.6234C31.1607 31.1605 31.7015 30.5025 32.0212 29.7325C32.341 28.9625 32.4254 28.115 32.2638 27.297C32.1022 26.479 31.7018 25.7273 31.1133 25.1367C30.7213 24.7434 30.2556 24.4314 29.7428 24.2184C29.23 24.0055 28.6803 23.8959 28.125 23.8959C27.5698 23.8959 27.02 24.0055 26.5072 24.2184C25.9944 24.4314 25.5287 24.7434 25.1367 25.1367ZM40.957 6.85547C40.3665 6.26693 39.6147 5.86659 38.7968 5.705C37.9788 5.5434 37.1313 5.6278 36.3613 5.94754C35.5913 6.26728 34.9332 6.80801 34.4703 7.50146C34.0074 8.19491 33.7604 9.00999 33.7604 9.84375C33.7604 10.6775 34.0074 11.4926 34.4703 12.186C34.9332 12.8795 35.5913 13.4202 36.3613 13.74C37.1313 14.0597 37.9788 14.1441 38.7968 13.9825C39.6147 13.8209 40.3665 13.4206 40.957 12.832C41.3503 12.4401 41.6624 11.9744 41.8753 11.4616C42.0883 10.9488 42.1979 10.399 42.1979 9.84375C42.1979 9.28851 42.0883 8.73872 41.8753 8.22592C41.6624 7.71313 41.3503 7.24741 40.957 6.85547Z" fill="#1F4062"/>
<path d="M41.9484 5.86404C41.4261 5.34158 40.8059 4.92713 40.1234 4.64437C39.4409 4.3616 38.7093 4.21606 37.9705 4.21606C37.2317 4.21606 36.5002 4.3616 35.8176 4.64437C35.1351 4.92713 34.5149 5.34158 33.9926 5.86404C33.4701 6.38639 33.0557 7.00654 32.7729 7.68908C32.4901 8.37162 32.3446 9.10318 32.3446 9.84197C32.3446 10.5808 32.4901 11.3123 32.7729 11.9949C33.0557 12.6774 33.4701 13.2976 33.9926 13.8199C34.0436 13.8709 34.0981 13.9201 34.1508 13.9693L29.4697 22.6635C28.0426 22.3154 26.536 22.5361 25.2686 23.2787L21.7213 19.7314C22.4192 18.5519 22.6624 17.1582 22.4053 15.812C22.1482 14.4658 21.4085 13.2598 20.3251 12.4204C19.2416 11.5811 17.889 11.1662 16.5213 11.2536C15.1536 11.341 13.8648 11.9248 12.8971 12.8953C12.3746 13.4176 11.9602 14.0378 11.6774 14.7203C11.3946 15.4029 11.2491 16.1344 11.2491 16.8732C11.2491 17.612 11.3946 18.3436 11.6774 19.0261C11.9602 19.7087 12.3746 20.3288 12.8971 20.8512C12.9481 20.9021 13.0008 20.9513 13.0535 21.0006L8.37247 29.6965C7.43285 29.4652 6.44947 29.4802 5.51736 29.7401C4.58526 30 3.73596 30.496 3.05157 31.1801C2.26503 31.9668 1.72942 32.9691 1.51249 34.0602C1.29555 35.1513 1.40702 36.2822 1.8328 37.31C2.25858 38.3377 2.97955 39.2162 3.90455 39.8342C4.82955 40.4522 5.91703 40.7821 7.0295 40.7821C8.14196 40.7821 9.22945 40.4522 10.1544 39.8342C11.0794 39.2162 11.8004 38.3377 12.2262 37.31C12.652 36.2822 12.7634 35.1513 12.5465 34.0602C12.3296 32.9691 11.794 31.9668 11.0074 31.1801C10.9565 31.1291 10.902 31.0799 10.8492 31.0306L15.5303 22.3365C15.9704 22.4443 16.4219 22.4992 16.875 22.5C17.8793 22.5012 18.8656 22.2335 19.7315 21.7248L23.2787 25.2721C22.7447 26.1784 22.4755 27.2163 22.5018 28.268C22.528 29.3196 22.8486 30.3428 23.4272 31.2214C24.0058 32.1 24.8192 32.7987 25.775 33.2382C26.7308 33.6777 27.7906 33.8403 28.8342 33.7077C29.8778 33.5751 30.8632 33.1525 31.6787 32.4879C32.4941 31.8233 33.1069 30.9433 33.4473 29.9479C33.7878 28.9526 33.8422 27.8817 33.6046 26.8569C33.367 25.8321 32.8467 24.8945 32.1029 24.1506C32.052 24.0996 31.9992 24.0504 31.9465 24.0012L36.6275 15.307C37.0666 15.4141 37.5168 15.4683 37.9688 15.4687C39.081 15.4686 40.1683 15.1386 41.0931 14.5206C42.018 13.9027 42.7388 13.0244 43.1645 11.9968C43.5903 10.9692 43.7018 9.83846 43.4851 8.7475C43.2683 7.65653 42.7329 6.65432 41.9467 5.86756L41.9484 5.86404ZM9.01758 37.1478C8.48984 37.6753 7.77417 37.9716 7.028 37.9714C6.28183 37.9713 5.56628 37.6747 5.03878 37.147C4.51127 36.6192 4.21501 35.9035 4.21518 35.1574C4.21534 34.4112 4.51191 33.6957 5.03965 33.1681C5.30096 32.9069 5.61116 32.6998 5.95254 32.5585C6.29391 32.4172 6.65977 32.3445 7.02924 32.3445C7.39871 32.3446 7.76454 32.4175 8.10585 32.5589C8.44716 32.7004 8.75727 32.9077 9.01846 33.169C9.27966 33.4303 9.48682 33.7405 9.62814 34.0819C9.76945 34.4233 9.84214 34.7891 9.84206 35.1586C9.84198 35.5281 9.76913 35.8939 9.62766 36.2352C9.4862 36.5765 9.27889 36.8866 9.01758 37.1478ZM14.8852 18.8666C14.6239 18.6054 14.4167 18.2953 14.2753 17.9541C14.1339 17.6128 14.0612 17.247 14.0612 16.8776C14.0612 16.5082 14.1339 16.1424 14.2753 15.8012C14.4167 15.4599 14.6239 15.1498 14.8852 14.8887C15.2785 14.4954 15.7797 14.2276 16.3252 14.1191C16.8708 14.0106 17.4362 14.0664 17.9501 14.2793C18.464 14.4922 18.9032 14.8526 19.2122 15.3151C19.5212 15.7776 19.6862 16.3214 19.6862 16.8776C19.6862 17.4338 19.5212 17.9776 19.2122 18.4401C18.9032 18.9026 18.464 19.2631 17.9501 19.476C17.4362 19.6889 16.8708 19.7446 16.3252 19.6361C15.7797 19.5277 15.2785 19.2599 14.8852 18.8666ZM30.1148 30.1166C29.5873 30.6441 28.8719 30.9404 28.1259 30.9404C27.3799 30.9404 26.6644 30.6441 26.1369 30.1166C25.6094 29.5891 25.3131 28.8736 25.3131 28.1276C25.3131 27.3816 25.6094 26.6662 26.1369 26.1387C26.6644 25.6111 27.3799 25.3148 28.1259 25.3148C28.8719 25.3148 29.5873 25.6111 30.1148 26.1387C30.6424 26.6662 30.9387 27.3816 30.9387 28.1276C30.9387 28.8736 30.6424 29.5891 30.1148 30.1166ZM39.9586 11.8353C39.4304 12.3626 38.7144 12.6585 37.968 12.6578C37.2217 12.6571 36.5062 12.36 35.9789 11.8318C35.4516 11.3036 35.1558 10.5876 35.1564 9.84124C35.1571 9.09491 35.4542 8.3794 35.9824 7.85213C36.2437 7.59093 36.5539 7.38377 36.8953 7.24245C37.2367 7.10114 37.6025 7.02845 37.972 7.02853C38.3415 7.02861 38.7073 7.10146 39.0486 7.24293C39.3899 7.38439 39.7 7.5917 39.9612 7.85301C40.2224 8.11432 40.4296 8.42452 40.5709 8.76589C40.7122 9.10726 40.7849 9.47313 40.7848 9.84259C40.7848 10.2121 40.7119 10.5779 40.5704 10.9192C40.429 11.2605 40.2217 11.5706 39.9604 11.8318L39.9586 11.8353Z" fill="#1F4062"/>
</svg>
