<svg width="45" height="45" viewBox="0 0 45 45" fill="none" xmlns="http://www.w3.org/2000/svg">
<path opacity="0.2" d="M37.9688 25.3125C37.9688 26.425 37.6389 27.5126 37.0208 28.4376C36.4027 29.3626 35.5242 30.0836 34.4963 30.5093C33.4685 30.9351 32.3375 31.0465 31.2464 30.8294C30.1552 30.6124 29.1529 30.0766 28.3663 29.29C27.5796 28.5033 27.0439 27.501 26.8268 26.4099C26.6098 25.3187 26.7212 24.1877 27.1469 23.1599C27.5727 22.1321 28.2936 21.2536 29.2187 20.6355C30.1437 20.0174 31.2312 19.6875 32.3438 19.6875C33.8356 19.6875 35.2663 20.2801 36.3212 21.335C37.3761 22.3899 37.9688 23.8207 37.9688 25.3125Z" fill="#1F4062"/>
<path d="M5.625 11.25C5.625 10.877 5.77316 10.5194 6.03688 10.2556C6.3006 9.99191 6.65829 9.84375 7.03125 9.84375H37.9688C38.3417 9.84375 38.6994 9.99191 38.9631 10.2556C39.2268 10.5194 39.375 10.877 39.375 11.25C39.375 11.623 39.2268 11.9806 38.9631 12.2444C38.6994 12.5081 38.3417 12.6563 37.9688 12.6563H7.03125C6.65829 12.6563 6.3006 12.5081 6.03688 12.2444C5.77316 11.9806 5.625 11.623 5.625 11.25ZM7.03125 23.9063H19.6875C20.0605 23.9063 20.4181 23.7581 20.6819 23.4944C20.9456 23.2306 21.0938 22.873 21.0938 22.5C21.0938 22.127 20.9456 21.7694 20.6819 21.5056C20.4181 21.2419 20.0605 21.0938 19.6875 21.0938H7.03125C6.65829 21.0938 6.3006 21.2419 6.03688 21.5056C5.77316 21.7694 5.625 22.127 5.625 22.5C5.625 22.873 5.77316 23.2306 6.03688 23.4944C6.3006 23.7581 6.65829 23.9063 7.03125 23.9063ZM22.5 32.3438H7.03125C6.65829 32.3438 6.3006 32.4919 6.03688 32.7556C5.77316 33.0194 5.625 33.377 5.625 33.75C5.625 34.123 5.77316 34.4806 6.03688 34.7444C6.3006 35.0081 6.65829 35.1563 7.03125 35.1563H22.5C22.873 35.1563 23.2306 35.0081 23.4944 34.7444C23.7581 34.4806 23.9062 34.123 23.9062 33.75C23.9062 33.377 23.7581 33.0194 23.4944 32.7556C23.2306 32.4919 22.873 32.3438 22.5 32.3438ZM41.7762 34.7449C41.6456 34.8757 41.4905 34.9794 41.3198 35.0502C41.149 35.1209 40.9661 35.1574 40.7812 35.1574C40.5964 35.1574 40.4135 35.1209 40.2427 35.0502C40.072 34.9794 39.9169 34.8757 39.7863 34.7449L36.2109 31.1766C34.7569 32.1359 32.9986 32.5213 31.2766 32.2581C29.5547 31.995 27.9917 31.102 26.8906 29.7522C25.7894 28.4025 25.2285 26.692 25.3165 24.9523C25.4046 23.2126 26.1352 21.5675 27.367 20.3357C28.5987 19.104 30.2438 18.3733 31.9835 18.2853C33.7233 18.1973 35.4337 18.7582 36.7835 19.8593C38.1333 20.9605 39.0262 22.5234 39.2894 24.2454C39.5525 25.9674 39.1671 27.7257 38.2078 29.1797L41.7762 32.748C41.908 32.8788 42.0126 33.0343 42.084 33.2057C42.1554 33.377 42.1921 33.5608 42.1921 33.7465C42.1921 33.9321 42.1554 34.1159 42.084 34.2873C42.0126 34.4587 41.908 34.6142 41.7762 34.7449ZM32.3438 29.5313C33.1781 29.5313 33.9938 29.2838 34.6876 28.8203C35.3813 28.3567 35.9221 27.6978 36.2414 26.9269C36.5607 26.1561 36.6442 25.3078 36.4814 24.4895C36.3187 23.6711 35.9169 22.9194 35.3269 22.3294C34.7369 21.7394 33.9851 21.3376 33.1668 21.1748C32.3484 21.012 31.5002 21.0956 30.7293 21.4149C29.9584 21.7342 29.2995 22.2749 28.836 22.9687C28.3724 23.6625 28.125 24.4781 28.125 25.3125C28.125 26.4314 28.5695 27.5044 29.3606 28.2956C30.1518 29.0868 31.2249 29.5313 32.3438 29.5313Z" fill="#1F4062"/>
</svg>
