<svg width="45" height="45" viewBox="0 0 45 45" fill="none" xmlns="http://www.w3.org/2000/svg">
<path opacity="0.2" d="M37.9688 11.25V33.75H22.5V11.25H37.9688Z" fill="#1F4062"/>
<path d="M39.375 22.5C39.375 22.873 39.2268 23.2307 38.9631 23.4944C38.6994 23.7581 38.3417 23.9063 37.9687 23.9063H22.5C22.127 23.9063 21.7693 23.7581 21.5056 23.4944C21.2419 23.2307 21.0937 22.873 21.0937 22.5C21.0937 22.1271 21.2419 21.7694 21.5056 21.5057C21.7693 21.242 22.127 21.0938 22.5 21.0938H37.9687C38.3417 21.0938 38.6994 21.242 38.9631 21.5057C39.2268 21.7694 39.375 22.1271 39.375 22.5ZM22.5 12.6563H37.9687C38.3417 12.6563 38.6994 12.5081 38.9631 12.2444C39.2268 11.9807 39.375 11.623 39.375 11.25C39.375 10.8771 39.2268 10.5194 38.9631 10.2557C38.6994 9.99196 38.3417 9.8438 37.9687 9.8438H22.5C22.127 9.8438 21.7693 9.99196 21.5056 10.2557C21.2419 10.5194 21.0937 10.8771 21.0937 11.25C21.0937 11.623 21.2419 11.9807 21.5056 12.2444C21.7693 12.5081 22.127 12.6563 22.5 12.6563ZM37.9687 32.3438H22.5C22.127 32.3438 21.7693 32.492 21.5056 32.7557C21.2419 33.0194 21.0937 33.3771 21.0937 33.7501C21.0937 34.123 21.2419 34.4807 21.5056 34.7444C21.7693 35.0081 22.127 35.1563 22.5 35.1563H37.9687C38.3417 35.1563 38.6994 35.0081 38.9631 34.7444C39.2268 34.4807 39.375 34.123 39.375 33.7501C39.375 33.3771 39.2268 33.0194 38.9631 32.7557C38.6994 32.492 38.3417 32.3438 37.9687 32.3438ZM14.4738 7.44263L9.84374 12.0745L8.02616 10.2551C7.76229 9.99126 7.40441 9.84302 7.03124 9.84302C6.65807 9.84302 6.30019 9.99126 6.03632 10.2551C5.77245 10.519 5.62421 10.8769 5.62421 11.25C5.62421 11.6232 5.77245 11.9811 6.03632 12.245L8.84882 15.0575C8.97942 15.1882 9.13451 15.2919 9.30523 15.3627C9.47594 15.4335 9.65894 15.4699 9.84374 15.4699C10.0285 15.4699 10.2115 15.4335 10.3822 15.3627C10.553 15.2919 10.7081 15.1882 10.8387 15.0575L16.4637 9.43247C16.7275 9.1686 16.8758 8.81072 16.8758 8.43755C16.8758 8.06438 16.7275 7.7065 16.4637 7.44263C16.1998 7.17876 15.8419 7.03052 15.4687 7.03052C15.0956 7.03052 14.7377 7.17876 14.4738 7.44263ZM14.4738 18.6926L9.84374 23.3245L8.02616 21.5051C7.76229 21.2413 7.40441 21.093 7.03124 21.093C6.65807 21.093 6.30019 21.2413 6.03632 21.5051C5.77245 21.769 5.62421 22.1269 5.62421 22.5C5.62421 22.6848 5.6606 22.8678 5.73131 23.0385C5.80202 23.2092 5.90566 23.3643 6.03632 23.495L8.84882 26.3075C8.97942 26.4382 9.13451 26.5419 9.30523 26.6127C9.47594 26.6835 9.65894 26.7199 9.84374 26.7199C10.0285 26.7199 10.2115 26.6835 10.3822 26.6127C10.553 26.5419 10.7081 26.4382 10.8387 26.3075L16.4637 20.6825C16.7275 20.4186 16.8758 20.0607 16.8758 19.6875C16.8758 19.3144 16.7275 18.9565 16.4637 18.6926C16.1998 18.4288 15.8419 18.2805 15.4687 18.2805C15.0956 18.2805 14.7377 18.4288 14.4738 18.6926ZM14.4738 29.9426L9.84374 34.5745L8.02616 32.7551C7.89551 32.6245 7.7404 32.5208 7.56969 32.4501C7.39898 32.3794 7.21601 32.343 7.03124 32.343C6.84646 32.343 6.6635 32.3794 6.49279 32.4501C6.32208 32.5208 6.16697 32.6245 6.03632 32.7551C5.90566 32.8858 5.80202 33.0409 5.73131 33.2116C5.6606 33.3823 5.62421 33.5653 5.62421 33.7501C5.62421 33.9348 5.6606 34.1178 5.73131 34.2885C5.80202 34.4592 5.90566 34.6143 6.03632 34.745L8.84882 37.5575C8.97942 37.6882 9.13451 37.7919 9.30523 37.8627C9.47594 37.9335 9.65894 37.9699 9.84374 37.9699C10.0285 37.9699 10.2115 37.9335 10.3822 37.8627C10.553 37.7919 10.7081 37.6882 10.8387 37.5575L16.4637 31.9325C16.7275 31.6686 16.8758 31.3107 16.8758 30.9376C16.8758 30.5644 16.7275 30.2065 16.4637 29.9426C16.1998 29.6788 15.8419 29.5305 15.4687 29.5305C15.0956 29.5305 14.7377 29.6788 14.4738 29.9426Z" fill="#1F4062"/>
</svg>
