<svg width="45" height="45" viewBox="0 0 45 45" fill="none" xmlns="http://www.w3.org/2000/svg">
<path opacity="0.2" d="M29.5945 35.2196L24.3211 40.3787C24.0566 40.6384 23.7003 40.7832 23.3296 40.7815C22.959 40.7799 22.604 40.632 22.3418 40.3699L17.3074 35.3321C17.1755 35.2003 17.071 35.0436 17.0002 34.871C16.9294 34.6985 16.8936 34.5136 16.8949 34.3272C16.8962 34.1407 16.9346 33.9563 17.0078 33.7848C17.0811 33.6133 17.1877 33.4581 17.3215 33.3282L22.5949 28.2305L29.5945 35.2196ZM4.6336 20.6719C4.37168 20.9354 4.22467 21.2918 4.22467 21.6633C4.22467 22.0348 4.37168 22.3912 4.6336 22.6547L9.66797 27.6926C9.79946 27.8243 9.95577 27.9285 10.1278 27.9993C10.2999 28.0701 10.4843 28.1061 10.6704 28.1051C10.8564 28.1041 11.0405 28.0662 11.2118 27.9936C11.3831 27.921 11.5383 27.8151 11.6684 27.6821L16.7977 22.4227L9.80332 15.4283L4.6336 20.6719Z" fill="#1F4062"/>
<path d="M36.3867 8.83306C34.9567 7.37364 33.2502 6.21391 31.3669 5.42164C29.4835 4.62937 27.4612 4.22045 25.418 4.2188H25.3599C23.3261 4.21357 21.3114 4.61188 19.4325 5.39065C17.5536 6.16942 15.8479 7.31318 14.414 8.75571L8.80838 14.4334L3.62284 19.6875C3.10041 20.2159 2.80828 20.9295 2.81025 21.6725C2.81223 22.4156 3.10815 23.1276 3.63338 23.6532L8.67127 28.6911C8.93205 28.9531 9.24217 29.1609 9.5837 29.3024C9.92524 29.4439 10.2914 29.5163 10.6611 29.5155H10.6769C11.0493 29.5135 11.4176 29.4375 11.7603 29.2921C12.1031 29.1467 12.4136 28.9346 12.6738 28.6682L23.3789 17.6995C23.9016 17.182 24.6055 16.8886 25.341 16.8817C26.0766 16.8748 26.7858 17.1549 27.3181 17.6625C27.5812 17.9181 27.7904 18.2239 27.9332 18.5618C28.076 18.8996 28.1496 19.2627 28.1496 19.6295C28.1532 20.0199 28.0797 20.4072 27.9334 20.7691C27.7871 21.1311 27.5709 21.4606 27.2971 21.7389L16.3476 32.3227C16.0802 32.5824 15.8671 32.8926 15.7206 33.2354C15.5741 33.5782 15.4973 33.9467 15.4945 34.3195C15.4917 34.6922 15.5631 35.0618 15.7044 35.4068C15.8457 35.7517 16.0542 36.0651 16.3178 36.3288L21.3556 41.3666C21.8809 41.8886 22.5902 42.1834 23.3306 42.1873C24.0711 42.1913 24.7835 41.9041 25.3142 41.3877L36.1775 30.7618C42.2332 24.6973 42.3264 14.8641 36.3867 8.83306ZM10.6611 26.6995L5.62499 21.6633L9.80858 17.4235L14.8219 22.4368L10.6611 26.6995ZM23.342 39.375L18.3006 34.3389L22.5861 30.1958L27.5976 35.2125L23.342 39.375ZM34.1982 28.7508L29.6086 33.2403L24.6094 28.2446L29.257 23.7499L29.2746 23.734C29.8137 23.1905 30.2399 22.5457 30.5286 21.8368C30.8173 21.1278 30.9629 20.3687 30.9568 19.6032C30.9536 18.8635 30.802 18.132 30.511 17.4521C30.2199 16.7721 29.7953 16.1574 29.2623 15.6446C28.1943 14.6286 26.7721 14.0694 25.2982 14.0858C23.8242 14.1023 22.4148 14.693 21.3697 15.7325L16.7853 20.4223L11.7773 15.4231L16.4092 10.7385C17.5817 9.55922 18.9766 8.62431 20.5131 7.98795C22.0495 7.35159 23.6969 7.02642 25.3599 7.0313H25.4074C27.079 7.03274 28.7336 7.3674 30.2744 8.0157C31.8152 8.66401 33.2113 9.61296 34.381 10.8071C39.2431 15.7413 39.1553 23.7973 34.1982 28.7543V28.7508Z" fill="#1F4062"/>
</svg>
