<svg width="45" height="45" viewBox="0 0 45 45" fill="none" xmlns="http://www.w3.org/2000/svg">
<path opacity="0.2" d="M40.7812 20.3906V30.9375C40.7812 31.3105 40.6331 31.6681 40.3694 31.9319C40.1056 32.1956 39.748 32.3438 39.375 32.3438H22.5V20.3906C22.5 17.9664 21.537 15.6414 19.8228 13.9272C18.1086 12.213 15.7836 11.25 13.3594 11.25H31.6406C34.0649 11.25 36.3898 12.213 38.104 13.9272C39.8182 15.6414 40.7812 17.9664 40.7812 20.3906Z" fill="#1F4062"/>
<path d="M18.2812 26.7188C18.2812 27.0917 18.1331 27.4494 17.8694 27.7131C17.6056 27.9768 17.248 28.125 16.875 28.125H9.84375C9.47079 28.125 9.1131 27.9768 8.84938 27.7131C8.58566 27.4494 8.4375 27.0917 8.4375 26.7188C8.4375 26.3458 8.58566 25.9881 8.84938 25.7244C9.1131 25.4607 9.47079 25.3125 9.84375 25.3125H16.875C17.248 25.3125 17.6056 25.4607 17.8694 25.7244C18.1331 25.9881 18.2812 26.3458 18.2812 26.7188ZM42.1875 20.3906V30.9375C42.1875 31.6834 41.8912 32.3988 41.3637 32.9262C40.8363 33.4537 40.1209 33.75 39.375 33.75H23.9062V39.375C23.9062 39.748 23.7581 40.1056 23.4944 40.3694C23.2306 40.6331 22.873 40.7812 22.5 40.7812C22.127 40.7812 21.7694 40.6331 21.5056 40.3694C21.2419 40.1056 21.0938 39.748 21.0938 39.375V33.75H5.625C4.87908 33.75 4.16371 33.4537 3.63626 32.9262C3.10882 32.3988 2.8125 31.6834 2.8125 30.9375V20.3906C2.81576 17.5944 3.92799 14.9137 5.90521 12.9365C7.88242 10.9592 10.5632 9.84701 13.3594 9.84375H26.7188V4.21875C26.7188 3.84579 26.8669 3.4881 27.1306 3.22438C27.3944 2.96066 27.752 2.8125 28.125 2.8125H33.75C34.123 2.8125 34.4806 2.96066 34.7444 3.22438C35.0081 3.4881 35.1562 3.84579 35.1562 4.21875C35.1562 4.59171 35.0081 4.9494 34.7444 5.21312C34.4806 5.47684 34.123 5.625 33.75 5.625H29.5312V9.84375H31.6406C34.4368 9.84701 37.1176 10.9592 39.0948 12.9365C41.072 14.9137 42.1842 17.5944 42.1875 20.3906ZM21.0938 30.9375V20.3906C21.0938 18.3393 20.2789 16.3721 18.8284 14.9216C17.3779 13.4711 15.4107 12.6562 13.3594 12.6562C11.3081 12.6562 9.34082 13.4711 7.89035 14.9216C6.43987 16.3721 5.625 18.3393 5.625 20.3906V30.9375H21.0938ZM39.375 20.3906C39.3727 18.3401 38.5571 16.3741 37.1071 14.9242C35.6571 13.4742 33.6912 12.6586 31.6406 12.6562H29.5312V25.3125C29.5312 25.6855 29.3831 26.0431 29.1194 26.3069C28.8556 26.5706 28.498 26.7188 28.125 26.7188C27.752 26.7188 27.3944 26.5706 27.1306 26.3069C26.8669 26.0431 26.7188 25.6855 26.7188 25.3125V12.6562H20.5225C21.5899 13.642 22.4417 14.8381 23.024 16.1692C23.6064 17.5003 23.9068 18.9377 23.9062 20.3906V30.9375H39.375V20.3906Z" fill="#1F4062"/>
</svg>
