<svg width="45" height="45" viewBox="0 0 45 45" fill="none" xmlns="http://www.w3.org/2000/svg">
<path opacity="0.2" d="M28.125 22.5C28.125 23.6125 27.7951 24.7001 27.177 25.6251C26.5589 26.5501 25.6804 27.2711 24.6526 27.6968C23.6248 28.1226 22.4938 28.234 21.4026 28.0169C20.3115 27.7999 19.3092 27.2641 18.5225 26.4775C17.7359 25.6908 17.2001 24.6885 16.9831 23.5974C16.766 22.5062 16.8774 21.3752 17.3032 20.3474C17.7289 19.3196 18.4499 18.4411 19.3749 17.823C20.2999 17.2049 21.3875 16.875 22.5 16.875C23.9918 16.875 25.4226 17.4676 26.4775 18.5225C27.5324 19.5774 28.125 21.0082 28.125 22.5ZM35.1562 11.25C35.454 13.0066 36.2907 14.6271 37.5506 15.8869C38.8104 17.1468 40.4309 17.9835 42.1875 18.2812V11.25H35.1562ZM35.1562 33.75H42.1875V26.7188C40.4309 27.0165 38.8104 27.8532 37.5506 29.1131C36.2907 30.3729 35.454 31.9934 35.1562 33.75ZM2.8125 26.7188V33.75H9.84375C9.54602 31.9934 8.70927 30.3729 7.44944 29.1131C6.18962 27.8532 4.56911 27.0165 2.8125 26.7188ZM2.8125 18.2812C4.56911 17.9835 6.18962 17.1468 7.44944 15.8869C8.70927 14.6271 9.54602 13.0066 9.84375 11.25H2.8125V18.2812Z" fill="#1F4062"/>
<path d="M22.5 15.4688C21.1094 15.4688 19.7499 15.8811 18.5936 16.6537C17.4374 17.4263 16.5361 18.5245 16.004 19.8093C15.4718 21.0941 15.3326 22.5078 15.6039 23.8717C15.8752 25.2357 16.5448 26.4885 17.5282 27.4718C18.5115 28.4552 19.7643 29.1248 21.1283 29.3961C22.4922 29.6674 23.906 29.5282 25.1907 28.996C26.4755 28.4639 27.5737 27.5626 28.3463 26.4064C29.1189 25.2501 29.5312 23.8906 29.5312 22.5C29.5312 20.6352 28.7905 18.8468 27.4718 17.5282C26.1532 16.2095 24.3648 15.4688 22.5 15.4688ZM22.5 26.7188C21.6656 26.7188 20.85 26.4713 20.1562 26.0078C19.4624 25.5442 18.9217 24.8853 18.6024 24.1144C18.2831 23.3436 18.1995 22.4953 18.3623 21.677C18.5251 20.8586 18.9269 20.1069 19.5169 19.5169C20.1069 18.9269 20.8586 18.5251 21.677 18.3623C22.4953 18.1995 23.3436 18.2831 24.1144 18.6024C24.8853 18.9217 25.5442 19.4624 26.0078 20.1562C26.4713 20.85 26.7188 21.6656 26.7188 22.5C26.7188 23.6189 26.2743 24.6919 25.4831 25.4831C24.6919 26.2743 23.6189 26.7188 22.5 26.7188ZM42.1875 9.84375H2.8125C2.43954 9.84375 2.08185 9.99191 1.81813 10.2556C1.55441 10.5194 1.40625 10.877 1.40625 11.25V33.75C1.40625 34.123 1.55441 34.4806 1.81813 34.7444C2.08185 35.0081 2.43954 35.1562 2.8125 35.1562H42.1875C42.5605 35.1562 42.9181 35.0081 43.1819 34.7444C43.4456 34.4806 43.5938 34.123 43.5938 33.75V11.25C43.5938 10.877 43.4456 10.5194 43.1819 10.2556C42.9181 9.99191 42.5605 9.84375 42.1875 9.84375ZM4.21875 12.6562H7.97519C7.24991 14.343 5.90548 15.6874 4.21875 16.4127V12.6562ZM4.21875 32.3438V28.5873C5.90548 29.3126 7.24991 30.657 7.97519 32.3438H4.21875ZM40.7812 32.3438H37.0248C37.7501 30.657 39.0945 29.3126 40.7812 28.5873V32.3438ZM40.7812 25.6025C39.1845 26.0747 37.7312 26.9388 36.5537 28.1162C35.3763 29.2937 34.5122 30.747 34.04 32.3438H10.96C10.4878 30.747 9.62368 29.2937 8.44626 28.1162C7.26884 26.9388 5.81554 26.0747 4.21875 25.6025V19.3975C5.81554 18.9253 7.26884 18.0612 8.44626 16.8838C9.62368 15.7063 10.4878 14.253 10.96 12.6562H34.04C34.5122 14.253 35.3763 15.7063 36.5537 16.8838C37.7312 18.0612 39.1845 18.9253 40.7812 19.3975V25.6025ZM40.7812 16.4127C39.0945 15.6874 37.7501 14.343 37.0248 12.6562H40.7812V16.4127Z" fill="#1F4062"/>
</svg>
