<svg width="45" height="45" viewBox="0 0 45 45" fill="none" xmlns="http://www.w3.org/2000/svg">
<path opacity="0.2" d="M39.5508 11.4258L27.4219 21.7969L30.3557 24.7307C30.8827 25.2581 31.1788 25.9731 31.1788 26.7187C31.1788 27.4643 30.8827 28.1794 30.3557 28.7068L26.7188 32.3437L12.6562 18.2812L16.2932 14.6443C16.8206 14.1173 17.5356 13.8212 18.2812 13.8212C19.0269 13.8212 19.7419 14.1173 20.2693 14.6443L23.2031 17.5781L33.5742 5.44921C34.3668 4.65667 35.4417 4.21143 36.5625 4.21143C37.6833 4.21143 38.7582 4.65667 39.5508 5.44921C40.3433 6.24175 40.7886 7.31667 40.7886 8.43749C40.7886 9.55832 40.3433 10.6332 39.5508 11.4258Z" fill="#1F4062"/>
<path d="M40.5422 4.45779C40.0198 3.93533 39.3997 3.52088 38.7171 3.23812C38.0346 2.95535 37.3031 2.80981 36.5643 2.80981C35.8255 2.80981 35.0939 2.95535 34.4114 3.23812C33.7288 3.52088 33.1087 3.93533 32.5863 4.45779C32.5617 4.4824 32.5371 4.50877 32.5125 4.53689L23.124 15.5074L21.2695 13.6476C20.8778 13.2557 20.4126 12.9447 19.9006 12.7326C19.3886 12.5204 18.8398 12.4112 18.2856 12.4112C17.7314 12.4112 17.1827 12.5204 16.6707 12.7326C16.1587 12.9447 15.6935 13.2557 15.3018 13.6476L1.82109 27.1301C1.55757 27.3938 1.40954 27.7513 1.40954 28.1241C1.40954 28.4969 1.55757 28.8545 1.82109 29.1181L15.8836 43.1806C16.1473 43.4442 16.5048 43.5922 16.8776 43.5922C17.2504 43.5922 17.608 43.4442 17.8717 43.1806L31.3523 29.707C31.7443 29.3152 32.0553 28.8501 32.2674 28.3381C32.4796 27.8261 32.5888 27.2773 32.5888 26.7231C32.5888 26.1689 32.4796 25.6202 32.2674 25.1082C32.0553 24.5962 31.7443 24.131 31.3523 23.7392L29.4926 21.8812L40.4631 12.4804C40.4895 12.4558 40.5176 12.4312 40.5422 12.4049C41.5947 11.3503 42.1858 9.92124 42.1858 8.43133C42.1858 6.94142 41.5947 5.51236 40.5422 4.45779ZM16.875 40.1994L13.943 37.2656L17.8699 33.3369C18.1225 33.071 18.2613 32.717 18.2566 32.3503C18.2519 31.9836 18.1041 31.6333 17.8448 31.3739C17.5855 31.1146 17.2351 30.9669 16.8684 30.9622C16.5017 30.9575 16.1477 31.0962 15.8818 31.3488L11.9531 35.2758L9.72422 33.0469L13.6512 29.1181C13.9038 28.8523 14.0425 28.4983 14.0378 28.1316C14.0331 27.7649 13.8854 27.4145 13.626 27.1552C13.3667 26.8959 13.0164 26.7481 12.6497 26.7434C12.283 26.7387 11.929 26.8775 11.6631 27.1301L7.73438 31.057L4.80059 28.125L12.6562 20.2693L24.7307 32.3437L16.875 40.1994ZM38.5875 10.3887L26.5096 20.7264C26.3621 20.8523 26.2423 21.0075 26.1576 21.182C26.073 21.3565 26.0254 21.5467 26.0178 21.7405C26.0102 21.9343 26.0428 22.1276 26.1135 22.3082C26.1842 22.4888 26.2915 22.6529 26.4287 22.79L29.3555 25.7238C29.619 25.9875 29.767 26.3451 29.767 26.7179C29.767 27.0907 29.619 27.4482 29.3555 27.7119L26.7188 30.3486L14.6461 18.2812L17.2828 15.6445C17.5465 15.381 17.9041 15.233 18.2769 15.233C18.6497 15.233 19.0072 15.381 19.2709 15.6445L22.2047 18.5783C22.3418 18.7155 22.5059 18.8228 22.6865 18.8935C22.8671 18.9642 23.0604 18.9968 23.2542 18.9892C23.448 18.9816 23.6382 18.934 23.8127 18.8494C23.9872 18.7647 24.1424 18.6449 24.2684 18.4974L34.6113 6.41248C35.1431 5.9073 35.8511 5.62982 36.5845 5.63921C37.3179 5.6486 38.0186 5.94412 38.5372 6.46274C39.0559 6.98137 39.3514 7.68209 39.3608 8.41548C39.3702 9.14887 39.0927 9.85692 38.5875 10.3887Z" fill="#1F4062"/>
</svg>
