<svg width="45" height="45" viewBox="0 0 45 45" fill="none" xmlns="http://www.w3.org/2000/svg">
<path opacity="0.2" d="M45 12.6562V32.3438C45 33.0897 44.7037 33.805 44.1762 34.3325C43.6488 34.8599 42.9334 35.1562 42.1875 35.1562H2.8125C2.06658 35.1562 1.35121 34.8599 0.823762 34.3325C0.296316 33.805 0 33.0897 0 32.3438V12.6562C0 11.9103 0.296316 11.195 0.823762 10.6675C1.35121 10.1401 2.06658 9.84375 2.8125 9.84375H42.1875C42.9334 9.84375 43.6488 10.1401 44.1762 10.6675C44.7037 11.195 45 11.9103 45 12.6562Z" fill="#1F4062"/>
<path d="M8.4375 9.84375V35.1562C8.4375 35.5292 8.28934 35.8869 8.02562 36.1506C7.7619 36.4143 7.40421 36.5625 7.03125 36.5625C6.65829 36.5625 6.3006 36.4143 6.03688 36.1506C5.77316 35.8869 5.625 35.5292 5.625 35.1562V9.84375C5.625 9.47079 5.77316 9.1131 6.03688 8.84938C6.3006 8.58566 6.65829 8.4375 7.03125 8.4375C7.40421 8.4375 7.7619 8.58566 8.02562 8.84938C8.28934 9.1131 8.4375 9.47079 8.4375 9.84375ZM24.6094 19.4238L21.0938 20.5664V16.875C21.0938 16.502 20.9456 16.1444 20.6819 15.8806C20.4181 15.6169 20.0605 15.4688 19.6875 15.4688C19.3145 15.4688 18.9569 15.6169 18.6931 15.8806C18.4294 16.1444 18.2813 16.502 18.2813 16.875V20.5664L14.7656 19.4238C14.4108 19.3073 14.0243 19.3364 13.691 19.5049C13.3577 19.6733 13.105 19.9673 12.9885 20.3221C12.8719 20.6768 12.9011 21.0634 13.0695 21.3967C13.238 21.73 13.5319 21.9827 13.8867 22.0992L17.4023 23.24L15.2332 26.2283C15.1186 26.3773 15.035 26.5477 14.9873 26.7295C14.9397 26.9113 14.9289 27.1008 14.9558 27.2868C14.9826 27.4729 15.0465 27.6516 15.1436 27.8125C15.2407 27.9735 15.3691 28.1133 15.5211 28.2237C15.6732 28.3342 15.8459 28.4131 16.0289 28.4557C16.212 28.4983 16.4017 28.5037 16.5869 28.4717C16.7721 28.4398 16.949 28.371 17.1072 28.2695C17.2654 28.1679 17.4016 28.0357 17.5078 27.8807L19.677 24.8924L21.8461 27.8807C21.9523 28.0357 22.0885 28.1679 22.2467 28.2695C22.4049 28.371 22.5818 28.4398 22.767 28.4717C22.9522 28.5037 23.1419 28.4983 23.325 28.4557C23.5081 28.4131 23.6807 28.3342 23.8328 28.2237C23.9848 28.1133 24.1132 27.9735 24.2103 27.8125C24.3074 27.6516 24.3713 27.4729 24.3981 27.2868C24.425 27.1008 24.4142 26.9113 24.3666 26.7295C24.3189 26.5477 24.2353 26.3773 24.1207 26.2283L21.9516 23.24L25.4672 22.0992C25.8063 21.9731 26.0837 21.7211 26.2418 21.3957C26.3999 21.0702 26.4265 20.6964 26.316 20.3518C26.2056 20.0073 25.9666 19.7186 25.6487 19.5458C25.3308 19.3729 24.9586 19.3293 24.6094 19.4238ZM43.2422 20.3273C43.1269 19.9758 42.8778 19.6838 42.5488 19.5147C42.2197 19.3456 41.8373 19.3129 41.4844 19.4238L37.9688 20.5664V16.875C37.9688 16.502 37.8206 16.1444 37.5569 15.8806C37.2931 15.6169 36.9355 15.4688 36.5625 15.4688C36.1895 15.4688 35.8319 15.6169 35.5681 15.8806C35.3044 16.1444 35.1563 16.502 35.1563 16.875V20.5664L31.6406 19.4256C31.2858 19.3102 30.8998 19.3405 30.5673 19.5098C30.2349 19.679 29.9833 19.9734 29.8679 20.3282C29.7525 20.683 29.7828 21.0691 29.952 21.4015C30.1213 21.734 30.4157 21.9856 30.7705 22.101L34.2861 23.2418L32.117 26.2301C32.0024 26.379 31.9188 26.5494 31.8711 26.7312C31.8235 26.9131 31.8127 27.1026 31.8396 27.2886C31.8664 27.4746 31.9303 27.6534 32.0274 27.8143C32.1245 27.9752 32.2529 28.115 32.4049 28.2255C32.557 28.336 32.7296 28.4148 32.9127 28.4574C33.0958 28.5 33.2855 28.5055 33.4707 28.4735C33.6559 28.4415 33.8328 28.3727 33.991 28.2712C34.1492 28.1697 34.2854 28.0375 34.3916 27.8824L36.5607 24.8941L38.7299 27.8824C38.8361 28.0375 38.9723 28.1697 39.1305 28.2712C39.2887 28.3727 39.4656 28.4415 39.6508 28.4735C39.836 28.5055 40.0257 28.5 40.2088 28.4574C40.3918 28.4148 40.5645 28.336 40.7166 28.2255C40.8686 28.115 40.997 27.9752 41.0941 27.8143C41.1912 27.6534 41.2551 27.4746 41.2819 27.2886C41.3088 27.1026 41.298 26.9131 41.2504 26.7312C41.2027 26.5494 41.1191 26.379 41.0045 26.2301L38.8354 23.2418L42.351 22.101C42.7039 21.9834 42.9959 21.7307 43.1629 21.3982C43.33 21.0658 43.3585 20.6807 43.2422 20.3273Z" fill="#1F4062"/>
</svg>
