<svg width="45" height="45" viewBox="0 0 45 45" fill="none" xmlns="http://www.w3.org/2000/svg">
<path opacity="0.2" d="M7.03125 32.3438H18.2812V36.5625C18.2812 36.9355 18.1331 37.2931 17.8694 37.5569C17.6056 37.8206 17.248 37.9688 16.875 37.9688H8.4375C8.06454 37.9688 7.70685 37.8206 7.44313 37.5569C7.17941 37.2931 7.03125 36.9355 7.03125 36.5625V32.3438ZM36.5625 7.03125H28.125C27.752 7.03125 27.3944 7.17941 27.1306 7.44313C26.8669 7.70685 26.7188 8.06454 26.7188 8.4375V36.5625C26.7188 36.9355 26.8669 37.2931 27.1306 37.5569C27.3944 37.8206 27.752 37.9688 28.125 37.9688H36.5625C36.9355 37.9688 37.2931 37.8206 37.5569 37.5569C37.8206 37.2931 37.9688 36.9355 37.9688 36.5625V8.4375C37.9688 8.06454 37.8206 7.70685 37.5569 7.44313C37.2931 7.17941 36.9355 7.03125 36.5625 7.03125Z" fill="#1F4062"/>
<path d="M36.5625 5.62501H28.125C27.3791 5.62501 26.6637 5.92132 26.1363 6.44877C25.6088 6.97622 25.3125 7.69159 25.3125 8.43751V36.5625C25.3125 37.3084 25.6088 38.0238 26.1363 38.5512C26.6637 39.0787 27.3791 39.375 28.125 39.375H36.5625C37.3084 39.375 38.0238 39.0787 38.5512 38.5512C39.0787 38.0238 39.375 37.3084 39.375 36.5625V8.43751C39.375 7.69159 39.0787 6.97622 38.5512 6.44877C38.0238 5.92132 37.3084 5.62501 36.5625 5.62501ZM36.5625 36.5625H28.125V30.9375H32.3438C32.7167 30.9375 33.0744 30.7893 33.3381 30.5256C33.6018 30.2619 33.75 29.9042 33.75 29.5313C33.75 29.1583 33.6018 28.8006 33.3381 28.5369C33.0744 28.2732 32.7167 28.125 32.3438 28.125H28.125V23.9063H32.3438C32.7167 23.9063 33.0744 23.7581 33.3381 23.4944C33.6018 23.2307 33.75 22.873 33.75 22.5C33.75 22.127 33.6018 21.7694 33.3381 21.5056C33.0744 21.2419 32.7167 21.0938 32.3438 21.0938H28.125V16.875H32.3438C32.7167 16.875 33.0744 16.7268 33.3381 16.4631C33.6018 16.1994 33.75 15.8417 33.75 15.4688C33.75 15.0958 33.6018 14.7381 33.3381 14.4744C33.0744 14.2107 32.7167 14.0625 32.3438 14.0625H28.125V8.43751H36.5625V36.5625ZM13.6512 4.63009C13.5206 4.49934 13.3655 4.39561 13.1948 4.32485C13.024 4.25408 12.8411 4.21765 12.6563 4.21765C12.4714 4.21765 12.2885 4.25408 12.1177 4.32485C11.947 4.39561 11.7919 4.49934 11.6613 4.63009L6.03633 10.2551C5.90578 10.3858 5.80226 10.5409 5.73168 10.7116C5.66111 10.8823 5.62486 11.0653 5.625 11.25V36.5625C5.625 37.3084 5.92132 38.0238 6.44876 38.5512C6.97621 39.0787 7.69158 39.375 8.4375 39.375H16.875C17.6209 39.375 18.3363 39.0787 18.8637 38.5512C19.3912 38.0238 19.6875 37.3084 19.6875 36.5625V11.25C19.6876 11.0653 19.6514 10.8823 19.5808 10.7116C19.5102 10.5409 19.4067 10.3858 19.2762 10.2551L13.6512 4.63009ZM8.4375 30.9375V14.0625H11.25V30.9375H8.4375ZM14.0625 14.0625H16.875V30.9375H14.0625V14.0625ZM12.6563 7.61309L16.2932 11.25H9.01934L12.6563 7.61309ZM8.4375 36.5625V33.75H16.875V36.5625H8.4375Z" fill="#1F4062"/>
</svg>
