<svg width="45" height="45" viewBox="0 0 45 45" fill="none" xmlns="http://www.w3.org/2000/svg">
<path opacity="0.2" d="M29.5312 8.4375V19.6875H25.3125C23.8207 19.6875 22.3899 20.2801 21.335 21.335C20.2801 22.3899 19.6875 23.8207 19.6875 25.3125V29.5312H8.4375V25.3125C8.4375 20.837 10.2154 16.5448 13.3801 13.3801C16.5448 10.2154 20.837 8.4375 25.3125 8.4375H29.5312Z" fill="#1F4062"/>
<path d="M40.7812 18.2812H36.5625V9.84375H40.7812C41.1542 9.84375 41.5119 9.69559 41.7756 9.43187C42.0393 9.16815 42.1875 8.81046 42.1875 8.4375C42.1875 8.06454 42.0393 7.70685 41.7756 7.44313C41.5119 7.17941 41.1542 7.03125 40.7812 7.03125H36.1811C35.9346 6.60438 35.5803 6.24977 35.1536 6.00296C34.7269 5.75616 34.2429 5.62581 33.75 5.625H30.9375C30.4446 5.62581 29.9606 5.75616 29.5339 6.00296C29.1072 6.24977 28.7529 6.60438 28.5064 7.03125H25.3125C20.4656 7.03637 15.8186 8.96407 12.3914 12.3914C8.96407 15.8186 7.03637 20.4656 7.03125 25.3125V28.5047C6.60412 28.7513 6.24935 29.1059 6.00252 29.5329C5.7557 29.9599 5.62551 30.4443 5.625 30.9375V33.75C5.62551 34.2432 5.7557 34.7276 6.00252 35.1546C6.24935 35.5816 6.60412 35.9362 7.03125 36.1828V40.7812C7.03125 41.1542 7.17941 41.5119 7.44313 41.7756C7.70685 42.0393 8.06454 42.1875 8.4375 42.1875C8.81046 42.1875 9.16815 42.0393 9.43187 41.7756C9.69559 41.5119 9.84375 41.1542 9.84375 40.7812V36.5625H18.2812V40.7812C18.2812 41.1542 18.4294 41.5119 18.6931 41.7756C18.9569 42.0393 19.3145 42.1875 19.6875 42.1875C20.0605 42.1875 20.4181 42.0393 20.6819 41.7756C20.9456 41.5119 21.0938 41.1542 21.0938 40.7812V36.1828C21.5209 35.9362 21.8757 35.5816 22.1225 35.1546C22.3693 34.7276 22.4995 34.2432 22.5 33.75V30.9375C22.4995 30.4443 22.3693 29.9599 22.1225 29.5329C21.8757 29.1059 21.5209 28.7513 21.0938 28.5047V25.3125C21.0938 24.1936 21.5382 23.1206 22.3294 22.3294C23.1206 21.5382 24.1936 21.0938 25.3125 21.0938H28.5064C28.7529 21.5206 29.1072 21.8752 29.5339 22.122C29.9606 22.3688 30.4446 22.4992 30.9375 22.5H33.75C34.2429 22.4992 34.7269 22.3688 35.1536 22.122C35.5803 21.8752 35.9346 21.5206 36.1811 21.0938H40.7812C41.1542 21.0938 41.5119 20.9456 41.7756 20.6819C42.0393 20.4181 42.1875 20.0605 42.1875 19.6875C42.1875 19.3145 42.0393 18.9569 41.7756 18.6931C41.5119 18.4294 41.1542 18.2812 40.7812 18.2812ZM19.6875 30.9375V33.75H8.4375V30.9375H19.6875ZM18.2812 25.3125V28.125H9.84375V25.3125C9.8484 21.2114 11.4796 17.2795 14.3796 14.3796C17.2795 11.4796 21.2114 9.8484 25.3125 9.84375H28.125V18.2812H25.3125C23.4477 18.2812 21.6593 19.022 20.3407 20.3407C19.022 21.6593 18.2812 23.4477 18.2812 25.3125ZM30.9375 19.6875V8.4375H33.75V19.6523C33.75 19.6646 33.75 19.6752 33.75 19.6875H30.9375Z" fill="#1F4062"/>
</svg>
