<svg width="45" height="45" viewBox="0 0 45 45" fill="none" xmlns="http://www.w3.org/2000/svg">
<path opacity="0.2" d="M37.2656 23.2031L26.9596 33.5092C25.9047 34.5638 24.4742 35.1563 22.9825 35.1563C21.4909 35.1563 20.0603 34.5638 19.0055 33.5092L11.4908 25.9945C10.4362 24.9397 9.84372 23.5091 9.84372 22.0175C9.84372 20.5258 10.4362 19.0953 11.4908 18.0404L21.7969 7.73438L37.2656 23.2031Z" fill="#1F4062"/>
<path d="M41.7762 11.6613C41.6456 11.5306 41.4905 11.4268 41.3198 11.3561C41.149 11.2853 40.9661 11.2489 40.7812 11.2489C40.5964 11.2489 40.4135 11.2853 40.2427 11.3561C40.072 11.4268 39.9169 11.5306 39.7863 11.6613L33.75 17.6994L27.3006 11.25L33.3387 5.21366C33.6025 4.94979 33.7508 4.59191 33.7508 4.21874C33.7508 3.84557 33.6025 3.48769 33.3387 3.22382C33.0748 2.95995 32.7169 2.81171 32.3438 2.81171C31.9706 2.81171 31.6127 2.95995 31.3488 3.22382L25.3125 9.2619L20.6824 4.63007C20.4186 4.3662 20.0607 4.21796 19.6875 4.21796C19.3143 4.21796 18.9564 4.3662 18.6926 4.63007C18.4287 4.89394 18.2805 5.25182 18.2805 5.62499C18.2805 5.99816 18.4287 6.35604 18.6926 6.61991L19.8088 7.73436L10.4924 17.0508C9.83943 17.7037 9.32148 18.4788 8.96811 19.3319C8.61473 20.185 8.43285 21.0994 8.43285 22.0227C8.43285 22.9461 8.61473 23.8605 8.96811 24.7136C9.32148 25.5667 9.83943 26.3418 10.4924 26.9947L13.2539 29.7562L4.63008 38.3801C4.49942 38.5107 4.39578 38.6658 4.32507 38.8365C4.25436 39.0073 4.21797 39.1902 4.21797 39.375C4.21797 39.5598 4.25436 39.7427 4.32507 39.9134C4.39578 40.0841 4.49942 40.2393 4.63008 40.3699C4.89395 40.6338 5.25183 40.782 5.625 40.782C5.80977 40.782 5.99274 40.7456 6.16345 40.6749C6.33416 40.6042 6.48927 40.5006 6.61992 40.3699L15.249 31.7408L18.0105 34.5023C18.6635 35.1553 19.4386 35.6732 20.2917 36.0266C21.1448 36.38 22.0591 36.5619 22.9825 36.5619C23.9059 36.5619 24.8203 36.38 25.6733 36.0266C26.5264 35.6732 27.3016 35.1553 27.9545 34.5023L37.2709 25.1859L38.3854 26.3021C38.516 26.4328 38.6711 26.5364 38.8418 26.6071C39.0125 26.6779 39.1955 26.7142 39.3803 26.7142C39.565 26.7142 39.748 26.6779 39.9187 26.6071C40.0894 26.5364 40.2445 26.4328 40.3752 26.3021C40.5059 26.1715 40.6095 26.0164 40.6802 25.8457C40.7509 25.675 40.7873 25.492 40.7873 25.3072C40.7873 25.1224 40.7509 24.9395 40.6802 24.7688C40.6095 24.5981 40.5059 24.4429 40.3752 24.3123L35.7381 19.6875L41.7762 13.6512C41.9069 13.5206 42.0106 13.3655 42.0814 13.1947C42.1522 13.024 42.1886 12.841 42.1886 12.6562C42.1886 12.4714 42.1522 12.2884 42.0814 12.1177C42.0106 11.947 41.9069 11.7919 41.7762 11.6613ZM25.9664 32.5195C25.5746 32.9115 25.1095 33.2225 24.5975 33.4346C24.0855 33.6467 23.5367 33.7559 22.9825 33.7559C22.4283 33.7559 21.8796 33.6467 21.3676 33.4346C20.8556 33.2225 20.3904 32.9115 19.9986 32.5195L12.4805 25.0014C12.0885 24.6096 11.7775 24.1444 11.5654 23.6324C11.3532 23.1204 11.244 22.5717 11.244 22.0175C11.244 21.4633 11.3532 20.9145 11.5654 20.4025C11.7775 19.8905 12.0885 19.4254 12.4805 19.0336L21.7969 9.71718L35.2775 23.2031L25.9664 32.5195Z" fill="#1F4062"/>
</svg>
