<svg width="45" height="45" viewBox="0 0 45 45" fill="none" xmlns="http://www.w3.org/2000/svg">
<path opacity="0.2" d="M40.3699 17.2863L30.3029 27.3867C32.3174 31.4174 30.0006 35.448 28.5258 37.4062C28.4045 37.5655 28.2506 37.697 28.0744 37.7919C27.8982 37.8869 27.7038 37.9432 27.5041 37.957C27.3045 37.9708 27.1041 37.9418 26.9166 37.872C26.729 37.8022 26.5585 37.6931 26.4164 37.5521L7.44257 18.5906C7.30255 18.4507 7.19363 18.2829 7.12293 18.098C7.05223 17.9132 7.02135 17.7155 7.0323 17.5179C7.04325 17.3203 7.09579 17.1272 7.18648 16.9513C7.27717 16.7754 7.40397 16.6206 7.55859 16.4971C12.7705 12.2924 17.6484 14.7392 17.6484 14.7392L27.7154 4.63885C27.9791 4.37533 28.3367 4.22729 28.7095 4.22729C29.0823 4.22729 29.4398 4.37533 29.7035 4.63885L40.3699 15.293C40.5012 15.4236 40.6054 15.5789 40.6764 15.75C40.7475 15.921 40.7841 16.1044 40.7841 16.2896C40.7841 16.4749 40.7475 16.6583 40.6764 16.8293C40.6054 17.0003 40.5012 17.1556 40.3699 17.2863Z" fill="#1F4062"/>
<path d="M41.3648 14.3033L30.6967 3.63686C30.4355 3.37562 30.1254 3.1684 29.7842 3.02702C29.4429 2.88563 29.0771 2.81287 28.7077 2.81287C28.3383 2.81287 27.9725 2.88563 27.6313 3.02702C27.29 3.1684 26.9799 3.37562 26.7188 3.63686L17.2916 13.0939C15.4178 12.5068 11.1393 11.7984 6.67442 15.4037C6.36667 15.6511 6.11448 15.9606 5.93427 16.312C5.75406 16.6634 5.64987 17.0488 5.62848 17.4431C5.60709 17.8374 5.66898 18.2318 5.81012 18.6006C5.95126 18.9695 6.16848 19.3044 6.44766 19.5837L14.9414 28.074L7.44258 35.5675C7.17871 35.8314 7.03047 36.1893 7.03047 36.5624C7.03047 36.9356 7.17871 37.2935 7.44258 37.5574C7.70645 37.8212 8.06433 37.9695 8.4375 37.9695C8.81067 37.9695 9.16855 37.8212 9.43242 37.5574L16.926 30.0585L25.4145 38.547C25.6754 38.8091 25.9855 39.0171 26.3269 39.1591C26.6684 39.3012 27.0345 39.3745 27.4043 39.3749C27.4711 39.3749 27.5361 39.3749 27.6029 39.3749C28.0039 39.3472 28.3941 39.2334 28.7472 39.0414C29.1002 38.8494 29.4078 38.5837 29.649 38.2622C33.1014 33.6744 32.7691 29.9443 31.9676 27.7154L41.3666 18.2812C41.6277 18.0199 41.8348 17.7097 41.976 17.3684C42.1173 17.0271 42.1899 16.6613 42.1897 16.2919C42.1895 15.9225 42.1166 15.5567 41.9751 15.2155C41.8336 14.8743 41.6262 14.5643 41.3648 14.3033ZM39.375 16.2931L29.308 26.3935C29.1001 26.6022 28.963 26.8709 28.916 27.1617C28.869 27.4525 28.9145 27.7507 29.0461 28.0142C30.709 31.3417 28.7297 34.7976 27.4043 36.5607L8.4375 17.5921C10.5609 15.88 12.593 15.4283 14.1469 15.4283C15.1329 15.4148 16.1108 15.6082 17.0174 15.996C17.2819 16.1284 17.5814 16.174 17.8733 16.1264C18.1652 16.0787 18.4347 15.9402 18.6434 15.7306L28.7086 5.62494L39.375 16.2913V16.2931Z" fill="#1F4062"/>
</svg>
