<svg width="45" height="45" viewBox="0 0 45 45" fill="none" xmlns="http://www.w3.org/2000/svg">
<path opacity="0.2" d="M35.8594 29.5313C36.5888 29.5319 37.3093 29.3704 37.9687 29.0584V36.5625C37.9687 36.9355 37.8206 37.2932 37.5569 37.5569C37.2931 37.8206 36.9355 37.9688 36.5625 37.9688H11.25C10.877 37.9688 10.5193 37.8206 10.2556 37.5569C9.9919 37.2932 9.84374 36.9355 9.84374 36.5625V29.0584C9.09356 29.4134 8.26581 29.5729 7.43745 29.5221C6.60909 29.4713 5.80703 29.2118 5.10584 28.7679C4.40466 28.3239 3.82711 27.7099 3.42692 26.9828C3.02672 26.2558 2.81686 25.4393 2.81686 24.6094C2.81686 23.7795 3.02672 22.9631 3.42692 22.236C3.82711 21.509 4.40466 20.8949 5.10584 20.451C5.80703 20.007 6.60909 19.7476 7.43745 19.6968C8.26581 19.646 9.09356 19.8055 9.84374 20.1604V12.6563C9.84374 12.2833 9.9919 11.9257 10.2556 11.6619C10.5193 11.3982 10.877 11.25 11.25 11.25H19.4572C19.1019 10.4999 18.9421 9.67198 18.9926 8.84344C19.0432 8.01489 19.3025 7.21259 19.7464 6.51116C20.1903 5.80973 20.8044 5.23197 21.5315 4.83161C22.2587 4.43126 23.0753 4.22131 23.9054 4.22131C24.7355 4.22131 25.5521 4.43126 26.2792 4.83161C27.0064 5.23197 27.6205 5.80973 28.0644 6.51116C28.5083 7.21259 28.7675 8.01489 28.8181 8.84344C28.8687 9.67198 28.7088 10.4999 28.3535 11.25H36.5625C36.9355 11.25 37.2931 11.3982 37.5569 11.6619C37.8206 11.9257 37.9687 12.2833 37.9687 12.6563V20.1604C37.3018 19.8449 36.5725 19.6833 35.8347 19.6876C35.0969 19.692 34.3695 19.8622 33.7064 20.1856C33.0432 20.509 32.4613 20.9773 32.0035 21.556C31.5458 22.1346 31.224 22.8088 31.062 23.5286C30.9 24.2484 30.9019 24.9954 31.0675 25.7143C31.2331 26.4333 31.5583 27.1059 32.0189 27.6822C32.4795 28.2586 33.0638 28.724 33.7286 29.0441C34.3933 29.3641 35.1216 29.5306 35.8594 29.5313Z" fill="#1F4062"/>
<path d="M38.7193 27.8683C38.5188 27.7419 38.2896 27.6681 38.053 27.654C37.8163 27.6399 37.58 27.6858 37.3658 27.7875C36.83 28.0409 36.2388 28.1547 35.6471 28.1184C35.0555 28.082 34.4827 27.8966 33.9819 27.5795C33.4811 27.2624 33.0687 26.8238 32.7828 26.3045C32.497 25.7852 32.3472 25.2021 32.3472 24.6094C32.3472 24.0166 32.497 23.4335 32.7828 22.9142C33.0687 22.3949 33.4811 21.9563 33.9819 21.6392C34.4827 21.3221 35.0555 21.1367 35.6471 21.1004C36.2388 21.064 36.83 21.1778 37.3658 21.4312C37.5802 21.533 37.8169 21.5788 38.0537 21.5645C38.2906 21.5501 38.52 21.4761 38.7205 21.3492C38.9211 21.2224 39.0862 21.0469 39.2007 20.839C39.3151 20.6311 39.3751 20.3976 39.375 20.1603V12.6562C39.375 11.9103 39.0787 11.1949 38.5513 10.6675C38.0238 10.14 37.3084 9.84373 36.5625 9.84373H30.1957C30.2219 9.61028 30.2348 9.37553 30.2344 9.14061C30.2329 8.2761 30.0551 7.42098 29.7117 6.62758C29.3684 5.83418 28.8667 5.11919 28.2375 4.52635C27.366 3.70787 26.2804 3.15303 25.1066 2.92608C23.9327 2.69914 22.7186 2.80939 21.6048 3.24405C20.491 3.67871 19.5232 4.42 18.8133 5.38207C18.1035 6.34414 17.6807 7.48762 17.594 8.68006C17.5669 9.0679 17.5752 9.45739 17.6186 9.84373H11.25C10.5041 9.84373 9.78872 10.14 9.26127 10.6675C8.73383 11.1949 8.43751 11.9103 8.43751 12.6562V18.3199C8.20405 18.2937 7.9693 18.2808 7.73439 18.2812C6.87013 18.2826 6.01525 18.4605 5.22213 18.8038C4.429 19.1472 3.71433 19.6489 3.12189 20.2781C2.52519 20.9084 2.06574 21.6556 1.77255 22.4725C1.47937 23.2895 1.35883 24.1583 1.41857 25.0242C1.51934 26.5489 2.16718 27.9859 3.24295 29.0711C4.31872 30.1562 5.75009 30.8165 7.27384 30.9305C7.66168 30.9575 8.05116 30.9492 8.43751 30.9058V36.5625C8.43751 37.3084 8.73383 38.0238 9.26127 38.5512C9.78872 39.0787 10.5041 39.375 11.25 39.375H36.5625C37.3084 39.375 38.0238 39.0787 38.5513 38.5512C39.0787 38.0238 39.375 37.3084 39.375 36.5625V29.0584C39.3752 28.8208 39.3151 28.587 39.2004 28.3789C39.0858 28.1708 38.9203 27.9952 38.7193 27.8683ZM36.5625 36.5625H11.25V29.0584C11.2501 28.8211 11.1901 28.5876 11.0757 28.3797C10.9612 28.1719 10.7961 27.9963 10.5955 27.8695C10.395 27.7426 10.1656 27.6686 9.92872 27.6542C9.69185 27.6399 9.45521 27.6857 9.24083 27.7875C8.70499 28.0409 8.11377 28.1547 7.52214 28.1184C6.93051 28.082 6.35768 27.8966 5.8569 27.5795C5.35612 27.2624 4.94365 26.8238 4.65784 26.3045C4.37203 25.7852 4.22216 25.2021 4.22216 24.6094C4.22216 24.0166 4.37203 23.4335 4.65784 22.9142C4.94365 22.3949 5.35612 21.9563 5.8569 21.6392C6.35768 21.3221 6.93051 21.1367 7.52214 21.1004C8.11377 21.064 8.70499 21.1778 9.24083 21.4312C9.45521 21.533 9.69185 21.5788 9.92872 21.5645C10.1656 21.5501 10.395 21.4761 10.5955 21.3492C10.7961 21.2224 10.9612 21.0469 11.0757 20.839C11.1901 20.6311 11.2501 20.3976 11.25 20.1603V12.6562H19.4572C19.6945 12.6563 19.928 12.5963 20.1359 12.4819C20.3438 12.3675 20.5193 12.2023 20.6461 12.0017C20.773 11.8012 20.847 11.5718 20.8614 11.3349C20.8757 11.0981 20.8299 10.8614 20.7281 10.6471C20.4747 10.1112 20.3609 9.51999 20.3973 8.92836C20.4336 8.33673 20.619 7.7639 20.9361 7.26312C21.2532 6.76234 21.6918 6.34987 22.2111 6.06407C22.7304 5.77826 23.3135 5.62839 23.9063 5.62839C24.499 5.62839 25.0821 5.77826 25.6014 6.06407C26.1207 6.34987 26.5593 6.76234 26.8764 7.26312C27.1936 7.7639 27.3789 8.33673 27.4153 8.92836C27.4516 9.51999 27.3378 10.1112 27.0844 10.6471C26.9826 10.8614 26.9368 11.0981 26.9511 11.3349C26.9655 11.5718 27.0395 11.8012 27.1664 12.0017C27.2932 12.2023 27.4688 12.3675 27.6766 12.4819C27.8845 12.5963 28.118 12.6563 28.3553 12.6562H36.5625V18.3217C36.1762 18.2774 35.7867 18.2692 35.3988 18.2971C33.7622 18.4129 32.2345 19.16 31.138 20.3807C30.0416 21.6013 29.4622 23.2001 29.5219 24.8398C29.5816 26.4795 30.2759 28.0319 31.4583 29.1695C32.6406 30.3071 34.2186 30.941 35.8594 30.9375C36.0943 30.9379 36.3291 30.925 36.5625 30.8988V36.5625Z" fill="#1F4062"/>
</svg>
