<svg width="45" height="45" viewBox="0 0 45 45" fill="none" xmlns="http://www.w3.org/2000/svg">
<path opacity="0.2" d="M7.03125 16.875H15.4688V36.5625H5.625V18.2812C5.625 17.9083 5.77316 17.5506 6.03688 17.2869C6.3006 17.0232 6.65829 16.875 7.03125 16.875ZM37.9688 23.9062H29.5312V36.5625H39.375V25.3125C39.375 24.9395 39.2268 24.5819 38.9631 24.3181C38.6994 24.0544 38.3417 23.9062 37.9688 23.9062Z" fill="#1F4062"/>
<path d="M19.7596 18.0229C19.7012 17.8476 19.6778 17.6626 19.6909 17.4784C19.704 17.2942 19.7532 17.1144 19.8358 16.9492C19.9184 16.784 20.0328 16.6367 20.1723 16.5157C20.3118 16.3947 20.4738 16.3023 20.649 16.2439L22.7584 15.5408C22.9698 15.4703 23.1949 15.4511 23.4152 15.4847C23.6355 15.5183 23.8446 15.6038 24.0254 15.7341C24.2062 15.8644 24.3534 16.0358 24.4549 16.2342C24.5565 16.4325 24.6094 16.6522 24.6094 16.875V23.9062C24.6094 24.2792 24.4612 24.6369 24.1975 24.9006C23.9338 25.1643 23.5761 25.3125 23.2031 25.3125C22.8302 25.3125 22.4725 25.1643 22.2088 24.9006C21.945 24.6369 21.7969 24.2792 21.7969 23.9062V18.8262L21.5385 18.9123C21.3633 18.9707 21.1783 18.9941 20.994 18.981C20.8098 18.9679 20.63 18.9186 20.4648 18.836C20.2996 18.7534 20.1523 18.6391 20.0313 18.4996C19.9103 18.3601 19.818 18.1981 19.7596 18.0229ZM43.5938 36.5625C43.5938 36.9355 43.4456 37.2931 43.1819 37.5569C42.9181 37.8206 42.5605 37.9688 42.1875 37.9688H2.8125C2.43954 37.9688 2.08185 37.8206 1.81813 37.5569C1.55441 37.2931 1.40625 36.9355 1.40625 36.5625C1.40625 36.1895 1.55441 35.8319 1.81813 35.5681C2.08185 35.3044 2.43954 35.1562 2.8125 35.1562H4.21875V18.2812C4.21875 17.5353 4.51507 16.82 5.04251 16.2925C5.56996 15.7651 6.28533 15.4688 7.03125 15.4688H14.0625V9.84375C14.0625 9.09783 14.3588 8.38246 14.8863 7.85501C15.4137 7.32757 16.1291 7.03125 16.875 7.03125H28.125C28.8709 7.03125 29.5863 7.32757 30.1137 7.85501C30.6412 8.38246 30.9375 9.09783 30.9375 9.84375V22.5H37.9688C38.7147 22.5 39.43 22.7963 39.9575 23.3238C40.4849 23.8512 40.7812 24.5666 40.7812 25.3125V35.1562H42.1875C42.5605 35.1562 42.9181 35.3044 43.1819 35.5681C43.4456 35.8319 43.5938 36.1895 43.5938 36.5625ZM30.9375 25.3125V35.1562H37.9688V25.3125H30.9375ZM16.875 35.1562H28.125V9.84375H16.875V35.1562ZM7.03125 35.1562H14.0625V18.2812H7.03125V35.1562Z" fill="#1F4062"/>
</svg>
