<svg width="45" height="45" viewBox="0 0 45 45" fill="none" xmlns="http://www.w3.org/2000/svg">
<path opacity="0.2" d="M39.375 9.84375V36.5625L33.75 33.75L28.125 36.5625L22.5 33.75L16.875 36.5625L11.25 33.75L5.625 36.5625V9.84375C5.625 9.47079 5.77316 9.1131 6.03688 8.84938C6.3006 8.58566 6.65829 8.4375 7.03125 8.4375H37.9688C38.3417 8.4375 38.6994 8.58566 38.9631 8.84938C39.2268 9.1131 39.375 9.47079 39.375 9.84375Z" fill="#1F4062"/>
<path d="M12.6562 18.2812C12.6562 17.9083 12.8044 17.5506 13.0681 17.2869C13.3319 17.0232 13.6895 16.875 14.0625 16.875H30.9375C31.3105 16.875 31.6681 17.0232 31.9319 17.2869C32.1956 17.5506 32.3438 17.9083 32.3438 18.2812C32.3438 18.6542 32.1956 19.0119 31.9319 19.2756C31.6681 19.5393 31.3105 19.6875 30.9375 19.6875H14.0625C13.6895 19.6875 13.3319 19.5393 13.0681 19.2756C12.8044 19.0119 12.6562 18.6542 12.6562 18.2812ZM14.0625 25.3125H30.9375C31.3105 25.3125 31.6681 25.1643 31.9319 24.9006C32.1956 24.6369 32.3438 24.2792 32.3438 23.9062C32.3438 23.5333 32.1956 23.1756 31.9319 22.9119C31.6681 22.6482 31.3105 22.5 30.9375 22.5H14.0625C13.6895 22.5 13.3319 22.6482 13.0681 22.9119C12.8044 23.1756 12.6562 23.5333 12.6562 23.9062C12.6562 24.2792 12.8044 24.6369 13.0681 24.9006C13.3319 25.1643 13.6895 25.3125 14.0625 25.3125ZM40.7812 9.84375V36.5625C40.7811 36.8022 40.7197 37.0378 40.6029 37.2471C40.4861 37.4564 40.3177 37.6324 40.1138 37.7583C39.9099 37.8842 39.6771 37.9559 39.4377 37.9666C39.1982 37.9773 38.96 37.9266 38.7457 37.8193L33.75 35.3215L28.7543 37.8193C28.5589 37.9171 28.3435 37.968 28.125 37.968C27.9065 37.968 27.6911 37.9171 27.4957 37.8193L22.5 35.3215L17.5043 37.8193C17.3089 37.9171 17.0935 37.968 16.875 37.968C16.6565 37.968 16.4411 37.9171 16.2457 37.8193L11.25 35.3215L6.2543 37.8193C6.03996 37.9266 5.80176 37.9773 5.56232 37.9666C5.32288 37.9559 5.09014 37.8842 4.8862 37.7583C4.68226 37.6324 4.5139 37.4564 4.39708 37.2471C4.28026 37.0378 4.21888 36.8022 4.21875 36.5625V9.84375C4.21875 9.09783 4.51507 8.38246 5.04251 7.85501C5.56996 7.32757 6.28533 7.03125 7.03125 7.03125H37.9688C38.7147 7.03125 39.43 7.32757 39.9575 7.85501C40.4849 8.38246 40.7812 9.09783 40.7812 9.84375ZM37.9688 9.84375H7.03125V34.2879L10.6207 32.4914C10.8161 32.3936 11.0315 32.3427 11.25 32.3427C11.4685 32.3427 11.6839 32.3936 11.8793 32.4914L16.875 34.991L21.8707 32.4914C22.0661 32.3936 22.2815 32.3427 22.5 32.3427C22.7185 32.3427 22.9339 32.3936 23.1293 32.4914L28.125 34.991L33.1207 32.4914C33.3161 32.3936 33.5315 32.3427 33.75 32.3427C33.9685 32.3427 34.1839 32.3936 34.3793 32.4914L37.9688 34.2879V9.84375Z" fill="#1F4062"/>
</svg>
