<svg width="45" height="45" viewBox="0 0 45 45" fill="none" xmlns="http://www.w3.org/2000/svg">
<path opacity="0.2" d="M36.5625 35.1563C36.5625 36.2688 36.2326 37.3563 35.6145 38.2813C34.9964 39.2064 34.1179 39.9273 33.0901 40.3531C32.0623 40.7788 30.9313 40.8902 29.8401 40.6732C28.749 40.4561 27.7467 39.9204 26.96 39.1337C26.1734 38.3471 25.6376 37.3448 25.4206 36.2536C25.2035 35.1625 25.3149 34.0315 25.7407 33.0037C26.1664 31.9758 26.8874 31.0973 27.8124 30.4792C28.7374 29.8612 29.825 29.5313 30.9375 29.5313C32.4293 29.5313 33.8601 30.1239 34.915 31.1788C35.9699 32.2337 36.5625 33.6644 36.5625 35.1563ZM30.9375 15.4688C32.05 15.4688 33.1376 15.1389 34.0626 14.5208C34.9876 13.9027 35.7086 13.0242 36.1343 11.9963C36.5601 10.9685 36.6715 9.83751 36.4544 8.74637C36.2374 7.65523 35.7016 6.65295 34.915 5.86628C34.1283 5.07961 33.126 4.54388 32.0349 4.32684C30.9437 4.10979 29.8127 4.22119 28.7849 4.64693C27.7571 5.07267 26.8786 5.79364 26.2605 6.71867C25.6424 7.6437 25.3125 8.73123 25.3125 9.84375C25.3125 11.3356 25.9051 12.7663 26.96 13.8212C28.0149 14.8761 29.4457 15.4688 30.9375 15.4688Z" fill="#1F4062"/>
<path d="M30.9375 28.125C29.9994 28.1247 29.0708 28.3126 28.2067 28.6777C27.3425 29.0427 26.5604 29.5775 25.9066 30.2502L17.8031 25.0418C18.4406 23.4072 18.4406 21.5928 17.8031 19.9582L25.9066 14.7498C27.1238 15.9967 28.7607 16.7471 30.4998 16.8557C32.2388 16.9643 33.9563 16.4233 35.3192 15.3375C36.682 14.2518 37.5932 12.6987 37.876 10.9793C38.1588 9.25992 37.7931 7.49678 36.8498 6.03172C35.9065 4.56666 34.4528 3.50405 32.7705 3.04991C31.0882 2.59576 29.2973 2.78244 27.7448 3.57374C26.1924 4.36505 24.9891 5.70461 24.3682 7.33271C23.7473 8.96081 23.7531 10.7615 24.3844 12.3856L16.2809 17.594C15.305 16.5921 14.0526 15.9041 12.6837 15.6177C11.3148 15.3314 9.89165 15.4598 8.59609 15.9864C7.30054 16.5131 6.19147 17.4142 5.41068 18.5745C4.62988 19.7347 4.21283 21.1015 4.21283 22.5C4.21283 23.8985 4.62988 25.2653 5.41068 26.4256C6.19147 27.5858 7.30054 28.4869 8.59609 29.0136C9.89165 29.5403 11.3148 29.6686 12.6837 29.3823C14.0526 29.0959 15.305 28.4079 16.2809 27.4061L24.3844 32.6145C23.8415 34.0146 23.7612 35.5518 24.1551 37.0009C24.5491 38.45 25.3967 39.7349 26.5737 40.6674C27.7508 41.6 29.1955 42.1312 30.6963 42.1833C32.1971 42.2354 33.6751 41.8056 34.914 40.9568C36.1529 40.1081 37.0875 38.885 37.5809 37.4667C38.0744 36.0484 38.1008 34.5094 37.6563 33.075C37.2118 31.6406 36.3197 30.3862 35.1107 29.4954C33.9016 28.6047 32.4392 28.1245 30.9375 28.125ZM30.9375 5.62502C31.7719 5.62502 32.5875 5.87244 33.2813 6.336C33.9751 6.79957 34.5158 7.45844 34.8351 8.22932C35.1544 9.0002 35.238 9.84844 35.0752 10.6668C34.9124 11.4852 34.5106 12.2369 33.9206 12.8269C33.3306 13.4169 32.5789 13.8187 31.7605 13.9815C30.9422 14.1442 30.0939 14.0607 29.3231 13.7414C28.5522 13.4221 27.8933 12.8813 27.4297 12.1876C26.9662 11.4938 26.7187 10.6782 26.7187 9.84376C26.7187 8.72488 27.1632 7.65183 27.9544 6.86066C28.7456 6.06949 29.8186 5.62502 30.9375 5.62502ZM11.25 26.7188C10.4156 26.7188 9.59995 26.4713 8.90618 26.0078C8.21241 25.5442 7.67169 24.8853 7.35238 24.1145C7.03307 23.3436 6.94953 22.4953 7.11231 21.677C7.27509 20.8586 7.67689 20.1069 8.26689 19.5169C8.85689 18.9269 9.6086 18.5251 10.427 18.3623C11.2453 18.1995 12.0936 18.2831 12.8644 18.6024C13.6353 18.9217 14.2942 19.4624 14.7578 20.1562C15.2213 20.85 15.4687 21.6656 15.4687 22.5C15.4687 23.6189 15.0243 24.692 14.2331 25.4831C13.4419 26.2743 12.3689 26.7188 11.25 26.7188ZM30.9375 39.375C30.1031 39.375 29.2875 39.1276 28.5937 38.664C27.8999 38.2005 27.3592 37.5416 27.0399 36.7707C26.7206 35.9998 26.637 35.1516 26.7998 34.3332C26.9626 33.5149 27.3644 32.7632 27.9544 32.1732C28.5444 31.5832 29.2961 31.1814 30.1145 31.0186C30.9328 30.8558 31.7811 30.9393 32.5519 31.2586C33.3228 31.578 33.9817 32.1187 34.4453 32.8125C34.9088 33.5062 35.1562 34.3219 35.1562 35.1563C35.1562 36.2751 34.7118 37.3482 33.9206 38.1394C33.1294 38.9305 32.0564 39.375 30.9375 39.375Z" fill="#1F4062"/>
</svg>
