<svg width="45" height="45" viewBox="0 0 45 45" fill="none" xmlns="http://www.w3.org/2000/svg">
<path opacity="0.2" d="M40.7812 26.7188C40.7834 28.792 40.4327 30.8505 39.7441 32.8061C39.648 33.0822 39.4682 33.3215 39.2297 33.4907C38.9912 33.6599 38.7059 33.7505 38.4135 33.75H6.58474C6.29179 33.7487 6.00645 33.6566 5.7681 33.4862C5.52975 33.3159 5.35015 33.0758 5.25408 32.799C4.5512 30.8004 4.20088 28.6949 4.21873 26.5764C4.29607 16.5234 12.6088 8.34785 22.6758 8.4375C27.4937 8.48383 32.0986 10.4303 35.4891 13.8537C38.8795 17.2771 40.7815 21.9006 40.7812 26.7188Z" fill="#1F4062"/>
<path d="M20.0989 27.1301L36.9739 10.2551C37.1045 10.1244 37.2596 10.0208 37.4303 9.95007C37.601 9.87936 37.784 9.84297 37.9688 9.84297C38.1536 9.84297 38.3365 9.87936 38.5072 9.95007C38.6779 10.0208 38.833 10.1244 38.9637 10.2551C39.0944 10.3857 39.198 10.5408 39.2687 10.7116C39.3394 10.8823 39.3758 11.0652 39.3758 11.25C39.3758 11.4348 39.3394 11.6177 39.2687 11.7884C39.198 11.9592 39.0944 12.1143 38.9637 12.2449L22.0887 29.1199C21.958 29.2506 21.8029 29.3542 21.6322 29.4249C21.4615 29.4956 21.2786 29.532 21.0938 29.532C20.909 29.532 20.726 29.4956 20.5553 29.4249C20.3846 29.3542 20.2295 29.2506 20.0989 29.1199C19.9682 28.9893 19.8646 28.8342 19.7938 28.6634C19.7231 28.4927 19.6867 28.3098 19.6867 28.125C19.6867 27.9402 19.7231 27.7573 19.7938 27.5866C19.8646 27.4158 19.9682 27.2607 20.0989 27.1301ZM22.5 15.4688C23.7215 15.4672 24.9351 15.6649 26.093 16.0541C26.2688 16.1164 26.4552 16.1432 26.6415 16.1327C26.8277 16.1223 27.01 16.075 27.1777 15.9934C27.3455 15.9119 27.4953 15.7978 27.6185 15.6578C27.7418 15.5177 27.8359 15.3546 27.8955 15.1779C27.9551 15.0011 27.9789 14.8143 27.9656 14.6282C27.9522 14.4422 27.902 14.2607 27.8179 14.0942C27.7337 13.9278 27.6173 13.7797 27.4754 13.6587C27.3335 13.5377 27.1689 13.4461 26.9912 13.3893C24.7502 12.6338 22.3549 12.4556 20.0268 12.8714C17.6987 13.2871 15.5131 14.2832 13.6721 15.7676C11.831 17.2521 10.3941 19.1768 9.49421 21.3638C8.59431 23.5508 8.2605 25.9295 8.52366 28.2797C8.5617 28.6234 8.72507 28.9411 8.98254 29.172C9.24001 29.4028 9.57353 29.5308 9.91936 29.5312C9.97034 29.5312 10.0231 29.5312 10.0758 29.5225C10.4464 29.4814 10.7855 29.2948 11.0186 29.0037C11.2516 28.7126 11.3595 28.3409 11.3186 27.9703C11.2728 27.5547 11.2499 27.1369 11.25 26.7188C11.2533 23.7361 12.4396 20.8765 14.5487 18.7674C16.6578 16.6583 19.5173 15.472 22.5 15.4688ZM40.0325 17.7539C39.9482 17.5895 39.8324 17.4434 39.6917 17.3238C39.5509 17.2042 39.388 17.1135 39.2122 17.0568C39.0364 17.0002 38.8512 16.9787 38.6671 16.9937C38.483 17.0086 38.3036 17.0597 38.1393 17.1439C37.9749 17.2282 37.8288 17.344 37.7092 17.4847C37.5896 17.6255 37.4989 17.7884 37.4422 17.9642C37.3856 18.14 37.3641 18.3252 37.3791 18.5093C37.394 18.6934 37.4451 18.8728 37.5293 19.0371C38.5697 21.0802 39.1841 23.3133 39.3352 25.6011C39.4863 27.8888 39.1709 30.1834 38.4082 32.3455L6.57425 32.3332C5.68607 29.7872 5.41934 27.0658 5.7963 24.3959C6.17325 21.7259 7.18298 19.1847 8.74129 16.9842C10.2996 14.7836 12.3614 12.9874 14.7547 11.7454C17.148 10.5033 19.8036 9.85129 22.5 9.84375H22.6547C25.2737 9.86022 27.8521 10.4925 30.1817 11.6895C30.3465 11.7802 30.5278 11.8369 30.7149 11.8562C30.902 11.8756 31.0911 11.8572 31.271 11.8022C31.4509 11.7472 31.618 11.6566 31.7622 11.5359C31.9065 11.4152 32.0251 11.2667 32.1109 11.0993C32.1968 10.932 32.2482 10.7491 32.2621 10.5614C32.276 10.3738 32.2521 10.1854 32.1919 10.0071C32.1317 9.82893 32.0363 9.66462 31.9114 9.52393C31.7865 9.38324 31.6347 9.26904 31.4649 9.18809C28.7452 7.78903 25.7342 7.05014 22.6758 7.03125H22.5C19.352 7.0325 16.2502 7.78829 13.4545 9.23527C10.6587 10.6823 8.25054 12.7783 6.43173 15.3477C4.61292 17.9171 3.43647 20.885 3.00098 24.0027C2.56548 27.1205 2.88362 30.2972 3.92874 33.2666C4.12197 33.8174 4.48109 34.2948 4.95671 34.6332C5.43232 34.9716 6.00109 35.1543 6.58479 35.1562H38.4135C38.9968 35.1566 39.5658 34.9756 40.0416 34.6383C40.5175 34.301 40.8767 33.8241 41.0696 33.2736C41.9565 30.751 42.3219 28.0745 42.1436 25.4065C41.9654 22.7384 41.2471 20.1344 40.0325 17.7521V17.7539Z" fill="#1F4062"/>
</svg>
