<svg width="45" height="45" viewBox="0 0 45 45" fill="none" xmlns="http://www.w3.org/2000/svg">
<path opacity="0.2" d="M37.9688 14.0625V33.75H7.03125V11.25H35.1562C35.9022 11.25 36.6175 11.5463 37.145 12.0738C37.6724 12.6012 37.9688 13.3166 37.9688 14.0625Z" fill="#1F4062"/>
<path d="M20.6209 23.5547L7.96466 34.8047C7.82616 34.9274 7.66484 35.0216 7.48993 35.082C7.31502 35.1423 7.12993 35.1676 6.94524 35.1565C6.76055 35.1453 6.57987 35.0978 6.41351 35.0168C6.24716 34.9358 6.09839 34.8228 5.9757 34.6843C5.85301 34.5458 5.7588 34.3845 5.69845 34.2096C5.6381 34.0347 5.61279 33.8496 5.62397 33.6649C5.63516 33.4802 5.6826 33.2995 5.76361 33.1332C5.84462 32.9668 5.9576 32.8181 6.09611 32.6954L17.5781 22.5L6.09786 12.3047C5.95936 12.182 5.84638 12.0333 5.76537 11.8669C5.68436 11.7006 5.63691 11.5199 5.62573 11.3352C5.61455 11.1505 5.63986 10.9654 5.70021 10.7905C5.76055 10.6156 5.85476 10.4543 5.97745 10.3158C6.10015 10.1773 6.24892 10.0643 6.41527 9.98328C6.58163 9.90227 6.76231 9.85482 6.947 9.84364C7.13169 9.83246 7.31678 9.85776 7.49169 9.91811C7.6666 9.97846 7.82792 10.0727 7.96642 10.1954L20.6227 21.4454C20.7723 21.5773 20.8921 21.7396 20.9742 21.9215C21.0563 22.1033 21.0988 22.3005 21.0988 22.5C21.0988 22.6996 21.0563 22.8968 20.9742 23.0786C20.8921 23.2605 20.7723 23.4228 20.6227 23.5547H20.6209ZM37.9688 32.3438H21.0938C20.7208 32.3438 20.3631 32.492 20.0994 32.7557C19.8357 33.0194 19.6875 33.3771 19.6875 33.75C19.6875 34.123 19.8357 34.4807 20.0994 34.7444C20.3631 35.0081 20.7208 35.1563 21.0938 35.1563H37.9688C38.3417 35.1563 38.6994 35.0081 38.9631 34.7444C39.2269 34.4807 39.375 34.123 39.375 33.75C39.375 33.3771 39.2269 33.0194 38.9631 32.7557C38.6994 32.492 38.3417 32.3438 37.9688 32.3438Z" fill="#1F4062"/>
</svg>
