<svg width="45" height="45" viewBox="0 0 45 45" fill="none" xmlns="http://www.w3.org/2000/svg">
<path opacity="0.2" d="M40.7812 22.5V33.75H29.5312L40.7812 22.5Z" fill="#1F4062"/>
<path d="M41.3191 21.201C41.0622 21.0944 40.7794 21.0664 40.5066 21.1206C40.2338 21.1747 39.9831 21.3085 39.7863 21.5051L35.1562 26.137L24.9012 15.8801C24.7706 15.7494 24.6155 15.6457 24.4447 15.5749C24.274 15.5041 24.091 15.4677 23.9062 15.4677C23.7214 15.4677 23.5384 15.5041 23.3677 15.5749C23.197 15.6457 23.0419 15.7494 22.9113 15.8801L16.875 21.9182L5.21366 10.2551C4.94979 9.99126 4.59191 9.84302 4.21874 9.84302C3.84557 9.84302 3.48769 9.99126 3.22382 10.2551C2.95995 10.519 2.81171 10.8769 2.81171 11.25C2.81171 11.6232 2.95995 11.9811 3.22382 12.245L15.8801 24.9012C16.0107 25.032 16.1658 25.1357 16.3365 25.2065C16.5072 25.2772 16.6902 25.3137 16.875 25.3137C17.0598 25.3137 17.2428 25.2772 17.4135 25.2065C17.5842 25.1357 17.7393 25.032 17.8699 24.9012L23.9062 18.8631L33.1682 28.125L28.5363 32.7551C28.3394 32.9518 28.2053 33.2025 28.151 33.4754C28.0966 33.7483 28.1245 34.0313 28.231 34.2883C28.3375 34.5454 28.5179 34.7651 28.7494 34.9197C28.9809 35.0742 29.2529 35.1565 29.5312 35.1563H40.7812C41.1542 35.1563 41.5119 35.0081 41.7756 34.7444C42.0393 34.4807 42.1875 34.123 42.1875 33.75V22.5C42.1874 22.2219 42.1049 21.9501 41.9503 21.7188C41.7958 21.4876 41.5761 21.3074 41.3191 21.201ZM39.375 32.3438H32.9256L39.375 25.8944V32.3438Z" fill="#1F4062"/>
</svg>
