<svg width="45" height="45" viewBox="0 0 45 45" fill="none" xmlns="http://www.w3.org/2000/svg">
<path opacity="0.2" d="M40.7812 9.84375V21.0938L29.5312 9.84375H40.7812Z" fill="#1F4062"/>
<path d="M40.7812 8.4375H29.5312C29.2529 8.43728 28.9809 8.51964 28.7494 8.67414C28.5179 8.82865 28.3375 9.04836 28.231 9.30545C28.1245 9.56255 28.0966 9.84547 28.151 10.1184C28.2053 10.3913 28.3394 10.642 28.5363 10.8387L33.1682 15.4688L23.9062 24.7307L17.8699 18.6926C17.7393 18.5618 17.5842 18.4581 17.4135 18.3873C17.2428 18.3166 17.0598 18.2801 16.875 18.2801C16.6902 18.2801 16.5072 18.3166 16.3365 18.3873C16.1658 18.4581 16.0107 18.5618 15.8801 18.6926L3.22382 31.3488C2.95995 31.6127 2.81171 31.9706 2.81171 32.3437C2.81171 32.7169 2.95995 33.0748 3.22382 33.3387C3.48769 33.6025 3.84557 33.7508 4.21874 33.7508C4.59191 33.7508 4.94979 33.6025 5.21366 33.3387L16.875 21.6756L22.9113 27.7137C23.0419 27.8444 23.197 27.9481 23.3677 28.0189C23.5384 28.0897 23.7214 28.1261 23.9062 28.1261C24.091 28.1261 24.274 28.0897 24.4447 28.0189C24.6155 27.9481 24.7706 27.8444 24.9012 27.7137L35.1562 17.4568L39.7863 22.0887C39.983 22.2856 40.2337 22.4197 40.5066 22.474C40.7795 22.5284 41.0624 22.5005 41.3195 22.394C41.5766 22.2875 41.7963 22.1071 41.9508 21.8756C42.1054 21.6441 42.1877 21.372 42.1875 21.0937V9.84375C42.1875 9.47079 42.0393 9.1131 41.7756 8.84938C41.5119 8.58566 41.1542 8.4375 40.7812 8.4375ZM39.375 17.6994L32.9256 11.25H39.375V17.6994Z" fill="#1F4062"/>
</svg>
