<svg width="45" height="45" viewBox="0 0 45 45" fill="none" xmlns="http://www.w3.org/2000/svg">
<path opacity="0.2" d="M33.75 16.875C33.75 19.1 33.0902 21.2751 31.854 23.1252C30.6179 24.9752 28.8609 26.4172 26.8052 27.2686C24.7495 28.1201 22.4875 28.3429 20.3052 27.9088C18.123 27.4748 16.1184 26.4033 14.5451 24.83C12.9717 23.2566 11.9003 21.2521 11.4662 19.0698C11.0321 16.8875 11.2549 14.6255 12.1064 12.5698C12.9578 10.5141 14.3998 8.75713 16.2498 7.52097C18.0999 6.2848 20.275 5.625 22.5 5.625C25.4837 5.625 28.3452 6.81026 30.455 8.92005C32.5647 11.0298 33.75 13.8913 33.75 16.875Z" fill="#1F4062"/>
<path d="M40.5914 37.2656C37.9143 32.6373 33.7887 29.3186 28.974 27.7453C31.3556 26.3276 33.2059 24.1673 34.2408 21.5961C35.2757 19.025 35.4381 16.1853 34.7028 13.513C33.9676 10.8406 32.3755 8.48356 30.1711 6.80368C27.9666 5.12379 25.2716 4.21399 22.5 4.21399C19.7284 4.21399 17.0334 5.12379 14.829 6.80368C12.6245 8.48356 11.0324 10.8406 10.2972 13.513C9.56195 16.1853 9.72427 19.025 10.7592 21.5961C11.7941 24.1673 13.6444 26.3276 16.026 27.7453C11.2113 29.3168 7.08575 32.6356 4.4086 37.2656C4.31042 37.4257 4.2453 37.6039 4.21708 37.7895C4.18886 37.9752 4.19811 38.1646 4.24428 38.3466C4.29046 38.5286 4.37262 38.6996 4.48593 38.8493C4.59923 38.9991 4.74138 39.1246 4.90399 39.2185C5.0666 39.3125 5.24638 39.3729 5.43271 39.3962C5.61905 39.4195 5.80816 39.4053 5.98891 39.3543C6.16965 39.3034 6.33836 39.2167 6.48508 39.0995C6.6318 38.9823 6.75355 38.8369 6.84317 38.6719C10.1549 32.9485 16.0084 29.5313 22.5 29.5313C28.9916 29.5313 34.8451 32.9485 38.1568 38.6719C38.2465 38.8369 38.3682 38.9823 38.5149 39.0995C38.6616 39.2167 38.8304 39.3034 39.0111 39.3543C39.1918 39.4053 39.381 39.4195 39.5673 39.3962C39.7536 39.3729 39.9334 39.3125 40.096 39.2185C40.2586 39.1246 40.4008 38.9991 40.5141 38.8493C40.6274 38.6996 40.7095 38.5286 40.7557 38.3466C40.8019 38.1646 40.8111 37.9752 40.7829 37.7895C40.7547 37.6039 40.6896 37.4257 40.5914 37.2656ZM12.6563 16.875C12.6563 14.9281 13.2336 13.0249 14.3152 11.4061C15.3969 9.78733 16.9343 8.52563 18.733 7.78058C20.5317 7.03553 22.5109 6.84059 24.4204 7.22042C26.3299 7.60024 28.0839 8.53777 29.4606 9.91444C30.8373 11.2911 31.7748 13.0451 32.1546 14.9546C32.5344 16.8641 32.3395 18.8434 31.5944 20.6421C30.8494 22.4408 29.5877 23.9782 27.9689 25.0598C26.3501 26.1414 24.4469 26.7188 22.5 26.7188C19.8901 26.716 17.388 25.678 15.5425 23.8325C13.697 21.9871 12.659 19.4849 12.6563 16.875Z" fill="#1F4062"/>
</svg>
