<svg width="45" height="45" viewBox="0 0 45 45" fill="none" xmlns="http://www.w3.org/2000/svg">
<path opacity="0.2" d="M39.375 22.5C39.3775 24.8666 38.881 27.2071 37.9178 29.3688C36.9546 31.5305 35.5464 33.4648 33.7852 35.0455C32.7262 32.9627 31.1114 31.2136 29.1195 29.9921C27.1277 28.7706 24.8366 28.1244 22.5 28.125C23.8907 28.125 25.2501 27.7126 26.4064 26.94C27.5626 26.1674 28.4639 25.0693 28.996 23.7845C29.5282 22.4997 29.6675 21.0859 29.3962 19.722C29.1248 18.3581 28.4552 17.1052 27.4718 16.1219C26.4885 15.1386 25.2357 14.4689 23.8717 14.1976C22.5078 13.9263 21.0941 14.0655 19.8093 14.5977C18.5245 15.1299 17.4263 16.0311 16.6537 17.1874C15.8811 18.3437 15.4688 19.7031 15.4688 21.0937C15.4688 22.9585 16.2095 24.747 17.5282 26.0656C18.8468 27.3842 20.6352 28.125 22.5 28.125C20.1634 28.1244 17.8723 28.7706 15.8805 29.9921C13.8886 31.2136 12.2738 32.9627 11.2148 35.0455C9.1235 33.1644 7.53555 30.7903 6.59542 28.1392C5.65528 25.488 5.39278 22.6439 5.83178 19.8655C6.27078 17.0871 7.39736 14.4625 9.10907 12.2303C10.8208 9.9982 13.0633 8.22936 15.6328 7.08466C18.2022 5.93996 21.017 5.45571 23.8213 5.67596C26.6256 5.8962 29.3303 6.81395 31.6895 8.34575C34.0487 9.87755 35.9876 11.9748 37.3299 14.4468C38.6721 16.9188 39.3751 19.6871 39.375 22.5Z" fill="#1F4062"/>
<path d="M44.5887 23.4949L40.3699 27.7136C40.2393 27.8444 40.0842 27.9481 39.9135 28.0189C39.7428 28.0896 39.5598 28.1261 39.375 28.1261C39.1902 28.1261 39.0072 28.0896 38.8365 28.0189C38.6658 27.9481 38.5107 27.8444 38.3801 27.7136L34.1613 23.4949C33.8974 23.231 33.7492 22.8731 33.7492 22.5C33.7492 22.1268 33.8974 21.7689 34.1613 21.505C34.4252 21.2412 34.7831 21.0929 35.1562 21.0929C35.5294 21.0929 35.8873 21.2412 36.1512 21.505L37.9687 23.3244V22.5C37.9704 19.2245 36.9322 16.0331 35.0039 13.3854C33.0755 10.7378 30.3565 8.77059 27.2385 7.76723C24.1205 6.76386 20.7645 6.77613 17.6539 7.80227C14.5434 8.8284 11.8388 10.8154 9.92987 13.4771C9.71216 13.7801 9.38298 13.9843 9.01476 14.0446C8.64653 14.1049 8.26943 14.0165 7.96639 13.7988C7.66336 13.5811 7.45923 13.2519 7.39891 12.8837C7.33858 12.5154 7.427 12.1383 7.64472 11.8353C9.90085 8.68974 13.0972 6.34152 16.7734 5.12893C20.4496 3.91635 24.4158 3.90199 28.1007 5.08793C31.7856 6.27386 34.9989 8.59888 37.2777 11.728C39.5566 14.8572 40.7833 18.6289 40.7812 22.5V23.3244L42.5988 21.505C42.8627 21.2412 43.2206 21.0929 43.5937 21.0929C43.9669 21.0929 44.3248 21.2412 44.5887 21.505C44.8525 21.7689 45.0008 22.1268 45.0008 22.5C45.0008 22.8731 44.8525 23.231 44.5887 23.4949ZM37.35 33.1628C35.0932 36.306 31.8973 38.6521 28.2223 39.8633C24.5473 41.0745 20.5827 41.0883 16.8993 39.9029C13.2159 38.7174 10.0036 36.3938 7.72494 33.2665C5.44622 30.1391 4.21858 26.3694 4.21874 22.5V21.6755L2.40116 23.4949C2.13729 23.7587 1.77941 23.907 1.40624 23.907C1.03307 23.907 0.675186 23.7587 0.411317 23.4949C0.147447 23.231 -0.000793457 22.8731 -0.000793457 22.5C-0.000793457 22.1268 0.147447 21.7689 0.411317 21.505L4.63007 17.2863C4.76067 17.1555 4.91576 17.0518 5.08648 16.981C5.25719 16.9103 5.44019 16.8738 5.62499 16.8738C5.80979 16.8738 5.99278 16.9103 6.1635 16.981C6.33421 17.0518 6.48931 17.1555 6.61991 17.2863L10.8387 21.505C11.1025 21.7689 11.2508 22.1268 11.2508 22.5C11.2508 22.8731 11.1025 23.231 10.8387 23.4949C10.5748 23.7587 10.2169 23.907 9.84374 23.907C9.47057 23.907 9.11269 23.7587 8.84882 23.4949L7.03124 21.6755V22.5C7.02791 26.2866 8.41964 29.9418 10.9406 32.7673C12.509 30.4946 14.7143 28.7364 17.2793 27.7136C15.9015 26.6284 14.8961 25.1409 14.4029 23.4578C13.9098 21.7747 13.9533 19.9798 14.5276 18.3226C15.1018 16.6654 16.1782 15.2284 17.607 14.2113C19.0359 13.1943 20.7461 12.6477 22.5 12.6477C24.2538 12.6477 25.9641 13.1943 27.3929 14.2113C28.8218 15.2284 29.8981 16.6654 30.4724 18.3226C31.0466 19.9798 31.0902 21.7747 30.597 23.4578C30.1039 25.1409 29.0985 26.6284 27.7207 27.7136C30.288 28.7365 32.4949 30.4969 34.0629 32.7726C34.4184 32.3733 34.7534 31.9562 35.0666 31.5228C35.2843 31.2198 35.6135 31.0156 35.9817 30.9553C36.3499 30.895 36.727 30.9834 37.0301 31.2011C37.3331 31.4188 37.5372 31.748 37.5976 32.1162C37.6579 32.4845 37.5695 32.8616 37.3517 33.1646L37.35 33.1628ZM22.5 26.7187C23.6125 26.7187 24.7 26.3888 25.6251 25.7707C26.5501 25.1526 27.2711 24.2741 27.6968 23.2463C28.1226 22.2185 28.2339 21.0875 28.0169 19.9963C27.7999 18.9052 27.2641 17.9029 26.4775 17.1162C25.6908 16.3296 24.6885 15.7938 23.5974 15.5768C22.5062 15.3597 21.3752 15.4711 20.3474 15.8969C19.3196 16.3226 18.4411 17.0436 17.823 17.9686C17.2049 18.8936 16.875 19.9812 16.875 21.0937C16.875 22.5855 17.4676 24.0163 18.5225 25.0712C19.5774 26.1261 21.0081 26.7187 22.5 26.7187ZM22.5 37.9687C25.932 37.9642 29.2656 36.8211 31.9781 34.7185C30.9608 33.1275 29.5594 31.8181 27.9029 30.9112C26.2465 30.0042 24.3884 29.5288 22.5 29.5288C20.6115 29.5288 18.7535 30.0042 17.097 30.9112C15.4406 31.8181 14.0392 33.1275 13.0219 34.7185C15.7303 36.8286 19.0666 37.9727 22.5 37.9687Z" fill="#1F4062"/>
</svg>
