<svg width="45" height="45" viewBox="0 0 45 45" fill="none" xmlns="http://www.w3.org/2000/svg">
<path opacity="0.2" d="M37.9688 23.9062C37.9688 26.9657 37.0615 29.9564 35.3618 32.5002C33.6621 35.044 31.2462 37.0267 28.4196 38.1975C25.5931 39.3683 22.4828 39.6746 19.4822 39.0778C16.4816 38.4809 13.7253 37.0077 11.5619 34.8443C9.39861 32.681 7.92535 29.9247 7.32848 26.9241C6.73162 23.9234 7.03795 20.8132 8.20875 17.9866C9.37954 15.1601 11.3622 12.7442 13.906 11.0445C16.4499 9.34473 19.4406 8.4375 22.5 8.4375C26.6026 8.4375 30.5371 10.0672 33.4381 12.9682C36.339 15.8691 37.9688 19.8037 37.9688 23.9062Z" fill="#03111C"/>
<path d="M22.4998 7.03124C19.1622 7.03124 15.8996 8.02094 13.1246 9.87519C10.3495 11.7294 8.18657 14.365 6.90934 17.4485C5.63211 20.532 5.29793 23.925 5.94905 27.1984C6.60018 30.4718 8.20737 33.4787 10.5674 35.8387C12.9274 38.1987 15.9342 39.8059 19.2077 40.457C22.4811 41.1081 25.8741 40.7739 28.9576 39.4967C32.0411 38.2195 34.6766 36.0566 36.5309 33.2815C38.3851 30.5064 39.3748 27.2438 39.3748 23.9062C39.3697 19.4323 37.5901 15.143 34.4266 11.9795C31.263 8.8159 26.9738 7.03636 22.4998 7.03124ZM22.4998 37.9687C19.7185 37.9687 16.9997 37.144 14.6871 35.5988C12.3745 34.0536 10.5721 31.8573 9.50775 29.2877C8.44339 26.7181 8.16491 23.8906 8.70751 21.1628C9.25012 18.4349 10.5894 15.9292 12.5561 13.9625C14.5228 11.9959 17.0285 10.6566 19.7563 10.1139C22.4842 9.57134 25.3117 9.84983 27.8813 10.9142C30.4509 11.9785 32.6471 13.781 34.1923 16.0935C35.7376 18.4061 36.5623 21.1249 36.5623 23.9062C36.5581 27.6346 35.0752 31.209 32.4389 33.8453C29.8025 36.4816 26.2281 37.9646 22.4998 37.9687ZM10.8385 6.61991L5.21348 12.2449C4.94961 12.5088 4.59172 12.657 4.21856 12.657C3.84539 12.657 3.4875 12.5088 3.22363 12.2449C2.95976 11.981 2.81152 11.6232 2.81152 11.25C2.81152 10.8768 2.95976 10.5189 3.22363 10.2551L8.84863 4.63007C9.1125 4.3662 9.47039 4.21796 9.84356 4.21796C10.2167 4.21796 10.5746 4.3662 10.8385 4.63007C11.1023 4.89394 11.2506 5.25182 11.2506 5.62499C11.2506 5.99816 11.1023 6.35604 10.8385 6.61991ZM41.776 12.2449C41.6454 12.3757 41.4903 12.4794 41.3196 12.5502C41.1489 12.6209 40.9659 12.6573 40.7811 12.6573C40.5963 12.6573 40.4133 12.6209 40.2425 12.5502C40.0718 12.4794 39.9167 12.3757 39.7861 12.2449L34.1611 6.61991C33.8973 6.35604 33.749 5.99816 33.749 5.62499C33.749 5.25182 33.8973 4.89394 34.1611 4.63007C34.425 4.3662 34.7829 4.21796 35.1561 4.21796C35.5292 4.21796 35.8871 4.3662 36.151 4.63007L41.776 10.2551C41.9067 10.3857 42.0105 10.5408 42.0812 10.7115C42.152 10.8822 42.1884 11.0652 42.1884 11.25C42.1884 11.4348 42.152 11.6178 42.0812 11.7885C42.0105 11.9592 41.9067 12.1143 41.776 12.2449ZM32.3436 22.5C32.7165 22.5 33.0742 22.6481 33.3379 22.9119C33.6016 23.1756 33.7498 23.5333 33.7498 23.9062C33.7498 24.2792 33.6016 24.6369 33.3379 24.9006C33.0742 25.1643 32.7165 25.3125 32.3436 25.3125H22.4998C22.1268 25.3125 21.7692 25.1643 21.5054 24.9006C21.2417 24.6369 21.0936 24.2792 21.0936 23.9062V14.0625C21.0936 13.6895 21.2417 13.3318 21.5054 13.0681C21.7692 12.8044 22.1268 12.6562 22.4998 12.6562C22.8728 12.6562 23.2305 12.8044 23.4942 13.0681C23.7579 13.3318 23.9061 13.6895 23.9061 14.0625V22.5H32.3436Z" fill="#03111C"/>
</svg>
