<svg width="45" height="45" viewBox="0 0 45 45" fill="none" xmlns="http://www.w3.org/2000/svg">
<path opacity="0.2" d="M40.7812 16.875H4.21875L22.5 5.625L40.7812 16.875Z" fill="#03111C"/>
<path d="M4.21875 18.2812H8.4375V29.5312H5.625C5.25204 29.5312 4.89435 29.6794 4.63063 29.9431C4.36691 30.2068 4.21875 30.5645 4.21875 30.9375C4.21875 31.3104 4.36691 31.6681 4.63063 31.9319C4.89435 32.1956 5.25204 32.3437 5.625 32.3437H39.375C39.748 32.3437 40.1056 32.1956 40.3694 31.9319C40.6331 31.6681 40.7812 31.3104 40.7812 30.9375C40.7812 30.5645 40.6331 30.2068 40.3694 29.9431C40.1056 29.6794 39.748 29.5312 39.375 29.5312H36.5625V18.2812H40.7812C41.0872 18.2809 41.3847 18.1808 41.6287 17.9961C41.8726 17.8114 42.0497 17.5522 42.133 17.2578C42.2163 16.9634 42.2013 16.6498 42.0902 16.3647C41.9792 16.0796 41.7782 15.8385 41.5178 15.6779L23.2365 4.42791C23.015 4.29171 22.76 4.2196 22.5 4.2196C22.24 4.2196 21.985 4.29171 21.7635 4.42791L3.48223 15.6779C3.22177 15.8385 3.02078 16.0796 2.90976 16.3647C2.79874 16.6498 2.78374 16.9634 2.86703 17.2578C2.95033 17.5522 3.12737 17.8114 3.37131 17.9961C3.61525 18.1808 3.91278 18.2809 4.21875 18.2812ZM11.25 18.2812H16.875V29.5312H11.25V18.2812ZM25.3125 18.2812V29.5312H19.6875V18.2812H25.3125ZM33.75 29.5312H28.125V18.2812H33.75V29.5312ZM22.5 7.27557L35.8137 15.4687H9.18633L22.5 7.27557ZM43.5938 36.5625C43.5938 36.9354 43.4456 37.2931 43.1819 37.5569C42.9181 37.8206 42.5605 37.9687 42.1875 37.9687H2.8125C2.43954 37.9687 2.08185 37.8206 1.81813 37.5569C1.55441 37.2931 1.40625 36.9354 1.40625 36.5625C1.40625 36.1895 1.55441 35.8318 1.81813 35.5681C2.08185 35.3044 2.43954 35.1562 2.8125 35.1562H42.1875C42.5605 35.1562 42.9181 35.3044 43.1819 35.5681C43.4456 35.8318 43.5938 36.1895 43.5938 36.5625Z" fill="#03111C"/>
</svg>
