<svg width="45" height="45" viewBox="0 0 45 45" fill="none" xmlns="http://www.w3.org/2000/svg">
<path opacity="0.2" d="M36.5623 33.75H8.43734C8.19121 33.7485 7.94978 33.6825 7.73718 33.5584C7.52458 33.4344 7.34826 33.2568 7.22584 33.0432C7.10341 32.8297 7.03918 32.5878 7.03955 32.3416C7.03993 32.0955 7.1049 31.8538 7.22797 31.6406C8.38637 29.6367 9.84359 25.9822 9.84359 19.6875C9.84359 16.3309 11.177 13.1117 13.5505 10.7382C15.924 8.36467 19.1432 7.03125 22.4998 7.03125C25.8565 7.03125 29.0757 8.36467 31.4492 10.7382C33.8227 13.1117 35.1561 16.3309 35.1561 19.6875C35.1561 25.984 36.6151 29.6367 37.7752 31.6406C37.8984 31.854 37.9634 32.0961 37.9636 32.3425C37.9639 32.5889 37.8993 32.8311 37.7765 33.0447C37.6536 33.2584 37.4768 33.436 37.2637 33.5597C37.0506 33.6835 36.8088 33.7491 36.5623 33.75Z" fill="#03111C"/>
<path d="M39.3751 12.498C39.0441 12.6695 38.6585 12.7024 38.3032 12.5897C37.9479 12.477 37.6518 12.2278 37.4802 11.8969C36.1379 9.24519 34.1062 7.004 31.5985 5.40878C31.4423 5.31022 31.3069 5.18183 31.2003 5.03096C31.0936 4.88009 31.0177 4.70969 30.9769 4.52949C30.9361 4.34928 30.9312 4.16281 30.9624 3.9807C30.9937 3.7986 31.0605 3.62444 31.1591 3.46816C31.2576 3.31188 31.386 3.17655 31.5369 3.06989C31.6878 2.96322 31.8582 2.88732 32.0384 2.84652C32.2186 2.80571 32.4051 2.8008 32.5872 2.83206C32.7693 2.86332 32.9434 2.93014 33.0997 3.02871C36.0222 4.89996 38.3953 7.51388 39.9763 10.6031C40.1477 10.9341 40.1807 11.3197 40.0679 11.675C39.9552 12.0303 39.706 12.3264 39.3751 12.498ZM6.27724 12.6562C6.53487 12.6561 6.78752 12.5853 7.00761 12.4513C7.22771 12.3174 7.40678 12.1256 7.52529 11.8969C8.86756 9.24519 10.8993 7.004 13.4069 5.40878C13.7225 5.20972 13.9462 4.89342 14.0286 4.52949C14.111 4.16555 14.0455 3.78378 13.8464 3.46816C13.6473 3.15254 13.331 2.92893 12.9671 2.84652C12.6031 2.7641 12.2214 2.82964 11.9058 3.02871C8.98322 4.89996 6.61014 7.51388 5.0292 10.6031C4.91817 10.8174 4.86417 11.0567 4.8724 11.2979C4.88063 11.5392 4.95081 11.7742 5.07618 11.9805C5.20155 12.1867 5.3779 12.3572 5.58825 12.4756C5.7986 12.5939 6.03588 12.6561 6.27724 12.6562ZM38.9901 30.927C39.2393 31.3542 39.3713 31.8395 39.373 32.3341C39.3747 32.8286 39.246 33.3149 38.9998 33.7438C38.7536 34.1728 38.3987 34.5292 37.9708 34.7772C37.5429 35.0251 37.0572 35.1559 36.5626 35.1562H29.3907C29.068 36.7457 28.2056 38.1747 26.9498 39.2012C25.694 40.2276 24.122 40.7883 22.5001 40.7883C20.8782 40.7883 19.3062 40.2276 18.0504 39.2012C16.7946 38.1747 15.9322 36.7457 15.6095 35.1562H8.43759C7.94333 35.1553 7.45806 35.0241 7.03065 34.7758C6.60325 34.5276 6.2488 34.1711 6.00302 33.7423C5.75724 33.3135 5.62881 32.8275 5.63066 32.3332C5.63252 31.839 5.76459 31.3539 6.01357 30.927C7.59736 28.1936 8.43759 24.307 8.43759 19.6875C8.43759 15.9579 9.91918 12.381 12.5564 9.74381C15.1936 7.10658 18.7705 5.625 22.5001 5.625C26.2297 5.625 29.8066 7.10658 32.4438 9.74381C35.081 12.381 36.5626 15.9579 36.5626 19.6875C36.5626 24.3053 37.4028 28.1918 38.9901 30.927ZM26.4763 35.1562H18.5239C18.8153 35.9779 19.354 36.6891 20.066 37.192C20.778 37.695 21.6283 37.9651 22.5001 37.9651C23.3718 37.9651 24.2222 37.695 24.9342 37.192C25.6462 36.6891 26.1849 35.9779 26.4763 35.1562ZM36.5626 32.3437C34.6923 29.1322 33.7501 24.8748 33.7501 19.6875C33.7501 16.7038 32.5648 13.8423 30.455 11.7325C28.3453 9.62276 25.4838 8.4375 22.5001 8.4375C19.5164 8.4375 16.6549 9.62276 14.5451 11.7325C12.4354 13.8423 11.2501 16.7038 11.2501 19.6875C11.2501 24.8766 10.3044 29.134 8.43759 32.3437H36.5626Z" fill="#03111C"/>
</svg>
