<svg width="45" height="45" viewBox="0 0 45 45" fill="none" xmlns="http://www.w3.org/2000/svg">
<path opacity="0.2" d="M40.7812 9.84375V35.1562H28.125C26.6332 35.1562 25.2024 35.7489 24.1475 36.8038C23.0926 37.8587 22.5 39.2894 22.5 40.7812V15.4688C22.5 13.9769 23.0926 12.5462 24.1475 11.4913C25.2024 10.4364 26.6332 9.84375 28.125 9.84375H40.7812Z" fill="#03111C"/>
<path d="M40.7812 8.4375H28.125C27.0334 8.4375 25.9569 8.69165 24.9805 9.17981C24.0042 9.66797 23.1549 10.3767 22.5 11.25C21.8451 10.3767 20.9958 9.66797 20.0195 9.17981C19.0431 8.69165 17.9666 8.4375 16.875 8.4375H4.21875C3.84579 8.4375 3.4881 8.58566 3.22438 8.84938C2.96066 9.1131 2.8125 9.47079 2.8125 9.84375V35.1562C2.8125 35.5292 2.96066 35.8869 3.22438 36.1506C3.4881 36.4143 3.84579 36.5625 4.21875 36.5625H16.875C17.9939 36.5625 19.0669 37.007 19.8581 37.7981C20.6493 38.5893 21.0938 39.6624 21.0938 40.7812C21.0938 41.1542 21.2419 41.5119 21.5056 41.7756C21.7694 42.0393 22.127 42.1875 22.5 42.1875C22.873 42.1875 23.2306 42.0393 23.4944 41.7756C23.7581 41.5119 23.9062 41.1542 23.9062 40.7812C23.9062 39.6624 24.3507 38.5893 25.1419 37.7981C25.9331 37.007 27.0061 36.5625 28.125 36.5625H40.7812C41.1542 36.5625 41.5119 36.4143 41.7756 36.1506C42.0393 35.8869 42.1875 35.5292 42.1875 35.1562V9.84375C42.1875 9.47079 42.0393 9.1131 41.7756 8.84938C41.5119 8.58566 41.1542 8.4375 40.7812 8.4375ZM16.875 33.75H5.625V11.25H16.875C17.9939 11.25 19.0669 11.6945 19.8581 12.4856C20.6493 13.2768 21.0938 14.3499 21.0938 15.4688V35.1562C19.8778 34.2413 18.3967 33.7476 16.875 33.75ZM39.375 33.75H28.125C26.6033 33.7476 25.1222 34.2413 23.9062 35.1562V15.4688C23.9062 14.3499 24.3507 13.2768 25.1419 12.4856C25.9331 11.6945 27.0061 11.25 28.125 11.25H39.375V33.75ZM28.125 15.4688H35.1562C35.5292 15.4688 35.8869 15.6169 36.1506 15.8806C36.4143 16.1444 36.5625 16.502 36.5625 16.875C36.5625 17.248 36.4143 17.6056 36.1506 17.8694C35.8869 18.1331 35.5292 18.2812 35.1562 18.2812H28.125C27.752 18.2812 27.3944 18.1331 27.1306 17.8694C26.8669 17.6056 26.7188 17.248 26.7188 16.875C26.7188 16.502 26.8669 16.1444 27.1306 15.8806C27.3944 15.6169 27.752 15.4688 28.125 15.4688ZM36.5625 22.5C36.5625 22.873 36.4143 23.2306 36.1506 23.4944C35.8869 23.7581 35.5292 23.9062 35.1562 23.9062H28.125C27.752 23.9062 27.3944 23.7581 27.1306 23.4944C26.8669 23.2306 26.7188 22.873 26.7188 22.5C26.7188 22.127 26.8669 21.7694 27.1306 21.5056C27.3944 21.2419 27.752 21.0938 28.125 21.0938H35.1562C35.5292 21.0938 35.8869 21.2419 36.1506 21.5056C36.4143 21.7694 36.5625 22.127 36.5625 22.5ZM36.5625 28.125C36.5625 28.498 36.4143 28.8556 36.1506 29.1194C35.8869 29.3831 35.5292 29.5312 35.1562 29.5312H28.125C27.752 29.5312 27.3944 29.3831 27.1306 29.1194C26.8669 28.8556 26.7188 28.498 26.7188 28.125C26.7188 27.752 26.8669 27.3944 27.1306 27.1306C27.3944 26.8669 27.752 26.7188 28.125 26.7188H35.1562C35.5292 26.7188 35.8869 26.8669 36.1506 27.1306C36.4143 27.3944 36.5625 27.752 36.5625 28.125Z" fill="#03111C"/>
</svg>
