<svg width="45" height="45" viewBox="0 0 45 45" fill="none" xmlns="http://www.w3.org/2000/svg">
<path opacity="0.2" d="M35.1562 7.03125V33.75L29.5312 29.7334V12.6562C29.5312 12.2833 29.3831 11.9256 29.1194 11.6619C28.8556 11.3982 28.498 11.25 28.125 11.25H15.4688V7.03125C15.4688 6.65829 15.6169 6.3006 15.8806 6.03688C16.1444 5.77316 16.502 5.625 16.875 5.625H33.75C34.123 5.625 34.4806 5.77316 34.7444 6.03688C35.0081 6.3006 35.1562 6.65829 35.1562 7.03125Z" fill="#03111C"/>
<path d="M33.75 4.21875H16.875C16.1291 4.21875 15.4137 4.51507 14.8863 5.04251C14.3588 5.56996 14.0625 6.28533 14.0625 7.03125V9.84375H11.25C10.5041 9.84375 9.78871 10.1401 9.26126 10.6675C8.73382 11.195 8.4375 11.9103 8.4375 12.6562V39.375C8.43749 39.6334 8.50868 39.8868 8.64323 40.1074C8.77779 40.3279 8.97052 40.5072 9.20027 40.6254C9.43002 40.7437 9.6879 40.7963 9.9456 40.7776C10.2033 40.7589 10.4509 40.6695 10.6611 40.5193L19.6875 34.0717L28.7156 40.5193C28.9259 40.669 29.1733 40.758 29.4307 40.7764C29.6881 40.7949 29.9457 40.7421 30.1751 40.624C30.4046 40.5058 30.5971 40.3267 30.7316 40.1064C30.866 39.8862 30.9373 39.6331 30.9375 39.375V32.465L34.3389 34.8943C34.5491 35.0445 34.7967 35.1339 35.0544 35.1526C35.3121 35.1713 35.57 35.1187 35.7997 35.0004C36.0295 34.8822 36.2222 34.7029 36.3568 34.4824C36.4913 34.2618 36.5625 34.0084 36.5625 33.75V7.03125C36.5625 6.28533 36.2662 5.56996 35.7387 5.04251C35.2113 4.51507 34.4959 4.21875 33.75 4.21875ZM28.125 36.6434L20.5031 31.1941C20.2646 31.0238 19.9788 30.9322 19.6857 30.9322C19.3926 30.9322 19.1069 31.0238 18.8684 31.1941L11.25 36.6416V12.6562H28.125V36.6434ZM33.75 31.0184L30.9375 29.0039V12.6562C30.9375 11.9103 30.6412 11.195 30.1137 10.6675C29.5863 10.1401 28.8709 9.84375 28.125 9.84375H16.875V7.03125H33.75V31.0184Z" fill="#03111C"/>
</svg>
