<svg width="45" height="45" viewBox="0 0 45 45" fill="none" xmlns="http://www.w3.org/2000/svg">
<path opacity="0.2" d="M16.8752 6.5918V19.248L5.90642 25.5762C5.17421 21.624 5.87675 17.5402 7.88759 14.0599C9.89843 10.5796 13.0855 7.93135 16.8752 6.5918Z" fill="#03111C"/>
<path d="M17.5779 20.4662C17.7917 20.3428 17.9693 20.1652 18.0927 19.9514C18.2161 19.7375 18.2811 19.4949 18.281 19.248V6.5918C18.2798 6.3676 18.2249 6.14695 18.1211 5.94825C18.0172 5.74955 17.8673 5.57856 17.684 5.44955C17.5006 5.32054 17.289 5.23724 17.0669 5.20661C16.8448 5.17597 16.6186 5.19889 16.4072 5.27344C12.3027 6.72612 8.85091 9.59527 6.67246 13.3651C4.494 17.135 3.73171 21.5583 4.52262 25.8398C4.56362 26.0613 4.65718 26.2696 4.79544 26.4473C4.93371 26.625 5.11263 26.7669 5.31715 26.8611C5.50147 26.9473 5.70255 26.9917 5.90602 26.9912C6.15284 26.9913 6.39534 26.9264 6.60914 26.8031L17.5779 20.4662ZM15.4685 8.72227V18.4359L7.05211 23.2928C7.03102 23.0273 7.03102 22.7602 7.03102 22.5C7.03351 19.6495 7.82255 16.8549 9.31124 14.424C10.7999 11.9931 12.9306 10.0201 15.4685 8.72227ZM22.4998 4.21875C22.1268 4.21875 21.7691 4.36691 21.5054 4.63063C21.2417 4.89435 21.0935 5.25204 21.0935 5.625V21.7652L7.2402 29.8354C7.07944 29.9285 6.93875 30.0527 6.82624 30.2006C6.71374 30.3484 6.63166 30.5172 6.58475 30.6969C6.53784 30.8767 6.52703 31.0641 6.55294 31.2481C6.57885 31.4321 6.64097 31.6091 6.73571 31.7689C8.35941 34.5292 10.6797 36.8146 13.4644 38.3962C16.249 39.9778 19.4002 40.8001 22.6026 40.7809C25.805 40.7617 28.9462 39.9016 31.7116 38.2867C34.4771 36.6718 36.7698 34.3588 38.3603 31.5792C39.9507 28.7996 40.7831 25.651 40.7741 22.4486C40.7651 19.2461 39.915 16.1023 38.3089 13.3317C36.7029 10.5611 34.3972 8.26099 31.6227 6.66168C28.8482 5.06236 25.7022 4.21994 22.4998 4.21875ZM22.4998 37.9688C20.0449 37.9622 17.6264 37.3745 15.4423 36.2539C13.2581 35.1332 11.3702 33.5114 9.93317 31.5211L23.2082 23.7867C23.4217 23.6634 23.5991 23.4861 23.7225 23.2726C23.8459 23.0591 23.911 22.8169 23.9113 22.5703V7.09453C27.8776 7.45439 31.5524 9.33019 34.1704 12.3314C36.7885 15.3326 38.1481 19.228 37.9662 23.2065C37.7843 27.185 36.0749 30.94 33.194 33.6898C30.313 36.4396 26.4824 37.9723 22.4998 37.9688Z" fill="#03111C"/>
</svg>
