<svg width="45" height="45" viewBox="0 0 45 45" fill="none" xmlns="http://www.w3.org/2000/svg">
<path opacity="0.2" d="M36.5625 7.03125V36.5625H26.7188V7.03125H36.5625Z" fill="#03111C"/>
<path d="M39.375 35.1562H37.9688V7.03125C37.9688 6.65829 37.8206 6.3006 37.5569 6.03688C37.2931 5.77316 36.9355 5.625 36.5625 5.625H26.7188C26.3458 5.625 25.9881 5.77316 25.7244 6.03688C25.4607 6.3006 25.3125 6.65829 25.3125 7.03125V14.0625H16.875C16.502 14.0625 16.1444 14.2107 15.8806 14.4744C15.6169 14.7381 15.4688 15.0958 15.4688 15.4688V22.5H8.4375C8.06454 22.5 7.70685 22.6482 7.44313 22.9119C7.17941 23.1756 7.03125 23.5333 7.03125 23.9062V35.1562H5.625C5.25204 35.1562 4.89435 35.3044 4.63063 35.5681C4.36691 35.8319 4.21875 36.1895 4.21875 36.5625C4.21875 36.9355 4.36691 37.2931 4.63063 37.5569C4.89435 37.8206 5.25204 37.9688 5.625 37.9688H39.375C39.748 37.9688 40.1056 37.8206 40.3694 37.5569C40.6331 37.2931 40.7812 36.9355 40.7812 36.5625C40.7812 36.1895 40.6331 35.8319 40.3694 35.5681C40.1056 35.3044 39.748 35.1562 39.375 35.1562ZM28.125 8.4375H35.1562V35.1562H28.125V8.4375ZM18.2812 16.875H25.3125V35.1562H18.2812V16.875ZM9.84375 25.3125H15.4688V35.1562H9.84375V25.3125Z" fill="#03111C"/>
</svg>
