<svg width="45" height="45" viewBox="0 0 45 45" fill="none" xmlns="http://www.w3.org/2000/svg">
<path opacity="0.2" d="M39.375 22.5C39.3754 25.4636 38.5953 28.375 37.1132 30.9413C35.6311 33.5077 33.4993 35.6385 30.9323 37.1193C28.3652 38.6002 25.4534 39.3789 22.4899 39.3771C19.5263 39.3753 16.6155 38.5931 14.0502 37.1092L7.47774 39.3012C7.22996 39.3838 6.96407 39.3958 6.70986 39.3358C6.45565 39.2758 6.22317 39.1462 6.03848 38.9615C5.85379 38.7768 5.72419 38.5444 5.6642 38.2902C5.60421 38.0359 5.6162 37.7701 5.69883 37.5223L7.89082 30.9498C6.59515 28.7087 5.83245 26.1996 5.66174 23.6165C5.49102 21.0335 5.91686 18.4458 6.90632 16.0536C7.89577 13.6615 9.42231 11.5291 11.3678 9.82139C13.3133 8.11367 15.6256 6.87644 18.1258 6.20543C20.626 5.53442 23.2471 5.44762 25.7862 5.95174C28.3254 6.45586 30.7145 7.53738 32.7687 9.11264C34.8229 10.6879 36.4872 12.7146 37.6328 15.0361C38.7783 17.3575 39.3744 19.9113 39.375 22.5Z" fill="#03111C"/>
<path d="M22.5001 4.21875C19.3439 4.21806 16.2412 5.03453 13.4942 6.58868C10.7472 8.14284 8.44927 10.3817 6.82421 13.0874C5.19916 15.7932 4.3023 18.8735 4.22092 22.0287C4.13955 25.1838 4.87643 28.3063 6.35985 31.0922L4.36473 37.0775C4.19947 37.5731 4.17549 38.1049 4.29547 38.6133C4.41545 39.1217 4.67466 39.5867 5.04404 39.956C5.41342 40.3254 5.87838 40.5846 6.38679 40.7046C6.89521 40.8246 7.42699 40.8006 7.92255 40.6354L13.9079 38.6402C16.3596 39.9443 19.0762 40.6726 21.8515 40.77C24.6268 40.8674 27.3877 40.3312 29.9248 39.2023C32.462 38.0733 34.7085 36.3811 36.494 34.2543C38.2795 32.1274 39.5571 29.6218 40.2296 26.9275C40.9021 24.2332 40.952 21.4211 40.3755 18.7046C39.799 15.9881 38.6112 13.4387 36.9022 11.2499C35.1933 9.06099 33.0082 7.29021 30.5127 6.07193C28.0173 4.85365 25.2771 4.21989 22.5001 4.21875ZM22.5001 37.9688C19.7807 37.9706 17.109 37.2545 14.7552 35.8928C14.5415 35.7688 14.299 35.7034 14.052 35.7029C13.9008 35.703 13.7505 35.7279 13.6073 35.7768L7.03133 37.9688L9.22333 31.3945C9.28651 31.2056 9.30884 31.0054 9.28884 30.8073C9.26884 30.6091 9.20697 30.4174 9.10731 30.2449C7.40218 27.2969 6.71758 23.8686 7.15971 20.4918C7.60183 17.115 9.14597 13.9785 11.5526 11.5689C13.9592 9.1592 17.0937 7.6111 20.47 7.16471C23.8462 6.71832 27.2754 7.39859 30.2255 9.09999C33.1757 10.8014 35.4819 13.4288 36.7865 16.5747C38.091 19.7205 38.3209 23.209 37.4405 26.4988C36.5601 29.7887 34.6186 32.696 31.9173 34.7699C29.2159 36.8438 25.9057 37.9682 22.5001 37.9688ZM24.6095 22.5C24.6095 22.9172 24.4857 23.325 24.254 23.6719C24.0222 24.0188 23.6927 24.2892 23.3073 24.4488C22.9219 24.6085 22.4977 24.6502 22.0886 24.5688C21.6794 24.4875 21.3035 24.2866 21.0085 23.9916C20.7135 23.6966 20.5126 23.3207 20.4312 22.9115C20.3498 22.5023 20.3916 22.0782 20.5513 21.6928C20.7109 21.3073 20.9813 20.9779 21.3282 20.7461C21.6751 20.5143 22.0829 20.3906 22.5001 20.3906C23.0595 20.3906 23.5961 20.6129 23.9916 21.0084C24.3872 21.404 24.6095 21.9406 24.6095 22.5ZM16.8751 22.5C16.8751 22.9172 16.7514 23.325 16.5196 23.6719C16.2878 24.0188 15.9584 24.2892 15.5729 24.4488C15.1875 24.6085 14.7634 24.6502 14.3542 24.5688C13.945 24.4875 13.5692 24.2866 13.2742 23.9916C12.9792 23.6966 12.7783 23.3207 12.6969 22.9115C12.6155 22.5023 12.6572 22.0782 12.8169 21.6928C12.9766 21.3073 13.2469 20.9779 13.5938 20.7461C13.9407 20.5143 14.3485 20.3906 14.7657 20.3906C15.3252 20.3906 15.8617 20.6129 16.2573 21.0084C16.6528 21.404 16.8751 21.9406 16.8751 22.5ZM32.3438 22.5C32.3438 22.9172 32.2201 23.325 31.9883 23.6719C31.7566 24.0188 31.4271 24.2892 31.0417 24.4488C30.6562 24.6085 30.2321 24.6502 29.8229 24.5688C29.4138 24.4875 29.0379 24.2866 28.7429 23.9916C28.4479 23.6966 28.247 23.3207 28.1656 22.9115C28.0842 22.5023 28.126 22.0782 28.2857 21.6928C28.4453 21.3073 28.7157 20.9779 29.0626 20.7461C29.4094 20.5143 29.8173 20.3906 30.2345 20.3906C30.7939 20.3906 31.3304 20.6129 31.726 21.0084C32.1216 21.404 32.3438 21.9406 32.3438 22.5Z" fill="#03111C"/>
</svg>
