<svg width="45" height="45" viewBox="0 0 45 45" fill="none" xmlns="http://www.w3.org/2000/svg">
<path opacity="0.2" d="M39.375 22.5C39.375 25.8376 38.3853 29.1002 36.5311 31.8752C34.6768 34.6503 32.0413 36.8132 28.9578 38.0905C25.8743 39.3677 22.4813 39.7019 19.2079 39.0507C15.9344 38.3996 12.9276 36.7924 10.5676 34.4324C8.20757 32.0724 6.60038 29.0656 5.94926 25.7921C5.29813 22.5187 5.63231 19.1257 6.90954 16.0422C8.18677 12.9587 10.3497 10.3232 13.1248 8.46895C15.8998 6.6147 19.1624 5.625 22.5 5.625C26.9755 5.625 31.2678 7.4029 34.4324 10.5676C37.5971 13.7322 39.375 18.0245 39.375 22.5Z" fill="#03111C"/>
<path d="M22.5 4.21875C18.8843 4.21875 15.3498 5.29093 12.3435 7.2997C9.33715 9.30847 6.994 12.1636 5.61034 15.5041C4.22667 18.8445 3.86464 22.5203 4.57003 26.0665C5.27541 29.6127 7.01653 32.8701 9.57321 35.4268C12.1299 37.9835 15.3873 39.7246 18.9335 40.43C22.4797 41.1354 26.1555 40.7733 29.4959 39.3897C32.8364 38.006 35.6915 35.6629 37.7003 32.6565C39.7091 29.6502 40.7813 26.1157 40.7813 22.5C40.7761 17.6531 38.8484 13.0061 35.4212 9.57886C31.9939 6.15157 27.3469 4.22387 22.5 4.21875ZM22.5 37.9688C19.4406 37.9688 16.4499 37.0615 13.906 35.3618C11.3622 33.6621 9.37954 31.2462 8.20875 28.4196C7.03795 25.5931 6.73162 22.4828 7.32849 19.4822C7.92535 16.4816 9.39861 13.7253 11.562 11.5619C13.7253 9.3986 16.4816 7.92534 19.4822 7.32848C22.4828 6.73161 25.5931 7.03795 28.4196 8.20874C31.2462 9.37953 33.6621 11.3622 35.3618 13.906C37.0615 16.4498 37.9688 19.4406 37.9688 22.5C37.9641 26.6011 36.3329 30.533 33.4329 33.4329C30.533 36.3329 26.6011 37.9641 22.5 37.9688ZM33.75 22.5C33.75 22.873 33.6019 23.2306 33.3381 23.4944C33.0744 23.7581 32.7167 23.9062 32.3438 23.9062H22.5C22.127 23.9062 21.7694 23.7581 21.5056 23.4944C21.2419 23.2306 21.0938 22.873 21.0938 22.5V12.6562C21.0938 12.2833 21.2419 11.9256 21.5056 11.6619C21.7694 11.3982 22.127 11.25 22.5 11.25C22.873 11.25 23.2307 11.3982 23.4944 11.6619C23.7581 11.9256 23.9063 12.2833 23.9063 12.6562V21.0938H32.3438C32.7167 21.0938 33.0744 21.2419 33.3381 21.5056C33.6019 21.7694 33.75 22.127 33.75 22.5Z" fill="#03111C"/>
</svg>
