<svg width="45" height="45" viewBox="0 0 45 45" fill="none" xmlns="http://www.w3.org/2000/svg">
<path opacity="0.2" d="M42.1876 22.5C42.1876 26.2296 40.706 29.8064 38.0688 32.4437C35.4315 35.0809 31.8547 36.5625 28.1251 36.5625H12.6563C11.2605 36.5608 9.88109 36.2622 8.6095 35.6867C7.3379 35.1112 6.20324 34.2718 5.2808 33.2243C4.35836 32.1768 3.66924 30.9451 3.25915 29.6109C2.84907 28.2767 2.7274 26.8706 2.90223 25.4858C3.07705 24.101 3.54437 22.7692 4.27317 21.5788C5.00198 20.3884 5.9756 19.3667 7.12944 18.5813C8.28328 17.7959 9.59095 17.2648 10.9657 17.0234C12.3404 16.7819 13.7508 16.8356 15.1032 17.1808V17.1984C16.3337 14.1801 18.5746 11.683 21.4426 10.134C24.3106 8.58512 27.6276 8.0806 30.8264 8.70675C34.0253 9.33289 36.9072 11.0508 38.9796 13.5668C41.0519 16.0827 42.1859 19.2405 42.1876 22.5Z" fill="#03111C"/>
<path d="M28.1248 7.03125C25.252 7.03346 22.4364 7.83481 19.993 9.34569C17.5496 10.8566 15.5747 13.0174 14.2891 15.5865C12.7597 15.3635 11.2008 15.4579 9.70955 15.864C8.21831 16.2701 6.82674 16.9792 5.62164 17.9469C4.41654 18.9146 3.42376 20.1202 2.70522 21.4886C1.98669 22.8569 1.55782 24.3587 1.44535 25.9001C1.33289 27.4416 1.53925 28.9897 2.05156 30.4478C2.56387 31.906 3.37114 33.243 4.42301 34.3754C5.47489 35.5077 6.74882 36.4112 8.16532 37.0295C9.58183 37.6477 11.1105 37.9675 12.6561 37.9688H28.1248C32.2274 37.9688 36.1619 36.339 39.0629 33.4381C41.9638 30.5371 43.5936 26.6026 43.5936 22.5C43.5936 18.3974 41.9638 14.4629 39.0629 11.5619C36.1619 8.66099 32.2274 7.03125 28.1248 7.03125ZM28.1248 35.1562H12.6561C10.4183 35.1562 8.2722 34.2673 6.68987 32.685C5.10753 31.1026 4.21858 28.9565 4.21858 26.7188C4.21858 24.481 5.10753 22.3349 6.68987 20.7525C8.2722 19.1702 10.4183 18.2813 12.6561 18.2812C12.8494 18.2812 13.0428 18.2813 13.2344 18.3006C12.8498 19.6672 12.6552 21.0803 12.6561 22.5C12.6561 22.873 12.8042 23.2306 13.068 23.4944C13.3317 23.7581 13.6894 23.9062 14.0623 23.9062C14.4353 23.9062 14.793 23.7581 15.0567 23.4944C15.3204 23.2306 15.4686 22.873 15.4686 22.5C15.4686 19.9968 16.2109 17.5499 17.6015 15.4686C18.9922 13.3873 20.9689 11.7651 23.2815 10.8071C25.5941 9.84923 28.1389 9.59859 30.5939 10.0869C33.049 10.5753 35.3041 11.7807 37.0741 13.5507C38.8442 15.3207 40.0495 17.5758 40.5379 20.0309C41.0262 22.486 40.7756 25.0307 39.8177 27.3433C38.8598 29.656 37.2376 31.6326 35.1563 33.0233C33.075 34.414 30.628 35.1562 28.1248 35.1562ZM34.7448 18.6926C34.8755 18.8232 34.9792 18.9783 35.05 19.149C35.1208 19.3197 35.1572 19.5027 35.1572 19.6875C35.1572 19.8723 35.1208 20.0553 35.05 20.226C34.9792 20.3967 34.8755 20.5518 34.7448 20.6824L26.3073 29.1199C26.1766 29.2507 26.0216 29.3544 25.8508 29.4252C25.6801 29.4959 25.4971 29.5324 25.3123 29.5324C25.1275 29.5324 24.9445 29.4959 24.7738 29.4252C24.6031 29.3544 24.448 29.2507 24.3174 29.1199L20.0987 24.9012C19.8348 24.6373 19.6865 24.2794 19.6865 23.9062C19.6865 23.5331 19.8348 23.1752 20.0987 22.9113C20.3625 22.6475 20.7204 22.4992 21.0936 22.4992C21.4667 22.4992 21.8246 22.6475 22.0885 22.9113L25.3123 26.1369L32.7549 18.6926C32.8855 18.5618 33.0406 18.4581 33.2113 18.3873C33.382 18.3166 33.565 18.2801 33.7498 18.2801C33.9346 18.2801 34.1176 18.3166 34.2883 18.3873C34.4591 18.4581 34.6141 18.5618 34.7448 18.6926Z" fill="#03111C"/>
</svg>
