<svg width="45" height="45" viewBox="0 0 45 45" fill="none" xmlns="http://www.w3.org/2000/svg">
<path opacity="0.2" d="M42.1876 22.5C42.1876 26.2296 40.706 29.8064 38.0688 32.4437C35.4315 35.0809 31.8547 36.5625 28.1251 36.5625H12.6563C11.2605 36.5608 9.88109 36.2622 8.6095 35.6867C7.3379 35.1112 6.20324 34.2718 5.2808 33.2243C4.35836 32.1768 3.66924 30.9451 3.25915 29.6109C2.84907 28.2767 2.7274 26.8706 2.90223 25.4858C3.07705 24.101 3.54437 22.7692 4.27317 21.5788C5.00198 20.3884 5.9756 19.3667 7.12944 18.5813C8.28328 17.7959 9.59095 17.2648 10.9657 17.0234C12.3404 16.7819 13.7508 16.8356 15.1032 17.1808V17.1984C16.3337 14.1801 18.5746 11.683 21.4426 10.134C24.3106 8.58512 27.6276 8.0806 30.8264 8.70675C34.0253 9.33289 36.9072 11.0508 38.9796 13.5668C41.0519 16.0827 42.1859 19.2405 42.1876 22.5Z" fill="#03111C"/>
<path d="M31.349 29.1199L28.1251 25.8943V36.5625C28.1251 36.9355 27.977 37.2931 27.7133 37.5569C27.4495 37.8206 27.0919 37.9688 26.7189 37.9688C26.3459 37.9688 25.9882 37.8206 25.7245 37.5569C25.4608 37.2931 25.3126 36.9355 25.3126 36.5625V25.8943L22.0888 29.1199C21.9582 29.2506 21.803 29.3542 21.6323 29.4249C21.4616 29.4956 21.2787 29.532 21.0939 29.532C20.9091 29.532 20.7262 29.4956 20.5554 29.4249C20.3847 29.3542 20.2296 29.2506 20.099 29.1199C19.9683 28.9893 19.8647 28.8342 19.794 28.6634C19.7233 28.4927 19.6869 28.3098 19.6869 28.125C19.6869 27.9402 19.7233 27.7573 19.794 27.5866C19.8647 27.4158 19.9683 27.2607 20.099 27.1301L25.724 21.5051C25.8546 21.3743 26.0097 21.2706 26.1804 21.1998C26.3511 21.1291 26.5341 21.0926 26.7189 21.0926C26.9037 21.0926 27.0867 21.1291 27.2574 21.1998C27.4281 21.2706 27.5832 21.3743 27.7138 21.5051L33.3388 27.1301C33.4695 27.2607 33.5731 27.4158 33.6438 27.5866C33.7145 27.7573 33.7509 27.9402 33.7509 28.125C33.7509 28.3098 33.7145 28.4927 33.6438 28.6634C33.5731 28.8342 33.4695 28.9893 33.3388 29.1199C33.2082 29.2506 33.0531 29.3542 32.8823 29.4249C32.7116 29.4956 32.5287 29.532 32.3439 29.532C32.1591 29.532 31.9762 29.4956 31.8054 29.4249C31.6347 29.3542 31.4796 29.2506 31.349 29.1199ZM28.1251 7.03125C25.2521 7.03342 22.4363 7.83495 19.9928 9.34618C17.5494 10.8574 15.5746 13.0187 14.2894 15.5883C12.7593 15.3634 11.1992 15.4565 9.70665 15.8616C8.2141 16.2668 6.82111 16.9753 5.61469 17.943C4.40827 18.9107 3.41433 20.1168 2.69494 21.4858C1.97556 22.8549 1.54619 24.3576 1.43364 25.9001C1.32109 27.4425 1.52779 28.9916 2.04082 30.4506C2.55385 31.9096 3.3622 33.2472 4.41537 34.3797C5.46855 35.5123 6.74393 36.4155 8.16186 37.0331C9.5798 37.6506 11.1098 37.9691 12.6564 37.9688H19.6876C20.0606 37.9688 20.4183 37.8206 20.682 37.5569C20.9457 37.2931 21.0939 36.9355 21.0939 36.5625C21.0939 36.1895 20.9457 35.8319 20.682 35.5681C20.4183 35.3044 20.0606 35.1562 19.6876 35.1562H12.6564C10.4186 35.1562 8.27252 34.2673 6.69018 32.685C5.10784 31.1026 4.21889 28.9565 4.21889 26.7188C4.21889 24.481 5.10784 22.3349 6.69018 20.7525C8.27252 19.1702 10.4186 18.2813 12.6564 18.2812C12.8498 18.2812 13.0431 18.2813 13.2347 18.3023C12.8503 19.6684 12.6557 21.0809 12.6564 22.5C12.6564 22.873 12.8046 23.2306 13.0683 23.4944C13.332 23.7581 13.6897 23.9062 14.0626 23.9062C14.4356 23.9062 14.7933 23.7581 15.057 23.4944C15.3207 23.2306 15.4689 22.873 15.4689 22.5C15.4692 20.2183 16.0864 17.9791 17.2551 16.0194C18.4238 14.0597 20.1005 12.4524 22.1078 11.3676C24.1152 10.2828 26.3784 9.76081 28.6581 9.8569C30.9378 9.95299 33.1491 10.6636 35.0581 11.9135C36.967 13.1634 38.5025 14.9061 39.5021 16.9571C40.5018 19.0082 40.9283 21.2914 40.7367 23.565C40.545 25.8387 39.7422 28.0182 38.4134 29.873C37.0845 31.7278 35.2789 33.1889 33.1876 34.1016C32.8907 34.2303 32.6472 34.4575 32.4984 34.7449C32.3495 35.0322 32.3042 35.3621 32.3703 35.679C32.4364 35.9958 32.6098 36.2801 32.8611 36.484C33.1125 36.6879 33.4265 36.7988 33.7501 36.798C33.9439 36.7979 34.1355 36.7572 34.3126 36.6785C37.5705 35.2574 40.2395 32.7578 41.8709 29.6C43.5023 26.4423 43.9965 22.819 43.2703 19.3397C42.5442 15.8604 40.642 12.7373 37.8837 10.4957C35.1255 8.25402 31.6794 7.03063 28.1251 7.03125Z" fill="#03111C"/>
</svg>
