<svg width="45" height="45" viewBox="0 0 45 45" fill="none" xmlns="http://www.w3.org/2000/svg">
<path opacity="0.2" d="M35.1562 11.25V14.0625H30.9375C30.1916 14.0625 29.4762 14.3588 28.9488 14.8863C28.4213 15.4137 28.125 16.1291 28.125 16.875V30.9375H7.03125C6.28533 30.9375 5.56996 30.6412 5.04251 30.1137C4.51507 29.5863 4.21875 28.8709 4.21875 28.125V11.25C4.21875 10.5041 4.51507 9.78871 5.04251 9.26126C5.56996 8.73382 6.28533 8.4375 7.03125 8.4375H32.3438C33.0897 8.4375 33.805 8.73382 34.3325 9.26126C34.8599 9.78871 35.1562 10.5041 35.1562 11.25Z" fill="#03111C"/>
<path d="M39.375 12.6562H36.5625V11.25C36.5625 10.1311 36.118 9.05806 35.3269 8.26689C34.5357 7.47572 33.4626 7.03125 32.3438 7.03125H7.03125C5.91237 7.03125 4.83931 7.47572 4.04814 8.26689C3.25697 9.05806 2.8125 10.1311 2.8125 11.25V28.125C2.8125 29.2439 3.25697 30.3169 4.04814 31.1081C4.83931 31.8993 5.91237 32.3438 7.03125 32.3438H26.7188V33.75C26.7188 34.8689 27.1632 35.9419 27.9544 36.7331C28.7456 37.5243 29.8186 37.9688 30.9375 37.9688H39.375C40.4939 37.9688 41.5669 37.5243 42.3581 36.7331C43.1493 35.9419 43.5938 34.8689 43.5938 33.75V16.875C43.5937 15.7561 43.1493 14.6831 42.3581 13.8919C41.5669 13.1007 40.4939 12.6562 39.375 12.6562ZM7.03125 29.5312C6.65829 29.5312 6.3006 29.3831 6.03688 29.1194C5.77316 28.8556 5.625 28.498 5.625 28.125V11.25C5.625 10.877 5.77316 10.5194 6.03688 10.2556C6.3006 9.99191 6.65829 9.84375 7.03125 9.84375H32.3438C32.7167 9.84375 33.0744 9.99191 33.3381 10.2556C33.6018 10.5194 33.75 10.877 33.75 11.25V12.6562H30.9375C29.8186 12.6562 28.7456 13.1007 27.9544 13.8919C27.1632 14.6831 26.7188 15.7561 26.7188 16.875V29.5312H7.03125ZM40.7812 33.75C40.7812 34.123 40.6331 34.4806 40.3694 34.7444C40.1056 35.0081 39.748 35.1562 39.375 35.1562H30.9375C30.5645 35.1562 30.2069 35.0081 29.9431 34.7444C29.6794 34.4806 29.5312 34.123 29.5312 33.75V16.875C29.5312 16.502 29.6794 16.1444 29.9431 15.8806C30.2069 15.6169 30.5645 15.4688 30.9375 15.4688H39.375C39.748 15.4688 40.1056 15.6169 40.3694 15.8806C40.6331 16.1444 40.7812 16.502 40.7812 16.875V33.75ZM23.9062 36.5625C23.9062 36.9355 23.7581 37.2931 23.4944 37.5569C23.2306 37.8206 22.873 37.9688 22.5 37.9688H15.4688C15.0958 37.9688 14.7381 37.8206 14.4744 37.5569C14.2107 37.2931 14.0625 36.9355 14.0625 36.5625C14.0625 36.1895 14.2107 35.8319 14.4744 35.5681C14.7381 35.3044 15.0958 35.1562 15.4688 35.1562H22.5C22.873 35.1562 23.2306 35.3044 23.4944 35.5681C23.7581 35.8319 23.9062 36.1895 23.9062 36.5625ZM37.9688 19.6875C37.9688 20.0605 37.8206 20.4181 37.5569 20.6819C37.2931 20.9456 36.9355 21.0938 36.5625 21.0938H33.75C33.377 21.0938 33.0194 20.9456 32.7556 20.6819C32.4919 20.4181 32.3438 20.0605 32.3438 19.6875C32.3438 19.3145 32.4919 18.9569 32.7556 18.6931C33.0194 18.4294 33.377 18.2812 33.75 18.2812H36.5625C36.9355 18.2812 37.2931 18.4294 37.5569 18.6931C37.8206 18.9569 37.9688 19.3145 37.9688 19.6875Z" fill="#03111C"/>
</svg>
