<svg width="45" height="45" viewBox="0 0 45 45" fill="none" xmlns="http://www.w3.org/2000/svg">
<path opacity="0.2" d="M18.2813 28.8281C18.2813 30.0797 17.9101 31.3032 17.2148 32.3438C16.5194 33.3845 15.5311 34.1956 14.3748 34.6746C13.2185 35.1535 11.9461 35.2788 10.7186 35.0347C9.49104 34.7905 8.36347 34.1878 7.47847 33.3028C6.59346 32.4178 5.99077 31.2902 5.7466 30.0627C5.50242 28.8351 5.62774 27.5628 6.1067 26.4065C6.58566 25.2501 7.39675 24.2618 8.43741 23.5665C9.47806 22.8711 10.7015 22.5 11.9531 22.5C13.6315 22.5 15.241 23.1667 16.4278 24.3535C17.6145 25.5402 18.2813 27.1498 18.2813 28.8281ZM33.0469 22.5C31.7953 22.5 30.5718 22.8711 29.5312 23.5665C28.4905 24.2618 27.6794 25.2501 27.2005 26.4065C26.7215 27.5628 26.5962 28.8351 26.8403 30.0627C27.0845 31.2902 27.6872 32.4178 28.5722 33.3028C29.4572 34.1878 30.5848 34.7905 31.8123 35.0347C33.0399 35.2788 34.3122 35.1535 35.4685 34.6746C36.6249 34.1956 37.6132 33.3845 38.3085 32.3438C39.0039 31.3032 39.375 30.0797 39.375 28.8281C39.375 27.1498 38.7083 25.5402 37.5215 24.3535C36.3348 23.1667 34.7252 22.5 33.0469 22.5Z" fill="#03111C"/>
<path d="M35.1562 7.03125C34.7833 7.03125 34.4256 7.17941 34.1619 7.44313C33.8982 7.70685 33.75 8.06454 33.75 8.4375C33.75 8.81046 33.8982 9.16815 34.1619 9.43187C34.4256 9.69559 34.7833 9.84375 35.1562 9.84375C35.9022 9.84375 36.6175 10.1401 37.145 10.6675C37.6724 11.195 37.9688 11.9103 37.9688 12.6562V22.8656C36.9773 22.048 35.7978 21.4903 34.5368 21.2429C33.2757 20.9955 31.9729 21.0662 30.746 21.4486C29.5192 21.831 28.4069 22.5131 27.5098 23.4333C26.6127 24.3534 25.959 25.4826 25.6078 26.7187H19.3922C19.041 25.4826 18.3873 24.3534 17.4902 23.4333C16.5931 22.5131 15.4808 21.831 14.254 21.4486C13.0271 21.0662 11.7243 20.9955 10.4632 21.2429C9.2022 21.4903 8.02267 22.048 7.03125 22.8656V12.6562C7.03125 11.9103 7.32757 11.195 7.85501 10.6675C8.38246 10.1401 9.09783 9.84375 9.84375 9.84375C10.2167 9.84375 10.5744 9.69559 10.8381 9.43187C11.1018 9.16815 11.25 8.81046 11.25 8.4375C11.25 8.06454 11.1018 7.70685 10.8381 7.44313C10.5744 7.17941 10.2167 7.03125 9.84375 7.03125C8.35191 7.03125 6.92117 7.62388 5.86627 8.67877C4.81138 9.73367 4.21875 11.1644 4.21875 12.6562V28.8281C4.22253 30.8159 4.99151 32.726 6.36612 34.1619C7.74072 35.5978 9.61541 36.4493 11.6012 36.5398C13.5869 36.6302 15.5312 35.9527 17.0307 34.6477C18.5302 33.3427 19.4696 31.5105 19.6541 29.5312H25.3459C25.5304 31.5105 26.4698 33.3427 27.9693 34.6477C29.4688 35.9527 31.4131 36.6302 33.3988 36.5398C35.3846 36.4493 37.2593 35.5978 38.6339 34.1619C40.0085 32.726 40.7775 30.8159 40.7812 28.8281V12.6562C40.7812 11.1644 40.1886 9.73367 39.1337 8.67877C38.0788 7.62388 36.6481 7.03125 35.1562 7.03125ZM11.9531 33.75C10.9797 33.75 10.0281 33.4613 9.21868 32.9205C8.40928 32.3797 7.77843 31.611 7.40591 30.7116C7.03338 29.8123 6.93591 28.8227 7.12582 27.8679C7.31573 26.9132 7.7845 26.0362 8.47283 25.3478C9.16117 24.6595 10.0382 24.1907 10.9929 24.0008C11.9477 23.8109 12.9373 23.9084 13.8366 24.2809C14.736 24.6534 15.5047 25.2843 16.0455 26.0937C16.5863 26.9031 16.875 27.8547 16.875 28.8281C16.875 30.1335 16.3564 31.3854 15.4334 32.3084C14.5104 33.2314 13.2585 33.75 11.9531 33.75ZM33.0469 33.75C32.0734 33.75 31.1218 33.4613 30.3124 32.9205C29.503 32.3797 28.8722 31.611 28.4997 30.7116C28.1271 29.8123 28.0297 28.8227 28.2196 27.8679C28.4095 26.9132 28.8782 26.0362 29.5666 25.3478C30.2549 24.6595 31.1319 24.1907 32.0867 24.0008C33.0414 23.8109 34.031 23.9084 34.9304 24.2809C35.8297 24.6534 36.5984 25.2843 37.1393 26.0937C37.6801 26.9031 37.9688 27.8547 37.9688 28.8281C37.9688 30.1335 37.4502 31.3854 36.5272 32.3084C35.6041 33.2314 34.3522 33.75 33.0469 33.75Z" fill="#03111C"/>
</svg>
