<svg width="45" height="45" viewBox="0 0 45 45" fill="none" xmlns="http://www.w3.org/2000/svg">
<path opacity="0.2" d="M39.375 22.5C39.375 25.8376 38.3853 29.1002 36.5311 31.8752C34.6768 34.6503 32.0413 36.8132 28.9578 38.0905C25.8743 39.3677 22.4813 39.7019 19.2079 39.0507C15.9344 38.3996 12.9276 36.7924 10.5676 34.4324C8.20757 32.0724 6.60038 29.0656 5.94926 25.7921C5.29813 22.5187 5.63231 19.1257 6.90954 16.0422C8.18677 12.9587 10.3497 10.3232 13.1248 8.46895C15.8998 6.6147 19.1624 5.625 22.5 5.625C26.9755 5.625 31.2678 7.4029 34.4324 10.5676C37.5971 13.7322 39.375 18.0245 39.375 22.5Z" fill="#03111C"/>
<path d="M12.6565 22.5C12.6665 26.1887 11.8142 29.8287 10.1674 33.1295C10.0888 33.3006 9.97663 33.4542 9.83754 33.5812C9.69845 33.7081 9.53527 33.8059 9.35769 33.8686C9.18012 33.9312 8.99176 33.9576 8.80379 33.9462C8.61582 33.9347 8.43207 33.8856 8.26344 33.8017C8.09482 33.7179 7.94475 33.601 7.82214 33.4581C7.69953 33.3151 7.60688 33.149 7.54969 32.9696C7.4925 32.7902 7.47193 32.6011 7.4892 32.4136C7.50647 32.226 7.56122 32.0439 7.65022 31.8779C9.10218 28.9656 9.85341 25.7542 9.84397 22.5C9.84067 20.6023 10.2658 18.7284 11.0875 17.0179C11.9093 15.3074 13.1066 13.8045 14.5901 12.6211C14.8812 12.388 15.253 12.2801 15.6237 12.3211C15.9944 12.3622 16.3336 12.5488 16.5667 12.8399C16.7998 13.1311 16.9077 13.5029 16.8667 13.8736C16.8256 14.2443 16.639 14.5835 16.3479 14.8166C15.1938 15.7367 14.2624 16.9056 13.6232 18.236C12.984 19.5664 12.6536 21.024 12.6565 22.5ZM22.5002 21.0938C22.1273 21.0938 21.7696 21.2419 21.5059 21.5056C21.2421 21.7694 21.094 22.127 21.094 22.5C21.0937 27.9787 19.7026 33.3678 17.051 38.1621C16.8701 38.4885 16.8263 38.8733 16.9291 39.2319C17.032 39.5906 17.2731 39.8937 17.5994 40.0746C17.9258 40.2555 18.3106 40.2993 18.6693 40.1965C19.0279 40.0936 19.3311 39.8525 19.5119 39.5262C22.394 34.3141 23.9061 28.4558 23.9065 22.5C23.9065 22.127 23.7583 21.7694 23.4946 21.5056C23.2309 21.2419 22.8732 21.0938 22.5002 21.0938ZM22.5002 15.4688C20.6354 15.4688 18.847 16.2095 17.5284 17.5282C16.2098 18.8468 15.469 20.6352 15.469 22.5C15.469 22.873 15.6171 23.2306 15.8809 23.4944C16.1446 23.7581 16.5023 23.9062 16.8752 23.9062C17.2482 23.9062 17.6059 23.7581 17.8696 23.4944C18.1333 23.2306 18.2815 22.873 18.2815 22.5C18.2815 21.3811 18.7259 20.3081 19.5171 19.5169C20.3083 18.7257 21.3813 18.2812 22.5002 18.2812C23.6191 18.2812 24.6922 18.7257 25.4833 19.5169C26.2745 20.3081 26.719 21.3811 26.719 22.5C26.7336 28.0915 25.502 33.616 23.1137 38.6719C23.0349 38.8393 22.9898 39.0207 22.9811 39.2056C22.9723 39.3905 23.0001 39.5753 23.0628 39.7495C23.1254 39.9236 23.2218 40.0837 23.3464 40.2207C23.4709 40.3576 23.6212 40.4686 23.7887 40.5475C23.9562 40.6263 24.1375 40.6714 24.3224 40.6801C24.5073 40.6888 24.6921 40.6611 24.8663 40.5984C25.0405 40.5357 25.2006 40.4394 25.3375 40.3148C25.4744 40.1902 25.5855 40.0399 25.6643 39.8725C28.2278 34.4408 29.5488 28.5062 29.5315 22.5C29.5315 20.6352 28.7907 18.8468 27.4721 17.5282C26.1535 16.2095 24.365 15.4688 22.5002 15.4688ZM22.5002 4.21875C17.6533 4.22387 13.0064 6.15157 9.57908 9.57886C6.15179 13.0061 4.22409 17.6531 4.21897 22.5C4.22158 24.2561 3.92434 25.9997 3.34007 27.6557C3.21583 28.0074 3.2364 28.3941 3.39727 28.7307C3.55815 29.0673 3.84613 29.3261 4.19788 29.4504C4.54963 29.5746 4.93633 29.5541 5.2729 29.3932C5.60948 29.2323 5.86836 28.9443 5.99261 28.5926C6.6825 26.6355 7.03382 24.5751 7.03147 22.5C7.03147 18.3974 8.66121 14.4629 11.5622 11.5619C14.4631 8.66099 18.3977 7.03125 22.5002 7.03125C26.6028 7.03125 30.5373 8.66099 33.4383 11.5619C36.3392 14.4629 37.969 18.3974 37.969 22.5C37.9697 25.713 37.6583 28.9185 37.0391 32.0713C37.0033 32.2525 37.0035 32.439 37.0398 32.6201C37.0761 32.8012 37.1477 32.9734 37.2505 33.1269C37.3533 33.2803 37.4854 33.412 37.6391 33.5144C37.7929 33.6168 37.9653 33.6879 38.1465 33.7236C38.2363 33.741 38.3275 33.7499 38.419 33.75C38.7444 33.7497 39.0596 33.6365 39.3109 33.4297C39.5622 33.223 39.734 32.9355 39.7971 32.6162C40.452 29.284 40.7816 25.896 40.7815 22.5C40.7759 17.6532 38.848 13.0066 35.4209 9.57937C31.9937 6.15218 27.347 4.22433 22.5002 4.21875ZM16.594 26.7486C16.2293 26.6761 15.8507 26.7509 15.541 26.9568C15.2313 27.1627 15.0158 27.4829 14.9416 27.8473C14.371 30.6556 13.3494 33.353 11.9164 35.8348C11.73 36.1578 11.6795 36.5418 11.776 36.9021C11.8726 37.2624 12.1084 37.5696 12.4315 37.7561C12.7546 37.9425 13.1385 37.993 13.4988 37.8964C13.8591 37.7999 14.1663 37.5641 14.3528 37.241C15.9364 34.4967 17.0643 31.5136 17.6926 28.408C17.7296 28.2269 17.7304 28.0403 17.6952 27.8588C17.66 27.6774 17.5893 27.5047 17.4873 27.3506C17.3853 27.1964 17.2538 27.064 17.1006 26.9607C16.9473 26.8574 16.7751 26.7853 16.594 26.7486ZM22.5002 9.84375C21.9714 9.84386 21.443 9.87674 20.9182 9.94219C20.5551 9.9967 20.2277 10.1911 20.0059 10.4838C19.7842 10.7765 19.6858 11.1444 19.7317 11.5087C19.7777 11.873 19.9643 12.2049 20.2517 12.4335C20.5391 12.662 20.9045 12.7691 21.2698 12.7318C22.6551 12.5596 24.0613 12.6835 25.3951 13.0955C26.729 13.5074 27.9602 14.198 29.0071 15.1215C30.0541 16.045 30.8929 17.1803 31.4682 18.4523C32.0434 19.7243 32.3419 21.104 32.344 22.5C32.3436 24.3216 32.2309 26.1415 32.0065 27.9492C31.9818 28.1331 31.9938 28.32 32.0416 28.4992C32.0895 28.6784 32.1724 28.8463 32.2854 28.9934C32.3985 29.1404 32.5395 29.2637 32.7004 29.356C32.8613 29.4483 33.0389 29.5079 33.2229 29.5312C33.2812 29.5383 33.3399 29.5418 33.3987 29.5418C33.7407 29.5411 34.0707 29.4157 34.3269 29.1892C34.5832 28.9627 34.7481 28.6506 34.7908 28.3113C35.028 26.3869 35.1454 24.4496 35.1424 22.5105C35.1415 19.1556 33.81 15.9381 31.4401 13.5635C29.0701 11.1889 25.8551 9.8512 22.5002 9.84375ZM32.6832 32.3877C32.5043 32.3414 32.3181 32.3309 32.1351 32.3567C31.9521 32.3824 31.776 32.444 31.6168 32.5379C31.4577 32.6317 31.3185 32.7561 31.2075 32.9037C31.0964 33.0514 31.0155 33.2195 30.9694 33.3984C30.7127 34.3986 30.4157 35.4023 30.0905 36.3867C29.9715 36.7394 29.9972 37.1249 30.1619 37.4587C30.3267 37.7925 30.617 38.0473 30.9694 38.1674C31.1137 38.2165 31.2651 38.2414 31.4176 38.2412C31.7122 38.241 31.9994 38.1482 32.2385 37.976C32.4775 37.8038 32.6565 37.5608 32.75 37.2814C33.1016 36.2408 33.4162 35.1721 33.6905 34.1086C33.7376 33.9297 33.749 33.7432 33.7239 33.5599C33.6989 33.3766 33.6379 33.2001 33.5445 33.0404C33.4511 32.8807 33.3271 32.741 33.1796 32.6293C33.0321 32.5176 32.864 32.4361 32.685 32.3895L32.6832 32.3877Z" fill="#03111C"/>
</svg>
