<svg width="45" height="45" viewBox="0 0 45 45" fill="none" xmlns="http://www.w3.org/2000/svg">
<path opacity="0.2" d="M14.0625 30.9375C14.0625 32.05 13.7326 33.1376 13.1145 34.0626C12.4964 34.9876 11.6179 35.7086 10.5901 36.1343C9.56226 36.5601 8.43126 36.6715 7.34012 36.4544C6.24898 36.2374 5.2467 35.7016 4.46003 34.915C3.67336 34.1283 3.13763 33.126 2.92059 32.0349C2.70354 30.9437 2.81494 29.8127 3.24068 28.7849C3.66642 27.7571 4.38739 26.8786 5.31242 26.2605C6.23745 25.6424 7.32498 25.3125 8.4375 25.3125C9.92934 25.3125 11.3601 25.9051 12.415 26.96C13.4699 28.0149 14.0625 29.4457 14.0625 30.9375Z" fill="#03111C"/>
<path d="M43.1826 13.0676L37.5576 7.44263C37.2937 7.17876 36.9359 7.03052 36.5627 7.03052C36.1895 7.03052 35.8316 7.17876 35.5678 7.44263C35.3039 7.7065 35.1557 8.06438 35.1557 8.43755C35.1557 8.81072 35.3039 9.1686 35.5678 9.43247L38.7934 12.6563H36.5627C27.8914 12.6563 25.8312 17.5993 24.0154 21.9586C22.3666 25.9155 21.0412 29.0936 15.3178 29.4891C14.9586 27.7841 13.9791 26.2731 12.5693 25.2492C11.1594 24.2253 9.41957 23.7614 7.68708 23.9473C5.95458 24.1333 4.35284 24.9559 3.19241 26.2557C2.03197 27.5556 1.3955 29.24 1.40639 30.9824C1.41728 32.7248 2.07475 34.4011 3.25135 35.6863C4.42794 36.9715 6.03983 37.774 7.77452 37.9383C9.50921 38.1026 11.2431 37.617 12.6401 36.5755C14.037 35.5341 14.9975 34.011 15.3353 32.3016C22.9396 31.8358 24.8873 27.1776 26.61 23.0397C28.373 18.8086 29.7652 15.4688 36.5627 15.4688H38.7934L35.5678 18.6926C35.3039 18.9565 35.1557 19.3144 35.1557 19.6876C35.1557 20.0607 35.3039 20.4186 35.5678 20.6825C35.8316 20.9463 36.1895 21.0946 36.5627 21.0946C36.9359 21.0946 37.2937 20.9463 37.5576 20.6825L43.1826 15.0575C43.3134 14.9269 43.4171 14.7718 43.4878 14.6011C43.5586 14.4303 43.595 14.2474 43.595 14.0626C43.595 13.8777 43.5586 13.6948 43.4878 13.524C43.4171 13.3533 43.3134 13.1982 43.1826 13.0676ZM8.43768 35.1563C7.60329 35.1563 6.78764 34.9089 6.09387 34.4453C5.4001 33.9818 4.85937 33.3229 4.54007 32.552C4.22076 31.7811 4.13721 30.9329 4.3 30.1145C4.46278 29.2962 4.86457 28.5444 5.45458 27.9544C6.04458 27.3644 6.79629 26.9626 7.61465 26.7999C8.433 26.6371 9.28125 26.7206 10.0521 27.0399C10.823 27.3592 11.4819 27.9 11.9454 28.5937C12.409 29.2875 12.6564 30.1032 12.6564 30.9376C12.6564 32.0564 12.212 33.1295 11.4208 33.9207C10.6296 34.7118 9.55657 35.1563 8.43768 35.1563Z" fill="#03111C"/>
</svg>
