<svg width="45" height="45" viewBox="0 0 45 45" fill="none" xmlns="http://www.w3.org/2000/svg">
<path opacity="0.2" d="M36.5625 15.4688V19.6875H12.2643C11.9691 19.6875 11.6814 19.7803 11.442 19.9529C11.2025 20.1255 11.0234 20.369 10.9301 20.649L5.625 36.5625V11.25C5.625 10.877 5.77316 10.5194 6.03688 10.2556C6.3006 9.99191 6.65829 9.84375 7.03125 9.84375H16.4057C16.7099 9.84375 17.006 9.94244 17.2494 10.125L22.5 14.0625H35.1562C35.5292 14.0625 35.8869 14.2107 36.1506 14.4744C36.4143 14.7381 36.5625 15.0958 36.5625 15.4688Z" fill="#03111C"/>
<path d="M43.0664 19.4484C42.8054 19.0866 42.462 18.792 42.0647 18.5891C41.6674 18.3861 41.2274 18.2806 40.7812 18.2812H37.9688V15.4688C37.9688 14.7228 37.6724 14.0075 37.145 13.48C36.6175 12.9526 35.9022 12.6562 35.1562 12.6562H22.9693L18.0949 9C17.6073 8.63645 17.0157 8.43926 16.4074 8.4375H7.03125C6.28533 8.4375 5.56996 8.73382 5.04251 9.26126C4.51507 9.78871 4.21875 10.5041 4.21875 11.25V36.5625C4.21875 36.9355 4.36691 37.2931 4.63063 37.5569C4.89435 37.8206 5.25204 37.9688 5.625 37.9688H37.1074C37.4026 37.9688 37.6903 37.8759 37.9297 37.7033C38.1692 37.5308 38.3483 37.2872 38.4416 37.0072L43.4496 21.9832C43.5904 21.5605 43.6291 21.1104 43.5625 20.6698C43.4959 20.2292 43.3259 19.8107 43.0664 19.4484ZM16.4074 11.25L21.6562 15.1875C21.8997 15.3701 22.1957 15.4688 22.5 15.4688H35.1562V18.2812H12.2643C11.6739 18.2812 11.0986 18.4669 10.6197 18.8121C10.1408 19.1572 9.78259 19.6443 9.5959 20.2043L7.03125 27.8965V11.25H16.4074ZM36.0949 35.1562H7.57617L12.2643 21.0938H40.7812L36.0949 35.1562Z" fill="#03111C"/>
</svg>
