<svg width="45" height="45" viewBox="0 0 45 45" fill="none" xmlns="http://www.w3.org/2000/svg">
<path opacity="0.2" d="M26.7188 22.5C26.7188 23.3344 26.4713 24.15 26.0078 24.8438C25.5442 25.5376 24.8853 26.0783 24.1144 26.3976C23.3436 26.7169 22.4953 26.8005 21.677 26.6377C20.8586 26.4749 20.1069 26.0731 19.5169 25.4831C18.9269 24.8931 18.5251 24.1414 18.3623 23.323C18.1995 22.5047 18.2831 21.6564 18.6024 20.8856C18.9217 20.1147 19.4624 19.4558 20.1562 18.9922C20.85 18.5287 21.6656 18.2813 22.5 18.2812C23.6189 18.2813 24.6919 18.7257 25.4831 19.5169C26.2743 20.3081 26.7188 21.3811 26.7188 22.5Z" fill="#03111C"/>
<path d="M35.1565 26.7187C33.9135 26.7181 32.7057 27.1312 31.7235 27.893L27.6611 24.7289C27.9678 24.0259 28.1258 23.267 28.1252 22.5C28.1252 22.3699 28.1252 22.2398 28.1111 22.1115L30.4367 21.3363C31.1725 22.471 32.2924 23.3027 33.5914 23.679C34.8904 24.0553 36.2815 23.951 37.5098 23.3851C38.7382 22.8193 39.7215 21.8299 40.2798 20.5981C40.8381 19.3664 40.9339 17.9747 40.5497 16.678C40.1654 15.3813 39.3269 14.2665 38.1877 13.5377C37.0485 12.8089 35.6848 12.515 34.3465 12.7097C33.0082 12.9045 31.7849 13.5748 30.9006 14.5981C30.0163 15.6213 29.5302 16.9288 29.5315 18.2812C29.5315 18.4113 29.5315 18.5414 29.5455 18.6697L27.2199 19.4449C26.7101 18.6568 26.0112 18.0087 25.1868 17.5598C24.3625 17.111 23.4389 16.8755 22.5002 16.875C22.1898 16.8756 21.88 16.9015 21.5738 16.9523L20.3715 14.2383C21.4097 13.4087 22.1207 12.2384 22.3784 10.9348C22.6362 9.63111 22.424 8.2783 21.7796 7.1161C21.1352 5.9539 20.1002 5.05738 18.8579 4.58543C17.6156 4.11348 16.2464 4.0966 14.9929 4.53776C13.7393 4.97892 12.6825 5.84964 12.0096 6.99559C11.3367 8.14154 11.0913 9.48872 11.3168 10.7983C11.5424 12.108 12.2242 13.2954 13.2417 14.1503C14.2591 15.0052 15.5463 15.4723 16.8752 15.4687C17.1856 15.4681 17.4954 15.4422 17.8016 15.3914L19.0039 18.0984C17.9843 18.9054 17.2766 20.0415 17.0019 21.3124C16.7271 22.5834 16.9023 23.9103 17.4975 25.0664L12.9781 29.0812C11.8408 28.3145 10.4629 27.9889 9.10263 28.1654C7.74239 28.3419 6.49323 29.0085 5.58929 30.0402C4.68535 31.0718 4.18869 32.3977 4.1924 33.7694C4.19612 35.141 4.69996 36.4642 5.60948 37.4909C6.51899 38.5177 7.77175 39.1775 9.13293 39.3466C10.4941 39.5158 11.8702 39.1827 13.0034 38.4098C14.1366 37.6369 14.949 36.4773 15.2883 35.1483C15.6276 33.8193 15.4706 32.4121 14.8467 31.1906L19.366 27.1758C20.3445 27.8346 21.5059 28.1682 22.6849 28.1291C23.8639 28.0899 25.0005 27.6801 25.9332 26.9578L29.9955 30.1219C29.6898 30.8227 29.5318 31.5791 29.5315 32.3437C29.5315 33.4563 29.8614 34.5438 30.4794 35.4688C31.0975 36.3938 31.976 37.1148 33.0039 37.5406C34.0317 37.9663 35.1627 38.0777 36.2538 37.8607C37.345 37.6436 38.3473 37.1079 39.1339 36.3212C39.9206 35.5345 40.4563 34.5323 40.6734 33.4411C40.8904 32.35 40.779 31.219 40.3533 30.1911C39.9275 29.1633 39.2066 28.2848 38.2815 27.6667C37.3565 27.0486 36.269 26.7187 35.1565 26.7187ZM35.1565 15.4687C35.7127 15.4687 36.2565 15.6337 36.719 15.9427C37.1815 16.2518 37.542 16.691 37.7549 17.2049C37.9677 17.7189 38.0234 18.2844 37.9149 18.8299C37.8064 19.3755 37.5385 19.8766 37.1452 20.27C36.7519 20.6633 36.2507 20.9312 35.7051 21.0397C35.1596 21.1482 34.5941 21.0925 34.0802 20.8796C33.5662 20.6668 33.127 20.3063 32.8179 19.8438C32.5089 19.3813 32.344 18.8375 32.344 18.2812C32.344 17.5353 32.6403 16.8199 33.1677 16.2925C33.6952 15.765 34.4105 15.4687 35.1565 15.4687ZM14.0627 9.84373C14.0627 9.28747 14.2277 8.7437 14.5367 8.28119C14.8457 7.81868 15.285 7.45819 15.7989 7.24532C16.3128 7.03245 16.8783 6.97675 17.4239 7.08527C17.9695 7.19379 18.4706 7.46166 18.8639 7.85499C19.2573 8.24833 19.5251 8.74947 19.6337 9.29504C19.7422 9.84061 19.6865 10.4061 19.4736 10.92C19.2607 11.4339 18.9003 11.8732 18.4377 12.1822C17.9752 12.4913 17.4315 12.6562 16.8752 12.6562C16.1293 12.6562 15.4139 12.3599 14.8865 11.8325C14.359 11.305 14.0627 10.5897 14.0627 9.84373ZM9.84396 36.5625C9.2877 36.5625 8.74393 36.3975 8.28141 36.0885C7.8189 35.7795 7.45842 35.3402 7.24554 34.8263C7.03267 34.3124 6.97698 33.7469 7.0855 33.2013C7.19402 32.6557 7.46188 32.1546 7.85522 31.7612C8.24855 31.3679 8.74969 31.1 9.29526 30.9915C9.84084 30.883 10.4063 30.9387 10.9203 31.1516C11.4342 31.3644 11.8734 31.7249 12.1825 32.1874C12.4915 32.65 12.6565 33.1937 12.6565 33.75C12.6565 34.4959 12.3601 35.2113 11.8327 35.7387C11.3052 36.2662 10.5899 36.5625 9.84396 36.5625ZM19.6877 22.5C19.6877 21.9437 19.8527 21.4 20.1617 20.9374C20.4707 20.4749 20.91 20.1144 21.4239 19.9016C21.9378 19.6887 22.5033 19.633 23.0489 19.7415C23.5945 19.85 24.0956 20.1179 24.4889 20.5112C24.8823 20.9046 25.1501 21.4057 25.2587 21.9513C25.3672 22.4969 25.3115 23.0624 25.0986 23.5763C24.8857 24.0902 24.5253 24.5294 24.0627 24.8385C23.6002 25.1475 23.0565 25.3125 22.5002 25.3125C21.7543 25.3125 21.0389 25.0162 20.5115 24.4887C19.984 23.9613 19.6877 23.2459 19.6877 22.5ZM35.1565 35.1562C34.6002 35.1562 34.0564 34.9913 33.5939 34.6822C33.1314 34.3732 32.7709 33.9339 32.558 33.42C32.3452 32.9061 32.2895 32.3406 32.398 31.795C32.5065 31.2495 32.7744 30.7483 33.1677 30.355C33.5611 29.9617 34.0622 29.6938 34.6078 29.5853C35.1533 29.4768 35.7188 29.5325 36.2328 29.7453C36.7467 29.9582 37.1859 30.3187 37.495 30.7812C37.804 31.2437 37.969 31.7875 37.969 32.3437C37.969 33.0897 37.6726 33.805 37.1452 34.3325C36.6177 34.8599 35.9024 35.1562 35.1565 35.1562Z" fill="#03111C"/>
</svg>
