<svg width="45" height="46" viewBox="0 0 45 46" fill="none" xmlns="http://www.w3.org/2000/svg">
<path opacity="0.2" d="M34.9805 33.0047C35.465 30.1144 34.9267 27.1456 33.4582 24.6094L29.9075 18.457C29.4846 17.7613 28.8097 17.2553 28.0233 17.0444C27.2369 16.8335 26.3994 16.9339 25.6851 17.3246C24.9708 17.7154 24.4347 18.3665 24.1881 19.1425C23.9416 19.9185 24.0037 20.7596 24.3616 21.491L20.1639 14.2383C19.9604 13.8705 19.6856 13.5469 19.3556 13.2865C19.0256 13.0261 18.647 12.834 18.242 12.7216C17.8369 12.6091 17.4135 12.5785 16.9965 12.6315C16.5795 12.6845 16.1772 12.8201 15.8132 13.0303C15.4492 13.2405 15.1307 13.5212 14.8763 13.8559C14.622 14.1906 14.4369 14.5726 14.3318 14.9796C14.2268 15.3866 14.2039 15.8105 14.2645 16.2265C14.3251 16.6425 14.468 17.0422 14.6848 17.4023L13.6776 15.6445L11.4434 11.7773C11.2356 11.4175 11.1008 11.0202 11.0466 10.6082C10.9924 10.1962 11.0198 9.77756 11.1274 9.37619C11.235 8.97481 11.4205 8.59855 11.6735 8.26889C11.9265 7.93923 12.2419 7.66262 12.6018 7.45487C12.9617 7.24711 13.359 7.11228 13.7709 7.05805C14.1829 7.00383 14.6016 7.03129 15.0029 7.13886C15.4043 7.24642 15.7806 7.43199 16.1102 7.68497C16.4399 7.93795 16.7165 8.25339 16.9243 8.61327L17.9297 10.3711C17.7129 10.0109 17.57 9.61122 17.5094 9.19524C17.4488 8.77927 17.4717 8.35538 17.5768 7.94836C17.6818 7.54133 17.8669 7.15931 18.1213 6.82462C18.3756 6.48994 18.6941 6.20929 19.0581 5.99907C19.4222 5.78885 19.8244 5.65328 20.2414 5.60027C20.6584 5.54726 21.0818 5.57788 21.4869 5.69034C21.8919 5.8028 22.2705 5.99484 22.6005 6.25525C22.9305 6.51566 23.2053 6.83921 23.4088 7.20702L27.668 14.5898C27.2484 13.8626 27.1349 12.9984 27.3525 12.1874C27.5701 11.3765 28.1009 10.6852 28.8282 10.2656C29.5554 9.84603 30.4196 9.73254 31.2306 9.95011C32.0415 10.1677 32.7328 10.6985 33.1524 11.4258L36.8631 17.8541C38.2414 20.2401 38.8033 23.0108 38.4635 25.7452C38.1237 28.4797 36.9008 31.0285 34.9805 33.0047Z" fill="#03111C"/>
<path d="M28.1639 4.21875V1.40625C28.1639 1.03329 28.3121 0.675604 28.5758 0.411881C28.8395 0.148158 29.1972 0 29.5702 0C29.9431 0 30.3008 0.148158 30.5645 0.411881C30.8282 0.675604 30.9764 1.03329 30.9764 1.40625V4.21875C30.9764 4.59171 30.8282 4.9494 30.5645 5.21312C30.3008 5.47684 29.9431 5.625 29.5702 5.625C29.1972 5.625 28.8395 5.47684 28.5758 5.21312C28.3121 4.9494 28.1639 4.59171 28.1639 4.21875ZM34.4709 7.20703C34.6914 7.34245 34.9452 7.41367 35.2039 7.41269C35.4453 7.41308 35.6827 7.35135 35.8932 7.23344C36.1038 7.11553 36.2805 6.94541 36.4063 6.73945L37.8125 4.43496C37.9087 4.27707 37.9728 4.10178 38.0012 3.91911C38.0296 3.73645 38.0217 3.54997 37.9781 3.37034C37.9344 3.19071 37.8558 3.02143 37.7467 2.87218C37.6376 2.72294 37.5002 2.59663 37.3423 2.50049C37.1844 2.40434 37.0091 2.34024 36.8265 2.31184C36.6438 2.28344 36.4573 2.29129 36.2777 2.33495C36.0981 2.37862 35.9288 2.45723 35.7795 2.56632C35.6303 2.6754 35.504 2.81281 35.4078 2.9707L34.0016 5.27344C33.9054 5.43119 33.8412 5.60636 33.8127 5.78894C33.7842 5.97152 33.7919 6.15793 33.8355 6.33751C33.8791 6.51708 33.9577 6.68631 34.0667 6.83551C34.1757 6.98471 34.3131 7.11095 34.4709 7.20703ZM42.8223 9.42012C42.7657 9.24412 42.6749 9.08102 42.5551 8.94015C42.4354 8.79928 42.289 8.68341 42.1245 8.59916C41.9599 8.51492 41.7803 8.46395 41.596 8.44918C41.4117 8.43441 41.2263 8.45613 41.0504 8.51309L38.4032 9.36562C38.0833 9.46787 37.8107 9.68118 37.6344 9.96697C37.4582 10.2528 37.39 10.5922 37.4423 10.9239C37.4945 11.2555 37.6637 11.5576 37.9192 11.7754C38.1748 11.9932 38.4998 12.1123 38.8356 12.1113C38.9824 12.1108 39.1282 12.0876 39.268 12.0428L41.9135 11.1902C42.0903 11.1338 42.2541 11.043 42.3956 10.9229C42.5371 10.8029 42.6534 10.6561 42.7379 10.4909C42.8224 10.3257 42.8733 10.1454 42.8878 9.96041C42.9023 9.77543 42.88 9.58942 42.8223 9.41309V9.42012ZM38.1448 17.1527C39.6341 19.7421 40.2626 22.7376 39.9397 25.7073C39.6168 28.6769 38.3593 31.4673 36.3483 33.6762C36.2885 33.9803 36.2217 34.2844 36.1391 34.5867C35.4141 37.2756 33.9087 39.6893 31.8129 41.5233C29.7171 43.3572 27.125 44.5291 24.3637 44.8909C21.6024 45.2528 18.7959 44.7884 16.2983 43.5564C13.8008 42.3244 11.7242 40.38 10.3309 37.9688L4.13109 27.2461C3.75453 26.5937 3.54505 25.8583 3.52131 25.1054C3.49757 24.3525 3.6603 23.6054 3.99502 22.9306C4.32974 22.2557 4.82607 21.6741 5.43986 21.2374C6.05364 20.8007 6.76585 20.5225 7.51312 20.4275L6.98578 19.5135C6.6097 18.8616 6.40041 18.127 6.3765 17.3748C6.35259 16.6226 6.51479 15.8762 6.8487 15.2017C7.18261 14.5273 7.6779 13.9458 8.29058 13.5087C8.90326 13.0717 9.61438 12.7928 10.3608 12.6967L10.2377 12.4805C9.71642 11.5827 9.5163 10.5342 9.67031 9.5075C9.82432 8.48083 10.3233 7.53718 11.0851 6.83187C11.8468 6.12657 12.826 5.70163 13.8615 5.627C14.897 5.55237 15.927 5.83251 16.7821 6.42129C17.1947 5.74164 17.7772 5.1811 18.4721 4.79479C19.1671 4.40849 19.9507 4.20974 20.7457 4.21807C21.5408 4.22641 22.32 4.44155 23.0067 4.84234C23.6935 5.24312 24.264 5.81575 24.6623 6.50391L26.8174 10.2305C27.2758 9.63267 27.8744 9.15709 28.5604 8.84579C29.2463 8.5345 29.9984 8.39711 30.7502 8.44578C31.5019 8.49444 32.23 8.72767 32.8701 9.12481C33.5102 9.52194 34.0425 10.0708 34.42 10.7227L38.1448 17.1527ZM19.1727 9.66797L23.5672 17.2564C23.9337 16.7768 24.3917 16.3745 24.9145 16.0728C25.4374 15.7711 26.0148 15.5759 26.6135 15.4986L22.2225 7.91016C21.9894 7.50573 21.6052 7.21046 21.1544 7.08931C20.7036 6.96817 20.2231 7.03106 19.8187 7.26416C19.4143 7.49726 19.119 7.88147 18.9978 8.33227C18.8767 8.78308 18.9396 9.26354 19.1727 9.66797ZM12.6776 11.0742L13.8131 13.0377C14.1798 12.5586 14.6375 12.1566 15.16 11.855C15.6825 11.5533 16.2594 11.3579 16.8577 11.2799L15.7239 9.31641C15.6084 9.11638 15.4548 8.94105 15.2716 8.80043C15.0884 8.6598 14.8793 8.55663 14.6563 8.49681C14.4332 8.43698 14.2006 8.42168 13.9716 8.45177C13.7426 8.48186 13.5218 8.55675 13.3218 8.67217C13.1218 8.78759 12.9465 8.94127 12.8058 9.12445C12.6652 9.30763 12.562 9.51672 12.5022 9.73977C12.4424 9.96282 12.4271 10.1955 12.4572 10.4244C12.4873 10.6534 12.5622 10.8742 12.6776 11.0742ZM32.2842 25.3125L28.7299 19.1602C28.5143 18.7466 28.1432 18.4357 27.6984 18.2958C27.2535 18.1558 26.7713 18.1983 26.3578 18.414C25.9442 18.6296 25.6333 19.0006 25.4934 19.4455C25.3534 19.8904 25.3959 20.3726 25.6116 20.7861L27.8264 24.6094C28.0129 24.9327 28.0633 25.3168 27.9665 25.6773C27.8698 26.0378 27.6338 26.3451 27.3105 26.5315C26.9872 26.718 26.603 26.7684 26.2426 26.6717C25.8821 26.5749 25.5748 26.3389 25.3883 26.0156L18.9723 14.9414C18.7392 14.537 18.355 14.2417 17.9042 14.1206C17.4534 13.9994 16.9729 14.0623 16.5685 14.2954C16.1641 14.5285 15.8688 14.9127 15.7477 15.3635C15.6265 15.8143 15.6894 16.2948 15.9225 16.6992L20.5016 24.6094C20.6881 24.9327 20.7385 25.3168 20.6417 25.6773C20.545 26.0378 20.309 26.3451 19.9857 26.5315C19.6624 26.718 19.2782 26.7684 18.9177 26.6717C18.5573 26.5749 18.25 26.3389 18.0635 26.0156L12.4807 16.3477C12.2476 15.9437 11.8636 15.6489 11.4131 15.5281C10.9626 15.4072 10.4826 15.4703 10.0787 15.7034C9.67469 15.9365 9.37987 16.3205 9.25905 16.771C9.13823 17.2215 9.20131 17.7015 9.43441 18.1055L15.6254 28.8281C15.8119 29.1519 15.8621 29.5365 15.765 29.8973C15.668 30.2581 15.4315 30.5656 15.1078 30.7521C14.784 30.9385 14.3994 30.9888 14.0386 30.8917C13.6778 30.7946 13.3703 30.5582 13.1838 30.2344L9.61898 24.082C9.38588 23.6778 9.00176 23.3828 8.55113 23.2618C8.10049 23.1408 7.62025 23.2038 7.21605 23.4369C6.81186 23.67 6.51682 24.0541 6.39583 24.5048C6.27485 24.9554 6.33784 25.4356 6.57094 25.8398L12.7707 36.5625C13.886 38.4905 15.5475 40.0449 17.5455 41.0294C19.5434 42.0139 21.7883 42.3843 23.9966 42.0939C26.205 41.8036 28.2778 40.8654 29.9533 39.3978C31.6289 37.9303 32.8321 35.9992 33.411 33.8484C33.7975 32.4219 33.8969 30.9328 33.7035 29.4675C33.51 28.0022 33.0276 26.5899 32.2842 25.3125ZM35.6961 18.559L31.9801 12.1289C31.8647 11.9283 31.7109 11.7524 31.5275 11.6112C31.3441 11.4701 31.1347 11.3664 30.9112 11.3062C30.4599 11.1846 29.9788 11.2472 29.5737 11.4803C29.3731 11.5957 29.1972 11.7495 29.056 11.9329C28.9148 12.1163 28.8112 12.3257 28.751 12.5492C28.6293 13.0005 28.6919 13.4816 28.925 13.8867L34.7258 23.915C35.5299 25.3016 36.0917 26.815 36.387 28.3904C37.0225 26.8061 37.2906 25.0982 37.1709 23.3953C37.0513 21.6925 36.547 20.0389 35.6961 18.559Z" fill="#03111C"/>
</svg>
