<svg width="45" height="45" viewBox="0 0 45 45" fill="none" xmlns="http://www.w3.org/2000/svg">
<path opacity="0.2" d="M38.208 23.4422L22.5002 39.3751L6.79237 23.4422C5.14388 21.7938 4.21777 19.5579 4.21777 17.2266C4.21777 14.8953 5.14388 12.6595 6.79237 11.011C8.44086 9.36251 10.6767 8.4364 13.008 8.4364C15.3393 8.4364 17.5751 9.36251 19.2236 11.011L22.5002 14.0626L25.7767 11.011C26.593 10.1947 27.562 9.54727 28.6285 9.10552C29.695 8.66377 30.838 8.4364 31.9924 8.4364C33.1467 8.4364 34.2898 8.66377 35.3562 9.10552C36.4227 9.54727 37.3918 10.1947 38.208 11.011C39.0242 11.8272 39.6717 12.7963 40.1135 13.8628C40.5552 14.9292 40.7826 16.0723 40.7826 17.2266C40.7826 18.381 40.5552 19.524 40.1135 20.5905C39.6717 21.657 39.0242 22.626 38.208 23.4422Z" fill="#03111C"/>
<path d="M39.1994 10.0195C37.2889 8.11375 34.7015 7.04206 32.003 7.03877C29.3045 7.03547 26.7146 8.10084 24.7994 10.0019L22.5002 12.1376L20.1992 9.99486C18.2845 8.08554 15.6898 7.01502 12.9858 7.01881C10.2818 7.0226 7.69008 8.10039 5.78075 10.0151C3.87142 11.9298 2.80091 14.5245 2.8047 17.2285C2.80849 19.9325 3.88628 22.5242 5.80097 24.4335L21.507 40.3699C21.6379 40.5027 21.7938 40.6082 21.9659 40.6803C22.1379 40.7523 22.3225 40.7894 22.509 40.7894C22.6955 40.7894 22.8801 40.7523 23.0521 40.6803C23.2241 40.6082 23.3801 40.5027 23.5109 40.3699L39.1994 24.4335C41.1101 22.5217 42.1834 19.9294 42.1834 17.2265C42.1834 14.5236 41.1101 11.9313 39.1994 10.0195ZM37.2043 22.4578L22.5002 37.371L7.78729 22.4437C6.40268 21.0591 5.62481 19.1811 5.62481 17.223C5.62481 15.2648 6.40268 13.3869 7.78729 12.0023C9.17191 10.6177 11.0499 9.8398 13.008 9.8398C14.9661 9.8398 16.8441 10.6177 18.2287 12.0023L18.2639 12.0374L21.5422 15.0872C21.8024 15.3294 22.1447 15.464 22.5002 15.464C22.8557 15.464 23.198 15.3294 23.4582 15.0872L26.7365 12.0374L26.7717 12.0023C28.1572 10.6186 30.0357 9.84199 31.9938 9.84331C33.952 9.84463 35.8294 10.6238 37.2131 12.0093C38.5968 13.3949 39.3734 15.2733 39.372 17.2315C39.3707 19.1896 38.5916 21.067 37.206 22.4507L37.2043 22.4578Z" fill="#03111C"/>
</svg>
