<svg width="45" height="45" viewBox="0 0 45 45" fill="none" xmlns="http://www.w3.org/2000/svg">
<path opacity="0.2" d="M36.5627 18.2813C36.5646 20.412 36.0814 22.5152 35.1498 24.4315C34.2181 26.3478 32.8625 28.0268 31.1856 29.3414C30.6735 29.7383 30.2584 30.2466 29.9718 30.8276C29.6852 31.4087 29.5346 32.0474 29.5315 32.6953V33.75C29.5315 34.123 29.3833 34.4807 29.1196 34.7444C28.8559 35.0081 28.4982 35.1563 28.1252 35.1563H16.8752C16.5023 35.1563 16.1446 35.0081 15.8808 34.7444C15.6171 34.4807 15.469 34.123 15.469 33.75V32.6953C15.4683 32.051 15.3207 31.4153 15.0374 30.8365C14.7542 30.2578 14.3427 29.7513 13.8342 29.3555C12.1625 28.0495 10.8084 26.3818 9.87375 24.4774C8.93909 22.5731 8.44811 20.4817 8.43772 18.3604C8.39553 10.7385 14.5408 4.39454 22.161 4.21875C24.036 4.1735 25.9012 4.50381 27.6467 5.19023C29.3922 5.87665 30.9827 6.90531 32.3247 8.21567C33.6667 9.52603 34.7329 11.0916 35.4608 12.8202C36.1886 14.5489 36.5633 16.4056 36.5627 18.2813Z" fill="#03111C"/>
<path d="M30.9377 40.7812C30.9377 41.1542 30.7896 41.5119 30.5259 41.7756C30.2621 42.0393 29.9044 42.1875 29.5315 42.1875H15.469C15.096 42.1875 14.7383 42.0393 14.4746 41.7756C14.2109 41.5119 14.0627 41.1542 14.0627 40.7812C14.0627 40.4083 14.2109 40.0506 14.4746 39.7869C14.7383 39.5231 15.096 39.375 15.469 39.375H29.5315C29.9044 39.375 30.2621 39.5231 30.5259 39.7869C30.7896 40.0506 30.9377 40.4083 30.9377 40.7812ZM37.969 18.2812C37.975 20.6255 37.4455 22.9402 36.4206 25.0486C35.3958 27.1571 33.9029 29.0035 32.0557 30.447C31.7103 30.7118 31.43 31.052 31.2363 31.4417C31.0425 31.8313 30.9404 32.2601 30.9377 32.6953V33.75C30.9377 34.4959 30.6414 35.2113 30.114 35.7387C29.5865 36.2662 28.8712 36.5625 28.1252 36.5625H16.8752C16.1293 36.5625 15.4139 36.2662 14.8865 35.7387C14.359 35.2113 14.0627 34.4959 14.0627 33.75V32.6953C14.0624 32.2653 13.9636 31.8411 13.7737 31.4554C13.5839 31.0696 13.3081 30.7324 12.9676 30.4699C11.1251 29.0349 9.63312 27.1996 8.60468 25.1028C7.57624 23.006 7.03827 20.7028 7.03148 18.3674C6.98578 9.98962 13.7569 3.01286 22.1276 2.81247C24.1901 2.76277 26.2417 3.12616 28.1617 3.88125C30.0817 4.63635 31.8312 5.76789 33.3073 7.20927C34.7834 8.65066 35.9563 10.3728 36.7569 12.2742C37.5575 14.1757 37.9696 16.2181 37.969 18.2812ZM35.1565 18.2812C35.157 16.5931 34.8198 14.922 34.1647 13.3662C33.5096 11.8104 32.5499 10.4013 31.3421 9.22201C30.1342 8.04268 28.7027 7.11689 27.1317 6.49915C25.5607 5.8814 23.882 5.58418 22.1944 5.62497C15.3389 5.78669 9.80707 11.4943 9.84398 18.3498C9.8504 20.2598 10.2912 22.1433 11.1329 23.8579C11.9746 25.5724 13.1953 27.0731 14.7026 28.2463C15.3801 28.773 15.9281 29.4477 16.3047 30.2189C16.6813 30.99 16.8765 31.8371 16.8752 32.6953V33.75H28.1252V32.6953C28.1272 31.8347 28.3257 30.9858 28.7056 30.2136C29.0854 29.4413 29.6367 28.766 30.3172 28.2392C31.8291 27.0577 33.051 25.5463 33.8897 23.8205C34.7284 22.0947 35.1617 20.2 35.1565 18.2812ZM32.3246 16.6394C31.96 14.6026 30.9801 12.7265 29.5168 11.2635C28.0535 9.80054 26.1771 8.82102 24.1403 8.45681C23.9581 8.42611 23.7717 8.43158 23.5917 8.47291C23.4117 8.51425 23.2416 8.59064 23.0911 8.69771C22.9406 8.80479 22.8127 8.94046 22.7146 9.09698C22.6165 9.2535 22.5503 9.4278 22.5196 9.60993C22.4889 9.79207 22.4943 9.97846 22.5357 10.1585C22.577 10.3385 22.6534 10.5086 22.7605 10.6591C22.8675 10.8096 23.0032 10.9375 23.1597 11.0356C23.3163 11.1337 23.4906 11.1999 23.6727 11.2306C26.5854 11.7211 29.0569 14.1926 29.5508 17.1105C29.6065 17.438 29.7763 17.7353 30.0301 17.9496C30.284 18.1639 30.6055 18.2813 30.9377 18.2812C31.0172 18.2807 31.0965 18.2743 31.175 18.2619C31.5426 18.1991 31.8702 17.993 32.0858 17.6887C32.3014 17.3844 32.3873 17.007 32.3246 16.6394Z" fill="#03111C"/>
</svg>
