<svg width="45" height="45" viewBox="0 0 45 45" fill="none" xmlns="http://www.w3.org/2000/svg">
<path opacity="0.2" d="M10.0195 32.168C10.6081 32.7586 11.0084 33.5103 11.17 34.3282C11.3316 35.1462 11.2472 35.9937 10.9275 36.7637C10.6077 37.5337 10.067 38.1918 9.37354 38.6547C8.68009 39.1176 7.86502 39.3646 7.03125 39.3646C6.19749 39.3646 5.38241 39.1176 4.68896 38.6547C3.99551 38.1918 3.45478 37.5337 3.13504 36.7637C2.8153 35.9937 2.7309 35.1462 2.8925 34.3282C3.05409 33.5103 3.45443 32.7586 4.04297 32.168C4.43491 31.7747 4.90063 31.4626 5.41342 31.2497C5.92622 31.0368 6.47601 30.9271 7.03125 30.9271C7.5865 30.9271 8.13628 31.0368 8.64908 31.2497C9.16188 31.4626 9.6276 31.7747 10.0195 32.168ZM13.8867 13.8867C13.2982 14.4773 12.8978 15.229 12.7362 16.047C12.5747 16.865 12.6591 17.7125 12.9788 18.4825C13.2985 19.2525 13.8393 19.9105 14.5327 20.3734C15.2262 20.8363 16.0412 21.0834 16.875 21.0834C17.7088 21.0834 18.5238 20.8363 19.2173 20.3734C19.9107 19.9105 20.4515 19.2525 20.7712 18.4825C21.091 17.7125 21.1754 16.865 21.0138 16.047C20.8522 15.229 20.4518 14.4773 19.8633 13.8867C19.4713 13.4934 19.0056 13.1814 18.4928 12.9684C17.98 12.7555 17.4302 12.6459 16.875 12.6459C16.3198 12.6459 15.77 12.7555 15.2572 12.9684C14.7444 13.1814 14.2787 13.4934 13.8867 13.8867ZM25.1367 25.1367C24.5482 25.7273 24.1478 26.479 23.9862 27.297C23.8247 28.115 23.9091 28.9625 24.2288 29.7325C24.5485 30.5025 25.0893 31.1605 25.7827 31.6234C26.4762 32.0863 27.2912 32.3334 28.125 32.3334C28.9588 32.3334 29.7738 32.0863 30.4673 31.6234C31.1607 31.1605 31.7015 30.5025 32.0212 29.7325C32.341 28.9625 32.4254 28.115 32.2638 27.297C32.1022 26.479 31.7018 25.7273 31.1133 25.1367C30.7213 24.7434 30.2556 24.4314 29.7428 24.2184C29.23 24.0055 28.6802 23.8959 28.125 23.8959C27.5698 23.8959 27.02 24.0055 26.5072 24.2184C25.9944 24.4314 25.5287 24.7434 25.1367 25.1367ZM40.957 6.85547C40.3664 6.26693 39.6147 5.86659 38.7968 5.705C37.9788 5.5434 37.1313 5.6278 36.3613 5.94754C35.5913 6.26728 34.9332 6.80801 34.4703 7.50146C34.0074 8.19491 33.7604 9.00999 33.7604 9.84375C33.7604 10.6775 34.0074 11.4926 34.4703 12.186C34.9332 12.8795 35.5913 13.4202 36.3613 13.74C37.1313 14.0597 37.9788 14.1441 38.7968 13.9825C39.6147 13.8209 40.3664 13.4206 40.957 12.832C41.3503 12.4401 41.6624 11.9744 41.8753 11.4616C42.0883 10.9488 42.1979 10.399 42.1979 9.84375C42.1979 9.28851 42.0883 8.73872 41.8753 8.22592C41.6624 7.71313 41.3503 7.24741 40.957 6.85547Z" fill="#03111C"/>
<path d="M41.9482 5.86404C41.4259 5.34158 40.8057 4.92713 40.1232 4.64437C39.4407 4.3616 38.7091 4.21606 37.9703 4.21606C37.2315 4.21606 36.5 4.3616 35.8174 4.64437C35.1349 4.92713 34.5147 5.34158 33.9924 5.86404C33.4699 6.38639 33.0555 7.00654 32.7727 7.68908C32.4899 8.37162 32.3444 9.10318 32.3444 9.84197C32.3444 10.5808 32.4899 11.3123 32.7727 11.9949C33.0555 12.6774 33.4699 13.2976 33.9924 13.8199C34.0434 13.8709 34.0979 13.9201 34.1506 13.9693L29.4695 22.6635C28.0424 22.3154 26.5358 22.5361 25.2684 23.2787L21.7211 19.7314C22.419 18.5519 22.6622 17.1582 22.4051 15.812C22.148 14.4658 21.4083 13.2598 20.3249 12.4204C19.2414 11.5811 17.8888 11.1662 16.5211 11.2536C15.1534 11.341 13.8646 11.9248 12.8969 12.8953C12.3744 13.4176 11.96 14.0378 11.6772 14.7203C11.3944 15.4029 11.2489 16.1344 11.2489 16.8732C11.2489 17.612 11.3944 18.3436 11.6772 19.0261C11.96 19.7087 12.3744 20.3288 12.8969 20.8512C12.9479 20.9021 13.0006 20.9513 13.0533 21.0006L8.37227 29.6965C7.43265 29.4652 6.44927 29.4802 5.51716 29.7401C4.58506 30 3.73577 30.496 3.05137 31.1801C2.26483 31.9668 1.72923 32.9691 1.51229 34.0602C1.29535 35.1513 1.40682 36.2822 1.8326 37.31C2.25838 38.3377 2.97935 39.2162 3.90435 39.8342C4.82935 40.4522 5.91683 40.7821 7.0293 40.7821C8.14176 40.7821 9.22925 40.4522 10.1542 39.8342C11.0792 39.2162 11.8002 38.3377 12.226 37.31C12.6518 36.2822 12.7632 35.1513 12.5463 34.0602C12.3294 32.9691 11.7938 31.9668 11.0072 31.1801C10.9563 31.1291 10.9018 31.0799 10.849 31.0306L15.5301 22.3365C15.9702 22.4443 16.4217 22.4992 16.8748 22.5C17.8791 22.5012 18.8654 22.2335 19.7313 21.7248L23.2785 25.2721C22.7445 26.1784 22.4753 27.2163 22.5016 28.268C22.5278 29.3196 22.8485 30.3428 23.427 31.2214C24.0056 32.1 24.819 32.7987 25.7748 33.2382C26.7306 33.6777 27.7904 33.8403 28.834 33.7077C29.8776 33.5751 30.8631 33.1525 31.6785 32.4879C32.4939 31.8233 33.1067 30.9433 33.4471 29.9479C33.7876 28.9526 33.842 27.8817 33.6044 26.8569C33.3668 25.8321 32.8465 24.8945 32.1027 24.1506C32.0518 24.0996 31.999 24.0504 31.9463 24.0012L36.6273 15.307C37.0664 15.4141 37.5166 15.4683 37.9686 15.4687C39.0808 15.4686 40.1681 15.1386 41.0929 14.5206C42.0178 13.9027 42.7386 13.0244 43.1643 11.9968C43.5901 10.9692 43.7016 9.83846 43.4849 8.7475C43.2681 7.65653 42.7327 6.65432 41.9465 5.86756L41.9482 5.86404ZM9.01739 37.1478C8.48965 37.6753 7.77397 37.9716 7.0278 37.9714C6.28163 37.9713 5.56608 37.6747 5.03858 37.147C4.51107 36.6192 4.21481 35.9035 4.21498 35.1574C4.21514 34.4112 4.51172 33.6957 5.03946 33.1681C5.30077 32.907 5.61096 32.6998 5.95234 32.5585C6.29371 32.4172 6.65958 32.3445 7.02904 32.3445C7.39851 32.3446 7.76434 32.4175 8.10565 32.5589C8.44696 32.7004 8.75707 32.9077 9.01826 33.169C9.27946 33.4303 9.48663 33.7405 9.62794 34.0819C9.76925 34.4233 9.84194 34.7891 9.84186 35.1586C9.84178 35.5281 9.76893 35.8939 9.62746 36.2352C9.486 36.5765 9.2787 36.8866 9.01739 37.1478ZM14.885 18.8666C14.6237 18.6054 14.4165 18.2953 14.2751 17.9541C14.1337 17.6128 14.061 17.247 14.061 16.8776C14.061 16.5082 14.1337 16.1424 14.2751 15.8012C14.4165 15.4599 14.6237 15.1498 14.885 14.8887C15.2783 14.4954 15.7795 14.2276 16.325 14.1191C16.8706 14.0106 17.436 14.0664 17.9499 14.2793C18.4638 14.4922 18.903 14.8526 19.212 15.3151C19.521 15.7776 19.686 16.3214 19.686 16.8776C19.686 17.4338 19.521 17.9776 19.212 18.4401C18.903 18.9026 18.4638 19.2631 17.9499 19.476C17.436 19.6889 16.8706 19.7446 16.325 19.6361C15.7795 19.5277 15.2783 19.2599 14.885 18.8666ZM30.1147 30.1166C29.5871 30.6441 28.8717 30.9404 28.1257 30.9404C27.3797 30.9404 26.6642 30.6441 26.1367 30.1166C25.6092 29.5891 25.3129 28.8736 25.3129 28.1276C25.3129 27.3816 25.6092 26.6662 26.1367 26.1387C26.6642 25.6111 27.3797 25.3148 28.1257 25.3148C28.8717 25.3148 29.5871 25.6111 30.1147 26.1387C30.6422 26.6662 30.9385 27.3816 30.9385 28.1276C30.9385 28.8736 30.6422 29.5891 30.1147 30.1166ZM39.9584 11.8353C39.4302 12.3626 38.7142 12.6585 37.9678 12.6578C37.2215 12.6571 36.506 12.36 35.9787 11.8318C35.4514 11.3036 35.1556 10.5876 35.1562 9.84124C35.1569 9.09491 35.454 8.3794 35.9822 7.85213C36.2435 7.59093 36.5537 7.38377 36.8951 7.24245C37.2365 7.10114 37.6023 7.02845 37.9718 7.02853C38.3413 7.02861 38.7071 7.10146 39.0484 7.24293C39.3897 7.38439 39.6998 7.5917 39.961 7.85301C40.2222 8.11432 40.4294 8.42452 40.5707 8.76589C40.712 9.10726 40.7847 9.47313 40.7846 9.84259C40.7846 10.2121 40.7117 10.5779 40.5702 10.9192C40.4288 11.2605 40.2215 11.5706 39.9602 11.8318L39.9584 11.8353Z" fill="#03111C"/>
</svg>
