<svg width="45" height="45" viewBox="0 0 45 45" fill="none" xmlns="http://www.w3.org/2000/svg">
<path opacity="0.2" d="M37.9688 11.25V33.75H22.5V11.25H37.9688Z" fill="#03111C"/>
<path d="M39.3748 22.5C39.3748 22.873 39.2266 23.2307 38.9629 23.4944C38.6992 23.7581 38.3415 23.9063 37.9686 23.9063H22.4998C22.1268 23.9063 21.7692 23.7581 21.5054 23.4944C21.2417 23.2307 21.0936 22.873 21.0936 22.5C21.0936 22.1271 21.2417 21.7694 21.5054 21.5057C21.7692 21.242 22.1268 21.0938 22.4998 21.0938H37.9686C38.3415 21.0938 38.6992 21.242 38.9629 21.5057C39.2266 21.7694 39.3748 22.1271 39.3748 22.5ZM22.4998 12.6563H37.9686C38.3415 12.6563 38.6992 12.5081 38.9629 12.2444C39.2266 11.9807 39.3748 11.623 39.3748 11.25C39.3748 10.8771 39.2266 10.5194 38.9629 10.2557C38.6992 9.99196 38.3415 9.8438 37.9686 9.8438H22.4998C22.1268 9.8438 21.7692 9.99196 21.5054 10.2557C21.2417 10.5194 21.0936 10.8771 21.0936 11.25C21.0936 11.623 21.2417 11.9807 21.5054 12.2444C21.7692 12.5081 22.1268 12.6563 22.4998 12.6563ZM37.9686 32.3438H22.4998C22.1268 32.3438 21.7692 32.492 21.5054 32.7557C21.2417 33.0194 21.0936 33.3771 21.0936 33.7501C21.0936 34.123 21.2417 34.4807 21.5054 34.7444C21.7692 35.0081 22.1268 35.1563 22.4998 35.1563H37.9686C38.3415 35.1563 38.6992 35.0081 38.9629 34.7444C39.2266 34.4807 39.3748 34.123 39.3748 33.7501C39.3748 33.3771 39.2266 33.0194 38.9629 32.7557C38.6992 32.492 38.3415 32.3438 37.9686 32.3438ZM14.4736 7.44263L9.84356 12.0745L8.02598 10.2551C7.76211 9.99126 7.40422 9.84302 7.03106 9.84302C6.65789 9.84302 6.3 9.99126 6.03613 10.2551C5.77226 10.519 5.62402 10.8769 5.62402 11.25C5.62402 11.6232 5.77226 11.9811 6.03613 12.245L8.84863 15.0575C8.97924 15.1882 9.13433 15.2919 9.30505 15.3627C9.47576 15.4335 9.65875 15.4699 9.84356 15.4699C10.0284 15.4699 10.2113 15.4335 10.3821 15.3627C10.5528 15.2919 10.7079 15.1882 10.8385 15.0575L16.4635 9.43247C16.7273 9.1686 16.8756 8.81072 16.8756 8.43755C16.8756 8.06438 16.7273 7.7065 16.4635 7.44263C16.1996 7.17876 15.8417 7.03052 15.4686 7.03052C15.0954 7.03052 14.7375 7.17876 14.4736 7.44263ZM14.4736 18.6926L9.84356 23.3245L8.02598 21.5051C7.76211 21.2413 7.40422 21.093 7.03106 21.093C6.65789 21.093 6.3 21.2413 6.03613 21.5051C5.77226 21.769 5.62402 22.1269 5.62402 22.5C5.62402 22.6848 5.66042 22.8678 5.73113 23.0385C5.80184 23.2092 5.90548 23.3643 6.03613 23.495L8.84863 26.3075C8.97924 26.4382 9.13433 26.5419 9.30505 26.6127C9.47576 26.6835 9.65875 26.7199 9.84356 26.7199C10.0284 26.7199 10.2113 26.6835 10.3821 26.6127C10.5528 26.5419 10.7079 26.4382 10.8385 26.3075L16.4635 20.6825C16.7273 20.4186 16.8756 20.0607 16.8756 19.6875C16.8756 19.3144 16.7273 18.9565 16.4635 18.6926C16.1996 18.4288 15.8417 18.2805 15.4686 18.2805C15.0954 18.2805 14.7375 18.4288 14.4736 18.6926ZM14.4736 29.9426L9.84356 34.5745L8.02598 32.7551C7.89532 32.6245 7.74021 32.5208 7.5695 32.4501C7.39879 32.3794 7.21583 32.343 7.03106 32.343C6.84628 32.343 6.66332 32.3794 6.49261 32.4501C6.3219 32.5208 6.16679 32.6245 6.03613 32.7551C5.90548 32.8858 5.80184 33.0409 5.73113 33.2116C5.66042 33.3823 5.62402 33.5653 5.62402 33.7501C5.62402 33.9348 5.66042 34.1178 5.73113 34.2885C5.80184 34.4592 5.90548 34.6143 6.03613 34.745L8.84863 37.5575C8.97924 37.6882 9.13433 37.7919 9.30505 37.8627C9.47576 37.9335 9.65875 37.9699 9.84356 37.9699C10.0284 37.9699 10.2113 37.9335 10.3821 37.8627C10.5528 37.7919 10.7079 37.6882 10.8385 37.5575L16.4635 31.9325C16.7273 31.6686 16.8756 31.3107 16.8756 30.9376C16.8756 30.5644 16.7273 30.2065 16.4635 29.9426C16.1996 29.6788 15.8417 29.5305 15.4686 29.5305C15.0954 29.5305 14.7375 29.6788 14.4736 29.9426Z" fill="#03111C"/>
</svg>
