<svg width="45" height="45" viewBox="0 0 45 45" fill="none" xmlns="http://www.w3.org/2000/svg">
<path opacity="0.2" d="M29.5945 35.2196L24.321 40.3787C24.0565 40.6384 23.7002 40.7832 23.3296 40.7815C22.9589 40.7799 22.6039 40.632 22.3417 40.3699L17.3074 35.3321C17.1754 35.2003 17.071 35.0436 17.0002 34.871C16.9293 34.6985 16.8935 34.5136 16.8949 34.3272C16.8962 34.1407 16.9346 33.9563 17.0078 33.7848C17.081 33.6133 17.1876 33.4581 17.3214 33.3282L22.5949 28.2305L29.5945 35.2196ZM4.63354 20.6719C4.37162 20.9354 4.22461 21.2918 4.22461 21.6633C4.22461 22.0348 4.37162 22.3912 4.63354 22.6547L9.66791 27.6926C9.7994 27.8243 9.9557 27.9285 10.1278 27.9993C10.2998 28.0701 10.4842 28.1061 10.6703 28.1051C10.8564 28.1041 11.0404 28.0662 11.2117 27.9936C11.383 27.921 11.5382 27.8151 11.6683 27.6821L16.7976 22.4227L9.80326 15.4283L4.63354 20.6719Z" fill="#03111C"/>
<path d="M36.3865 8.83306C34.9566 7.37364 33.25 6.21391 31.3667 5.42164C29.4833 4.62937 27.461 4.22045 25.4178 4.2188H25.3598C23.3259 4.21357 21.3112 4.61188 19.4323 5.39065C17.5534 6.16942 15.8477 7.31318 14.4139 8.75571L8.8082 14.4334L3.62265 19.6875C3.10022 20.2159 2.80809 20.9295 2.81007 21.6725C2.81204 22.4156 3.10797 23.1276 3.6332 23.6532L8.67109 28.6911C8.93187 28.9531 9.24198 29.1609 9.58352 29.3024C9.92506 29.4439 10.2912 29.5163 10.6609 29.5155H10.6768C11.0491 29.5135 11.4174 29.4375 11.7602 29.2921C12.103 29.1467 12.4134 28.9346 12.6736 28.6682L23.3787 17.6995C23.9014 17.182 24.6053 16.8886 25.3408 16.8817C26.0764 16.8748 26.7856 17.1549 27.318 17.6626C27.5811 17.9181 27.7902 18.2239 27.933 18.5618C28.0758 18.8996 28.1494 19.2627 28.1494 19.6295C28.153 20.0199 28.0795 20.4072 27.9332 20.7691C27.7869 21.1311 27.5707 21.4606 27.2969 21.7389L16.3475 32.3227C16.08 32.5824 15.8669 32.8926 15.7204 33.2354C15.574 33.5782 15.4971 33.9467 15.4943 34.3195C15.4915 34.6922 15.5629 35.0618 15.7042 35.4068C15.8456 35.7517 16.054 36.0651 16.3176 36.3288L21.3555 41.3666C21.8807 41.8886 22.59 42.1834 23.3304 42.1873C24.0709 42.1913 24.7833 41.9041 25.3141 41.3877L36.1773 30.7618C42.233 24.6973 42.3262 14.8641 36.3865 8.83306ZM10.6609 26.6995L5.6248 21.6633L9.8084 17.4235L14.8217 22.4368L10.6609 26.6995ZM23.3418 39.375L18.3004 34.3389L22.5859 30.1958L27.5975 35.2125L23.3418 39.375ZM34.198 28.7508L29.6084 33.2403L24.6092 28.2446L29.2568 23.7499L29.2744 23.734C29.8135 23.1905 30.2397 22.5457 30.5284 21.8367C30.8171 21.1278 30.9627 20.3687 30.9566 19.6032C30.9535 18.8635 30.8018 18.132 30.5108 17.4521C30.2197 16.7721 29.7951 16.1574 29.2621 15.6446C28.1941 14.6286 26.7719 14.0694 25.298 14.0858C23.824 14.1023 22.4146 14.693 21.3695 15.7325L16.7852 20.4223L11.7771 15.4231L16.409 10.7385C17.5815 9.55922 18.9764 8.62431 20.5129 7.98795C22.0493 7.35159 23.6968 7.02642 25.3598 7.0313H25.4072C27.0788 7.03274 28.7334 7.3674 30.2742 8.0157C31.815 8.66401 33.2111 9.61296 34.3809 10.8071C39.243 15.7413 39.1551 23.7973 34.198 28.7543V28.7508Z" fill="#03111C"/>
</svg>
