<svg width="45" height="45" viewBox="0 0 45 45" fill="none" xmlns="http://www.w3.org/2000/svg">
<path opacity="0.2" d="M33.75 19.6875C33.75 22.4688 32.9253 25.1876 31.38 27.5002C29.8348 29.8128 27.6386 31.6152 25.069 32.6796C22.4994 33.7439 19.6719 34.0224 16.944 33.4798C14.2162 32.9372 11.7105 31.5979 9.74382 29.6312C7.77714 27.6645 6.43782 25.1588 5.89521 22.431C5.35261 19.7031 5.63109 16.8756 6.69545 14.306C7.75981 11.7364 9.56223 9.54017 11.8748 7.99496C14.1874 6.44975 16.9062 5.625 19.6875 5.625C21.5342 5.625 23.3629 5.98874 25.069 6.69544C26.7751 7.40215 28.3254 8.43799 29.6312 9.74381C30.937 11.0496 31.9729 12.5999 32.6796 14.306C33.3863 16.0122 33.75 17.8408 33.75 19.6875Z" fill="#03111C"/>
<path d="M40.3701 38.3801L31.5705 29.5805C34.126 26.5156 35.4015 22.5835 35.1316 18.6021C34.8617 14.6208 33.0673 10.8968 30.1216 8.20476C27.1759 5.51277 23.3057 4.06009 19.3162 4.14893C15.3267 4.23777 11.5251 5.86129 8.70212 8.68174C5.87917 11.5022 4.25229 15.3024 4.15992 19.2918C4.06755 23.2813 5.51681 27.1527 8.2062 30.1008C10.8956 33.0489 14.618 34.8466 18.5992 35.12C22.5803 35.3934 26.5135 34.1214 29.5806 31.5686L38.3803 40.3699C38.5109 40.5006 38.666 40.6042 38.8367 40.675C39.0074 40.7457 39.1904 40.7821 39.3752 40.7821C39.56 40.7821 39.7429 40.7457 39.9136 40.675C40.0843 40.6042 40.2394 40.5006 40.3701 40.3699C40.5008 40.2393 40.6044 40.0842 40.6751 39.9135C40.7458 39.7428 40.7822 39.5598 40.7822 39.375C40.7822 39.1903 40.7458 39.0073 40.6751 38.8366C40.6044 38.6659 40.5008 38.5108 40.3701 38.3801ZM7.03143 19.6875C7.03143 17.1844 7.77371 14.7374 9.16439 12.6561C10.5551 10.5748 12.5317 8.9526 14.8443 7.99468C17.157 7.03675 19.7017 6.78612 22.1568 7.27446C24.6119 7.76281 26.867 8.9682 28.637 10.7382C30.407 12.5082 31.6124 14.7633 32.1007 17.2184C32.5891 19.6735 32.3385 22.2182 31.3805 24.5309C30.4226 26.8435 28.8004 28.8201 26.7191 30.2108C24.6378 31.6015 22.1908 32.3438 19.6877 32.3438C16.3322 32.3401 13.1152 31.0054 10.7425 28.6327C8.36977 26.26 7.03515 23.043 7.03143 19.6875Z" fill="#03111C"/>
</svg>
