<svg width="45" height="45" viewBox="0 0 45 45" fill="none" xmlns="http://www.w3.org/2000/svg">
<path opacity="0.2" d="M37.9688 9.84375V35.1562C37.9688 35.9022 37.6724 36.6175 37.145 37.145C36.6175 37.6724 35.9022 37.9688 35.1562 37.9688H9.84375C9.09783 37.9688 8.38246 37.6724 7.85501 37.145C7.32757 36.6175 7.03125 35.9022 7.03125 35.1562V9.84375C7.03125 9.09783 7.32757 8.38246 7.85501 7.85501C8.38246 7.32757 9.09783 7.03125 9.84375 7.03125H35.1562C35.9022 7.03125 36.6175 7.32757 37.145 7.85501C37.6724 8.38246 37.9688 9.09783 37.9688 9.84375Z" fill="#03111C"/>
<path d="M19.6875 12.6563C19.6875 13.0293 19.5393 13.3869 19.2756 13.6507C19.0119 13.9144 18.6542 14.0625 18.2812 14.0625H7.03125C6.65829 14.0625 6.3006 13.9144 6.03688 13.6507C5.77316 13.3869 5.625 13.0293 5.625 12.6563C5.625 12.2833 5.77316 11.9257 6.03688 11.6619C6.3006 11.3982 6.65829 11.25 7.03125 11.25H18.2812C18.6542 11.25 19.0119 11.3982 19.2756 11.6619C19.5393 11.9257 19.6875 12.2833 19.6875 12.6563ZM18.2812 30.9376H14.0625V26.7188C14.0625 26.3458 13.9143 25.9882 13.6506 25.7244C13.3869 25.4607 13.0292 25.3125 12.6562 25.3125C12.2833 25.3125 11.9256 25.4607 11.6619 25.7244C11.3982 25.9882 11.25 26.3458 11.25 26.7188V30.9376H7.03125C6.65829 30.9376 6.3006 31.0857 6.03688 31.3494C5.77316 31.6132 5.625 31.9708 5.625 32.3438C5.625 32.7168 5.77316 33.0744 6.03688 33.3382C6.3006 33.6019 6.65829 33.7501 7.03125 33.7501H11.25V37.9688C11.25 38.3418 11.3982 38.6994 11.6619 38.9632C11.9256 39.2269 12.2833 39.3751 12.6562 39.3751C13.0292 39.3751 13.3869 39.2269 13.6506 38.9632C13.9143 38.6994 14.0625 38.3418 14.0625 37.9688V33.7501H18.2812C18.6542 33.7501 19.0119 33.6019 19.2756 33.3382C19.5393 33.0744 19.6875 32.7168 19.6875 32.3438C19.6875 31.9708 19.5393 31.6132 19.2756 31.3494C19.0119 31.0857 18.6542 30.9376 18.2812 30.9376ZM26.7188 30.9376H37.9688C38.3417 30.9376 38.6994 30.7894 38.9631 30.5257C39.2268 30.2619 39.375 29.9043 39.375 29.5313C39.375 29.1583 39.2268 28.8007 38.9631 28.5369C38.6994 28.2732 38.3417 28.125 37.9688 28.125H26.7188C26.3458 28.125 25.9881 28.2732 25.7244 28.5369C25.4607 28.8007 25.3125 29.1583 25.3125 29.5313C25.3125 29.9043 25.4607 30.2619 25.7244 30.5257C25.9881 30.7894 26.3458 30.9376 26.7188 30.9376ZM37.9688 33.7501H26.7188C26.3458 33.7501 25.9881 33.8982 25.7244 34.1619C25.4607 34.4257 25.3125 34.7833 25.3125 35.1563C25.3125 35.5293 25.4607 35.8869 25.7244 36.1507C25.9881 36.4144 26.3458 36.5626 26.7188 36.5626H37.9688C38.3417 36.5626 38.6994 36.4144 38.9631 36.1507C39.2268 35.8869 39.375 35.5293 39.375 35.1563C39.375 34.7833 39.2268 34.4257 38.9631 34.1619C38.6994 33.8982 38.3417 33.7501 37.9688 33.7501ZM27.1301 17.87C27.2607 18.0007 27.4158 18.1044 27.5865 18.1752C27.7572 18.246 27.9402 18.2824 28.125 18.2824C28.3098 18.2824 28.4928 18.246 28.6635 18.1752C28.8342 18.1044 28.9893 18.0007 29.1199 17.87L32.3438 14.6444L35.5676 17.87C35.6982 18.0006 35.8533 18.1043 36.0241 18.175C36.1948 18.2457 36.3777 18.2821 36.5625 18.2821C36.7473 18.2821 36.9302 18.2457 37.1009 18.175C37.2717 18.1043 37.4268 18.0006 37.5574 17.87C37.6881 17.7393 37.7917 17.5842 37.8624 17.4135C37.9331 17.2428 37.9695 17.0598 37.9695 16.875C37.9695 16.6903 37.9331 16.5073 37.8624 16.3366C37.7917 16.1659 37.6881 16.0108 37.5574 15.8801L34.3318 12.6563L37.5574 9.43247C37.8213 9.1686 37.9695 8.81072 37.9695 8.43755C37.9695 8.06438 37.8213 7.7065 37.5574 7.44263C37.2936 7.17876 36.9357 7.03052 36.5625 7.03052C36.1893 7.03052 35.8314 7.17876 35.5676 7.44263L32.3438 10.6682L29.1199 7.44263C28.8561 7.17876 28.4982 7.03052 28.125 7.03052C27.7518 7.03052 27.3939 7.17876 27.1301 7.44263C26.8662 7.7065 26.718 8.06438 26.718 8.43755C26.718 8.81072 26.8662 9.1686 27.1301 9.43247L30.3557 12.6563L27.1301 15.8801C26.9993 16.0107 26.8956 16.1658 26.8248 16.3365C26.7541 16.5073 26.7176 16.6902 26.7176 16.875C26.7176 17.0599 26.7541 17.2428 26.8248 17.4136C26.8956 17.5843 26.9993 17.7394 27.1301 17.87Z" fill="#03111C"/>
</svg>
