<svg width="45" height="45" viewBox="0 0 45 45" fill="none" xmlns="http://www.w3.org/2000/svg">
<path opacity="0.2" d="M39.5508 11.4258L27.4219 21.7969L30.3557 24.7307C30.8827 25.2581 31.1788 25.9731 31.1788 26.7187C31.1788 27.4643 30.8827 28.1794 30.3557 28.7068L26.7188 32.3437L12.6562 18.2812L16.2932 14.6443C16.8206 14.1173 17.5356 13.8212 18.2812 13.8212C19.0269 13.8212 19.7419 14.1173 20.2693 14.6443L23.2031 17.5781L33.5742 5.44921C34.3668 4.65667 35.4417 4.21143 36.5625 4.21143C37.6833 4.21143 38.7582 4.65667 39.5508 5.44921C40.3433 6.24175 40.7886 7.31667 40.7886 8.43749C40.7886 9.55832 40.3433 10.6332 39.5508 11.4258Z" fill="#03111C"/>
<path d="M40.5423 4.45779C40.02 3.93533 39.3998 3.52088 38.7173 3.23812C38.0347 2.95535 37.3032 2.80981 36.5644 2.80981C35.8256 2.80981 35.094 2.95535 34.4115 3.23812C33.729 3.52088 33.1088 3.93533 32.5865 4.45779C32.5618 4.4824 32.5372 4.50877 32.5126 4.53689L23.1242 15.5074L21.2697 13.6476C20.8779 13.2557 20.4127 12.9447 19.9007 12.7326C19.3887 12.5204 18.84 12.4112 18.2858 12.4112C17.7316 12.4112 17.1828 12.5204 16.6708 12.7326C16.1588 12.9447 15.6937 13.2557 15.3019 13.6476L1.82122 27.1301C1.5577 27.3938 1.40967 27.7513 1.40967 28.1241C1.40967 28.4969 1.5577 28.8544 1.82122 29.1181L15.8837 43.1806C16.1474 43.4442 16.505 43.5922 16.8778 43.5922C17.2506 43.5922 17.6081 43.4442 17.8718 43.1806L31.3525 29.707C31.7445 29.3152 32.0554 28.8501 32.2676 28.3381C32.4797 27.8261 32.5889 27.2773 32.5889 26.7231C32.5889 26.1689 32.4797 25.6202 32.2676 25.1082C32.0554 24.5962 31.7445 24.131 31.3525 23.7392L29.4927 21.8812L40.4632 12.4805C40.4896 12.4558 40.5177 12.4312 40.5423 12.4049C41.5948 11.3503 42.1859 9.92124 42.1859 8.43133C42.1859 6.94142 41.5948 5.51236 40.5423 4.45779ZM16.8751 40.1994L13.9431 37.2656L17.8701 33.3369C18.1226 33.071 18.2614 32.717 18.2567 32.3503C18.252 31.9836 18.1042 31.6333 17.8449 31.3739C17.5856 31.1146 17.2353 30.9669 16.8686 30.9622C16.5019 30.9575 16.1478 31.0962 15.882 31.3488L11.9533 35.2758L9.72435 33.0469L13.6513 29.1181C13.9039 28.8523 14.0426 28.4983 14.0379 28.1316C14.0332 27.7649 13.8855 27.4145 13.6262 27.1552C13.3669 26.8959 13.0165 26.7481 12.6498 26.7434C12.2831 26.7387 11.9291 26.8775 11.6632 27.1301L7.7345 31.057L4.80072 28.125L12.6564 20.2693L24.7308 32.3437L16.8751 40.1994ZM38.5876 10.3887L26.5097 20.7263C26.3622 20.8523 26.2424 21.0075 26.1578 21.182C26.0731 21.3565 26.0255 21.5467 26.0179 21.7405C26.0103 21.9343 26.0429 22.1276 26.1136 22.3082C26.1844 22.4888 26.2917 22.6529 26.4288 22.79L29.3556 25.7238C29.6191 25.9875 29.7672 26.3451 29.7672 26.7179C29.7672 27.0907 29.6191 27.4482 29.3556 27.7119L26.7189 30.3486L14.6462 18.2812L17.2829 15.6445C17.5466 15.381 17.9042 15.233 18.277 15.233C18.6498 15.233 19.0073 15.381 19.271 15.6445L22.2048 18.5783C22.342 18.7155 22.506 18.8228 22.6866 18.8935C22.8672 18.9642 23.0605 18.9968 23.2543 18.9892C23.4482 18.9816 23.6383 18.934 23.8128 18.8494C23.9874 18.7647 24.1425 18.6449 24.2685 18.4974L34.6115 6.41248C35.1432 5.9073 35.8512 5.62982 36.5846 5.63921C37.318 5.6486 38.0187 5.94412 38.5374 6.46274C39.056 6.98137 39.3515 7.68208 39.3609 8.41548C39.3703 9.14887 39.0928 9.85692 38.5876 10.3887Z" fill="#03111C"/>
</svg>
