<svg width="45" height="45" viewBox="0 0 45 45" fill="none" xmlns="http://www.w3.org/2000/svg">
<path opacity="0.2" d="M31.7727 18.4131L35.8596 22.5L21.435 36.9035C19.8483 38.4646 17.7091 39.3354 15.4832 39.3264C13.2574 39.3173 11.1253 38.4291 9.55137 36.8552C7.97744 35.2812 7.08921 33.1491 7.08015 30.9233C7.07108 28.6975 7.94192 26.5582 9.50298 24.9715L26.9598 7.2721C28.0148 6.21709 29.4457 5.62439 30.9377 5.62439C32.4298 5.62439 33.8607 6.21709 34.9157 7.2721C35.9707 8.32711 36.5634 9.75802 36.5634 11.25C36.5634 12.742 35.9707 14.1729 34.9157 15.228L31.7727 18.4131Z" fill="#03111C"/>
<path d="M36.8542 21.5051C36.9849 21.6357 37.0886 21.7908 37.1594 21.9615C37.2302 22.1323 37.2666 22.3153 37.2666 22.5001C37.2666 22.6849 37.2302 22.8679 37.1594 23.0386C37.0886 23.2093 36.9849 23.3644 36.8542 23.495L22.4313 37.909C20.5849 39.7552 18.0808 40.7923 15.4697 40.7921C12.8587 40.7919 10.3547 39.7546 8.50855 37.9082C6.66239 36.0618 5.62532 33.5576 5.62549 30.9466C5.62565 28.3356 6.66304 25.8316 8.50942 23.9854L25.9575 6.28072C27.2757 4.96114 29.064 4.21925 30.9292 4.21826C32.7944 4.21727 34.5836 4.95727 35.9032 6.27545C37.2228 7.59363 37.9646 9.38203 37.9656 11.2472C37.9666 13.1124 37.2266 14.9016 35.9084 16.2212L18.4569 33.9258C17.6643 34.7184 16.5894 35.1636 15.4686 35.1636C14.3478 35.1636 13.2729 34.7184 12.4803 33.9258C11.6878 33.1333 11.2425 32.0584 11.2425 30.9376C11.2425 29.8167 11.6878 28.7418 12.4803 27.9493L27.1229 13.0747C27.2512 12.9378 27.4055 12.828 27.5768 12.7518C27.7482 12.6755 27.933 12.6342 28.1206 12.6304C28.3081 12.6267 28.4944 12.6604 28.6687 12.7298C28.843 12.7991 29.0016 12.9026 29.1353 13.0342C29.269 13.1657 29.375 13.3227 29.4471 13.4958C29.5192 13.669 29.5559 13.8548 29.5551 14.0423C29.5543 14.2299 29.516 14.4154 29.4425 14.5879C29.3689 14.7604 29.2616 14.9165 29.1268 15.0469L14.4825 29.9374C14.3514 30.0674 14.2471 30.2221 14.1758 30.3924C14.1044 30.5628 14.0673 30.7455 14.0666 30.9302C14.0659 31.1149 14.1015 31.2979 14.1715 31.4688C14.2415 31.6398 14.3445 31.7952 14.4746 31.9263C14.6046 32.0574 14.7593 32.1617 14.9296 32.233C15.1 32.3044 15.2827 32.3415 15.4674 32.3422C15.6521 32.3429 15.8351 32.3073 16.006 32.2373C16.177 32.1673 16.3324 32.0643 16.4635 31.9342L33.9133 14.2383C34.7059 13.4474 35.1518 12.3741 35.1529 11.2544C35.1541 10.1347 34.7104 9.06047 33.9195 8.26793C33.1286 7.47539 32.0552 7.02949 30.9356 7.02834C29.8159 7.02719 28.7416 7.47087 27.9491 8.26178L10.5045 25.9594C9.85104 26.6119 9.33244 27.3867 8.97837 28.2396C8.6243 29.0925 8.44168 30.0067 8.44095 30.9302C8.44021 31.8537 8.62137 32.7682 8.97409 33.6217C9.3268 34.4751 9.84416 35.2508 10.4966 35.9043C11.1491 36.5578 11.9239 37.0764 12.7768 37.4304C13.6297 37.7845 14.5439 37.9671 15.4674 37.9679C16.3909 37.9686 17.3054 37.7874 18.1589 37.4347C19.0123 37.082 19.7879 36.5646 20.4415 35.9122L34.8661 21.4981C35.1307 21.2355 35.4888 21.0887 35.8616 21.0901C36.2344 21.0914 36.5914 21.2407 36.8542 21.5051Z" fill="#03111C"/>
</svg>
