<svg width="45" height="45" viewBox="0 0 45 45" fill="none" xmlns="http://www.w3.org/2000/svg">
<path opacity="0.2" d="M39.375 22.5C39.3743 19.538 38.594 16.6283 37.1125 14.0634C35.631 11.4985 33.5005 9.36876 30.935 7.88818C28.3696 6.40761 25.4597 5.62837 22.4976 5.62878C19.5356 5.6292 16.6259 6.40925 14.0609 7.89055C11.4958 9.37185 9.3659 11.5022 7.88511 14.0675C6.40432 16.6328 5.62483 19.5427 5.625 22.5047C5.62517 25.4667 6.40498 28.3765 7.88606 30.9417C9.36714 33.5068 11.4973 35.637 14.0625 37.118V30.9375L22.5 12.6562L30.9375 30.9375V37.118C33.5034 35.6365 35.634 33.5057 37.1151 30.9396C38.5963 28.3736 39.3757 25.4628 39.375 22.5Z" fill="#03111C"/>
<path d="M35.4272 9.57302C31.9987 6.14458 27.3488 4.21851 22.5002 4.21851C17.6517 4.21851 13.0017 6.14458 9.57327 9.57303C6.14483 13.0015 4.21875 17.6514 4.21875 22.5C4.21875 27.3485 6.14483 31.9985 9.57327 35.4269C13.0017 38.8554 17.6517 40.7814 22.5002 40.7814C27.3488 40.7814 31.9987 38.8554 35.4272 35.4269C38.8556 31.9985 40.7817 27.3485 40.7817 22.5C40.7817 17.6514 38.8556 13.0015 35.4272 9.57302ZM15.469 33.75C15.469 33.0041 15.7653 32.2887 16.2927 31.7612C16.8202 31.2338 17.5356 30.9375 18.2815 30.9375C19.0274 30.9375 19.7428 31.2338 20.2702 31.7612C20.7977 32.2887 21.094 33.0041 21.094 33.75V37.8967C19.1329 37.7194 17.2237 37.1693 15.469 36.276V33.75ZM23.9065 33.75C23.9065 33.0041 24.2028 32.2887 24.7302 31.7612C25.2577 31.2338 25.973 30.9375 26.719 30.9375C27.4649 30.9375 28.1803 31.2338 28.7077 31.7612C29.2352 32.2887 29.5315 33.0041 29.5315 33.75V36.276C27.7767 37.1693 25.8675 37.7194 23.9065 37.8967V33.75ZM18.8563 23.9062H26.1442L28.1797 28.3183C27.1671 28.0454 26.0983 28.0616 25.0945 28.3652C24.0906 28.6687 23.1919 29.2474 22.5002 30.0357C21.8085 29.2474 20.9098 28.6687 19.906 28.3652C18.9021 28.0616 17.8333 28.0454 16.8207 28.3183L18.8563 23.9062ZM20.1553 21.0937L22.5002 16.0119L24.8451 21.0937H20.1553ZM33.4373 33.4388C33.0858 33.7904 32.7201 34.1191 32.344 34.4302V30.9375C32.3442 30.734 32.2998 30.533 32.2139 30.3486L23.7764 12.0674C23.6637 11.8238 23.4836 11.6176 23.2575 11.4731C23.0313 11.3286 22.7686 11.2518 22.5002 11.2518C22.2319 11.2518 21.9691 11.3286 21.743 11.4731C21.5168 11.6176 21.3368 11.8238 21.224 12.0674L12.7865 30.3486C12.7006 30.533 12.6562 30.734 12.6565 30.9375V34.4302C12.2803 34.1191 11.9147 33.7904 11.5631 33.4388C9.3995 31.2756 7.92598 28.5193 7.3289 25.5186C6.73181 22.5179 7.03799 19.4075 8.2087 16.5808C9.37942 13.7541 11.3621 11.3381 13.906 9.63823C16.4498 7.93838 19.4407 7.03109 22.5002 7.03109C25.5598 7.03109 28.5506 7.93838 31.0945 9.63823C33.6384 11.3381 35.621 13.7541 36.7917 16.5808C37.9625 19.4075 38.2686 22.5179 37.6715 25.5186C37.0745 28.5193 35.6009 31.2756 33.4373 33.4388Z" fill="#03111C"/>
</svg>
