<svg width="45" height="45" viewBox="0 0 45 45" fill="none" xmlns="http://www.w3.org/2000/svg">
<path opacity="0.2" d="M38.9637 15.8801L33.75 21.0937L23.9062 11.25L29.1199 6.03631C29.3836 5.77279 29.7412 5.62476 30.114 5.62476C30.4868 5.62476 30.8443 5.77279 31.108 6.03631L38.9637 13.8867C39.0949 14.0174 39.1991 14.1727 39.2702 14.3437C39.3413 14.5148 39.3779 14.6982 39.3779 14.8834C39.3779 15.0686 39.3413 15.252 39.2702 15.423C39.1991 15.5941 39.0949 15.7494 38.9637 15.8801Z" fill="#03111C"/>
<path d="M39.9586 12.897L32.1029 5.04311C31.8418 4.78187 31.5317 4.57465 31.1904 4.43327C30.8492 4.29188 30.4834 4.21912 30.114 4.21912C29.7446 4.21912 29.3788 4.29188 29.0375 4.43327C28.6963 4.57465 28.3862 4.78187 28.125 5.04311L6.44943 26.7187C6.18713 26.9789 5.97917 27.2887 5.83764 27.63C5.69611 27.9713 5.62383 28.3373 5.62501 28.7068V36.5624C5.62501 37.3084 5.92133 38.0237 6.44878 38.5512C6.97622 39.0786 7.69159 39.3749 8.43751 39.3749H37.9688C38.3417 39.3749 38.6994 39.2268 38.9631 38.9631C39.2269 38.6993 39.375 38.3417 39.375 37.9687C39.375 37.5957 39.2269 37.238 38.9631 36.9743C38.6994 36.7106 38.3417 36.5624 37.9688 36.5624H20.2711L39.9586 16.8749C40.2198 16.6138 40.4271 16.3037 40.5684 15.9624C40.7098 15.6212 40.7826 15.2554 40.7826 14.886C40.7826 14.5166 40.7098 14.1508 40.5684 13.8095C40.4271 13.4683 40.2198 13.1582 39.9586 12.897ZM13.943 33.0468L28.8281 18.1599L31.7619 21.0937L16.875 35.9806L13.943 33.0468ZM11.9531 31.0587L9.01935 28.1249L23.9063 13.238L26.8401 16.1718L11.9531 31.0587ZM8.43751 31.5193L13.4807 36.5624H8.43751V31.5193ZM33.75 19.1056L25.8961 11.2499L30.1149 7.03119L37.9688 14.8869L33.75 19.1056Z" fill="#03111C"/>
</svg>
