<svg width="45" height="45" viewBox="0 0 45 45" fill="none" xmlns="http://www.w3.org/2000/svg">
<path opacity="0.2" d="M13.3594 21.7969L23.2031 31.6406L18.1055 36.7383C17.3143 37.5294 16.2413 37.9738 15.1225 37.9738C14.0036 37.9738 12.9306 37.5294 12.1395 36.7383L8.26172 32.8553C7.47222 32.0643 7.02881 30.9924 7.02881 29.8749C7.02881 28.7574 7.47222 27.6855 8.26172 26.8945L13.3594 21.7969ZM36.7383 12.1447L32.8553 8.26172C32.0643 7.47222 30.9924 7.02881 29.8749 7.02881C28.7574 7.02881 27.6855 7.47222 26.8945 8.26172L21.7969 13.3594L31.6406 23.2031L36.7383 18.1055C37.5278 17.3145 37.9712 16.2426 37.9712 15.1251C37.9712 14.0076 37.5278 12.9357 36.7383 12.1447Z" fill="#03111C"/>
<path d="M26.3072 24.3176C26.1766 24.1868 26.0215 24.0831 25.8508 24.0123C25.6801 23.9416 25.4971 23.9052 25.3123 23.9052C25.1275 23.9052 24.9445 23.9416 24.7738 24.0123C24.6031 24.0831 24.448 24.1868 24.3174 24.3176L21.0936 27.5432L17.4566 23.9063L20.6822 20.6824C20.9461 20.4186 21.0943 20.0607 21.0943 19.6875C21.0943 19.3143 20.9461 18.9565 20.6822 18.6926C20.4184 18.4287 20.0605 18.2805 19.6873 18.2805C19.3141 18.2805 18.9563 18.4287 18.6924 18.6926L15.4686 21.9182L12.2447 18.6926C11.9809 18.4287 11.623 18.2805 11.2498 18.2805C10.8766 18.2805 10.5188 18.4287 10.2549 18.6926C9.99101 18.9565 9.84277 19.3143 9.84277 19.6875C9.84277 20.0607 9.99101 20.4186 10.2549 20.6824L11.3711 21.7969L7.27188 25.8943C6.74941 26.4167 6.33496 27.0368 6.0522 27.7194C5.76943 28.4019 5.6239 29.1335 5.6239 29.8723C5.6239 30.6111 5.76943 31.3426 6.0522 32.0252C6.33496 32.7077 6.74941 33.3279 7.27188 33.8502L8.21758 34.7941L3.22363 39.7863C3.09298 39.917 2.98934 40.0721 2.91863 40.2428C2.84792 40.4135 2.81152 40.5965 2.81152 40.7813C2.81152 40.966 2.84792 41.149 2.91863 41.3197C2.98934 41.4904 3.09298 41.6455 3.22363 41.7762C3.4875 42.04 3.84539 42.1883 4.21856 42.1883C4.40333 42.1883 4.58629 42.1519 4.757 42.0812C4.92771 42.0105 5.08282 41.9068 5.21348 41.7762L10.2057 36.7822L11.1496 37.7279C11.672 38.2504 12.2921 38.6649 12.9746 38.9476C13.6572 39.2304 14.3887 39.3759 15.1275 39.3759C15.8663 39.3759 16.5979 39.2304 17.2804 38.9476C17.963 38.6649 18.5831 38.2504 19.1055 37.7279L23.2029 33.6287L24.3174 34.7449C24.448 34.8756 24.6031 34.9792 24.7739 35.0499C24.9446 35.1206 25.1275 35.157 25.3123 35.157C25.4971 35.157 25.68 35.1206 25.8508 35.0499C26.0215 34.9792 26.1766 34.8756 26.3072 34.7449C26.4379 34.6143 26.5415 34.4592 26.6122 34.2885C26.6829 34.1177 26.7193 33.9348 26.7193 33.75C26.7193 33.5652 26.6829 33.3823 26.6122 33.2116C26.5415 33.0408 26.4379 32.8857 26.3072 32.7551L23.0816 29.5313L26.3072 26.3074C26.438 26.1768 26.5417 26.0217 26.6125 25.851C26.6832 25.6803 26.7197 25.4973 26.7197 25.3125C26.7197 25.1277 26.6832 24.9447 26.6125 24.774C26.5417 24.6033 26.438 24.4482 26.3072 24.3176ZM17.1156 35.7434C16.5882 36.2704 15.8731 36.5665 15.1275 36.5665C14.3819 36.5665 13.6668 36.2704 13.1395 35.7434L9.26172 31.8604C8.73467 31.333 8.43861 30.6179 8.43861 29.8723C8.43861 29.1267 8.73467 28.4116 9.26172 27.8842L13.3592 23.785L21.2148 31.6406L17.1156 35.7434ZM41.776 3.22384C41.6454 3.09309 41.4903 2.98936 41.3196 2.9186C41.1489 2.84783 40.9659 2.8114 40.7811 2.8114C40.5963 2.8114 40.4133 2.84783 40.2425 2.9186C40.0718 2.98936 39.9167 3.09309 39.7861 3.22384L34.7939 8.21778L33.85 7.27208C32.7939 6.21906 31.3634 5.62773 29.8721 5.62773C28.3807 5.62773 26.9502 6.21906 25.8941 7.27208L21.7967 11.3713L20.6822 10.2551C20.4184 9.99122 20.0605 9.84298 19.6873 9.84298C19.3141 9.84298 18.9563 9.99122 18.6924 10.2551C18.4285 10.519 18.2803 10.8768 18.2803 11.25C18.2803 11.6232 18.4285 11.9811 18.6924 12.2449L32.7549 26.3074C32.8855 26.4381 33.0406 26.5417 33.2114 26.6124C33.3821 26.6831 33.565 26.7195 33.7498 26.7195C33.9346 26.7195 34.1175 26.6831 34.2883 26.6124C34.459 26.5417 34.6141 26.4381 34.7447 26.3074C34.8754 26.1768 34.979 26.0217 35.0497 25.851C35.1204 25.6802 35.1568 25.4973 35.1568 25.3125C35.1568 25.1277 35.1204 24.9448 35.0497 24.7741C34.979 24.6034 34.8754 24.4482 34.7447 24.3176L33.6285 23.2031L37.7277 19.1057C38.2502 18.5833 38.6647 17.9632 38.9474 17.2806C39.2302 16.5981 39.3757 15.8665 39.3757 15.1277C39.3757 14.3889 39.2302 13.6574 38.9474 12.9749C38.6647 12.2923 38.2502 11.6722 37.7277 11.1498L36.782 10.2059L41.776 5.21368C41.9067 5.08308 42.0105 4.92798 42.0812 4.75727C42.152 4.58655 42.1884 4.40356 42.1884 4.21876C42.1884 4.03395 42.152 3.85096 42.0812 3.68025C42.0105 3.50953 41.9067 3.35444 41.776 3.22384ZM35.7379 17.1106L31.6404 21.215L23.7848 13.3594L27.884 9.26192C28.4114 8.73487 29.1265 8.43881 29.8721 8.43881C30.6177 8.43881 31.3328 8.73487 31.8602 9.26192L35.7379 13.1291C36.0004 13.3904 36.2088 13.7011 36.3509 14.0431C36.4931 14.3852 36.5663 14.752 36.5663 15.1225C36.5663 15.4929 36.4931 15.8597 36.3509 16.2018C36.2088 16.5439 36.0004 16.8545 35.7379 17.1158V17.1106Z" fill="#03111C"/>
</svg>
