<svg width="45" height="45" viewBox="0 0 45 45" fill="none" xmlns="http://www.w3.org/2000/svg">
<path opacity="0.2" d="M37.2657 23.2031L26.9596 33.5092C25.9047 34.5638 24.4742 35.1563 22.9825 35.1563C21.4909 35.1563 20.0604 34.5638 19.0055 33.5092L11.4909 25.9945C10.4362 24.9397 9.84375 23.5091 9.84375 22.0175C9.84375 20.5258 10.4362 19.0953 11.4909 18.0404L21.7969 7.73438L37.2657 23.2031Z" fill="#03111C"/>
<path d="M41.776 11.6613C41.6454 11.5306 41.4903 11.4268 41.3196 11.3561C41.1488 11.2853 40.9659 11.2489 40.7811 11.2489C40.5963 11.2489 40.4133 11.2853 40.2425 11.3561C40.0718 11.4268 39.9167 11.5306 39.7861 11.6613L33.7498 17.6994L27.3004 11.25L33.3385 5.21366C33.6023 4.94979 33.7506 4.59191 33.7506 4.21874C33.7506 3.84557 33.6023 3.48769 33.3385 3.22382C33.0746 2.95995 32.7167 2.81171 32.3436 2.81171C31.9704 2.81171 31.6125 2.95995 31.3486 3.22382L25.3123 9.2619L20.6822 4.63007C20.4184 4.3662 20.0605 4.21796 19.6873 4.21796C19.3141 4.21796 18.9563 4.3662 18.6924 4.63007C18.4285 4.89394 18.2803 5.25182 18.2803 5.62499C18.2803 5.99816 18.4285 6.35604 18.6924 6.61991L19.8086 7.73436L10.4922 17.0508C9.83924 17.7037 9.32129 18.4788 8.96791 19.3319C8.61454 20.185 8.43265 21.0994 8.43265 22.0227C8.43265 22.9461 8.61454 23.8605 8.96791 24.7136C9.32129 25.5667 9.83924 26.3418 10.4922 26.9947L13.2537 29.7562L4.62988 38.3801C4.49923 38.5107 4.39559 38.6658 4.32488 38.8365C4.25417 39.0073 4.21777 39.1902 4.21777 39.375C4.21777 39.5598 4.25417 39.7427 4.32488 39.9134C4.39559 40.0841 4.49923 40.2393 4.62988 40.3699C4.89375 40.6338 5.25164 40.782 5.62481 40.782C5.80958 40.782 5.99254 40.7456 6.16325 40.6749C6.33396 40.6042 6.48907 40.5006 6.61973 40.3699L15.2488 31.7408L18.0104 34.5023C18.6633 35.1553 19.4384 35.6732 20.2915 36.0266C21.1446 36.38 22.0589 36.5619 22.9823 36.5619C23.9057 36.5619 24.8201 36.38 25.6732 36.0266C26.5262 35.6732 27.3014 35.1553 27.9543 34.5023L37.2707 25.1859L38.3852 26.3021C38.5158 26.4328 38.6709 26.5364 38.8416 26.6071C39.0123 26.6779 39.1953 26.7142 39.3801 26.7142C39.5649 26.7142 39.7478 26.6779 39.9185 26.6071C40.0892 26.5364 40.2443 26.4328 40.375 26.3021C40.5057 26.1715 40.6093 26.0164 40.68 25.8457C40.7507 25.675 40.7871 25.492 40.7871 25.3072C40.7871 25.1224 40.7507 24.9395 40.68 24.7688C40.6093 24.5981 40.5057 24.4429 40.375 24.3123L35.7379 19.6875L41.776 13.6512C41.9067 13.5206 42.0105 13.3655 42.0812 13.1947C42.152 13.024 42.1884 12.841 42.1884 12.6562C42.1884 12.4714 42.152 12.2884 42.0812 12.1177C42.0105 11.947 41.9067 11.7919 41.776 11.6613ZM25.9662 32.5195C25.5744 32.9115 25.1093 33.2224 24.5973 33.4346C24.0853 33.6467 23.5365 33.7559 22.9823 33.7559C22.4281 33.7559 21.8794 33.6467 21.3674 33.4346C20.8554 33.2224 20.3902 32.9115 19.9984 32.5195L12.4803 25.0014C12.0883 24.6096 11.7773 24.1444 11.5652 23.6324C11.353 23.1204 11.2439 22.5717 11.2439 22.0175C11.2439 21.4633 11.353 20.9145 11.5652 20.4025C11.7773 19.8905 12.0883 19.4254 12.4803 19.0336L21.7967 9.71718L35.2773 23.2031L25.9662 32.5195Z" fill="#03111C"/>
</svg>
