<svg width="45" height="45" viewBox="0 0 45 45" fill="none" xmlns="http://www.w3.org/2000/svg">
<path opacity="0.2" d="M32.3438 26.7188L29.7756 38.2746C29.706 38.5868 29.5321 38.866 29.2825 39.066C29.0329 39.2661 28.7226 39.3751 28.4027 39.375H16.5973C16.2774 39.3751 15.9671 39.2661 15.7175 39.066C15.4679 38.866 15.294 38.5868 15.2244 38.2746L12.6562 26.7188H32.3438Z" fill="#03111C"/>
<path d="M35.1561 25.3125H21.6737L22.0868 24.8994L25.6129 21.3732C27.0371 22.0905 28.6063 22.4728 30.2008 22.4912C31.8058 22.4954 33.3807 22.0562 34.7518 21.222C38.9213 18.6978 41.1555 12.8549 40.7284 5.59158C40.7083 5.24755 40.5625 4.92287 40.3189 4.67919C40.0752 4.43551 39.7505 4.28979 39.4065 4.2697C32.1432 3.84431 26.3002 6.07673 23.7743 10.2463C22.1307 12.9621 22.0885 16.2422 23.6231 19.3869L21.0936 21.9164L18.9473 19.7701C20.002 17.441 19.9264 15.024 18.703 13.006C16.7922 9.84372 12.41 8.15622 6.98363 8.47615C6.6402 8.49661 6.31618 8.64226 6.0729 8.88554C5.82963 9.12881 5.68398 9.45283 5.66351 9.79626C5.34359 15.2226 7.03109 19.6031 10.1952 21.5156C11.2537 22.1619 12.4705 22.5026 13.7108 22.5C14.836 22.4888 15.9458 22.2377 16.9662 21.7635L19.1055 23.9062L17.6993 25.3125H9.84359C9.47063 25.3125 9.11294 25.4606 8.84922 25.7244C8.5855 25.9881 8.43734 26.3458 8.43734 26.7187C8.43734 27.0917 8.5855 27.4494 8.84922 27.7131C9.11294 27.9768 9.47063 28.125 9.84359 28.125H11.5293L13.8514 38.5787C13.9869 39.2051 14.3337 39.7659 14.8337 40.1669C15.3336 40.5679 15.9562 40.7848 16.5971 40.7812H28.4043C29.0451 40.7842 29.6674 40.567 30.1672 40.1661C30.6669 39.7652 31.0139 39.2048 31.15 38.5787L33.4721 28.125H35.1561C35.529 28.125 35.8867 27.9768 36.1505 27.7131C36.4142 27.4494 36.5623 27.0917 36.5623 26.7187C36.5623 26.3458 36.4142 25.9881 36.1505 25.7244C35.8867 25.4606 35.529 25.3125 35.1561 25.3125ZM26.1912 11.7035C28.0299 8.66951 32.384 6.9574 37.9686 7.03298C38.0407 12.6246 36.3321 16.9787 33.2981 18.8103C31.2748 20.0408 28.8332 19.9599 26.3934 18.6029C25.0346 16.1718 24.9608 13.7267 26.1912 11.7035ZM16.1911 19.0037C14.5739 19.8685 12.9725 19.909 11.6506 19.1092C9.62914 17.884 8.46371 14.9959 8.43734 11.25C12.1832 11.2763 15.0731 12.4418 16.2965 14.4633C17.0981 15.7851 17.0506 17.3865 16.1911 19.0037ZM28.4043 37.9687H16.5971L14.4139 28.125H30.5858L28.4043 37.9687Z" fill="#03111C"/>
</svg>
