<svg width="45" height="45" viewBox="0 0 45 45" fill="none" xmlns="http://www.w3.org/2000/svg">
<path opacity="0.2" d="M40.37 17.2863L30.3031 27.3867C32.3175 31.4174 30.0007 35.448 28.5259 37.4062C28.4046 37.5655 28.2507 37.697 28.0746 37.7919C27.8984 37.8869 27.7039 37.9432 27.5043 37.957C27.3046 37.9708 27.1043 37.9418 26.9167 37.872C26.7291 37.8022 26.5586 37.6931 26.4165 37.5521L7.4427 18.5906C7.30268 18.4507 7.19376 18.2829 7.12306 18.098C7.05236 17.9132 7.02148 17.7155 7.03243 17.5179C7.04338 17.3203 7.09592 17.1272 7.18661 16.9513C7.2773 16.7754 7.4041 16.6206 7.55872 16.4971C12.7706 12.2924 17.6486 14.7392 17.6486 14.7392L27.7156 4.63885C27.9793 4.37533 28.3368 4.22729 28.7096 4.22729C29.0824 4.22729 29.4399 4.37533 29.7036 4.63885L40.37 15.293C40.5013 15.4236 40.6055 15.5789 40.6766 15.75C40.7477 15.921 40.7842 16.1044 40.7842 16.2896C40.7842 16.4749 40.7477 16.6583 40.6766 16.8293C40.6055 17.0003 40.5013 17.1556 40.37 17.2863Z" fill="#03111C"/>
<path d="M41.365 14.3033L30.6968 3.63686C30.4357 3.37562 30.1256 3.1684 29.7843 3.02702C29.4431 2.88563 29.0773 2.81287 28.7079 2.81287C28.3385 2.81287 27.9727 2.88563 27.6314 3.02702C27.2902 3.1684 26.9801 3.37562 26.7189 3.63686L17.2918 13.0939C15.4179 12.5068 11.1394 11.7984 6.67458 15.4037C6.36683 15.6511 6.11464 15.9606 5.93443 16.312C5.75422 16.6634 5.65003 17.0488 5.62864 17.4431C5.60725 17.8374 5.66914 18.2318 5.81028 18.6006C5.95142 18.9695 6.16864 19.3044 6.44782 19.5837L14.9416 28.074L7.44274 35.5675C7.17887 35.8314 7.03063 36.1893 7.03063 36.5624C7.03063 36.9356 7.17887 37.2935 7.44274 37.5574C7.70661 37.8212 8.06449 37.9695 8.43766 37.9695C8.81083 37.9695 9.16871 37.8212 9.43258 37.5574L16.9261 30.0585L25.4146 38.547C25.6756 38.8091 25.9856 39.0171 26.3271 39.1591C26.6685 39.3012 27.0346 39.3745 27.4045 39.3749C27.4713 39.3749 27.5363 39.3749 27.6031 39.3749C28.004 39.3472 28.3943 39.2334 28.7473 39.0414C29.1004 38.8494 29.408 38.5837 29.6492 38.2622C33.1015 33.6744 32.7693 29.9443 31.9677 27.7154L41.3668 18.2812C41.6279 18.0199 41.835 17.7097 41.9762 17.3684C42.1174 17.0271 42.19 16.6613 42.1899 16.2919C42.1897 15.9225 42.1168 15.5567 41.9752 15.2155C41.8337 14.8743 41.6264 14.5643 41.365 14.3033ZM39.3752 16.2931L29.3082 26.3935C29.1003 26.6022 28.9631 26.8709 28.9162 27.1617C28.8692 27.4525 28.9147 27.7507 29.0463 28.0142C30.7091 31.3417 28.7298 34.7976 27.4045 36.5607L8.43766 17.5921C10.5611 15.88 12.5931 15.4283 14.147 15.4283C15.133 15.4148 16.1109 15.6082 17.0175 15.996C17.282 16.1284 17.5816 16.174 17.8735 16.1264C18.1654 16.0787 18.4348 15.9402 18.6435 15.7306L28.7088 5.62494L39.3752 16.2913V16.2931Z" fill="#03111C"/>
</svg>
