<svg width="45" height="45" viewBox="0 0 45 45" fill="none" xmlns="http://www.w3.org/2000/svg">
<path opacity="0.2" d="M35.8594 29.5313C36.5889 29.5319 37.3094 29.3704 37.9688 29.0584V36.5626C37.9688 36.9355 37.8206 37.2932 37.5569 37.5569C37.2932 37.8206 36.9355 37.9688 36.5625 37.9688H11.25C10.8771 37.9688 10.5194 37.8206 10.2557 37.5569C9.99193 37.2932 9.84377 36.9355 9.84377 36.5626V29.0584C9.09359 29.4134 8.26584 29.5729 7.43748 29.5221C6.60912 29.4713 5.80706 29.2118 5.10587 28.7679C4.40469 28.3239 3.82714 27.7099 3.42695 26.9828C3.02675 26.2558 2.81689 25.4393 2.81689 24.6094C2.81689 23.7795 3.02675 22.9631 3.42695 22.236C3.82714 21.509 4.40469 20.8949 5.10587 20.451C5.80706 20.007 6.60912 19.7476 7.43748 19.6968C8.26584 19.646 9.09359 19.8055 9.84377 20.1604V12.6563C9.84377 12.2833 9.99193 11.9257 10.2557 11.6619C10.5194 11.3982 10.8771 11.25 11.25 11.25H19.4573C19.1019 10.4999 18.9421 9.67198 18.9927 8.84344C19.0432 8.01489 19.3025 7.21259 19.7464 6.51116C20.1903 5.80973 20.8044 5.23197 21.5315 4.83161C22.2587 4.43126 23.0753 4.22131 23.9054 4.22131C24.7355 4.22131 25.5521 4.43126 26.2792 4.83161C27.0064 5.23197 27.6205 5.80973 28.0644 6.51116C28.5083 7.21259 28.7676 8.01489 28.8181 8.84344C28.8687 9.67198 28.7089 10.4999 28.3535 11.25H36.5625C36.9355 11.25 37.2932 11.3982 37.5569 11.6619C37.8206 11.9257 37.9688 12.2833 37.9688 12.6563V20.1604C37.3018 19.8449 36.5725 19.6833 35.8347 19.6876C35.0969 19.692 34.3696 19.8622 33.7064 20.1856C33.0433 20.509 32.4613 20.9773 32.0036 21.556C31.5458 22.1346 31.2241 22.8088 31.062 23.5286C30.9 24.2484 30.9019 24.9954 31.0675 25.7143C31.2332 26.4333 31.5583 27.1059 32.0189 27.6822C32.4795 28.2586 33.0638 28.724 33.7286 29.0441C34.3934 29.3641 35.1216 29.5306 35.8594 29.5313Z" fill="#03111C"/>
<path d="M38.7195 27.8683C38.519 27.7419 38.2897 27.6681 38.0531 27.654C37.8165 27.6399 37.5801 27.6858 37.366 27.7875C36.8301 28.0409 36.2389 28.1547 35.6473 28.1184C35.0556 28.082 34.4828 27.8966 33.982 27.5795C33.4812 27.2624 33.0688 26.8238 32.783 26.3045C32.4972 25.7852 32.3473 25.2021 32.3473 24.6094C32.3473 24.0166 32.4972 23.4335 32.783 22.9142C33.0688 22.3949 33.4812 21.9563 33.982 21.6392C34.4828 21.3221 35.0556 21.1367 35.6473 21.1004C36.2389 21.064 36.8301 21.1778 37.366 21.4312C37.5803 21.533 37.817 21.5788 38.0538 21.5645C38.2907 21.5501 38.5201 21.4761 38.7206 21.3492C38.9212 21.2224 39.0864 21.0469 39.2008 20.839C39.3152 20.6311 39.3752 20.3976 39.3751 20.1603V12.6562C39.3751 11.9103 39.0788 11.1949 38.5514 10.6675C38.0239 10.14 37.3086 9.84373 36.5626 9.84373H30.1958C30.222 9.61028 30.2349 9.37553 30.2345 9.14061C30.233 8.2761 30.0552 7.42098 29.7118 6.62758C29.3685 5.83418 28.8669 5.11919 28.2376 4.52635C27.3661 3.70787 26.2806 3.15303 25.1067 2.92608C23.9328 2.69914 22.7187 2.80939 21.6049 3.24405C20.4911 3.67871 19.5233 4.42 18.8134 5.38207C18.1036 6.34414 17.6808 7.48762 17.5941 8.68006C17.5671 9.0679 17.5753 9.45739 17.6187 9.84373H11.2501C10.5042 9.84373 9.78884 10.14 9.26139 10.6675C8.73395 11.1949 8.43763 11.9103 8.43763 12.6562V18.3199C8.20418 18.2937 7.96943 18.2808 7.73451 18.2812C6.87025 18.2826 6.01537 18.4605 5.22225 18.8038C4.42912 19.1472 3.71445 19.6489 3.12201 20.2781C2.52532 20.9084 2.06586 21.6556 1.77268 22.4725C1.47949 23.2895 1.35896 24.1583 1.41869 25.0242C1.51946 26.5489 2.1673 27.9859 3.24307 29.0711C4.31884 30.1562 5.75021 30.8165 7.27396 30.9305C7.6618 30.9575 8.05129 30.9492 8.43763 30.9058V36.5625C8.43763 37.3084 8.73395 38.0238 9.26139 38.5512C9.78884 39.0787 10.5042 39.375 11.2501 39.375H36.5626C37.3086 39.375 38.0239 39.0787 38.5514 38.5512C39.0788 38.0238 39.3751 37.3084 39.3751 36.5625V29.0584C39.3753 28.8208 39.3152 28.587 39.2006 28.3789C39.0859 28.1708 38.9204 27.9952 38.7195 27.8683ZM36.5626 36.5625H11.2501V29.0584C11.2502 28.8211 11.1902 28.5876 11.0758 28.3797C10.9614 28.1719 10.7962 27.9963 10.5956 27.8695C10.3951 27.7426 10.1657 27.6686 9.92884 27.6542C9.69197 27.6399 9.45533 27.6857 9.24095 27.7875C8.70511 28.0409 8.11389 28.1547 7.52226 28.1184C6.93063 28.082 6.3578 27.8966 5.85702 27.5795C5.35624 27.2624 4.94377 26.8238 4.65796 26.3045C4.37216 25.7852 4.22228 25.2021 4.22228 24.6094C4.22228 24.0166 4.37216 23.4335 4.65796 22.9142C4.94377 22.3949 5.35624 21.9563 5.85702 21.6392C6.3578 21.3221 6.93063 21.1367 7.52226 21.1004C8.11389 21.064 8.70511 21.1778 9.24095 21.4312C9.45533 21.533 9.69197 21.5788 9.92884 21.5645C10.1657 21.5501 10.3951 21.4761 10.5956 21.3492C10.7962 21.2224 10.9614 21.0469 11.0758 20.839C11.1902 20.6311 11.2502 20.3976 11.2501 20.1603V12.6562H19.4574C19.6947 12.6563 19.9281 12.5963 20.136 12.4819C20.3439 12.3675 20.5194 12.2023 20.6463 12.0017C20.7731 11.8012 20.8472 11.5718 20.8615 11.3349C20.8758 11.0981 20.83 10.8614 20.7283 10.6471C20.4748 10.1112 20.361 9.51999 20.3974 8.92836C20.4337 8.33673 20.6191 7.7639 20.9362 7.26312C21.2533 6.76234 21.6919 6.34988 22.2112 6.06407C22.7305 5.77826 23.3136 5.62839 23.9064 5.62839C24.4991 5.62839 25.0823 5.77826 25.6015 6.06407C26.1208 6.34988 26.5594 6.76234 26.8765 7.26312C27.1937 7.7639 27.379 8.33673 27.4154 8.92836C27.4517 9.51999 27.3379 10.1112 27.0845 10.6471C26.9828 10.8614 26.9369 11.0981 26.9513 11.3349C26.9656 11.5718 27.0396 11.8012 27.1665 12.0017C27.2934 12.2023 27.4689 12.3675 27.6768 12.4819C27.8846 12.5963 28.1181 12.6563 28.3554 12.6562H36.5626V18.3217C36.1763 18.2774 35.7868 18.2692 35.399 18.2971C33.7623 18.4129 32.2346 19.16 31.1382 20.3807C30.0417 21.6013 29.4623 23.2001 29.522 24.8398C29.5818 26.4795 30.276 28.0319 31.4584 29.1695C32.6407 30.3071 34.2187 30.941 35.8595 30.9375C36.0944 30.9379 36.3292 30.925 36.5626 30.8988V36.5625Z" fill="#03111C"/>
</svg>
