<svg width="45" height="45" viewBox="0 0 45 45" fill="none" xmlns="http://www.w3.org/2000/svg">
<path opacity="0.2" d="M32.3439 21.0938V31.9307C32.3437 32.3031 32.1958 32.6603 31.9326 32.9238L25.8945 38.9619C25.7097 39.1463 25.4773 39.2756 25.2232 39.3353C24.9692 39.3951 24.7035 39.383 24.4559 39.3003C24.2084 39.2177 23.9887 39.0678 23.8215 38.8674C23.6542 38.667 23.5461 38.424 23.5091 38.1656L22.5001 30.9375L32.3439 21.0938ZM23.9064 12.6562H13.0695C12.697 12.6564 12.3398 12.8044 12.0763 13.0676L6.03823 19.1057C5.85388 19.2904 5.72458 19.5228 5.66481 19.7769C5.60504 20.031 5.61716 20.2967 5.6998 20.5442C5.78245 20.7918 5.93236 21.0115 6.13276 21.1787C6.33317 21.3459 6.57615 21.454 6.83452 21.491L14.0626 22.5L23.9064 12.6562ZM7.0314 37.9688C13.6496 37.9688 15.9417 34.5076 16.622 33.0152L11.9849 28.3781C10.4925 29.0584 7.0314 31.3506 7.0314 37.9688Z" fill="#03111C"/>
<path d="M39.3489 8.28275C39.3072 7.59708 39.016 6.95036 38.5303 6.46462C38.0445 5.97888 37.3978 5.6877 36.7121 5.64604C34.5008 5.5142 28.8494 5.71635 24.1596 10.4044L23.3246 11.2499H13.0713C12.7006 11.2479 12.3331 11.3195 11.9903 11.4607C11.6474 11.602 11.3361 11.81 11.0744 12.0726L5.04514 18.1054C4.67538 18.4749 4.41592 18.9402 4.29587 19.4489C4.17582 19.9577 4.19994 20.4899 4.36552 20.9857C4.5311 21.4815 4.83159 21.9214 5.23326 22.2559C5.63493 22.5905 6.12188 22.8065 6.63948 22.8796L13.4018 23.8236L21.1731 31.5949L22.117 38.3607C22.1896 38.8783 22.4055 39.3653 22.7404 39.7666C23.0753 40.168 23.5157 40.4676 24.0119 40.6318C24.301 40.7283 24.6037 40.7776 24.9084 40.7777C25.2774 40.7784 25.6429 40.706 25.9838 40.5648C26.3247 40.4237 26.6343 40.2164 26.8948 39.955L32.9276 33.9257C33.1902 33.664 33.3982 33.3527 33.5394 33.0099C33.6807 32.6671 33.7523 32.2996 33.7502 31.9289V21.6755L34.5887 20.8371C39.2785 16.1472 39.4807 10.4958 39.3489 8.28275ZM13.0713 14.0624H20.5121L13.5635 21.0093L7.03147 20.0988L13.0713 14.0624ZM26.1512 12.4013C27.5025 11.0417 29.1283 9.98609 30.9201 9.30495C32.7119 8.62382 34.6284 8.33286 36.5416 8.4515C36.6649 10.3657 36.3769 12.2842 35.6972 14.0778C35.0174 15.8715 33.9616 17.499 32.6006 18.8507L22.5002 28.9476L16.0526 22.4999L26.1512 12.4013ZM30.9377 31.9289L24.9031 37.9687L23.9908 31.4349L30.9377 24.488V31.9289ZM17.9018 33.5988C17.1108 35.332 14.4653 39.3749 7.03147 39.3749C6.65851 39.3749 6.30082 39.2268 6.0371 38.9631C5.77338 38.6993 5.62522 38.3417 5.62522 37.9687C5.62522 30.5349 9.66819 27.8894 11.4014 27.0966C11.5694 27.02 11.7509 26.9772 11.9355 26.9707C12.1201 26.9642 12.3042 26.9941 12.4772 27.0588C12.6502 27.1234 12.8088 27.2215 12.9439 27.3474C13.079 27.4734 13.188 27.6247 13.2647 27.7927C13.3413 27.9608 13.3841 28.1423 13.3906 28.3269C13.3971 28.5114 13.3672 28.6955 13.3025 28.8685C13.2379 29.0415 13.1398 29.2001 13.0139 29.3353C12.8879 29.4704 12.7366 29.5794 12.5686 29.656C11.4383 30.171 8.94397 31.8287 8.50452 36.4956C13.1715 36.0562 14.8326 33.5619 15.3442 32.4316C15.4208 32.2635 15.5298 32.1122 15.6649 31.9863C15.8 31.8604 15.9586 31.7623 16.1316 31.6976C16.3047 31.633 16.4887 31.6031 16.6733 31.6096C16.8579 31.6161 17.0394 31.6589 17.2074 31.7355C17.3755 31.8121 17.5268 31.9211 17.6527 32.0562C17.7787 32.1913 17.8768 32.3499 17.9414 32.523C18.006 32.696 18.036 32.88 18.0295 33.0646C18.023 33.2492 17.9802 33.4307 17.9035 33.5988H17.9018Z" fill="#03111C"/>
</svg>
