<svg width="45" height="45" viewBox="0 0 45 45" fill="none" xmlns="http://www.w3.org/2000/svg">
<path opacity="0.2" d="M40.3702 15.8801L15.8803 40.3699C15.6166 40.6334 15.2591 40.7815 14.8863 40.7815C14.5135 40.7815 14.1559 40.6334 13.8922 40.3699L4.63031 31.1133C4.36678 30.8496 4.21875 30.492 4.21875 30.1192C4.21875 29.7464 4.36678 29.3889 4.63031 29.1252L29.1202 4.63006C29.3838 4.36654 29.7414 4.21851 30.1142 4.21851C30.487 4.21851 30.8445 4.36654 31.1082 4.63006L40.3702 13.8867C40.5014 14.0174 40.6056 14.1727 40.6767 14.3437C40.7478 14.5148 40.7843 14.6982 40.7843 14.8834C40.7843 15.0686 40.7478 15.252 40.6767 15.423C40.6056 15.5941 40.5014 15.7494 40.3702 15.8801Z" fill="#03111C"/>
<path d="M41.3647 12.897L32.1028 3.63686C31.8416 3.37562 31.5315 3.1684 31.1903 3.02702C30.849 2.88563 30.4832 2.81287 30.1138 2.81287C29.7444 2.81287 29.3787 2.88563 29.0374 3.02702C28.6961 3.1684 28.386 3.37562 28.1249 3.63686L3.63502 28.1249C3.37379 28.3861 3.16657 28.6962 3.02519 29.0375C2.8838 29.3787 2.81104 29.7445 2.81104 30.1139C2.81104 30.4833 2.8838 30.8491 3.02519 31.1904C3.16657 31.5316 3.37379 31.8417 3.63502 32.1029L12.8969 41.363C13.1581 41.6243 13.4682 41.8315 13.8095 41.9729C14.1507 42.1142 14.5165 42.187 14.8859 42.187C15.2553 42.187 15.6211 42.1142 15.9623 41.9729C16.3036 41.8315 16.6137 41.6243 16.8749 41.363L41.3647 16.8749C41.6259 16.6138 41.8332 16.3037 41.9745 15.9624C42.1159 15.6212 42.1887 15.2554 42.1887 14.886C42.1887 14.5166 42.1159 14.1508 41.9745 13.8095C41.8332 13.4683 41.6259 13.1582 41.3647 12.897ZM14.885 39.3749L5.62487 30.113L11.2499 24.488L15.8799 29.1199C16.0106 29.2505 16.1657 29.3542 16.3364 29.4249C16.5071 29.4956 16.6901 29.532 16.8749 29.532C17.0596 29.532 17.2426 29.4956 17.4133 29.4249C17.584 29.3542 17.7391 29.2505 17.8698 29.1199C18.0004 28.9892 18.1041 28.8341 18.1748 28.6634C18.2455 28.4927 18.2819 28.3097 18.2819 28.1249C18.2819 27.9402 18.2455 27.7572 18.1748 27.5865C18.1041 27.4158 18.0004 27.2607 17.8698 27.13L13.238 22.4999L16.8749 18.863L21.5049 23.4949C21.7688 23.7587 22.1267 23.907 22.4999 23.907C22.873 23.907 23.2309 23.7587 23.4948 23.4949C23.7587 23.231 23.9069 22.8731 23.9069 22.4999C23.9069 22.1268 23.7587 21.7689 23.4948 21.505L18.863 16.8749L22.4999 13.238L27.1299 17.8699C27.2606 18.0005 27.4157 18.1042 27.5864 18.1749C27.7571 18.2456 27.9401 18.282 28.1249 18.282C28.3096 18.282 28.4926 18.2456 28.6633 18.1749C28.834 18.1042 28.9891 18.0005 29.1198 17.8699C29.2504 17.7392 29.3541 17.5841 29.4248 17.4134C29.4955 17.2427 29.5319 17.0597 29.5319 16.8749C29.5319 16.6902 29.4955 16.5072 29.4248 16.3365C29.3541 16.1658 29.2504 16.0107 29.1198 15.88L24.488 11.2499L30.113 5.62494L39.3749 14.8869L14.885 39.3749Z" fill="#03111C"/>
</svg>
