<svg width="45" height="45" viewBox="0 0 45 45" fill="none" xmlns="http://www.w3.org/2000/svg">
<path opacity="0.2" d="M9.84375 15.4688L15.4688 29.5312C15.4688 32.6373 11.9531 33.75 9.84375 33.75C7.73438 33.75 4.21875 32.6373 4.21875 29.5312L9.84375 15.4688ZM35.1562 9.84375L29.5312 23.9062C29.5312 27.0123 33.0469 28.125 35.1562 28.125C37.2656 28.125 40.7812 27.0123 40.7812 23.9062L35.1562 9.84375Z" fill="#03111C"/>
<path d="M42.0873 23.3789L36.4623 9.31641C36.3385 9.00665 36.1085 8.75102 35.8136 8.59517C35.5186 8.43932 35.1779 8.39341 34.8522 8.46562L23.9063 10.8984V7.03125C23.9063 6.65829 23.7581 6.3006 23.4944 6.03688C23.2307 5.77316 22.873 5.625 22.5 5.625C22.1271 5.625 21.7694 5.77316 21.5057 6.03688C21.2419 6.3006 21.0938 6.65829 21.0938 7.03125V11.5277L9.53792 14.0959C9.31512 14.1451 9.10764 14.2478 8.93338 14.3951C8.75913 14.5424 8.62334 14.7299 8.53772 14.9414V14.952L2.91272 29.0039C2.84543 29.1715 2.8114 29.3506 2.81253 29.5312C2.81253 33.6287 7.1262 35.1562 9.84378 35.1562C12.5614 35.1562 16.875 33.6287 16.875 29.5312C16.8762 29.3506 16.8421 29.1715 16.7748 29.0039L11.7633 16.483L21.0938 14.4141V36.5625H18.2813C17.9083 36.5625 17.5506 36.7107 17.2869 36.9744C17.0232 37.2381 16.875 37.5958 16.875 37.9688C16.875 38.3417 17.0232 38.6994 17.2869 38.9631C17.5506 39.2268 17.9083 39.375 18.2813 39.375H26.7188C27.0917 39.375 27.4494 39.2268 27.7131 38.9631C27.9769 38.6994 28.125 38.3417 28.125 37.9688C28.125 37.5958 27.9769 37.2381 27.7131 36.9744C27.4494 36.7107 27.0917 36.5625 26.7188 36.5625H23.9063V13.7848L32.8711 11.7949L28.2252 23.3789C28.1579 23.5465 28.1239 23.7256 28.125 23.9062C28.125 28.0037 32.4387 29.5312 35.1563 29.5312C37.8739 29.5312 42.1875 28.0037 42.1875 23.9062C42.1887 23.7256 42.1546 23.5465 42.0873 23.3789ZM9.84378 32.3438C8.52014 32.3438 5.843 31.7092 5.63733 29.7703L9.84378 19.2551L14.0502 29.7703C13.8446 31.7092 11.1674 32.3438 9.84378 32.3438ZM35.1563 26.7188C33.8326 26.7188 31.1555 26.0842 30.9498 24.1453L35.1563 13.6301L39.3627 24.1453C39.1571 26.0842 36.4799 26.7188 35.1563 26.7188Z" fill="#03111C"/>
</svg>
