<svg width="45" height="45" viewBox="0 0 45 45" fill="none" xmlns="http://www.w3.org/2000/svg">
<path opacity="0.2" d="M40.2643 19.1232L31.7038 26.506L34.3194 37.5433C34.3885 37.827 34.372 38.1248 34.272 38.399C34.172 38.6733 33.9929 38.9118 33.7573 39.0843C33.5218 39.2568 33.2404 39.3556 32.9487 39.3682C32.657 39.3809 32.3682 39.3067 32.1186 39.1552L22.4999 33.2385L12.8811 39.1535C12.6315 39.305 12.3427 39.3791 12.051 39.3665C11.7593 39.3538 11.4779 39.255 11.2424 39.0825C11.0069 38.91 10.8277 38.6715 10.7277 38.3973C10.6277 38.123 10.6112 37.8252 10.6803 37.5416L13.2959 26.5043L4.7354 19.1215C4.51713 18.9298 4.35977 18.6784 4.28274 18.3984C4.20571 18.1183 4.21238 17.8218 4.30193 17.5455C4.39148 17.2692 4.55999 17.0252 4.78665 16.8435C5.01331 16.6619 5.2882 16.5506 5.57739 16.5234L16.8116 15.6094L21.1393 5.13279C21.2496 4.86251 21.438 4.63121 21.6803 4.46839C21.9226 4.30558 22.2079 4.21863 22.4999 4.21863C22.7918 4.21863 23.0771 4.30558 23.3194 4.46839C23.5617 4.63121 23.7501 4.86251 23.8604 5.13279L28.1881 15.6094L39.4223 16.5234C39.7119 16.5503 39.9872 16.6615 40.2143 16.8432C40.4413 17.025 40.6101 17.2693 40.6997 17.546C40.7893 17.8226 40.7958 18.1195 40.7184 18.3999C40.641 18.6802 40.4831 18.9317 40.2643 19.1232Z" fill="#03111C"/>
<path d="M42.0436 17.0965C41.8678 16.556 41.5359 16.0796 41.0898 15.7274C40.6438 15.3752 40.1034 15.1629 39.5369 15.1172L29.1658 14.2805L25.1615 4.59668C24.945 4.06901 24.5764 3.61766 24.1027 3.30001C23.629 2.98235 23.0715 2.81274 22.5011 2.81274C21.9307 2.81274 21.3732 2.98235 20.8995 3.30001C20.4258 3.61766 20.0572 4.06901 19.8406 4.59668L15.8399 14.2787L5.46349 15.1172C4.89603 15.1652 4.35535 15.3796 3.90919 15.7335C3.46303 16.0874 3.13123 16.5651 2.95537 17.1068C2.77952 17.6484 2.76741 18.2299 2.92058 18.7784C3.07375 19.327 3.38538 19.8181 3.81642 20.1902L11.7266 27.0158L9.31662 37.2217C9.18183 37.7761 9.21484 38.3581 9.41143 38.8938C9.60802 39.4295 9.95935 39.8947 10.4208 40.2303C10.8823 40.5659 11.433 40.7569 12.0032 40.7789C12.5734 40.801 13.1373 40.6531 13.6233 40.3541L22.5002 34.8908L31.3824 40.3541C31.8686 40.6496 32.4313 40.7946 32.9997 40.7709C33.5681 40.7472 34.1168 40.5559 34.5767 40.221C35.0366 39.886 35.3871 39.4226 35.5841 38.8888C35.7811 38.3551 35.8158 37.7751 35.6838 37.2217L33.2651 27.0141L41.1752 20.1885C41.6097 19.8169 41.9242 19.3247 42.0788 18.7743C42.2334 18.2239 42.2211 17.6399 42.0436 17.0965ZM39.3471 18.058L30.7865 25.4408C30.5913 25.6091 30.4461 25.8278 30.3667 26.073C30.2874 26.3182 30.2769 26.5805 30.3365 26.8313L32.9522 37.8703C32.9589 37.8855 32.9596 37.9028 32.954 37.9185C32.9485 37.9342 32.9371 37.9471 32.9223 37.9547C32.8906 37.9793 32.8819 37.974 32.8555 37.9547L23.2367 32.0397C23.0152 31.9035 22.7603 31.8313 22.5002 31.8313C22.2402 31.8313 21.9852 31.9035 21.7637 32.0397L12.1449 37.9582C12.1186 37.974 12.1115 37.9793 12.0781 37.9582C12.0633 37.9506 12.0519 37.9377 12.0464 37.922C12.0408 37.9063 12.0415 37.889 12.0483 37.8738L14.6639 26.8348C14.7235 26.584 14.713 26.3217 14.6337 26.0765C14.5543 25.8313 14.4091 25.6126 14.2139 25.4443L5.65334 18.0615C5.63224 18.0439 5.61291 18.0281 5.63048 17.9736C5.64806 17.9191 5.66212 17.9262 5.68849 17.9227L16.9244 17.0156C17.1821 16.9935 17.4288 16.9008 17.6372 16.7476C17.8456 16.5944 18.0077 16.3866 18.1057 16.1473L22.4334 5.66895C22.4475 5.63906 22.4527 5.625 22.4949 5.625C22.5371 5.625 22.5424 5.63906 22.5565 5.66895L26.8947 16.1473C26.9937 16.3867 27.1568 16.5942 27.3662 16.7468C27.5755 16.8994 27.823 16.9912 28.0813 17.0121L39.3172 17.9191C39.3436 17.9191 39.3594 17.9191 39.3752 17.9701C39.391 18.0211 39.3752 18.0404 39.3471 18.058Z" fill="#03111C"/>
</svg>
