<svg width="45" height="45" viewBox="0 0 45 45" fill="none" xmlns="http://www.w3.org/2000/svg">
<path opacity="0.2" d="M39.375 16.875V19.6875C39.375 21.1793 38.7824 22.6101 37.7275 23.665C36.6726 24.7199 35.2418 25.3125 33.75 25.3125C32.2582 25.3125 30.8274 24.7199 29.7725 23.665C28.7176 22.6101 28.125 21.1793 28.125 19.6875V16.875H16.875V19.6875C16.875 21.1793 16.2824 22.6101 15.2275 23.665C14.1726 24.7199 12.7418 25.3125 11.25 25.3125C9.75816 25.3125 8.32742 24.7199 7.27252 23.665C6.21763 22.6101 5.625 21.1793 5.625 19.6875V16.875L8.1457 8.05078C8.22946 7.75795 8.40602 7.50022 8.64884 7.31636C8.89166 7.13251 9.18761 7.03245 9.49219 7.03125H35.5078C35.8133 7.03131 36.1104 7.13084 36.3543 7.31478C36.5982 7.49873 36.7756 7.75708 36.8596 8.05078L39.375 16.875Z" fill="#03111C"/>
<path d="M40.7268 16.49L38.2061 7.66406C38.0365 7.07856 37.6821 6.56361 37.1958 6.1961C36.7095 5.8286 36.1174 5.62826 35.5078 5.625H9.49219C8.88264 5.62826 8.2905 5.8286 7.80419 6.1961C7.31788 6.56361 6.96349 7.07856 6.79395 7.66406L4.27324 16.49C4.23721 16.6152 4.21886 16.7448 4.21875 16.875V19.6875C4.21875 20.7791 4.4729 21.8556 4.96106 22.832C5.44922 23.8083 6.158 24.6576 7.03125 25.3125V37.9688C7.03125 38.3417 7.17941 38.6994 7.44313 38.9631C7.70685 39.2268 8.06454 39.375 8.4375 39.375H36.5625C36.9355 39.375 37.2931 39.2268 37.5569 38.9631C37.8206 38.6994 37.9688 38.3417 37.9688 37.9688V25.3125C38.842 24.6576 39.5508 23.8083 40.0389 22.832C40.5271 21.8556 40.7812 20.7791 40.7812 19.6875V16.875C40.7811 16.7448 40.7628 16.6152 40.7268 16.49ZM9.49219 8.4375H35.5078L37.5152 15.4688H7.49004L9.49219 8.4375ZM26.7188 18.2812V19.6875C26.7187 20.8064 26.2743 21.8794 25.4831 22.6706C24.6919 23.4618 23.6189 23.9062 22.5 23.9062C21.3811 23.9062 20.3081 23.4618 19.5169 22.6706C18.7257 21.8794 18.2812 20.8064 18.2812 19.6875V18.2812H26.7188ZM8.97539 23.2383C8.37962 22.8569 7.88933 22.3318 7.5496 21.7113C7.20988 21.0908 7.03163 20.3949 7.03125 19.6875V18.2812H15.4688V19.6875C15.4685 20.413 15.2812 21.1261 14.9249 21.758C14.5686 22.39 14.0553 22.9193 13.4347 23.295C12.8141 23.6707 12.1071 23.88 11.382 23.9027C10.6569 23.9254 9.9382 23.7607 9.29531 23.4246C9.19749 23.3485 9.08989 23.2858 8.97539 23.2383ZM35.1562 36.5625H9.84375V26.5781C10.3067 26.6714 10.7778 26.7186 11.25 26.7188C12.3416 26.7188 13.4181 26.4646 14.3945 25.9764C15.3708 25.4883 16.2201 24.7795 16.875 23.9062C17.5299 24.7795 18.3792 25.4883 19.3555 25.9764C20.3319 26.4646 21.4084 26.7188 22.5 26.7188C23.5916 26.7188 24.6681 26.4646 25.6445 25.9764C26.6208 25.4883 27.4701 24.7795 28.125 23.9062C28.7799 24.7795 29.6292 25.4883 30.6055 25.9764C31.5819 26.4646 32.6584 26.7188 33.75 26.7188C34.2222 26.7186 34.6933 26.6714 35.1562 26.5781V36.5625ZM37.9688 19.6875C37.9682 20.3951 37.7897 21.0911 37.4496 21.7116C37.1096 22.3321 36.6189 22.8571 36.0229 23.2383C35.9099 23.2859 35.8035 23.3479 35.7064 23.4229C35.0636 23.7593 34.3449 23.9243 33.6197 23.9019C32.8945 23.8795 32.1873 23.6704 31.5665 23.2949C30.9457 22.9194 30.4322 22.3901 30.0757 21.7582C29.7192 21.1262 29.5316 20.4131 29.5312 19.6875V18.2812H37.9688V19.6875Z" fill="#03111C"/>
</svg>
