<svg width="45" height="45" viewBox="0 0 45 45" fill="none" xmlns="http://www.w3.org/2000/svg">
<path opacity="0.2" d="M23.885 7.57788L19.4905 32.7392C19.3521 33.5542 19.054 34.3338 18.6135 35.0333C18.173 35.7328 17.5986 36.3384 16.9234 36.8153C16.2482 37.2922 15.4855 37.6311 14.679 37.8124C13.8724 37.9938 13.038 38.014 12.2237 37.872C10.5788 37.5703 9.12019 36.6298 8.16664 35.256C7.21309 33.8821 6.84212 32.1867 7.13481 30.5402L11.5293 5.38062C11.5942 5.01609 11.8002 4.69185 12.1026 4.47827C12.4051 4.26469 12.7795 4.179 13.1448 4.2398L22.7547 5.95015C23.1198 6.01734 23.4436 6.22617 23.6553 6.5311C23.867 6.83603 23.9496 7.21232 23.885 7.57788Z" fill="#03111C"/>
<path d="M15.469 31.6406C15.469 32.0578 15.3453 32.4657 15.1135 32.8125C14.8817 33.1594 14.5522 33.4298 14.1668 33.5894C13.7814 33.7491 13.3572 33.7909 12.9481 33.7095C12.5389 33.6281 12.163 33.4272 11.868 33.1322C11.573 32.8372 11.3721 32.4613 11.2907 32.0522C11.2094 31.643 11.2511 31.2189 11.4108 30.8334C11.5704 30.448 11.8408 30.1185 12.1877 29.8868C12.5346 29.655 12.9424 29.5313 13.3596 29.5313C13.919 29.5313 14.4556 29.7535 14.8511 30.1491C15.2467 30.5447 15.469 31.0812 15.469 31.6406ZM42.1877 27.4553V36.5625C42.1877 37.3084 41.8914 38.0238 41.364 38.5513C40.8365 39.0787 40.1211 39.375 39.3752 39.375H13.3596C12.8918 39.3753 12.4248 39.3353 11.9639 39.2555C9.953 38.8886 8.16911 37.7406 7.00211 36.0624C5.8351 34.3842 5.37989 32.3123 5.73596 30.2994L10.1305 5.13986C10.1929 4.77632 10.3266 4.42868 10.5237 4.1169C10.7209 3.80512 10.9776 3.53534 11.2793 3.32303C11.5809 3.11071 11.9215 2.96005 12.2815 2.87969C12.6415 2.79932 13.0139 2.79083 13.3772 2.85471L22.9994 4.57033C23.7316 4.70228 24.3816 5.11892 24.8073 5.72906C25.2329 6.3392 25.3995 7.09312 25.2705 7.8258L23.1471 19.9547L35.0668 15.6445C35.7655 15.3922 36.5357 15.4265 37.2092 15.74C37.8827 16.0536 38.4048 16.6208 38.6615 17.318L42.0119 26.4885C42.1196 26.7999 42.1788 27.1259 42.1877 27.4553ZM18.1057 32.4967L22.5002 7.33713L12.9131 5.62502L8.51857 30.7793C8.28914 32.0588 8.57514 33.377 9.31416 34.4463C10.0532 35.5157 11.1852 36.2492 12.4631 36.4869C13.0887 36.5991 13.7303 36.5859 14.3508 36.448C14.9712 36.3101 15.558 36.0502 16.0772 35.6836C16.6096 35.3133 17.0631 34.8409 17.4113 34.2938C17.7596 33.7467 17.9956 33.1358 18.1057 32.4967ZM20.5279 34.2774L39.3752 27.4412L36.0213 18.2813L22.5881 23.1504L20.869 32.9801C20.7925 33.4215 20.6784 33.8555 20.5279 34.2774ZM39.3752 30.4313L22.4545 36.5625H39.3752V30.4313Z" fill="#03111C"/>
</svg>
