<svg width="45" height="45" viewBox="0 0 45 45" fill="none" xmlns="http://www.w3.org/2000/svg">
<path opacity="0.2" d="M37.9688 14.0625V33.75H7.03125V11.25H35.1562C35.9022 11.25 36.6175 11.5463 37.145 12.0738C37.6724 12.6012 37.9688 13.3166 37.9688 14.0625Z" fill="#03111C"/>
<path d="M20.6211 23.5547L7.96484 34.8047C7.82634 34.9274 7.66503 35.0216 7.49012 35.082C7.3152 35.1423 7.13012 35.1676 6.94542 35.1565C6.76073 35.1453 6.58005 35.0978 6.4137 35.0168C6.24734 34.9358 6.09857 34.8228 5.97588 34.6843C5.85319 34.5458 5.75898 34.3845 5.69863 34.2096C5.63828 34.0347 5.61298 33.8496 5.62416 33.6649C5.63534 33.4802 5.68279 33.2995 5.7638 33.1332C5.8448 32.9668 5.95779 32.8181 6.09629 32.6954L17.5783 22.5L6.09805 12.3047C5.95954 12.182 5.84656 12.0333 5.76555 11.8669C5.68455 11.7006 5.6371 11.5199 5.62591 11.3352C5.61473 11.1505 5.64004 10.9654 5.70039 10.7905C5.76074 10.6156 5.85495 10.4543 5.97764 10.3158C6.10033 10.1773 6.2491 10.0643 6.41545 9.98328C6.58181 9.90227 6.76249 9.85482 6.94718 9.84364C7.13188 9.83246 7.31696 9.85776 7.49187 9.91811C7.66679 9.97846 7.8281 10.0727 7.9666 10.1954L20.6229 21.4454C20.7725 21.5773 20.8923 21.7396 20.9744 21.9215C21.0565 22.1033 21.099 22.3005 21.099 22.5C21.099 22.6996 21.0565 22.8968 20.9744 23.0786C20.8923 23.2605 20.7725 23.4228 20.6229 23.5547H20.6211ZM37.9689 32.3438H21.0939C20.721 32.3438 20.3633 32.492 20.0996 32.7557C19.8359 33.0194 19.6877 33.3771 19.6877 33.75C19.6877 34.123 19.8359 34.4807 20.0996 34.7444C20.3633 35.0081 20.721 35.1563 21.0939 35.1563H37.9689C38.3419 35.1563 38.6996 35.0081 38.9633 34.7444C39.227 34.4807 39.3752 34.123 39.3752 33.75C39.3752 33.3771 39.227 33.0194 38.9633 32.7557C38.6996 32.492 38.3419 32.3438 37.9689 32.3438Z" fill="#03111C"/>
</svg>
