<svg width="45" height="45" viewBox="0 0 45 45" fill="none" xmlns="http://www.w3.org/2000/svg">
<path opacity="0.2" d="M40.7812 22.5V33.75H29.5312L40.7812 22.5Z" fill="#03111C"/>
<path d="M41.3189 21.201C41.062 21.0944 40.7793 21.0664 40.5064 21.1206C40.2336 21.1747 39.9829 21.3085 39.7861 21.5051L35.1561 26.137L24.901 15.8801C24.7704 15.7494 24.6153 15.6457 24.4446 15.5749C24.2738 15.5041 24.0909 15.4677 23.9061 15.4677C23.7213 15.4677 23.5383 15.5041 23.3675 15.5749C23.1968 15.6457 23.0417 15.7494 22.9111 15.8801L16.8748 21.9182L5.21348 10.2551C4.94961 9.99126 4.59172 9.84302 4.21856 9.84302C3.84539 9.84302 3.4875 9.99126 3.22363 10.2551C2.95976 10.519 2.81152 10.8769 2.81152 11.25C2.81152 11.6232 2.95976 11.9811 3.22363 12.245L15.8799 24.9012C16.0105 25.032 16.1656 25.1357 16.3363 25.2065C16.507 25.2772 16.69 25.3137 16.8748 25.3137C17.0596 25.3137 17.2426 25.2772 17.4133 25.2065C17.584 25.1357 17.7391 25.032 17.8697 24.9012L23.9061 18.8631L33.168 28.125L28.5361 32.7551C28.3392 32.9518 28.2051 33.2025 28.1508 33.4754C28.0964 33.7483 28.1243 34.0313 28.2308 34.2883C28.3373 34.5454 28.5177 34.7651 28.7492 34.9197C28.9807 35.0742 29.2528 35.1565 29.5311 35.1563H40.7811C41.154 35.1563 41.5117 35.0081 41.7754 34.7444C42.0391 34.4807 42.1873 34.123 42.1873 33.75V22.5C42.1872 22.2219 42.1047 21.9501 41.9502 21.7188C41.7956 21.4876 41.5759 21.3074 41.3189 21.201ZM39.3748 32.3438H32.9254L39.3748 25.8944V32.3438Z" fill="#03111C"/>
</svg>
