<svg width="45" height="45" viewBox="0 0 45 45" fill="none" xmlns="http://www.w3.org/2000/svg">
<path opacity="0.2" d="M39.375 22.5C39.3775 24.8666 38.881 27.2071 37.9178 29.3688C36.9546 31.5305 35.5464 33.4648 33.7852 35.0455C32.7262 32.9627 31.1114 31.2136 29.1195 29.9921C27.1277 28.7706 24.8366 28.1244 22.5 28.125C23.8907 28.125 25.2501 27.7126 26.4064 26.94C27.5626 26.1674 28.4639 25.0693 28.996 23.7845C29.5282 22.4997 29.6675 21.0859 29.3962 19.722C29.1248 18.3581 28.4552 17.1052 27.4718 16.1219C26.4885 15.1386 25.2357 14.4689 23.8717 14.1976C22.5078 13.9263 21.0941 14.0655 19.8093 14.5977C18.5245 15.1299 17.4263 16.0311 16.6537 17.1874C15.8811 18.3437 15.4688 19.7031 15.4688 21.0937C15.4688 22.9585 16.2095 24.747 17.5282 26.0656C18.8468 27.3842 20.6352 28.125 22.5 28.125C20.1634 28.1244 17.8723 28.7706 15.8805 29.9921C13.8886 31.2136 12.2738 32.9627 11.2148 35.0455C9.1235 33.1644 7.53555 30.7903 6.59542 28.1392C5.65528 25.488 5.39278 22.6439 5.83178 19.8655C6.27078 17.0871 7.39736 14.4625 9.10907 12.2303C10.8208 9.9982 13.0633 8.22936 15.6328 7.08466C18.2022 5.93996 21.017 5.45571 23.8213 5.67596C26.6256 5.8962 29.3303 6.81395 31.6895 8.34575C34.0487 9.87755 35.9876 11.9748 37.3299 14.4468C38.6721 16.9188 39.3751 19.6871 39.375 22.5Z" fill="#03111C"/>
<path d="M44.5885 23.4949L40.3697 27.7136C40.2391 27.8444 40.084 27.9481 39.9133 28.0189C39.7426 28.0896 39.5596 28.1261 39.3748 28.1261C39.19 28.1261 39.007 28.0896 38.8363 28.0189C38.6656 27.9481 38.5105 27.8444 38.3799 27.7136L34.1611 23.4949C33.8973 23.231 33.749 22.8731 33.749 22.5C33.749 22.1268 33.8973 21.7689 34.1611 21.505C34.425 21.2412 34.7829 21.0929 35.1561 21.0929C35.5292 21.0929 35.8871 21.2412 36.151 21.505L37.9686 23.3244V22.5C37.9702 19.2245 36.932 16.0331 35.0037 13.3854C33.0753 10.7378 30.3563 8.77059 27.2383 7.76723C24.1203 6.76386 20.7643 6.77613 17.6538 7.80227C14.5432 8.8284 11.8386 10.8154 9.92969 13.4771C9.71197 13.7801 9.38279 13.9843 9.01457 14.0446C8.64635 14.1049 8.26924 14.0165 7.96621 13.7988C7.66318 13.5811 7.45905 13.2519 7.39872 12.8837C7.3384 12.5154 7.42682 12.1383 7.64453 11.8353C9.90066 8.68974 13.0971 6.34152 16.7732 5.12893C20.4494 3.91635 24.4157 3.90199 28.1005 5.08793C31.7854 6.27386 34.9987 8.59888 37.2776 11.728C39.5564 14.8572 40.7831 18.6289 40.7811 22.5V23.3244L42.5986 21.505C42.8625 21.2412 43.2204 21.0929 43.5936 21.0929C43.9667 21.0929 44.3246 21.2412 44.5885 21.505C44.8523 21.7689 45.0006 22.1268 45.0006 22.5C45.0006 22.8731 44.8523 23.231 44.5885 23.4949ZM37.3498 33.1628C35.093 36.306 31.8971 38.6521 28.2221 39.8633C24.5471 41.0745 20.5825 41.0883 16.8991 39.9029C13.2157 38.7174 10.0035 36.3938 7.72475 33.2665C5.44604 30.1391 4.2184 26.3694 4.21856 22.5V21.6755L2.40098 23.4949C2.13711 23.7587 1.77922 23.907 1.40606 23.907C1.03289 23.907 0.675003 23.7587 0.411134 23.4949C0.147264 23.231 -0.000976562 22.8731 -0.000976562 22.5C-0.000976563 22.1268 0.147264 21.7689 0.411134 21.505L4.62988 17.2863C4.76049 17.1555 4.91558 17.0518 5.0863 16.981C5.25701 16.9103 5.44 16.8738 5.62481 16.8738C5.80961 16.8738 5.9926 16.9103 6.16332 16.981C6.33403 17.0518 6.48912 17.1555 6.61973 17.2863L10.8385 21.505C11.1023 21.7689 11.2506 22.1268 11.2506 22.5C11.2506 22.8731 11.1023 23.231 10.8385 23.4949C10.5746 23.7587 10.2167 23.907 9.84356 23.907C9.47039 23.907 9.1125 23.7587 8.84863 23.4949L7.03106 21.6755V22.5C7.02772 26.2866 8.41946 29.9418 10.9404 32.7673C12.5088 30.4946 14.7141 28.7364 17.2791 27.7136C15.9013 26.6284 14.8959 25.1409 14.4027 23.4578C13.9096 21.7747 13.9531 19.9798 14.5274 18.3226C15.1016 16.6654 16.178 15.2284 17.6069 14.2113C19.0357 13.1943 20.746 12.6477 22.4998 12.6477C24.2537 12.6477 25.9639 13.1943 27.3927 14.2113C28.8216 15.2284 29.898 16.6654 30.4722 18.3226C31.0465 19.9798 31.09 21.7747 30.5969 23.4578C30.1037 25.1409 29.0983 26.6284 27.7205 27.7136C30.2878 28.7365 32.4947 30.4969 34.0627 32.7726C34.4182 32.3733 34.7532 31.9562 35.0664 31.5228C35.2841 31.2198 35.6133 31.0156 35.9815 30.9553C36.3497 30.895 36.7269 30.9834 37.0299 31.2011C37.3329 31.4188 37.537 31.748 37.5974 32.1162C37.6577 32.4845 37.5693 32.8616 37.3516 33.1646L37.3498 33.1628ZM22.4998 26.7187C23.6123 26.7187 24.6999 26.3888 25.6249 25.7707C26.5499 25.1526 27.2709 24.2741 27.6966 23.2463C28.1224 22.2185 28.2338 21.0875 28.0167 19.9963C27.7997 18.9052 27.264 17.9029 26.4773 17.1162C25.6906 16.3296 24.6883 15.7938 23.5972 15.5768C22.506 15.3597 21.375 15.4711 20.3472 15.8969C19.3194 16.3226 18.4409 17.0436 17.8228 17.9686C17.2047 18.8936 16.8748 19.9812 16.8748 21.0937C16.8748 22.5855 17.4674 24.0163 18.5223 25.0712C19.5772 26.1261 21.008 26.7187 22.4998 26.7187ZM22.4998 37.9687C25.9318 37.9642 29.2654 36.8211 31.9779 34.7185C30.9606 33.1275 29.5592 31.8181 27.9028 30.9112C26.2463 30.0042 24.3883 29.5288 22.4998 29.5288C20.6113 29.5288 18.7533 30.0042 17.0969 30.9112C15.4404 31.8181 14.039 33.1275 13.0217 34.7185C15.7302 36.8286 19.0664 37.9727 22.4998 37.9687Z" fill="#03111C"/>
</svg>
