<svg width="45" height="45" viewBox="0 0 45 45" fill="none" xmlns="http://www.w3.org/2000/svg">
<path opacity="0.2" d="M33.75 16.875C33.75 19.1 33.0902 21.2751 31.854 23.1252C30.6179 24.9752 28.8609 26.4172 26.8052 27.2686C24.7495 28.1201 22.4875 28.3429 20.3052 27.9088C18.123 27.4748 16.1184 26.4033 14.5451 24.83C12.9717 23.2566 11.9003 21.2521 11.4662 19.0698C11.0321 16.8875 11.2549 14.6255 12.1064 12.5698C12.9578 10.5141 14.3998 8.75713 16.2498 7.52097C18.0999 6.2848 20.275 5.625 22.5 5.625C25.4837 5.625 28.3452 6.81026 30.455 8.92005C32.5647 11.0298 33.75 13.8913 33.75 16.875Z" fill="#03111C"/>
<path d="M40.5915 37.2656C37.9143 32.6373 33.7887 29.3186 28.9741 27.7453C31.3556 26.3276 33.2059 24.1673 34.2409 21.5961C35.2758 19.025 35.4381 16.1853 34.7029 13.513C33.9677 10.8406 32.3756 8.48356 30.1711 6.80368C27.9666 5.12379 25.2717 4.21399 22.5001 4.21399C19.7285 4.21399 17.0335 5.12379 14.829 6.80368C12.6245 8.48356 11.0324 10.8406 10.2972 13.513C9.56201 16.1853 9.72433 19.025 10.7593 21.5961C11.7942 24.1673 13.6445 26.3276 16.026 27.7453C11.2114 29.3168 7.08581 32.6356 4.40866 37.2656C4.31048 37.4257 4.24536 37.6039 4.21714 37.7895C4.18892 37.9752 4.19817 38.1646 4.24434 38.3466C4.29052 38.5286 4.37268 38.6996 4.48599 38.8493C4.59929 38.9991 4.74144 39.1246 4.90405 39.2185C5.06666 39.3125 5.24644 39.3729 5.43277 39.3962C5.61911 39.4195 5.80822 39.4053 5.98897 39.3543C6.16971 39.3034 6.33842 39.2167 6.48514 39.0995C6.63186 38.9823 6.75362 38.8369 6.84323 38.6719C10.1549 32.9485 16.0085 29.5313 22.5001 29.5313C28.9917 29.5313 34.8452 32.9485 38.1569 38.6719C38.2465 38.8369 38.3683 38.9823 38.515 39.0995C38.6617 39.2167 38.8304 39.3034 39.0112 39.3543C39.1919 39.4053 39.381 39.4195 39.5674 39.3962C39.7537 39.3729 39.9335 39.3125 40.0961 39.2185C40.2587 39.1246 40.4008 38.9991 40.5141 38.8493C40.6274 38.6996 40.7096 38.5286 40.7558 38.3466C40.802 38.1646 40.8112 37.9752 40.783 37.7895C40.7548 37.6039 40.6896 37.4257 40.5915 37.2656ZM12.6563 16.875C12.6563 14.9281 13.2336 13.0249 14.3153 11.4061C15.3969 9.78733 16.9343 8.52563 18.733 7.78058C20.5317 7.03553 22.511 6.84059 24.4205 7.22042C26.33 7.60024 28.084 8.53777 29.4606 9.91444C30.8373 11.2911 31.7748 13.0451 32.1547 14.9546C32.5345 16.8641 32.3396 18.8434 31.5945 20.6421C30.8495 22.4408 29.5878 23.9782 27.969 25.0598C26.3502 26.1414 24.447 26.7188 22.5001 26.7188C19.8902 26.716 17.388 25.678 15.5426 23.8325C13.6971 21.9871 12.6591 19.4849 12.6563 16.875Z" fill="#03111C"/>
</svg>
