<svg width="45" height="45" viewBox="0 0 45 45" fill="none" xmlns="http://www.w3.org/2000/svg">
<path opacity="0.2" d="M19.6875 29.5313C19.6875 30.6438 19.3576 31.7313 18.7395 32.6563C18.1214 33.5814 17.2429 34.3023 16.2151 34.7281C15.1873 35.1538 14.0563 35.2652 12.9651 35.0482C11.874 34.8311 10.8717 34.2954 10.085 33.5087C9.29836 32.7221 8.76263 31.7198 8.54559 30.6286C8.32854 29.5375 8.43994 28.4065 8.86568 27.3787C9.29142 26.3508 10.0124 25.4723 10.9374 24.8542C11.8624 24.2362 12.95 23.9063 14.0625 23.9063C15.5543 23.9063 16.9851 24.4989 18.04 25.5538C19.0949 26.6087 19.6875 28.0394 19.6875 29.5313ZM14.0625 5.625C12.95 5.625 11.8624 5.9549 10.9374 6.57299C10.0124 7.19107 9.29142 8.06957 8.86568 9.09741C8.43994 10.1252 8.32854 11.2562 8.54559 12.3474C8.76263 13.4385 9.29836 14.4408 10.085 15.2275C10.8717 16.0141 11.874 16.5499 12.9651 16.7669C14.0563 16.984 15.1873 16.8726 16.2151 16.4468C17.2429 16.0211 18.1214 15.3001 18.7395 14.3751C19.3576 13.4501 19.6875 12.3625 19.6875 11.25C19.6875 9.75816 19.0949 8.32742 18.04 7.27253C16.9851 6.21763 15.5543 5.625 14.0625 5.625ZM30.9375 23.9063C29.825 23.9063 28.7374 24.2362 27.8124 24.8542C26.8874 25.4723 26.1664 26.3508 25.7407 27.3787C25.3149 28.4065 25.2035 29.5375 25.4206 30.6286C25.6376 31.7198 26.1734 32.7221 26.96 33.5087C27.7467 34.2954 28.749 34.8311 29.8401 35.0482C30.9313 35.2652 32.0623 35.1538 33.0901 34.7281C34.1179 34.3023 34.9964 33.5814 35.6145 32.6563C36.2326 31.7313 36.5625 30.6438 36.5625 29.5313C36.5625 28.0394 35.9699 26.6087 34.915 25.5538C33.8601 24.4989 32.4293 23.9063 30.9375 23.9063ZM30.9375 16.875C32.05 16.875 33.1376 16.5451 34.0626 15.927C34.9876 15.3089 35.7086 14.4304 36.1343 13.4026C36.5601 12.3748 36.6715 11.2438 36.4544 10.1526C36.2374 9.06148 35.7016 8.0592 34.915 7.27253C34.1283 6.48586 33.126 5.95013 32.0349 5.73309C30.9437 5.51604 29.8127 5.62744 28.7849 6.05318C27.7571 6.47892 26.8786 7.19989 26.2605 8.12492C25.6424 9.04995 25.3125 10.1375 25.3125 11.25C25.3125 12.7418 25.9051 14.1726 26.96 15.2275C28.0149 16.2824 29.4457 16.875 30.9375 16.875Z" fill="#03111C"/>
<path d="M4.78125 22.2188C4.92899 22.3296 5.0971 22.4102 5.276 22.456C5.45489 22.5019 5.64106 22.512 5.82387 22.4859C6.00669 22.4598 6.18257 22.3979 6.34148 22.3038C6.50038 22.2097 6.6392 22.0853 6.75 21.9375C7.60142 20.8023 8.70546 19.8809 9.97469 19.2463C11.2439 18.6117 12.6435 18.2813 14.0625 18.2813C15.4815 18.2813 16.8811 18.6117 18.1503 19.2463C19.4195 19.8809 20.5236 20.8023 21.375 21.9375C21.599 22.2356 21.9323 22.4325 22.3015 22.485C22.6707 22.5374 23.0456 22.441 23.3438 22.217C23.45 22.138 23.5442 22.0438 23.6232 21.9375C24.4747 20.8023 25.5787 19.8809 26.8479 19.2463C28.1172 18.6117 29.5167 18.2813 30.9357 18.2813C32.3548 18.2813 33.7543 18.6117 35.0236 19.2463C36.2928 19.8809 37.3968 20.8023 38.2482 21.9375C38.4723 22.2359 38.8056 22.4331 39.175 22.4857C39.5444 22.5382 39.9195 22.4419 40.2179 22.2179C40.5162 21.9939 40.7134 21.6605 40.766 21.2912C40.8186 20.9218 40.7223 20.5467 40.4982 20.2483C39.2535 18.5795 37.5936 17.2657 35.6836 16.4374C36.7307 15.4813 37.4643 14.2311 37.7882 12.8507C38.112 11.4703 38.011 10.0242 37.4983 8.70231C36.9856 7.38037 36.0852 6.24432 34.9153 5.44324C33.7454 4.64217 32.3607 4.2135 30.9428 4.2135C29.5249 4.2135 28.1401 4.64217 26.9702 5.44324C25.8004 6.24432 24.9 7.38037 24.3873 8.70231C23.8746 10.0242 23.7735 11.4703 24.0974 12.8507C24.4212 14.2311 25.1548 15.4813 26.202 16.4374C24.8228 17.0337 23.57 17.8874 22.5105 18.9528C21.4511 17.8874 20.1982 17.0337 18.8191 16.4374C19.8662 15.4813 20.5999 14.2311 20.9237 12.8507C21.2476 11.4703 21.1465 10.0242 20.6338 8.70231C20.1211 7.38037 19.2207 6.24432 18.0508 5.44324C16.881 4.64217 15.4962 4.2135 14.0783 4.2135C12.6604 4.2135 11.2757 4.64217 10.1058 5.44324C8.9359 6.24432 8.03552 7.38037 7.52283 8.70231C7.01014 10.0242 6.90908 11.4703 7.23293 12.8507C7.55678 14.2311 8.29039 15.4813 9.3375 16.4374C7.41911 17.263 5.75104 18.5777 4.5 20.25C4.3892 20.3978 4.30858 20.5659 4.26275 20.7448C4.21691 20.9237 4.20677 21.1099 4.23288 21.2927C4.259 21.4755 4.32087 21.6514 4.41496 21.8103C4.50905 21.9692 4.63351 22.108 4.78125 22.2188ZM30.9375 7.0313C31.7719 7.0313 32.5875 7.27872 33.2813 7.74228C33.9751 8.20585 34.5158 8.86472 34.8351 9.6356C35.1544 10.4065 35.238 11.2547 35.0752 12.0731C34.9124 12.8914 34.5106 13.6432 33.9206 14.2332C33.3306 14.8232 32.5789 15.225 31.7605 15.3877C30.9422 15.5505 30.0939 15.467 29.3231 15.1477C28.5522 14.8284 27.8933 14.2876 27.4297 13.5939C26.9662 12.9001 26.7188 12.0844 26.7188 11.25C26.7188 10.1312 27.1632 9.05811 27.9544 8.26694C28.7456 7.47577 29.8186 7.0313 30.9375 7.0313ZM14.0625 7.0313C14.8969 7.0313 15.7125 7.27872 16.4063 7.74228C17.1001 8.20585 17.6408 8.86472 17.9601 9.6356C18.2794 10.4065 18.363 11.2547 18.2002 12.0731C18.0374 12.8914 17.6356 13.6432 17.0456 14.2332C16.4556 14.8232 15.7039 15.225 14.8855 15.3877C14.0672 15.5505 13.2189 15.467 12.4481 15.1477C11.6772 14.8284 11.0183 14.2876 10.5547 13.5939C10.0912 12.9001 9.84375 12.0844 9.84375 11.25C9.84375 10.1312 10.2882 9.05811 11.0794 8.26694C11.8706 7.47577 12.9436 7.0313 14.0625 7.0313ZM35.6836 34.7186C36.7307 33.7626 37.4643 32.5124 37.7882 31.132C38.112 29.7516 38.011 28.3055 37.4983 26.9836C36.9856 25.6616 36.0852 24.5256 34.9153 23.7245C33.7454 22.9234 32.3607 22.4947 30.9428 22.4947C29.5249 22.4947 28.1401 22.9234 26.9702 23.7245C25.8004 24.5256 24.9 25.6616 24.3873 26.9836C23.8746 28.3055 23.7735 29.7516 24.0974 31.132C24.4212 32.5124 25.1548 33.7626 26.202 34.7186C24.8228 35.3149 23.57 36.1686 22.5105 37.234C21.4511 36.1686 20.1982 35.3149 18.8191 34.7186C19.8662 33.7626 20.5999 32.5124 20.9237 31.132C21.2476 29.7516 21.1465 28.3055 20.6338 26.9836C20.1211 25.6616 19.2207 24.5256 18.0508 23.7245C16.881 22.9234 15.4962 22.4947 14.0783 22.4947C12.6604 22.4947 11.2757 22.9234 10.1058 23.7245C8.9359 24.5256 8.03552 25.6616 7.52283 26.9836C7.01014 28.3055 6.90908 29.7516 7.23293 31.132C7.55678 32.5124 8.29039 33.7626 9.3375 34.7186C7.41911 35.5442 5.75104 36.8589 4.5 38.5313C4.3892 38.679 4.30858 38.8471 4.26275 39.026C4.21691 39.2049 4.20677 39.3911 4.23288 39.5739C4.259 39.7567 4.32087 39.9326 4.41496 40.0915C4.50905 40.2504 4.63351 40.3892 4.78125 40.5C4.92899 40.6108 5.0971 40.6915 5.276 40.7373C5.45489 40.7831 5.64106 40.7933 5.82387 40.7672C6.00669 40.741 6.18257 40.6792 6.34148 40.5851C6.50038 40.491 6.6392 40.3665 6.75 40.2188C7.60142 39.0836 8.70546 38.1622 9.97469 37.5275C11.2439 36.8929 12.6435 36.5625 14.0625 36.5625C15.4815 36.5625 16.8811 36.8929 18.1503 37.5275C19.4195 38.1622 20.5236 39.0836 21.375 40.2188C21.599 40.5169 21.9323 40.7138 22.3015 40.7662C22.6707 40.8186 23.0456 40.7222 23.3438 40.4983C23.45 40.4192 23.5442 40.3251 23.6232 40.2188C24.4747 39.0836 25.5787 38.1622 26.8479 37.5275C28.1172 36.8929 29.5167 36.5625 30.9357 36.5625C32.3548 36.5625 33.7543 36.8929 35.0236 37.5275C36.2928 38.1622 37.3968 39.0836 38.2482 40.2188C38.4723 40.5172 38.8056 40.7143 39.175 40.7669C39.5444 40.8195 39.9195 40.7232 40.2179 40.4992C40.5162 40.2752 40.7134 39.9418 40.766 39.5724C40.8186 39.203 40.7223 38.8279 40.4982 38.5295C39.2535 36.8608 37.5936 35.5469 35.6836 34.7186ZM14.0625 25.3125C14.8969 25.3125 15.7125 25.56 16.4063 26.0235C17.1001 26.4871 17.6408 27.146 17.9601 27.9168C18.2794 28.6877 18.363 29.536 18.2002 30.3543C18.0374 31.1727 17.6356 31.9244 17.0456 32.5144C16.4556 33.1044 15.7039 33.5062 14.8855 33.669C14.0672 33.8318 13.2189 33.7482 12.4481 33.4289C11.6772 33.1096 11.0183 32.5689 10.5547 31.8751C10.0912 31.1813 9.84375 30.3657 9.84375 29.5313C9.84375 28.4124 10.2882 27.3394 11.0794 26.5482C11.8706 25.757 12.9436 25.3125 14.0625 25.3125ZM30.9375 25.3125C31.7719 25.3125 32.5875 25.56 33.2813 26.0235C33.9751 26.4871 34.5158 27.146 34.8351 27.9168C35.1544 28.6877 35.238 29.536 35.0752 30.3543C34.9124 31.1727 34.5106 31.9244 33.9206 32.5144C33.3306 33.1044 32.5789 33.5062 31.7605 33.669C30.9422 33.8318 30.0939 33.7482 29.3231 33.4289C28.5522 33.1096 27.8933 32.5689 27.4297 31.8751C26.9662 31.1813 26.7188 30.3657 26.7188 29.5313C26.7188 28.4124 27.1632 27.3394 27.9544 26.5482C28.7456 25.757 29.8186 25.3125 30.9375 25.3125Z" fill="#03111C"/>
</svg>
