<svg width="45" height="45" viewBox="0 0 45 45" fill="none" xmlns="http://www.w3.org/2000/svg">
<path opacity="0.2" d="M37.9688 8.4375H7.03125C6.65829 8.4375 6.3006 8.58566 6.03688 8.84938C5.77316 9.1131 5.625 9.47079 5.625 9.84375V33.75C5.625 34.123 5.77316 34.4806 6.03688 34.7444C6.3006 35.0081 6.65829 35.1562 7.03125 35.1562H37.9688C38.3417 35.1562 38.6994 35.0081 38.9631 34.7444C39.2268 34.4806 39.375 34.123 39.375 33.75V9.84375C39.375 9.47079 39.2268 9.1131 38.9631 8.84938C38.6994 8.58566 38.3417 8.4375 37.9688 8.4375ZM26.7188 29.5312C25.3281 29.5313 23.9687 29.1189 22.8124 28.3463C21.6561 27.5737 20.7549 26.4755 20.2227 25.1907C19.6905 23.906 19.5513 22.4922 19.8226 21.1283C20.0939 19.7643 20.7636 18.5115 21.7469 17.5282C22.7302 16.5448 23.9831 15.8752 25.347 15.6039C26.7109 15.3326 28.1247 15.4718 29.4095 16.004C30.6943 16.5362 31.7924 17.4374 32.565 18.5936C33.3376 19.7499 33.75 21.1094 33.75 22.5C33.75 23.4234 33.5681 24.3377 33.2148 25.1907C32.8614 26.0438 32.3435 26.8189 31.6906 27.4718C31.0377 28.1248 30.2626 28.6427 29.4095 28.996C28.5564 29.3494 27.6421 29.5312 26.7188 29.5312Z" fill="#03111C"/>
<path d="M37.9688 7.03125H7.03125C6.28533 7.03125 5.56996 7.32757 5.04251 7.85501C4.51507 8.38246 4.21875 9.09783 4.21875 9.84375V33.75C4.21875 34.4959 4.51507 35.2113 5.04251 35.7387C5.56996 36.2662 6.28533 36.5625 7.03125 36.5625H9.84375V39.375C9.84375 39.748 9.99191 40.1056 10.2556 40.3694C10.5194 40.6331 10.877 40.7812 11.25 40.7812C11.623 40.7812 11.9806 40.6331 12.2444 40.3694C12.5081 40.1056 12.6562 39.748 12.6562 39.375V36.5625H32.3438V39.375C32.3438 39.748 32.4919 40.1056 32.7556 40.3694C33.0194 40.6331 33.377 40.7812 33.75 40.7812C34.123 40.7812 34.4806 40.6331 34.7444 40.3694C35.0081 40.1056 35.1562 39.748 35.1562 39.375V36.5625H37.9688C38.7147 36.5625 39.43 36.2662 39.9575 35.7387C40.4849 35.2113 40.7812 34.4959 40.7812 33.75V9.84375C40.7812 9.09783 40.4849 8.38246 39.9575 7.85501C39.43 7.32757 38.7147 7.03125 37.9688 7.03125ZM37.9688 33.75H7.03125V9.84375H37.9688V21.0938H35.0367C34.6841 19.0077 33.5607 17.1303 31.8892 15.8335C30.2176 14.5367 28.1198 13.9151 26.0116 14.0921C23.9034 14.269 21.9386 15.2314 20.5066 16.7887C19.0745 18.346 18.2797 20.3844 18.2797 22.5C18.2797 24.6156 19.0745 26.654 20.5066 28.2113C21.9386 29.7686 23.9034 30.731 26.0116 30.9079C28.1198 31.0849 30.2176 30.4633 31.8892 29.1665C33.5607 27.8697 34.6841 25.9923 35.0367 23.9062H37.9688V33.75ZM29.1516 21.0938C28.842 20.5576 28.3642 20.1385 27.7922 19.9016C27.2202 19.6647 26.586 19.6231 25.9879 19.7833C25.3899 19.9436 24.8615 20.2967 24.4846 20.7879C24.1077 21.279 23.9034 21.8809 23.9034 22.5C23.9034 23.1191 24.1077 23.721 24.4846 24.2121C24.8615 24.7033 25.3899 25.0564 25.9879 25.2167C26.586 25.3769 27.2202 25.3353 27.7922 25.0984C28.3642 24.8615 28.842 24.4424 29.1516 23.9062H32.168C31.8257 25.2319 31.0117 26.3871 29.8786 27.1555C28.7455 27.9239 27.371 28.2527 26.0128 28.0802C24.6546 27.9077 23.406 27.2457 22.501 26.2185C21.5959 25.1912 21.0966 23.8691 21.0966 22.5C21.0966 21.1309 21.5959 19.8088 22.501 18.7815C23.406 17.7543 24.6546 17.0923 26.0128 16.9198C27.371 16.7473 28.7455 17.0761 29.8786 17.8445C31.0117 18.6129 31.8257 19.7681 32.168 21.0938H29.1516Z" fill="#03111C"/>
</svg>
