<svg width="45" height="45" viewBox="0 0 45 45" fill="none" xmlns="http://www.w3.org/2000/svg">
<path opacity="0.2" d="M24.2385 35.0033L26.7188 40.7812H18.2812L20.758 35.0033C13.8146 33.7816 8.4375 25.4584 8.4375 18.2812C8.4375 14.5516 9.91908 10.9748 12.5563 8.33756C15.1935 5.70033 18.7704 4.21875 22.5 4.21875C26.2296 4.21875 29.8065 5.70033 32.4437 8.33756C35.0809 10.9748 36.5625 14.5516 36.5625 18.2812C36.5625 25.4584 31.1854 33.7816 24.2385 35.0033Z" fill="#8B1A83"/>
<path d="M22.5 2.8125C18.3989 2.81715 14.467 4.44839 11.5671 7.34833C8.66713 10.2483 7.0359 14.1801 7.03125 18.2812C7.03125 22.3998 8.68359 26.9684 11.4486 30.498C13.5721 33.2068 16.1068 35.0684 18.8156 35.9631L16.9893 40.2275C16.8977 40.4414 16.8605 40.6746 16.8812 40.9063C16.9019 41.138 16.9798 41.361 17.1078 41.5552C17.2358 41.7494 17.4101 41.9089 17.6149 42.0192C17.8196 42.1296 18.0486 42.1874 18.2812 42.1875H26.7188C26.9514 42.1874 27.1804 42.1296 27.3851 42.0192C27.5899 41.9089 27.7642 41.7494 27.8922 41.5552C28.0202 41.361 28.0981 41.138 28.1188 40.9063C28.1395 40.6746 28.1023 40.4414 28.0107 40.2275L26.1914 35.9631C28.8984 35.0719 31.435 33.2068 33.5584 30.498C36.3164 26.9684 37.9688 22.3998 37.9688 18.2812C37.9641 14.1801 36.3329 10.2483 33.4329 7.34833C30.533 4.44839 26.6011 2.81715 22.5 2.8125ZM24.5865 39.375H20.4135L21.6334 36.5291C21.9217 36.5502 22.21 36.5625 22.5 36.5625C22.79 36.5625 23.0783 36.5502 23.3666 36.5291L24.5865 39.375ZM31.3365 28.7631C28.8176 31.9799 25.6799 33.75 22.5 33.75C19.3201 33.75 16.1824 31.9799 13.6635 28.7631C11.2711 25.7115 9.84375 21.7969 9.84375 18.2812C9.84375 14.9246 11.1772 11.7054 13.5507 9.33193C15.9242 6.95842 19.1434 5.625 22.5 5.625C25.8566 5.625 29.0758 6.95842 31.4493 9.33193C33.8228 11.7054 35.1562 14.9246 35.1562 18.2812C35.1562 21.7969 33.7289 25.7115 31.3365 28.7631ZM31.1607 18.2619C31.0869 18.2739 31.0123 18.2804 30.9375 18.2812C30.6051 18.2808 30.2836 18.1626 30.03 17.9477C29.7764 17.7327 29.6072 17.4349 29.5523 17.107C29.2923 15.6437 28.5894 14.2955 27.5384 13.2446C26.4875 12.1936 25.1393 11.4907 23.676 11.2307C23.4925 11.2017 23.3165 11.1367 23.1583 11.0393C23.0001 10.942 22.8627 10.8143 22.7541 10.6636C22.6455 10.5128 22.5679 10.3421 22.5257 10.1612C22.4835 9.98026 22.4775 9.79278 22.5082 9.60956C22.5388 9.42634 22.6055 9.251 22.7043 9.09369C22.8031 8.93637 22.9321 8.80019 23.0838 8.69301C23.2355 8.58583 23.407 8.50977 23.5883 8.46924C23.7696 8.4287 23.9571 8.42449 24.14 8.45684C26.1787 8.81857 28.0571 9.7977 29.5212 11.2618C30.9853 12.7259 31.9644 14.6043 32.3262 16.643C32.3566 16.8252 32.3508 17.0117 32.3092 17.1917C32.2675 17.3717 32.1908 17.5418 32.0834 17.6921C31.976 17.8425 31.84 17.9702 31.6832 18.068C31.5264 18.1657 31.3518 18.2316 31.1695 18.2619H31.1607Z" fill="#8B1A83"/>
</svg>
