<svg width="45" height="45" viewBox="0 0 45 45" fill="none" xmlns="http://www.w3.org/2000/svg">
<path opacity="0.2" d="M36.5625 33.75H8.43746C8.19133 33.7485 7.9499 33.6825 7.7373 33.5584C7.5247 33.4344 7.34838 33.2568 7.22596 33.0432C7.10353 32.8297 7.0393 32.5878 7.03967 32.3416C7.04005 32.0955 7.10502 31.8538 7.22809 31.6406C8.38649 29.6367 9.84371 25.9822 9.84371 19.6875C9.84371 16.3309 11.1771 13.1117 13.5506 10.7382C15.9242 8.36467 19.1433 7.03125 22.5 7.03125C25.8566 7.03125 29.0758 8.36467 31.4493 10.7382C33.8228 13.1117 35.1562 16.3309 35.1562 19.6875C35.1562 25.984 36.6152 29.6367 37.7754 31.6406C37.8986 31.854 37.9635 32.0961 37.9638 32.3425C37.964 32.5889 37.8994 32.8311 37.7766 33.0447C37.6538 33.2584 37.4769 33.436 37.2639 33.5597C37.0508 33.6835 36.8089 33.7491 36.5625 33.75Z" fill="#8B1A83"/>
<path d="M39.375 12.498C39.0439 12.6695 38.6584 12.7024 38.3031 12.5897C37.9477 12.477 37.6517 12.2278 37.4801 11.8969C36.1378 9.24519 34.1061 7.004 31.5984 5.40878C31.4421 5.31022 31.3068 5.18183 31.2001 5.03096C31.0935 4.88009 31.0176 4.70969 30.9768 4.52949C30.936 4.34928 30.931 4.16281 30.9623 3.9807C30.9936 3.7986 31.0604 3.62444 31.159 3.46816C31.2575 3.31188 31.3859 3.17655 31.5368 3.06989C31.6877 2.96322 31.8581 2.88732 32.0383 2.84652C32.2185 2.80571 32.4049 2.8008 32.587 2.83206C32.7691 2.86332 32.9433 2.93014 33.0996 3.02871C36.0221 4.89996 38.3952 7.51388 39.9761 10.6031C40.1476 10.9341 40.1805 11.3197 40.0678 11.675C39.9551 12.0303 39.7059 12.3264 39.375 12.498ZM6.27712 12.6562C6.53475 12.6561 6.7874 12.5853 7.00749 12.4513C7.22758 12.3174 7.40666 12.1256 7.52517 11.8969C8.86744 9.24519 10.8991 7.004 13.4068 5.40878C13.7224 5.20972 13.946 4.89342 14.0285 4.52949C14.1109 4.16555 14.0453 3.78378 13.8463 3.46816C13.6472 3.15254 13.3309 2.92893 12.967 2.84652C12.603 2.7641 12.2213 2.82964 11.9056 3.02871C8.9831 4.89996 6.61001 7.51388 5.02907 10.6031C4.91805 10.8174 4.86405 11.0567 4.87228 11.2979C4.88051 11.5392 4.95068 11.7742 5.07606 11.9805C5.20143 12.1867 5.37778 12.3572 5.58813 12.4756C5.79848 12.5939 6.03576 12.6561 6.27712 12.6562ZM38.99 30.927C39.2391 31.3542 39.3712 31.8395 39.3729 32.3341C39.3746 32.8286 39.2459 33.3149 38.9997 33.7438C38.7535 34.1728 38.3985 34.5292 37.9706 34.7772C37.5427 35.0251 37.057 35.1559 36.5625 35.1562H29.3906C29.0678 36.7457 28.2055 38.1747 26.9497 39.2012C25.6939 40.2276 24.1219 40.7883 22.5 40.7883C20.8781 40.7883 19.306 40.2276 18.0502 39.2012C16.7944 38.1747 15.9321 36.7457 15.6093 35.1562H8.43747C7.94321 35.1553 7.45794 35.0241 7.03053 34.7758C6.60312 34.5276 6.24868 34.1711 6.0029 33.7423C5.75712 33.3135 5.62869 32.8275 5.63054 32.3332C5.63239 31.839 5.76446 31.3539 6.01345 30.927C7.59724 28.1936 8.43747 24.307 8.43747 19.6875C8.43747 15.9579 9.91905 12.381 12.5563 9.74381C15.1935 7.10658 18.7704 5.625 22.5 5.625C26.2296 5.625 29.8064 7.10658 32.4437 9.74381C35.0809 12.381 36.5625 15.9579 36.5625 19.6875C36.5625 24.3053 37.4027 28.1918 38.99 30.927ZM26.4761 35.1562H18.5238C18.8151 35.9779 19.3539 36.6891 20.0659 37.192C20.7779 37.695 21.6282 37.9651 22.5 37.9651C23.3717 37.9651 24.2221 37.695 24.9341 37.192C25.6461 36.6891 26.1848 35.9779 26.4761 35.1562ZM36.5625 32.3437C34.6922 29.1322 33.75 24.8748 33.75 19.6875C33.75 16.7038 32.5647 13.8423 30.4549 11.7325C28.3451 9.62276 25.4837 8.4375 22.5 8.4375C19.5163 8.4375 16.6548 9.62276 14.545 11.7325C12.4352 13.8423 11.25 16.7038 11.25 19.6875C11.25 24.8766 10.3043 29.134 8.43747 32.3437H36.5625Z" fill="#8B1A83"/>
</svg>
