<svg width="45" height="45" viewBox="0 0 45 45" fill="none" xmlns="http://www.w3.org/2000/svg">
<path opacity="0.2" d="M39.375 8.4375V36.5625C39.375 37.3084 39.0787 38.0238 38.5512 38.5512C38.0238 39.0787 37.3084 39.375 36.5625 39.375H8.4375C7.69158 39.375 6.97621 39.0787 6.44876 38.5512C5.92132 38.0238 5.625 37.3084 5.625 36.5625V8.4375C5.625 7.69158 5.92132 6.97621 6.44876 6.44876C6.97621 5.92132 7.69158 5.625 8.4375 5.625H36.5625C37.3084 5.625 38.0238 5.92132 38.5512 6.44876C39.0787 6.97621 39.375 7.69158 39.375 8.4375Z" fill="#8B1A83"/>
<path d="M16.5234 4.21875C12.5912 4.21875 9.84375 7.68867 9.84375 12.6562C9.84375 17.6238 12.5912 21.0938 16.5234 21.0938C20.4557 21.0938 23.2031 17.6238 23.2031 12.6562C23.2031 7.68867 20.4557 4.21875 16.5234 4.21875ZM16.5234 18.2812C13.4701 18.2812 12.6562 14.7463 12.6562 12.6562C12.6562 10.5662 13.4701 7.03125 16.5234 7.03125C19.5768 7.03125 20.3906 10.5662 20.3906 12.6562C20.3906 14.7463 19.5768 18.2812 16.5234 18.2812ZM29.1797 23.9062C25.2475 23.9062 22.5 27.3762 22.5 32.3438C22.5 37.3113 25.2475 40.7812 29.1797 40.7812C33.1119 40.7812 35.8594 37.3113 35.8594 32.3438C35.8594 27.3762 33.1119 23.9062 29.1797 23.9062ZM29.1797 37.9688C26.1264 37.9688 25.3125 34.4338 25.3125 32.3438C25.3125 30.2537 26.1264 26.7188 29.1797 26.7188C32.233 26.7188 33.0469 30.2537 33.0469 32.3438C33.0469 34.4338 32.233 37.9688 29.1797 37.9688ZM25.4883 8.65195C25.3986 8.49049 25.3415 8.31293 25.3205 8.12942C25.2994 7.94592 25.3147 7.76005 25.3654 7.58245C25.4162 7.40485 25.5015 7.23899 25.6163 7.09435C25.7312 6.9497 25.8735 6.82911 26.035 6.73945L30.2537 4.39629C30.4678 4.27718 30.7092 4.21605 30.9541 4.21895C31.1991 4.22185 31.439 4.28868 31.6502 4.41282C31.8614 4.53696 32.0364 4.71411 32.1581 4.92673C32.2797 5.13934 32.3437 5.38004 32.3438 5.625V19.6875C32.3438 20.0605 32.1956 20.4181 31.9319 20.6819C31.6681 20.9456 31.3105 21.0938 30.9375 21.0938C30.5645 21.0938 30.2069 20.9456 29.9431 20.6819C29.6794 20.4181 29.5312 20.0605 29.5312 19.6875V8.01562L27.4008 9.19863C27.2393 9.28835 27.0618 9.34537 26.8783 9.36645C26.6947 9.38753 26.5089 9.37225 26.3313 9.32149C26.1537 9.27072 25.9878 9.18546 25.8432 9.07058C25.6985 8.9557 25.5779 8.81345 25.4883 8.65195ZM18.2812 25.3125V39.375C18.2812 39.748 18.1331 40.1056 17.8694 40.3694C17.6056 40.6331 17.248 40.7812 16.875 40.7812C16.502 40.7812 16.1444 40.6331 15.8806 40.3694C15.6169 40.1056 15.4688 39.748 15.4688 39.375V27.7031L13.3383 28.8861C13.0119 29.067 12.6271 29.1109 12.2684 29.008C11.9098 28.9052 11.6067 28.664 11.4258 28.3377C11.2449 28.0114 11.2011 27.6265 11.3039 27.2679C11.4068 26.9092 11.6479 26.6061 11.9742 26.4252L16.193 24.082C16.4071 23.9633 16.6485 23.9025 16.8933 23.9057C17.1382 23.9089 17.3779 23.9759 17.5889 24.1002C17.7998 24.2245 17.9747 24.4018 18.0961 24.6144C18.2176 24.827 18.2814 25.0676 18.2812 25.3125Z" fill="#8B1A83"/>
</svg>
