<svg width="45" height="45" viewBox="0 0 45 45" fill="none" xmlns="http://www.w3.org/2000/svg">
<path opacity="0.2" d="M39.375 12.6562V37.9688H25.3125V29.5312H19.6875V37.9688H5.625V18.2812H14.0625V7.03125H30.9375V12.6562H39.375Z" fill="#8B1A83"/>
<path d="M42.1875 36.5625H40.7812V12.6562C40.7812 12.2833 40.6331 11.9256 40.3694 11.6619C40.1056 11.3982 39.748 11.25 39.375 11.25H32.3438V7.03125C32.3438 6.65829 32.1956 6.3006 31.9319 6.03688C31.6681 5.77316 31.3105 5.625 30.9375 5.625H14.0625C13.6895 5.625 13.3319 5.77316 13.0681 6.03688C12.8044 6.3006 12.6562 6.65829 12.6562 7.03125V16.875H5.625C5.25204 16.875 4.89435 17.0232 4.63063 17.2869C4.36691 17.5506 4.21875 17.9083 4.21875 18.2812V36.5625H2.8125C2.43954 36.5625 2.08185 36.7107 1.81813 36.9744C1.55441 37.2381 1.40625 37.5958 1.40625 37.9688C1.40625 38.3417 1.55441 38.6994 1.81813 38.9631C2.08185 39.2268 2.43954 39.375 2.8125 39.375H42.1875C42.5605 39.375 42.9181 39.2268 43.1819 38.9631C43.4456 38.6994 43.5938 38.3417 43.5938 37.9688C43.5938 37.5958 43.4456 37.2381 43.1819 36.9744C42.9181 36.7107 42.5605 36.5625 42.1875 36.5625ZM7.03125 19.6875H14.0625C14.4355 19.6875 14.7931 19.5393 15.0569 19.2756C15.3206 19.0119 15.4688 18.6542 15.4688 18.2812V8.4375H29.5312V12.6562C29.5312 13.0292 29.6794 13.3869 29.9431 13.6506C30.2069 13.9143 30.5645 14.0625 30.9375 14.0625H37.9688V36.5625H26.7188V29.5312C26.7188 29.1583 26.5706 28.8006 26.3069 28.5369C26.0431 28.2732 25.6855 28.125 25.3125 28.125H19.6875C19.3145 28.125 18.9569 28.2732 18.6931 28.5369C18.4294 28.8006 18.2812 29.1583 18.2812 29.5312V36.5625H7.03125V19.6875ZM23.9062 36.5625H21.0938V30.9375H23.9062V36.5625ZM19.6875 12.6562C19.6875 12.2833 19.8357 11.9256 20.0994 11.6619C20.3631 11.3982 20.7208 11.25 21.0938 11.25H23.9062C24.2792 11.25 24.6369 11.3982 24.9006 11.6619C25.1643 11.9256 25.3125 12.2833 25.3125 12.6562C25.3125 13.0292 25.1643 13.3869 24.9006 13.6506C24.6369 13.9143 24.2792 14.0625 23.9062 14.0625H21.0938C20.7208 14.0625 20.3631 13.9143 20.0994 13.6506C19.8357 13.3869 19.6875 13.0292 19.6875 12.6562ZM19.6875 18.2812C19.6875 17.9083 19.8357 17.5506 20.0994 17.2869C20.3631 17.0232 20.7208 16.875 21.0938 16.875H23.9062C24.2792 16.875 24.6369 17.0232 24.9006 17.2869C25.1643 17.5506 25.3125 17.9083 25.3125 18.2812C25.3125 18.6542 25.1643 19.0119 24.9006 19.2756C24.6369 19.5393 24.2792 19.6875 23.9062 19.6875H21.0938C20.7208 19.6875 20.3631 19.5393 20.0994 19.2756C19.8357 19.0119 19.6875 18.6542 19.6875 18.2812ZM29.5312 18.2812C29.5312 17.9083 29.6794 17.5506 29.9431 17.2869C30.2069 17.0232 30.5645 16.875 30.9375 16.875H33.75C34.123 16.875 34.4806 17.0232 34.7444 17.2869C35.0081 17.5506 35.1562 17.9083 35.1562 18.2812C35.1562 18.6542 35.0081 19.0119 34.7444 19.2756C34.4806 19.5393 34.123 19.6875 33.75 19.6875H30.9375C30.5645 19.6875 30.2069 19.5393 29.9431 19.2756C29.6794 19.0119 29.5312 18.6542 29.5312 18.2812ZM15.4688 23.9062C15.4688 24.2792 15.3206 24.6369 15.0569 24.9006C14.7931 25.1643 14.4355 25.3125 14.0625 25.3125H11.25C10.877 25.3125 10.5194 25.1643 10.2556 24.9006C9.99191 24.6369 9.84375 24.2792 9.84375 23.9062C9.84375 23.5333 9.99191 23.1756 10.2556 22.9119C10.5194 22.6482 10.877 22.5 11.25 22.5H14.0625C14.4355 22.5 14.7931 22.6482 15.0569 22.9119C15.3206 23.1756 15.4688 23.5333 15.4688 23.9062ZM15.4688 29.5312C15.4688 29.9042 15.3206 30.2619 15.0569 30.5256C14.7931 30.7893 14.4355 30.9375 14.0625 30.9375H11.25C10.877 30.9375 10.5194 30.7893 10.2556 30.5256C9.99191 30.2619 9.84375 29.9042 9.84375 29.5312C9.84375 29.1583 9.99191 28.8006 10.2556 28.5369C10.5194 28.2732 10.877 28.125 11.25 28.125H14.0625C14.4355 28.125 14.7931 28.2732 15.0569 28.5369C15.3206 28.8006 15.4688 29.1583 15.4688 29.5312ZM19.6875 23.9062C19.6875 23.5333 19.8357 23.1756 20.0994 22.9119C20.3631 22.6482 20.7208 22.5 21.0938 22.5H23.9062C24.2792 22.5 24.6369 22.6482 24.9006 22.9119C25.1643 23.1756 25.3125 23.5333 25.3125 23.9062C25.3125 24.2792 25.1643 24.6369 24.9006 24.9006C24.6369 25.1643 24.2792 25.3125 23.9062 25.3125H21.0938C20.7208 25.3125 20.3631 25.1643 20.0994 24.9006C19.8357 24.6369 19.6875 24.2792 19.6875 23.9062ZM29.5312 23.9062C29.5312 23.5333 29.6794 23.1756 29.9431 22.9119C30.2069 22.6482 30.5645 22.5 30.9375 22.5H33.75C34.123 22.5 34.4806 22.6482 34.7444 22.9119C35.0081 23.1756 35.1562 23.5333 35.1562 23.9062C35.1562 24.2792 35.0081 24.6369 34.7444 24.9006C34.4806 25.1643 34.123 25.3125 33.75 25.3125H30.9375C30.5645 25.3125 30.2069 25.1643 29.9431 24.9006C29.6794 24.6369 29.5312 24.2792 29.5312 23.9062ZM29.5312 29.5312C29.5312 29.1583 29.6794 28.8006 29.9431 28.5369C30.2069 28.2732 30.5645 28.125 30.9375 28.125H33.75C34.123 28.125 34.4806 28.2732 34.7444 28.5369C35.0081 28.8006 35.1562 29.1583 35.1562 29.5312C35.1562 29.9042 35.0081 30.2619 34.7444 30.5256C34.4806 30.7893 34.123 30.9375 33.75 30.9375H30.9375C30.5645 30.9375 30.2069 30.7893 29.9431 30.5256C29.6794 30.2619 29.5312 29.9042 29.5312 29.5312Z" fill="#8B1A83"/>
</svg>
