<svg width="45" height="45" viewBox="0 0 45 45" fill="none" xmlns="http://www.w3.org/2000/svg">
<path opacity="0.2" d="M18.2812 8.4375C18.2812 4.21875 22.5 1.40625 22.5 1.40625C22.5 1.40625 26.7188 4.21875 26.7188 8.4375C26.7188 9.55638 26.2743 10.6294 25.4831 11.4206C24.6919 12.2118 23.6189 12.6562 22.5 12.6562C21.3811 12.6562 20.3081 12.2118 19.5169 11.4206C18.7257 10.6294 18.2812 9.55638 18.2812 8.4375ZM36.5625 16.875H8.4375C7.69158 16.875 6.97621 17.1713 6.44876 17.6988C5.92132 18.2262 5.625 18.9416 5.625 19.6875V23.7885C5.625 26.8541 8.02793 29.4451 11.0918 29.5295C11.8435 29.5506 12.5919 29.4208 13.2926 29.1478C13.9933 28.8747 14.6321 28.4638 15.1713 27.9396C15.7105 27.4153 16.1391 26.7883 16.4317 26.0955C16.7243 25.4027 16.8751 24.6583 16.875 23.9062C16.875 25.3981 17.4676 26.8288 18.5225 27.8837C19.5774 28.9386 21.0082 29.5312 22.5 29.5312C23.9918 29.5312 25.4226 28.9386 26.4775 27.8837C27.5324 26.8288 28.125 25.3981 28.125 23.9062C28.1247 24.6584 28.2753 25.403 28.5678 26.096C28.8603 26.789 29.2889 27.4163 29.8281 27.9407C30.3673 28.4652 31.0062 28.8762 31.707 29.1493C32.4078 29.4225 33.1563 29.5524 33.9082 29.5312C36.9721 29.4469 39.375 26.8559 39.375 23.7902V19.6875C39.375 18.9416 39.0787 18.2262 38.5512 17.6988C38.0238 17.1713 37.3084 16.875 36.5625 16.875Z" fill="#8B1A83"/>
<path d="M40.7812 19.6876C40.7812 18.5687 40.3368 17.4956 39.5456 16.7045C38.7544 15.9133 37.6814 15.4688 36.5625 15.4688H23.9062V13.8868C25.1133 13.5733 26.1822 12.8682 26.9456 11.8822C27.709 10.8961 28.1238 9.68462 28.125 8.43756C28.125 3.51568 23.4773 0.367442 23.2805 0.235606C23.0494 0.0814261 22.7778 -0.000854492 22.5 -0.000854492C22.2222 -0.000854492 21.9506 0.0814261 21.7195 0.235606C21.5227 0.367442 16.875 3.51568 16.875 8.43756C16.8762 9.68462 17.291 10.8961 18.0544 11.8822C18.8178 12.8682 19.8867 13.5733 21.0938 13.8868V15.4688H8.4375C7.31862 15.4688 6.24556 15.9133 5.45439 16.7045C4.66322 17.4956 4.21875 18.5687 4.21875 19.6876V23.7885C4.22019 25.3226 4.71302 26.8159 5.625 28.0495V35.1563C5.625 36.2752 6.06947 37.3482 6.86064 38.1394C7.65181 38.9306 8.72487 39.3751 9.84375 39.3751H35.1562C36.2751 39.3751 37.3482 38.9306 38.1394 38.1394C38.9305 37.3482 39.375 36.2752 39.375 35.1563V28.0495C40.287 26.8159 40.7798 25.3226 40.7812 23.7885V19.6876ZM19.6875 8.43756C19.6875 6.05221 21.4453 4.13795 22.5 3.20104C23.5547 4.13795 25.3125 6.05221 25.3125 8.43756C25.3125 9.18348 25.0162 9.89885 24.4887 10.4263C23.9613 10.9537 23.2459 11.2501 22.5 11.2501C21.7541 11.2501 21.0387 10.9537 20.5113 10.4263C19.9838 9.89885 19.6875 9.18348 19.6875 8.43756ZM7.03125 19.6876C7.03125 19.3146 7.17941 18.9569 7.44313 18.6932C7.70685 18.4295 8.06454 18.2813 8.4375 18.2813H36.5625C36.9355 18.2813 37.2931 18.4295 37.5569 18.6932C37.8206 18.9569 37.9688 19.3146 37.9688 19.6876V23.7885C37.9688 26.1176 36.1301 28.0618 33.8695 28.1233C33.3057 28.1393 32.7444 28.042 32.2188 27.8373C31.6932 27.6326 31.214 27.3245 30.8095 26.9313C30.405 26.5382 30.0835 26.0679 29.8639 25.5483C29.6444 25.0287 29.5313 24.4704 29.5312 23.9063C29.5312 23.5333 29.3831 23.1757 29.1194 22.9119C28.8556 22.6482 28.498 22.5001 28.125 22.5001C27.752 22.5001 27.3944 22.6482 27.1306 22.9119C26.8669 23.1757 26.7188 23.5333 26.7188 23.9063C26.7188 25.0252 26.2743 26.0982 25.4831 26.8894C24.6919 27.6806 23.6189 28.1251 22.5 28.1251C21.3811 28.1251 20.3081 27.6806 19.5169 26.8894C18.7257 26.0982 18.2812 25.0252 18.2812 23.9063C18.2812 23.5333 18.1331 23.1757 17.8694 22.9119C17.6056 22.6482 17.248 22.5001 16.875 22.5001C16.502 22.5001 16.1444 22.6482 15.8806 22.9119C15.6169 23.1757 15.4688 23.5333 15.4688 23.9063C15.469 24.4705 15.356 25.0291 15.1366 25.5488C14.9171 26.0686 14.5956 26.5391 14.1911 26.9325C13.7867 27.3258 13.3074 27.6341 12.7816 27.8389C12.2559 28.0437 11.6945 28.141 11.1305 28.1251C8.86992 28.0618 7.03125 26.1176 7.03125 23.7885V19.6876ZM35.1562 36.5626H9.84375C9.47079 36.5626 9.1131 36.4144 8.84938 36.1507C8.58566 35.887 8.4375 35.5293 8.4375 35.1563V30.3329C9.26066 30.7059 10.1498 30.9114 11.0531 30.9376C11.9929 30.9668 12.929 30.8057 13.805 30.4641C14.681 30.1225 15.4789 29.6073 16.1508 28.9495C16.4131 28.6938 16.6552 28.4181 16.875 28.1251C17.5299 28.9983 18.3792 29.7071 19.3555 30.1952C20.3319 30.6834 21.4084 30.9376 22.5 30.9376C23.5916 30.9376 24.6681 30.6834 25.6445 30.1952C26.6208 29.7071 27.4701 28.9983 28.125 28.1251C28.3455 28.417 28.5882 28.6915 28.851 28.946C30.1591 30.2273 31.9188 30.9427 33.75 30.9376C33.8168 30.9376 33.8836 30.9376 33.9504 30.9376C34.8525 30.9109 35.7404 30.7054 36.5625 30.3329V35.1563C36.5625 35.5293 36.4143 35.887 36.1506 36.1507C35.8869 36.4144 35.5292 36.5626 35.1562 36.5626Z" fill="#8B1A83"/>
</svg>
