<svg width="45" height="45" viewBox="0 0 45 45" fill="none" xmlns="http://www.w3.org/2000/svg">
<path opacity="0.2" d="M35.1563 15.4687C35.1563 17.8192 34.5018 20.1232 33.2662 22.1226C32.0305 24.122 30.2624 25.7379 28.1602 26.789L22.5 15.4687L16.8398 26.789C14.824 25.7811 13.1139 24.2531 11.8862 22.3631C10.6585 20.473 9.95784 18.2894 9.85654 16.0378C9.75524 13.7863 10.257 11.5486 11.31 9.55593C12.363 7.56324 13.929 5.88788 15.8462 4.70299C17.7633 3.51809 19.9621 2.86663 22.2154 2.81595C24.4686 2.76526 26.6945 3.31718 28.663 4.41467C30.6315 5.51215 32.2713 7.1154 33.4128 9.05872C34.5543 11.002 35.1562 13.2149 35.1563 15.4687Z" fill="#8B1A83"/>
<path d="M23.7586 14.8394C23.642 14.6054 23.4624 14.4085 23.2401 14.2709C23.0178 14.1333 22.7615 14.0604 22.5 14.0604C22.2386 14.0604 21.9823 14.1333 21.7599 14.2709C21.5376 14.4085 21.3581 14.6054 21.2414 14.8394L8.58517 40.1519C8.41827 40.4855 8.39072 40.8717 8.50857 41.2256C8.62642 41.5794 8.88003 41.872 9.21359 42.0389C9.54716 42.2058 9.93336 42.2334 10.2872 42.1155C10.6411 41.9977 10.9337 41.7441 11.1006 41.4105L13.5352 36.5625H31.4824L33.9065 41.4105C34.0227 41.6428 34.201 41.8384 34.4216 41.9755C34.6422 42.1127 34.8965 42.186 35.1563 42.1875C35.3959 42.1873 35.6316 42.1259 35.8409 42.0091C36.0502 41.8923 36.2261 41.7239 36.3521 41.52C36.478 41.3161 36.5497 41.0833 36.5604 40.8439C36.5711 40.6044 36.5204 40.3662 36.4131 40.1519L23.7586 14.8394ZM22.5 18.6134L27.2567 28.125H17.7434L22.5 18.6134ZM14.9414 33.75L16.3477 30.9375H28.6699L30.0762 33.75H14.9414ZM28.0442 16.4777C28.189 15.668 28.1545 14.8364 27.9431 14.0414C27.7317 13.2465 27.3485 12.5076 26.8205 11.8769C26.2926 11.2461 25.6327 10.7388 24.8874 10.3907C24.1422 10.0426 23.3296 9.86222 22.507 9.86222C21.6845 9.86222 20.8719 10.0426 20.1267 10.3907C19.3814 10.7388 18.7215 11.2461 18.1936 11.8769C17.6656 12.5076 17.2824 13.2465 17.071 14.0414C16.8596 14.8364 16.8251 15.668 16.9699 16.4777C17.0075 16.6612 17.0079 16.8504 16.9713 17.0341C16.9347 17.2179 16.8618 17.3924 16.7568 17.5476C16.6518 17.7027 16.5168 17.8353 16.3599 17.9376C16.2029 18.0398 16.0271 18.1097 15.8427 18.1431C15.6584 18.1765 15.4692 18.1727 15.2864 18.132C15.1035 18.0912 14.9307 18.0144 14.7779 17.9059C14.6252 17.7974 14.4957 17.6595 14.397 17.5003C14.2983 17.3411 14.2324 17.1637 14.2031 16.9787C13.9827 15.763 14.032 14.5137 14.3474 13.3192C14.6629 12.1246 15.2368 11.0139 16.0287 10.0655C16.8206 9.11715 17.8111 8.35427 18.9302 7.83077C20.0493 7.30727 21.2698 7.03593 22.5053 7.03593C23.7408 7.03593 24.9612 7.30727 26.0804 7.83077C27.1995 8.35427 28.19 9.11715 28.9819 10.0655C29.7737 11.0139 30.3477 12.1246 30.6631 13.3192C30.9786 14.5137 31.0279 15.763 30.8074 16.9787C30.749 17.3027 30.5787 17.596 30.3262 17.8073C30.0737 18.0187 29.7551 18.1348 29.4258 18.1353C29.3415 18.1346 29.2575 18.127 29.1744 18.1125C28.9921 18.0802 28.818 18.0123 28.662 17.9127C28.506 17.813 28.3713 17.6835 28.2654 17.5316C28.1596 17.3797 28.0848 17.2084 28.0453 17.0276C28.0058 16.8467 28.0025 16.6599 28.0354 16.4777H28.0442ZM11.2764 23.9431C9.70069 21.8558 8.73829 19.3704 8.49733 16.7662C8.25637 14.162 8.7464 11.5423 9.91234 9.20126C11.0783 6.86024 12.874 4.89075 15.0976 3.51407C17.3212 2.13739 19.8847 1.40808 22.5 1.40808C25.1153 1.40808 27.6788 2.13739 29.9024 3.51407C32.1261 4.89075 33.9217 6.86024 35.0877 9.20126C36.2536 11.5423 36.7437 14.162 36.5027 16.7662C36.2617 19.3704 35.2993 21.8558 33.7237 23.9431C33.4965 24.2342 33.1639 24.4242 32.7978 24.4722C32.4317 24.5201 32.0614 24.4222 31.7669 24.1994C31.4724 23.9767 31.2773 23.6471 31.2238 23.2818C31.1702 22.9164 31.2625 22.5447 31.4807 22.2468C32.7407 20.5768 33.51 18.5886 33.7024 16.5055C33.8947 14.4223 33.5024 12.3268 32.5695 10.4544C31.6366 8.5819 30.2001 7.00663 28.4213 5.90554C26.6426 4.80444 24.592 4.22113 22.5 4.22113C20.408 4.22113 18.3575 4.80444 16.5787 5.90554C14.7999 7.00663 13.3634 8.5819 12.4305 10.4544C11.4976 12.3268 11.1053 14.4223 11.2977 16.5055C11.49 18.5886 12.2594 20.5768 13.5194 22.2468C13.7375 22.5447 13.8298 22.9164 13.7763 23.2818C13.7227 23.6471 13.5276 23.9767 13.2331 24.1994C12.9386 24.4222 12.5684 24.5201 12.2023 24.4722C11.8361 24.4242 11.5036 24.2342 11.2764 23.9431Z" fill="#8B1A83"/>
</svg>
