<svg width="45" height="45" viewBox="0 0 45 45" fill="none" xmlns="http://www.w3.org/2000/svg">
<path opacity="0.2" d="M39.375 9.84375V15.8309C38.5925 15.177 37.6883 14.6843 36.7146 14.3812C35.7409 14.078 34.7169 13.9705 33.7015 14.0646C32.6861 14.1588 31.6993 14.4528 30.7979 14.9298C29.8966 15.4068 29.0985 16.0573 28.4495 16.844C27.8005 17.6306 27.3136 18.5378 27.0166 19.5134C26.7196 20.489 26.6184 21.5137 26.719 22.5285C26.8195 23.5433 27.1197 24.5282 27.6024 25.4265C28.085 26.3249 28.7406 27.1189 29.5312 27.7629V33.75H7.03125C6.65829 33.75 6.3006 33.6018 6.03688 33.3381C5.77316 33.0744 5.625 32.7167 5.625 32.3438V9.84375C5.625 9.47079 5.77316 9.1131 6.03688 8.84938C6.3006 8.58566 6.65829 8.4375 7.03125 8.4375H37.9688C38.3417 8.4375 38.6994 8.58566 38.9631 8.84938C39.2268 9.1131 39.375 9.47079 39.375 9.84375Z" fill="#8B1A83"/>
<path d="M22.5 23.9062C22.5 24.2792 22.3518 24.6369 22.0881 24.9006C21.8244 25.1643 21.4667 25.3125 21.0938 25.3125H12.6562C12.2833 25.3125 11.9256 25.1643 11.6619 24.9006C11.3982 24.6369 11.25 24.2792 11.25 23.9062C11.25 23.5333 11.3982 23.1756 11.6619 22.9119C11.9256 22.6482 12.2833 22.5 12.6562 22.5H21.0938C21.4667 22.5 21.8244 22.6482 22.0881 22.9119C22.3518 23.1756 22.5 23.5333 22.5 23.9062ZM21.0938 16.875H12.6562C12.2833 16.875 11.9256 17.0232 11.6619 17.2869C11.3982 17.5506 11.25 17.9083 11.25 18.2812C11.25 18.6542 11.3982 19.0119 11.6619 19.2756C11.9256 19.5393 12.2833 19.6875 12.6562 19.6875H21.0938C21.4667 19.6875 21.8244 19.5393 22.0881 19.2756C22.3518 19.0119 22.5 18.6542 22.5 18.2812C22.5 17.9083 22.3518 17.5506 22.0881 17.2869C21.8244 17.0232 21.4667 16.875 21.0938 16.875ZM40.7812 28.3834V39.375C40.7835 39.6229 40.7201 39.867 40.5976 40.0826C40.4751 40.2981 40.2978 40.4774 40.0836 40.6023C39.8695 40.7273 39.6261 40.7934 39.3782 40.7939C39.1302 40.7944 38.8866 40.7294 38.6719 40.6055L34.4531 38.1902L30.2344 40.6055C30.0197 40.7294 29.776 40.7944 29.5281 40.7939C29.2802 40.7934 29.0368 40.7273 28.8226 40.6023C28.6085 40.4774 28.4311 40.2981 28.3086 40.0826C28.1861 39.867 28.1228 39.6229 28.125 39.375V35.1562H7.03125C6.28533 35.1562 5.56996 34.8599 5.04251 34.3325C4.51507 33.805 4.21875 33.0897 4.21875 32.3438V9.84375C4.21875 9.09783 4.51507 8.38246 5.04251 7.85501C5.56996 7.32757 6.28533 7.03125 7.03125 7.03125H37.9688C38.7147 7.03125 39.43 7.32757 39.9575 7.85501C40.4849 8.38246 40.7812 9.09783 40.7812 9.84375V15.2104C41.6702 16.0616 42.3776 17.0841 42.8609 18.216C43.3442 19.348 43.5934 20.5661 43.5934 21.7969C43.5934 23.0277 43.3442 24.2458 42.8609 25.3777C42.3776 26.5097 41.6702 27.5321 40.7812 28.3834ZM28.125 32.3438V28.3834C26.5926 26.9055 25.6241 24.939 25.3867 22.8233C25.1493 20.7076 25.6578 18.5753 26.8246 16.7945C27.9914 15.0138 29.7432 13.6961 31.7777 13.069C33.8122 12.4418 36.0019 12.5445 37.9688 13.3594V9.84375H7.03125V32.3438H28.125ZM37.9688 30.2344C36.8551 30.6997 35.6601 30.9393 34.4531 30.9393C33.2462 30.9393 32.0512 30.6997 30.9375 30.2344V36.9527L33.75 35.3426C33.9625 35.2211 34.2031 35.1572 34.4479 35.1572C34.6926 35.1572 34.9332 35.2211 35.1457 35.3426L37.9582 36.9527L37.9688 30.2344ZM40.7812 21.7969C40.7812 20.5453 40.4101 19.3218 39.7148 18.2812C39.0194 17.2405 38.0311 16.4294 36.8748 15.9504C35.7185 15.4715 34.4461 15.3462 33.2186 15.5903C31.991 15.8345 30.8635 16.4372 29.9785 17.3222C29.0935 18.2072 28.4908 19.3348 28.2466 20.5623C28.0024 21.7899 28.1277 23.0622 28.6067 24.2185C29.0857 25.3749 29.8968 26.3632 30.9374 27.0585C31.9781 27.7539 33.2015 28.125 34.4531 28.125C35.2841 28.125 36.107 27.9613 36.8748 27.6433C37.6426 27.3253 38.3402 26.8592 38.9278 26.2715C39.5154 25.6839 39.9815 24.9863 40.2995 24.2185C40.6176 23.4508 40.7812 22.6279 40.7812 21.7969Z" fill="#8B1A83"/>
</svg>
