<svg width="45" height="45" viewBox="0 0 45 45" fill="none" xmlns="http://www.w3.org/2000/svg">
<path opacity="0.2" d="M39.375 22.5C39.375 26.9755 37.5971 31.2677 34.4324 34.4324C31.2677 37.5971 26.9755 39.375 22.5 39.375V29.5312C24.3648 29.5312 26.1532 28.7905 27.4718 27.4718C28.7905 26.1532 29.5312 24.3648 29.5312 22.5C29.5312 20.6352 28.7905 18.8468 27.4718 17.5282C26.1532 16.2095 24.3648 15.4688 22.5 15.4688V5.625C26.9755 5.625 31.2677 7.4029 34.4324 10.5676C37.5971 13.7322 39.375 18.0245 39.375 22.5Z" fill="#8B1A83"/>
<path d="M22.5001 4.21875C22.1271 4.21875 21.7694 4.36691 21.5057 4.63063C21.242 4.89435 21.0938 5.25204 21.0938 5.625V15.4688C21.0938 15.8417 21.242 16.1994 21.5057 16.4631C21.7694 16.7268 22.1271 16.875 22.5001 16.875C23.7383 16.8753 24.9418 17.2841 25.9239 18.0381C26.9061 18.792 27.6121 19.849 27.9324 21.0451C28.2526 22.2411 28.1693 23.5094 27.6953 24.6533C27.2213 25.7972 26.3831 26.7527 25.3107 27.3717C24.2384 27.9907 22.9917 28.2385 21.7641 28.0768C20.5365 27.9151 19.3966 27.3528 18.5211 26.4773C17.6456 25.6017 17.0835 24.4617 16.9219 23.2341C16.7603 22.0064 17.0083 20.7598 17.6274 19.6875C17.7198 19.5275 17.7797 19.3509 17.8038 19.1678C17.8279 18.9847 17.8157 18.7986 17.7679 18.6202C17.7201 18.4417 17.6376 18.2745 17.5251 18.128C17.4126 17.9814 17.2724 17.8585 17.1124 17.7662L8.58697 12.8443C8.42701 12.752 8.25041 12.692 8.06727 12.6679C7.88414 12.6438 7.69804 12.656 7.51963 12.7038C7.34121 12.7517 7.17396 12.8342 7.02744 12.9467C6.88092 13.0591 6.75799 13.1994 6.66568 13.3594C4.65356 16.8445 3.84761 20.8961 4.37282 24.8859C4.89802 28.8757 6.72503 32.5807 9.5705 35.4264C12.416 38.272 16.1209 40.0993 20.1107 40.6247C24.1004 41.1502 28.1521 40.3445 31.6373 38.3326C35.1225 36.3207 37.8465 33.2151 39.3868 29.4973C40.9271 25.7795 41.1977 21.6574 40.1565 17.7702C39.1153 13.883 36.8206 10.4479 33.6283 7.99776C30.4359 5.54761 26.5243 4.21927 22.5001 4.21875ZM8.45337 16.0137L14.5899 19.5574C14.2407 20.4992 14.0621 21.4956 14.0626 22.5C14.0626 22.7689 14.0766 23.0273 14.1012 23.2945L7.2563 25.1367C6.72251 22.0446 7.13993 18.8634 8.45337 16.0137ZM7.98404 27.8455L14.8395 26.0104C15.4127 27.2597 16.2818 28.3505 17.3716 29.1883C18.4614 30.026 19.739 30.5854 21.0938 30.818V37.9037C18.1826 37.6339 15.407 36.5463 13.0873 34.7666C10.7677 32.9869 8.99851 30.5876 7.98404 27.8455ZM23.9063 37.9037V30.818C25.8716 30.4849 27.6554 29.4667 28.9418 27.944C30.2281 26.4213 30.9338 24.4924 30.9338 22.4991C30.9338 20.5058 30.2281 18.5769 28.9418 17.0542C27.6554 15.5315 25.8716 14.5134 23.9063 14.1803V7.09453C27.7492 7.44563 31.3221 9.22043 33.9237 12.0705C36.5253 14.9206 37.9676 18.6402 37.9676 22.4991C37.9676 26.358 36.5253 30.0776 33.9237 32.9277C31.3221 35.7778 27.7492 37.5526 23.9063 37.9037Z" fill="#8B1A83"/>
</svg>
