<svg width="45" height="45" viewBox="0 0 45 45" fill="none" xmlns="http://www.w3.org/2000/svg">
<path opacity="0.2" d="M39.375 18.2812V26.7188H8.4375V18.2812H39.375Z" fill="#8B1A83"/>
<path d="M39.375 16.875H32.3438V9.84375C32.3438 9.47079 32.1956 9.1131 31.9319 8.84938C31.6681 8.58566 31.3105 8.4375 30.9375 8.4375H9.84375V7.03125C9.84375 6.65829 9.69559 6.3006 9.43187 6.03688C9.16815 5.77316 8.81046 5.625 8.4375 5.625C8.06454 5.625 7.70685 5.77316 7.44313 6.03688C7.17941 6.3006 7.03125 6.65829 7.03125 7.03125V37.9688C7.03125 38.3417 7.17941 38.6994 7.44313 38.9631C7.70685 39.2268 8.06454 39.375 8.4375 39.375C8.81046 39.375 9.16815 39.2268 9.43187 38.9631C9.69559 38.6994 9.84375 38.3417 9.84375 37.9688V36.5625H25.3125C25.6855 36.5625 26.0431 36.4143 26.3069 36.1506C26.5706 35.8869 26.7188 35.5292 26.7188 35.1562V28.125H39.375C39.748 28.125 40.1056 27.9768 40.3694 27.7131C40.6331 27.4494 40.7812 27.0917 40.7812 26.7188V18.2812C40.7812 17.9083 40.6331 17.5506 40.3694 17.2869C40.1056 17.0232 39.748 16.875 39.375 16.875ZM29.5312 11.25V16.875H9.84375V11.25H29.5312ZM23.9062 33.75H9.84375V28.125H23.9062V33.75ZM37.9688 25.3125H9.84375V19.6875H37.9688V25.3125Z" fill="#8B1A83"/>
</svg>
