<svg width="45" height="45" viewBox="0 0 45 45" fill="none" xmlns="http://www.w3.org/2000/svg">
<path opacity="0.2" d="M39.375 11.25V36.5625H5.625V8.4375H36.5625C37.3084 8.4375 38.0238 8.73382 38.5512 9.26126C39.0787 9.78871 39.375 10.5041 39.375 11.25Z" fill="#8B1A83"/>
<path d="M40.7812 36.5625C40.7812 36.9355 40.6331 37.2931 40.3694 37.5569C40.1056 37.8206 39.748 37.9688 39.375 37.9688H5.625C5.25204 37.9688 4.89435 37.8206 4.63063 37.5569C4.36691 37.2931 4.21875 36.9355 4.21875 36.5625V8.4375C4.21875 8.06454 4.36691 7.70685 4.63063 7.44313C4.89435 7.17941 5.25204 7.03125 5.625 7.03125C5.99796 7.03125 6.35565 7.17941 6.61937 7.44313C6.88309 7.70685 7.03125 8.06454 7.03125 8.4375V27.5432L15.8801 18.6926C16.0107 18.5618 16.1658 18.4581 16.3365 18.3873C16.5072 18.3166 16.6902 18.2801 16.875 18.2801C17.0598 18.2801 17.2428 18.3166 17.4135 18.3873C17.5842 18.4581 17.7393 18.5618 17.8699 18.6926L22.5 23.3244L31.7619 14.0625H28.125C27.752 14.0625 27.3944 13.9143 27.1306 13.6506C26.8669 13.3869 26.7188 13.0292 26.7188 12.6562C26.7188 12.2833 26.8669 11.9256 27.1306 11.6619C27.3944 11.3982 27.752 11.25 28.125 11.25H35.1562C35.5292 11.25 35.8869 11.3982 36.1506 11.6619C36.4143 11.9256 36.5625 12.2833 36.5625 12.6562V19.6875C36.5625 20.0605 36.4143 20.4181 36.1506 20.6819C35.8869 20.9456 35.5292 21.0938 35.1562 21.0938C34.7833 21.0938 34.4256 20.9456 34.1619 20.6819C33.8982 20.4181 33.75 20.0605 33.75 19.6875V16.0506L23.4949 26.3074C23.3643 26.4382 23.2092 26.5419 23.0385 26.6127C22.8678 26.6834 22.6848 26.7199 22.5 26.7199C22.3152 26.7199 22.1322 26.6834 21.9615 26.6127C21.7908 26.5419 21.6357 26.4382 21.5051 26.3074L16.875 21.6756L7.03125 31.5193V35.1562H39.375C39.748 35.1562 40.1056 35.3044 40.3694 35.5681C40.6331 35.8319 40.7812 36.1895 40.7812 36.5625Z" fill="#8B1A83"/>
</svg>
