<svg width="45" height="45" viewBox="0 0 45 45" fill="none" xmlns="http://www.w3.org/2000/svg">
<path opacity="0.2" d="M39.375 16.875V39.375L32.4176 33.75H15.4688C15.0958 33.75 14.7381 33.6018 14.4744 33.3381C14.2107 33.0744 14.0625 32.7167 14.0625 32.3438V25.3125H29.5312C29.9042 25.3125 30.2619 25.1643 30.5256 24.9006C30.7893 24.6369 30.9375 24.2792 30.9375 23.9062V15.4688H37.9688C38.3417 15.4688 38.6994 15.6169 38.9631 15.8806C39.2268 16.1444 39.375 16.502 39.375 16.875Z" fill="#8B1A83"/>
<path d="M37.9688 14.0625H32.3438V8.4375C32.3438 7.69158 32.0474 6.97621 31.52 6.44876C30.9925 5.92132 30.2772 5.625 29.5312 5.625H7.03125C6.28533 5.625 5.56996 5.92132 5.04251 6.44876C4.51507 6.97621 4.21875 7.69158 4.21875 8.4375V30.9375C4.21958 31.2021 4.29502 31.461 4.43641 31.6846C4.5778 31.9083 4.7794 32.0875 5.01805 32.2016C5.25671 32.3158 5.52273 32.3604 5.78557 32.3302C6.0484 32.3 6.29738 32.1962 6.50391 32.0309L12.6562 27.0703V32.3438C12.6562 33.0897 12.9526 33.805 13.48 34.3325C14.0075 34.8599 14.7228 35.1562 15.4688 35.1562H31.9201L38.4961 40.4684C38.7449 40.6696 39.055 40.78 39.375 40.7812C39.748 40.7812 40.1056 40.6331 40.3694 40.3694C40.6331 40.1056 40.7812 39.748 40.7812 39.375V16.875C40.7812 16.1291 40.4849 15.4137 39.9575 14.8863C39.43 14.3588 38.7147 14.0625 37.9688 14.0625ZM11.6982 24.2191L7.03125 27.9932V8.4375H29.5312V23.9062H12.5824C12.2606 23.9063 11.9485 24.0167 11.6982 24.2191ZM37.9688 36.4307L33.3018 32.6566C33.0529 32.4554 32.7429 32.345 32.4229 32.3438H15.4688V26.7188H29.5312C30.2772 26.7188 30.9925 26.4224 31.52 25.895C32.0474 25.3675 32.3438 24.6522 32.3438 23.9062V16.875H37.9688V36.4307Z" fill="#8B1A83"/>
</svg>
