<svg width="45" height="45" viewBox="0 0 45 45" fill="none" xmlns="http://www.w3.org/2000/svg">
<path opacity="0.2" d="M39.375 9.84375V32.3438C39.375 32.7167 39.2268 33.0744 38.9631 33.3381C38.6994 33.6018 38.3417 33.75 37.9688 33.75H26.5307L23.7182 38.6719C23.5953 38.8875 23.4175 39.0667 23.2029 39.1913C22.9884 39.316 22.7446 39.3817 22.4965 39.3817C22.2483 39.3817 22.0046 39.316 21.79 39.1913C21.5755 39.0667 21.3977 38.8875 21.2748 38.6719L18.4623 33.75H7.03125C6.65829 33.75 6.3006 33.6018 6.03688 33.3381C5.77316 33.0744 5.625 32.7167 5.625 32.3438V9.84375C5.625 9.47079 5.77316 9.1131 6.03688 8.84938C6.3006 8.58566 6.65829 8.4375 7.03125 8.4375H37.9688C38.3417 8.4375 38.6994 8.58566 38.9631 8.84938C39.2268 9.1131 39.375 9.47079 39.375 9.84375Z" fill="#8B1A83"/>
<path d="M20.3906 21.0938C20.3906 20.6766 20.5143 20.2687 20.7461 19.9218C20.9779 19.575 21.3073 19.3046 21.6928 19.1449C22.0782 18.9853 22.5023 18.9435 22.9115 19.0249C23.3207 19.1063 23.6966 19.3072 23.9916 19.6022C24.2866 19.8972 24.4875 20.2731 24.5688 20.6822C24.6502 21.0914 24.6085 21.5155 24.4488 21.901C24.2892 22.2864 24.0188 22.6158 23.6719 22.8476C23.325 23.0794 22.9172 23.2031 22.5 23.2031C21.9406 23.2031 21.404 22.9809 21.0084 22.5853C20.6129 22.1897 20.3906 21.6532 20.3906 21.0938ZM14.7656 23.2031C15.1828 23.2031 15.5906 23.0794 15.9375 22.8476C16.2844 22.6158 16.5548 22.2864 16.7144 21.901C16.8741 21.5155 16.9159 21.0914 16.8345 20.6822C16.7531 20.2731 16.5522 19.8972 16.2572 19.6022C15.9622 19.3072 15.5863 19.1063 15.1771 19.0249C14.768 18.9435 14.3438 18.9853 13.9584 19.1449C13.573 19.3046 13.2435 19.575 13.0117 19.9218C12.78 20.2687 12.6562 20.6766 12.6562 21.0938C12.6562 21.6532 12.8785 22.1897 13.2741 22.5853C13.6697 22.9809 14.2062 23.2031 14.7656 23.2031ZM30.2344 23.2031C30.6516 23.2031 31.0594 23.0794 31.4063 22.8476C31.7532 22.6158 32.0235 22.2864 32.1832 21.901C32.3428 21.5155 32.3846 21.0914 32.3032 20.6822C32.2218 20.2731 32.0209 19.8972 31.7259 19.6022C31.4309 19.3072 31.0551 19.1063 30.6459 19.0249C30.2367 18.9435 29.8126 18.9853 29.4272 19.1449C29.0417 19.3046 28.7123 19.575 28.4805 19.9218C28.2487 20.2687 28.125 20.6766 28.125 21.0938C28.125 21.6532 28.3472 22.1897 28.7428 22.5853C29.1384 22.9809 29.6749 23.2031 30.2344 23.2031ZM40.7812 9.84375V32.3438C40.7812 33.0897 40.4849 33.805 39.9575 34.3325C39.43 34.8599 38.7147 35.1562 37.9688 35.1562H27.3463L24.9416 39.3645C24.6956 39.7948 24.3401 40.1525 23.9114 40.4012C23.4826 40.65 22.9957 40.781 22.5 40.781C22.0043 40.781 21.5174 40.65 21.0886 40.4012C20.6598 40.1525 20.3044 39.7948 20.0584 39.3645L17.6537 35.1562H7.03125C6.28533 35.1562 5.56996 34.8599 5.04251 34.3325C4.51507 33.805 4.21875 33.0897 4.21875 32.3438V9.84375C4.21875 9.09783 4.51507 8.38246 5.04251 7.85501C5.56996 7.32757 6.28533 7.03125 7.03125 7.03125H37.9688C38.7147 7.03125 39.43 7.32757 39.9575 7.85501C40.4849 8.38246 40.7812 9.09783 40.7812 9.84375ZM37.9688 9.84375H7.03125V32.3438H18.4693C18.7183 32.3415 18.9634 32.4054 19.1796 32.529C19.3958 32.6525 19.5753 32.8312 19.6998 33.0469L22.5123 37.9688L25.3248 33.0469C25.4493 32.8312 25.6288 32.6525 25.845 32.529C26.0612 32.4054 26.3063 32.3415 26.5553 32.3438H37.9688V9.84375Z" fill="#8B1A83"/>
</svg>
