<svg width="45" height="45" viewBox="0 0 45 45" fill="none" xmlns="http://www.w3.org/2000/svg">
<path opacity="0.2" d="M40.7214 37.5697C40.7926 37.812 40.7972 38.069 40.7347 38.3137C40.6723 38.5584 40.5451 38.7818 40.3665 38.9604C40.188 39.1389 39.9646 39.2661 39.7199 39.3286C39.4752 39.391 39.2182 39.3864 38.9759 39.3153L34.1015 37.8809C32.4913 38.742 30.714 39.2448 28.8913 39.3547C27.0686 39.4646 25.2437 39.1792 23.5417 38.5178C21.8397 37.8565 20.3008 36.8349 19.0306 35.5232C17.7603 34.2115 16.7887 32.6406 16.1824 30.9182C16.4126 30.9305 16.6429 30.9375 16.875 30.9375C18.8979 30.9377 20.8914 30.4529 22.6884 29.5239C24.4854 28.5948 26.0335 27.2485 27.203 25.5979C28.3724 23.9472 29.1292 22.0403 29.4098 20.0369C29.6904 18.0335 29.4867 15.9921 28.8158 14.0836C30.9418 14.1991 33.0043 14.849 34.8124 15.9733C36.6206 17.0975 38.1158 18.6598 39.1598 20.5154C40.2038 22.371 40.7628 24.46 40.7851 26.5891C40.8073 28.7181 40.2921 30.8183 39.2871 32.6953L40.7214 37.5697Z" fill="#8B1A83"/>
<path d="M40.7936 32.8289C41.7652 30.8136 42.242 28.5955 42.1843 26.3588C42.1266 24.1222 41.536 21.9316 40.4616 19.9691C39.3873 18.0065 37.8601 16.3286 36.0071 15.0748C34.154 13.821 32.0286 13.0274 29.8072 12.76C29.0681 11.0415 27.9935 9.48774 26.6464 8.18972C25.2993 6.8917 23.7068 5.8755 21.9621 5.20063C20.2173 4.52576 18.3555 4.20579 16.4855 4.25945C14.6156 4.31311 12.7752 4.73933 11.072 5.51314C9.36884 6.28695 7.8372 7.39281 6.56675 8.76595C5.2963 10.1391 4.3126 11.7519 3.67324 13.51C3.03388 15.268 2.75172 17.136 2.84328 19.0044C2.93484 20.8729 3.39828 22.7043 4.20646 24.3914L2.92853 28.735C2.78565 29.2199 2.77609 29.7343 2.90087 30.2242C3.02565 30.7141 3.28016 31.1612 3.63761 31.5187C3.99505 31.8761 4.44223 32.1306 4.9321 32.2554C5.42197 32.3802 5.93641 32.3707 6.4213 32.2278L10.7649 30.9498C12.1596 31.6199 13.6549 32.0564 15.191 32.2418C15.9374 33.9905 17.0305 35.5697 18.4045 36.8839C19.7784 38.1981 21.4046 39.2201 23.1847 39.888C24.9648 40.5559 26.8619 40.8559 28.7612 40.7698C30.6606 40.6838 32.5227 40.2135 34.2352 39.3873L38.5787 40.6653C39.0634 40.808 39.5777 40.8175 40.0673 40.6928C40.557 40.5681 41.004 40.3137 41.3614 39.9565C41.7187 39.5993 41.9733 39.1524 42.0983 38.6628C42.2232 38.1733 42.214 37.659 42.0715 37.1743L40.7936 32.8289ZM10.8985 28.0371C10.7641 28.0375 10.6304 28.0564 10.5012 28.0934L5.62501 29.5313L7.06115 24.6516C7.16329 24.2991 7.12355 23.9205 6.95041 23.5969C5.67829 21.2179 5.30347 18.4609 5.89425 15.8285C6.48503 13.1962 8.00209 10.8638 10.1689 9.25658C12.3356 7.64933 15.0078 6.87423 17.6984 7.07259C20.3889 7.27095 22.9185 8.42955 24.8261 10.3372C26.7338 12.2448 27.8924 14.7745 28.0907 17.465C28.2891 20.1555 27.514 22.8277 25.9067 24.9945C24.2995 27.1612 21.9671 28.6783 19.3348 29.2691C16.7025 29.8599 13.9455 29.485 11.5664 28.2129C11.3618 28.0997 11.1323 28.0393 10.8985 28.0371ZM37.9319 33.0873L39.375 37.9688L34.4953 36.5327C34.1428 36.4305 33.7643 36.4703 33.4406 36.6434C30.8511 38.0261 27.8239 38.3428 25.0042 37.5258C22.1846 36.7088 19.7955 34.8229 18.3463 32.27C20.2718 32.069 22.1349 31.4723 23.8189 30.5173C25.5029 29.5623 26.9713 28.2695 28.1321 26.7202C29.2929 25.1709 30.121 23.3984 30.5644 21.514C31.0079 19.6295 31.0571 17.6737 30.709 15.7694C32.3866 16.1648 33.951 16.9405 35.2813 18.0364C36.6116 19.1324 37.6723 20.5194 38.3815 22.0903C39.0907 23.6613 39.4294 25.3742 39.3716 27.0968C39.3137 28.8195 38.8609 30.5058 38.0479 32.0256C37.8728 32.3512 37.8331 32.7326 37.9371 33.0873H37.9319Z" fill="#8B1A83"/>
</svg>
