<svg width="45" height="45" viewBox="0 0 45 45" fill="none" xmlns="http://www.w3.org/2000/svg">
<path opacity="0.2" d="M13.224 11.0408L22.3101 13.3119C22.0889 16.423 21.6186 19.5114 20.9039 22.5474C20.7149 23.2633 20.3865 23.9348 19.9374 24.5235C19.4883 25.1121 18.9274 25.6063 18.2869 25.9778C17.6464 26.3492 16.9388 26.5905 16.2049 26.6878C15.4709 26.7852 14.7249 26.7367 14.0097 26.5451C13.2945 26.3535 12.6242 26.0226 12.0372 25.5714C11.4502 25.1202 10.958 24.5575 10.5889 23.9157C10.2198 23.2738 9.9811 22.5654 9.8864 21.8311C9.79171 21.0968 9.84292 20.351 10.0371 19.6365C10.8542 16.6862 11.9203 13.8106 13.224 11.0408ZM34.9629 23.8552C34.1109 20.7936 32.9934 17.8122 31.623 14.9449L22.5861 17.2054C22.7848 20.0812 23.2137 23.4755 24.0961 26.7662C24.2851 27.482 24.6135 28.1536 25.0626 28.7422C25.5117 29.3309 26.0726 29.8251 26.7131 30.1965C27.3536 30.5679 28.0611 30.8092 28.7951 30.9066C29.5291 31.0039 30.2751 30.9554 30.9902 30.7639C31.7054 30.5723 32.3758 30.2414 32.9628 29.7902C33.5498 29.3389 34.042 28.7763 34.4111 28.1344C34.7801 27.4926 35.0189 26.7842 35.1136 26.0498C35.2083 25.3155 35.1571 24.5697 34.9629 23.8552Z" fill="#8B1A83"/>
<path d="M37.6049 37.6066L34.5023 38.4381L32.6707 31.6019C34.1195 30.8764 35.2737 29.6735 35.9388 28.1961C36.6039 26.7186 36.7391 25.057 36.3217 23.4914C34.1068 15.2297 29.5049 7.98397 29.3098 7.67987C29.151 7.43171 28.9183 7.23967 28.6446 7.13085C28.3708 7.02204 28.0698 7.00195 27.784 7.07343L23.9414 8.03495C23.9414 6.58475 23.9098 5.67421 23.9045 5.55995C23.8905 5.25786 23.7794 4.96833 23.5879 4.73433C23.3963 4.50033 23.1344 4.33432 22.841 4.26093L17.216 2.85468C16.9302 2.7832 16.6292 2.80329 16.3554 2.9121C16.0817 3.02091 15.849 3.21296 15.6902 3.46112C15.4951 3.76522 10.8932 11.0074 8.67832 19.2814C8.2609 20.847 8.39614 22.5086 9.06122 23.9861C9.7263 25.4636 10.8805 26.6665 12.3293 27.392L10.4977 34.2193L7.39512 33.3879C7.03474 33.2914 6.65079 33.342 6.32773 33.5286C6.00467 33.7152 5.76896 34.0224 5.67246 34.3828C5.57596 34.7432 5.62656 35.1271 5.81315 35.4502C5.99973 35.7732 6.30701 36.009 6.66738 36.1055L15.1049 38.366C15.2237 38.3972 15.3459 38.4132 15.4688 38.4135C15.8102 38.4139 16.1401 38.29 16.397 38.065C16.6538 37.84 16.82 37.5292 16.8646 37.1907C16.9091 36.8522 16.829 36.509 16.6391 36.2252C16.4492 35.9414 16.1626 35.7364 15.8326 35.6484L13.2135 34.9453L15.0451 28.1092C15.1875 28.118 15.3281 28.1232 15.4688 28.1232C16.8639 28.1193 18.2265 27.7017 19.3842 26.9232C20.5419 26.1447 21.4427 25.0403 21.9727 23.7498C22.1801 24.8695 22.4297 26.0033 22.7303 27.1283C23.1327 28.6245 24.0171 29.9463 25.2465 30.8891C26.476 31.8319 27.9819 32.3432 29.5312 32.3437C29.6719 32.3437 29.8125 32.3437 29.9549 32.3297L31.7865 39.1658L29.1674 39.8689C28.839 39.9582 28.5541 40.1635 28.3655 40.4468C28.1769 40.7301 28.0975 41.0722 28.1419 41.4096C28.1864 41.747 28.3516 42.0568 28.6071 42.2817C28.8626 42.5065 29.1909 42.631 29.5312 42.6322C29.6541 42.6319 29.7763 42.616 29.8951 42.5848L38.3326 40.3242C38.693 40.2277 39.0003 39.992 39.1869 39.6689C39.3734 39.3459 39.424 38.9619 39.3275 38.6016C39.231 38.2412 38.9953 37.9339 38.6723 37.7473C38.3492 37.5607 37.9653 37.5101 37.6049 37.6066ZM27.4605 10.0529C27.9492 10.8791 28.7314 12.2572 29.6051 14.001L23.9062 15.4283C23.8324 13.6705 23.8395 12.2203 23.8623 11.2465C23.8623 11.148 23.8711 11.0496 23.8764 10.9512L27.4605 10.0529ZM17.5395 5.83417L21.1201 6.72889C21.1307 7.48124 21.1201 8.60448 21.0832 9.97557C21.0727 10.1883 21.0551 10.5363 21.0428 11.0021C21.0428 11.1779 21.0252 11.3537 21.0146 11.5295L15.2385 10.0951C16.1719 8.2037 17.0227 6.7078 17.5395 5.83417ZM19.5416 22.1976C19.2393 23.2655 18.5284 24.1712 17.5629 24.7185C16.5974 25.2659 15.4552 25.4107 14.3837 25.1217C13.3121 24.8326 12.3977 24.133 11.8384 23.1744C11.2792 22.2158 11.1202 21.0754 11.3959 20.0004C12.0883 17.5002 12.9698 15.0562 14.0326 12.6896L20.8143 14.3842C20.5776 17.0158 20.1523 19.627 19.5416 22.1976ZM25.4549 26.4023C24.7662 23.7395 24.3069 21.0225 24.082 18.2812L30.8338 16.5937C31.9557 19.0594 32.8815 21.6097 33.6023 24.2209C33.7549 24.7589 33.7991 25.3218 33.7322 25.877C33.6652 26.4322 33.4886 26.9686 33.2125 27.4549C32.9364 27.9412 32.5664 28.3678 32.124 28.7098C31.6816 29.0518 31.1756 29.3025 30.6354 29.4472C30.0953 29.5919 29.5317 29.6278 28.9776 29.5527C28.4234 29.4777 27.8897 29.2932 27.4075 29.0101C26.9253 28.7269 26.5042 28.3507 26.1686 27.9033C25.8331 27.4559 25.5899 26.9463 25.4531 26.4041L25.4549 26.4023ZM32.4861 7.66054C32.4034 7.49528 32.354 7.31533 32.3408 7.13097C32.3277 6.94662 32.351 6.76148 32.4094 6.58614C32.4679 6.4108 32.5603 6.2487 32.6815 6.10912C32.8026 5.96953 32.9501 5.85519 33.1154 5.77264L35.9279 4.36639C36.0932 4.28375 36.2732 4.23448 36.4575 4.22138C36.6418 4.20828 36.8269 4.23161 37.0022 4.29005C37.1775 4.34848 37.3396 4.44088 37.4792 4.56195C37.6188 4.68303 37.7332 4.83041 37.8158 4.99569C37.8985 5.16097 37.9477 5.34091 37.9608 5.52524C37.9739 5.70956 37.9506 5.89466 37.8922 6.06997C37.8337 6.24528 37.7413 6.40736 37.6203 6.54696C37.4992 6.68656 37.3518 6.80094 37.1865 6.88358L34.374 8.28983C34.2088 8.37259 34.0288 8.42197 33.8445 8.43513C33.6601 8.44829 33.475 8.42498 33.2996 8.36653C33.1243 8.30809 32.9622 8.21565 32.8226 8.09451C32.683 7.97337 32.5687 7.8259 32.4861 7.66054ZM40.7812 12.6562C40.7812 13.0292 40.6331 13.3869 40.3694 13.6506C40.1056 13.9143 39.748 14.0625 39.375 14.0625H36.5625C36.1895 14.0625 35.8319 13.9143 35.5681 13.6506C35.3044 13.3869 35.1562 13.0292 35.1562 12.6562C35.1562 12.2833 35.3044 11.9256 35.5681 11.6619C35.8319 11.3981 36.1895 11.25 36.5625 11.25H39.375C39.748 11.25 40.1056 11.3981 40.3694 11.6619C40.6331 11.9256 40.7812 12.2833 40.7812 12.6562ZM5.77266 3.58944C5.85521 3.42408 5.96954 3.27661 6.10913 3.15547C6.24872 3.03433 6.41081 2.94189 6.58615 2.88344C6.76149 2.825 6.94663 2.80169 7.13098 2.81485C7.31534 2.82801 7.49529 2.87738 7.66055 2.96014L10.473 4.36639C10.6383 4.44904 10.7857 4.56342 10.9068 4.70302C11.0279 4.84262 11.1203 5.0047 11.1787 5.18001C11.2371 5.35531 11.2605 5.54042 11.2474 5.72474C11.2343 5.90906 11.185 6.089 11.1023 6.25429C11.0197 6.41957 10.9053 6.56695 10.7657 6.68803C10.6261 6.8091 10.464 6.90149 10.2887 6.95993C9.93468 7.07794 9.54825 7.05048 9.21445 6.88358L6.40195 5.47733C6.23659 5.39478 6.08912 5.28045 5.96798 5.14086C5.84684 5.00127 5.7544 4.83917 5.69596 4.66384C5.63751 4.4885 5.6142 4.30336 5.62736 4.119C5.64052 3.93465 5.6899 3.7547 5.77266 3.58944ZM7.03125 12.6562H4.21875C3.84579 12.6562 3.4881 12.5081 3.22438 12.2444C2.96066 11.9806 2.8125 11.6229 2.8125 11.25C2.8125 10.877 2.96066 10.5193 3.22438 10.2556C3.4881 9.9919 3.84579 9.84374 4.21875 9.84374H7.03125C7.40421 9.84374 7.7619 9.9919 8.02562 10.2556C8.28934 10.5193 8.4375 10.877 8.4375 11.25C8.4375 11.6229 8.28934 11.9806 8.02562 12.2444C7.7619 12.5081 7.40421 12.6562 7.03125 12.6562Z" fill="#8B1A83"/>
</svg>
