<svg width="45" height="45" viewBox="0 0 45 45" fill="none" xmlns="http://www.w3.org/2000/svg">
<path opacity="0.2" d="M42.1874 22.5C42.1874 26.2296 40.7059 29.8064 38.0686 32.4437C35.4314 35.0809 31.8545 36.5625 28.1249 36.5625H12.6562C11.2604 36.5608 9.88097 36.2622 8.60937 35.6867C7.33778 35.1112 6.20312 34.2718 5.28068 33.2243C4.35824 32.1768 3.66912 30.9451 3.25903 29.6109C2.84895 28.2767 2.72728 26.8706 2.90211 25.4858C3.07693 24.101 3.54425 22.7692 4.27305 21.5788C5.00186 20.3884 5.97548 19.3667 7.12932 18.5813C8.28316 17.7959 9.59083 17.2648 10.9656 17.0234C12.3403 16.7819 13.7507 16.8356 15.1031 17.1808V17.1984C16.3336 14.1801 18.5745 11.683 21.4425 10.134C24.3105 8.58512 27.6275 8.0806 30.8263 8.70675C34.0251 9.33289 36.9071 11.0508 38.9794 13.5668C41.0518 16.0827 42.1857 19.2405 42.1874 22.5Z" fill="#8B1A83"/>
<path d="M28.125 7.03125C25.2521 7.03346 22.4366 7.83481 19.9931 9.34569C17.5497 10.8566 15.5748 13.0174 14.2892 15.5865C12.7598 15.3635 11.2009 15.4579 9.70967 15.864C8.21843 16.2701 6.82686 16.9792 5.62176 17.9469C4.41666 18.9146 3.42388 20.1202 2.70535 21.4886C1.98681 22.8569 1.55794 24.3587 1.44547 25.9001C1.33301 27.4416 1.53937 28.9897 2.05168 30.4478C2.56399 31.906 3.37126 33.243 4.42314 34.3754C5.47502 35.5077 6.74894 36.4112 8.16544 37.0295C9.58195 37.6477 11.1107 37.9675 12.6562 37.9688H28.125C32.2275 37.9688 36.1621 36.339 39.063 33.4381C41.964 30.5371 43.5937 26.6026 43.5937 22.5C43.5937 18.3974 41.964 14.4629 39.063 11.5619C36.1621 8.66099 32.2275 7.03125 28.125 7.03125ZM28.125 35.1562H12.6562C10.4184 35.1562 8.27233 34.2673 6.68999 32.685C5.10765 31.1026 4.2187 28.9565 4.2187 26.7188C4.2187 24.481 5.10765 22.3349 6.68999 20.7525C8.27233 19.1702 10.4184 18.2812 12.6562 18.2812C12.8496 18.2812 13.0429 18.2812 13.2345 18.3006C12.85 19.6672 12.6554 21.0803 12.6562 22.5C12.6562 22.873 12.8044 23.2306 13.0681 23.4944C13.3318 23.7581 13.6895 23.9062 14.0625 23.9062C14.4354 23.9062 14.7931 23.7581 15.0568 23.4944C15.3205 23.2306 15.4687 22.873 15.4687 22.5C15.4687 19.9968 16.211 17.5499 17.6017 15.4686C18.9923 13.3873 20.969 11.7651 23.2816 10.8071C25.5942 9.84923 28.139 9.59859 30.5941 10.0869C33.0491 10.5753 35.3043 11.7807 37.0743 13.5507C38.8443 15.3207 40.0497 17.5758 40.538 20.0309C41.0264 22.486 40.7757 25.0307 39.8178 27.3433C38.8599 29.656 37.2377 31.6326 35.1564 33.0233C33.0751 34.414 30.6281 35.1562 28.125 35.1562ZM34.7449 18.6926C34.8756 18.8232 34.9793 18.9783 35.0501 19.149C35.1209 19.3197 35.1573 19.5027 35.1573 19.6875C35.1573 19.8723 35.1209 20.0553 35.0501 20.226C34.9793 20.3967 34.8756 20.5518 34.7449 20.6824L26.3074 29.1199C26.1768 29.2507 26.0217 29.3544 25.851 29.4252C25.6802 29.4959 25.4973 29.5324 25.3125 29.5324C25.1276 29.5324 24.9447 29.4959 24.7739 29.4252C24.6032 29.3544 24.4481 29.2507 24.3175 29.1199L20.0988 24.9012C19.8349 24.6373 19.6867 24.2794 19.6867 23.9062C19.6867 23.5331 19.8349 23.1752 20.0988 22.9113C20.3626 22.6475 20.7205 22.4992 21.0937 22.4992C21.4669 22.4992 21.8248 22.6475 22.0886 22.9113L25.3125 26.1369L32.755 18.6926C32.8856 18.5618 33.0407 18.4581 33.2114 18.3873C33.3822 18.3166 33.5651 18.2801 33.75 18.2801C33.9348 18.2801 34.1177 18.3166 34.2885 18.3873C34.4592 18.4581 34.6143 18.5618 34.7449 18.6926Z" fill="#8B1A83"/>
</svg>
