<svg width="45" height="45" viewBox="0 0 45 45" fill="none" xmlns="http://www.w3.org/2000/svg">
<path opacity="0.2" d="M42.1875 22.5L33.75 29.5312H11.25L2.8125 22.5L11.25 15.4688H33.75L42.1875 22.5Z" fill="#8B1A83"/>
<path d="M12.1499 16.5499L5.00971 22.5L12.1499 28.4502C12.2959 28.5671 12.4171 28.7119 12.5065 28.8762C12.5958 29.0404 12.6515 29.2209 12.6703 29.4069C12.689 29.593 12.6705 29.7809 12.6158 29.9597C12.561 30.1385 12.4712 30.3046 12.3515 30.4482C12.2318 30.5919 12.0847 30.7102 11.9187 30.7963C11.7527 30.8824 11.5712 30.9346 11.3848 30.9497C11.1984 30.9648 11.0109 30.9426 10.8332 30.8844C10.6555 30.8262 10.4912 30.7331 10.3499 30.6106L1.91244 23.5793C1.75412 23.4474 1.62675 23.2822 1.53934 23.0955C1.45193 22.9089 1.40662 22.7053 1.40662 22.4992C1.40662 22.2931 1.45193 22.0895 1.53934 21.9028C1.62675 21.7161 1.75412 21.551 1.91244 21.419L10.3499 14.3877C10.6367 14.149 11.0064 14.034 11.378 14.068C11.7495 14.1019 12.0923 14.2821 12.331 14.5688C12.5697 14.8555 12.6847 15.2253 12.6508 15.5968C12.6168 15.9683 12.4367 16.3112 12.1499 16.5499ZM43.0874 21.419L34.6499 14.3877C34.508 14.2696 34.3441 14.1805 34.1677 14.1256C33.9913 14.0708 33.8059 14.0512 33.6219 14.068C33.438 14.0848 33.2591 14.1377 33.0956 14.2236C32.9321 14.3095 32.7871 14.4268 32.6689 14.5688C32.4302 14.8555 32.3152 15.2253 32.3491 15.5968C32.3831 15.9683 32.5632 16.3112 32.8499 16.5499L39.9902 22.5L32.8499 28.4502C32.704 28.5671 32.5828 28.7119 32.4934 28.8762C32.4041 29.0404 32.3484 29.2209 32.3296 29.4069C32.3109 29.593 32.3294 29.7809 32.3841 29.9597C32.4389 30.1385 32.5287 30.3046 32.6484 30.4482C32.7681 30.5919 32.9152 30.7102 33.0812 30.7963C33.2472 30.8824 33.4287 30.9346 33.6151 30.9497C33.8015 30.9648 33.989 30.9426 34.1667 30.8844C34.3444 30.8262 34.5087 30.7331 34.6499 30.6106L43.0874 23.5793C43.2458 23.4474 43.3731 23.2822 43.4606 23.0955C43.548 22.9089 43.5933 22.7053 43.5933 22.4992C43.5933 22.2931 43.548 22.0895 43.4606 21.9028C43.3731 21.7161 43.2458 21.551 43.0874 21.419ZM28.6048 5.70942C28.4312 5.6464 28.2469 5.61818 28.0624 5.62639C27.8779 5.6346 27.6969 5.67906 27.5296 5.75725C27.3622 5.83543 27.212 5.94581 27.0873 6.08207C26.9627 6.21834 26.8661 6.37782 26.8031 6.55141L15.5531 37.4889C15.4898 37.6626 15.4614 37.8471 15.4694 38.0318C15.4775 38.2165 15.5219 38.3977 15.6001 38.5653C15.6783 38.7328 15.7888 38.8832 15.9252 39.008C16.0616 39.1328 16.2213 39.2294 16.3951 39.2924C16.5491 39.3472 16.7114 39.3751 16.8749 39.375C17.1637 39.3751 17.4455 39.2861 17.682 39.1204C17.9185 38.9547 18.0983 38.7201 18.1968 38.4487L29.4468 7.51118C29.5098 7.33759 29.5381 7.15328 29.5299 6.96879C29.5216 6.78429 29.4772 6.60322 29.399 6.43591C29.3208 6.2686 29.2104 6.11833 29.0742 5.99368C28.9379 5.86903 28.7784 5.77244 28.6048 5.70942Z" fill="#8B1A83"/>
</svg>
