<svg width="45" height="45" viewBox="0 0 45 45" fill="none" xmlns="http://www.w3.org/2000/svg">
<path opacity="0.2" d="M33.75 29.5312C33.75 30.4546 33.5681 31.3689 33.2148 32.222C32.8614 33.0751 32.3435 33.8502 31.6906 34.5031C31.0377 35.156 30.2626 35.6739 29.4095 36.0273C28.5564 36.3806 27.6421 36.5625 26.7188 36.5625H22.5V22.5H26.7188C27.6421 22.5 28.5564 22.6819 29.4095 23.0352C30.2626 23.3886 31.0377 23.9065 31.6906 24.5594C32.3435 25.2123 32.8614 25.9874 33.2148 26.8405C33.5681 27.6936 33.75 28.6079 33.75 29.5312ZM19.6875 8.4375C17.8227 8.4375 16.0343 9.17829 14.7157 10.4969C13.397 11.8155 12.6562 13.6039 12.6562 15.4688C12.6562 17.3336 13.397 19.122 14.7157 20.4406C16.0343 21.7592 17.8227 22.5 19.6875 22.5H22.5V8.4375H19.6875Z" fill="#8B1A83"/>
<path d="M26.7188 21.0938H23.9062V9.84375H25.3125C26.8043 9.84375 28.2351 10.4364 29.29 11.4913C30.3449 12.5462 30.9375 13.9769 30.9375 15.4688C30.9375 15.8417 31.0857 16.1994 31.3494 16.4631C31.6131 16.7268 31.9708 16.875 32.3438 16.875C32.7167 16.875 33.0744 16.7268 33.3381 16.4631C33.6018 16.1994 33.75 15.8417 33.75 15.4688C33.7477 13.2317 32.858 11.0869 31.2761 9.50511C29.6943 7.92327 27.5495 7.03358 25.3125 7.03125H23.9062V4.21875C23.9062 3.84579 23.7581 3.4881 23.4944 3.22438C23.2306 2.96066 22.873 2.8125 22.5 2.8125C22.127 2.8125 21.7694 2.96066 21.5056 3.22438C21.2419 3.4881 21.0938 3.84579 21.0938 4.21875V7.03125H19.6875C17.4497 7.03125 15.3036 7.9202 13.7213 9.50254C12.1389 11.0849 11.25 13.231 11.25 15.4688C11.25 17.7065 12.1389 19.8526 13.7213 21.435C15.3036 23.0173 17.4497 23.9062 19.6875 23.9062H21.0938V35.1562H18.2812C16.7894 35.1562 15.3587 34.5636 14.3038 33.5087C13.2489 32.4538 12.6562 31.0231 12.6562 29.5312C12.6562 29.1583 12.5081 28.8006 12.2444 28.5369C11.9806 28.2732 11.623 28.125 11.25 28.125C10.877 28.125 10.5194 28.2732 10.2556 28.5369C9.99191 28.8006 9.84375 29.1583 9.84375 29.5312C9.84608 31.7683 10.7358 33.9131 12.3176 35.4949C13.8994 37.0767 16.0442 37.9664 18.2812 37.9688H21.0938V40.7812C21.0938 41.1542 21.2419 41.5119 21.5056 41.7756C21.7694 42.0393 22.127 42.1875 22.5 42.1875C22.873 42.1875 23.2306 42.0393 23.4944 41.7756C23.7581 41.5119 23.9062 41.1542 23.9062 40.7812V37.9688H26.7188C28.9565 37.9688 31.1026 37.0798 32.685 35.4975C34.2673 33.9151 35.1562 31.769 35.1562 29.5312C35.1562 27.2935 34.2673 25.1474 32.685 23.565C31.1026 21.9827 28.9565 21.0938 26.7188 21.0938ZM19.6875 21.0938C18.1957 21.0938 16.7649 20.5011 15.71 19.4462C14.6551 18.3913 14.0625 16.9606 14.0625 15.4688C14.0625 13.9769 14.6551 12.5462 15.71 11.4913C16.7649 10.4364 18.1957 9.84375 19.6875 9.84375H21.0938V21.0938H19.6875ZM26.7188 35.1562H23.9062V23.9062H26.7188C28.2106 23.9062 29.6413 24.4989 30.6962 25.5538C31.7511 26.6087 32.3438 28.0394 32.3438 29.5312C32.3438 31.0231 31.7511 32.4538 30.6962 33.5087C29.6413 34.5636 28.2106 35.1562 26.7188 35.1562Z" fill="#8B1A83"/>
</svg>
