<svg width="45" height="45" viewBox="0 0 45 45" fill="none" xmlns="http://www.w3.org/2000/svg">
<path opacity="0.2" d="M37.9688 8.4375V36.5625H7.03125V8.4375C7.03125 7.69158 7.32757 6.97621 7.85501 6.44876C8.38246 5.92132 9.09783 5.625 9.84375 5.625H35.1562C35.9022 5.625 36.6175 5.92132 37.145 6.44876C37.6724 6.97621 37.9688 7.69158 37.9688 8.4375Z" fill="#8B1A83"/>
<path d="M39.375 25.3125V36.5625C39.375 36.9355 39.2268 37.2931 38.9631 37.5569C38.6994 37.8206 38.3417 37.9688 37.9688 37.9688H7.03125C6.65829 37.9688 6.3006 37.8206 6.03688 37.5569C5.77316 37.2931 5.625 36.9355 5.625 36.5625V25.3125C5.625 24.9395 5.77316 24.5819 6.03688 24.3181C6.3006 24.0544 6.65829 23.9062 7.03125 23.9062C7.40421 23.9062 7.7619 24.0544 8.02562 24.3181C8.28934 24.5819 8.4375 24.9395 8.4375 25.3125V35.1562H36.5625V25.3125C36.5625 24.9395 36.7107 24.5819 36.9744 24.3181C37.2381 24.0544 37.5958 23.9062 37.9688 23.9062C38.3417 23.9062 38.6994 24.0544 38.9631 24.3181C39.2268 24.5819 39.375 24.9395 39.375 25.3125ZM21.5051 26.3074C21.6357 26.4382 21.7908 26.5419 21.9615 26.6127C22.1322 26.6834 22.3152 26.7199 22.5 26.7199C22.6848 26.7199 22.8678 26.6834 23.0385 26.6127C23.2092 26.5419 23.3643 26.4382 23.4949 26.3074L30.5262 19.2762C30.6568 19.1455 30.7605 18.9904 30.8312 18.8197C30.9019 18.649 30.9383 18.466 30.9383 18.2812C30.9383 18.0965 30.9019 17.9135 30.8312 17.7428C30.7605 17.5721 30.6568 17.417 30.5262 17.2863C30.3955 17.1557 30.2404 17.052 30.0697 16.9813C29.899 16.9106 29.716 16.8742 29.5312 16.8742C29.3465 16.8742 29.1635 16.9106 28.9928 16.9813C28.8221 17.052 28.667 17.1557 28.5363 17.2863L23.9062 21.9182V5.625C23.9062 5.25204 23.7581 4.89435 23.4944 4.63063C23.2306 4.36691 22.873 4.21875 22.5 4.21875C22.127 4.21875 21.7694 4.36691 21.5056 4.63063C21.2419 4.89435 21.0938 5.25204 21.0938 5.625V21.9182L16.4637 17.2863C16.1998 17.0225 15.8419 16.8742 15.4688 16.8742C15.0956 16.8742 14.7377 17.0225 14.4738 17.2863C14.21 17.5502 14.0617 17.9081 14.0617 18.2812C14.0617 18.6544 14.21 19.0123 14.4738 19.2762L21.5051 26.3074Z" fill="#8B1A83"/>
</svg>
