<svg width="45" height="45" viewBox="0 0 45 45" fill="none" xmlns="http://www.w3.org/2000/svg">
<path opacity="0.2" d="M39.375 22.5C39.375 25.8376 38.3853 29.1002 36.5311 31.8752C34.6768 34.6503 32.0413 36.8132 28.9578 38.0905C25.8743 39.3677 22.4813 39.7019 19.2079 39.0507C15.9344 38.3996 12.9276 36.7924 10.5676 34.4324C8.20757 32.0724 6.60038 29.0656 5.94926 25.7921C5.29813 22.5187 5.63231 19.1257 6.90954 16.0422C8.18677 12.9587 10.3497 10.3232 13.1248 8.46895C15.8998 6.6147 19.1624 5.625 22.5 5.625C26.9755 5.625 31.2678 7.4029 34.4324 10.5676C37.5971 13.7322 39.375 18.0245 39.375 22.5Z" fill="#8B1A83"/>
<path d="M12.6562 22.5C12.6663 26.1887 11.8139 29.8287 10.1672 33.1295C10.0886 33.3006 9.97639 33.4542 9.83729 33.5812C9.6982 33.7081 9.53503 33.8059 9.35745 33.8686C9.17987 33.9312 8.99151 33.9576 8.80354 33.9462C8.61557 33.9347 8.43182 33.8856 8.2632 33.8017C8.09457 33.7179 7.9445 33.601 7.8219 33.4581C7.69929 33.3151 7.60664 33.149 7.54945 32.9696C7.49226 32.7902 7.47168 32.6011 7.48895 32.4136C7.50622 32.226 7.56098 32.0439 7.64998 31.8779C9.10193 28.9656 9.85316 25.7542 9.84373 22.5C9.84043 20.6023 10.2655 18.7284 11.0873 17.0179C11.9091 15.3074 13.1063 13.8045 14.5898 12.6211C14.881 12.388 15.2528 12.2801 15.6235 12.3211C15.9942 12.3622 16.3334 12.5488 16.5665 12.8399C16.7996 13.1311 16.9075 13.5029 16.8664 13.8736C16.8254 14.2443 16.6388 14.5835 16.3476 14.8166C15.1935 15.7367 14.2621 16.9056 13.623 18.236C12.9838 19.5664 12.6533 21.024 12.6562 22.5ZM22.5 21.0938C22.127 21.0938 21.7693 21.2419 21.5056 21.5056C21.2419 21.7694 21.0937 22.127 21.0937 22.5C21.0934 27.9787 19.7023 33.3678 17.0508 38.1621C16.8699 38.4885 16.826 38.8733 16.9289 39.2319C17.0317 39.5906 17.2729 39.8937 17.5992 40.0746C17.9255 40.2555 18.3104 40.2993 18.669 40.1965C19.0277 40.0936 19.3308 39.8525 19.5117 39.5262C22.3938 34.3141 23.9058 28.4558 23.9062 22.5C23.9062 22.127 23.7581 21.7694 23.4944 21.5056C23.2306 21.2419 22.8729 21.0938 22.5 21.0938ZM22.5 15.4688C20.6352 15.4688 18.8468 16.2095 17.5281 17.5282C16.2095 18.8468 15.4687 20.6352 15.4687 22.5C15.4687 22.873 15.6169 23.2306 15.8806 23.4944C16.1443 23.7581 16.502 23.9062 16.875 23.9062C17.2479 23.9062 17.6056 23.7581 17.8693 23.4944C18.1331 23.2306 18.2812 22.873 18.2812 22.5C18.2812 21.3811 18.7257 20.3081 19.5169 19.5169C20.308 18.7257 21.3811 18.2812 22.5 18.2812C23.6189 18.2812 24.6919 18.7257 25.4831 19.5169C26.2743 20.3081 26.7187 21.3811 26.7187 22.5C26.7333 28.0915 25.5017 33.616 23.1135 38.6719C23.0346 38.8393 22.9896 39.0207 22.9808 39.2056C22.9721 39.3905 22.9998 39.5753 23.0625 39.7495C23.1252 39.9236 23.2216 40.0837 23.3461 40.2207C23.4707 40.3576 23.621 40.4686 23.7885 40.5475C23.9559 40.6263 24.1373 40.6714 24.3222 40.6801C24.5071 40.6888 24.6919 40.6611 24.866 40.5984C25.0402 40.5357 25.2003 40.4394 25.3372 40.3148C25.4742 40.1902 25.5852 40.0399 25.664 39.8725C28.2275 34.4408 29.5486 28.5062 29.5312 22.5C29.5312 20.6352 28.7904 18.8468 27.4718 17.5282C26.1532 16.2095 24.3648 15.4688 22.5 15.4688ZM22.5 4.21875C17.6531 4.22387 13.0061 6.15157 9.57884 9.57886C6.15155 13.0061 4.22385 17.6531 4.21873 22.5C4.22134 24.2561 3.9241 25.9997 3.33982 27.6557C3.21558 28.0074 3.23616 28.3941 3.39703 28.7307C3.5579 29.0673 3.84589 29.3261 4.19764 29.4504C4.54938 29.5746 4.93608 29.5541 5.27266 29.3932C5.60924 29.2323 5.86812 28.9443 5.99236 28.5926C6.68226 26.6355 7.03358 24.5751 7.03123 22.5C7.03123 18.3974 8.66097 14.4629 11.5619 11.5619C14.4629 8.66099 18.3974 7.03125 22.5 7.03125C26.6025 7.03125 30.5371 8.66099 33.438 11.5619C36.339 14.4629 37.9687 18.3974 37.9687 22.5C37.9694 25.713 37.658 28.9185 37.0388 32.0713C37.003 32.2525 37.0033 32.439 37.0395 32.6201C37.0758 32.8012 37.1474 32.9734 37.2503 33.1269C37.3531 33.2803 37.4852 33.412 37.6389 33.5144C37.7926 33.6168 37.965 33.6879 38.1463 33.7236C38.236 33.741 38.3273 33.7499 38.4187 33.75C38.7441 33.7497 39.0594 33.6365 39.3107 33.4297C39.562 33.223 39.7338 32.9355 39.7969 32.6162C40.4517 29.284 40.7814 25.896 40.7812 22.5C40.7756 17.6532 38.8478 13.0066 35.4206 9.57937C31.9934 6.15218 27.3468 4.22433 22.5 4.21875ZM16.5937 26.7486C16.229 26.6761 15.8504 26.7509 15.5408 26.9568C15.2311 27.1627 15.0156 27.4829 14.9414 27.8473C14.3708 30.6556 13.3492 33.353 11.9162 35.8348C11.7297 36.1578 11.6792 36.5418 11.7758 36.9021C11.8724 37.2624 12.1082 37.5696 12.4312 37.7561C12.7543 37.9425 13.1382 37.993 13.4985 37.8965C13.8589 37.7999 14.166 37.5641 14.3525 37.241C15.9361 34.4967 17.064 31.5136 17.6924 28.408C17.7293 28.2269 17.7302 28.0403 17.695 27.8588C17.6597 27.6774 17.5891 27.5047 17.487 27.3506C17.385 27.1964 17.2536 27.064 17.1003 26.9607C16.947 26.8574 16.7749 26.7853 16.5937 26.7486ZM22.5 9.84375C21.9711 9.84386 21.4428 9.87674 20.9179 9.94219C20.5548 9.9967 20.2274 10.1911 20.0057 10.4838C19.784 10.7765 19.6856 11.1444 19.7315 11.5087C19.7774 11.873 19.964 12.2049 20.2514 12.4335C20.5388 12.662 20.9042 12.7691 21.2695 12.7318C22.6549 12.5596 24.061 12.6835 25.3949 13.0955C26.7288 13.5074 27.9599 14.198 29.0069 15.1215C30.0538 16.045 30.8927 17.1803 31.4679 18.4523C32.0432 19.7243 32.3417 21.104 32.3437 22.5C32.3433 24.3216 32.2306 26.1415 32.0062 27.9492C31.9816 28.1331 31.9935 28.32 32.0414 28.4992C32.0893 28.6784 32.1721 28.8463 32.2852 28.9934C32.3982 29.1404 32.5393 29.2637 32.7002 29.356C32.8611 29.4483 33.0386 29.5079 33.2226 29.5312C33.281 29.5383 33.3397 29.5418 33.3984 29.5418C33.7404 29.5411 34.0704 29.4157 34.3267 29.1892C34.5829 28.9627 34.7479 28.6506 34.7906 28.3113C35.0277 26.3869 35.1452 24.4496 35.1422 22.5105C35.1412 19.1556 33.8098 15.9381 31.4398 13.5635C29.0699 11.1889 25.8549 9.8512 22.5 9.84375ZM32.683 32.3877C32.5041 32.3414 32.3178 32.3309 32.1348 32.3567C31.9519 32.3824 31.7757 32.444 31.6166 32.5379C31.4574 32.6317 31.3183 32.7561 31.2072 32.9037C31.0961 33.0514 31.0152 33.2195 30.9691 33.3984C30.7125 34.3986 30.4154 35.4023 30.0902 36.3867C29.9712 36.7394 29.9969 37.1249 30.1617 37.4587C30.3264 37.7925 30.6168 38.0473 30.9691 38.1674C31.1135 38.2165 31.2649 38.2414 31.4174 38.2412C31.712 38.241 31.9991 38.1482 32.2382 37.976C32.4773 37.8038 32.6562 37.5608 32.7498 37.2814C33.1013 36.2408 33.416 35.1721 33.6902 34.1086C33.7374 33.9297 33.7487 33.7432 33.7237 33.5599C33.6986 33.3766 33.6377 33.2001 33.5442 33.0404C33.4508 32.8807 33.3268 32.741 33.1794 32.6293C33.0319 32.5176 32.8638 32.4361 32.6847 32.3895L32.683 32.3877Z" fill="#8B1A83"/>
</svg>
