<svg width="45" height="45" viewBox="0 0 45 45" fill="none" xmlns="http://www.w3.org/2000/svg">
<path opacity="0.2" d="M14.0625 30.9375C14.0625 32.05 13.7326 33.1376 13.1145 34.0626C12.4964 34.9876 11.6179 35.7086 10.5901 36.1343C9.56226 36.5601 8.43126 36.6715 7.34012 36.4544C6.24898 36.2374 5.2467 35.7016 4.46003 34.915C3.67336 34.1283 3.13763 33.126 2.92059 32.0349C2.70354 30.9437 2.81494 29.8127 3.24068 28.7849C3.66642 27.7571 4.38739 26.8786 5.31242 26.2605C6.23745 25.6424 7.32498 25.3125 8.4375 25.3125C9.92934 25.3125 11.3601 25.9051 12.415 26.96C13.4699 28.0149 14.0625 29.4457 14.0625 30.9375Z" fill="#8B1A83"/>
<path d="M43.1825 13.0676L37.5575 7.44263C37.2936 7.17876 36.9357 7.03052 36.5626 7.03052C36.1894 7.03052 35.8315 7.17876 35.5676 7.44263C35.3038 7.7065 35.1555 8.06438 35.1555 8.43755C35.1555 8.81072 35.3038 9.1686 35.5676 9.43247L38.7932 12.6563H36.5626C27.8913 12.6563 25.8311 17.5993 24.0153 21.9586C22.3665 25.9155 21.0411 29.0936 15.3176 29.4891C14.9585 27.7841 13.979 26.2731 12.5692 25.2492C11.1593 24.2253 9.41945 23.7614 7.68695 23.9473C5.95446 24.1333 4.35272 24.9559 3.19228 26.2557C2.03185 27.5556 1.39538 29.24 1.40627 30.9824C1.41716 32.7248 2.07463 34.4011 3.25122 35.6863C4.42782 36.9715 6.03971 37.774 7.7744 37.9383C9.50908 38.1026 11.243 37.617 12.6399 36.5755C14.0369 35.5341 14.9974 34.011 15.3352 32.3016C22.9395 31.8358 24.8872 27.1776 26.6098 23.0397C28.3729 18.8086 29.7651 15.4688 36.5626 15.4688H38.7932L35.5676 18.6926C35.3038 18.9565 35.1555 19.3144 35.1555 19.6876C35.1555 20.0607 35.3038 20.4186 35.5676 20.6825C35.8315 20.9463 36.1894 21.0946 36.5626 21.0946C36.9357 21.0946 37.2936 20.9463 37.5575 20.6825L43.1825 15.0575C43.3132 14.9269 43.417 14.7718 43.4877 14.6011C43.5585 14.4303 43.5949 14.2474 43.5949 14.0626C43.5949 13.8777 43.5585 13.6948 43.4877 13.524C43.417 13.3533 43.3132 13.1982 43.1825 13.0676ZM8.43756 35.1563C7.60317 35.1563 6.78752 34.9089 6.09375 34.4453C5.39998 33.9818 4.85925 33.3229 4.53994 32.552C4.22064 31.7811 4.13709 30.9329 4.29987 30.1145C4.46265 29.2962 4.86445 28.5444 5.45445 27.9544C6.04446 27.3644 6.79617 26.9626 7.61452 26.7999C8.43288 26.6371 9.28113 26.7206 10.052 27.0399C10.8229 27.3592 11.4818 27.9 11.9453 28.5937C12.4089 29.2875 12.6563 30.1032 12.6563 30.9376C12.6563 32.0564 12.2118 33.1295 11.4207 33.9207C10.6295 34.7118 9.55644 35.1563 8.43756 35.1563Z" fill="#8B1A83"/>
</svg>
