<svg width="45" height="45" viewBox="0 0 45 45" fill="none" xmlns="http://www.w3.org/2000/svg">
<path opacity="0.2" d="M40.7812 26.7187V30.9375C40.7812 31.3105 40.6331 31.6681 40.3694 31.9319C40.1056 32.1956 39.748 32.3437 39.375 32.3437H5.625C5.25204 32.3437 4.89435 32.1956 4.63063 31.9319C4.36691 31.6681 4.21875 31.3105 4.21875 30.9375V26.9174C4.21875 16.8135 12.3311 8.47265 22.435 8.43749C24.8412 8.42893 27.2254 8.89547 29.4509 9.81036C31.6764 10.7252 33.6994 12.0705 35.4038 13.7689C37.1083 15.4673 38.4607 17.4855 39.3835 19.7078C40.3063 21.93 40.7813 24.3125 40.7812 26.7187Z" fill="#8B1A83"/>
<path d="M36.3973 12.774C34.5744 10.9471 32.4079 9.499 30.0227 8.51337C27.6375 7.52773 25.0808 7.02401 22.5 7.03127H22.4297C11.6139 7.06818 2.8125 15.9961 2.8125 26.9174V30.9375C2.8125 31.6834 3.10882 32.3988 3.63626 32.9263C4.16371 33.4537 4.87908 33.75 5.625 33.75H39.375C40.1209 33.75 40.8363 33.4537 41.3637 32.9263C41.8912 32.3988 42.1875 31.6834 42.1875 30.9375V26.7188C42.1947 24.1267 41.6865 21.559 40.6925 19.165C39.6985 16.7711 38.2384 14.5986 36.3973 12.774ZM39.375 30.9375H21.0428L30.6686 17.7012C30.8881 17.3996 30.9789 17.023 30.9209 16.6545C30.8629 16.2859 30.6608 15.9555 30.3592 15.736C30.0575 15.5164 29.681 15.4256 29.3125 15.4836C28.9439 15.5416 28.6135 15.7437 28.3939 16.0453L17.5641 30.9375H5.625V26.9174C5.625 26.376 5.65137 25.8416 5.70059 25.3125H9.84375C10.2167 25.3125 10.5744 25.1644 10.8381 24.9006C11.1018 24.6369 11.25 24.2792 11.25 23.9063C11.25 23.5333 11.1018 23.1756 10.8381 22.9119C10.5744 22.6482 10.2167 22.5 9.84375 22.5H6.1998C8.01387 15.6692 13.9342 10.5047 21.0938 9.90353V14.0625C21.0938 14.4355 21.2419 14.7932 21.5056 15.0569C21.7694 15.3206 22.127 15.4688 22.5 15.4688C22.873 15.4688 23.2306 15.3206 23.4944 15.0569C23.7581 14.7932 23.9062 14.4355 23.9062 14.0625V9.90177C27.3949 10.1954 30.7063 11.5652 33.3828 13.822C36.0593 16.0788 37.9689 19.1111 38.8477 22.5H35.1562C34.7833 22.5 34.4256 22.6482 34.1619 22.9119C33.8982 23.1756 33.75 23.5333 33.75 23.9063C33.75 24.2792 33.8982 24.6369 34.1619 24.9006C34.4256 25.1644 34.7833 25.3125 35.1562 25.3125H39.317C39.3539 25.7783 39.375 26.2459 39.375 26.7188V30.9375Z" fill="#8B1A83"/>
</svg>
