<svg width="45" height="45" viewBox="0 0 45 45" fill="none" xmlns="http://www.w3.org/2000/svg">
<path opacity="0.2" d="M37.9687 26.0156V32.3438C37.9687 36.5625 36.5624 39.375 36.5624 39.375H12.6562L7.50229 30.5859C7.04344 29.7789 6.92243 28.8231 7.16567 27.9272C7.40891 27.0313 7.99665 26.2679 8.80063 25.8037C9.60461 25.3395 10.5596 25.2122 11.4571 25.4495C12.3546 25.6868 13.1218 26.2694 13.5914 27.0703L16.8749 32.3438V13.3594C16.8749 12.427 17.2453 11.5328 17.9046 10.8735C18.564 10.2141 19.4582 9.84375 20.3906 9.84375C21.323 9.84375 22.2172 10.2141 22.8765 10.8735C23.5358 11.5328 23.9062 12.427 23.9062 13.3594V23.2031C23.9062 22.2707 24.2766 21.3765 24.9359 20.7172C25.5952 20.0579 26.4894 19.6875 27.4218 19.6875C28.3542 19.6875 29.2484 20.0579 29.9077 20.7172C30.5671 21.3765 30.9374 22.2707 30.9374 23.2031V26.0156C30.9374 25.0832 31.3078 24.189 31.9671 23.5297C32.6265 22.8704 33.5207 22.5 34.4531 22.5C35.3855 22.5 36.2797 22.8704 36.939 23.5297C37.5983 24.189 37.9687 25.0832 37.9687 26.0156Z" fill="#8B1A83"/>
<path d="M9.84375 13.3594C9.84375 10.5622 10.9549 7.87953 12.9329 5.90161C14.9108 3.92369 17.5934 2.8125 20.3906 2.8125C23.1878 2.8125 25.8705 3.92369 27.8484 5.90161C29.8263 7.87953 30.9375 10.5622 30.9375 13.3594C30.9375 13.7323 30.7893 14.09 30.5256 14.3537C30.2619 14.6175 29.9042 14.7656 29.5313 14.7656C29.1583 14.7656 28.8006 14.6175 28.5369 14.3537C28.2732 14.09 28.125 13.7323 28.125 13.3594C28.125 11.3081 27.3101 9.34082 25.8597 7.89035C24.4092 6.43987 22.4419 5.625 20.3906 5.625C18.3393 5.625 16.3721 6.43987 14.9216 7.89035C13.4711 9.34082 12.6563 11.3081 12.6563 13.3594C12.6563 13.7323 12.5081 14.09 12.2444 14.3537C11.9806 14.6175 11.623 14.7656 11.25 14.7656C10.877 14.7656 10.5194 14.6175 10.2556 14.3537C9.99191 14.09 9.84375 13.7323 9.84375 13.3594ZM34.4531 21.0938C33.6328 21.0928 32.8253 21.2977 32.1047 21.6896C31.8893 21.0233 31.5343 20.4105 31.0632 19.8923C30.5921 19.3741 30.0158 18.9624 29.3729 18.6847C28.73 18.407 28.0353 18.2697 27.335 18.282C26.6348 18.2942 25.9453 18.4558 25.3125 18.7559V13.3594C25.3125 12.054 24.794 10.8021 23.8709 9.87908C22.9479 8.95605 21.696 8.4375 20.3906 8.4375C19.0853 8.4375 17.8334 8.95605 16.9103 9.87908C15.9873 10.8021 15.4688 12.054 15.4688 13.3594V27.4219L14.7973 26.3443C14.1406 25.2159 13.0626 24.3945 11.8004 24.0609C10.5381 23.7273 9.19504 23.9088 8.0666 24.5654C6.93817 25.2221 6.1168 26.3001 5.78319 27.5623C5.44958 28.8246 5.63105 30.1677 6.2877 31.2961L11.4416 40.0852C11.528 40.2563 11.6486 40.408 11.7958 40.5309C11.943 40.6538 12.1138 40.7453 12.2977 40.7997C12.4816 40.8541 12.6746 40.8704 12.865 40.8475C13.0554 40.8245 13.2391 40.7629 13.4048 40.6664C13.5705 40.5698 13.7147 40.4404 13.8285 40.2861C13.9424 40.1318 14.0235 39.9558 14.0668 39.769C14.1101 39.5822 14.1148 39.3885 14.0805 39.1998C14.0462 39.0112 13.9737 38.8315 13.8674 38.6719L8.71875 29.8828C8.5742 29.6427 8.47895 29.3762 8.43854 29.0989C8.39814 28.8216 8.4134 28.539 8.48344 28.2677C8.55347 27.9963 8.67688 27.7416 8.84644 27.5185C9.01601 27.2954 9.22833 27.1083 9.47102 26.9681C9.7137 26.828 9.98188 26.7376 10.2599 26.7023C10.5379 26.6669 10.8202 26.6873 11.0902 26.7623C11.3602 26.8373 11.6126 26.9653 11.8326 27.1389C12.0526 27.3125 12.2358 27.5282 12.3715 27.7734L12.3961 27.8139L15.6797 33.0873C15.8409 33.3474 16.0826 33.5479 16.3681 33.6582C16.6535 33.7685 16.9672 33.7827 17.2615 33.6986C17.5557 33.6145 17.8145 33.4367 17.9986 33.1922C18.1826 32.9477 18.2819 32.6498 18.2813 32.3438V13.3594C18.2813 12.7999 18.5035 12.2634 18.8991 11.8678C19.2947 11.4722 19.8312 11.25 20.3906 11.25C20.9501 11.25 21.4866 11.4722 21.8822 11.8678C22.2778 12.2634 22.5 12.7999 22.5 13.3594V25.3125C22.5 25.6855 22.6482 26.0431 22.9119 26.3069C23.1756 26.5706 23.5333 26.7188 23.9063 26.7188C24.2792 26.7188 24.6369 26.5706 24.9006 26.3069C25.1643 26.0431 25.3125 25.6855 25.3125 25.3125V23.2031C25.3125 22.6437 25.5347 22.1072 25.9303 21.7116C26.3259 21.316 26.8624 21.0938 27.4219 21.0938C27.9813 21.0938 28.5178 21.316 28.9134 21.7116C29.309 22.1072 29.5313 22.6437 29.5313 23.2031V26.7188C29.5313 27.0917 29.6794 27.4494 29.9431 27.7131C30.2069 27.9768 30.5645 28.125 30.9375 28.125C31.3105 28.125 31.6681 27.9768 31.9319 27.7131C32.1956 27.4494 32.3438 27.0917 32.3438 26.7188V26.0156C32.3438 25.4562 32.566 24.9197 32.9616 24.5241C33.3572 24.1285 33.8937 23.9062 34.4531 23.9062C35.0126 23.9062 35.5491 24.1285 35.9447 24.5241C36.3403 24.9197 36.5625 25.4562 36.5625 26.0156V32.3438C36.5625 36.1424 35.3145 38.7246 35.3039 38.7457C35.1373 39.0793 35.11 39.4654 35.228 39.8191C35.346 40.1728 35.5997 40.4651 35.9332 40.6318C36.1283 40.7305 36.3439 40.7817 36.5625 40.7812C36.8238 40.7814 37.0799 40.7088 37.3022 40.5716C37.5245 40.4344 37.7042 40.2379 37.8211 40.0043C37.8861 39.876 39.3768 36.8402 39.3768 32.3438V26.0156C39.3768 25.3691 39.2494 24.729 39.0019 24.1317C38.7545 23.5344 38.3918 22.9918 37.9346 22.5347C37.4773 22.0777 36.9345 21.7151 36.3372 21.4679C35.7398 21.2207 35.0996 21.0935 34.4531 21.0938Z" fill="#8B1A83"/>
</svg>
