<svg width="45" height="45" viewBox="0 0 45 45" fill="none" xmlns="http://www.w3.org/2000/svg">
<path opacity="0.2" d="M38.2079 23.4422L22.5001 39.3751L6.79225 23.4422C5.14376 21.7938 4.21765 19.5579 4.21765 17.2266C4.21765 14.8953 5.14376 12.6595 6.79225 11.011C8.44073 9.36251 10.6766 8.4364 13.0079 8.4364C15.3392 8.4364 17.575 9.36251 19.2235 11.011L22.5001 14.0626L25.7766 11.011C26.5929 10.1947 27.5619 9.54727 28.6284 9.10552C29.6949 8.66377 30.8379 8.4364 31.9923 8.4364C33.1466 8.4364 34.2896 8.66377 35.3561 9.10552C36.4226 9.54727 37.3916 10.1947 38.2079 11.011C39.0241 11.8272 39.6716 12.7963 40.1134 13.8628C40.5551 14.9292 40.7825 16.0723 40.7825 17.2266C40.7825 18.381 40.5551 19.524 40.1134 20.5905C39.6716 21.657 39.0241 22.626 38.2079 23.4422Z" fill="#8B1A83"/>
<path d="M39.1992 10.0195C37.2887 8.11375 34.7013 7.04206 32.0028 7.03877C29.3043 7.03547 26.7143 8.10084 24.7992 10.0019L22.4999 12.1376L20.199 9.99486C18.2843 8.08554 15.6895 7.01502 12.9855 7.01881C10.2816 7.0226 7.68983 8.10039 5.78051 10.0151C3.87118 11.9298 2.80066 14.5245 2.80445 17.2285C2.80824 19.9325 3.88603 22.5242 5.80072 24.4335L21.5068 40.3699C21.6376 40.5027 21.7936 40.6082 21.9656 40.6803C22.1376 40.7523 22.3222 40.7894 22.5087 40.7894C22.6952 40.7894 22.8798 40.7523 23.0518 40.6803C23.2239 40.6082 23.3798 40.5027 23.5107 40.3699L39.1992 24.4335C41.1098 22.5217 42.1832 19.9294 42.1832 17.2265C42.1832 14.5236 41.1098 11.9313 39.1992 10.0195ZM37.204 22.4578L22.4999 37.371L7.78705 22.4437C6.40243 21.0591 5.62456 19.1811 5.62456 17.223C5.62456 15.2648 6.40243 13.3869 7.78705 12.0023C9.17167 10.6177 11.0496 9.8398 13.0078 9.8398C14.9659 9.8398 16.8438 10.6177 18.2285 12.0023L18.2636 12.0374L21.5419 15.0872C21.8022 15.3294 22.1445 15.464 22.4999 15.464C22.8554 15.464 23.1977 15.3294 23.4579 15.0872L26.7363 12.0374L26.7714 12.0023C28.157 10.6186 30.0354 9.84199 31.9936 9.84331C33.9517 9.84463 35.8291 10.6238 37.2128 12.0093C38.5965 13.3949 39.3731 15.2733 39.3718 17.2315C39.3705 19.1896 38.5913 21.067 37.2058 22.4507L37.204 22.4578Z" fill="#8B1A83"/>
</svg>
