<svg width="45" height="45" viewBox="0 0 45 45" fill="none" xmlns="http://www.w3.org/2000/svg">
<path opacity="0.2" d="M36.5625 18.2813C36.5643 20.412 36.0812 22.5152 35.1495 24.4315C34.2179 26.3478 32.8622 28.0268 31.1853 29.3414C30.6732 29.7383 30.2581 30.2466 29.9716 30.8276C29.685 31.4087 29.5344 32.0474 29.5312 32.6953V33.75C29.5312 34.123 29.3831 34.4806 29.1193 34.7444C28.8556 35.0081 28.4979 35.1563 28.125 35.1563H16.875C16.502 35.1563 16.1443 35.0081 15.8806 34.7444C15.6169 34.4806 15.4687 34.123 15.4687 33.75V32.6953C15.468 32.051 15.3205 31.4153 15.0372 30.8365C14.7539 30.2578 14.3424 29.7513 13.834 29.3555C12.1622 28.0495 10.8082 26.3818 9.87351 24.4774C8.93884 22.5731 8.44787 20.4817 8.43747 18.3604C8.39528 10.7385 14.5406 4.39454 22.1607 4.21875C24.0358 4.1735 25.901 4.50381 27.6464 5.19023C29.3919 5.87665 30.9825 6.90531 32.3244 8.21567C33.6664 9.52603 34.7327 11.0916 35.4605 12.8202C36.1884 14.5489 36.563 16.4056 36.5625 18.2813Z" fill="#8B1A83"/>
<path d="M30.9375 40.7812C30.9375 41.1542 30.7893 41.5119 30.5256 41.7756C30.2619 42.0393 29.9042 42.1875 29.5312 42.1875H15.4687C15.0958 42.1875 14.7381 42.0393 14.4744 41.7756C14.2106 41.5119 14.0625 41.1542 14.0625 40.7812C14.0625 40.4083 14.2106 40.0506 14.4744 39.7869C14.7381 39.5231 15.0958 39.375 15.4687 39.375H29.5312C29.9042 39.375 30.2619 39.5231 30.5256 39.7869C30.7893 40.0506 30.9375 40.4083 30.9375 40.7812ZM37.9687 18.2812C37.9748 20.6255 37.4452 22.9402 36.4204 25.0486C35.3956 27.1571 33.9026 29.0035 32.0555 30.447C31.7101 30.7118 31.4298 31.052 31.236 31.4417C31.0423 31.8313 30.9401 32.2601 30.9375 32.6953V33.75C30.9375 34.4959 30.6412 35.2113 30.1137 35.7387C29.5863 36.2662 28.8709 36.5625 28.125 36.5625H16.875C16.1291 36.5625 15.4137 36.2662 14.8862 35.7387C14.3588 35.2113 14.0625 34.4959 14.0625 33.75V32.6953C14.0622 32.2653 13.9633 31.8411 13.7735 31.4554C13.5836 31.0696 13.3079 30.7324 12.9674 30.4699C11.1248 29.0349 9.63288 27.1996 8.60444 25.1028C7.576 23.006 7.03803 20.7028 7.03124 18.3674C6.98553 9.98962 13.7566 3.01286 22.1273 2.81247C24.1899 2.76277 26.2415 3.12616 28.1615 3.88125C30.0815 4.63635 31.831 5.76789 33.3071 7.20927C34.7832 8.65066 35.9561 10.3728 36.7566 12.2742C37.5572 14.1757 37.9693 16.2181 37.9687 18.2812ZM35.1562 18.2812C35.1567 16.5931 34.8195 14.922 34.1644 13.3662C33.5094 11.8104 32.5497 10.4013 31.3418 9.22201C30.134 8.04268 28.7024 7.11689 27.1314 6.49915C25.5604 5.8814 23.8817 5.58418 22.1941 5.62497C15.3387 5.78669 9.80682 11.4943 9.84374 18.3498C9.85016 20.2598 10.2909 22.1433 11.1327 23.8579C11.9744 25.5724 13.1951 27.0731 14.7023 28.2463C15.3799 28.773 15.9279 29.4477 16.3045 30.2189C16.6811 30.99 16.8762 31.8371 16.875 32.6953V33.75H28.125V32.6953C28.1269 31.8347 28.3254 30.9858 28.7053 30.2136C29.0852 29.4413 29.6364 28.766 30.317 28.2392C31.8289 27.0577 33.0508 25.5463 33.8895 23.8205C34.7282 22.0947 35.1615 20.2 35.1562 18.2812ZM32.3244 16.6394C31.9598 14.6026 30.9798 12.7265 29.5165 11.2635C28.0533 9.80054 26.1769 8.82102 24.14 8.45681C23.9579 8.42611 23.7715 8.43158 23.5915 8.47291C23.4115 8.51425 23.2414 8.59064 23.0909 8.69771C22.9404 8.80479 22.8124 8.94046 22.7144 9.09698C22.6163 9.2535 22.55 9.4278 22.5193 9.60993C22.4886 9.79207 22.4941 9.97846 22.5354 10.1585C22.5768 10.3385 22.6531 10.5086 22.7602 10.6591C22.8673 10.8096 23.003 10.9375 23.1595 11.0356C23.316 11.1337 23.4903 11.1999 23.6724 11.2306C26.5851 11.7211 29.0566 14.1926 29.5506 17.1105C29.6062 17.438 29.776 17.7353 30.0299 17.9496C30.2837 18.1639 30.6053 18.2813 30.9375 18.2812C31.017 18.2807 31.0963 18.2743 31.1748 18.2619C31.5424 18.1991 31.87 17.993 32.0856 17.6887C32.3011 17.3844 32.3871 17.007 32.3244 16.6394Z" fill="#8B1A83"/>
</svg>
