<svg width="45" height="45" viewBox="0 0 45 45" fill="none" xmlns="http://www.w3.org/2000/svg">
<path opacity="0.2" d="M33.75 19.6875C33.75 22.4688 32.9253 25.1876 31.38 27.5002C29.8348 29.8128 27.6386 31.6152 25.069 32.6796C22.4994 33.7439 19.6719 34.0224 16.944 33.4798C14.2162 32.9372 11.7105 31.5979 9.74382 29.6312C7.77714 27.6645 6.43782 25.1588 5.89521 22.431C5.35261 19.7031 5.63109 16.8756 6.69545 14.306C7.75981 11.7364 9.56223 9.54017 11.8748 7.99496C14.1874 6.44975 16.9062 5.625 19.6875 5.625C21.5342 5.625 23.3629 5.98874 25.069 6.69544C26.7751 7.40215 28.3254 8.43799 29.6312 9.74381C30.937 11.0496 31.9729 12.5999 32.6796 14.306C33.3863 16.0122 33.75 17.8408 33.75 19.6875Z" fill="#8B1A83"/>
<path d="M40.37 38.3801L31.5704 29.5805C34.1259 26.5156 35.4013 22.5835 35.1315 18.6021C34.8616 14.6208 33.0672 10.8968 30.1215 8.20476C27.1758 5.51277 23.3056 4.06009 19.3161 4.14893C15.3266 4.23777 11.5249 5.86129 8.70199 8.68174C5.87905 11.5022 4.25217 15.3024 4.1598 19.2918C4.06743 23.2813 5.51669 27.1527 8.20608 30.1008C10.8955 33.0489 14.6179 34.8466 18.599 35.12C22.5801 35.3934 26.5134 34.1214 29.5805 31.5686L38.3801 40.3699C38.5108 40.5006 38.6659 40.6042 38.8366 40.675C39.0073 40.7457 39.1903 40.7821 39.3751 40.7821C39.5598 40.7821 39.7428 40.7457 39.9135 40.675C40.0842 40.6042 40.2393 40.5006 40.37 40.3699C40.5006 40.2393 40.6043 40.0842 40.675 39.9135C40.7457 39.7428 40.7821 39.5598 40.7821 39.375C40.7821 39.1903 40.7457 39.0073 40.675 38.8366C40.6043 38.6659 40.5006 38.5108 40.37 38.3801ZM7.03131 19.6875C7.03131 17.1844 7.77358 14.7374 9.16427 12.6561C10.555 10.5748 12.5316 8.9526 14.8442 7.99468C17.1568 7.03675 19.7016 6.78612 22.1567 7.27446C24.6117 7.76281 26.8669 8.9682 28.6369 10.7382C30.4069 12.5082 31.6123 14.7633 32.1006 17.2184C32.589 19.6735 32.3383 22.2182 31.3804 24.5309C30.4225 26.8435 28.8003 28.8201 26.719 30.2108C24.6377 31.6015 22.1907 32.3438 19.6876 32.3438C16.3321 32.3401 13.115 31.0054 10.7423 28.6327C8.36965 26.26 7.03503 23.043 7.03131 19.6875Z" fill="#8B1A83"/>
</svg>
