<svg width="45" height="45" viewBox="0 0 45 45" fill="none" xmlns="http://www.w3.org/2000/svg">
<path opacity="0.2" d="M29.5945 35.2196L24.321 40.3787C24.0565 40.6384 23.7002 40.7832 23.3296 40.7815C22.9589 40.7799 22.6039 40.632 22.3417 40.3699L17.3074 35.3321C17.1754 35.2003 17.071 35.0436 17.0002 34.871C16.9293 34.6985 16.8935 34.5136 16.8949 34.3272C16.8962 34.1407 16.9346 33.9563 17.0078 33.7848C17.081 33.6133 17.1876 33.4581 17.3214 33.3282L22.5949 28.2305L29.5945 35.2196ZM4.63354 20.6719C4.37162 20.9354 4.22461 21.2918 4.22461 21.6633C4.22461 22.0348 4.37162 22.3912 4.63354 22.6547L9.66791 27.6926C9.7994 27.8243 9.9557 27.9285 10.1278 27.9993C10.2998 28.0701 10.4842 28.1061 10.6703 28.1051C10.8564 28.1041 11.0404 28.0662 11.2117 27.9936C11.383 27.921 11.5382 27.8151 11.6683 27.6821L16.7976 22.4227L9.80326 15.4283L4.63354 20.6719Z" fill="#8B1A83"/>
<path d="M36.3868 8.83306C34.9568 7.37364 33.2503 6.21391 31.3669 5.42164C29.4836 4.62937 27.4612 4.22045 25.418 4.2188H25.36C23.3261 4.21357 21.3114 4.61188 19.4325 5.39065C17.5536 6.16942 15.8479 7.31318 14.4141 8.75571L8.80844 14.4334L3.6229 19.6875C3.10047 20.2159 2.80834 20.9295 2.81031 21.6725C2.81229 22.4156 3.10821 23.1276 3.63344 23.6532L8.67134 28.6911C8.93211 28.9531 9.24223 29.1609 9.58377 29.3024C9.9253 29.4439 10.2915 29.5163 10.6612 29.5155H10.677C11.0494 29.5135 11.4176 29.4375 11.7604 29.2921C12.1032 29.1467 12.4137 28.9346 12.6739 28.6682L23.379 17.6995C23.9017 17.182 24.6056 16.8886 25.3411 16.8817C26.0766 16.8748 26.7859 17.1549 27.3182 17.6625C27.5813 17.9181 27.7905 18.2239 27.9333 18.5618C28.0761 18.8996 28.1497 19.2627 28.1497 19.6295C28.1532 20.0199 28.0797 20.4072 27.9335 20.7691C27.7872 21.1311 27.5709 21.4606 27.2971 21.7389L16.3477 32.3227C16.0803 32.5824 15.8671 32.8926 15.7207 33.2354C15.5742 33.5782 15.4974 33.9467 15.4946 34.3195C15.4918 34.6922 15.5631 35.0618 15.7045 35.4068C15.8458 35.7517 16.0543 36.0651 16.3178 36.3288L21.3557 41.3666C21.8809 41.8886 22.5902 42.1834 23.3307 42.1873C24.0712 42.1913 24.7836 41.9041 25.3143 41.3877L36.1776 30.7618C42.2332 24.6973 42.3264 14.8641 36.3868 8.83306ZM10.6612 26.6995L5.62505 21.6633L9.80864 17.4235L14.8219 22.4368L10.6612 26.6995ZM23.342 39.375L18.3006 34.3389L22.5862 30.1958L27.5977 35.2125L23.342 39.375ZM34.1983 28.7508L29.6086 33.2403L24.6094 28.2446L29.2571 23.7499L29.2747 23.734C29.8138 23.1905 30.2399 22.5457 30.5287 21.8368C30.8174 21.1278 30.9629 20.3687 30.9569 19.6032C30.9537 18.8635 30.8021 18.132 30.511 17.4521C30.2199 16.7721 29.7953 16.1574 29.2624 15.6446C28.1943 14.6286 26.7722 14.0694 25.2982 14.0858C23.8243 14.1023 22.4149 14.693 21.3698 15.7325L16.7854 20.4223L11.7774 15.4231L16.4092 10.7385C17.5818 9.55922 18.9767 8.62431 20.5131 7.98795C22.0496 7.35159 23.697 7.02642 25.36 7.0313H25.4075C27.0791 7.03274 28.7337 7.3674 30.2744 8.0157C31.8152 8.66401 33.2113 9.61296 34.3811 10.8071C39.2432 15.7413 39.1553 23.7973 34.1983 28.7543V28.7508Z" fill="#8B1A83"/>
</svg>
