<svg width="45" height="45" viewBox="0 0 45 45" fill="none" xmlns="http://www.w3.org/2000/svg">
<path opacity="0.2" d="M39.375 22.3541C39.3862 23.6656 39.2452 24.9739 38.9549 26.2529C38.7419 27.1844 38.2189 28.016 37.4717 28.6116C36.7244 29.2072 35.7972 29.5314 34.8416 29.5313H26.7188C25.5999 29.5313 24.5268 29.9757 23.7356 30.7669C22.9445 31.5581 22.5 32.6311 22.5 33.75C22.4995 34.4247 22.3372 35.0894 22.0268 35.6883C21.7163 36.2873 21.2667 36.8031 20.7157 37.1924C20.1647 37.5817 19.5284 37.8332 18.8601 37.9258C18.1918 38.0184 17.5111 37.9493 16.875 37.7244C10.3236 35.4094 5.625 29.8494 5.625 22.5C5.62476 18.0548 7.37851 13.789 10.5053 10.6293C13.632 7.46962 17.8792 5.6713 22.3242 5.625C31.6125 5.53184 39.2959 13.0693 39.375 22.3541Z" fill="#8B1A83"/>
<path d="M35.2916 9.47286C31.8879 6.10241 27.2901 4.21385 22.5 4.21876H22.3119C17.4961 4.26831 12.8944 6.21622 9.50654 9.63926C6.11871 13.0623 4.2185 17.6839 4.21875 22.5C4.21875 30.0586 8.89102 36.3973 16.4109 39.0533C17.2591 39.3524 18.1666 39.4437 19.0573 39.3196C19.9481 39.1955 20.7961 38.8597 21.5302 38.3402C22.2644 37.8208 22.8633 37.1329 23.2767 36.3342C23.6901 35.5355 23.906 34.6493 23.9062 33.75C23.9062 33.0041 24.2026 32.2887 24.73 31.7613C25.2575 31.2338 25.9728 30.9375 26.7188 30.9375H34.8416C36.1176 30.9437 37.3573 30.5133 38.3549 29.7177C39.3525 28.9222 40.048 27.8094 40.326 26.5641C40.6403 25.1801 40.7931 23.7644 40.7812 22.3453C40.7633 19.9432 40.2689 17.5685 39.3266 15.3589C38.3842 13.1493 37.0128 11.1486 35.2916 9.47286ZM37.5768 25.9453C37.4371 26.5657 37.0899 27.1199 36.5926 27.5162C36.0952 27.9126 35.4775 28.1273 34.8416 28.125H26.7188C25.2269 28.125 23.7962 28.7176 22.7413 29.7725C21.6864 30.8274 21.0938 32.2582 21.0938 33.75C21.0931 34.1992 20.9848 34.6418 20.7781 35.0406C20.5713 35.4394 20.2719 35.7829 19.9052 36.0423C19.5384 36.3016 19.1148 36.4694 18.6699 36.5315C18.2249 36.5935 17.7716 36.5481 17.3479 36.399C10.9846 34.1543 7.03125 28.8281 7.03125 22.5C7.03103 18.425 8.63879 14.5145 11.5052 11.6181C14.3717 8.72172 18.2653 7.0734 22.34 7.03126H22.4982C26.5732 7.04709 30.4786 8.66388 33.3724 11.533C36.2661 14.402 37.9163 18.2935 37.967 22.3682C37.9775 23.5713 37.8489 24.7717 37.5838 25.9453H37.5768ZM24.6094 13.3594C24.6094 13.7766 24.4857 14.1844 24.2539 14.5313C24.0221 14.8782 23.6927 15.1485 23.3072 15.3082C22.9218 15.4678 22.4977 15.5096 22.0885 15.4282C21.6793 15.3468 21.3034 15.1459 21.0084 14.8509C20.7134 14.5559 20.5125 14.1801 20.4312 13.7709C20.3498 13.3617 20.3915 12.9376 20.5512 12.5522C20.7108 12.1667 20.9812 11.8373 21.3281 11.6055C21.675 11.3737 22.0828 11.25 22.5 11.25C23.0594 11.25 23.596 11.4722 23.9916 11.8678C24.3871 12.2634 24.6094 12.7999 24.6094 13.3594ZM16.875 17.5781C16.875 17.9953 16.7513 18.4032 16.5195 18.75C16.2877 19.0969 15.9583 19.3673 15.5728 19.5269C15.1874 19.6866 14.7633 19.7284 14.3541 19.647C13.9449 19.5656 13.5691 19.3647 13.2741 19.0697C12.9791 18.7747 12.7782 18.3988 12.6968 17.9897C12.6154 17.5805 12.6572 17.1563 12.8168 16.7709C12.9765 16.3855 13.2468 16.056 13.5937 15.8243C13.9406 15.5925 14.3484 15.4688 14.7656 15.4688C15.3251 15.4688 15.8616 15.691 16.2572 16.0866C16.6528 16.4822 16.875 17.0187 16.875 17.5781ZM16.875 27.4219C16.875 27.8391 16.7513 28.2469 16.5195 28.5938C16.2877 28.9407 15.9583 29.211 15.5728 29.3707C15.1874 29.5303 14.7633 29.5721 14.3541 29.4907C13.9449 29.4093 13.5691 29.2084 13.2741 28.9134C12.9791 28.6184 12.7782 28.2426 12.6968 27.8334C12.6154 27.4242 12.6572 27.0001 12.8168 26.6147C12.9765 26.2292 13.2468 25.8998 13.5937 25.668C13.9406 25.4362 14.3484 25.3125 14.7656 25.3125C15.3251 25.3125 15.8616 25.5347 16.2572 25.9303C16.6528 26.3259 16.875 26.8624 16.875 27.4219ZM32.3438 17.5781C32.3438 17.9953 32.22 18.4032 31.9883 18.75C31.7565 19.0969 31.427 19.3673 31.0416 19.5269C30.6562 19.6866 30.232 19.7284 29.8229 19.647C29.4137 19.5656 29.0378 19.3647 28.7428 19.0697C28.4478 18.7747 28.2469 18.3988 28.1655 17.9897C28.0841 17.5805 28.1259 17.1563 28.2856 16.7709C28.4452 16.3855 28.7156 16.056 29.0625 15.8243C29.4094 15.5925 29.8172 15.4688 30.2344 15.4688C30.7938 15.4688 31.3303 15.691 31.7259 16.0866C32.1215 16.4822 32.3438 17.0187 32.3438 17.5781Z" fill="#8B1A83"/>
</svg>
