<svg width="45" height="45" viewBox="0 0 45 45" fill="none" xmlns="http://www.w3.org/2000/svg">
<path opacity="0.2" d="M31.7725 18.4131L35.8594 22.5L21.4348 36.9035C19.8481 38.4646 17.7088 39.3354 15.483 39.3264C13.2571 39.3173 11.125 38.4291 9.55112 36.8552C7.9772 35.2812 7.08897 33.1491 7.0799 30.9233C7.07084 28.6975 7.94168 26.5582 9.50273 24.9715L26.9596 7.2721C28.0146 6.21709 29.4455 5.62439 30.9375 5.62439C32.4295 5.62439 33.8604 6.21709 34.9154 7.2721C35.9704 8.32711 36.5631 9.75802 36.5631 11.25C36.5631 12.742 35.9704 14.1729 34.9154 15.228L31.7725 18.4131Z" fill="#8B1A83"/>
<path d="M36.8543 21.5051C36.985 21.6357 37.0887 21.7908 37.1595 21.9615C37.2303 22.1323 37.2667 22.3153 37.2667 22.5001C37.2667 22.6849 37.2303 22.8679 37.1595 23.0386C37.0887 23.2093 36.985 23.3644 36.8543 23.495L22.4314 37.909C20.585 39.7552 18.0809 40.7923 15.4699 40.7921C12.8588 40.7919 10.3548 39.7546 8.50867 37.9082C6.66251 36.0618 5.62545 33.5576 5.62561 30.9466C5.62578 28.3356 6.66316 25.8316 8.50955 23.9854L25.9576 6.28072C27.2758 4.96114 29.0642 4.21925 30.9294 4.21826C32.7945 4.21727 34.5837 4.95727 35.9033 6.27545C37.2229 7.59363 37.9648 9.38203 37.9658 11.2472C37.9667 13.1124 37.2268 14.9016 35.9086 16.2212L18.457 33.9258C17.6645 34.7184 16.5895 35.1636 15.4687 35.1636C14.3479 35.1636 13.273 34.7184 12.4804 33.9258C11.6879 33.1333 11.2427 32.0584 11.2427 30.9376C11.2427 29.8167 11.6879 28.7418 12.4804 27.9493L27.123 13.0747C27.2513 12.9378 27.4056 12.828 27.577 12.7518C27.7483 12.6755 27.9332 12.6342 28.1207 12.6304C28.3082 12.6267 28.4946 12.6604 28.6688 12.7298C28.8431 12.7991 29.0017 12.9026 29.1354 13.0342C29.2691 13.1657 29.3751 13.3227 29.4472 13.4958C29.5193 13.669 29.556 13.8548 29.5552 14.0423C29.5544 14.2299 29.5161 14.4154 29.4426 14.5879C29.369 14.7604 29.2617 14.9165 29.1269 15.0469L14.4826 29.9374C14.3515 30.0674 14.2473 30.2221 14.1759 30.3924C14.1045 30.5628 14.0674 30.7455 14.0667 30.9302C14.066 31.1149 14.1016 31.2979 14.1716 31.4688C14.2416 31.6398 14.3446 31.7952 14.4747 31.9263C14.6048 32.0574 14.7594 32.1617 14.9297 32.233C15.1001 32.3044 15.2828 32.3415 15.4675 32.3422C15.6522 32.3429 15.8352 32.3073 16.0062 32.2373C16.1771 32.1673 16.3325 32.0643 16.4636 31.9342L33.9135 14.2383C34.706 13.4474 35.1519 12.3741 35.153 11.2544C35.1542 10.1347 34.7105 9.06047 33.9196 8.26793C33.1287 7.47539 32.0553 7.02949 30.9357 7.02834C29.816 7.02719 28.7417 7.47087 27.9492 8.26178L10.5047 25.9594C9.85116 26.6119 9.33256 27.3867 8.97849 28.2396C8.62442 29.0925 8.4418 30.0067 8.44107 30.9302C8.44033 31.8537 8.6215 32.7682 8.97421 33.6217C9.32693 34.4751 9.84429 35.2508 10.4968 35.9043C11.1492 36.5578 11.924 37.0764 12.7769 37.4304C13.6298 37.7845 14.5441 37.9671 15.4675 37.9679C16.391 37.9686 17.3056 37.7874 18.159 37.4347C19.0125 37.082 19.7881 36.5646 20.4416 35.9122L34.8662 21.4981C35.1308 21.2355 35.4889 21.0887 35.8617 21.0901C36.2345 21.0914 36.5915 21.2407 36.8543 21.5051Z" fill="#8B1A83"/>
</svg>
