<svg width="45" height="45" viewBox="0 0 45 45" fill="none" xmlns="http://www.w3.org/2000/svg">
<path opacity="0.2" d="M39.375 28.125H28.125L33.75 5.625L39.375 28.125Z" fill="#8B1A83"/>
<path d="M40.7812 33.75H35.1562V29.5313H39.375C39.5887 29.5312 39.7995 29.4825 39.9916 29.3888C40.1836 29.295 40.3518 29.1588 40.4832 28.9904C40.6147 28.8219 40.7061 28.6257 40.7504 28.4167C40.7948 28.2077 40.7909 27.9913 40.7391 27.784L35.1141 5.28399C35.0379 4.97992 34.8622 4.71003 34.6151 4.51719C34.368 4.32434 34.0635 4.2196 33.75 4.2196C33.4365 4.2196 33.132 4.32434 32.8849 4.51719C32.6378 4.71003 32.4621 4.97992 32.3859 5.28399L26.7609 27.784C26.7091 27.9913 26.7052 28.2077 26.7496 28.4167C26.7939 28.6257 26.8853 28.8219 27.0167 28.9904C27.1482 29.1588 27.3164 29.295 27.5084 29.3888C27.7005 29.4825 27.9113 29.5312 28.125 29.5313H32.3438V33.75H21.0938V30.9375H22.5C22.873 30.9375 23.2306 30.7893 23.4944 30.5256C23.7581 30.2619 23.9062 29.9042 23.9062 29.5313C23.9062 29.1583 23.7581 28.8006 23.4944 28.5369C23.2306 28.2732 22.873 28.125 22.5 28.125H21.0938V25.3125H22.5C22.873 25.3125 23.2306 25.1643 23.4944 24.9006C23.7581 24.6369 23.9062 24.2792 23.9062 23.9063C23.9062 23.5333 23.7581 23.1756 23.4944 22.9119C23.2306 22.6482 22.873 22.5 22.5 22.5H7.03125C6.65829 22.5 6.3006 22.6482 6.03688 22.9119C5.77316 23.1756 5.625 23.5333 5.625 23.9063C5.625 24.2792 5.77316 24.6369 6.03688 24.9006C6.3006 25.1643 6.65829 25.3125 7.03125 25.3125H8.4375V28.125H7.03125C6.65829 28.125 6.3006 28.2732 6.03688 28.5369C5.77316 28.8006 5.625 29.1583 5.625 29.5313C5.625 29.9042 5.77316 30.2619 6.03688 30.5256C6.3006 30.7893 6.65829 30.9375 7.03125 30.9375H8.4375V33.75H4.21875C3.84579 33.75 3.4881 33.8982 3.22438 34.1619C2.96066 34.4256 2.8125 34.7833 2.8125 35.1563C2.8125 35.5292 2.96066 35.8869 3.22438 36.1506C3.4881 36.4143 3.84579 36.5625 4.21875 36.5625H40.7812C41.1542 36.5625 41.5119 36.4143 41.7756 36.1506C42.0393 35.8869 42.1875 35.5292 42.1875 35.1563C42.1875 34.7833 42.0393 34.4256 41.7756 34.1619C41.5119 33.8982 41.1542 33.75 40.7812 33.75ZM33.75 11.4258L37.5732 26.7188H29.9268L33.75 11.4258ZM11.25 25.3125H18.2812V28.125H11.25V25.3125ZM11.25 30.9375H18.2812V33.75H11.25V30.9375ZM20.3906 16.875C21.3641 16.875 22.3157 16.5863 23.1251 16.0455C23.9345 15.5047 24.5653 14.736 24.9378 13.8366C25.3104 12.9373 25.4078 11.9477 25.2179 10.9929C25.028 10.0382 24.5593 9.16117 23.8709 8.47284C23.1826 7.7845 22.3056 7.31574 21.3508 7.12583C20.3961 6.93591 19.4065 7.03338 18.5071 7.40591C17.6077 7.77843 16.8391 8.40928 16.2982 9.21868C15.7574 10.0281 15.4688 10.9797 15.4688 11.9531C15.4688 13.2585 15.9873 14.5104 16.9103 15.4334C17.8334 16.3565 19.0853 16.875 20.3906 16.875ZM20.3906 9.84375C20.8078 9.84375 21.2156 9.96747 21.5625 10.1992C21.9094 10.431 22.1798 10.7605 22.3394 11.1459C22.4991 11.5313 22.5409 11.9555 22.4595 12.3646C22.3781 12.7738 22.1772 13.1497 21.8822 13.4447C21.5872 13.7397 21.2113 13.9406 20.8021 14.022C20.393 14.1034 19.9688 14.0616 19.5834 13.9019C19.198 13.7423 18.8685 13.4719 18.6367 13.125C18.405 12.7781 18.2812 12.3703 18.2812 11.9531C18.2812 11.3937 18.5035 10.8572 18.8991 10.4616C19.2947 10.066 19.8312 9.84375 20.3906 9.84375Z" fill="#8B1A83"/>
</svg>
