<svg width="45" height="45" viewBox="0 0 45 45" fill="none" xmlns="http://www.w3.org/2000/svg">
<path opacity="0.2" d="M37.9582 32.0063C37.6851 34.0472 36.6801 35.9194 35.13 37.2748C33.5799 38.6303 31.5903 39.3766 29.5313 39.375C23.1909 39.375 17.1103 36.8563 12.627 32.373C8.14369 27.8897 5.625 21.8091 5.625 15.4688C5.62343 13.4097 6.36975 11.4201 7.72517 9.87001C9.08059 8.31994 10.9528 7.3149 12.9938 7.0418C13.2955 7.00596 13.6006 7.06879 13.8637 7.22089C14.1267 7.37299 14.3333 7.60618 14.4527 7.88555L18.167 16.1824C18.2583 16.3955 18.2954 16.6279 18.2752 16.8588C18.2549 17.0897 18.1779 17.3121 18.051 17.5061L14.2945 21.9727C14.1613 22.1737 14.0825 22.4059 14.0659 22.6466C14.0492 22.8872 14.0953 23.128 14.1996 23.3455C15.6533 26.3215 18.7295 29.3608 21.7143 30.8004C21.9329 30.9043 22.1748 30.9493 22.4162 30.9311C22.6576 30.9129 22.89 30.8321 23.0906 30.6967L27.4852 26.9525C27.6799 26.823 27.9039 26.744 28.1369 26.7228C28.3698 26.7016 28.6044 26.7389 28.8193 26.8313L37.1092 30.5455C37.3899 30.6641 37.6244 30.8707 37.7775 31.1342C37.9306 31.3976 37.9941 31.7037 37.9582 32.0063Z" fill="#8B1A83"/>
<path d="M25.36 8.07364C25.4077 7.89518 25.4901 7.72786 25.6026 7.58126C25.715 7.43467 25.8552 7.31165 26.0152 7.21926C26.1751 7.12687 26.3518 7.0669 26.5349 7.04278C26.7181 7.01867 26.9042 7.03088 27.0826 7.07872C29.6896 7.7589 32.0681 9.12173 33.9732 11.0268C35.8783 12.9319 37.2411 15.3104 37.9213 17.9174C37.9691 18.0958 37.9814 18.282 37.9572 18.4651C37.9331 18.6483 37.8732 18.8249 37.7808 18.9849C37.6884 19.1448 37.5654 19.285 37.4188 19.3975C37.2722 19.5099 37.1049 19.5923 36.9264 19.6401C36.8076 19.6713 36.6853 19.6872 36.5625 19.6875C36.2526 19.6875 35.9514 19.5851 35.7057 19.3963C35.46 19.2075 35.2835 18.9428 35.2037 18.6434C34.649 16.5152 33.5367 14.5735 31.9816 13.0184C30.4265 11.4633 28.4848 10.351 26.3567 9.7963C26.178 9.74875 26.0105 9.66646 25.8637 9.55412C25.7169 9.44178 25.5937 9.3016 25.5012 9.14161C25.4086 8.98161 25.3485 8.80493 25.3243 8.62168C25.3 8.43843 25.3122 8.2522 25.36 8.07364ZM24.9504 15.4213C27.3744 16.0682 28.9319 17.6256 29.5787 20.0496C29.6585 20.3491 29.835 20.6137 30.0807 20.8026C30.3264 20.9914 30.6276 21.0938 30.9375 21.0938C31.0603 21.0934 31.1826 21.0775 31.3014 21.0463C31.4799 20.9986 31.6472 20.9161 31.7938 20.8037C31.9404 20.6913 32.0634 20.5511 32.1558 20.3911C32.2482 20.2311 32.3081 20.0545 32.3322 19.8714C32.3564 19.6882 32.3441 19.5021 32.2963 19.3236C31.3963 15.9557 29.0444 13.6037 25.6764 12.7037C25.316 12.6075 24.9322 12.6583 24.6093 12.845C24.2864 13.0318 24.0509 13.3391 23.9546 13.6995C23.8583 14.0599 23.9092 14.4438 24.0959 14.7666C24.2827 15.0895 24.59 15.325 24.9504 15.4213ZM39.3539 32.182C39.0405 34.5639 37.8707 36.7503 36.0631 38.3327C34.2555 39.9152 31.9337 40.7856 29.5313 40.7813C15.5742 40.7813 4.21877 29.4258 4.21877 15.4688C4.21446 13.0663 5.08482 10.7445 6.66728 8.9369C8.24975 7.12929 10.4361 5.95953 12.818 5.6461C13.4203 5.57256 14.0303 5.69578 14.5568 5.99738C15.0833 6.29898 15.4982 6.76278 15.7395 7.31954L19.452 15.6076V15.6287C19.6367 16.0549 19.713 16.5202 19.674 16.9831C19.6351 17.4459 19.4821 17.8919 19.2287 18.2813C19.1971 18.3287 19.1637 18.3727 19.1285 18.4166L15.4688 22.7549C16.7854 25.4303 19.5838 28.2041 22.2944 29.5242L26.5729 25.8838C26.6149 25.8485 26.6589 25.8156 26.7047 25.7854C27.0937 25.5259 27.5412 25.3675 28.0068 25.3246C28.4724 25.2816 28.9414 25.3554 29.3713 25.5393L29.3942 25.5498L37.6752 29.2606C38.233 29.501 38.6979 29.9155 39.0005 30.4421C39.3031 30.9687 39.4271 31.5791 39.3539 32.182ZM36.5625 31.8305C36.5625 31.8305 36.5502 31.8305 36.5432 31.8305L28.2815 28.1303L24.0012 31.7707C23.9597 31.8059 23.9162 31.8387 23.8711 31.8692C23.4664 32.1392 22.9985 32.2996 22.5133 32.3347C22.028 32.3698 21.5419 32.2785 21.1026 32.0695C17.8102 30.4787 14.5283 27.2215 12.9358 23.9643C12.7249 23.5281 12.6302 23.0448 12.661 22.5613C12.6918 22.0778 12.847 21.6104 13.1115 21.2045C13.1414 21.1568 13.1749 21.1116 13.2117 21.0692L16.875 16.7256L13.1836 8.46388C13.1829 8.45686 13.1829 8.4498 13.1836 8.44278C11.479 8.66515 9.91386 9.50127 8.78136 10.7946C7.64887 12.0879 7.02666 13.7497 7.03127 15.4688C7.03778 21.4341 9.4104 27.1533 13.6286 31.3715C17.8467 35.5896 23.5659 37.9622 29.5313 37.9688C31.2493 37.9747 32.9106 37.3546 34.2047 36.2246C35.4988 35.0945 36.3369 33.5319 36.5625 31.8287V31.8305Z" fill="#8B1A83"/>
</svg>
