<svg width="45" height="45" viewBox="0 0 45 45" fill="none" xmlns="http://www.w3.org/2000/svg">
<path opacity="0.2" d="M42.1875 19.6875V25.3125C42.1875 26.0584 41.8912 26.7738 41.3637 27.3012C40.8363 27.8287 40.1209 28.125 39.375 28.125H37.9688L34.7871 37.0354C34.6895 37.3087 34.5097 37.5451 34.2725 37.7122C34.0352 37.8794 33.752 37.969 33.4617 37.9688H31.2258C30.9356 37.969 30.6524 37.8794 30.4151 37.7122C30.1778 37.5451 29.998 37.3087 29.9004 37.0354L29.2307 35.1562H17.1756L16.5059 37.0354C16.4083 37.3087 16.2285 37.5451 15.9912 37.7122C15.7539 37.8794 15.4707 37.969 15.1805 37.9688H12.9445C12.6543 37.969 12.3711 37.8794 12.1338 37.7122C11.8965 37.5451 11.7167 37.3087 11.6191 37.0354L9.31642 30.5859C6.9387 27.997 5.62109 24.6089 5.62501 21.0938C5.62501 17.3641 7.10659 13.7873 9.74382 11.1501C12.3811 8.51283 15.9579 7.03125 19.6875 7.03125H25.3125C28.0566 7.03046 30.741 7.83254 33.0349 9.33866C35.3287 10.8448 37.1318 12.9891 38.2219 15.5074C38.4147 15.9544 38.5849 16.4108 38.7316 16.875H39.375C40.1209 16.875 40.8363 17.1713 41.3637 17.6988C41.8912 18.2262 42.1875 18.9416 42.1875 19.6875Z" fill="#8B1A83"/>
<path d="M33.75 20.3906C33.75 20.8078 33.6263 21.2156 33.3945 21.5625C33.1627 21.9094 32.8333 22.1798 32.4478 22.3394C32.0624 22.4991 31.6383 22.5409 31.2291 22.4595C30.8199 22.3781 30.4441 22.1772 30.1491 21.8822C29.8541 21.5872 29.6532 21.2113 29.5718 20.8021C29.4904 20.393 29.5322 19.9688 29.6918 19.5834C29.8515 19.198 30.1218 18.8685 30.4687 18.6367C30.8156 18.405 31.2234 18.2812 31.6406 18.2812C32.2001 18.2812 32.7366 18.5035 33.1322 18.8991C33.5278 19.2947 33.75 19.8312 33.75 20.3906ZM26.7188 11.25H19.6875C19.3145 11.25 18.9569 11.3982 18.6931 11.6619C18.4294 11.9256 18.2812 12.2833 18.2812 12.6562C18.2812 13.0292 18.4294 13.3869 18.6931 13.6506C18.9569 13.9143 19.3145 14.0625 19.6875 14.0625H26.7188C27.0917 14.0625 27.4494 13.9143 27.7131 13.6506C27.9768 13.3869 28.125 13.0292 28.125 12.6562C28.125 12.2833 27.9768 11.9256 27.7131 11.6619C27.4494 11.3982 27.0917 11.25 26.7188 11.25ZM43.5938 19.6875V25.3125C43.5938 26.4314 43.1493 27.5044 42.3581 28.2956C41.5669 29.0868 40.4939 29.5312 39.375 29.5312H38.9602L36.1107 37.5082C35.9157 38.0546 35.5564 38.5273 35.0821 38.8615C34.6079 39.1957 34.0419 39.3751 33.4617 39.375H31.2258C30.6456 39.3751 30.0796 39.1957 29.6054 38.8615C29.1311 38.5273 28.7718 38.0546 28.5768 37.5082L28.2393 36.5625H18.167L17.8295 37.5082C17.6344 38.0546 17.2751 38.5273 16.8009 38.8615C16.3266 39.1957 15.7606 39.3751 15.1805 39.375H12.9445C12.3644 39.3751 11.7984 39.1957 11.3241 38.8615C10.8499 38.5273 10.4906 38.0546 10.2955 37.5082L8.08594 31.3277C5.98391 28.9487 4.66771 25.9787 4.31719 22.8234C3.86336 23.0618 3.48331 23.4197 3.21811 23.8584C2.95292 24.2971 2.81266 24.7999 2.8125 25.3125C2.8125 25.6855 2.66434 26.0431 2.40062 26.3069C2.1369 26.5706 1.77921 26.7188 1.40625 26.7188C1.03329 26.7188 0.675604 26.5706 0.411881 26.3069C0.148158 26.0431 0 25.6855 0 25.3125C0.00214871 24.0584 0.423321 22.841 1.1966 21.8537C1.96988 20.8664 3.05092 20.1658 4.26797 19.8633C4.58212 15.9879 6.34223 12.3723 9.19878 9.73463C12.0553 7.09691 15.7994 5.62994 19.6875 5.625H37.9688C38.3417 5.625 38.6994 5.77316 38.9631 6.03688C39.2268 6.3006 39.375 6.65829 39.375 7.03125C39.375 7.40421 39.2268 7.7619 38.9631 8.02562C38.6994 8.28934 38.3417 8.4375 37.9688 8.4375H34.2088C36.5425 10.0749 38.378 12.3258 39.5121 14.9414C39.5877 15.1172 39.6615 15.293 39.7318 15.4688C40.7878 15.5584 41.7713 16.0421 42.4868 16.8238C43.2024 17.6055 43.5975 18.6278 43.5938 19.6875ZM40.7812 19.6875C40.7812 19.3145 40.6331 18.9569 40.3694 18.6931C40.1056 18.4294 39.748 18.2812 39.375 18.2812H38.7316C38.4321 18.2816 38.1404 18.1863 37.8988 18.0092C37.6572 17.8321 37.4785 17.5826 37.3887 17.2969C36.583 14.7258 34.9767 12.4795 32.8043 10.8857C30.6318 9.29192 28.0069 8.43414 25.3125 8.4375H19.6875C17.2313 8.43737 14.8282 9.15193 12.7712 10.494C10.7141 11.8361 9.09201 13.7478 8.10268 15.9959C7.11336 18.244 6.79956 20.7314 7.19954 23.1548C7.59952 25.5782 8.696 27.8328 10.3553 29.6437C10.4822 29.7817 10.5802 29.9437 10.6436 30.1201L12.9445 36.5625H15.1805L15.852 34.6834C15.9494 34.4103 16.129 34.1741 16.3659 34.007C16.6028 33.8399 16.8856 33.7502 17.1756 33.75H29.2307C29.5206 33.7502 29.8034 33.8399 30.0403 34.007C30.2773 34.1741 30.4568 34.4103 30.5543 34.6834L31.2258 36.5625H33.4617L36.6451 27.6521C36.7426 27.3791 36.9221 27.1428 37.1591 26.9758C37.396 26.8087 37.6788 26.7189 37.9688 26.7188H39.375C39.748 26.7188 40.1056 26.5706 40.3694 26.3069C40.6331 26.0431 40.7812 25.6855 40.7812 25.3125V19.6875Z" fill="#8B1A83"/>
</svg>
