<svg width="45" height="45" viewBox="0 0 45 45" fill="none" xmlns="http://www.w3.org/2000/svg">
<path opacity="0.2" d="M37.2657 23.2031L26.9596 33.5092C25.9047 34.5638 24.4742 35.1563 22.9825 35.1563C21.4909 35.1563 20.0604 34.5638 19.0055 33.5092L11.4909 25.9945C10.4362 24.9397 9.84375 23.5091 9.84375 22.0175C9.84375 20.5258 10.4362 19.0953 11.4909 18.0404L21.7969 7.73438L37.2657 23.2031Z" fill="#8B1A83"/>
<path d="M41.7762 11.6613C41.6456 11.5306 41.4905 11.4268 41.3198 11.3561C41.1491 11.2853 40.9661 11.2489 40.7813 11.2489C40.5965 11.2489 40.4135 11.2853 40.2428 11.3561C40.0721 11.4268 39.917 11.5306 39.7864 11.6613L33.7501 17.6994L27.3006 11.25L33.3387 5.21366C33.6026 4.94979 33.7508 4.59191 33.7508 4.21874C33.7508 3.84557 33.6026 3.48769 33.3387 3.22382C33.0749 2.95995 32.717 2.81171 32.3438 2.81171C31.9706 2.81171 31.6127 2.95995 31.3489 3.22382L25.3125 9.2619L20.6825 4.63007C20.4186 4.3662 20.0607 4.21796 19.6875 4.21796C19.3144 4.21796 18.9565 4.3662 18.6926 4.63007C18.4288 4.89394 18.2805 5.25182 18.2805 5.62499C18.2805 5.99816 18.4288 6.35604 18.6926 6.61991L19.8088 7.73436L10.4924 17.0508C9.83948 17.7037 9.32153 18.4788 8.96816 19.3319C8.61478 20.185 8.4329 21.0994 8.4329 22.0227C8.4329 22.9461 8.61478 23.8605 8.96816 24.7136C9.32153 25.5667 9.83948 26.3418 10.4924 26.9947L13.254 29.7562L4.63013 38.3801C4.49947 38.5107 4.39583 38.6658 4.32512 38.8365C4.25441 39.0073 4.21802 39.1902 4.21802 39.375C4.21802 39.5598 4.25441 39.7427 4.32512 39.9134C4.39583 40.0841 4.49947 40.2393 4.63013 40.3699C4.894 40.6338 5.25188 40.782 5.62505 40.782C5.80982 40.782 5.99279 40.7456 6.1635 40.6749C6.33421 40.6042 6.48932 40.5006 6.61997 40.3699L15.2491 31.7408L18.0106 34.5023C18.6635 35.1553 19.4386 35.6732 20.2917 36.0266C21.1448 36.38 22.0592 36.5619 22.9826 36.5619C23.906 36.5619 24.8203 36.38 25.6734 36.0266C26.5265 35.6732 27.3016 35.1553 27.9545 34.5023L37.271 25.1859L38.3854 26.3021C38.5161 26.4328 38.6712 26.5364 38.8419 26.6071C39.0126 26.6779 39.1955 26.7142 39.3803 26.7142C39.5651 26.7142 39.7481 26.6779 39.9188 26.6071C40.0895 26.5364 40.2446 26.4328 40.3752 26.3021C40.5059 26.1715 40.6095 26.0164 40.6803 25.8457C40.751 25.675 40.7874 25.492 40.7874 25.3072C40.7874 25.1224 40.751 24.9395 40.6803 24.7688C40.6095 24.5981 40.5059 24.4429 40.3752 24.3123L35.7381 19.6875L41.7762 13.6512C41.907 13.5206 42.0107 13.3655 42.0815 13.1947C42.1522 13.024 42.1887 12.841 42.1887 12.6562C42.1887 12.4714 42.1522 12.2884 42.0815 12.1177C42.0107 11.947 41.907 11.7919 41.7762 11.6613ZM25.9665 32.5195C25.5747 32.9115 25.1095 33.2225 24.5975 33.4346C24.0855 33.6467 23.5368 33.7559 22.9826 33.7559C22.4284 33.7559 21.8796 33.6467 21.3676 33.4346C20.8556 33.2225 20.3905 32.9115 19.9987 32.5195L12.4805 25.0014C12.0885 24.6096 11.7776 24.1444 11.5654 23.6324C11.3533 23.1204 11.2441 22.5717 11.2441 22.0175C11.2441 21.4633 11.3533 20.9145 11.5654 20.4025C11.7776 19.8905 12.0885 19.4254 12.4805 19.0336L21.7969 9.71718L35.2776 23.2031L25.9665 32.5195Z" fill="#8B1A83"/>
</svg>
