<svg width="45" height="45" viewBox="0 0 45 45" fill="none" xmlns="http://www.w3.org/2000/svg">
<path opacity="0.2" d="M32.3438 26.7188L29.7756 38.2746C29.706 38.5868 29.5321 38.866 29.2825 39.066C29.0329 39.2661 28.7226 39.3751 28.4027 39.375H16.5973C16.2774 39.3751 15.9671 39.2661 15.7175 39.066C15.4679 38.866 15.294 38.5868 15.2244 38.2746L12.6562 26.7188H32.3438Z" fill="#8B1A83"/>
<path d="M35.1562 25.3125H21.6738L22.0869 24.8994L25.6131 21.3732C27.0372 22.0905 28.6065 22.4728 30.2009 22.4912C31.8059 22.4954 33.3808 22.0562 34.7519 21.222C38.9214 18.6978 41.1556 12.8549 40.7285 5.59158C40.7084 5.24755 40.5627 4.92287 40.319 4.67919C40.0753 4.43551 39.7506 4.28979 39.4066 4.2697C32.1433 3.84431 26.3004 6.07673 23.7744 10.2463C22.1308 12.9621 22.0886 16.2422 23.6232 19.3869L21.0937 21.9164L18.9474 19.7701C20.0021 17.441 19.9265 15.024 18.7031 13.006C16.7923 9.84372 12.4101 8.15622 6.98375 8.47615C6.64032 8.49661 6.3163 8.64226 6.07303 8.88554C5.82975 9.12881 5.6841 9.45283 5.66363 9.79626C5.34371 15.2226 7.03121 19.6031 10.1953 21.5156C11.2538 22.1619 12.4706 22.5026 13.7109 22.5C14.8361 22.4888 15.946 22.2377 16.9664 21.7635L19.1056 23.9062L17.6994 25.3125H9.84371C9.47075 25.3125 9.11307 25.4606 8.84934 25.7244C8.58562 25.9881 8.43746 26.3458 8.43746 26.7187C8.43746 27.0917 8.58562 27.4494 8.84934 27.7131C9.11307 27.9768 9.47075 28.125 9.84371 28.125H11.5295L13.8515 38.5787C13.987 39.2051 14.3338 39.7659 14.8338 40.1669C15.3337 40.5679 15.9563 40.7848 16.5972 40.7812H28.4045C29.0452 40.7842 29.6675 40.567 30.1673 40.1661C30.6671 39.7652 31.014 39.2048 31.1502 38.5787L33.4722 28.125H35.1562C35.5292 28.125 35.8869 27.9768 36.1506 27.7131C36.4143 27.4494 36.5625 27.0917 36.5625 26.7187C36.5625 26.3458 36.4143 25.9881 36.1506 25.7244C35.8869 25.4606 35.5292 25.3125 35.1562 25.3125ZM26.1914 11.7035C28.03 8.66951 32.3841 6.9574 37.9687 7.03298C38.0408 12.6246 36.3322 16.9787 33.2982 18.8103C31.275 20.0408 28.8334 19.9599 26.3935 18.6029C25.0347 16.1719 24.9609 13.7267 26.1914 11.7035ZM16.1912 19.0037C14.574 19.8685 12.9726 19.909 11.6507 19.1092C9.62926 17.884 8.46383 14.9959 8.43746 11.25C12.1834 11.2763 15.0732 12.4418 16.2966 14.4633C17.0982 15.7851 17.0507 17.3865 16.1912 19.0037ZM28.4045 37.9687H16.5972L14.414 28.125H30.5859L28.4045 37.9687Z" fill="#8B1A83"/>
</svg>
