<svg width="45" height="45" viewBox="0 0 45 45" fill="none" xmlns="http://www.w3.org/2000/svg">
<path opacity="0.2" d="M18.9844 12.6562V25.3125H7.03125C6.65829 25.3125 6.3006 25.1643 6.03688 24.9006C5.77316 24.6369 5.625 24.2792 5.625 23.9062V12.6562C5.625 12.2833 5.77316 11.9256 6.03688 11.6619C6.3006 11.3982 6.65829 11.25 7.03125 11.25H17.5781C17.9511 11.25 18.3088 11.3982 18.5725 11.6619C18.8362 11.9256 18.9844 12.2833 18.9844 12.6562ZM37.9688 11.25H27.4219C27.0489 11.25 26.6912 11.3982 26.4275 11.6619C26.1638 11.9256 26.0156 12.2833 26.0156 12.6562V23.9062C26.0156 24.2792 26.1638 24.6369 26.4275 24.9006C26.6912 25.1643 27.0489 25.3125 27.4219 25.3125H39.375V12.6562C39.375 12.2833 39.2268 11.9256 38.9631 11.6619C38.6994 11.3982 38.3417 11.25 37.9688 11.25Z" fill="#8B1A83"/>
<path d="M17.5781 9.84375H7.03125C6.28533 9.84375 5.56996 10.1401 5.04251 10.6675C4.51507 11.195 4.21875 11.9103 4.21875 12.6562V23.9062C4.21875 24.6522 4.51507 25.3675 5.04251 25.895C5.56996 26.4224 6.28533 26.7188 7.03125 26.7188H17.5781V28.125C17.5781 29.6168 16.9855 31.0476 15.9306 32.1025C14.8757 33.1574 13.445 33.75 11.9531 33.75C11.5802 33.75 11.2225 33.8982 10.9588 34.1619C10.695 34.4256 10.5469 34.7833 10.5469 35.1562C10.5469 35.5292 10.695 35.8869 10.9588 36.1506C11.2225 36.4143 11.5802 36.5625 11.9531 36.5625C14.1902 36.5602 16.3349 35.6705 17.9168 34.0886C19.4986 32.5068 20.3883 30.362 20.3906 28.125V12.6562C20.3906 11.9103 20.0943 11.195 19.5669 10.6675C19.0394 10.1401 18.324 9.84375 17.5781 9.84375ZM17.5781 23.9062H7.03125V12.6562H17.5781V23.9062ZM37.9688 9.84375H27.4219C26.676 9.84375 25.9606 10.1401 25.4331 10.6675C24.9057 11.195 24.6094 11.9103 24.6094 12.6562V23.9062C24.6094 24.6522 24.9057 25.3675 25.4331 25.895C25.9606 26.4224 26.676 26.7188 27.4219 26.7188H37.9688V28.125C37.9688 29.6168 37.3761 31.0476 36.3212 32.1025C35.2663 33.1574 33.8356 33.75 32.3438 33.75C31.9708 33.75 31.6131 33.8982 31.3494 34.1619C31.0857 34.4256 30.9375 34.7833 30.9375 35.1562C30.9375 35.5292 31.0857 35.8869 31.3494 36.1506C31.6131 36.4143 31.9708 36.5625 32.3438 36.5625C34.5808 36.5602 36.7256 35.6705 38.3074 34.0886C39.8892 32.5068 40.7789 30.362 40.7812 28.125V12.6562C40.7812 11.9103 40.4849 11.195 39.9575 10.6675C39.43 10.1401 38.7147 9.84375 37.9688 9.84375ZM37.9688 23.9062H27.4219V12.6562H37.9688V23.9062Z" fill="#8B1A83"/>
</svg>
