<svg width="45" height="45" viewBox="0 0 45 45" fill="none" xmlns="http://www.w3.org/2000/svg">
<path opacity="0.2" d="M40.3699 15.8801L15.8801 40.3699C15.6164 40.6334 15.2588 40.7815 14.886 40.7815C14.5132 40.7815 14.1557 40.6334 13.892 40.3699L4.63006 31.1133C4.36654 30.8496 4.21851 30.492 4.21851 30.1192C4.21851 29.7464 4.36654 29.3889 4.63006 29.1252L29.1199 4.63006C29.3836 4.36654 29.7411 4.21851 30.1139 4.21851C30.4867 4.21851 30.8443 4.36654 31.108 4.63006L40.3699 13.8867C40.5012 14.0174 40.6054 14.1727 40.6764 14.3437C40.7475 14.5148 40.7841 14.6982 40.7841 14.8834C40.7841 15.0686 40.7475 15.252 40.6764 15.423C40.6054 15.5941 40.5012 15.7494 40.3699 15.8801Z" fill="#8B1A83"/>
<path d="M41.3648 12.897L32.1029 3.63686C31.8417 3.37562 31.5317 3.1684 31.1904 3.02702C30.8491 2.88563 30.4834 2.81287 30.114 2.81287C29.7446 2.81287 29.3788 2.88563 29.0375 3.02702C28.6962 3.1684 28.3862 3.37562 28.125 3.63686L3.63515 28.1249C3.37391 28.3861 3.16669 28.6962 3.02531 29.0375C2.88393 29.3787 2.81116 29.7445 2.81116 30.1139C2.81116 30.4833 2.88393 30.8491 3.02531 31.1904C3.16669 31.5316 3.37391 31.8417 3.63515 32.1029L12.8971 41.363C13.1582 41.6243 13.4683 41.8315 13.8096 41.9729C14.1508 42.1143 14.5166 42.187 14.886 42.187C15.2554 42.187 15.6212 42.1143 15.9625 41.9729C16.3037 41.8315 16.6138 41.6243 16.875 41.363L41.3648 16.8749C41.6261 16.6138 41.8333 16.3037 41.9747 15.9624C42.1161 15.6212 42.1888 15.2554 42.1888 14.886C42.1888 14.5166 42.1161 14.1508 41.9747 13.8095C41.8333 13.4683 41.6261 13.1582 41.3648 12.897ZM14.8851 39.3749L5.62499 30.113L11.25 24.488L15.8801 29.1199C16.0107 29.2505 16.1658 29.3542 16.3365 29.4249C16.5072 29.4956 16.6902 29.532 16.875 29.532C17.0598 29.532 17.2427 29.4956 17.4134 29.4249C17.5841 29.3542 17.7393 29.2505 17.8699 29.1199C18.0006 28.9892 18.1042 28.8341 18.1749 28.6634C18.2456 28.4927 18.282 28.3097 18.282 28.1249C18.282 27.9402 18.2456 27.7572 18.1749 27.5865C18.1042 27.4158 18.0006 27.2607 17.8699 27.13L13.2381 22.4999L16.875 18.863L21.5051 23.4949C21.7689 23.7587 22.1268 23.907 22.5 23.907C22.8732 23.907 23.231 23.7587 23.4949 23.4949C23.7588 23.231 23.907 22.8731 23.907 22.4999C23.907 22.1268 23.7588 21.7689 23.4949 21.505L18.8631 16.8749L22.5 13.238L27.1301 17.8699C27.2607 18.0005 27.4158 18.1042 27.5865 18.1749C27.7572 18.2456 27.9402 18.282 28.125 18.282C28.3098 18.282 28.4927 18.2456 28.6634 18.1749C28.8341 18.1042 28.9893 18.0005 29.1199 17.8699C29.2506 17.7392 29.3542 17.5841 29.4249 17.4134C29.4956 17.2427 29.532 17.0597 29.532 16.8749C29.532 16.6902 29.4956 16.5072 29.4249 16.3365C29.3542 16.1658 29.2506 16.0107 29.1199 15.88L24.4881 11.2499L30.1131 5.62494L39.375 14.8869L14.8851 39.3749Z" fill="#8B1A83"/>
</svg>
