<svg width="45" height="45" viewBox="0 0 45 45" fill="none" xmlns="http://www.w3.org/2000/svg">
<path opacity="0.2" d="M26.7187 33.75V25.3125C15.9257 25.3125 8.33024 31.8498 5.43688 34.9313C5.33598 35.0395 5.20352 35.1131 5.05834 35.1417C4.91317 35.1702 4.76268 35.1523 4.62831 35.0903C4.49394 35.0284 4.38252 34.9257 4.30993 34.7967C4.23734 34.6678 4.20726 34.5193 4.22399 34.3723C5.53884 22.9307 17.4357 14.0625 26.7187 14.0625V5.625L40.7812 19.6875L26.7187 33.75Z" fill="#8B1A83"/>
<path d="M41.7762 18.6943L27.7137 4.6318C27.5171 4.43501 27.2666 4.30094 26.9938 4.24653C26.7211 4.19212 26.4383 4.21982 26.1813 4.32613C25.9243 4.43244 25.7045 4.61258 25.5499 4.84377C25.3953 5.07496 25.3126 5.34682 25.3125 5.62496V12.7177C20.7527 13.108 15.7166 15.3404 11.5735 18.8543C6.58478 23.0871 3.47873 28.5416 2.82658 34.2123C2.77561 34.6531 2.86501 35.0988 3.08203 35.486C3.29905 35.8731 3.63265 36.1819 4.03535 36.3685C4.43805 36.555 4.88932 36.6098 5.32496 36.525C5.76059 36.4402 6.15839 36.2202 6.46173 35.8962C8.39533 33.8378 15.2754 27.3287 25.3125 26.7556V33.75C25.3126 34.0281 25.3953 34.3 25.5499 34.5311C25.7045 34.7623 25.9243 34.9425 26.1813 35.0488C26.4383 35.1551 26.7211 35.1828 26.9938 35.1284C27.2666 35.074 27.5171 34.9399 27.7137 34.7431L41.7762 20.6806C42.0392 20.417 42.1869 20.0598 42.1869 19.6875C42.1869 19.3151 42.0392 18.9579 41.7762 18.6943ZM28.125 30.3556V25.3125C28.125 24.9395 27.9769 24.5818 27.7131 24.3181C27.4494 24.0544 27.0917 23.9062 26.7188 23.9062C21.7828 23.9062 16.9752 25.1947 12.4295 27.7382C10.1144 29.0394 7.9573 30.6037 6.00119 32.4C7.02072 28.2093 9.59064 24.2244 13.3928 20.9988C17.4744 17.5377 22.4561 15.4687 26.7188 15.4687C27.0917 15.4687 27.4494 15.3205 27.7131 15.0568C27.9769 14.7931 28.125 14.4354 28.125 14.0625V9.02105L38.7932 19.6875L28.125 30.3556Z" fill="#8B1A83"/>
</svg>
