<svg width="45" height="45" viewBox="0 0 45 45" fill="none" xmlns="http://www.w3.org/2000/svg">
<path opacity="0.2" d="M39.375 9.84375V14.0625H5.625V9.84375C5.625 9.47079 5.77316 9.1131 6.03688 8.84938C6.3006 8.58566 6.65829 8.4375 7.03125 8.4375H37.9688C38.3417 8.4375 38.6994 8.58566 38.9631 8.84938C39.2268 9.1131 39.375 9.47079 39.375 9.84375Z" fill="#8B1A83"/>
<path d="M37.9688 7.03125H7.03125C6.28533 7.03125 5.56996 7.32757 5.04251 7.85501C4.51507 8.38246 4.21875 9.09783 4.21875 9.84375V35.1562C4.21875 35.9022 4.51507 36.6175 5.04251 37.145C5.56996 37.6724 6.28533 37.9688 7.03125 37.9688H37.9688C38.7147 37.9688 39.43 37.6724 39.9575 37.145C40.4849 36.6175 40.7812 35.9022 40.7812 35.1562V9.84375C40.7812 9.09783 40.4849 8.38246 39.9575 7.85501C39.43 7.32757 38.7147 7.03125 37.9688 7.03125ZM37.9688 9.84375V12.6562H7.03125V9.84375H37.9688ZM37.9688 35.1562H7.03125V15.4688H37.9688V35.1562ZM30.9375 19.6875C30.9375 21.9253 30.0486 24.0714 28.4662 25.6537C26.8839 27.2361 24.7378 28.125 22.5 28.125C20.2622 28.125 18.1161 27.2361 16.5338 25.6537C14.9514 24.0714 14.0625 21.9253 14.0625 19.6875C14.0625 19.3145 14.2107 18.9569 14.4744 18.6931C14.7381 18.4294 15.0958 18.2812 15.4688 18.2812C15.8417 18.2812 16.1994 18.4294 16.4631 18.6931C16.7268 18.9569 16.875 19.3145 16.875 19.6875C16.875 21.1793 17.4676 22.6101 18.5225 23.665C19.5774 24.7199 21.0082 25.3125 22.5 25.3125C23.9918 25.3125 25.4226 24.7199 26.4775 23.665C27.5324 22.6101 28.125 21.1793 28.125 19.6875C28.125 19.3145 28.2732 18.9569 28.5369 18.6931C28.8006 18.4294 29.1583 18.2812 29.5312 18.2812C29.9042 18.2812 30.2619 18.4294 30.5256 18.6931C30.7893 18.9569 30.9375 19.3145 30.9375 19.6875Z" fill="#8B1A83"/>
</svg>
