<svg width="45" height="45" viewBox="0 0 45 45" fill="none" xmlns="http://www.w3.org/2000/svg">
<path opacity="0.2" d="M37.9688 14.0625V33.75H7.03125V11.25H35.1562C35.9022 11.25 36.6175 11.5463 37.145 12.0738C37.6724 12.6012 37.9688 13.3166 37.9688 14.0625Z" fill="#8B1A83"/>
<path d="M20.6209 23.5547L7.9646 34.8047C7.8261 34.9274 7.66478 35.0216 7.48987 35.082C7.31496 35.1423 7.12987 35.1676 6.94518 35.1565C6.76049 35.1453 6.57981 35.0978 6.41345 35.0168C6.2471 34.9358 6.09833 34.8228 5.97564 34.6843C5.85294 34.5458 5.75874 34.3845 5.69839 34.2096C5.63804 34.0347 5.61273 33.8496 5.62391 33.6649C5.63509 33.4802 5.68254 33.2995 5.76355 33.1332C5.84456 32.9668 5.95754 32.8181 6.09605 32.6954L17.5781 22.5L6.0978 12.3047C5.9593 12.182 5.84632 12.0333 5.76531 11.8669C5.6843 11.7006 5.63685 11.5199 5.62567 11.3352C5.61449 11.1505 5.6398 10.9654 5.70014 10.7905C5.76049 10.6156 5.8547 10.4543 5.97739 10.3158C6.10008 10.1773 6.24885 10.0643 6.41521 9.98328C6.58156 9.90227 6.76225 9.85482 6.94694 9.84364C7.13163 9.83246 7.31672 9.85776 7.49163 9.91811C7.66654 9.97846 7.82785 10.0727 7.96636 10.1954L20.6226 21.4454C20.7722 21.5773 20.8921 21.7396 20.9742 21.9215C21.0563 22.1033 21.0987 22.3005 21.0987 22.5C21.0987 22.6996 21.0563 22.8968 20.9742 23.0786C20.8921 23.2605 20.7722 23.4228 20.6226 23.5547H20.6209ZM37.9687 32.3438H21.0937C20.7207 32.3438 20.3631 32.492 20.0993 32.7557C19.8356 33.0194 19.6875 33.3771 19.6875 33.75C19.6875 34.123 19.8356 34.4807 20.0993 34.7444C20.3631 35.0081 20.7207 35.1563 21.0937 35.1563H37.9687C38.3417 35.1563 38.6994 35.0081 38.9631 34.7444C39.2268 34.4807 39.375 34.123 39.375 33.75C39.375 33.3771 39.2268 33.0194 38.9631 32.7557C38.6994 32.492 38.3417 32.3438 37.9687 32.3438Z" fill="#8B1A83"/>
</svg>
