<svg width="45" height="45" viewBox="0 0 45 45" fill="none" xmlns="http://www.w3.org/2000/svg">
<path opacity="0.2" d="M14.0625 18.2812V36.5625H5.625C5.25204 36.5625 4.89435 36.4143 4.63063 36.1506C4.36691 35.8869 4.21875 35.5292 4.21875 35.1562V19.6875C4.21875 19.3145 4.36691 18.9569 4.63063 18.6931C4.89435 18.4294 5.25204 18.2812 5.625 18.2812H14.0625Z" fill="#8B1A83"/>
<path d="M41.1328 14.0836C40.7368 13.6349 40.2499 13.2755 39.7044 13.0294C39.1589 12.7833 38.5672 12.6561 37.9688 12.6563H28.125V9.84375C28.125 7.97895 27.3842 6.19052 26.0656 4.87191C24.747 3.55329 22.9586 2.8125 21.0938 2.8125C20.8325 2.81231 20.5764 2.88491 20.3541 3.02214C20.1317 3.15937 19.9521 3.35582 19.8352 3.58945L13.1941 16.875H5.625C4.87908 16.875 4.16371 17.1713 3.63626 17.6988C3.10882 18.2262 2.8125 18.9416 2.8125 19.6875V35.1562C2.8125 35.9022 3.10882 36.6175 3.63626 37.145C4.16371 37.6724 4.87908 37.9688 5.625 37.9688H35.8594C36.8872 37.9691 37.8798 37.5942 38.6507 36.9145C39.4217 36.2348 39.918 35.2971 40.0465 34.2773L42.1559 17.4023C42.2306 16.8082 42.1781 16.205 42.0017 15.6328C41.8253 15.0606 41.5291 14.5325 41.1328 14.0836ZM5.625 19.6875H12.6562V35.1562H5.625V19.6875ZM39.3645 17.0508L37.2551 33.9258C37.2123 34.2657 37.0468 34.5783 36.7898 34.8048C36.5328 35.0314 36.202 35.1564 35.8594 35.1562H15.4688V18.6135L21.9217 5.70586C22.8781 5.89728 23.7386 6.41418 24.3568 7.16861C24.9751 7.92304 25.3128 8.86837 25.3125 9.84375V14.0625C25.3125 14.4355 25.4607 14.7931 25.7244 15.0569C25.9881 15.3206 26.3458 15.4688 26.7188 15.4688H37.9688C38.1683 15.4687 38.3656 15.5111 38.5475 15.5931C38.7294 15.6752 38.8917 15.795 39.0238 15.9447C39.1558 16.0943 39.2544 16.2703 39.3132 16.4611C39.3719 16.6518 39.3894 16.8528 39.3645 17.0508Z" fill="#8B1A83"/>
</svg>
