<svg width="45" height="45" viewBox="0 0 45 45" fill="none" xmlns="http://www.w3.org/2000/svg">
<path opacity="0.2" d="M11.25 19.6875V25.3125C11.25 25.6855 11.1018 26.0431 10.8381 26.3069C10.5744 26.5706 10.2167 26.7188 9.84375 26.7188H4.21875C3.84579 26.7188 3.4881 26.5706 3.22438 26.3069C2.96066 26.0431 2.8125 25.6855 2.8125 25.3125V19.6875C2.8125 19.3145 2.96066 18.9569 3.22438 18.6931C3.4881 18.4294 3.84579 18.2812 4.21875 18.2812H9.84375C10.2167 18.2812 10.5744 18.4294 10.8381 18.6931C11.1018 18.9569 11.25 19.3145 11.25 19.6875ZM36.5625 7.03125H28.125C27.752 7.03125 27.3944 7.17941 27.1306 7.44313C26.8669 7.70685 26.7188 8.06454 26.7188 8.4375V16.875C26.7188 17.248 26.8669 17.6056 27.1306 17.8694C27.3944 18.1331 27.752 18.2812 28.125 18.2812H36.5625C36.9355 18.2812 37.2931 18.1331 37.5569 17.8694C37.8206 17.6056 37.9688 17.248 37.9688 16.875V8.4375C37.9688 8.06454 37.8206 7.70685 37.5569 7.44313C37.2931 7.17941 36.9355 7.03125 36.5625 7.03125ZM36.5625 26.7188H28.125C27.752 26.7188 27.3944 26.8669 27.1306 27.1306C26.8669 27.3944 26.7188 27.752 26.7188 28.125V36.5625C26.7188 36.9355 26.8669 37.2931 27.1306 37.5569C27.3944 37.8206 27.752 37.9688 28.125 37.9688H36.5625C36.9355 37.9688 37.2931 37.8206 37.5569 37.5569C37.8206 37.2931 37.9688 36.9355 37.9688 36.5625V28.125C37.9688 27.752 37.8206 27.3944 37.5569 27.1306C37.2931 26.8669 36.9355 26.7188 36.5625 26.7188Z" fill="#8B1A83"/>
<path d="M28.125 19.6875H36.5625C37.3084 19.6875 38.0238 19.3912 38.5512 18.8637C39.0787 18.3363 39.375 17.6209 39.375 16.875V8.4375C39.375 7.69158 39.0787 6.97621 38.5512 6.44876C38.0238 5.92132 37.3084 5.625 36.5625 5.625H28.125C27.3791 5.625 26.6637 5.92132 26.1363 6.44876C25.6088 6.97621 25.3125 7.69158 25.3125 8.4375V11.25H22.5C21.3811 11.25 20.3081 11.6945 19.5169 12.4856C18.7257 13.2768 18.2812 14.3499 18.2812 15.4688V21.0938H12.6562V19.6875C12.6562 18.9416 12.3599 18.2262 11.8325 17.6988C11.305 17.1713 10.5897 16.875 9.84375 16.875H4.21875C3.47283 16.875 2.75746 17.1713 2.23001 17.6988C1.70257 18.2262 1.40625 18.9416 1.40625 19.6875V25.3125C1.40625 26.0584 1.70257 26.7738 2.23001 27.3012C2.75746 27.8287 3.47283 28.125 4.21875 28.125H9.84375C10.5897 28.125 11.305 27.8287 11.8325 27.3012C12.3599 26.7738 12.6562 26.0584 12.6562 25.3125V23.9062H18.2812V29.5312C18.2812 30.6501 18.7257 31.7232 19.5169 32.5144C20.3081 33.3055 21.3811 33.75 22.5 33.75H25.3125V36.5625C25.3125 37.3084 25.6088 38.0238 26.1363 38.5512C26.6637 39.0787 27.3791 39.375 28.125 39.375H36.5625C37.3084 39.375 38.0238 39.0787 38.5512 38.5512C39.0787 38.0238 39.375 37.3084 39.375 36.5625V28.125C39.375 27.3791 39.0787 26.6637 38.5512 26.1363C38.0238 25.6088 37.3084 25.3125 36.5625 25.3125H28.125C27.3791 25.3125 26.6637 25.6088 26.1363 26.1363C25.6088 26.6637 25.3125 27.3791 25.3125 28.125V30.9375H22.5C22.127 30.9375 21.7694 30.7893 21.5056 30.5256C21.2419 30.2619 21.0938 29.9042 21.0938 29.5312V15.4688C21.0938 15.0958 21.2419 14.7381 21.5056 14.4744C21.7694 14.2107 22.127 14.0625 22.5 14.0625H25.3125V16.875C25.3125 17.6209 25.6088 18.3363 26.1363 18.8637C26.6637 19.3912 27.3791 19.6875 28.125 19.6875ZM9.84375 25.3125H4.21875V19.6875H9.84375V25.3125ZM28.125 28.125H36.5625V36.5625H28.125V28.125ZM28.125 8.4375H36.5625V16.875H28.125V8.4375Z" fill="#8B1A83"/>
</svg>
