<svg width="45" height="45" viewBox="0 0 45 45" fill="none" xmlns="http://www.w3.org/2000/svg">
<path opacity="0.2" d="M40.7812 9.84375V21.0938L29.5312 9.84375H40.7812Z" fill="#8B1A83"/>
<path d="M40.7813 8.4375H29.5313C29.253 8.43728 28.9809 8.51964 28.7495 8.67414C28.518 8.82865 28.3376 9.04836 28.2311 9.30545C28.1245 9.56255 28.0967 9.84547 28.151 10.1184C28.2054 10.3913 28.3395 10.642 28.5364 10.8387L33.1682 15.4688L23.9063 24.7307L17.87 18.6926C17.7394 18.5618 17.5843 18.4581 17.4136 18.3873C17.2428 18.3166 17.0599 18.2801 16.875 18.2801C16.6902 18.2801 16.5073 18.3166 16.3365 18.3873C16.1658 18.4581 16.0107 18.5618 15.8801 18.6926L3.22388 31.3488C2.96001 31.6127 2.81177 31.9706 2.81177 32.3437C2.81177 32.7169 2.96001 33.0748 3.22388 33.3387C3.48775 33.6025 3.84563 33.7508 4.2188 33.7508C4.59197 33.7508 4.94985 33.6025 5.21372 33.3387L16.875 21.6756L22.9114 27.7137C23.042 27.8444 23.1971 27.9481 23.3678 28.0189C23.5385 28.0897 23.7215 28.1261 23.9063 28.1261C24.0911 28.1261 24.2741 28.0897 24.4448 28.0189C24.6155 27.9481 24.7706 27.8444 24.9012 27.7137L35.1563 17.4568L39.7864 22.0887C39.9831 22.2856 40.2337 22.4197 40.5066 22.474C40.7796 22.5284 41.0625 22.5005 41.3196 22.394C41.5767 22.2875 41.7964 22.1071 41.9509 21.8756C42.1054 21.6441 42.1878 21.372 42.1875 21.0937V9.84375C42.1875 9.47079 42.0394 9.1131 41.7757 8.84938C41.5119 8.58566 41.1543 8.4375 40.7813 8.4375ZM39.375 17.6994L32.9256 11.25H39.375V17.6994Z" fill="#8B1A83"/>
</svg>
