<svg width="45" height="45" viewBox="0 0 45 45" fill="none" xmlns="http://www.w3.org/2000/svg">
<path opacity="0.2" d="M33.75 16.875C33.75 19.1 33.0902 21.2751 31.854 23.1252C30.6179 24.9752 28.8609 26.4172 26.8052 27.2686C24.7495 28.1201 22.4875 28.3429 20.3052 27.9088C18.123 27.4748 16.1184 26.4033 14.5451 24.83C12.9717 23.2566 11.9003 21.2521 11.4662 19.0698C11.0321 16.8875 11.2549 14.6255 12.1064 12.5698C12.9578 10.5141 14.3998 8.75713 16.2498 7.52097C18.0999 6.2848 20.275 5.625 22.5 5.625C25.4837 5.625 28.3452 6.81026 30.455 8.92005C32.5647 11.0298 33.75 13.8913 33.75 16.875Z" fill="#8B1A83"/>
<path d="M40.5913 37.2656C37.9142 32.6373 33.7886 29.3186 28.974 27.7453C31.3555 26.3276 33.2058 24.1673 34.2407 21.5961C35.2757 19.025 35.438 16.1853 34.7028 13.513C33.9676 10.8406 32.3755 8.48356 30.171 6.80368C27.9665 5.12379 25.2715 4.21399 22.4999 4.21399C19.7283 4.21399 17.0334 5.12379 14.8289 6.80368C12.6244 8.48356 11.0323 10.8406 10.2971 13.513C9.56189 16.1853 9.72421 19.025 10.7591 21.5961C11.7941 24.1673 13.6444 26.3276 16.0259 27.7453C11.2113 29.3168 7.08568 32.6356 4.40854 37.2656C4.31036 37.4257 4.24524 37.6039 4.21702 37.7895C4.1888 37.9752 4.19805 38.1646 4.24422 38.3466C4.2904 38.5286 4.37256 38.6996 4.48587 38.8493C4.59917 38.9991 4.74132 39.1246 4.90393 39.2185C5.06654 39.3125 5.24632 39.3729 5.43265 39.3962C5.61898 39.4195 5.8081 39.4053 5.98885 39.3543C6.16959 39.3034 6.3383 39.2167 6.48502 39.0995C6.63174 38.9823 6.75349 38.8369 6.84311 38.6719C10.1548 32.9485 16.0083 29.5313 22.4999 29.5313C28.9915 29.5313 34.8451 32.9485 38.1568 38.6719C38.2464 38.8369 38.3681 38.9823 38.5149 39.0995C38.6616 39.2167 38.8303 39.3034 39.011 39.3543C39.1918 39.4053 39.3809 39.4195 39.5672 39.3962C39.7536 39.3729 39.9333 39.3125 40.096 39.2185C40.2586 39.1246 40.4007 38.9991 40.514 38.8493C40.6273 38.6996 40.7095 38.5286 40.7557 38.3466C40.8018 38.1646 40.8111 37.9752 40.7829 37.7895C40.7546 37.6039 40.6895 37.4257 40.5913 37.2656ZM12.6562 16.875C12.6562 14.9281 13.2335 13.0249 14.3152 11.4061C15.3968 9.78733 16.9342 8.52563 18.7329 7.78058C20.5316 7.03553 22.5109 6.84059 24.4204 7.22042C26.3299 7.60024 28.0838 8.53777 29.4605 9.91444C30.8372 11.2911 31.7747 13.0451 32.1545 14.9546C32.5344 16.8641 32.3394 18.8434 31.5944 20.6421C30.8493 22.4408 29.5876 23.9782 27.9688 25.0598C26.35 26.1414 24.4469 26.7188 22.4999 26.7188C19.8901 26.716 17.3879 25.678 15.5424 23.8325C13.697 21.9871 12.659 19.4849 12.6562 16.875Z" fill="#8B1A83"/>
</svg>
