<svg width="45" height="45" viewBox="0 0 45 45" fill="none" xmlns="http://www.w3.org/2000/svg">
<path opacity="0.2" d="M35.1562 4.21875V40.7812H26.7188V32.3438H18.2812V40.7812H9.84375V4.21875H35.1562Z" fill="white"/>
<path d="M40.7812 39.375H36.5625V5.625H37.9688C38.3417 5.625 38.6994 5.47684 38.9631 5.21312C39.2268 4.9494 39.375 4.59171 39.375 4.21875C39.375 3.84579 39.2268 3.4881 38.9631 3.22438C38.6994 2.96066 38.3417 2.8125 37.9688 2.8125H7.03125C6.65829 2.8125 6.3006 2.96066 6.03688 3.22438C5.77316 3.4881 5.625 3.84579 5.625 4.21875C5.625 4.59171 5.77316 4.9494 6.03688 5.21312C6.3006 5.47684 6.65829 5.625 7.03125 5.625H8.4375V39.375H4.21875C3.84579 39.375 3.4881 39.5232 3.22438 39.7869C2.96066 40.0506 2.8125 40.4083 2.8125 40.7812C2.8125 41.1542 2.96066 41.5119 3.22438 41.7756C3.4881 42.0393 3.84579 42.1875 4.21875 42.1875H40.7812C41.1542 42.1875 41.5119 42.0393 41.7756 41.7756C42.0393 41.5119 42.1875 41.1542 42.1875 40.7812C42.1875 40.4083 42.0393 40.0506 41.7756 39.7869C41.5119 39.5232 41.1542 39.375 40.7812 39.375ZM11.25 5.625H33.75V39.375H28.125V32.3438C28.125 31.9708 27.9768 31.6131 27.7131 31.3494C27.4494 31.0857 27.0917 30.9375 26.7188 30.9375H18.2812C17.9083 30.9375 17.5506 31.0857 17.2869 31.3494C17.0232 31.6131 16.875 31.9708 16.875 32.3438V39.375H11.25V5.625ZM25.3125 39.375H19.6875V33.75H25.3125V39.375ZM15.4688 11.25C15.4688 10.877 15.6169 10.5194 15.8806 10.2556C16.1444 9.99191 16.502 9.84375 16.875 9.84375H19.6875C20.0605 9.84375 20.4181 9.99191 20.6819 10.2556C20.9456 10.5194 21.0938 10.877 21.0938 11.25C21.0938 11.623 20.9456 11.9806 20.6819 12.2444C20.4181 12.5081 20.0605 12.6562 19.6875 12.6562H16.875C16.502 12.6562 16.1444 12.5081 15.8806 12.2444C15.6169 11.9806 15.4688 11.623 15.4688 11.25ZM23.9062 11.25C23.9062 10.877 24.0544 10.5194 24.3181 10.2556C24.5819 9.99191 24.9395 9.84375 25.3125 9.84375H28.125C28.498 9.84375 28.8556 9.99191 29.1194 10.2556C29.3831 10.5194 29.5312 10.877 29.5312 11.25C29.5312 11.623 29.3831 11.9806 29.1194 12.2444C28.8556 12.5081 28.498 12.6562 28.125 12.6562H25.3125C24.9395 12.6562 24.5819 12.5081 24.3181 12.2444C24.0544 11.9806 23.9062 11.623 23.9062 11.25ZM15.4688 18.2812C15.4688 17.9083 15.6169 17.5506 15.8806 17.2869C16.1444 17.0232 16.502 16.875 16.875 16.875H19.6875C20.0605 16.875 20.4181 17.0232 20.6819 17.2869C20.9456 17.5506 21.0938 17.9083 21.0938 18.2812C21.0938 18.6542 20.9456 19.0119 20.6819 19.2756C20.4181 19.5393 20.0605 19.6875 19.6875 19.6875H16.875C16.502 19.6875 16.1444 19.5393 15.8806 19.2756C15.6169 19.0119 15.4688 18.6542 15.4688 18.2812ZM23.9062 18.2812C23.9062 17.9083 24.0544 17.5506 24.3181 17.2869C24.5819 17.0232 24.9395 16.875 25.3125 16.875H28.125C28.498 16.875 28.8556 17.0232 29.1194 17.2869C29.3831 17.5506 29.5312 17.9083 29.5312 18.2812C29.5312 18.6542 29.3831 19.0119 29.1194 19.2756C28.8556 19.5393 28.498 19.6875 28.125 19.6875H25.3125C24.9395 19.6875 24.5819 19.5393 24.3181 19.2756C24.0544 19.0119 23.9062 18.6542 23.9062 18.2812ZM15.4688 25.3125C15.4688 24.9395 15.6169 24.5819 15.8806 24.3181C16.1444 24.0544 16.502 23.9062 16.875 23.9062H19.6875C20.0605 23.9062 20.4181 24.0544 20.6819 24.3181C20.9456 24.5819 21.0938 24.9395 21.0938 25.3125C21.0938 25.6855 20.9456 26.0431 20.6819 26.3069C20.4181 26.5706 20.0605 26.7188 19.6875 26.7188H16.875C16.502 26.7188 16.1444 26.5706 15.8806 26.3069C15.6169 26.0431 15.4688 25.6855 15.4688 25.3125ZM23.9062 25.3125C23.9062 24.9395 24.0544 24.5819 24.3181 24.3181C24.5819 24.0544 24.9395 23.9062 25.3125 23.9062H28.125C28.498 23.9062 28.8556 24.0544 29.1194 24.3181C29.3831 24.5819 29.5312 24.9395 29.5312 25.3125C29.5312 25.6855 29.3831 26.0431 29.1194 26.3069C28.8556 26.5706 28.498 26.7188 28.125 26.7188H25.3125C24.9395 26.7188 24.5819 26.5706 24.3181 26.3069C24.0544 26.0431 23.9062 25.6855 23.9062 25.3125Z" fill="white"/>
</svg>
