<svg width="45" height="45" viewBox="0 0 45 45" fill="none" xmlns="http://www.w3.org/2000/svg">
<path opacity="0.2" d="M37.9688 8.4375V15.4688H7.03125V8.4375C7.03125 8.06454 7.17941 7.70685 7.44313 7.44313C7.70685 7.17941 8.06454 7.03125 8.4375 7.03125H36.5625C36.9355 7.03125 37.2931 7.17941 37.5569 7.44313C37.8206 7.70685 37.9688 8.06454 37.9688 8.4375Z" fill="white"/>
<path d="M36.5625 5.625H32.3438V4.21875C32.3438 3.84579 32.1956 3.4881 31.9319 3.22438C31.6681 2.96066 31.3105 2.8125 30.9375 2.8125C30.5645 2.8125 30.2069 2.96066 29.9431 3.22438C29.6794 3.4881 29.5312 3.84579 29.5312 4.21875V5.625H15.4688V4.21875C15.4688 3.84579 15.3206 3.4881 15.0569 3.22438C14.7931 2.96066 14.4355 2.8125 14.0625 2.8125C13.6895 2.8125 13.3319 2.96066 13.0681 3.22438C12.8044 3.4881 12.6562 3.84579 12.6562 4.21875V5.625H8.4375C7.69158 5.625 6.97621 5.92132 6.44876 6.44876C5.92132 6.97621 5.625 7.69158 5.625 8.4375V36.5625C5.625 37.3084 5.92132 38.0238 6.44876 38.5512C6.97621 39.0787 7.69158 39.375 8.4375 39.375H36.5625C37.3084 39.375 38.0238 39.0787 38.5512 38.5512C39.0787 38.0238 39.375 37.3084 39.375 36.5625V8.4375C39.375 7.69158 39.0787 6.97621 38.5512 6.44876C38.0238 5.92132 37.3084 5.625 36.5625 5.625ZM12.6562 8.4375V9.84375C12.6562 10.2167 12.8044 10.5744 13.0681 10.8381C13.3319 11.1018 13.6895 11.25 14.0625 11.25C14.4355 11.25 14.7931 11.1018 15.0569 10.8381C15.3206 10.5744 15.4688 10.2167 15.4688 9.84375V8.4375H29.5312V9.84375C29.5312 10.2167 29.6794 10.5744 29.9431 10.8381C30.2069 11.1018 30.5645 11.25 30.9375 11.25C31.3105 11.25 31.6681 11.1018 31.9319 10.8381C32.1956 10.5744 32.3438 10.2167 32.3438 9.84375V8.4375H36.5625V14.0625H8.4375V8.4375H12.6562ZM36.5625 36.5625H8.4375V16.875H36.5625V36.5625ZM19.6875 21.0938V32.3438C19.6875 32.7167 19.5393 33.0744 19.2756 33.3381C19.0119 33.6018 18.6542 33.75 18.2812 33.75C17.9083 33.75 17.5506 33.6018 17.2869 33.3381C17.0232 33.0744 16.875 32.7167 16.875 32.3438V23.3684L16.098 23.7586C15.7642 23.9255 15.3778 23.953 15.0238 23.8349C14.6697 23.7169 14.3771 23.4631 14.2102 23.1293C14.0433 22.7955 14.0158 22.4091 14.1338 22.055C14.2518 21.701 14.5057 21.4083 14.8395 21.2414L17.652 19.8352C17.8664 19.7278 18.1048 19.6771 18.3444 19.6879C18.584 19.6987 18.8168 19.7705 19.0208 19.8967C19.2248 20.0228 19.3931 20.199 19.5098 20.4085C19.6265 20.618 19.6877 20.8539 19.6875 21.0938ZM30.0867 26.4463L26.7188 30.9375H29.5312C29.9042 30.9375 30.2619 31.0857 30.5256 31.3494C30.7893 31.6131 30.9375 31.9708 30.9375 32.3438C30.9375 32.7167 30.7893 33.0744 30.5256 33.3381C30.2619 33.6018 29.9042 33.75 29.5312 33.75H23.9062C23.6451 33.75 23.3891 33.6773 23.1669 33.54C22.9448 33.4027 22.7653 33.2062 22.6485 32.9726C22.5317 32.7391 22.4822 32.4776 22.5057 32.2175C22.5291 31.9574 22.6246 31.7089 22.7813 31.5L27.8402 24.7553C27.9553 24.6021 28.0379 24.427 28.0828 24.2407C28.1278 24.0545 28.1342 23.861 28.1017 23.6722C28.0693 23.4834 27.9985 23.3032 27.8939 23.1427C27.7893 22.9822 27.6529 22.8448 27.4933 22.7389C27.3336 22.6329 27.154 22.5608 26.9654 22.5268C26.7769 22.4928 26.5834 22.4976 26.3968 22.5411C26.2102 22.5846 26.0344 22.6657 25.8803 22.7796C25.7262 22.8934 25.597 23.0375 25.5006 23.2031C25.411 23.3682 25.2892 23.5136 25.1425 23.6308C24.9958 23.748 24.8271 23.8346 24.6463 23.8856C24.4656 23.9365 24.2765 23.9507 24.0901 23.9274C23.9038 23.9041 23.724 23.8437 23.5614 23.7498C23.3988 23.6558 23.2566 23.5303 23.1433 23.3805C23.03 23.2308 22.9479 23.0599 22.9017 22.8778C22.8555 22.6958 22.8463 22.5064 22.8745 22.3207C22.9027 22.1351 22.9678 21.957 23.066 21.7969C23.5305 20.993 24.2473 20.3648 25.1051 20.0097C25.9629 19.6546 26.914 19.5924 27.8107 19.8327C28.7075 20.073 29.5 20.6024 30.0653 21.3389C30.6306 22.0754 30.9372 22.9778 30.9375 23.9062C30.9405 24.8234 30.6415 25.716 30.0867 26.4463Z" fill="white"/>
</svg>
