<svg width="45" height="45" viewBox="0 0 45 45" fill="none" xmlns="http://www.w3.org/2000/svg">
<path opacity="0.2" d="M39.375 11.25V36.5625H5.625V8.4375H36.5625C37.3084 8.4375 38.0238 8.73382 38.5512 9.26126C39.0787 9.78871 39.375 10.5041 39.375 11.25Z" fill="white"/>
<path d="M40.7812 36.5625C40.7812 36.9355 40.6331 37.2931 40.3694 37.5569C40.1056 37.8206 39.748 37.9688 39.375 37.9688H5.625C5.25204 37.9688 4.89435 37.8206 4.63063 37.5569C4.36691 37.2931 4.21875 36.9355 4.21875 36.5625V8.4375C4.21875 8.06454 4.36691 7.70685 4.63063 7.44313C4.89435 7.17941 5.25204 7.03125 5.625 7.03125C5.99796 7.03125 6.35565 7.17941 6.61937 7.44313C6.88309 7.70685 7.03125 8.06454 7.03125 8.4375V35.1562H39.375C39.748 35.1562 40.1056 35.3044 40.3694 35.5681C40.6331 35.8319 40.7812 36.1895 40.7812 36.5625ZM23.2031 28.125C23.6203 28.125 24.0281 28.0013 24.375 27.7695C24.7219 27.5377 24.9923 27.2083 25.1519 26.8228C25.3116 26.4374 25.3534 26.0133 25.272 25.6041C25.1906 25.1949 24.9897 24.8191 24.6947 24.5241C24.3997 24.2291 24.0238 24.0282 23.6146 23.9468C23.2055 23.8654 22.7813 23.9072 22.3959 24.0668C22.0105 24.2265 21.681 24.4968 21.4492 24.8437C21.2175 25.1906 21.0938 25.5984 21.0938 26.0156C21.0938 26.5751 21.316 27.1116 21.7116 27.5072C22.1072 27.9028 22.6437 28.125 23.2031 28.125ZM18.9844 18.2812C19.4016 18.2812 19.8094 18.1575 20.1563 17.9258C20.5032 17.694 20.7735 17.3645 20.9332 16.9791C21.0928 16.5937 21.1346 16.1695 21.0532 15.7604C20.9718 15.3512 20.7709 14.9753 20.4759 14.6803C20.1809 14.3853 19.8051 14.1844 19.3959 14.103C18.9867 14.0216 18.5626 14.0634 18.1772 14.2231C17.7917 14.3827 17.4623 14.6531 17.2305 15C16.9987 15.3469 16.875 15.7547 16.875 16.1719C16.875 16.7313 17.0972 17.2678 17.4928 17.6634C17.8884 18.059 18.4249 18.2812 18.9844 18.2812ZM13.3594 30.9375C13.7766 30.9375 14.1844 30.8138 14.5313 30.582C14.8782 30.3502 15.1485 30.0208 15.3082 29.6353C15.4678 29.2499 15.5096 28.8258 15.4282 28.4166C15.3468 28.0074 15.1459 27.6316 14.8509 27.3366C14.5559 27.0416 14.1801 26.8407 13.7709 26.7593C13.3617 26.6779 12.9376 26.7197 12.5522 26.8793C12.1667 27.039 11.8373 27.3093 11.6055 27.6562C11.3737 28.0031 11.25 28.4109 11.25 28.8281C11.25 29.3876 11.4722 29.9241 11.8678 30.3197C12.2634 30.7153 12.7999 30.9375 13.3594 30.9375ZM30.2344 22.5C30.6516 22.5 31.0594 22.3763 31.4063 22.1445C31.7532 21.9127 32.0235 21.5833 32.1832 21.1978C32.3428 20.8124 32.3846 20.3883 32.3032 19.9791C32.2218 19.5699 32.0209 19.1941 31.7259 18.8991C31.4309 18.6041 31.0551 18.4032 30.6459 18.3218C30.2367 18.2404 29.8126 18.2822 29.4272 18.4418C29.0417 18.6015 28.7123 18.8718 28.4805 19.2187C28.2487 19.5656 28.125 19.9734 28.125 20.3906C28.125 20.9501 28.3472 21.4866 28.7428 21.8822C29.1384 22.2778 29.6749 22.5 30.2344 22.5ZM34.4531 15.4688C34.8703 15.4688 35.2781 15.345 35.625 15.1133C35.9719 14.8815 36.2423 14.552 36.4019 14.1666C36.5616 13.7812 36.6034 13.357 36.522 12.9479C36.4406 12.5387 36.2397 12.1628 35.9447 11.8678C35.6497 11.5728 35.2738 11.3719 34.8646 11.2905C34.4555 11.2091 34.0313 11.2509 33.6459 11.4106C33.2605 11.5702 32.931 11.8406 32.6992 12.1875C32.4675 12.5344 32.3438 12.9422 32.3438 13.3594C32.3438 13.9188 32.566 14.4553 32.9616 14.8509C33.3572 15.2465 33.8937 15.4687 34.4531 15.4688ZM30.9375 28.8281C30.9375 29.2453 31.0612 29.6531 31.293 30C31.5248 30.3469 31.8542 30.6173 32.2397 30.7769C32.6251 30.9366 33.0492 30.9784 33.4584 30.897C33.8676 30.8156 34.2434 30.6147 34.5384 30.3197C34.8334 30.0247 35.0343 29.6488 35.1157 29.2396C35.1971 28.8305 35.1553 28.4063 34.9957 28.0209C34.836 27.6355 34.5657 27.306 34.2188 27.0742C33.8719 26.8425 33.4641 26.7188 33.0469 26.7188C32.4874 26.7188 31.9509 26.941 31.5553 27.3366C31.1597 27.7322 30.9375 28.2687 30.9375 28.8281Z" fill="white"/>
</svg>
