<svg width="45" height="45" viewBox="0 0 45 45" fill="none" xmlns="http://www.w3.org/2000/svg">
<path opacity="0.2" d="M39.375 11.25V36.5625H5.625V8.4375H36.5625C37.3084 8.4375 38.0238 8.73382 38.5512 9.26126C39.0787 9.78871 39.375 10.5041 39.375 11.25Z" fill="white"/>
<path d="M40.7813 36.5625C40.7813 36.9355 40.6331 37.2931 40.3694 37.5569C40.1057 37.8206 39.748 37.9688 39.375 37.9688H5.625C5.25204 37.9688 4.89435 37.8206 4.63063 37.5569C4.36691 37.2931 4.21875 36.9355 4.21875 36.5625V8.4375C4.21875 8.06454 4.36691 7.70685 4.63063 7.44313C4.89435 7.17941 5.25204 7.03125 5.625 7.03125C5.99796 7.03125 6.35565 7.17941 6.61937 7.44313C6.88309 7.70685 7.03125 8.06454 7.03125 8.4375V25.026L15.9486 17.2266C16.1913 17.0141 16.4996 16.8916 16.8219 16.8794C17.1441 16.8673 17.4608 16.9662 17.7188 17.1598L28.0564 24.9135L38.4486 15.8203C38.5849 15.6854 38.7473 15.5798 38.9259 15.51C39.1044 15.4402 39.2954 15.4076 39.487 15.4143C39.6786 15.421 39.8668 15.4668 40.0401 15.5489C40.2133 15.631 40.368 15.7477 40.4945 15.8917C40.621 16.0358 40.7168 16.2042 40.7758 16.3866C40.8349 16.569 40.856 16.7615 40.8379 16.9524C40.8198 17.1433 40.7629 17.3284 40.6706 17.4965C40.5784 17.6645 40.4527 17.812 40.3014 17.9297L29.0514 27.7734C28.8087 27.9859 28.5004 28.1084 28.1782 28.1206C27.8559 28.1327 27.5392 28.0338 27.2813 27.8402L16.9436 20.09L7.03125 28.7631V35.1562H39.375C39.748 35.1562 40.1057 35.3044 40.3694 35.5681C40.6331 35.8319 40.7813 36.1895 40.7813 36.5625Z" fill="white"/>
</svg>
