<svg width="45" height="45" viewBox="0 0 45 45" fill="none" xmlns="http://www.w3.org/2000/svg">
<path opacity="0.2" d="M22.5 5.625V22.5L7.88558 30.9375C6.40448 28.3722 5.62474 25.4621 5.62476 22.4999C5.62477 19.5377 6.40452 16.6277 7.88565 14.0624C9.36677 11.497 11.4971 9.36679 14.0624 7.88572C16.6278 6.40465 19.5378 5.62495 22.5 5.625Z" fill="white"/>
<path d="M22.5 4.21875C18.8843 4.21875 15.3498 5.29093 12.3435 7.2997C9.33715 9.30847 6.994 12.1636 5.61034 15.5041C4.22667 18.8445 3.86464 22.5203 4.57003 26.0665C5.27541 29.6127 7.01653 32.8701 9.57321 35.4268C12.1299 37.9835 15.3873 39.7246 18.9335 40.43C22.4797 41.1354 26.1555 40.7733 29.4959 39.3897C32.8364 38.006 35.6915 35.6629 37.7003 32.6565C39.7091 29.6502 40.7813 26.1157 40.7813 22.5C40.7761 17.6531 38.8484 13.0061 35.4212 9.57886C31.9939 6.15157 27.3469 4.22387 22.5 4.21875ZM35.1334 13.5826L23.9063 20.0637V7.09629C26.1355 7.30067 28.2939 7.98647 30.2322 9.10634C32.1706 10.2262 33.8428 11.7535 35.1334 13.5826ZM21.0938 7.09629V21.6861L8.45684 28.9811C7.41945 26.7325 6.93704 24.2678 7.05015 21.7941C7.16327 19.3204 7.86861 16.91 9.10689 14.7656C10.3452 12.6211 12.0802 10.8053 14.1661 9.4707C16.252 8.13614 18.6278 7.32185 21.0938 7.09629ZM22.5 37.9688C20.0236 37.9677 17.5836 37.3722 15.3852 36.2321C13.1868 35.0921 11.2942 33.4409 9.86661 31.4174L36.5432 16.0172C37.631 18.374 38.1083 20.9666 37.9311 23.5563C37.7538 26.146 36.9277 28.6494 35.5289 30.836C34.13 33.0226 32.2034 34.822 29.9266 36.0685C27.6497 37.315 25.0958 37.9685 22.5 37.9688Z" fill="white"/>
</svg>
