<svg width="45" height="45" viewBox="0 0 45 45" fill="none" xmlns="http://www.w3.org/2000/svg">
<path opacity="0.2" d="M40.7217 37.5697C40.7928 37.812 40.7974 38.069 40.735 38.3137C40.6725 38.5584 40.5453 38.7818 40.3668 38.9604C40.1882 39.1389 39.9649 39.2661 39.7202 39.3286C39.4755 39.391 39.2185 39.3864 38.9762 39.3153L34.1018 37.8809C32.4916 38.742 30.7142 39.2448 28.8916 39.3547C27.0689 39.4646 25.244 39.1792 23.542 38.5178C21.84 37.8565 20.3011 36.8349 19.0308 35.5232C17.7606 34.2115 16.789 32.6406 16.1826 30.9182C16.4129 30.9305 16.6432 30.9375 16.8752 30.9375C18.8981 30.9377 20.8916 30.4529 22.6886 29.5239C24.4856 28.5948 26.0337 27.2485 27.2032 25.5979C28.3727 23.9472 29.1294 22.0403 29.41 20.0369C29.6907 18.0335 29.487 15.9921 28.816 14.0836C30.942 14.1991 33.0046 14.849 34.8127 15.9733C36.6208 17.0975 38.1161 18.6598 39.1601 20.5154C40.2041 22.371 40.7631 24.46 40.7853 26.5891C40.8076 28.7181 40.2923 30.8183 39.2873 32.6953L40.7217 37.5697Z" fill="white"/>
<path d="M40.7937 32.8289C41.7654 30.8136 42.2421 28.5955 42.1844 26.3588C42.1267 24.1222 41.5361 21.9316 40.4617 19.9691C39.3874 18.0065 37.8603 16.3286 36.0072 15.0748C34.1542 13.821 32.0287 13.0274 29.8074 12.76C29.0682 11.0415 27.9937 9.48774 26.6466 8.18972C25.2995 6.8917 23.7069 5.8755 21.9622 5.20063C20.2174 4.52576 18.3556 4.20579 16.4857 4.25945C14.6157 4.31311 12.7753 4.73933 11.0721 5.51314C9.36897 6.28695 7.83732 7.39281 6.56687 8.76595C5.29643 10.1391 4.31272 11.7519 3.67336 13.51C3.034 15.268 2.75184 17.136 2.8434 19.0044C2.93496 20.8729 3.3984 22.7043 4.20658 24.3914L2.92865 28.735C2.78577 29.2199 2.77621 29.7343 2.901 30.2242C3.02578 30.7141 3.28028 31.1612 3.63773 31.5187C3.99518 31.8761 4.44236 32.1306 4.93222 32.2554C5.42209 32.3802 5.93653 32.3707 6.42143 32.2278L10.765 30.9498C12.1597 31.6199 13.655 32.0564 15.1912 32.2418C15.9375 33.9905 17.0307 35.5697 18.4046 36.8839C19.7786 38.1981 21.4047 39.2201 23.1849 39.888C24.965 40.5559 26.862 40.8559 28.7614 40.7698C30.6607 40.6838 32.5229 40.2135 34.2353 39.3873L38.5788 40.6653C39.0636 40.808 39.5778 40.8175 40.0674 40.6928C40.5571 40.5681 41.0041 40.3137 41.3615 39.9565C41.7189 39.5993 41.9734 39.1524 42.0984 38.6628C42.2233 38.1733 42.2141 37.659 42.0716 37.1743L40.7937 32.8289ZM10.8986 28.0371C10.7642 28.0375 10.6305 28.0564 10.5013 28.0934L5.62514 29.5313L7.06127 24.6516C7.16341 24.2991 7.12367 23.9205 6.95053 23.5969C5.67842 21.2179 5.30359 18.4609 5.89437 15.8285C6.48516 13.1962 8.00221 10.8638 10.169 9.25658C12.3358 7.64933 15.008 6.87423 17.6985 7.07259C20.389 7.27095 22.9186 8.42955 24.8263 10.3372C26.7339 12.2448 27.8925 14.7745 28.0909 17.465C28.2892 20.1555 27.5141 22.8277 25.9069 24.9945C24.2996 27.1612 21.9672 28.6783 19.3349 29.2691C16.7026 29.8599 13.9456 29.485 11.5665 28.2129C11.362 28.0997 11.1324 28.0393 10.8986 28.0371ZM37.932 33.0873L39.3751 37.9688L34.4955 36.5327C34.1429 36.4305 33.7644 36.4703 33.4408 36.6434C30.8512 38.0261 27.824 38.3428 25.0043 37.5258C22.1847 36.7088 19.7957 34.8229 18.3464 32.27C20.2719 32.069 22.1351 31.4723 23.819 30.5173C25.503 29.5623 26.9714 28.2695 28.1322 26.7202C29.293 25.1709 30.1211 23.3984 30.5646 21.514C31.008 19.6295 31.0572 17.6737 30.7091 15.7694C32.3868 16.1648 33.9511 16.9405 35.2814 18.0364C36.6117 19.1324 37.6724 20.5194 38.3816 22.0903C39.0908 23.6613 39.4296 25.3742 39.3717 27.0968C39.3139 28.8195 38.861 30.5058 38.048 32.0256C37.873 32.3512 37.8332 32.7326 37.9372 33.0873H37.932Z" fill="white"/>
</svg>
