<svg width="45" height="45" viewBox="0 0 45 45" fill="none" xmlns="http://www.w3.org/2000/svg">
<path opacity="0.2" d="M42.1876 22.5C42.1876 26.2296 40.706 29.8064 38.0688 32.4437C35.4315 35.0809 31.8547 36.5625 28.1251 36.5625H12.6563C11.2605 36.5608 9.88109 36.2622 8.6095 35.6867C7.3379 35.1112 6.20324 34.2718 5.2808 33.2243C4.35836 32.1768 3.66924 30.9451 3.25915 29.6109C2.84907 28.2767 2.7274 26.8706 2.90223 25.4858C3.07705 24.101 3.54437 22.7692 4.27317 21.5788C5.00198 20.3884 5.9756 19.3667 7.12944 18.5813C8.28328 17.7959 9.59095 17.2648 10.9657 17.0234C12.3404 16.7819 13.7508 16.8356 15.1032 17.1808V17.1984C16.3337 14.1801 18.5746 11.683 21.4426 10.134C24.3106 8.58512 27.6276 8.0806 30.8264 8.70675C34.0253 9.33289 36.9072 11.0508 38.9796 13.5668C41.0519 16.0827 42.1859 19.2405 42.1876 22.5Z" fill="white"/>
<path d="M31.3487 29.1199L28.1249 25.8943V36.5625C28.1249 36.9355 27.9767 37.2931 27.713 37.5569C27.4493 37.8206 27.0916 37.9688 26.7187 37.9688C26.3457 37.9688 25.988 37.8206 25.7243 37.5569C25.4606 37.2931 25.3124 36.9355 25.3124 36.5625V25.8943L22.0886 29.1199C21.9579 29.2506 21.8028 29.3542 21.6321 29.4249C21.4614 29.4956 21.2784 29.532 21.0936 29.532C20.9089 29.532 20.7259 29.4956 20.5552 29.4249C20.3845 29.3542 20.2294 29.2506 20.0987 29.1199C19.9681 28.9893 19.8644 28.8342 19.7937 28.6634C19.723 28.4927 19.6866 28.3098 19.6866 28.125C19.6866 27.9402 19.723 27.7573 19.7937 27.5866C19.8644 27.4158 19.9681 27.2607 20.0987 27.1301L25.7237 21.5051C25.8543 21.3743 26.0094 21.2706 26.1801 21.1998C26.3509 21.1291 26.5338 21.0926 26.7187 21.0926C26.9035 21.0926 27.0864 21.1291 27.2572 21.1998C27.4279 21.2706 27.583 21.3743 27.7136 21.5051L33.3386 27.1301C33.4692 27.2607 33.5729 27.4158 33.6436 27.5866C33.7143 27.7573 33.7507 27.9402 33.7507 28.125C33.7507 28.3098 33.7143 28.4927 33.6436 28.6634C33.5729 28.8342 33.4692 28.9893 33.3386 29.1199C33.2079 29.2506 33.0528 29.3542 32.8821 29.4249C32.7114 29.4956 32.5284 29.532 32.3437 29.532C32.1589 29.532 31.9759 29.4956 31.8052 29.4249C31.6345 29.3542 31.4794 29.2506 31.3487 29.1199ZM28.1249 7.03125C25.2519 7.03342 22.4361 7.83495 19.9926 9.34618C17.5491 10.8574 15.5743 13.0187 14.2892 15.5883C12.759 15.3634 11.199 15.4565 9.70641 15.8616C8.21385 16.2668 6.82086 16.9753 5.61444 17.943C4.40802 18.9107 3.41408 20.1168 2.6947 21.4858C1.97531 22.8549 1.54594 24.3576 1.43339 25.9001C1.32085 27.4425 1.52754 28.9916 2.04057 30.4506C2.55361 31.9096 3.36195 33.2472 4.41513 34.3797C5.4683 35.5123 6.74368 36.4155 8.16162 37.0331C9.57955 37.6506 11.1096 37.9691 12.6561 37.9688H19.6874C20.0604 37.9688 20.418 37.8206 20.6818 37.5569C20.9455 37.2931 21.0936 36.9355 21.0936 36.5625C21.0936 36.1895 20.9455 35.8319 20.6818 35.5681C20.418 35.3044 20.0604 35.1562 19.6874 35.1562H12.6561C10.4184 35.1562 8.27227 34.2673 6.68994 32.685C5.1076 31.1026 4.21865 28.9565 4.21865 26.7188C4.21865 24.481 5.1076 22.3349 6.68994 20.7525C8.27227 19.1702 10.4184 18.2813 12.6561 18.2812C12.8495 18.2812 13.0429 18.2813 13.2345 18.3023C12.8501 19.6684 12.6555 21.0809 12.6561 22.5C12.6561 22.873 12.8043 23.2306 13.068 23.4944C13.3318 23.7581 13.6894 23.9062 14.0624 23.9062C14.4354 23.9062 14.793 23.7581 15.0568 23.4944C15.3205 23.2306 15.4686 22.873 15.4686 22.5C15.469 20.2183 16.0862 17.9791 17.2549 16.0194C18.4235 14.0597 20.1003 12.4524 22.1076 11.3676C24.1149 10.2828 26.3782 9.76081 28.6579 9.8569C30.9376 9.95299 33.1489 10.6636 35.0578 11.9135C36.9667 13.1634 38.5023 14.9061 39.5019 16.9571C40.5015 19.0082 40.9281 21.2914 40.7364 23.565C40.5448 25.8387 39.742 28.0182 38.4131 29.873C37.0842 31.7278 35.2786 33.1889 33.1874 34.1016C32.8905 34.2303 32.647 34.4575 32.4981 34.7449C32.3492 35.0322 32.304 35.3621 32.3701 35.679C32.4362 35.9958 32.6095 36.2801 32.8609 36.484C33.1123 36.6879 33.4263 36.7988 33.7499 36.798C33.9437 36.7979 34.1353 36.7572 34.3124 36.6785C37.5702 35.2574 40.2393 32.7578 41.8707 29.6C43.502 26.4423 43.9962 22.819 43.2701 19.3397C42.5439 15.8604 40.6418 12.7373 37.8835 10.4957C35.1252 8.25402 31.6792 7.03063 28.1249 7.03125Z" fill="white"/>
</svg>
