<svg width="45" height="45" viewBox="0 0 45 45" fill="none" xmlns="http://www.w3.org/2000/svg">
<path opacity="0.2" d="M42.1876 22.5C42.1876 26.2296 40.706 29.8064 38.0688 32.4437C35.4315 35.0809 31.8547 36.5625 28.1251 36.5625H12.6563C11.2605 36.5608 9.88109 36.2622 8.6095 35.6867C7.3379 35.1112 6.20324 34.2718 5.2808 33.2243C4.35836 32.1768 3.66924 30.9451 3.25915 29.6109C2.84907 28.2767 2.7274 26.8706 2.90223 25.4858C3.07705 24.101 3.54437 22.7692 4.27317 21.5788C5.00198 20.3884 5.9756 19.3667 7.12944 18.5813C8.28328 17.7959 9.59095 17.2648 10.9657 17.0234C12.3404 16.7819 13.7508 16.8356 15.1032 17.1808V17.1984C16.3337 14.1801 18.5746 11.683 21.4426 10.134C24.3106 8.58512 27.6276 8.0806 30.8264 8.70675C34.0253 9.33289 36.9072 11.0508 38.9796 13.5668C41.0519 16.0827 42.1859 19.2405 42.1876 22.5Z" fill="white"/>
<path d="M28.1251 7.03125C25.2523 7.03346 22.4367 7.83481 19.9933 9.34569C17.5498 10.8566 15.5749 13.0174 14.2893 15.5865C12.76 15.3635 11.201 15.4579 9.7098 15.864C8.21855 16.2701 6.82698 16.9792 5.62188 17.9469C4.41678 18.9146 3.424 20.1202 2.70547 21.4886C1.98693 22.8569 1.55806 24.3587 1.4456 25.9001C1.33313 27.4416 1.53949 28.9897 2.0518 30.4478C2.56411 31.906 3.37138 33.243 4.42326 34.3754C5.47514 35.5077 6.74906 36.4112 8.16557 37.0295C9.58207 37.6477 11.1108 37.9675 12.6563 37.9688H28.1251C32.2276 37.9688 36.1622 36.339 39.0631 33.4381C41.9641 30.5371 43.5938 26.6026 43.5938 22.5C43.5938 18.3974 41.9641 14.4629 39.0631 11.5619C36.1622 8.66099 32.2276 7.03125 28.1251 7.03125ZM28.1251 35.1562H12.6563C10.4186 35.1562 8.27245 34.2673 6.69011 32.685C5.10777 31.1026 4.21882 28.9565 4.21882 26.7188C4.21882 24.481 5.10777 22.3349 6.69011 20.7525C8.27245 19.1702 10.4186 18.2813 12.6563 18.2812C12.8497 18.2812 13.043 18.2813 13.2346 18.3006C12.8501 19.6672 12.6555 21.0803 12.6563 22.5C12.6563 22.873 12.8045 23.2306 13.0682 23.4944C13.3319 23.7581 13.6896 23.9062 14.0626 23.9062C14.4355 23.9062 14.7932 23.7581 15.0569 23.4944C15.3207 23.2306 15.4688 22.873 15.4688 22.5C15.4688 19.9968 16.2111 17.5499 17.6018 15.4686C18.9925 13.3873 20.9691 11.7651 23.2817 10.8071C25.5944 9.84923 28.1391 9.59859 30.5942 10.0869C33.0493 10.5753 35.3044 11.7807 37.0744 13.5507C38.8444 15.3207 40.0498 17.5758 40.5381 20.0309C41.0265 22.486 40.7758 25.0307 39.8179 27.3433C38.86 29.656 37.2378 31.6326 35.1565 33.0233C33.0752 34.414 30.6282 35.1562 28.1251 35.1562ZM34.745 18.6926C34.8757 18.8232 34.9795 18.9783 35.0502 19.149C35.121 19.3197 35.1574 19.5027 35.1574 19.6875C35.1574 19.8723 35.121 20.0553 35.0502 20.226C34.9795 20.3967 34.8757 20.5518 34.745 20.6824L26.3075 29.1199C26.1769 29.2507 26.0218 29.3544 25.8511 29.4252C25.6804 29.4959 25.4974 29.5324 25.3126 29.5324C25.1278 29.5324 24.9448 29.4959 24.7741 29.4252C24.6033 29.3544 24.4483 29.2507 24.3177 29.1199L20.0989 24.9012C19.835 24.6373 19.6868 24.2794 19.6868 23.9062C19.6868 23.5331 19.835 23.1752 20.0989 22.9113C20.3628 22.6475 20.7207 22.4992 21.0938 22.4992C21.467 22.4992 21.8249 22.6475 22.0887 22.9113L25.3126 26.1369L32.7551 18.6926C32.8858 18.5618 33.0408 18.4581 33.2116 18.3873C33.3823 18.3166 33.5653 18.2801 33.7501 18.2801C33.9349 18.2801 34.1179 18.3166 34.2886 18.3873C34.4593 18.4581 34.6144 18.5618 34.745 18.6926Z" fill="white"/>
</svg>
