<svg width="45" height="45" viewBox="0 0 45 45" fill="none" xmlns="http://www.w3.org/2000/svg">
<path opacity="0.2" d="M26.7188 5.625V16.875C26.7188 17.6209 26.4224 18.3363 25.895 18.8637C25.3675 19.3912 24.6522 19.6875 23.9062 19.6875H5.625C4.87908 19.6875 4.16371 19.3912 3.63626 18.8637C3.10882 18.3363 2.8125 17.6209 2.8125 16.875V5.625C2.8125 4.87908 3.10882 4.16371 3.63626 3.63626C4.16371 3.10882 4.87908 2.8125 5.625 2.8125H23.9062C24.6522 2.8125 25.3675 3.10882 25.895 3.63626C26.4224 4.16371 26.7188 4.87908 26.7188 5.625Z" fill="white"/>
<path d="M10.2552 17.87L4.63021 12.245C4.49946 12.1144 4.39574 11.9593 4.32497 11.7886C4.2542 11.6178 4.21777 11.4349 4.21777 11.25C4.21777 11.0652 4.2542 10.8823 4.32497 10.7115C4.39574 10.5408 4.49946 10.3857 4.63021 10.2551L10.2552 4.63013C10.5191 4.36626 10.877 4.21802 11.2501 4.21802C11.6233 4.21802 11.9812 4.36626 12.2451 4.63013C12.5089 4.894 12.6572 5.25188 12.6572 5.62505C12.6572 5.99822 12.5089 6.3561 12.2451 6.61997L7.61322 11.25L12.2451 15.8801C12.5089 16.144 12.6572 16.5019 12.6572 16.875C12.6572 17.2482 12.5089 17.6061 12.2451 17.87C11.9812 18.1338 11.6233 18.2821 11.2501 18.2821C10.877 18.2821 10.5191 18.1338 10.2552 17.87ZM17.2865 17.87C17.4171 18.0007 17.5722 18.1044 17.7429 18.1752C17.9136 18.246 18.0966 18.2824 18.2814 18.2824C18.4662 18.2824 18.6492 18.246 18.8199 18.1752C18.9906 18.1044 19.1457 18.0007 19.2763 17.87L24.9013 12.245C25.0321 12.1144 25.1358 11.9593 25.2065 11.7886C25.2773 11.6178 25.3137 11.4349 25.3137 11.25C25.3137 11.0652 25.2773 10.8823 25.2065 10.7115C25.1358 10.5408 25.0321 10.3857 24.9013 10.2551L19.2763 4.63013C19.0124 4.36626 18.6545 4.21802 18.2814 4.21802C17.9082 4.21802 17.5503 4.36626 17.2865 4.63013C17.0226 4.894 16.8743 5.25188 16.8743 5.62505C16.8743 5.99822 17.0226 6.3561 17.2865 6.61997L21.9183 11.25L17.2865 15.8801C17.1557 16.0107 17.052 16.1658 16.9812 16.3365C16.9104 16.5073 16.874 16.6902 16.874 16.875C16.874 17.0599 16.9104 17.2428 16.9812 17.4136C17.052 17.5843 17.1557 17.7394 17.2865 17.87ZM35.1564 7.0313H30.9376C30.5647 7.0313 30.207 7.17946 29.9433 7.44318C29.6795 7.7069 29.5314 8.06459 29.5314 8.43755C29.5314 8.81051 29.6795 9.1682 29.9433 9.43192C30.207 9.69564 30.5647 9.8438 30.9376 9.8438H35.1564V35.1563H9.84388V23.9063C9.84388 23.5333 9.69572 23.1757 9.432 22.9119C9.16828 22.6482 8.81059 22.5 8.43763 22.5C8.06467 22.5 7.70698 22.6482 7.44326 22.9119C7.17954 23.1757 7.03138 23.5333 7.03138 23.9063V35.1563C7.03138 35.9022 7.3277 36.6176 7.85514 37.145C8.38259 37.6725 9.09796 37.9688 9.84388 37.9688H35.1564C35.9023 37.9688 36.6177 37.6725 37.1451 37.145C37.6726 36.6176 37.9689 35.9022 37.9689 35.1563V9.8438C37.9689 9.09788 37.6726 8.38251 37.1451 7.85506C36.6177 7.32762 35.9023 7.0313 35.1564 7.0313Z" fill="white"/>
</svg>
