<svg width="45" height="45" viewBox="0 0 45 45" fill="none" xmlns="http://www.w3.org/2000/svg">
<path opacity="0.2" d="M40.7812 18.2812C40.7812 22.5 33.75 26.7188 22.5 26.7188C11.25 26.7188 4.21875 22.5 4.21875 18.2812C4.21875 14.0625 11.25 9.84375 22.5 9.84375C33.75 9.84375 40.7812 14.0625 40.7812 18.2812Z" fill="white"/>
<path d="M36.4887 11.2219C32.8447 9.40078 28.0072 8.4375 22.5 8.4375C16.9928 8.4375 12.1553 9.40078 8.51133 11.2219C4.86738 13.043 2.8125 15.6059 2.8125 18.2812V26.7188C2.8125 29.3941 4.89023 31.9658 8.51133 33.7781C12.1324 35.5904 16.9928 36.5625 22.5 36.5625C28.0072 36.5625 32.8447 35.5992 36.4887 33.7781C40.1326 31.957 42.1875 29.3941 42.1875 26.7188V18.2812C42.1875 15.6059 40.1098 13.0342 36.4887 11.2219ZM22.5 11.25C33.5109 11.25 39.375 15.3334 39.375 18.2812C39.375 21.2291 33.5109 25.3125 22.5 25.3125C11.4891 25.3125 5.625 21.2291 5.625 18.2812C5.625 15.3334 11.4891 11.25 22.5 11.25ZM21.0938 28.1004V33.7254C17.7539 33.6164 14.9414 33.1242 12.6562 32.4088V26.9033C15.411 27.6372 18.2436 28.0391 21.0938 28.1004ZM23.9062 28.1004C26.7564 28.0391 29.589 27.6372 32.3438 26.9033V32.407C30.0586 33.1225 27.2461 33.6146 23.9062 33.7236V28.1004ZM5.625 26.7188V23.4721C6.50998 24.2067 7.47883 24.8339 8.51133 25.3406C8.93848 25.5533 9.39023 25.7537 9.84375 25.9436V31.2891C7.06113 29.9109 5.625 28.176 5.625 26.7188ZM35.1562 31.2891V25.9436C35.615 25.7537 36.0615 25.5533 36.4887 25.3406C37.5212 24.8339 38.49 24.2067 39.375 23.4721V26.7188C39.375 28.176 37.9389 29.9109 35.1562 31.2891Z" fill="white"/>
</svg>
