<svg width="45" height="45" viewBox="0 0 45 45" fill="none" xmlns="http://www.w3.org/2000/svg">
<path opacity="0.2" d="M33.75 9.84375V35.1562H11.25V9.84375H33.75Z" fill="white"/>
<path d="M30.9375 2.8125H14.0625C12.9436 2.8125 11.8706 3.25697 11.0794 4.04814C10.2882 4.83931 9.84375 5.91237 9.84375 7.03125V37.9688C9.84375 39.0876 10.2882 40.1607 11.0794 40.9519C11.8706 41.743 12.9436 42.1875 14.0625 42.1875H30.9375C32.0564 42.1875 33.1294 41.743 33.9206 40.9519C34.7118 40.1607 35.1562 39.0876 35.1562 37.9688V7.03125C35.1562 5.91237 34.7118 4.83931 33.9206 4.04814C33.1294 3.25697 32.0564 2.8125 30.9375 2.8125ZM12.6562 11.25H32.3438V33.75H12.6562V11.25ZM14.0625 5.625H30.9375C31.3105 5.625 31.6681 5.77316 31.9319 6.03688C32.1956 6.3006 32.3438 6.65829 32.3438 7.03125V8.4375H12.6562V7.03125C12.6562 6.65829 12.8044 6.3006 13.0681 6.03688C13.3319 5.77316 13.6895 5.625 14.0625 5.625ZM30.9375 39.375H14.0625C13.6895 39.375 13.3319 39.2268 13.0681 38.9631C12.8044 38.6994 12.6562 38.3417 12.6562 37.9688V36.5625H32.3438V37.9688C32.3438 38.3417 32.1956 38.6994 31.9319 38.9631C31.6681 39.2268 31.3105 39.375 30.9375 39.375Z" fill="white"/>
</svg>
