<svg width="45" height="45" viewBox="0 0 45 45" fill="none" xmlns="http://www.w3.org/2000/svg">
<path opacity="0.2" d="M37.7929 29.6561C36.58 32.2418 34.7334 34.479 32.4245 36.16L30.7792 34.5129C30.6029 34.336 30.3827 34.2092 30.1411 34.1456L26.3671 33.1506C26.0325 33.0627 25.7422 32.8544 25.5515 32.5658C25.3608 32.2772 25.2832 31.9284 25.3335 31.5862L25.7519 28.7385C25.7872 28.4984 25.8842 28.2714 26.0333 28.0798C26.1824 27.8882 26.3785 27.7385 26.6026 27.6452L31.9569 25.4198C32.2043 25.3171 32.4758 25.2873 32.7396 25.3337C33.0033 25.3801 33.2483 25.5008 33.4458 25.6817L37.7929 29.6561ZM28.1056 18.4571L32.0026 13.9219C32.2217 13.6677 32.3427 13.3435 32.3437 13.0079V8.78912C29.083 6.444 25.0929 5.33873 21.0903 5.67198C17.0878 6.00523 13.3354 7.75515 10.5075 10.6072C7.67954 13.4593 5.9616 17.2264 5.66239 21.2317C5.36318 25.2369 6.50233 29.2175 8.8751 32.4581L10.6188 31.312C10.812 31.1844 10.9706 31.0111 11.0807 30.8075C11.1908 30.6039 11.2489 30.3762 11.2499 30.1448L11.2868 23.7762C11.2887 23.5002 11.3712 23.2308 11.5241 23.001L15.205 17.4991C15.3105 17.3424 15.4466 17.2086 15.605 17.1057C15.7634 17.0027 15.9409 16.9328 16.127 16.8999C16.313 16.8671 16.5038 16.8721 16.6879 16.9147C16.8719 16.9572 17.0455 17.0364 17.1983 17.1475L20.6806 19.4327C20.9738 19.6439 21.3366 19.735 21.6948 19.6876L27.2249 18.9387C27.5677 18.892 27.8813 18.7205 28.1056 18.4571Z" fill="white"/>
<path d="M22.5 4.21875C18.8843 4.21875 15.3498 5.29093 12.3435 7.2997C9.33715 9.30847 6.994 12.1636 5.61034 15.5041C4.22667 18.8445 3.86464 22.5203 4.57003 26.0665C5.27541 29.6127 7.01653 32.8701 9.57321 35.4268C12.1299 37.9835 15.3873 39.7246 18.9335 40.43C22.4797 41.1354 26.1555 40.7733 29.4959 39.3897C32.8364 38.006 35.6915 35.6629 37.7003 32.6565C39.7091 29.6502 40.7813 26.1157 40.7813 22.5C40.7761 17.6531 38.8484 13.0061 35.4212 9.57886C31.9939 6.15157 27.3469 4.22387 22.5 4.21875ZM22.5 7.03125C25.497 7.02807 28.4296 7.90052 30.9375 9.54141V13.0078L27.0404 17.5324L21.5086 18.2812L21.4541 18.2426L17.9965 15.982C17.6899 15.7661 17.3433 15.6136 16.977 15.5336C16.6106 15.4536 16.232 15.4477 15.8633 15.5161C15.4947 15.5846 15.1434 15.7261 14.8302 15.9323C14.517 16.1385 14.2482 16.4052 14.0397 16.7168L10.3588 22.2188C10.0522 22.6773 9.88711 23.2158 9.88419 23.7674L9.84376 30.1359L9.26895 30.5139C7.84796 28.1678 7.07633 25.4861 7.03315 22.7435C6.98997 20.001 7.67679 17.2963 9.02322 14.9066C10.3696 12.517 12.3273 10.5283 14.6954 9.14443C17.0636 7.76056 19.7571 7.03125 22.5 7.03125ZM10.9494 32.7779L11.3924 32.4879C11.7792 32.2327 12.097 31.886 12.3175 31.4784C12.538 31.0709 12.6543 30.6151 12.6563 30.1518L12.6932 23.7832L16.3775 18.2812C16.3956 18.2951 16.4144 18.308 16.4338 18.3199L19.8914 20.5822C20.4709 20.9912 21.1838 21.1652 21.8865 21.0691L27.4219 20.3186C28.1045 20.2275 28.7299 19.8891 29.1797 19.3676L33.0768 14.8395C33.5126 14.3288 33.7514 13.6791 33.75 13.0078V11.8951C35.6521 13.9074 36.9782 16.3941 37.5896 19.0948C38.201 21.7954 38.0751 24.6108 37.2252 27.2461L34.3881 24.6516C33.9937 24.2895 33.5041 24.0476 32.977 23.9542C32.4498 23.8608 31.9069 23.9198 31.4121 24.1242L26.0578 26.3479C25.6101 26.5358 25.2184 26.8359 24.9203 27.2192C24.6223 27.6025 24.428 28.0561 24.3563 28.5363L23.9361 31.3822C23.8352 32.0672 23.9904 32.7654 24.3722 33.3431C24.7539 33.9207 25.3353 34.3372 26.0051 34.5129L29.7774 35.5078L30.1922 35.9244C27.1118 37.6918 23.5165 38.3439 20.0117 37.7708C16.5068 37.1977 13.3064 35.4344 10.9494 32.7779ZM32.5195 34.2773L31.7637 33.5197C31.4111 33.1658 30.9706 32.9122 30.4875 32.785L26.7188 31.79L27.1389 28.9441L32.4914 26.7188L36.0352 29.9672C35.132 31.6036 33.941 33.0637 32.5195 34.2773Z" fill="white"/>
</svg>
