<svg width="45" height="45" viewBox="0 0 45 45" fill="none" xmlns="http://www.w3.org/2000/svg">
<path opacity="0.2" d="M37.9688 26.0156V32.3438C37.9688 36.5625 36.5626 39.375 36.5626 39.375H12.6563L7.50241 30.5859C7.04356 29.7789 6.92255 28.8231 7.16579 27.9272C7.40903 27.0313 7.99677 26.2679 8.80075 25.8037C9.60473 25.3395 10.5597 25.2122 11.4572 25.4495C12.3547 25.6868 13.122 26.2694 13.5915 27.0703L16.8751 32.3438V13.3594C16.8751 12.427 17.2455 11.5328 17.9048 10.8735C18.5641 10.2141 19.4583 9.84375 20.3907 9.84375C21.3231 9.84375 22.2173 10.2141 22.8766 10.8735C23.5359 11.5328 23.9063 12.427 23.9063 13.3594V23.2031C23.9063 22.2707 24.2767 21.3765 24.936 20.7172C25.5953 20.0579 26.4895 19.6875 27.4219 19.6875C28.3543 19.6875 29.2486 20.0579 29.9079 20.7172C30.5672 21.3765 30.9376 22.2707 30.9376 23.2031V26.0156C30.9376 25.0832 31.308 24.189 31.9673 23.5297C32.6266 22.8704 33.5208 22.5 34.4532 22.5C35.3856 22.5 36.2798 22.8704 36.9391 23.5297C37.5984 24.189 37.9688 25.0832 37.9688 26.0156Z" fill="white"/>
<path d="M9.84363 13.3594C9.84363 10.5622 10.9548 7.87953 12.9327 5.90161C14.9107 3.92369 17.5933 2.8125 20.3905 2.8125C23.1877 2.8125 25.8703 3.92369 27.8483 5.90161C29.8262 7.87953 30.9374 10.5622 30.9374 13.3594C30.9374 13.7323 30.7892 14.09 30.5255 14.3537C30.2618 14.6175 29.9041 14.7656 29.5311 14.7656C29.1582 14.7656 28.8005 14.6175 28.5368 14.3537C28.273 14.09 28.1249 13.7323 28.1249 13.3594C28.1249 11.3081 27.31 9.34082 25.8595 7.89035C24.4091 6.43987 22.4418 5.625 20.3905 5.625C18.3392 5.625 16.372 6.43987 14.9215 7.89035C13.471 9.34082 12.6561 11.3081 12.6561 13.3594C12.6561 13.7323 12.508 14.09 12.2442 14.3537C11.9805 14.6175 11.6228 14.7656 11.2499 14.7656C10.8769 14.7656 10.5192 14.6175 10.2555 14.3537C9.99179 14.09 9.84363 13.7323 9.84363 13.3594ZM34.453 21.0938C33.6327 21.0928 32.8252 21.2977 32.1046 21.6896C31.8892 21.0233 31.5341 20.4105 31.0631 19.8923C30.592 19.3741 30.0157 18.9624 29.3728 18.6847C28.7299 18.407 28.0351 18.2697 27.3349 18.282C26.6347 18.2942 25.9452 18.4558 25.3124 18.7559V13.3594C25.3124 12.054 24.7938 10.8021 23.8708 9.87908C22.9478 8.95605 21.6959 8.4375 20.3905 8.4375C19.0851 8.4375 17.8332 8.95605 16.9102 9.87908C15.9872 10.8021 15.4686 12.054 15.4686 13.3594V27.4219L14.7971 26.3443C14.1405 25.2159 13.0625 24.3945 11.8002 24.0609C10.538 23.7273 9.19492 23.9088 8.06648 24.5654C6.93804 25.2221 6.11667 26.3001 5.78306 27.5623C5.44945 28.8246 5.63093 30.1677 6.28758 31.2961L11.4415 40.0852C11.5279 40.2563 11.6485 40.408 11.7957 40.5309C11.9429 40.6538 12.1137 40.7453 12.2976 40.7997C12.4815 40.8541 12.6745 40.8704 12.8649 40.8475C13.0553 40.8245 13.239 40.7629 13.4047 40.6664C13.5704 40.5698 13.7146 40.4404 13.8284 40.2861C13.9423 40.1318 14.0233 39.9558 14.0667 39.769C14.11 39.5822 14.1146 39.3885 14.0804 39.1998C14.0461 39.0112 13.9736 38.8315 13.8673 38.6719L8.71863 29.8828C8.57408 29.6427 8.47882 29.3762 8.43842 29.0989C8.39802 28.8216 8.41328 28.539 8.48331 28.2677C8.55335 27.9963 8.67675 27.7416 8.84632 27.5185C9.01588 27.2954 9.22821 27.1083 9.4709 26.9681C9.71358 26.828 9.98176 26.7376 10.2598 26.7023C10.5378 26.6669 10.82 26.6873 11.0901 26.7623C11.3601 26.8373 11.6125 26.9653 11.8325 27.1389C12.0525 27.3125 12.2357 27.5282 12.3714 27.7734L12.396 27.8139L15.6796 33.0873C15.8408 33.3474 16.0825 33.5479 16.3679 33.6582C16.6534 33.7685 16.9671 33.7827 17.2613 33.6986C17.5556 33.6145 17.8144 33.4367 17.9984 33.1922C18.1825 32.9477 18.2817 32.6498 18.2811 32.3438V13.3594C18.2811 12.7999 18.5034 12.2634 18.899 11.8678C19.2945 11.4722 19.8311 11.25 20.3905 11.25C20.9499 11.25 21.4865 11.4722 21.8821 11.8678C22.2776 12.2634 22.4999 12.7999 22.4999 13.3594V25.3125C22.4999 25.6855 22.648 26.0431 22.9118 26.3069C23.1755 26.5706 23.5332 26.7188 23.9061 26.7188C24.2791 26.7188 24.6368 26.5706 24.9005 26.3069C25.1642 26.0431 25.3124 25.6855 25.3124 25.3125V23.2031C25.3124 22.6437 25.5346 22.1072 25.9302 21.7116C26.3258 21.316 26.8623 21.0938 27.4218 21.0938C27.9812 21.0938 28.5177 21.316 28.9133 21.7116C29.3089 22.1072 29.5311 22.6437 29.5311 23.2031V26.7188C29.5311 27.0917 29.6793 27.4494 29.943 27.7131C30.2067 27.9768 30.5644 28.125 30.9374 28.125C31.3103 28.125 31.668 27.9768 31.9318 27.7131C32.1955 27.4494 32.3436 27.0917 32.3436 26.7188V26.0156C32.3436 25.4562 32.5659 24.9197 32.9615 24.5241C33.357 24.1285 33.8936 23.9062 34.453 23.9062C35.0124 23.9062 35.549 24.1285 35.9446 24.5241C36.3401 24.9197 36.5624 25.4562 36.5624 26.0156V32.3438C36.5624 36.1424 35.3143 38.7246 35.3038 38.7457C35.1372 39.0793 35.1099 39.4654 35.2279 39.8191C35.3459 40.1728 35.5996 40.4651 35.9331 40.6318C36.1282 40.7305 36.3438 40.7817 36.5624 40.7812C36.8236 40.7814 37.0798 40.7088 37.3021 40.5716C37.5244 40.4344 37.7041 40.2379 37.821 40.0043C37.886 39.876 39.3766 36.8402 39.3766 32.3438V26.0156C39.3766 25.3691 39.2493 24.729 39.0018 24.1317C38.7544 23.5344 38.3917 22.9918 37.9344 22.5347C37.4772 22.0777 36.9344 21.7151 36.3371 21.4679C35.7397 21.2207 35.0995 21.0935 34.453 21.0938Z" fill="white"/>
</svg>
