<svg width="45" height="45" viewBox="0 0 45 45" fill="none" xmlns="http://www.w3.org/2000/svg">
<path opacity="0.2" d="M37.9688 20.5119V37.9688H26.7188V26.7188H18.2812V37.9688H7.03125V20.5119L21.5051 6.03634C21.6357 5.90559 21.7908 5.80186 21.9615 5.7311C22.1322 5.66033 22.3152 5.6239 22.5 5.6239C22.6848 5.6239 22.8678 5.66033 23.0385 5.7311C23.2092 5.80186 23.3643 5.90559 23.4949 6.03634L37.9688 20.5119Z" fill="white"/>
<path d="M42.1875 36.5625H39.375V23.9062L39.7863 24.3175C40.0507 24.5814 40.409 24.7295 40.7825 24.7291C41.156 24.7288 41.5141 24.5801 41.7779 24.3158C42.0418 24.0515 42.1899 23.6931 42.1895 23.3196C42.1892 22.9461 42.0405 22.5881 41.7762 22.3242L24.4881 5.04137C23.9607 4.51432 23.2456 4.21826 22.5 4.21826C21.7544 4.21826 21.0393 4.51432 20.5119 5.04137L3.22383 22.3242C2.96019 22.5881 2.81217 22.9458 2.81234 23.3189C2.8125 23.6919 2.96084 24.0495 3.22471 24.3132C3.48858 24.5768 3.84637 24.7248 4.21937 24.7246C4.59237 24.7245 4.95004 24.5761 5.21367 24.3123L5.625 23.9062V36.5625H2.8125C2.43954 36.5625 2.08185 36.7106 1.81813 36.9743C1.55441 37.2381 1.40625 37.5958 1.40625 37.9687C1.40625 38.3417 1.55441 38.6994 1.81813 38.9631C2.08185 39.2268 2.43954 39.375 2.8125 39.375H42.1875C42.5605 39.375 42.9181 39.2268 43.1819 38.9631C43.4456 38.6994 43.5938 38.3417 43.5938 37.9687C43.5938 37.5958 43.4456 37.2381 43.1819 36.9743C42.9181 36.7106 42.5605 36.5625 42.1875 36.5625ZM8.4375 21.0937L22.5 7.03122L36.5625 21.0937V36.5625H28.125V26.7187C28.125 26.3458 27.9768 25.9881 27.7131 25.7243C27.4494 25.4606 27.0917 25.3125 26.7188 25.3125H18.2812C17.9083 25.3125 17.5506 25.4606 17.2869 25.7243C17.0232 25.9881 16.875 26.3458 16.875 26.7187V36.5625H8.4375V21.0937ZM25.3125 36.5625H19.6875V28.125H25.3125V36.5625Z" fill="white"/>
</svg>
