<svg width="45" height="45" viewBox="0 0 45 45" fill="none" xmlns="http://www.w3.org/2000/svg">
<path opacity="0.2" d="M37.9688 11.25V33.75H22.5V11.25H37.9688Z" fill="white"/>
<path d="M39.3751 22.5C39.3751 22.873 39.2269 23.2307 38.9632 23.4944C38.6994 23.7581 38.3418 23.9063 37.9688 23.9063H22.5C22.1271 23.9063 21.7694 23.7581 21.5057 23.4944C21.242 23.2307 21.0938 22.873 21.0938 22.5C21.0938 22.1271 21.242 21.7694 21.5057 21.5057C21.7694 21.242 22.1271 21.0938 22.5 21.0938H37.9688C38.3418 21.0938 38.6994 21.242 38.9632 21.5057C39.2269 21.7694 39.3751 22.1271 39.3751 22.5ZM22.5 12.6563H37.9688C38.3418 12.6563 38.6994 12.5081 38.9632 12.2444C39.2269 11.9807 39.3751 11.623 39.3751 11.25C39.3751 10.8771 39.2269 10.5194 38.9632 10.2557C38.6994 9.99196 38.3418 9.8438 37.9688 9.8438H22.5C22.1271 9.8438 21.7694 9.99196 21.5057 10.2557C21.242 10.5194 21.0938 10.8771 21.0938 11.25C21.0938 11.623 21.242 11.9807 21.5057 12.2444C21.7694 12.5081 22.1271 12.6563 22.5 12.6563ZM37.9688 32.3438H22.5C22.1271 32.3438 21.7694 32.492 21.5057 32.7557C21.242 33.0194 21.0938 33.3771 21.0938 33.7501C21.0938 34.123 21.242 34.4807 21.5057 34.7444C21.7694 35.0081 22.1271 35.1563 22.5 35.1563H37.9688C38.3418 35.1563 38.6994 35.0081 38.9632 34.7444C39.2269 34.4807 39.3751 34.123 39.3751 33.7501C39.3751 33.3771 39.2269 33.0194 38.9632 32.7557C38.6994 32.492 38.3418 32.3438 37.9688 32.3438ZM14.4739 7.44263L9.8438 12.0745L8.02622 10.2551C7.76235 9.99126 7.40447 9.84302 7.0313 9.84302C6.65813 9.84302 6.30025 9.99126 6.03638 10.2551C5.77251 10.519 5.62427 10.8769 5.62427 11.25C5.62427 11.6232 5.77251 11.9811 6.03638 12.245L8.84888 15.0575C8.97948 15.1882 9.13457 15.2919 9.30529 15.3627C9.47601 15.4335 9.659 15.4699 9.8438 15.4699C10.0286 15.4699 10.2116 15.4335 10.3823 15.3627C10.553 15.2919 10.7081 15.1882 10.8387 15.0575L16.4637 9.43247C16.7276 9.1686 16.8758 8.81072 16.8758 8.43755C16.8758 8.06438 16.7276 7.7065 16.4637 7.44263C16.1999 7.17876 15.842 7.03052 15.4688 7.03052C15.0956 7.03052 14.7377 7.17876 14.4739 7.44263ZM14.4739 18.6926L9.8438 23.3245L8.02622 21.5051C7.76235 21.2413 7.40447 21.093 7.0313 21.093C6.65813 21.093 6.30025 21.2413 6.03638 21.5051C5.77251 21.769 5.62427 22.1269 5.62427 22.5C5.62427 22.6848 5.66066 22.8678 5.73137 23.0385C5.80208 23.2092 5.90572 23.3643 6.03638 23.495L8.84888 26.3075C8.97948 26.4382 9.13457 26.5419 9.30529 26.6127C9.47601 26.6835 9.659 26.7199 9.8438 26.7199C10.0286 26.7199 10.2116 26.6835 10.3823 26.6127C10.553 26.5419 10.7081 26.4382 10.8387 26.3075L16.4637 20.6825C16.7276 20.4186 16.8758 20.0607 16.8758 19.6875C16.8758 19.3144 16.7276 18.9565 16.4637 18.6926C16.1999 18.4288 15.842 18.2805 15.4688 18.2805C15.0956 18.2805 14.7377 18.4288 14.4739 18.6926ZM14.4739 29.9426L9.8438 34.5745L8.02622 32.7551C7.89557 32.6245 7.74046 32.5208 7.56975 32.4501C7.39904 32.3794 7.21607 32.343 7.0313 32.343C6.84653 32.343 6.66356 32.3794 6.49285 32.4501C6.32214 32.5208 6.16703 32.6245 6.03638 32.7551C5.90572 32.8858 5.80208 33.0409 5.73137 33.2116C5.66066 33.3823 5.62427 33.5653 5.62427 33.7501C5.62427 33.9348 5.66066 34.1178 5.73137 34.2885C5.80208 34.4592 5.90572 34.6143 6.03638 34.745L8.84888 37.5575C8.97948 37.6882 9.13457 37.7919 9.30529 37.8627C9.47601 37.9335 9.659 37.9699 9.8438 37.9699C10.0286 37.9699 10.2116 37.9335 10.3823 37.8627C10.553 37.7919 10.7081 37.6882 10.8387 37.5575L16.4637 31.9325C16.7276 31.6686 16.8758 31.3107 16.8758 30.9376C16.8758 30.5644 16.7276 30.2065 16.4637 29.9426C16.1999 29.6788 15.842 29.5305 15.4688 29.5305C15.0956 29.5305 14.7377 29.6788 14.4739 29.9426Z" fill="white"/>
</svg>
