<svg width="45" height="45" viewBox="0 0 45 45" fill="none" xmlns="http://www.w3.org/2000/svg">
<path opacity="0.2" d="M42.1875 25.3125C42.1875 30.9375 33.75 35.1562 33.75 35.1562C33.75 35.1562 25.3125 30.9375 25.3125 25.3125C25.3125 24.1936 25.757 23.1206 26.5481 22.3294C27.3393 21.5382 28.4124 21.0938 29.5312 21.0938C30.6501 21.0938 31.7232 21.5382 32.5144 22.3294C33.3055 23.1206 33.75 24.1936 33.75 25.3125C33.75 24.1936 34.1945 23.1206 34.9856 22.3294C35.7768 21.5382 36.8499 21.0938 37.9688 21.0938C39.0876 21.0938 40.1607 21.5382 40.9519 22.3294C41.743 23.1206 42.1875 24.1936 42.1875 25.3125Z" fill="white"/>
<path d="M5.625 11.25C5.625 10.877 5.77316 10.5194 6.03688 10.2556C6.3006 9.99191 6.65829 9.84375 7.03125 9.84375H37.9688C38.3417 9.84375 38.6994 9.99191 38.9631 10.2556C39.2268 10.5194 39.375 10.877 39.375 11.25C39.375 11.623 39.2268 11.9806 38.9631 12.2444C38.6994 12.5081 38.3417 12.6563 37.9688 12.6563H7.03125C6.65829 12.6563 6.3006 12.5081 6.03688 12.2444C5.77316 11.9806 5.625 11.623 5.625 11.25ZM7.03125 23.9063H18.2812C18.6542 23.9063 19.0119 23.7581 19.2756 23.4944C19.5393 23.2306 19.6875 22.873 19.6875 22.5C19.6875 22.127 19.5393 21.7694 19.2756 21.5056C19.0119 21.2419 18.6542 21.0938 18.2812 21.0938H7.03125C6.65829 21.0938 6.3006 21.2419 6.03688 21.5056C5.77316 21.7694 5.625 22.127 5.625 22.5C5.625 22.873 5.77316 23.2306 6.03688 23.4944C6.3006 23.7581 6.65829 23.9063 7.03125 23.9063ZM21.0938 32.3438H7.03125C6.65829 32.3438 6.3006 32.4919 6.03688 32.7556C5.77316 33.0194 5.625 33.377 5.625 33.75C5.625 34.123 5.77316 34.4806 6.03688 34.7444C6.3006 35.0081 6.65829 35.1563 7.03125 35.1563H21.0938C21.4667 35.1563 21.8244 35.0081 22.0881 34.7444C22.3518 34.4806 22.5 34.123 22.5 33.75C22.5 33.377 22.3518 33.0194 22.0881 32.7556C21.8244 32.4919 21.4667 32.3438 21.0938 32.3438ZM43.5938 25.3125C43.5938 31.732 34.7555 36.225 34.3793 36.4148C34.1839 36.5126 33.9685 36.5635 33.75 36.5635C33.5315 36.5635 33.3161 36.5126 33.1207 36.4148C32.7445 36.225 23.9062 31.732 23.9062 25.3125C23.9072 24.1703 24.2558 23.0555 24.9057 22.1163C25.5556 21.1771 26.4761 20.4579 27.5447 20.0546C28.6132 19.6512 29.7793 19.5826 30.8877 19.8581C31.9962 20.1335 32.9945 20.7399 33.75 21.5965C34.5055 20.7399 35.5038 20.1335 36.6123 19.8581C37.7207 19.5826 38.8868 19.6512 39.9553 20.0546C41.0239 20.4579 41.9444 21.1771 42.5943 22.1163C43.2442 23.0555 43.5928 24.1703 43.5938 25.3125ZM40.7812 25.3125C40.7812 24.5666 40.4849 23.8512 39.9575 23.3238C39.43 22.7963 38.7147 22.5 37.9688 22.5C37.2228 22.5 36.5075 22.7963 35.98 23.3238C35.4526 23.8512 35.1562 24.5666 35.1562 25.3125C35.1562 25.6855 35.0081 26.0431 34.7444 26.3069C34.4806 26.5706 34.123 26.7188 33.75 26.7188C33.377 26.7188 33.0194 26.5706 32.7556 26.3069C32.4919 26.0431 32.3438 25.6855 32.3438 25.3125C32.3438 24.5666 32.0474 23.8512 31.52 23.3238C30.9925 22.7963 30.2772 22.5 29.5312 22.5C28.7853 22.5 28.07 22.7963 27.5425 23.3238C27.0151 23.8512 26.7188 24.5666 26.7188 25.3125C26.7188 28.8598 31.326 32.1926 33.75 33.5619C36.174 32.1943 40.7812 28.8615 40.7812 25.3125Z" fill="white"/>
</svg>
