<svg width="45" height="45" viewBox="0 0 45 45" fill="none" xmlns="http://www.w3.org/2000/svg">
<path opacity="0.2" d="M37.9688 16.875V36.5625C37.9688 36.9355 37.8206 37.2931 37.5569 37.5569C37.2931 37.8206 36.9355 37.9688 36.5625 37.9688H8.4375C8.06454 37.9688 7.70685 37.8206 7.44313 37.5569C7.17941 37.2931 7.03125 36.9355 7.03125 36.5625V16.875C7.03125 16.502 7.17941 16.1444 7.44313 15.8806C7.70685 15.6169 8.06454 15.4688 8.4375 15.4688H36.5625C36.9355 15.4688 37.2931 15.6169 37.5569 15.8806C37.8206 16.1444 37.9688 16.502 37.9688 16.875Z" fill="white"/>
<path d="M36.5625 14.0625H30.9375V9.84375C30.9375 7.60599 30.0486 5.45987 28.4662 3.87754C26.8839 2.2952 24.7378 1.40625 22.5 1.40625C20.2622 1.40625 18.1161 2.2952 16.5338 3.87754C14.9514 5.45987 14.0625 7.60599 14.0625 9.84375V14.0625H8.4375C7.69158 14.0625 6.97621 14.3588 6.44876 14.8863C5.92132 15.4137 5.625 16.1291 5.625 16.875V36.5625C5.625 37.3084 5.92132 38.0238 6.44876 38.5512C6.97621 39.0787 7.69158 39.375 8.4375 39.375H36.5625C37.3084 39.375 38.0238 39.0787 38.5512 38.5512C39.0787 38.0238 39.375 37.3084 39.375 36.5625V16.875C39.375 16.1291 39.0787 15.4137 38.5512 14.8863C38.0238 14.3588 37.3084 14.0625 36.5625 14.0625ZM16.875 9.84375C16.875 8.35191 17.4676 6.92117 18.5225 5.86627C19.5774 4.81138 21.0082 4.21875 22.5 4.21875C23.9918 4.21875 25.4226 4.81138 26.4775 5.86627C27.5324 6.92117 28.125 8.35191 28.125 9.84375V14.0625H16.875V9.84375ZM36.5625 36.5625H8.4375V16.875H36.5625V36.5625ZM24.6094 26.7188C24.6094 27.1359 24.4857 27.5438 24.2539 27.8907C24.0221 28.2375 23.6927 28.5079 23.3072 28.6676C22.9218 28.8272 22.4977 28.869 22.0885 28.7876C21.6793 28.7062 21.3034 28.5053 21.0084 28.2103C20.7134 27.9153 20.5125 27.5394 20.4312 27.1303C20.3498 26.7211 20.3915 26.297 20.5512 25.9115C20.7108 25.5261 20.9812 25.1967 21.3281 24.9649C21.675 24.7331 22.0828 24.6094 22.5 24.6094C23.0594 24.6094 23.596 24.8316 23.9916 25.2272C24.3871 25.6228 24.6094 26.1593 24.6094 26.7188Z" fill="white"/>
</svg>
