<svg width="45" height="45" viewBox="0 0 45 45" fill="none" xmlns="http://www.w3.org/2000/svg">
<path opacity="0.2" d="M33.75 19.6875C33.75 22.4688 32.9253 25.1876 31.38 27.5002C29.8348 29.8128 27.6386 31.6152 25.069 32.6796C22.4994 33.7439 19.6719 34.0224 16.944 33.4798C14.2162 32.9372 11.7105 31.5979 9.74382 29.6312C7.77714 27.6645 6.43782 25.1588 5.89521 22.431C5.35261 19.7031 5.63109 16.8756 6.69545 14.306C7.75981 11.7364 9.56223 9.54017 11.8748 7.99496C14.1874 6.44975 16.9062 5.625 19.6875 5.625C21.5342 5.625 23.3629 5.98874 25.069 6.69544C26.7751 7.40215 28.3254 8.43799 29.6312 9.74381C30.937 11.0496 31.9729 12.5999 32.6796 14.306C33.3863 16.0122 33.75 17.8408 33.75 19.6875Z" fill="white"/>
<path d="M40.3699 38.3801L31.5702 29.5805C34.1257 26.5156 35.4012 22.5835 35.1314 18.6021C34.8615 14.6208 33.0671 10.8968 30.1213 8.20476C27.1756 5.51277 23.3055 4.06009 19.316 4.14893C15.3265 4.23777 11.5248 5.86129 8.70187 8.68174C5.87892 11.5022 4.25204 15.3024 4.15968 19.2918C4.06731 23.2813 5.51657 27.1527 8.20596 30.1008C10.8953 33.0489 14.6178 34.8466 18.5989 35.12C22.58 35.3934 26.5133 34.1214 29.5804 31.5686L38.38 40.3699C38.5107 40.5006 38.6658 40.6042 38.8365 40.675C39.0072 40.7457 39.1902 40.7821 39.3749 40.7821C39.5597 40.7821 39.7427 40.7457 39.9134 40.675C40.0841 40.6042 40.2392 40.5006 40.3699 40.3699C40.5005 40.2393 40.6042 40.0842 40.6749 39.9135C40.7456 39.7428 40.782 39.5598 40.782 39.375C40.782 39.1903 40.7456 39.0073 40.6749 38.8366C40.6042 38.6659 40.5005 38.5108 40.3699 38.3801ZM7.03119 19.6875C7.03119 17.1844 7.77346 14.7374 9.16415 12.6561C10.5548 10.5748 12.5315 8.9526 14.8441 7.99468C17.1567 7.03675 19.7015 6.78612 22.1565 7.27446C24.6116 7.76281 26.8667 8.9682 28.6368 10.7382C30.4068 12.5082 31.6122 14.7633 32.1005 17.2184C32.5888 19.6735 32.3382 22.2182 31.3803 24.5309C30.4224 26.8435 28.8002 28.8201 26.7189 30.2108C24.6376 31.6015 22.1906 32.3438 19.6874 32.3438C16.3319 32.3401 13.1149 31.0054 10.7422 28.6327C8.36953 26.26 7.03491 23.043 7.03119 19.6875Z" fill="white"/>
</svg>
