<svg width="45" height="45" viewBox="0 0 45 45" fill="none" xmlns="http://www.w3.org/2000/svg">
<path opacity="0.2" d="M25.3125 15.4688V23.9062C25.3125 24.2792 25.1643 24.6369 24.9006 24.9006C24.6369 25.1643 24.2792 25.3125 23.9062 25.3125H21.0938C20.7208 25.3125 20.3631 25.1643 20.0994 24.9006C19.8357 24.6369 19.6875 24.2792 19.6875 23.9062V15.4688C19.6875 15.0958 19.8357 14.7381 20.0994 14.4744C20.3631 14.2107 20.7208 14.0625 21.0938 14.0625H23.9062C24.2792 14.0625 24.6369 14.2107 24.9006 14.4744C25.1643 14.7381 25.3125 15.0958 25.3125 15.4688Z" fill="white"/>
<path d="M25.3125 2.8125H19.6875C16.7048 2.81576 13.8452 4.00207 11.7361 6.11115C9.62707 8.22022 8.44076 11.0798 8.4375 14.0625V30.9375C8.44076 33.9202 9.62707 36.7798 11.7361 38.8889C13.8452 40.9979 16.7048 42.1842 19.6875 42.1875H25.3125C28.2952 42.1842 31.1548 40.9979 33.2639 38.8889C35.3729 36.7798 36.5592 33.9202 36.5625 30.9375V14.0625C36.5592 11.0798 35.3729 8.22022 33.2639 6.11115C31.1548 4.00207 28.2952 2.81576 25.3125 2.8125ZM33.75 14.0625V18.2812H26.7188V15.4688C26.7188 14.7228 26.4224 14.0075 25.895 13.48C25.3675 12.9526 24.6522 12.6562 23.9062 12.6562V5.625H25.3125C27.5495 5.62733 29.6943 6.51702 31.2761 8.09886C32.858 9.68069 33.7477 11.8255 33.75 14.0625ZM23.9062 23.9062H21.0938V15.4688H23.9062V19.6699C23.9039 19.6815 23.9039 19.6935 23.9062 19.7051V23.9062ZM19.6875 5.625H21.0938V12.6562C20.3478 12.6562 19.6325 12.9526 19.105 13.48C18.5776 14.0075 18.2812 14.7228 18.2812 15.4688V18.2812H11.25V14.0625C11.2523 11.8255 12.142 9.68069 13.7239 8.09886C15.3057 6.51702 17.4505 5.62733 19.6875 5.625ZM25.3125 39.375H19.6875C17.4505 39.3727 15.3057 38.483 13.7239 36.9011C12.142 35.3193 11.2523 33.1745 11.25 30.9375V21.0938H18.2812V23.9062C18.2812 24.6522 18.5776 25.3675 19.105 25.895C19.6325 26.4224 20.3478 26.7188 21.0938 26.7188H23.9062C24.6522 26.7188 25.3675 26.4224 25.895 25.895C26.4224 25.3675 26.7188 24.6522 26.7188 23.9062V21.0938H33.75V30.9375C33.7477 33.1745 32.858 35.3193 31.2761 36.9011C29.6943 38.483 27.5495 39.3727 25.3125 39.375Z" fill="white"/>
</svg>
