<svg width="45" height="45" viewBox="0 0 45 45" fill="none" xmlns="http://www.w3.org/2000/svg">
<path opacity="0.2" d="M39.5508 11.4258L27.4219 21.7969L30.3557 24.7307C30.8827 25.2581 31.1788 25.9731 31.1788 26.7187C31.1788 27.4643 30.8827 28.1794 30.3557 28.7068L26.7188 32.3437L12.6562 18.2812L16.2932 14.6443C16.8206 14.1173 17.5356 13.8212 18.2812 13.8212C19.0269 13.8212 19.7419 14.1173 20.2693 14.6443L23.2031 17.5781L33.5742 5.44921C34.3668 4.65667 35.4417 4.21143 36.5625 4.21143C37.6833 4.21143 38.7582 4.65667 39.5508 5.44921C40.3433 6.24175 40.7886 7.31667 40.7886 8.43749C40.7886 9.55832 40.3433 10.6332 39.5508 11.4258Z" fill="white"/>
<path d="M40.5421 4.45779C40.0197 3.93533 39.3996 3.52088 38.717 3.23812C38.0345 2.95535 37.3029 2.80981 36.5641 2.80981C35.8253 2.80981 35.0938 2.95535 34.4113 3.23812C33.7287 3.52088 33.1086 3.93533 32.5862 4.45779C32.5616 4.4824 32.537 4.50877 32.5124 4.53689L23.1239 15.5074L21.2694 13.6476C20.8776 13.2557 20.4125 12.9447 19.9005 12.7326C19.3885 12.5204 18.8397 12.4112 18.2855 12.4112C17.7313 12.4112 17.1826 12.5204 16.6706 12.7326C16.1586 12.9447 15.6934 13.2557 15.3016 13.6476L1.82098 27.1301C1.55746 27.3938 1.40942 27.7513 1.40942 28.1241C1.40942 28.4969 1.55746 28.8544 1.82098 29.1181L15.8835 43.1806C16.1472 43.4442 16.5047 43.5922 16.8775 43.5922C17.2503 43.5922 17.6079 43.4442 17.8716 43.1806L31.3522 29.707C31.7442 29.3152 32.0552 28.8501 32.2673 28.3381C32.4795 27.8261 32.5887 27.2773 32.5887 26.7231C32.5887 26.1689 32.4795 25.6202 32.2673 25.1082C32.0552 24.5962 31.7442 24.131 31.3522 23.7392L29.4925 21.8812L40.463 12.4805C40.4893 12.4558 40.5175 12.4312 40.5421 12.4049C41.5946 11.3503 42.1857 9.92124 42.1857 8.43133C42.1857 6.94142 41.5946 5.51236 40.5421 4.45779ZM16.8749 40.1994L13.9429 37.2656L17.8698 33.3369C18.1224 33.071 18.2611 32.717 18.2564 32.3503C18.2517 31.9836 18.104 31.6333 17.8447 31.3739C17.5854 31.1146 17.235 30.9669 16.8683 30.9622C16.5016 30.9575 16.1476 31.0962 15.8817 31.3488L11.953 35.2758L9.7241 33.0469L13.6511 29.1181C13.9036 28.8523 14.0424 28.4983 14.0377 28.1316C14.033 27.7649 13.8852 27.4145 13.6259 27.1552C13.3666 26.8959 13.0163 26.7481 12.6496 26.7434C12.2829 26.7387 11.9288 26.8775 11.663 27.1301L7.73426 31.057L4.80047 28.125L12.6561 20.2693L24.7305 32.3437L16.8749 40.1994ZM38.5874 10.3887L26.5095 20.7263C26.362 20.8523 26.2422 21.0075 26.1575 21.182C26.0729 21.3565 26.0253 21.5467 26.0177 21.7405C26.0101 21.9343 26.0427 22.1276 26.1134 22.3082C26.1841 22.4888 26.2914 22.6529 26.4286 22.79L29.3554 25.7238C29.6189 25.9875 29.7669 26.3451 29.7669 26.7179C29.7669 27.0907 29.6189 27.4482 29.3554 27.7119L26.7186 30.3486L14.646 18.2812L17.2827 15.6445C17.5464 15.381 17.9039 15.233 18.2767 15.233C18.6495 15.233 19.0071 15.381 19.2708 15.6445L22.2046 18.5783C22.3417 18.7155 22.5057 18.8228 22.6864 18.8935C22.867 18.9642 23.0603 18.9968 23.2541 18.9892C23.4479 18.9816 23.6381 18.934 23.8126 18.8494C23.9871 18.7647 24.1423 18.6449 24.2682 18.4974L34.6112 6.41248C35.1429 5.9073 35.851 5.62982 36.5844 5.63921C37.3178 5.6486 38.0185 5.94412 38.5371 6.46274C39.0558 6.98137 39.3513 7.68208 39.3607 8.41548C39.37 9.14887 39.0926 9.85692 38.5874 10.3887Z" fill="white"/>
</svg>
