<svg width="45" height="45" viewBox="0 0 45 45" fill="none" xmlns="http://www.w3.org/2000/svg">
<path opacity="0.2" d="M39.375 35.1563C39.375 35.9906 39.1276 36.8063 38.664 37.5001C38.2005 38.1938 37.5416 38.7346 36.7707 39.0539C35.9998 39.3732 35.1516 39.4567 34.3332 39.2939C33.5149 39.1312 32.7631 38.7294 32.1731 38.1394C31.5831 37.5494 31.1813 36.7976 31.0186 35.9793C30.8558 35.1609 30.9393 34.3127 31.2586 33.5418C31.5779 32.7709 32.1187 32.112 32.8124 31.6485C33.5062 31.1849 34.3219 30.9375 35.1563 30.9375C36.2751 30.9375 37.3482 31.382 38.1394 32.1731C38.9305 32.9643 39.375 34.0374 39.375 35.1563Z" fill="white"/>
<path d="M35.1563 29.5312C33.9092 29.5324 32.6977 29.9472 31.7116 30.7106C30.7256 31.4741 30.0205 32.543 29.707 33.75H12.6563C11.1644 33.75 9.73367 33.1574 8.67877 32.1025C7.62388 31.0476 7.03125 29.6168 7.03125 28.125C7.03125 26.6332 7.62388 25.2024 8.67877 24.1475C9.73367 23.0926 11.1644 22.5 12.6563 22.5H29.5313C31.3961 22.5 33.1845 21.7592 34.5031 20.4406C35.8217 19.122 36.5625 17.3336 36.5625 15.4688C36.5625 13.6039 35.8217 11.8155 34.5031 10.4969C33.1845 9.17829 31.3961 8.4375 29.5313 8.4375H12.6563C12.2833 8.4375 11.9256 8.58566 11.6619 8.84938C11.3982 9.1131 11.25 9.47079 11.25 9.84375C11.25 10.2167 11.3982 10.5744 11.6619 10.8381C11.9256 11.1018 12.2833 11.25 12.6563 11.25H29.5313C30.6501 11.25 31.7232 11.6945 32.5144 12.4856C33.3055 13.2768 33.75 14.3499 33.75 15.4688C33.75 16.5876 33.3055 17.6607 32.5144 18.4519C31.7232 19.243 30.6501 19.6875 29.5313 19.6875H12.6563C10.4185 19.6875 8.27238 20.5764 6.69004 22.1588C5.1077 23.7411 4.21875 25.8872 4.21875 28.125C4.21875 30.3628 5.1077 32.5089 6.69004 34.0912C8.27238 35.6736 10.4185 36.5625 12.6563 36.5625H29.707C29.97 37.581 30.5134 38.5054 31.2753 39.2307C32.0373 39.9559 32.9874 40.453 34.0176 40.6654C35.0479 40.8778 36.1171 40.797 37.1038 40.4323C38.0905 40.0676 38.9551 39.4334 39.5995 38.602C40.2439 37.7705 40.6422 36.775 40.7492 35.7285C40.8563 34.682 40.6677 33.6265 40.2049 32.6818C39.7422 31.7371 39.0238 30.9411 38.1313 30.3842C37.2389 29.8273 36.2082 29.5318 35.1563 29.5312ZM35.1563 37.9688C34.6 37.9688 34.0562 37.8038 33.5937 37.4948C33.1312 37.1857 32.7707 36.7465 32.5578 36.2325C32.345 35.7186 32.2893 35.1531 32.3978 34.6076C32.5063 34.062 32.7742 33.5608 33.1675 33.1675C33.5609 32.7742 34.062 32.5063 34.6076 32.3978C35.1531 32.2893 35.7186 32.345 36.2326 32.5578C36.7465 32.7707 37.1857 33.1312 37.4948 33.5937C37.8038 34.0562 37.9688 34.6 37.9688 35.1562C37.9688 35.9022 37.6724 36.6175 37.145 37.145C36.6175 37.6724 35.9022 37.9688 35.1563 37.9688Z" fill="white"/>
</svg>
