<svg width="45" height="45" viewBox="0 0 45 45" fill="none" xmlns="http://www.w3.org/2000/svg">
<path opacity="0.2" d="M40.3698 17.2863L30.3028 27.3867C32.3173 31.4174 30.0005 35.448 28.5257 37.4062C28.4044 37.5655 28.2505 37.697 28.0743 37.7919C27.8981 37.8869 27.7037 37.9432 27.504 37.957C27.3043 37.9708 27.104 37.9418 26.9164 37.872C26.7289 37.8022 26.5583 37.6931 26.4163 37.5521L7.44246 18.5906C7.30244 18.4507 7.19352 18.2829 7.12282 18.098C7.05212 17.9132 7.02123 17.7155 7.03218 17.5179C7.04313 17.3203 7.09567 17.1272 7.18636 16.9513C7.27706 16.7754 7.40386 16.6206 7.55848 16.4971C12.7704 12.2924 17.6483 14.7392 17.6483 14.7392L27.7153 4.63885C27.979 4.37533 28.3366 4.22729 28.7094 4.22729C29.0822 4.22729 29.4397 4.37533 29.7034 4.63885L40.3698 15.293C40.5011 15.4236 40.6052 15.5789 40.6763 15.75C40.7474 15.921 40.784 16.1044 40.784 16.2896C40.784 16.4749 40.7474 16.6583 40.6763 16.8293C40.6052 17.0003 40.5011 17.1556 40.3698 17.2863Z" fill="white"/>
<path d="M41.3648 14.3033L30.6966 3.63686C30.4354 3.37562 30.1253 3.1684 29.7841 3.02702C29.4428 2.88563 29.077 2.81287 28.7076 2.81287C28.3382 2.81287 27.9725 2.88563 27.6312 3.02702C27.2899 3.1684 26.9798 3.37562 26.7187 3.63686L17.2915 13.0939C15.4177 12.5068 11.1392 11.7984 6.67433 15.4037C6.36658 15.6511 6.1144 15.9606 5.93419 16.312C5.75398 16.6634 5.64979 17.0488 5.6284 17.4431C5.60701 17.8374 5.66889 18.2318 5.81003 18.6006C5.95117 18.9695 6.1684 19.3044 6.44757 19.5837L14.9413 28.074L7.4425 35.5675C7.17863 35.8314 7.03039 36.1893 7.03039 36.5624C7.03039 36.9356 7.17863 37.2935 7.4425 37.5574C7.70637 37.8212 8.06425 37.9695 8.43742 37.9695C8.81059 37.9695 9.16847 37.8212 9.43234 37.5574L16.9259 30.0585L25.4144 38.547C25.6753 38.8091 25.9854 39.0171 26.3268 39.1591C26.6683 39.3012 27.0344 39.3745 27.4042 39.3749C27.471 39.3749 27.5361 39.3749 27.6028 39.3749C28.0038 39.3472 28.394 39.2334 28.7471 39.0414C29.1001 38.8494 29.4077 38.5837 29.6489 38.2622C33.1013 33.6744 32.7691 29.9443 31.9675 27.7154L41.3665 18.2812C41.6276 18.0199 41.8347 17.7097 41.976 17.3684C42.1172 17.0271 42.1898 16.6613 42.1896 16.2919C42.1895 15.9225 42.1165 15.5567 41.975 15.2155C41.8335 14.8743 41.6261 14.5643 41.3648 14.3033ZM39.3749 16.2931L29.3079 26.3935C29.1 26.6022 28.9629 26.8709 28.9159 27.1617C28.8689 27.4525 28.9144 27.7507 29.046 28.0142C30.7089 31.3417 28.7296 34.7976 27.4042 36.5607L8.43742 17.5921C10.5609 15.88 12.5929 15.4283 14.1468 15.4283C15.1328 15.4148 16.1107 15.6082 17.0173 15.996C17.2818 16.1284 17.5813 16.174 17.8732 16.1264C18.1651 16.0787 18.4346 15.9402 18.6433 15.7306L28.7085 5.62494L39.3749 16.2913V16.2931Z" fill="white"/>
</svg>
