<svg width="45" height="45" viewBox="0 0 45 45" fill="none" xmlns="http://www.w3.org/2000/svg">
<path opacity="0.2" d="M35.8594 29.5313C36.5889 29.5319 37.3094 29.3704 37.9688 29.0584V36.5626C37.9688 36.9355 37.8206 37.2932 37.5569 37.5569C37.2932 37.8206 36.9355 37.9688 36.5625 37.9688H11.25C10.8771 37.9688 10.5194 37.8206 10.2557 37.5569C9.99193 37.2932 9.84377 36.9355 9.84377 36.5626V29.0584C9.09359 29.4134 8.26584 29.5729 7.43748 29.5221C6.60912 29.4713 5.80706 29.2118 5.10587 28.7679C4.40469 28.3239 3.82714 27.7099 3.42695 26.9828C3.02675 26.2558 2.81689 25.4393 2.81689 24.6094C2.81689 23.7795 3.02675 22.9631 3.42695 22.236C3.82714 21.509 4.40469 20.8949 5.10587 20.451C5.80706 20.007 6.60912 19.7476 7.43748 19.6968C8.26584 19.646 9.09359 19.8055 9.84377 20.1604V12.6563C9.84377 12.2833 9.99193 11.9257 10.2557 11.6619C10.5194 11.3982 10.8771 11.25 11.25 11.25H19.4573C19.1019 10.4999 18.9421 9.67198 18.9927 8.84344C19.0432 8.01489 19.3025 7.21259 19.7464 6.51116C20.1903 5.80973 20.8044 5.23197 21.5315 4.83161C22.2587 4.43126 23.0753 4.22131 23.9054 4.22131C24.7355 4.22131 25.5521 4.43126 26.2792 4.83161C27.0064 5.23197 27.6205 5.80973 28.0644 6.51116C28.5083 7.21259 28.7676 8.01489 28.8181 8.84344C28.8687 9.67198 28.7089 10.4999 28.3535 11.25H36.5625C36.9355 11.25 37.2932 11.3982 37.5569 11.6619C37.8206 11.9257 37.9688 12.2833 37.9688 12.6563V20.1604C37.3018 19.8449 36.5725 19.6833 35.8347 19.6876C35.0969 19.692 34.3696 19.8622 33.7064 20.1856C33.0433 20.509 32.4613 20.9773 32.0036 21.556C31.5458 22.1346 31.2241 22.8088 31.062 23.5286C30.9 24.2484 30.9019 24.9954 31.0675 25.7143C31.2332 26.4333 31.5583 27.1059 32.0189 27.6822C32.4795 28.2586 33.0638 28.724 33.7286 29.0441C34.3934 29.3641 35.1216 29.5306 35.8594 29.5313Z" fill="white"/>
<path d="M38.7192 27.8683C38.5187 27.7419 38.2895 27.6681 38.0529 27.654C37.8162 27.6399 37.5798 27.6858 37.3657 27.7875C36.8299 28.0409 36.2386 28.1547 35.647 28.1184C35.0554 28.082 34.4826 27.8966 33.9818 27.5795C33.481 27.2624 33.0685 26.8238 32.7827 26.3045C32.4969 25.7852 32.347 25.2021 32.347 24.6094C32.347 24.0166 32.4969 23.4335 32.7827 22.9142C33.0685 22.3949 33.481 21.9563 33.9818 21.6392C34.4826 21.3221 35.0554 21.1367 35.647 21.1004C36.2386 21.064 36.8299 21.1778 37.3657 21.4312C37.5801 21.533 37.8167 21.5788 38.0536 21.5645C38.2905 21.5501 38.5198 21.4761 38.7204 21.3492C38.9209 21.2224 39.0861 21.0469 39.2006 20.839C39.315 20.6311 39.375 20.3976 39.3749 20.1603V12.6562C39.3749 11.9103 39.0786 11.1949 38.5511 10.6675C38.0237 10.14 37.3083 9.84373 36.5624 9.84373H30.1956C30.2218 9.61028 30.2347 9.37553 30.2343 9.14061C30.2328 8.2761 30.0549 7.42098 29.7116 6.62758C29.3682 5.83418 28.8666 5.11919 28.2374 4.52635C27.3659 3.70787 26.2803 3.15303 25.1065 2.92608C23.9326 2.69914 22.7185 2.80939 21.6047 3.24405C20.4909 3.67871 19.523 4.42 18.8132 5.38207C18.1033 6.34414 17.6806 7.48762 17.5938 8.68006C17.5668 9.0679 17.5751 9.45739 17.6184 9.84373H11.2499C10.504 9.84373 9.7886 10.14 9.26115 10.6675C8.7337 11.1949 8.43739 11.9103 8.43739 12.6562V18.3199C8.20393 18.2937 7.96918 18.2808 7.73426 18.2812C6.87 18.2826 6.01513 18.4605 5.222 18.8038C4.42888 19.1472 3.71421 19.6489 3.12176 20.2781C2.52507 20.9084 2.06561 21.6556 1.77243 22.4725C1.47925 23.2895 1.35871 24.1583 1.41844 25.0242C1.51922 26.5489 2.16705 27.9859 3.24282 29.0711C4.3186 30.1562 5.74997 30.8165 7.27372 30.9305C7.66155 30.9575 8.05104 30.9492 8.43739 30.9058V36.5625C8.43739 37.3084 8.7337 38.0238 9.26115 38.5512C9.7886 39.0787 10.504 39.375 11.2499 39.375H36.5624C37.3083 39.375 38.0237 39.0787 38.5511 38.5512C39.0786 38.0238 39.3749 37.3084 39.3749 36.5625V29.0584C39.375 28.8208 39.315 28.587 39.2003 28.3789C39.0857 28.1708 38.9201 27.9952 38.7192 27.8683ZM36.5624 36.5625H11.2499V29.0584C11.25 28.8211 11.19 28.5876 11.0756 28.3797C10.9611 28.1719 10.7959 27.9963 10.5954 27.8695C10.3948 27.7426 10.1655 27.6686 9.92859 27.6542C9.69173 27.6399 9.45509 27.6857 9.24071 27.7875C8.70487 28.0409 8.11365 28.1547 7.52202 28.1184C6.93039 28.082 6.35756 27.8966 5.85678 27.5795C5.356 27.2624 4.94353 26.8238 4.65772 26.3045C4.37191 25.7852 4.22204 25.2021 4.22204 24.6094C4.22204 24.0166 4.37191 23.4335 4.65772 22.9142C4.94353 22.3949 5.356 21.9563 5.85678 21.6392C6.35756 21.3221 6.93039 21.1367 7.52202 21.1004C8.11365 21.064 8.70487 21.1778 9.24071 21.4312C9.45509 21.533 9.69173 21.5788 9.92859 21.5645C10.1655 21.5501 10.3948 21.4761 10.5954 21.3492C10.7959 21.2224 10.9611 21.0469 11.0756 20.839C11.19 20.6311 11.25 20.3976 11.2499 20.1603V12.6562H19.4571C19.6944 12.6563 19.9279 12.5963 20.1358 12.4819C20.3436 12.3675 20.5192 12.2023 20.646 12.0017C20.7729 11.8012 20.8469 11.5718 20.8613 11.3349C20.8756 11.0981 20.8298 10.8614 20.728 10.6471C20.4746 10.1112 20.3608 9.51999 20.3971 8.92836C20.4335 8.33673 20.6188 7.7639 20.936 7.26312C21.2531 6.76234 21.6917 6.34988 22.211 6.06407C22.7303 5.77826 23.3134 5.62839 23.9061 5.62839C24.4989 5.62839 25.082 5.77826 25.6013 6.06407C26.1206 6.34988 26.5592 6.76234 26.8763 7.26312C27.1934 7.7639 27.3788 8.33673 27.4151 8.92836C27.4515 9.51999 27.3377 10.1112 27.0843 10.6471C26.9825 10.8614 26.9367 11.0981 26.951 11.3349C26.9654 11.5718 27.0394 11.8012 27.1663 12.0017C27.2931 12.2023 27.4686 12.3675 27.6765 12.4819C27.8844 12.5963 28.1179 12.6563 28.3552 12.6562H36.5624V18.3217C36.1761 18.2774 35.7865 18.2692 35.3987 18.2971C33.762 18.4129 32.2344 19.16 31.1379 20.3807C30.0415 21.6013 29.462 23.2001 29.5218 24.8398C29.5815 26.4795 30.2758 28.0319 31.4581 29.1695C32.6405 30.3071 34.2185 30.941 35.8593 30.9375C36.0942 30.9379 36.3289 30.925 36.5624 30.8988V36.5625Z" fill="white"/>
</svg>
