<svg width="45" height="45" viewBox="0 0 45 45" fill="none" xmlns="http://www.w3.org/2000/svg">
<path opacity="0.2" d="M32.3437 21.0938V31.9307C32.3435 32.3031 32.1956 32.6603 31.9323 32.9238L25.8942 38.9619C25.7095 39.1463 25.4771 39.2756 25.223 39.3353C24.9689 39.3951 24.7032 39.383 24.4557 39.3003C24.2081 39.2177 23.9884 39.0678 23.8212 38.8674C23.654 38.667 23.5459 38.424 23.5089 38.1656L22.4999 30.9375L32.3437 21.0938ZM23.9062 12.6562H13.0692C12.6968 12.6564 12.3396 12.8044 12.0761 13.0676L6.03799 19.1057C5.85364 19.2904 5.72434 19.5228 5.66457 19.7769C5.6048 20.031 5.61691 20.2967 5.69956 20.5442C5.7822 20.7918 5.93212 21.0115 6.13252 21.1787C6.33292 21.3459 6.57591 21.454 6.83428 21.491L14.0624 22.5L23.9062 12.6562ZM7.03115 37.9688C13.6493 37.9688 15.9415 34.5076 16.6218 33.0152L11.9847 28.3781C10.4923 29.0584 7.03115 31.3506 7.03115 37.9688Z" fill="white"/>
<path d="M39.3486 8.28275C39.3069 7.59708 39.0158 6.95036 38.53 6.46462C38.0443 5.97888 37.3976 5.6877 36.7119 5.64604C34.5006 5.5142 28.8492 5.71635 24.1594 10.4044L23.3244 11.2499H13.0711C12.7003 11.2479 12.3328 11.3195 11.99 11.4607C11.6472 11.602 11.3359 11.81 11.0742 12.0726L5.0449 18.1054C4.67514 18.4749 4.41568 18.9402 4.29563 19.4489C4.17558 19.9577 4.1997 20.4899 4.36528 20.9857C4.53086 21.4815 4.83134 21.9214 5.23301 22.2559C5.63468 22.5905 6.12164 22.8065 6.63923 22.8796L13.4015 23.8236L21.1728 31.5949L22.1168 38.3607C22.1894 38.8783 22.4053 39.3653 22.7401 39.7666C23.075 40.168 23.5155 40.4676 24.0117 40.6318C24.3007 40.7283 24.6034 40.7776 24.9082 40.7777C25.2772 40.7784 25.6426 40.706 25.9836 40.5648C26.3245 40.4237 26.6341 40.2164 26.8945 39.955L32.9273 33.9257C33.19 33.664 33.398 33.3527 33.5392 33.0099C33.6804 32.6671 33.7521 32.2996 33.75 31.9289V21.6755L34.5885 20.8371C39.2783 16.1472 39.4804 10.4958 39.3486 8.28275ZM13.0711 14.0624H20.5119L13.5633 21.0093L7.03123 20.0988L13.0711 14.0624ZM26.151 12.4013C27.5022 11.0417 29.1281 9.98609 30.9199 9.30495C32.7117 8.62382 34.6282 8.33286 36.5414 8.4515C36.6646 10.3657 36.3767 12.2842 35.6969 14.0778C35.0171 15.8715 33.9613 17.499 32.6004 18.8507L22.5 28.9476L16.0523 22.4999L26.151 12.4013ZM30.9375 31.9289L24.9029 37.9687L23.9906 31.4349L30.9375 24.488V31.9289ZM17.9015 33.5988C17.1105 35.332 14.465 39.3749 7.03123 39.3749C6.65827 39.3749 6.30058 39.2268 6.03686 38.9631C5.77313 38.6993 5.62498 38.3417 5.62498 37.9687C5.62498 30.5349 9.66795 27.8894 11.4011 27.0966C11.5692 27.02 11.7507 26.9772 11.9353 26.9707C12.1199 26.9642 12.3039 26.9941 12.477 27.0588C12.65 27.1234 12.8086 27.2215 12.9437 27.3474C13.0788 27.4734 13.1878 27.6247 13.2644 27.7927C13.3411 27.9608 13.3839 28.1423 13.3904 28.3269C13.3968 28.5114 13.3669 28.6955 13.3023 28.8685C13.2376 29.0415 13.1396 29.2001 13.0136 29.3353C12.8877 29.4704 12.7364 29.5794 12.5683 29.656C11.4381 30.171 8.94373 31.8287 8.50427 36.4956C13.1713 36.0562 14.8324 33.5619 15.3439 32.4316C15.4206 32.2635 15.5295 32.1122 15.6647 31.9863C15.7998 31.8604 15.9584 31.7623 16.1314 31.6976C16.3044 31.633 16.4885 31.6031 16.6731 31.6096C16.8577 31.6161 17.0392 31.6589 17.2072 31.7355C17.3753 31.8121 17.5266 31.9211 17.6525 32.0562C17.7784 32.1913 17.8765 32.3499 17.9411 32.523C18.0058 32.696 18.0357 32.88 18.0292 33.0646C18.0227 33.2492 17.9799 33.4307 17.9033 33.5988H17.9015Z" fill="white"/>
</svg>
