<svg width="45" height="45" viewBox="0 0 45 45" fill="none" xmlns="http://www.w3.org/2000/svg">
<path opacity="0.2" d="M35.1562 30.9375H18.2812C18.2812 30.9375 19.6875 31.9922 19.6875 33.75C19.6875 34.8689 19.243 35.9419 18.4519 36.7331C17.6607 37.5243 16.5876 37.9688 15.4688 37.9688C14.3499 37.9688 13.2768 37.5243 12.4856 36.7331C11.6945 35.9419 11.25 34.8689 11.25 33.75V11.25C11.25 10.1311 10.8055 9.05806 10.0144 8.26689C9.22319 7.47572 8.15013 7.03125 7.03125 7.03125H30.9375C32.0564 7.03125 33.1294 7.47572 33.9206 8.26689C34.7118 9.05806 35.1562 10.1311 35.1562 11.25V30.9375Z" fill="white"/>
<path d="M16.875 18.2812C16.875 17.9083 17.0232 17.5506 17.2869 17.2869C17.5506 17.0232 17.9083 16.875 18.2812 16.875H29.5312C29.9042 16.875 30.2619 17.0232 30.5256 17.2869C30.7893 17.5506 30.9375 17.9083 30.9375 18.2812C30.9375 18.6542 30.7893 19.0119 30.5256 19.2756C30.2619 19.5393 29.9042 19.6875 29.5312 19.6875H18.2812C17.9083 19.6875 17.5506 19.5393 17.2869 19.2756C17.0232 19.0119 16.875 18.6542 16.875 18.2812ZM18.2812 25.3125H29.5312C29.9042 25.3125 30.2619 25.1643 30.5256 24.9006C30.7893 24.6369 30.9375 24.2792 30.9375 23.9062C30.9375 23.5333 30.7893 23.1756 30.5256 22.9119C30.2619 22.6482 29.9042 22.5 29.5312 22.5H18.2812C17.9083 22.5 17.5506 22.6482 17.2869 22.9119C17.0232 23.1756 16.875 23.5333 16.875 23.9062C16.875 24.2792 17.0232 24.6369 17.2869 24.9006C17.5506 25.1643 17.9083 25.3125 18.2812 25.3125ZM40.7812 33.75C40.7812 35.2418 40.1886 36.6726 39.1337 37.7275C38.0788 38.7824 36.6481 39.375 35.1562 39.375H15.4688C13.9769 39.375 12.5462 38.7824 11.4913 37.7275C10.4364 36.6726 9.84375 35.2418 9.84375 33.75V11.25C9.84375 10.5041 9.54743 9.78871 9.01999 9.26126C8.49254 8.73382 7.77717 8.4375 7.03125 8.4375C6.28533 8.4375 5.56996 8.73382 5.04251 9.26126C4.51507 9.78871 4.21875 10.5041 4.21875 11.25C4.21875 12.259 5.06777 12.941 5.07656 12.948C5.3093 13.1272 5.48012 13.3746 5.56507 13.6557C5.65001 13.9369 5.64482 14.2375 5.5502 14.5155C5.45559 14.7936 5.27632 15.035 5.03753 15.2059C4.79874 15.3769 4.51242 15.4688 4.21875 15.4688C3.91465 15.4693 3.6188 15.3698 3.37676 15.1857C3.17285 15.0363 1.40625 13.6424 1.40625 11.25C1.40625 9.75816 1.99888 8.32742 3.05377 7.27252C4.10867 6.21763 5.53941 5.625 7.03125 5.625H30.9375C32.4293 5.625 33.8601 6.21763 34.915 7.27252C35.9699 8.32742 36.5625 9.75816 36.5625 11.25V29.5312H37.9688C38.273 29.5312 38.5691 29.6299 38.8125 29.8125C39.0234 29.9637 40.7812 31.3576 40.7812 33.75ZM16.9207 30.4945C17.0168 30.2109 17.2002 29.965 17.4445 29.7919C17.6889 29.6189 17.9818 29.5277 18.2812 29.5312H33.75V11.25C33.75 10.5041 33.4537 9.78871 32.9262 9.26126C32.3988 8.73382 31.6834 8.4375 30.9375 8.4375H11.8986C12.396 9.29128 12.6575 10.2619 12.6562 11.25V33.75C12.6562 34.4959 12.9526 35.2113 13.48 35.7387C14.0075 36.2662 14.7228 36.5625 15.4688 36.5625C16.2147 36.5625 16.93 36.2662 17.4575 35.7387C17.9849 35.2113 18.2812 34.4959 18.2812 33.75C18.2812 32.741 17.4322 32.059 17.4234 32.052C17.1838 31.8805 17.0056 31.6366 16.915 31.3562C16.8245 31.0758 16.8265 30.7737 16.9207 30.4945ZM37.9688 33.75C37.9512 33.229 37.7501 32.7309 37.401 32.3438H20.8775C21.0189 32.7991 21.0906 33.2732 21.0902 33.75C21.0916 34.7376 20.8314 35.708 20.3361 36.5625H35.1562C35.9022 36.5625 36.6175 36.2662 37.145 35.7387C37.6724 35.2113 37.9688 34.4959 37.9688 33.75Z" fill="white"/>
</svg>
