<svg width="45" height="45" viewBox="0 0 45 45" fill="none" xmlns="http://www.w3.org/2000/svg">
<path opacity="0.2" d="M26.7187 33.75V25.3125C15.9257 25.3125 8.33024 31.8498 5.43688 34.9313C5.33598 35.0395 5.20352 35.1131 5.05834 35.1417C4.91317 35.1702 4.76268 35.1523 4.62831 35.0903C4.49394 35.0284 4.38252 34.9257 4.30993 34.7967C4.23734 34.6678 4.20726 34.5193 4.22399 34.3723C5.53884 22.9307 17.4357 14.0625 26.7187 14.0625V5.625L40.7812 19.6875L26.7187 33.75Z" fill="white"/>
<path d="M41.7761 18.6943L27.7136 4.6318C27.517 4.43501 27.2665 4.30094 26.9937 4.24653C26.721 4.19212 26.4382 4.21982 26.1812 4.32613C25.9241 4.43244 25.7044 4.61258 25.5498 4.84377C25.3951 5.07496 25.3125 5.34682 25.3124 5.62496V12.7177C20.7526 13.108 15.7165 15.3404 11.5733 18.8543C6.58466 23.0871 3.4786 28.5416 2.82646 34.2123C2.77549 34.6531 2.86488 35.0988 3.08191 35.486C3.29893 35.8731 3.63253 36.1819 4.03523 36.3685C4.43792 36.555 4.8892 36.6098 5.32484 36.525C5.76047 36.4402 6.15827 36.2202 6.46161 35.8962C8.39521 33.8378 15.2753 27.3287 25.3124 26.7556V33.75C25.3125 34.0281 25.3951 34.3 25.5498 34.5311C25.7044 34.7623 25.9241 34.9425 26.1812 35.0488C26.4382 35.1551 26.721 35.1828 26.9937 35.1284C27.2665 35.074 27.517 34.9399 27.7136 34.7431L41.7761 20.6806C42.0391 20.417 42.1867 20.0598 42.1867 19.6875C42.1867 19.3151 42.0391 18.9579 41.7761 18.6943ZM28.1249 30.3556V25.3125C28.1249 24.9395 27.9767 24.5818 27.713 24.3181C27.4493 24.0544 27.0916 23.9062 26.7186 23.9062C21.7827 23.9062 16.9751 25.1947 12.4294 27.7382C10.1142 29.0394 7.95718 30.6037 6.00106 32.4C7.0206 28.2093 9.59052 24.2244 13.3927 20.9988C17.4743 17.5377 22.4559 15.4687 26.7186 15.4687C27.0916 15.4687 27.4493 15.3205 27.713 15.0568C27.9767 14.7931 28.1249 14.4354 28.1249 14.0625V9.02105L38.7931 19.6875L28.1249 30.3556Z" fill="white"/>
</svg>
