<svg width="45" height="45" viewBox="0 0 45 45" fill="none" xmlns="http://www.w3.org/2000/svg">
<path opacity="0.2" d="M37.9688 9.84375V19.6875C37.9688 36.5625 22.5 40.7812 22.5 40.7812C22.5 40.7812 7.03125 36.5625 7.03125 19.6875V9.84375C7.03125 9.47079 7.17941 9.1131 7.44313 8.84938C7.70685 8.58566 8.06454 8.4375 8.4375 8.4375H36.5625C36.9355 8.4375 37.2931 8.58566 37.5569 8.84938C37.8206 9.1131 37.9688 9.47079 37.9688 9.84375Z" fill="white"/>
<path d="M36.5625 7.03125H8.4375C7.69158 7.03125 6.97621 7.32757 6.44876 7.85501C5.92132 8.38246 5.625 9.09783 5.625 9.84375V19.6875C5.625 28.9547 10.1109 34.5709 13.8744 37.6506C17.9279 40.9658 21.9604 42.0908 22.1361 42.1383C22.3778 42.204 22.6327 42.204 22.8744 42.1383C23.0502 42.0908 27.0773 40.9658 31.1361 37.6506C34.8891 34.5709 39.375 28.9547 39.375 19.6875V9.84375C39.375 9.09783 39.0787 8.38246 38.5512 7.85501C38.0238 7.32757 37.3084 7.03125 36.5625 7.03125ZM36.5625 19.6875C36.5625 26.2037 34.1613 31.493 29.4258 35.4059C27.3644 37.1034 25.0199 38.4244 22.5 39.3082C20.0131 38.4398 17.6976 37.1422 15.6586 35.4744C10.8668 31.5545 8.4375 26.2441 8.4375 19.6875V9.84375H36.5625V19.6875ZM14.4738 24.9012C14.21 24.6373 14.0617 24.2794 14.0617 23.9062C14.0617 23.5331 14.21 23.1752 14.4738 22.9113C14.7377 22.6475 15.0956 22.4992 15.4688 22.4992C15.8419 22.4992 16.1998 22.6475 16.4637 22.9113L19.6875 26.1369L28.5363 17.2863C28.667 17.1557 28.8221 17.052 28.9928 16.9813C29.1635 16.9106 29.3465 16.8742 29.5312 16.8742C29.716 16.8742 29.899 16.9106 30.0697 16.9813C30.2404 17.052 30.3955 17.1557 30.5262 17.2863C30.6568 17.417 30.7605 17.5721 30.8312 17.7428C30.9019 17.9135 30.9383 18.0965 30.9383 18.2812C30.9383 18.466 30.9019 18.649 30.8312 18.8197C30.7605 18.9904 30.6568 19.1455 30.5262 19.2762L20.6824 29.1199C20.5518 29.2507 20.3967 29.3544 20.226 29.4252C20.0553 29.4959 19.8723 29.5324 19.6875 29.5324C19.5027 29.5324 19.3197 29.4959 19.149 29.4252C18.9783 29.3544 18.8232 29.2507 18.6926 29.1199L14.4738 24.9012Z" fill="white"/>
</svg>
