<svg width="45" height="45" viewBox="0 0 45 45" fill="none" xmlns="http://www.w3.org/2000/svg">
<path opacity="0.2" d="M40.7814 26.7188C40.7836 28.792 40.4329 30.8505 39.7443 32.8061C39.6482 33.0822 39.4683 33.3215 39.2298 33.4907C38.9914 33.6599 38.706 33.7505 38.4136 33.75H6.58493C6.29197 33.7487 6.00663 33.6566 5.76828 33.4862C5.52994 33.3159 5.35034 33.0758 5.25426 32.799C4.55139 30.8004 4.20106 28.6949 4.21891 26.5764C4.29625 16.5234 12.6089 8.34785 22.6759 8.4375C27.4939 8.48383 32.0988 10.4303 35.4893 13.8537C38.8797 17.2771 40.7816 21.9006 40.7814 26.7188Z" fill="white"/>
<path d="M20.0988 27.1301L36.9738 10.2551C37.1045 10.1244 37.2596 10.0208 37.4303 9.95007C37.601 9.87936 37.7839 9.84297 37.9687 9.84297C38.1535 9.84297 38.3365 9.87936 38.5072 9.95007C38.6779 10.0208 38.833 10.1244 38.9636 10.2551C39.0943 10.3857 39.1979 10.5408 39.2686 10.7116C39.3394 10.8823 39.3758 11.0652 39.3758 11.25C39.3758 11.4348 39.3394 11.6177 39.2686 11.7884C39.1979 11.9592 39.0943 12.1143 38.9636 12.2449L22.0886 29.1199C21.958 29.2506 21.8029 29.3542 21.6322 29.4249C21.4615 29.4956 21.2785 29.532 21.0937 29.532C20.9089 29.532 20.726 29.4956 20.5553 29.4249C20.3846 29.3542 20.2294 29.2506 20.0988 29.1199C19.9681 28.9893 19.8645 28.8342 19.7938 28.6634C19.7231 28.4927 19.6867 28.3098 19.6867 28.125C19.6867 27.9402 19.7231 27.7573 19.7938 27.5866C19.8645 27.4158 19.9681 27.2607 20.0988 27.1301ZM22.5 15.4688C23.7215 15.4672 24.9351 15.6649 26.0929 16.0541C26.2687 16.1164 26.4552 16.1432 26.6414 16.1327C26.8276 16.1223 27.0099 16.075 27.1777 15.9934C27.3454 15.9119 27.4953 15.7978 27.6185 15.6578C27.7417 15.5177 27.8359 15.3546 27.8954 15.1779C27.955 15.0011 27.9788 14.8143 27.9655 14.6282C27.9522 14.4422 27.902 14.2607 27.8178 14.0942C27.7337 13.9278 27.6173 13.7797 27.4753 13.6587C27.3334 13.5377 27.1688 13.4461 26.9912 13.3893C24.7502 12.6338 22.3548 12.4556 20.0268 12.8714C17.6987 13.2871 15.513 14.2832 13.672 15.7676C11.831 17.2521 10.3941 19.1768 9.49415 21.3638C8.59425 23.5508 8.26044 25.9295 8.5236 28.2797C8.56164 28.6234 8.72501 28.9411 8.98248 29.172C9.23995 29.4028 9.57347 29.5308 9.9193 29.5312C9.97028 29.5312 10.023 29.5312 10.0757 29.5225C10.4463 29.4814 10.7855 29.2948 11.0185 29.0037C11.2516 28.7126 11.3595 28.3409 11.3185 27.9703C11.2728 27.5547 11.2499 27.1369 11.25 26.7188C11.2532 23.7361 12.4395 20.8765 14.5486 18.7674C16.6577 16.6583 19.5173 15.472 22.5 15.4688ZM40.0324 17.7539C39.9481 17.5895 39.8323 17.4434 39.6916 17.3238C39.5508 17.2042 39.3879 17.1135 39.2121 17.0568C39.0363 17.0002 38.8511 16.9787 38.667 16.9937C38.4829 17.0086 38.3036 17.0597 38.1392 17.1439C37.9749 17.2282 37.8287 17.344 37.7091 17.4847C37.5895 17.6255 37.4988 17.7884 37.4422 17.9642C37.3855 18.14 37.3641 18.3252 37.379 18.5093C37.394 18.6934 37.445 18.8728 37.5293 19.0371C38.5697 21.0802 39.184 23.3133 39.3351 25.6011C39.4862 27.8888 39.1708 30.1834 38.4082 32.3455L6.57418 32.3332C5.68601 29.7872 5.41928 27.0658 5.79624 24.3959C6.17319 21.7259 7.18291 19.1847 8.74123 16.9842C10.2995 14.7836 12.3613 12.9874 14.7546 11.7454C17.148 10.5033 19.8035 9.85129 22.5 9.84375H22.6547C25.2737 9.86022 27.8521 10.4925 30.1816 11.6895C30.3464 11.7802 30.5277 11.8369 30.7149 11.8562C30.902 11.8756 31.0911 11.8572 31.271 11.8022C31.4509 11.7472 31.6179 11.6566 31.7622 11.5359C31.9064 11.4152 32.025 11.2667 32.1109 11.0993C32.1967 10.932 32.2481 10.7491 32.262 10.5614C32.276 10.3738 32.2521 10.1854 32.1918 10.0071C32.1316 9.82893 32.0362 9.66462 31.9113 9.52393C31.7865 9.38324 31.6346 9.26904 31.4648 9.18809C28.7451 7.78903 25.7341 7.05014 22.6757 7.03125H22.5C19.352 7.0325 16.2501 7.78829 13.4544 9.23527C10.6587 10.6823 8.25048 12.7783 6.43167 15.3477C4.61286 17.9171 3.43641 20.885 3.00091 24.0027C2.56542 27.1205 2.88356 30.2972 3.92868 33.2666C4.12191 33.8174 4.48103 34.2948 4.95664 34.6332C5.43226 34.9716 6.00103 35.1543 6.58473 35.1562H38.4134C38.9967 35.1566 39.5657 34.9756 40.0416 34.6383C40.5174 34.301 40.8767 33.8241 41.0695 33.2736C41.9564 30.751 42.3218 28.0745 42.1436 25.4065C41.9653 22.7384 41.2471 20.1344 40.0324 17.7521V17.7539Z" fill="white"/>
</svg>
