<svg width="45" height="45" viewBox="0 0 45 45" fill="none" xmlns="http://www.w3.org/2000/svg">
<path opacity="0.2" d="M14.0625 8.4375V26.7188H5.625C5.25204 26.7188 4.89435 26.5706 4.63063 26.3069C4.36691 26.0431 4.21875 25.6855 4.21875 25.3125V9.84375C4.21875 9.47079 4.36691 9.1131 4.63063 8.84938C4.89435 8.58566 5.25204 8.4375 5.625 8.4375H14.0625Z" fill="white"/>
<path d="M42.1559 27.5977L40.0465 10.7227C39.918 9.70292 39.4217 8.76515 38.6507 8.08546C37.8798 7.40576 36.8872 7.0309 35.8594 7.03125H5.625C4.87908 7.03125 4.16371 7.32757 3.63626 7.85501C3.10882 8.38246 2.8125 9.09783 2.8125 9.84375V25.3125C2.8125 26.0584 3.10882 26.7738 3.63626 27.3012C4.16371 27.8287 4.87908 28.125 5.625 28.125H13.1941L19.8352 41.4105C19.9521 41.6442 20.1317 41.8406 20.3541 41.9779C20.5764 42.1151 20.8325 42.1877 21.0938 42.1875C22.9586 42.1875 24.747 41.4467 26.0656 40.1281C27.3842 38.8095 28.125 37.0211 28.125 35.1562V32.3438H37.9688C38.5674 32.344 39.1593 32.2167 39.705 31.9706C40.2507 31.7244 40.7377 31.3649 41.1338 30.916C41.5298 30.4671 41.8258 29.939 42.002 29.3668C42.1783 28.7947 42.2307 28.1916 42.1559 27.5977ZM12.6562 25.3125H5.625V9.84375H12.6562V25.3125ZM39.0234 29.0549C38.8924 29.2056 38.7303 29.3263 38.5482 29.4085C38.3662 29.4907 38.1685 29.5326 37.9688 29.5312H26.7188C26.3458 29.5312 25.9881 29.6794 25.7244 29.9431C25.4607 30.2069 25.3125 30.5645 25.3125 30.9375V35.1562C25.3128 36.1316 24.9751 37.077 24.3568 37.8314C23.7386 38.5858 22.8781 39.1027 21.9217 39.2941L15.4688 26.3865V9.84375H35.8594C36.202 9.84363 36.5328 9.96859 36.7898 10.1952C37.0468 10.4217 37.2123 10.7343 37.2551 11.0742L39.3645 27.9492C39.3908 28.1472 39.374 28.3486 39.3151 28.5394C39.2562 28.7303 39.1567 28.9061 39.0234 29.0549Z" fill="white"/>
</svg>
