<svg width="45" height="45" viewBox="0 0 45 45" fill="none" xmlns="http://www.w3.org/2000/svg">
<path opacity="0.2" d="M18.2812 5.625V11.25C18.2812 11.623 18.1331 11.9806 17.8694 12.2444C17.6056 12.5081 17.248 12.6562 16.875 12.6562H11.25C10.877 12.6562 10.5194 12.5081 10.2556 12.2444C9.99191 11.9806 9.84375 11.623 9.84375 11.25V5.625C9.84375 5.25204 9.99191 4.89435 10.2556 4.63063C10.5194 4.36691 10.877 4.21875 11.25 4.21875H16.875C17.248 4.21875 17.6056 4.36691 17.8694 4.63063C18.1331 4.89435 18.2812 5.25204 18.2812 5.625ZM36.5625 16.875H30.9375C30.5645 16.875 30.2069 17.0232 29.9431 17.2869C29.6794 17.5506 29.5312 17.9083 29.5312 18.2812V23.9062C29.5312 24.2792 29.6794 24.6369 29.9431 24.9006C30.2069 25.1643 30.5645 25.3125 30.9375 25.3125H36.5625C36.9355 25.3125 37.2931 25.1643 37.5569 24.9006C37.8206 24.6369 37.9688 24.2792 37.9688 23.9062V18.2812C37.9688 17.9083 37.8206 17.5506 37.5569 17.2869C37.2931 17.0232 36.9355 16.875 36.5625 16.875ZM36.5625 32.3438H30.9375C30.5645 32.3438 30.2069 32.4919 29.9431 32.7556C29.6794 33.0194 29.5312 33.377 29.5312 33.75V39.375C29.5312 39.748 29.6794 40.1056 29.9431 40.3694C30.2069 40.6331 30.5645 40.7812 30.9375 40.7812H36.5625C36.9355 40.7812 37.2931 40.6331 37.5569 40.3694C37.8206 40.1056 37.9688 39.748 37.9688 39.375V33.75C37.9688 33.377 37.8206 33.0194 37.5569 32.7556C37.2931 32.4919 36.9355 32.3438 36.5625 32.3438Z" fill="white"/>
<path d="M30.9375 26.7188H36.5625C37.3084 26.7188 38.0238 26.4224 38.5512 25.895C39.0787 25.3675 39.375 24.6522 39.375 23.9062V18.2812C39.375 17.5353 39.0787 16.82 38.5512 16.2925C38.0238 15.7651 37.3084 15.4688 36.5625 15.4688H30.9375C30.1916 15.4688 29.4762 15.7651 28.9488 16.2925C28.4213 16.82 28.125 17.5353 28.125 18.2812V19.6875H15.4688V14.0625H16.875C17.6209 14.0625 18.3363 13.7662 18.8637 13.2387C19.3912 12.7113 19.6875 11.9959 19.6875 11.25V5.625C19.6875 4.87908 19.3912 4.16371 18.8637 3.63626C18.3363 3.10882 17.6209 2.8125 16.875 2.8125H11.25C10.5041 2.8125 9.78871 3.10882 9.26126 3.63626C8.73382 4.16371 8.4375 4.87908 8.4375 5.625V11.25C8.4375 11.9959 8.73382 12.7113 9.26126 13.2387C9.78871 13.7662 10.5041 14.0625 11.25 14.0625H12.6562V33.75C12.6562 34.8689 13.1007 35.9419 13.8919 36.7331C14.6831 37.5243 15.7561 37.9687 16.875 37.9688H28.125V39.375C28.125 40.1209 28.4213 40.8363 28.9488 41.3637C29.4762 41.8912 30.1916 42.1875 30.9375 42.1875H36.5625C37.3084 42.1875 38.0238 41.8912 38.5512 41.3637C39.0787 40.8363 39.375 40.1209 39.375 39.375V33.75C39.375 33.0041 39.0787 32.2887 38.5512 31.7613C38.0238 31.2338 37.3084 30.9375 36.5625 30.9375H30.9375C30.1916 30.9375 29.4762 31.2338 28.9488 31.7613C28.4213 32.2887 28.125 33.0041 28.125 33.75V35.1562H16.875C16.502 35.1562 16.1444 35.0081 15.8806 34.7444C15.6169 34.4806 15.4688 34.123 15.4688 33.75V22.5H28.125V23.9062C28.125 24.6522 28.4213 25.3675 28.9488 25.895C29.4762 26.4224 30.1916 26.7188 30.9375 26.7188ZM11.25 5.625H16.875V11.25H11.25V5.625ZM30.9375 33.75H36.5625V39.375H30.9375V33.75ZM30.9375 18.2812H36.5625V23.9062H30.9375V18.2812Z" fill="white"/>
</svg>
