<svg width="45" height="45" viewBox="0 0 45 45" fill="none" xmlns="http://www.w3.org/2000/svg">
<path opacity="0.2" d="M40.7812 9.84375V21.0938L29.5312 9.84375H40.7812Z" fill="white"/>
<path d="M40.7811 8.4375H29.5311C29.2528 8.43728 28.9807 8.51964 28.7492 8.67414C28.5177 8.82865 28.3373 9.04836 28.2308 9.30545C28.1243 9.56255 28.0964 9.84547 28.1508 10.1184C28.2051 10.3913 28.3392 10.642 28.5361 10.8387L33.168 15.4688L23.9061 24.7307L17.8697 18.6926C17.7391 18.5618 17.584 18.4581 17.4133 18.3873C17.2426 18.3166 17.0596 18.2801 16.8748 18.2801C16.69 18.2801 16.507 18.3166 16.3363 18.3873C16.1656 18.4581 16.0105 18.5618 15.8799 18.6926L3.22363 31.3488C2.95976 31.6127 2.81152 31.9706 2.81152 32.3437C2.81152 32.7169 2.95976 33.0748 3.22363 33.3387C3.4875 33.6025 3.84539 33.7508 4.21856 33.7508C4.59172 33.7508 4.94961 33.6025 5.21348 33.3387L16.8748 21.6756L22.9111 27.7137C23.0417 27.8444 23.1968 27.9481 23.3675 28.0189C23.5383 28.0897 23.7213 28.1261 23.9061 28.1261C24.0909 28.1261 24.2738 28.0897 24.4446 28.0189C24.6153 27.9481 24.7704 27.8444 24.901 27.7137L35.1561 17.4568L39.7861 22.0887C39.9828 22.2856 40.2335 22.4197 40.5064 22.474C40.7793 22.5284 41.0623 22.5005 41.3194 22.394C41.5764 22.2875 41.7962 22.1071 41.9507 21.8756C42.1052 21.6441 42.1875 21.372 42.1873 21.0937V9.84375C42.1873 9.47079 42.0391 9.1131 41.7754 8.84938C41.5117 8.58566 41.154 8.4375 40.7811 8.4375ZM39.3748 17.6994L32.9254 11.25H39.3748V17.6994Z" fill="white"/>
</svg>
