<svg width="45" height="45" viewBox="0 0 45 45" fill="none" xmlns="http://www.w3.org/2000/svg">
<path opacity="0.2" d="M28.125 11.25C28.125 12.0844 27.8776 12.9 27.414 13.5938C26.9505 14.2876 26.2916 14.8283 25.5207 15.1476C24.7498 15.4669 23.9016 15.5505 23.0832 15.3877C22.2649 15.2249 21.5131 14.8231 20.9231 14.2331C20.3331 13.6431 19.9313 12.8914 19.7686 12.073C19.6058 11.2547 19.6893 10.4064 20.0086 9.63555C20.3279 8.86468 20.8687 8.2058 21.5624 7.74224C22.2562 7.27868 23.0719 7.03125 23.9063 7.03125C25.0251 7.03125 26.0982 7.47572 26.8894 8.26689C27.6805 9.05806 28.125 10.1311 28.125 11.25ZM35.1563 16.875V28.125L43.5938 22.5L35.1563 16.875ZM26.7188 29.5312H21.0938C20.7208 29.5312 20.3631 29.6794 20.0994 29.9431C19.8357 30.2069 19.6875 30.5645 19.6875 30.9375V36.5625C19.6875 36.9355 19.8357 37.2931 20.0994 37.5569C20.3631 37.8206 20.7208 37.9688 21.0938 37.9688H26.7188C27.0917 37.9688 27.4494 37.8206 27.7131 37.5569C27.9768 37.2931 28.125 36.9355 28.125 36.5625V30.9375C28.125 30.5645 27.9768 30.2069 27.7131 29.9431C27.4494 29.6794 27.0917 29.5312 26.7188 29.5312Z" fill="white"/>
<path d="M44.3742 21.3293L35.9367 15.7043C35.7249 15.563 35.4787 15.4818 35.2243 15.4695C34.9699 15.4572 34.717 15.5141 34.4925 15.6343C34.268 15.7545 34.0804 15.9334 33.9496 16.1519C33.8188 16.3704 33.7498 16.6204 33.75 16.875V21.0938H12.6562V12.6563H18.457C18.7993 13.9819 19.6133 15.1372 20.7464 15.9055C21.8795 16.6739 23.254 17.0027 24.6122 16.8302C25.9704 16.6577 27.219 15.9957 28.124 14.9685C29.0291 13.9412 29.5284 12.6191 29.5284 11.25C29.5284 9.88093 29.0291 8.55884 28.124 7.53156C27.219 6.50429 25.9704 5.84236 24.6122 5.66985C23.254 5.49734 21.8795 5.82609 20.7464 6.59448C19.6133 7.36287 18.7993 8.51815 18.457 9.84376H12.6562C11.9103 9.84376 11.195 10.1401 10.6675 10.6675C10.1401 11.195 9.84375 11.9103 9.84375 12.6563V21.0938H1.40625C1.03329 21.0938 0.675604 21.2419 0.411881 21.5056C0.148158 21.7694 0 22.1271 0 22.5C0 22.873 0.148158 23.2307 0.411881 23.4944C0.675604 23.7581 1.03329 23.9063 1.40625 23.9063H9.84375V32.3438C9.84375 33.0897 10.1401 33.8051 10.6675 34.3325C11.195 34.8599 11.9103 35.1563 12.6562 35.1563H18.2812V36.5625C18.2812 37.3084 18.5776 38.0238 19.105 38.5513C19.6325 39.0787 20.3478 39.375 21.0938 39.375H26.7188C27.4647 39.375 28.18 39.0787 28.7075 38.5513C29.2349 38.0238 29.5312 37.3084 29.5312 36.5625V30.9375C29.5312 30.1916 29.2349 29.4762 28.7075 28.9488C28.18 28.4213 27.4647 28.125 26.7188 28.125H21.0938C20.3478 28.125 19.6325 28.4213 19.105 28.9488C18.5776 29.4762 18.2812 30.1916 18.2812 30.9375V32.3438H12.6562V23.9063H33.75V28.125C33.7498 28.3797 33.8188 28.6296 33.9496 28.8481C34.0804 29.0666 34.268 29.2455 34.4925 29.3657C34.717 29.4859 34.9699 29.5429 35.2243 29.5305C35.4787 29.5182 35.7249 29.4371 35.9367 29.2957L44.3742 23.6707C44.5671 23.5424 44.7253 23.3683 44.8347 23.1641C44.9441 22.9598 45.0014 22.7317 45.0014 22.5C45.0014 22.2683 44.9441 22.0402 44.8347 21.836C44.7253 21.6317 44.5671 21.4577 44.3742 21.3293ZM23.9062 8.43751C24.4625 8.43751 25.0063 8.60246 25.4688 8.91151C25.9313 9.22055 26.2918 9.6598 26.5047 10.1737C26.7175 10.6876 26.7732 11.2531 26.6647 11.7987C26.5562 12.3443 26.2883 12.8454 25.895 13.2388C25.5017 13.6321 25.0005 13.9 24.4549 14.0085C23.9094 14.117 23.3439 14.0613 22.83 13.8484C22.316 13.6356 21.8768 13.2751 21.5677 12.8126C21.2587 12.35 21.0938 11.8063 21.0938 11.25C21.0938 10.5041 21.3901 9.78872 21.9175 9.26128C22.445 8.73383 23.1603 8.43751 23.9062 8.43751ZM21.0938 30.9375H26.7188V36.5625H21.0938V30.9375ZM36.5625 25.4971V19.5117L41.059 22.5L36.5625 25.4971Z" fill="white"/>
</svg>
