<svg width="45" height="45" viewBox="0 0 45 45" fill="none" xmlns="http://www.w3.org/2000/svg">
<path opacity="0.2" d="M29.5313 25.3125C29.5313 26.7032 29.1189 28.0626 28.3463 29.2189C27.5737 30.3751 26.4755 31.2764 25.1907 31.8085C23.906 32.3407 22.4922 32.48 21.1283 32.2086C19.7643 31.9373 18.5115 31.2677 17.5282 30.2843C16.5448 29.301 15.8752 28.0482 15.6039 26.6842C15.3326 25.3203 15.4718 23.9066 16.004 22.6218C16.5362 21.337 17.4374 20.2388 18.5936 19.4662C19.7499 18.6936 21.1094 18.2813 22.5 18.2813C24.3648 18.2813 26.1532 19.022 27.4718 20.3407C28.7905 21.6593 29.5313 23.4477 29.5313 25.3125ZM11.25 9.84375C10.1375 9.84375 9.04995 10.1737 8.12492 10.7917C7.19989 11.4098 6.47892 12.2883 6.05318 13.3162C5.62744 14.344 5.51604 15.475 5.73309 16.5661C5.95013 17.6573 6.48586 18.6596 7.27253 19.4462C8.0592 20.2329 9.06148 20.7686 10.1526 20.9857C11.2438 21.2027 12.3748 21.0913 13.4026 20.6656C14.4304 20.2398 15.3089 19.5189 15.927 18.5938C16.5451 17.6688 16.875 16.5813 16.875 15.4688C16.875 13.9769 16.2824 12.5462 15.2275 11.4913C14.1726 10.4364 12.7418 9.84375 11.25 9.84375ZM33.75 9.84375C32.6375 9.84375 31.5499 10.1737 30.6249 10.7917C29.6999 11.4098 28.9789 12.2883 28.5532 13.3162C28.1274 14.344 28.016 15.475 28.2331 16.5661C28.4501 17.6573 28.9859 18.6596 29.7725 19.4462C30.5592 20.2329 31.5615 20.7686 32.6526 20.9857C33.7438 21.2027 34.8748 21.0913 35.9026 20.6656C36.9304 20.2398 37.8089 19.5189 38.427 18.5938C39.0451 17.6688 39.375 16.5813 39.375 15.4688C39.375 13.9769 38.7824 12.5462 37.7275 11.4913C36.6726 10.4364 35.2418 9.84375 33.75 9.84375Z" fill="white"/>
<path d="M43.0313 26.4374C42.8836 26.5482 42.7154 26.6289 42.5366 26.6747C42.3577 26.7205 42.1715 26.7307 41.9887 26.7046C41.8059 26.6784 41.63 26.6166 41.4711 26.5225C41.3122 26.4284 41.1734 26.3039 41.0625 26.1562C40.215 25.0169 39.1117 24.0925 37.8416 23.4575C36.5715 22.8224 35.17 22.4944 33.75 22.4999C33.3771 22.4999 33.0194 22.3518 32.7557 22.0881C32.492 21.8243 32.3438 21.4667 32.3438 21.0937C32.3438 20.7207 32.492 20.3631 32.7557 20.0993C33.0194 19.8356 33.3771 19.6874 33.75 19.6874C34.5391 19.6874 35.3123 19.466 35.9818 19.0486C36.6514 18.6311 37.1904 18.0342 37.5377 17.3257C37.885 16.6172 38.0267 15.8256 37.9467 15.0406C37.8666 14.2556 37.568 13.5089 37.0848 12.8851C36.6016 12.2613 35.9531 11.7856 35.2131 11.5119C34.473 11.2382 33.6711 11.1775 32.8983 11.3368C32.1255 11.496 31.4128 11.8688 30.8413 12.4127C30.2697 12.9567 29.8621 13.65 29.6649 14.414C29.6187 14.5929 29.5378 14.761 29.4267 14.9086C29.3155 15.0562 29.1764 15.1805 29.0173 15.2743C28.8581 15.3682 28.6821 15.4298 28.4991 15.4556C28.3162 15.4814 28.1299 15.4709 27.951 15.4248C27.7721 15.3786 27.6041 15.2976 27.4565 15.1865C27.3088 15.0754 27.1846 14.9363 27.0907 14.7771C26.9968 14.618 26.9353 14.4419 26.9094 14.259C26.8836 14.076 26.8941 13.8898 26.9403 13.7109C27.2141 12.6515 27.7313 11.6706 28.4509 10.8463C29.1705 10.0219 30.0726 9.37695 31.0853 8.96259C32.098 8.54824 33.1935 8.37596 34.2845 8.45947C35.3755 8.54298 36.432 8.87998 37.3699 9.44364C38.3077 10.0073 39.1011 10.7821 39.6868 11.7063C40.2726 12.6305 40.6345 13.6787 40.7439 14.7675C40.8533 15.8562 40.707 16.9554 40.3168 17.9777C39.9266 19 39.3032 19.9171 38.4961 20.656C40.4083 21.4839 42.0706 22.7977 43.3178 24.4669C43.4286 24.6151 43.5091 24.7836 43.5547 24.9628C43.6002 25.1421 43.61 25.3286 43.5834 25.5116C43.5568 25.6947 43.4943 25.8707 43.3996 26.0295C43.3048 26.1884 43.1797 26.327 43.0313 26.4374ZM33.5602 37.2656C33.6584 37.4256 33.7235 37.6038 33.7517 37.7894C33.7799 37.9751 33.7707 38.1645 33.7245 38.3465C33.6783 38.5286 33.5962 38.6995 33.4829 38.8492C33.3696 38.999 33.2274 39.1245 33.0648 39.2185C32.9022 39.3124 32.7224 39.3728 32.5361 39.3961C32.3498 39.4194 32.1606 39.4052 31.9799 39.3543C31.7991 39.3033 31.6304 39.2167 31.4837 39.0995C31.337 38.9823 31.2152 38.8368 31.1256 38.6718C30.2397 37.1722 28.9781 35.9295 27.4653 35.0662C25.9526 34.2029 24.2409 33.7489 22.4992 33.7489C20.7574 33.7489 19.0457 34.2029 17.533 35.0662C16.0202 35.9295 14.7587 37.1722 13.8727 38.6718C13.7848 38.8399 13.6638 38.9884 13.517 39.1085C13.3702 39.2286 13.2006 39.3177 13.0185 39.3706C12.8363 39.4234 12.6454 39.4388 12.4571 39.416C12.2688 39.3931 12.0871 39.3324 11.9229 39.2375C11.7587 39.1426 11.6154 39.0154 11.5016 38.8637C11.3878 38.7119 11.3059 38.5388 11.2608 38.3546C11.2157 38.1703 11.2083 37.9789 11.239 37.7918C11.2698 37.6046 11.3381 37.4256 11.4399 37.2656C12.8032 34.9231 14.882 33.0796 17.3707 32.0062C15.9703 30.934 14.9412 29.4499 14.4278 27.7625C13.9145 26.0752 13.9428 24.2693 14.5089 22.5989C15.0749 20.9285 16.1502 19.4774 17.5836 18.4497C19.0169 17.422 20.7363 16.8693 22.5 16.8693C24.2638 16.8693 25.9832 17.422 27.4165 18.4497C28.8499 19.4774 29.9252 20.9285 30.4912 22.5989C31.0573 24.2693 31.0856 26.0752 30.5723 27.7625C30.0589 29.4499 29.0297 30.934 27.6293 32.0062C30.1181 33.0796 32.1968 34.9231 33.5602 37.2656ZM22.5 30.9374C23.6126 30.9374 24.7001 30.6075 25.6251 29.9895C26.5502 29.3714 27.2711 28.4929 27.6969 27.465C28.1226 26.4372 28.234 25.3062 28.017 24.2151C27.7999 23.1239 27.2642 22.1216 26.4775 21.335C25.6909 20.5483 24.6886 20.0126 23.5974 19.7955C22.5063 19.5785 21.3753 19.6899 20.3475 20.1156C19.3196 20.5414 18.4411 21.2623 17.823 22.1874C17.2049 23.1124 16.875 24.1999 16.875 25.3124C16.875 26.8043 17.4677 28.235 18.5226 29.2899C19.5775 30.3448 21.0082 30.9374 22.5 30.9374ZM12.6563 21.0937C12.6563 20.7207 12.5081 20.3631 12.2444 20.0993C11.9807 19.8356 11.623 19.6874 11.25 19.6874C10.461 19.6874 9.68781 19.466 9.01827 19.0486C8.34873 18.6311 7.80969 18.0342 7.46237 17.3257C7.11505 16.6172 6.97337 15.8256 7.05344 15.0406C7.13351 14.2556 7.4321 13.5089 7.91531 12.8851C8.39852 12.2613 9.04698 11.7856 9.78702 11.5119C10.5271 11.2382 11.329 11.1775 12.1018 11.3368C12.8746 11.496 13.5873 11.8688 14.1588 12.4127C14.7304 12.9567 15.1379 13.65 15.3352 14.414C15.4284 14.7753 15.6614 15.0848 15.9828 15.2743C16.3042 15.4639 16.6878 15.518 17.0491 15.4248C17.4104 15.3315 17.7198 15.0986 17.9094 14.7771C18.0989 14.4557 18.1531 14.0722 18.0598 13.7109C17.786 12.6515 17.2688 11.6706 16.5492 10.8463C15.8296 10.0219 14.9275 9.37695 13.9148 8.96259C12.9021 8.54824 11.8066 8.37596 10.7156 8.45947C9.62457 8.54298 8.5681 8.87998 7.63023 9.44364C6.69236 10.0073 5.89899 10.7821 5.31325 11.7063C4.7275 12.6305 4.36554 13.6787 4.25618 14.7675C4.14682 15.8562 4.29307 16.9554 4.68329 17.9777C5.07351 19 5.69693 19.9171 6.50395 20.656C4.59371 21.4847 2.93333 22.7985 1.68755 24.4669C1.46354 24.7653 1.36723 25.1404 1.41981 25.5098C1.47239 25.8792 1.66955 26.2126 1.96792 26.4366C2.26628 26.6606 2.64142 26.7569 3.0108 26.7043C3.38017 26.6517 3.71354 26.4546 3.93755 26.1562C4.78514 25.0169 5.88839 24.0925 7.15849 23.4575C8.42859 22.8224 9.83004 22.4944 11.25 22.4999C11.623 22.4999 11.9807 22.3518 12.2444 22.0881C12.5081 21.8243 12.6563 21.4667 12.6563 21.0937Z" fill="white"/>
</svg>
