<svg width="45" height="45" viewBox="0 0 45 45" fill="none" xmlns="http://www.w3.org/2000/svg">
<path opacity="0.2" d="M36.5625 5.625H11.25C10.877 5.625 10.5194 5.77316 10.2556 6.03688C9.99191 6.3006 9.84375 6.65829 9.84375 7.03125V37.9688C9.84375 38.3417 9.99191 38.6994 10.2556 38.9631C10.5194 39.2268 10.877 39.375 11.25 39.375H36.5625C36.9355 39.375 37.2931 39.2268 37.5569 38.9631C37.8206 38.6994 37.9688 38.3417 37.9688 37.9688V7.03125C37.9688 6.65829 37.8206 6.3006 37.5569 6.03688C37.2931 5.77316 36.9355 5.625 36.5625 5.625ZM23.9062 25.3125C22.7937 25.3125 21.7062 24.9826 20.7812 24.3645C19.8561 23.7464 19.1352 22.8679 18.7094 21.8401C18.2837 20.8123 18.1723 19.6813 18.3893 18.5901C18.6064 17.499 19.1421 16.4967 19.9288 15.71C20.7154 14.9234 21.7177 14.3876 22.8089 14.1706C23.9 13.9535 25.031 14.0649 26.0588 14.4907C27.0867 14.9164 27.9652 15.6374 28.5833 16.5624C29.2013 17.4874 29.5312 18.575 29.5312 19.6875C29.5312 21.1793 28.9386 22.6101 27.8837 23.665C26.8288 24.7199 25.3981 25.3125 23.9062 25.3125Z" fill="#E60F53"/>
<path d="M14.6232 30.6562C14.771 30.7673 14.9393 30.8482 15.1183 30.8942C15.2974 30.9401 15.4838 30.9504 15.6668 30.9242C15.8498 30.8981 16.0259 30.8362 16.185 30.7419C16.344 30.6477 16.4829 30.523 16.5938 30.375C17.4452 29.2398 18.5492 28.3184 19.8184 27.6838C21.0877 27.0491 22.4872 26.7188 23.9062 26.7188C25.3253 26.7188 26.7248 27.0491 27.9941 27.6838C29.2633 28.3184 30.3673 29.2398 31.2188 30.375C31.3296 30.5227 31.4684 30.6472 31.6273 30.7413C31.7862 30.8354 31.9621 30.8973 32.1449 30.9234C32.3277 30.9495 32.5139 30.9393 32.6928 30.8935C32.8716 30.8477 33.0398 30.7671 33.1875 30.6562C33.3352 30.5454 33.4597 30.4066 33.5538 30.2477C33.6479 30.0888 33.7098 29.9129 33.7359 29.7301C33.762 29.5473 33.7518 29.3611 33.706 29.1822C33.6602 29.0034 33.5796 28.8352 33.4687 28.6875C32.2235 27.018 30.563 25.7036 28.6523 24.8748C29.6995 23.9188 30.4331 22.6686 30.7569 21.2882C31.0808 19.9078 30.9797 18.4617 30.467 17.1398C29.9543 15.8178 29.0539 14.6818 27.8841 13.8807C26.7142 13.0796 25.3294 12.651 23.9115 12.651C22.4936 12.651 21.1089 13.0796 19.939 13.8807C18.7691 14.6818 17.8687 15.8178 17.356 17.1398C16.8433 18.4617 16.7423 19.9078 17.0661 21.2882C17.39 22.6686 18.1236 23.9188 19.1707 24.8748C17.2562 25.702 15.5919 27.0166 14.3438 28.6875C14.1198 28.9857 14.0234 29.3606 14.0758 29.7297C14.1282 30.0989 14.3251 30.4322 14.6232 30.6562ZM19.6875 19.6875C19.6875 18.8531 19.9349 18.0375 20.3985 17.3437C20.8621 16.6499 21.5209 16.1092 22.2918 15.7899C23.0627 15.4706 23.9109 15.387 24.7293 15.5498C25.5476 15.7126 26.2994 16.1144 26.8894 16.7044C27.4794 17.2944 27.8812 18.0461 28.0439 18.8645C28.2067 19.6828 28.1232 20.5311 27.8039 21.3019C27.4846 22.0728 26.9438 22.7317 26.2501 23.1953C25.5563 23.6588 24.7406 23.9062 23.9062 23.9062C22.7874 23.9062 21.7143 23.4618 20.9231 22.6706C20.132 21.8794 19.6875 20.8064 19.6875 19.6875ZM36.5625 4.21875H11.25C10.5041 4.21875 9.78871 4.51507 9.26126 5.04251C8.73382 5.56996 8.4375 6.28533 8.4375 7.03125V11.25H5.625C5.25204 11.25 4.89435 11.3982 4.63063 11.6619C4.36691 11.9256 4.21875 12.2833 4.21875 12.6562C4.21875 13.0292 4.36691 13.3869 4.63063 13.6506C4.89435 13.9143 5.25204 14.0625 5.625 14.0625H8.4375V21.0938H5.625C5.25204 21.0938 4.89435 21.2419 4.63063 21.5056C4.36691 21.7694 4.21875 22.127 4.21875 22.5C4.21875 22.873 4.36691 23.2306 4.63063 23.4944C4.89435 23.7581 5.25204 23.9062 5.625 23.9062H8.4375V30.9375H5.625C5.25204 30.9375 4.89435 31.0857 4.63063 31.3494C4.36691 31.6131 4.21875 31.9708 4.21875 32.3438C4.21875 32.7167 4.36691 33.0744 4.63063 33.3381C4.89435 33.6018 5.25204 33.75 5.625 33.75H8.4375V37.9688C8.4375 38.7147 8.73382 39.43 9.26126 39.9575C9.78871 40.4849 10.5041 40.7812 11.25 40.7812H36.5625C37.3084 40.7812 38.0238 40.4849 38.5512 39.9575C39.0787 39.43 39.375 38.7147 39.375 37.9688V7.03125C39.375 6.28533 39.0787 5.56996 38.5512 5.04251C38.0238 4.51507 37.3084 4.21875 36.5625 4.21875ZM36.5625 37.9688H11.25V7.03125H36.5625V37.9688Z" fill="#E60F53"/>
</svg>
