<svg width="45" height="45" viewBox="0 0 45 45" fill="none" xmlns="http://www.w3.org/2000/svg">
<path opacity="0.2" d="M37.9688 16.875V33.75C37.9688 34.123 37.8206 34.4806 37.5569 34.7444C37.2931 35.0081 36.9355 35.1562 36.5625 35.1562H8.4375C8.06454 35.1562 7.70685 35.0081 7.44313 34.7444C7.17941 34.4806 7.03125 34.123 7.03125 33.75V16.875H37.9688Z" fill="#E60F53"/>
<path d="M39.375 8.4375H5.625C4.87908 8.4375 4.16371 8.73382 3.63626 9.26126C3.10882 9.78871 2.8125 10.5041 2.8125 11.25V15.4688C2.8125 16.2147 3.10882 16.93 3.63626 17.4575C4.16371 17.9849 4.87908 18.2812 5.625 18.2812V33.75C5.625 34.4959 5.92132 35.2113 6.44876 35.7387C6.97621 36.2662 7.69158 36.5625 8.4375 36.5625H36.5625C37.3084 36.5625 38.0238 36.2662 38.5512 35.7387C39.0787 35.2113 39.375 34.4959 39.375 33.75V18.2812C40.1209 18.2812 40.8363 17.9849 41.3637 17.4575C41.8912 16.93 42.1875 16.2147 42.1875 15.4688V11.25C42.1875 10.5041 41.8912 9.78871 41.3637 9.26126C40.8363 8.73382 40.1209 8.4375 39.375 8.4375ZM36.5625 33.75H8.4375V18.2812H36.5625V33.75ZM39.375 15.4688H5.625V11.25H39.375V15.4688ZM16.875 23.9062C16.875 23.5333 17.0232 23.1756 17.2869 22.9119C17.5506 22.6482 17.9083 22.5 18.2812 22.5H26.7188C27.0917 22.5 27.4494 22.6482 27.7131 22.9119C27.9768 23.1756 28.125 23.5333 28.125 23.9062C28.125 24.2792 27.9768 24.6369 27.7131 24.9006C27.4494 25.1643 27.0917 25.3125 26.7188 25.3125H18.2812C17.9083 25.3125 17.5506 25.1643 17.2869 24.9006C17.0232 24.6369 16.875 24.2792 16.875 23.9062Z" fill="#E60F53"/>
</svg>
