<svg width="45" height="45" viewBox="0 0 45 45" fill="none" xmlns="http://www.w3.org/2000/svg">
<path opacity="0.2" d="M33.8907 29.025L7.72217 18.5572C8.56652 17.069 9.60316 15.6984 10.8054 14.4809C10.9998 14.2837 11.2482 14.1482 11.5193 14.0916C11.7905 14.035 12.0723 14.0598 12.3294 14.1627L16.7907 15.9697C17.1348 16.1071 17.5026 16.1751 17.8731 16.1699C18.2435 16.1647 18.6093 16.0863 18.9494 15.9393C19.2894 15.7923 19.5971 15.5795 19.8547 15.3133C20.1123 15.047 20.3148 14.7325 20.4505 14.3877L24.1419 5.05373C24.8714 3.29591 26.8612 2.359 28.6472 3.02697C29.0899 3.19163 29.4949 3.44382 29.8381 3.76849C30.1812 4.09316 30.4553 4.48364 30.6442 4.91662C30.833 5.34961 30.9327 5.81621 30.9372 6.28856C30.9417 6.76091 30.851 7.22933 30.6704 7.66584L26.9175 16.9998C26.6432 17.6918 26.6545 18.4642 26.9487 19.1479C27.2429 19.8316 27.7962 20.3708 28.4872 20.6473L32.8712 22.377C33.1313 22.4822 33.3539 22.6627 33.5105 22.8955C33.6672 23.1282 33.7506 23.4025 33.7501 23.683V26.7188C33.7486 27.4897 33.7955 28.26 33.8907 29.025Z" fill="#E60F53"/>
<path d="M41.3965 38.1112C37.4309 36.1776 35.1563 32.0326 35.1563 26.7205V23.683C35.1578 23.1195 34.9893 22.5686 34.6729 22.1023C34.3565 21.636 33.9068 21.276 33.3827 21.0692L29.0039 19.336C28.6594 19.1982 28.3834 18.9298 28.2359 18.5894C28.0884 18.2489 28.0814 17.864 28.2164 17.5184L31.9641 8.20198C32.2184 7.59051 32.3468 6.93399 32.3414 6.27175C32.336 5.60952 32.197 4.95517 31.9328 4.34791C31.6686 3.74065 31.2845 3.19296 30.8036 2.73765C30.3227 2.28233 29.7548 1.92875 29.134 1.69807C27.9249 1.25504 26.5906 1.30101 25.4149 1.8262C24.2391 2.35139 23.3145 3.31441 22.8375 4.51057C22.8368 4.51759 22.8368 4.52465 22.8375 4.53167L19.1426 13.8867C19.0052 14.2328 18.7361 14.5103 18.3944 14.6583C18.0526 14.8062 17.6662 14.8126 17.3198 14.676L12.8514 12.8567C12.3362 12.6479 11.7705 12.5976 11.2265 12.7122C10.6826 12.8268 10.1852 13.1011 9.79808 13.5C6.09613 17.3057 4.21879 21.753 4.21879 26.7188C4.20906 31.8005 6.1743 36.6871 9.69965 40.3471C9.83173 40.4852 9.99056 40.5949 10.1665 40.6695C10.3424 40.7442 10.5316 40.7822 10.7227 40.7813H40.7813C41.0991 40.781 41.4075 40.673 41.6561 40.475C41.9047 40.2769 42.0789 40.0005 42.1503 39.6908C42.2216 39.381 42.186 39.0563 42.0491 38.7694C41.9122 38.4825 41.6822 38.2505 41.3965 38.1112ZM11.802 15.4688L16.2686 17.2793C16.7842 17.4856 17.3354 17.588 17.8907 17.5808C18.4459 17.5735 18.9943 17.4567 19.5043 17.2371C20.0144 17.0174 20.476 16.6992 20.8628 16.3008C21.2496 15.9023 21.5539 15.4314 21.7582 14.9151L25.4496 5.59866C25.8996 4.52463 27.1143 3.96917 28.1619 4.36819C28.429 4.46729 28.6733 4.61947 28.88 4.81554C29.0867 5.01162 29.2515 5.24753 29.3645 5.50904C29.4775 5.77055 29.5364 6.05225 29.5375 6.33713C29.5387 6.62202 29.4822 6.90419 29.3713 7.16663L25.6096 16.4813C25.1978 17.5203 25.215 18.6803 25.6577 19.7065C26.1003 20.7328 26.932 21.5415 27.9703 21.9551L32.3438 23.683V26.7188C32.3438 26.7768 32.3438 26.8348 32.3438 26.8946L9.80336 17.8787C10.4026 17.0222 11.0711 16.2161 11.802 15.4688ZM20.2395 37.9688C18.1458 35.9604 16.6626 33.4011 15.961 30.586C15.8632 30.2299 15.6293 29.9266 15.3098 29.7415C14.9903 29.5564 14.6108 29.5044 14.2533 29.5968C13.8958 29.6891 13.589 29.9183 13.399 30.2349C13.2091 30.5516 13.1513 30.9302 13.2381 31.2891C13.8515 33.7109 14.9494 35.9832 16.4655 37.9688H11.3274C8.55387 34.8788 7.02337 30.8709 7.03129 26.7188C7.01409 24.5188 7.47783 22.3417 8.39007 20.3397L32.6127 30.0287C33.1401 33.1928 34.469 35.9139 36.4606 37.967L20.2395 37.9688Z" fill="#E60F53"/>
</svg>
