<svg width="45" height="45" viewBox="0 0 45 45" fill="none" xmlns="http://www.w3.org/2000/svg">
<path opacity="0.2" d="M30.9375 7.03125V37.9688H23.9062V28.125H15.4688V37.9688H8.4375V7.03125H30.9375Z" fill="#E60F53"/>
<path d="M43.5938 36.5625H40.7812V16.875C41.1542 16.875 41.5119 16.7268 41.7756 16.4631C42.0393 16.1994 42.1875 15.8417 42.1875 15.4688C42.1875 15.0958 42.0393 14.7381 41.7756 14.4744C41.5119 14.2107 41.1542 14.0625 40.7812 14.0625H32.3438V8.4375C32.7167 8.4375 33.0744 8.28934 33.3381 8.02562C33.6018 7.7619 33.75 7.40421 33.75 7.03125C33.75 6.65829 33.6018 6.3006 33.3381 6.03688C33.0744 5.77316 32.7167 5.625 32.3438 5.625H7.03125C6.65829 5.625 6.3006 5.77316 6.03688 6.03688C5.77316 6.3006 5.625 6.65829 5.625 7.03125C5.625 7.40421 5.77316 7.7619 6.03688 8.02562C6.3006 8.28934 6.65829 8.4375 7.03125 8.4375V36.5625H4.21875C3.84579 36.5625 3.4881 36.7107 3.22438 36.9744C2.96066 37.2381 2.8125 37.5958 2.8125 37.9688C2.8125 38.3417 2.96066 38.6994 3.22438 38.9631C3.4881 39.2268 3.84579 39.375 4.21875 39.375H43.5938C43.9667 39.375 44.3244 39.2268 44.5881 38.9631C44.8518 38.6994 45 38.3417 45 37.9688C45 37.5958 44.8518 37.2381 44.5881 36.9744C44.3244 36.7107 43.9667 36.5625 43.5938 36.5625ZM37.9688 16.875V36.5625H32.3438V16.875H37.9688ZM9.84375 8.4375H29.5312V36.5625H25.3125V28.125C25.3125 27.752 25.1643 27.3944 24.9006 27.1306C24.6369 26.8669 24.2792 26.7188 23.9062 26.7188H15.4688C15.0958 26.7188 14.7381 26.8669 14.4744 27.1306C14.2107 27.3944 14.0625 27.752 14.0625 28.125V36.5625H9.84375V8.4375ZM22.5 36.5625H16.875V29.5312H22.5V36.5625ZM12.6562 14.0625C12.6562 13.6895 12.8044 13.3319 13.0681 13.0681C13.3319 12.8044 13.6895 12.6562 14.0625 12.6562H16.875C17.248 12.6562 17.6056 12.8044 17.8694 13.0681C18.1331 13.3319 18.2812 13.6895 18.2812 14.0625C18.2812 14.4355 18.1331 14.7931 17.8694 15.0569C17.6056 15.3206 17.248 15.4688 16.875 15.4688H14.0625C13.6895 15.4688 13.3319 15.3206 13.0681 15.0569C12.8044 14.7931 12.6562 14.4355 12.6562 14.0625ZM21.0938 14.0625C21.0938 13.6895 21.2419 13.3319 21.5056 13.0681C21.7694 12.8044 22.127 12.6562 22.5 12.6562H25.3125C25.6855 12.6562 26.0431 12.8044 26.3069 13.0681C26.5706 13.3319 26.7188 13.6895 26.7188 14.0625C26.7188 14.4355 26.5706 14.7931 26.3069 15.0569C26.0431 15.3206 25.6855 15.4688 25.3125 15.4688H22.5C22.127 15.4688 21.7694 15.3206 21.5056 15.0569C21.2419 14.7931 21.0938 14.4355 21.0938 14.0625ZM12.6562 21.0938C12.6562 20.7208 12.8044 20.3631 13.0681 20.0994C13.3319 19.8357 13.6895 19.6875 14.0625 19.6875H16.875C17.248 19.6875 17.6056 19.8357 17.8694 20.0994C18.1331 20.3631 18.2812 20.7208 18.2812 21.0938C18.2812 21.4667 18.1331 21.8244 17.8694 22.0881C17.6056 22.3518 17.248 22.5 16.875 22.5H14.0625C13.6895 22.5 13.3319 22.3518 13.0681 22.0881C12.8044 21.8244 12.6562 21.4667 12.6562 21.0938ZM21.0938 21.0938C21.0938 20.7208 21.2419 20.3631 21.5056 20.0994C21.7694 19.8357 22.127 19.6875 22.5 19.6875H25.3125C25.6855 19.6875 26.0431 19.8357 26.3069 20.0994C26.5706 20.3631 26.7188 20.7208 26.7188 21.0938C26.7188 21.4667 26.5706 21.8244 26.3069 22.0881C26.0431 22.3518 25.6855 22.5 25.3125 22.5H22.5C22.127 22.5 21.7694 22.3518 21.5056 22.0881C21.2419 21.8244 21.0938 21.4667 21.0938 21.0938Z" fill="#E60F53"/>
</svg>
