<svg width="45" height="45" viewBox="0 0 45 45" fill="none" xmlns="http://www.w3.org/2000/svg">
<path opacity="0.2" d="M16.8749 6.5918V19.248L5.90618 25.5762C5.17396 21.624 5.8765 17.5402 7.88734 14.0599C9.89818 10.5796 13.0853 7.93135 16.8749 6.5918Z" fill="#E60F53"/>
<path d="M17.5781 20.4662C17.792 20.3428 17.9695 20.1652 18.0929 19.9514C18.2164 19.7375 18.2813 19.4949 18.2813 19.248V6.5918C18.28 6.3676 18.2252 6.14695 18.1213 5.94825C18.0174 5.74955 17.8676 5.57856 17.6842 5.44955C17.5008 5.32054 17.2893 5.23724 17.0672 5.20661C16.8451 5.17597 16.6189 5.19889 16.4074 5.27344C12.3029 6.72612 8.85116 9.59527 6.6727 13.3651C4.49424 17.135 3.73195 21.5583 4.52286 25.8398C4.56386 26.0613 4.65742 26.2696 4.79569 26.4473C4.93395 26.625 5.11287 26.7669 5.3174 26.8611C5.50171 26.9473 5.70279 26.9917 5.90626 26.9912C6.15308 26.9913 6.39558 26.9264 6.60939 26.8031L17.5781 20.4662ZM15.4688 8.72227V18.4359L7.05236 23.2928C7.03126 23.0273 7.03126 22.7602 7.03126 22.5C7.03376 19.6495 7.82279 16.8549 9.31149 14.424C10.8002 11.9931 12.9308 10.0201 15.4688 8.72227ZM22.5 4.21875C22.1271 4.21875 21.7694 4.36691 21.5056 4.63063C21.2419 4.89435 21.0938 5.25204 21.0938 5.625V21.7652L7.24044 29.8354C7.07968 29.9285 6.93899 30.0527 6.82649 30.2006C6.71399 30.3484 6.63191 30.5172 6.585 30.6969C6.53809 30.8767 6.52727 31.0641 6.55318 31.2481C6.57909 31.4321 6.64121 31.6091 6.73595 31.7689C8.35965 34.5292 10.68 36.8146 13.4646 38.3962C16.2492 39.9778 19.4005 40.8001 22.6029 40.7809C25.8053 40.7617 28.9464 39.9016 31.7119 38.2867C34.4773 36.6718 36.7701 34.3588 38.3605 31.5792C39.951 28.7996 40.7834 25.651 40.7744 22.4486C40.7654 19.2461 39.9153 16.1023 38.3092 13.3317C36.7031 10.5611 34.3974 8.26099 31.6229 6.66168C28.8484 5.06236 25.7025 4.21994 22.5 4.21875ZM22.5 37.9688C20.0451 37.9622 17.6267 37.3745 15.4425 36.2539C13.2583 35.1332 11.3705 33.5114 9.93341 31.5211L23.2084 23.7867C23.422 23.6634 23.5994 23.4861 23.7228 23.2726C23.8462 23.0591 23.9113 22.8169 23.9115 22.5703V7.09453C27.8779 7.45439 31.5526 9.33019 34.1707 12.3314C36.7887 15.3326 38.1483 19.228 37.9664 23.2065C37.7846 27.185 36.0752 30.94 33.1942 33.6898C30.3132 36.4396 26.4827 37.9723 22.5 37.9688Z" fill="#E60F53"/>
</svg>
