<svg width="45" height="45" viewBox="0 0 45 45" fill="none" xmlns="http://www.w3.org/2000/svg">
<path opacity="0.2" d="M39.375 22.5C39.375 26.9755 37.5971 31.2677 34.4324 34.4324C31.2677 37.5971 26.9755 39.375 22.5 39.375V29.5312C24.3648 29.5312 26.1532 28.7905 27.4718 27.4718C28.7905 26.1532 29.5312 24.3648 29.5312 22.5C29.5312 20.6352 28.7905 18.8468 27.4718 17.5282C26.1532 16.2095 24.3648 15.4688 22.5 15.4688V5.625C26.9755 5.625 31.2677 7.4029 34.4324 10.5676C37.5971 13.7322 39.375 18.0245 39.375 22.5Z" fill="#E60F53"/>
<path d="M22.4999 4.21875C22.127 4.21875 21.7693 4.36691 21.5056 4.63063C21.2418 4.89435 21.0937 5.25204 21.0937 5.625V15.4688C21.0937 15.8417 21.2418 16.1994 21.5056 16.4631C21.7693 16.7268 22.127 16.875 22.4999 16.875C23.7381 16.8753 24.9416 17.2841 25.9238 18.0381C26.906 18.792 27.612 19.849 27.9322 21.0451C28.2525 22.2411 28.1692 23.5094 27.6952 24.6533C27.2212 25.7972 26.383 26.7527 25.3106 27.3717C24.2382 27.9907 22.9916 28.2385 21.764 28.0768C20.5364 27.9151 19.3965 27.3528 18.521 26.4773C17.6455 25.6017 17.0834 24.4617 16.9218 23.2341C16.7602 22.0064 17.0082 20.7598 17.6273 19.6875C17.7196 19.5275 17.7796 19.3509 17.8037 19.1678C17.8278 18.9847 17.8156 18.7986 17.7678 18.6202C17.7199 18.4417 17.6374 18.2745 17.525 18.128C17.4125 17.9814 17.2722 17.8585 17.1122 17.7662L8.58685 12.8443C8.42688 12.752 8.25029 12.692 8.06715 12.6679C7.88401 12.6438 7.69792 12.656 7.5195 12.7038C7.34109 12.7517 7.17384 12.8342 7.02732 12.9467C6.88079 13.0591 6.75787 13.1994 6.66556 13.3594C4.65344 16.8445 3.84749 20.8961 4.37269 24.8859C4.8979 28.8757 6.72491 32.5807 9.57037 35.4264C12.4158 38.272 16.1208 40.0993 20.1105 40.6247C24.1003 41.1502 28.152 40.3445 31.6372 38.3326C35.1224 36.3207 37.8464 33.2151 39.3867 29.4973C40.927 25.7795 41.1975 21.6574 40.1564 17.7702C39.1152 13.883 36.8205 10.4479 33.6281 7.99776C30.4358 5.54761 26.5242 4.21927 22.4999 4.21875ZM8.45325 16.0137L14.5898 19.5574C14.2406 20.4992 14.062 21.4956 14.0624 22.5C14.0624 22.7689 14.0765 23.0273 14.1011 23.2945L7.25618 25.1367C6.72238 22.0446 7.13981 18.8634 8.45325 16.0137ZM7.98392 27.8455L14.8394 26.0104C15.4125 27.2597 16.2817 28.3505 17.3715 29.1883C18.4613 30.026 19.7389 30.5854 21.0937 30.818V37.9037C18.1824 37.6339 15.4068 36.5463 13.0872 34.7666C10.7675 32.9869 8.99839 30.5876 7.98392 27.8455ZM23.9062 37.9037V30.818C25.8714 30.4849 27.6553 29.4667 28.9416 27.944C30.228 26.4213 30.9337 24.4924 30.9337 22.4991C30.9337 20.5058 30.228 18.5769 28.9416 17.0542C27.6553 15.5315 25.8714 14.5134 23.9062 14.1803V7.09453C27.7491 7.44563 31.322 9.22043 33.9236 12.0705C36.5252 14.9206 37.9675 18.6402 37.9675 22.4991C37.9675 26.358 36.5252 30.0776 33.9236 32.9277C31.322 35.7778 27.7491 37.5526 23.9062 37.9037Z" fill="#E60F53"/>
</svg>
