<svg width="45" height="45" viewBox="0 0 45 45" fill="none" xmlns="http://www.w3.org/2000/svg">
<path opacity="0.2" d="M40.7214 37.5697C40.7926 37.812 40.7972 38.069 40.7347 38.3137C40.6723 38.5584 40.5451 38.7818 40.3665 38.9604C40.188 39.1389 39.9646 39.2661 39.7199 39.3286C39.4752 39.391 39.2182 39.3864 38.9759 39.3153L34.1015 37.8809C32.4913 38.742 30.714 39.2448 28.8913 39.3547C27.0686 39.4646 25.2437 39.1792 23.5417 38.5178C21.8397 37.8565 20.3008 36.8349 19.0306 35.5232C17.7603 34.2115 16.7887 32.6406 16.1824 30.9182C16.4126 30.9305 16.6429 30.9375 16.875 30.9375C18.8979 30.9377 20.8914 30.4529 22.6884 29.5239C24.4854 28.5948 26.0335 27.2485 27.203 25.5979C28.3724 23.9472 29.1292 22.0403 29.4098 20.0369C29.6904 18.0335 29.4867 15.9921 28.8158 14.0836C30.9418 14.1991 33.0043 14.849 34.8124 15.9733C36.6206 17.0975 38.1158 18.6598 39.1598 20.5154C40.2038 22.371 40.7628 24.46 40.7851 26.5891C40.8073 28.7181 40.2921 30.8183 39.2871 32.6953L40.7214 37.5697Z" fill="#E60F53"/>
<path d="M40.7934 32.8289C41.7651 30.8136 42.2419 28.5955 42.1842 26.3588C42.1264 24.1222 41.5359 21.9316 40.4615 19.9691C39.3871 18.0065 37.86 16.3286 36.007 15.0748C34.1539 13.821 32.0285 13.0274 29.8071 12.76C29.068 11.0415 27.9934 9.48774 26.6463 8.18972C25.2992 6.8917 23.7067 5.8755 21.9619 5.20063C20.2172 4.52576 18.3554 4.20579 16.4854 4.25945C14.6155 4.31311 12.775 4.73933 11.0719 5.51314C9.36872 6.28695 7.83707 7.39281 6.56663 8.76595C5.29618 10.1391 4.31248 11.7519 3.67312 13.51C3.03376 15.268 2.7516 17.136 2.84316 19.0044C2.93472 20.8729 3.39816 22.7043 4.20634 24.3914L2.92841 28.735C2.78552 29.2199 2.77597 29.7343 2.90075 30.2242C3.02553 30.7141 3.28003 31.1612 3.63748 31.5187C3.99493 31.8761 4.44211 32.1306 4.93198 32.2554C5.42184 32.3802 5.93629 32.3707 6.42118 32.2278L10.7647 30.9498C12.1594 31.6199 13.6547 32.0564 15.1909 32.2418C15.9372 33.9905 17.0304 35.5697 18.4044 36.8839C19.7783 38.1981 21.4045 39.2201 23.1846 39.888C24.9647 40.5559 26.8618 40.8559 28.7611 40.7698C30.6605 40.6838 32.5226 40.2135 34.235 39.3873L38.5786 40.6653C39.0633 40.808 39.5775 40.8175 40.0672 40.6928C40.5568 40.5681 41.0039 40.3137 41.3612 39.9565C41.7186 39.5993 41.9732 39.1524 42.0981 38.6628C42.2231 38.1733 42.2139 37.659 42.0714 37.1743L40.7934 32.8289ZM10.8983 28.0371C10.7639 28.0375 10.6303 28.0564 10.5011 28.0934L5.62489 29.5313L7.06102 24.6516C7.16317 24.2991 7.12342 23.9205 6.95028 23.5969C5.67817 21.2179 5.30334 18.4609 5.89413 15.8285C6.48491 13.1962 8.00197 10.8638 10.1687 9.25658C12.3355 7.64933 15.0077 6.87423 17.6982 7.07259C20.3887 7.27095 22.9184 8.42955 24.826 10.3372C26.7337 12.2448 27.8923 14.7745 28.0906 17.465C28.289 20.1555 27.5139 22.8277 25.9066 24.9945C24.2994 27.1612 21.967 28.6783 19.3347 29.2691C16.7023 29.8599 13.9454 29.485 11.5663 28.2129C11.3617 28.0997 11.1321 28.0393 10.8983 28.0371ZM37.9317 33.0873L39.3749 37.9688L34.4952 36.5327C34.1427 36.4305 33.7642 36.4703 33.4405 36.6434C30.851 38.0261 27.8237 38.3428 25.0041 37.5258C22.1845 36.7088 19.7954 34.8229 18.3462 32.27C20.2717 32.069 22.1348 31.4723 23.8188 30.5173C25.5028 29.5623 26.9712 28.2695 28.132 26.7202C29.2928 25.1709 30.1209 23.3984 30.5643 21.514C31.0077 19.6295 31.057 17.6737 30.7089 15.7694C32.3865 16.1648 33.9509 16.9405 35.2812 18.0364C36.6115 19.1324 37.6721 20.5194 38.3814 22.0903C39.0906 23.6613 39.4293 25.3742 39.3715 27.0968C39.3136 28.8195 38.8607 30.5058 38.0477 32.0256C37.8727 32.3512 37.8329 32.7326 37.937 33.0873H37.9317Z" fill="#E60F53"/>
</svg>
