<svg width="45" height="45" viewBox="0 0 45 45" fill="none" xmlns="http://www.w3.org/2000/svg">
<path opacity="0.2" d="M39.375 22.5C39.375 25.8376 38.3853 29.1002 36.5311 31.8752C34.6768 34.6503 32.0413 36.8132 28.9578 38.0905C25.8743 39.3677 22.4813 39.7019 19.2079 39.0507C15.9344 38.3996 12.9276 36.7924 10.5676 34.4324C8.20757 32.0724 6.60038 29.0656 5.94926 25.7921C5.29813 22.5187 5.63231 19.1257 6.90954 16.0422C8.18677 12.9587 10.3497 10.3232 13.1248 8.46895C15.8998 6.6147 19.1624 5.625 22.5 5.625C26.9755 5.625 31.2678 7.4029 34.4324 10.5676C37.5971 13.7322 39.375 18.0245 39.375 22.5Z" fill="#E60F53"/>
<path d="M30.5262 17.2863C30.6569 17.4169 30.7607 17.572 30.8314 17.7427C30.9022 17.9135 30.9386 18.0964 30.9386 18.2812C30.9386 18.4661 30.9022 18.649 30.8314 18.8198C30.7607 18.9905 30.6569 19.1456 30.5262 19.2762L20.6824 29.1199C20.5518 29.2507 20.3967 29.3544 20.226 29.4252C20.0553 29.4959 19.8723 29.5324 19.6875 29.5324C19.5027 29.5324 19.3197 29.4959 19.149 29.4252C18.9783 29.3544 18.8232 29.2507 18.6926 29.1199L14.4738 24.9012C14.21 24.6373 14.0617 24.2794 14.0617 23.9062C14.0617 23.5331 14.21 23.1752 14.4738 22.9113C14.7377 22.6475 15.0956 22.4992 15.4688 22.4992C15.8419 22.4992 16.1998 22.6475 16.4637 22.9113L19.6875 26.1369L28.5363 17.2863C28.6669 17.1556 28.822 17.0519 28.9927 16.9811C29.1635 16.9103 29.3465 16.8739 29.5313 16.8739C29.7161 16.8739 29.8991 16.9103 30.0698 16.9811C30.2405 17.0519 30.3956 17.1556 30.5262 17.2863ZM40.7813 22.5C40.7813 26.1157 39.7091 29.6502 37.7003 32.6565C35.6915 35.6629 32.8364 38.006 29.4959 39.3897C26.1555 40.7733 22.4797 41.1354 18.9335 40.43C15.3873 39.7246 12.1299 37.9835 9.57321 35.4268C7.01653 32.8701 5.27541 29.6127 4.57003 26.0665C3.86464 22.5203 4.22667 18.8445 5.61034 15.5041C6.994 12.1636 9.33715 9.30847 12.3435 7.2997C15.3498 5.29093 18.8843 4.21875 22.5 4.21875C27.3469 4.22387 31.9939 6.15157 35.4212 9.57886C38.8484 13.0061 40.7761 17.6531 40.7813 22.5ZM37.9688 22.5C37.9688 19.4406 37.0615 16.4498 35.3618 13.906C33.6621 11.3622 31.2462 9.37953 28.4196 8.20874C25.5931 7.03795 22.4828 6.73161 19.4822 7.32848C16.4816 7.92534 13.7253 9.3986 11.562 11.5619C9.39861 13.7253 7.92535 16.4816 7.32849 19.4822C6.73162 22.4828 7.03795 25.5931 8.20875 28.4196C9.37954 31.2462 11.3622 33.6621 13.906 35.3618C16.4499 37.0615 19.4406 37.9688 22.5 37.9688C26.6011 37.9641 30.533 36.3329 33.4329 33.4329C36.3329 30.533 37.9641 26.6011 37.9688 22.5Z" fill="#E60F53"/>
</svg>
