<svg width="45" height="45" viewBox="0 0 45 45" fill="none" xmlns="http://www.w3.org/2000/svg">
<path opacity="0.2" d="M26.7188 5.625V16.875C26.7188 17.6209 26.4224 18.3363 25.895 18.8637C25.3675 19.3912 24.6522 19.6875 23.9062 19.6875H5.625C4.87908 19.6875 4.16371 19.3912 3.63626 18.8637C3.10882 18.3363 2.8125 17.6209 2.8125 16.875V5.625C2.8125 4.87908 3.10882 4.16371 3.63626 3.63626C4.16371 3.10882 4.87908 2.8125 5.625 2.8125H23.9062C24.6522 2.8125 25.3675 3.10882 25.895 3.63626C26.4224 4.16371 26.7188 4.87908 26.7188 5.625Z" fill="#E60F53"/>
<path d="M10.255 17.87L4.62996 12.245C4.49922 12.1144 4.39549 11.9593 4.32472 11.7886C4.25395 11.6178 4.21753 11.4349 4.21753 11.25C4.21753 11.0652 4.25395 10.8823 4.32472 10.7115C4.39549 10.5408 4.49922 10.3857 4.62996 10.2551L10.255 4.63013C10.5188 4.36626 10.8767 4.21802 11.2499 4.21802C11.6231 4.21802 11.9809 4.36626 12.2448 4.63013C12.5087 4.894 12.6569 5.25188 12.6569 5.62505C12.6569 5.99822 12.5087 6.3561 12.2448 6.61997L7.61297 11.25L12.2448 15.8801C12.5087 16.144 12.6569 16.5019 12.6569 16.875C12.6569 17.2482 12.5087 17.6061 12.2448 17.87C11.9809 18.1338 11.6231 18.2821 11.2499 18.2821C10.8767 18.2821 10.5188 18.1338 10.255 17.87ZM17.2862 17.87C17.4168 18.0007 17.5719 18.1044 17.7426 18.1752C17.9133 18.246 18.0963 18.2824 18.2811 18.2824C18.4659 18.2824 18.6489 18.246 18.8196 18.1752C18.9904 18.1044 19.1455 18.0007 19.2761 17.87L24.9011 12.245C25.0318 12.1144 25.1355 11.9593 25.2063 11.7886C25.2771 11.6178 25.3135 11.4349 25.3135 11.25C25.3135 11.0652 25.2771 10.8823 25.2063 10.7115C25.1355 10.5408 25.0318 10.3857 24.9011 10.2551L19.2761 4.63013C19.0122 4.36626 18.6543 4.21802 18.2811 4.21802C17.908 4.21802 17.5501 4.36626 17.2862 4.63013C17.0223 4.894 16.8741 5.25188 16.8741 5.62505C16.8741 5.99822 17.0223 6.3561 17.2862 6.61997L21.9181 11.25L17.2862 15.8801C17.1555 16.0107 17.0517 16.1658 16.981 16.3365C16.9102 16.5073 16.8738 16.6902 16.8738 16.875C16.8738 17.0599 16.9102 17.2428 16.981 17.4136C17.0517 17.5843 17.1555 17.7394 17.2862 17.87ZM35.1561 7.0313H30.9374C30.5644 7.0313 30.2067 7.17946 29.943 7.44318C29.6793 7.7069 29.5311 8.06459 29.5311 8.43755C29.5311 8.81051 29.6793 9.1682 29.943 9.43192C30.2067 9.69564 30.5644 9.8438 30.9374 9.8438H35.1561V35.1563H9.84364V23.9063C9.84364 23.5333 9.69548 23.1757 9.43175 22.9119C9.16803 22.6482 8.81035 22.5 8.43739 22.5C8.06442 22.5 7.70674 22.6482 7.44302 22.9119C7.17929 23.1757 7.03114 23.5333 7.03114 23.9063V35.1563C7.03114 35.9022 7.32745 36.6176 7.8549 37.145C8.38234 37.6725 9.09771 37.9688 9.84364 37.9688H35.1561C35.9021 37.9688 36.6174 37.6725 37.1449 37.145C37.6723 36.6176 37.9686 35.9022 37.9686 35.1563V9.8438C37.9686 9.09788 37.6723 8.38251 37.1449 7.85506C36.6174 7.32762 35.9021 7.0313 35.1561 7.0313Z" fill="#E60F53"/>
</svg>
