<svg width="45" height="45" viewBox="0 0 45 45" fill="none" xmlns="http://www.w3.org/2000/svg">
<path opacity="0.2" d="M42.1875 22.5L33.75 29.5312H11.25L2.8125 22.5L11.25 15.4688H33.75L42.1875 22.5Z" fill="#E60F53"/>
<path d="M12.1501 16.5499L5.00983 22.5L12.1501 28.4502C12.296 28.5671 12.4172 28.7119 12.5066 28.8762C12.5959 29.0404 12.6516 29.2209 12.6704 29.4069C12.6892 29.593 12.6706 29.7809 12.6159 29.9597C12.5612 30.1385 12.4713 30.3046 12.3516 30.4482C12.2319 30.5919 12.0848 30.7102 11.9188 30.7963C11.7528 30.8824 11.5713 30.9346 11.3849 30.9497C11.1986 30.9648 11.011 30.9426 10.8333 30.8844C10.6556 30.8262 10.4914 30.7331 10.3501 30.6106L1.91257 23.5793C1.75424 23.4474 1.62687 23.2822 1.53946 23.0955C1.45205 22.9089 1.40674 22.7053 1.40674 22.4992C1.40674 22.2931 1.45205 22.0895 1.53946 21.9028C1.62687 21.7161 1.75424 21.551 1.91257 21.419L10.3501 14.3877C10.6368 14.149 11.0066 14.034 11.3781 14.068C11.7496 14.1019 12.0924 14.2821 12.3311 14.5688C12.5698 14.8555 12.6848 15.2253 12.6509 15.5968C12.6169 15.9683 12.4368 16.3112 12.1501 16.5499ZM43.0876 21.419L34.6501 14.3877C34.5081 14.2696 34.3442 14.1805 34.1679 14.1256C33.9915 14.0708 33.806 14.0512 33.622 14.068C33.4381 14.0848 33.2592 14.1377 33.0957 14.2236C32.9322 14.3095 32.7872 14.4268 32.669 14.5688C32.4303 14.8555 32.3153 15.2253 32.3492 15.5968C32.3832 15.9683 32.5634 16.3112 32.8501 16.5499L39.9903 22.5L32.8501 28.4502C32.7041 28.5671 32.5829 28.7119 32.4935 28.8762C32.4042 29.0404 32.3485 29.2209 32.3297 29.4069C32.311 29.593 32.3295 29.7809 32.3842 29.9597C32.439 30.1385 32.5288 30.3046 32.6485 30.4482C32.7682 30.5919 32.9154 30.7102 33.0813 30.7963C33.2473 30.8824 33.4288 30.9346 33.6152 30.9497C33.8016 30.9648 33.9891 30.9426 34.1668 30.8844C34.3445 30.8262 34.5088 30.7331 34.6501 30.6106L43.0876 23.5793C43.2459 23.4474 43.3733 23.2822 43.4607 23.0955C43.5481 22.9089 43.5934 22.7053 43.5934 22.4992C43.5934 22.2931 43.5481 22.0895 43.4607 21.9028C43.3733 21.7161 43.2459 21.551 43.0876 21.419ZM28.6049 5.70942C28.4314 5.6464 28.2471 5.61818 28.0626 5.62639C27.8781 5.6346 27.697 5.67906 27.5297 5.75725C27.3624 5.83543 27.2121 5.94581 27.0875 6.08207C26.9628 6.21834 26.8662 6.37782 26.8032 6.55141L15.5532 37.4889C15.4899 37.6626 15.4615 37.8471 15.4695 38.0318C15.4776 38.2165 15.522 38.3977 15.6002 38.5653C15.6784 38.7328 15.7889 38.8832 15.9253 39.008C16.0617 39.1328 16.2214 39.2294 16.3952 39.2924C16.5492 39.3472 16.7116 39.3751 16.8751 39.375C17.1639 39.3751 17.4457 39.2861 17.6822 39.1204C17.9187 38.9547 18.0984 38.7201 18.1969 38.4487L29.4469 7.51118C29.51 7.33759 29.5382 7.15328 29.53 6.96879C29.5218 6.78429 29.4773 6.60322 29.3991 6.43591C29.3209 6.2686 29.2106 6.11833 29.0743 5.99368C28.938 5.86903 28.7785 5.77244 28.6049 5.70942Z" fill="#E60F53"/>
</svg>
