<svg width="45" height="45" viewBox="0 0 45 45" fill="none" xmlns="http://www.w3.org/2000/svg">
<path opacity="0.2" d="M36.5625 22.5V35.1562C36.5625 35.5292 36.4143 35.8869 36.1506 36.1506C35.8869 36.4143 35.5292 36.5625 35.1562 36.5625H9.84375C9.47079 36.5625 9.1131 36.4143 8.84938 36.1506C8.58566 35.8869 8.4375 35.5292 8.4375 35.1562V22.5H36.5625Z" fill="#E60F53"/>
<path d="M37.9688 12.6563H31.8023C31.8709 12.5983 31.9412 12.542 32.008 12.4805C32.5419 12.0062 32.9721 11.4268 33.2719 10.7787C33.5716 10.1305 33.7344 9.42744 33.75 8.71349C33.7731 7.93245 33.6363 7.15493 33.348 6.42866C33.0598 5.7024 32.6261 5.04271 32.0737 4.49011C31.5212 3.9375 30.8617 3.50364 30.1355 3.21516C29.4093 2.92667 28.6318 2.78965 27.8508 2.81251C27.1365 2.8279 26.4331 2.99055 25.7847 3.2903C25.1362 3.59004 24.5565 4.02043 24.082 4.5545C23.4255 5.31545 22.8917 6.17423 22.5 7.09982C22.1083 6.17423 21.5745 5.31545 20.918 4.5545C20.4435 4.02043 19.8638 3.59004 19.2153 3.2903C18.5669 2.99055 17.8635 2.8279 17.1492 2.81251C16.3682 2.78965 15.5907 2.92667 14.8645 3.21516C14.1383 3.50364 13.4788 3.9375 12.9263 4.49011C12.3739 5.04271 11.9402 5.7024 11.652 6.42866C11.3637 7.15493 11.2269 7.93245 11.25 8.71349C11.2656 9.42744 11.4284 10.1305 11.7281 10.7787C12.0279 11.4268 12.4581 12.0062 12.992 12.4805C13.0588 12.5385 13.1291 12.5947 13.1977 12.6563H7.03125C6.28533 12.6563 5.56996 12.9526 5.04251 13.48C4.51507 14.0075 4.21875 14.7228 4.21875 15.4688V21.0938C4.21875 21.8397 4.51507 22.5551 5.04251 23.0825C5.56996 23.6099 6.28533 23.9063 7.03125 23.9063V35.1563C7.03125 35.9022 7.32757 36.6176 7.85501 37.145C8.38246 37.6724 9.09783 37.9688 9.84375 37.9688H35.1562C35.9022 37.9688 36.6175 37.6724 37.145 37.145C37.6724 36.6176 37.9688 35.9022 37.9688 35.1563V23.9063C38.7147 23.9063 39.43 23.6099 39.9575 23.0825C40.4849 22.5551 40.7812 21.8397 40.7812 21.0938V15.4688C40.7812 14.7228 40.4849 14.0075 39.9575 13.48C39.43 12.9526 38.7147 12.6563 37.9688 12.6563ZM26.1914 6.41779C26.4141 6.1719 26.6852 5.97471 26.9877 5.83859C27.2901 5.70246 27.6175 5.63035 27.9492 5.62677H28.0354C28.4241 5.6292 28.8085 5.7092 29.166 5.86209C29.5234 6.01498 29.8468 6.23767 30.117 6.51713C30.3873 6.79658 30.5991 7.12718 30.74 7.48953C30.8809 7.85189 30.948 8.23872 30.9375 8.62736C30.9339 8.95905 30.8618 9.28643 30.7257 9.58892C30.5896 9.89142 30.3924 10.1625 30.1465 10.3852C28.4783 11.8617 25.7098 12.382 23.9941 12.5649C24.2051 10.7033 24.7852 7.99806 26.1914 6.41779ZM14.9256 6.48107C15.4704 5.9363 16.2083 5.62865 16.9787 5.62501H17.0648C17.3965 5.62859 17.7239 5.7007 18.0264 5.83683C18.3289 5.97295 18.6 6.17015 18.8227 6.41603C20.2975 8.08243 20.8178 10.8457 21.0006 12.5543C19.292 12.3785 16.5287 11.8512 14.8623 10.3764C14.6164 10.1537 14.4192 9.88263 14.2831 9.58014C14.147 9.27764 14.0749 8.95026 14.0713 8.61857C14.0604 8.22347 14.1299 7.83028 14.2755 7.46285C14.4212 7.09541 14.6399 6.7614 14.9186 6.48107H14.9256ZM7.03125 15.4688H21.0938V21.0938H7.03125V15.4688ZM9.84375 23.9063H21.0938V35.1563H9.84375V23.9063ZM35.1562 35.1563H23.9062V23.9063H35.1562V35.1563ZM37.9688 21.0938H23.9062V15.4688H37.9688V21.0938Z" fill="#E60F53"/>
</svg>
