<svg width="45" height="45" viewBox="0 0 45 45" fill="none" xmlns="http://www.w3.org/2000/svg">
<path opacity="0.2" d="M15.4688 11.25C15.4688 12.0844 15.2213 12.9 14.7578 13.5938C14.2942 14.2876 13.6353 14.8283 12.8644 15.1476C12.0936 15.4669 11.2453 15.5505 10.427 15.3877C9.60861 15.2249 8.8569 14.8231 8.26689 14.2331C7.67689 13.6431 7.2751 12.8914 7.11231 12.073C6.94953 11.2547 7.03308 10.4064 7.35239 9.63555C7.67169 8.86468 8.21242 8.2058 8.90619 7.74224C9.59996 7.27868 10.4156 7.03125 11.25 7.03125C12.3689 7.03125 13.4419 7.47572 14.2331 8.26689C15.0243 9.05806 15.4688 10.1311 15.4688 11.25ZM33.75 7.03125C32.9156 7.03125 32.1 7.27868 31.4062 7.74224C30.7124 8.2058 30.1717 8.86468 29.8524 9.63555C29.5331 10.4064 29.4495 11.2547 29.6123 12.073C29.7751 12.8914 30.1769 13.6431 30.7669 14.2331C31.3569 14.8231 32.1086 15.2249 32.927 15.3877C33.7453 15.5505 34.5936 15.4669 35.3644 15.1476C36.1353 14.8283 36.7942 14.2876 37.2578 13.5938C37.7213 12.9 37.9688 12.0844 37.9688 11.25C37.9688 10.1311 37.5243 9.05806 36.7331 8.26689C35.9419 7.47572 34.8689 7.03125 33.75 7.03125Z" fill="#E60F53"/>
<path d="M39.375 11.25C39.3745 10.198 39.079 9.16731 38.5221 8.27488C37.9652 7.38245 37.1692 6.66406 36.2245 6.20131C35.2798 5.73855 34.2243 5.54998 33.1778 5.65699C32.1313 5.76401 31.1358 6.16233 30.3043 6.80673C29.4728 7.45112 28.8387 8.31575 28.474 9.30244C28.1092 10.2891 28.0285 11.3583 28.2409 12.3886C28.4533 13.4189 28.9503 14.3689 29.6756 15.1309C30.4008 15.8929 31.3252 16.4362 32.3438 16.6992V19.6875C32.3438 20.0604 32.1956 20.4181 31.9319 20.6818C31.6682 20.9456 31.3105 21.0937 30.9375 21.0937H14.0625C13.6896 21.0937 13.3319 20.9456 13.0681 20.6818C12.8044 20.4181 12.6563 20.0604 12.6563 19.6875V16.6992C13.9819 16.3569 15.1372 15.5429 15.9055 14.4098C16.6739 13.2767 17.0027 11.9022 16.8302 10.544C16.6577 9.18586 15.9957 7.93722 14.9685 7.03218C13.9412 6.12713 12.6191 5.62781 11.25 5.62781C9.88093 5.62781 8.55884 6.12713 7.53156 7.03218C6.50429 7.93722 5.84236 9.18586 5.66985 10.544C5.49734 11.9022 5.82609 13.2767 6.59448 14.4098C7.36287 15.5429 8.51815 16.3569 9.84376 16.6992V19.6875C9.84376 20.8064 10.2882 21.8794 11.0794 22.6706C11.8706 23.4618 12.9436 23.9062 14.0625 23.9062H21.0938V28.3008C19.7682 28.643 18.6129 29.457 17.8445 30.5901C17.0761 31.7233 16.7473 33.0977 16.9198 34.4559C17.0924 35.8141 17.7543 37.0627 18.7816 37.9678C19.8088 38.8728 21.1309 39.3721 22.5 39.3721C23.8691 39.3721 25.1912 38.8728 26.2185 37.9678C27.2457 37.0627 27.9077 35.8141 28.0802 34.4559C28.2527 33.0977 27.9239 31.7233 27.1556 30.5901C26.3872 29.457 25.2319 28.643 23.9063 28.3008V23.9062H30.9375C32.0564 23.9062 33.1295 23.4618 33.9206 22.6706C34.7118 21.8794 35.1563 20.8064 35.1563 19.6875V16.6992C36.3633 16.3857 37.4322 15.6807 38.1956 14.6946C38.9591 13.7085 39.3738 12.497 39.375 11.25ZM8.43751 11.25C8.43751 10.6937 8.60246 10.1499 8.91151 9.68743C9.22055 9.22492 9.6598 8.86443 10.1737 8.65156C10.6876 8.43869 11.2531 8.38299 11.7987 8.49152C12.3443 8.60004 12.8454 8.8679 13.2388 9.26124C13.6321 9.65457 13.9 10.1557 14.0085 10.7013C14.117 11.2469 14.0613 11.8124 13.8484 12.3263C13.6356 12.8402 13.2751 13.2794 12.8126 13.5885C12.35 13.8975 11.8063 14.0625 11.25 14.0625C10.5041 14.0625 9.78872 13.7662 9.26128 13.2387C8.73383 12.7113 8.43751 11.9959 8.43751 11.25ZM25.3125 33.75C25.3125 34.3062 25.1476 34.85 24.8385 35.3125C24.5295 35.775 24.0902 36.1355 23.5763 36.3484C23.0624 36.5613 22.4969 36.617 21.9513 36.5084C21.4058 36.3999 20.9046 36.132 20.5113 35.7387C20.1179 35.3454 19.8501 34.8442 19.7416 34.2987C19.633 33.7531 19.6887 33.1876 19.9016 32.6737C20.1145 32.1598 20.475 31.7205 20.9375 31.4115C21.4 31.1024 21.9438 30.9375 22.5 30.9375C23.2459 30.9375 23.9613 31.2338 24.4888 31.7612C25.0162 32.2887 25.3125 33.0041 25.3125 33.75ZM33.75 14.0625C33.1938 14.0625 32.65 13.8975 32.1875 13.5885C31.725 13.2794 31.3645 12.8402 31.1516 12.3263C30.9387 11.8124 30.883 11.2469 30.9916 10.7013C31.1001 10.1557 31.3679 9.65457 31.7613 9.26124C32.1546 8.8679 32.6558 8.60004 33.2013 8.49152C33.7469 8.38299 34.3124 8.43869 34.8263 8.65156C35.3402 8.86443 35.7795 9.22492 36.0885 9.68743C36.3976 10.1499 36.5625 10.6937 36.5625 11.25C36.5625 11.9959 36.2662 12.7113 35.7388 13.2387C35.2113 13.7662 34.4959 14.0625 33.75 14.0625Z" fill="#E60F53"/>
</svg>
