<svg width="45" height="45" viewBox="0 0 45 45" fill="none" xmlns="http://www.w3.org/2000/svg">
<path opacity="0.2" d="M37.9688 19.8756V29.2307C37.9695 29.5743 37.8445 29.9064 37.6172 30.1641C35.6309 32.3772 30.7793 36.5625 22.5 36.5625C14.2207 36.5625 9.37266 32.3772 7.38282 30.1641C7.15552 29.9064 7.03046 29.5743 7.03125 29.2307V19.8756L22.5 28.125L37.9688 19.8756Z" fill="#E60F53"/>
<path d="M44.2547 15.634L23.161 4.38399C22.9575 4.27566 22.7306 4.21899 22.5 4.21899C22.2695 4.21899 22.0426 4.27566 21.8391 4.38399L0.745362 15.634C0.520369 15.7539 0.332206 15.9327 0.201002 16.1513C0.0697977 16.3699 0.000488281 16.6201 0.000488281 16.875C0.000488281 17.13 0.0697977 17.3801 0.201002 17.5987C0.332206 17.8173 0.520369 17.9961 0.745362 18.116L5.62505 20.7193V29.2307C5.62359 29.9214 5.8778 30.5883 6.33872 31.1027C8.64146 33.6674 13.8006 37.9688 22.5 37.9688C25.3845 37.9926 28.2474 37.4701 30.9376 36.4289V42.1875C30.9376 42.5605 31.0857 42.9182 31.3494 43.1819C31.6132 43.4456 31.9708 43.5938 32.3438 43.5938C32.7168 43.5938 33.0744 43.4456 33.3382 43.1819C33.6019 42.9182 33.75 42.5605 33.75 42.1875V35.0701C35.5838 34.0116 37.2409 32.6729 38.6614 31.1027C39.1223 30.5883 39.3765 29.9214 39.3751 29.2307V20.7193L44.2547 18.116C44.4797 17.9961 44.6679 17.8173 44.7991 17.5987C44.9303 17.3801 44.9996 17.13 44.9996 16.875C44.9996 16.6201 44.9303 16.3699 44.7991 16.1513C44.6679 15.9327 44.4797 15.7539 44.2547 15.634ZM22.5 35.1563C14.894 35.1563 10.4204 31.4402 8.43755 29.2307V22.2188L21.8391 29.366C22.0426 29.4744 22.2695 29.531 22.5 29.531C22.7306 29.531 22.9575 29.4744 23.161 29.366L30.9376 25.2193V33.365C28.7227 34.3986 25.9313 35.1563 22.5 35.1563ZM36.5625 29.2236C35.7196 30.1591 34.7764 30.9991 33.75 31.7285V23.7182L36.5625 22.2188V29.2236ZM33.0469 20.9074L33.0083 20.8846L23.1645 15.634C22.8361 15.4662 22.4549 15.4342 22.1031 15.5448C21.7513 15.6554 21.457 15.8998 21.2836 16.2253C21.1103 16.5508 21.0717 16.9314 21.1763 17.285C21.2808 17.6387 21.5201 17.9371 21.8426 18.116L30.0586 22.5L22.5 26.5307L4.39458 16.875L22.5 7.21935L40.6055 16.875L33.0469 20.9074Z" fill="#E60F53"/>
</svg>
