<svg width="45" height="45" viewBox="0 0 45 45" fill="none" xmlns="http://www.w3.org/2000/svg">
<path opacity="0.2" d="M16.875 42.1875L19.6875 28.125L8.4375 23.9062L28.125 2.8125L25.3125 16.875L36.5625 21.0938L16.875 42.1875Z" fill="#E60F53"/>
<path d="M37.9318 20.772C37.8786 20.5467 37.7705 20.3379 37.6172 20.1643C37.4638 19.9908 37.27 19.8578 37.0529 19.7771L26.9262 15.9785L29.5031 3.08845C29.5615 2.78896 29.5208 2.47861 29.3873 2.20424C29.2538 1.92987 29.0347 1.70637 28.763 1.56745C28.4914 1.42854 28.1819 1.38176 27.8813 1.43417C27.5807 1.48658 27.3053 1.63533 27.0967 1.85798L7.40918 22.9517C7.24928 23.1202 7.1336 23.3257 7.07249 23.5498C7.01138 23.7739 7.00673 24.0096 7.05896 24.236C7.11119 24.4623 7.21868 24.6722 7.37181 24.8468C7.52494 25.0215 7.71896 25.1555 7.93652 25.2369L18.0668 29.0355L15.4969 41.9115C15.4385 42.211 15.4792 42.5213 15.6127 42.7957C15.7462 43.0701 15.9653 43.2936 16.237 43.4325C16.5086 43.5714 16.8181 43.6182 17.1187 43.5658C17.4193 43.5134 17.6947 43.3646 17.9033 43.142L37.5908 22.0482C37.7478 21.8797 37.861 21.6752 37.9205 21.4527C37.98 21.2301 37.9838 20.9964 37.9318 20.772ZM19.2252 37.6172L21.0656 28.4097C21.1315 28.0832 21.0793 27.7439 20.9183 27.4522C20.7574 27.1606 20.4981 26.9355 20.1867 26.8172L10.8984 23.3279L25.773 7.39158L23.9344 16.599C23.8685 16.9255 23.9207 17.2649 24.0817 17.5565C24.2426 17.8482 24.5019 18.0732 24.8133 18.1916L34.0945 21.672L19.2252 37.6172Z" fill="#E60F53"/>
</svg>
