<svg width="45" height="45" viewBox="0 0 45 45" fill="none" xmlns="http://www.w3.org/2000/svg">
<path opacity="0.2" d="M30.9375 16.875C30.9375 18.5438 30.4427 20.1751 29.5155 21.5626C28.5884 22.9502 27.2706 24.0316 25.7289 24.6702C24.1871 25.3088 22.4906 25.4759 20.8539 25.1504C19.2172 24.8248 17.7138 24.0212 16.5338 22.8412C15.3538 21.6612 14.5502 20.1578 14.2246 18.5211C13.8991 16.8844 14.0662 15.1879 14.7048 13.6461C15.3434 12.1044 16.4248 10.7866 17.8124 9.85948C19.1999 8.93235 20.8312 8.4375 22.5 8.4375C24.7378 8.4375 26.8839 9.32645 28.4662 10.9088C30.0486 12.4911 30.9375 14.6372 30.9375 16.875Z" fill="#E60F53"/>
<path d="M37.9688 16.875C37.9703 14.2682 37.313 11.7033 36.058 9.41843C34.8029 7.13361 32.9908 5.20303 30.7899 3.80599C28.589 2.40896 26.0708 1.59079 23.4691 1.42748C20.8673 1.26417 18.2666 1.76102 15.9083 2.87188C13.55 3.98274 11.5106 5.67157 9.97974 7.78152C8.44882 9.89146 7.47596 12.3541 7.15152 14.9406C6.82709 17.5272 7.16159 20.1538 8.12396 22.5765C9.08634 24.9992 10.6454 27.1394 12.6563 28.7983V42.1875C12.6561 42.4274 12.7172 42.6632 12.8339 42.8728C12.9506 43.0823 13.119 43.2585 13.323 43.3846C13.5269 43.5107 13.7598 43.5826 13.9994 43.5934C14.239 43.6041 14.4773 43.5534 14.6918 43.4461L22.5 39.5508L30.31 43.4549C30.5058 43.5486 30.7205 43.5961 30.9375 43.5938C31.3105 43.5938 31.6681 43.4456 31.9319 43.1819C32.1956 42.9182 32.3438 42.5605 32.3438 42.1875V28.7983C34.1032 27.3492 35.52 25.5286 36.4926 23.4671C37.4651 21.4056 37.9692 19.1544 37.9688 16.875ZM9.84375 16.875C9.84375 14.3719 10.586 11.9249 11.9767 9.84359C13.3674 7.76229 15.344 6.1401 17.6567 5.18218C19.9693 4.22426 22.514 3.97362 24.9691 4.46197C27.4242 4.95031 29.6793 6.1557 31.4493 7.92571C33.2193 9.69572 34.4247 11.9508 34.9131 14.4059C35.4014 16.861 35.1508 19.4057 34.1929 21.7184C33.2349 24.031 31.6127 26.0076 29.5314 27.3983C27.4501 28.789 25.0032 29.5313 22.5 29.5313C19.1445 29.5276 15.9275 28.1929 13.5548 25.8202C11.1821 23.4475 9.84747 20.2305 9.84375 16.875ZM29.5313 39.9129L23.1275 36.7119C22.9322 36.6142 22.7167 36.5633 22.4982 36.5633C22.2798 36.5633 22.0643 36.6142 21.8689 36.7119L15.4688 39.9129V30.651C17.6456 31.7636 20.0553 32.3438 22.5 32.3438C24.9447 32.3438 27.3544 31.7636 29.5313 30.651V39.9129ZM22.5 26.7188C24.4469 26.7188 26.3501 26.1415 27.9689 25.0598C29.5877 23.9782 30.8494 22.4408 31.5944 20.6421C32.3395 18.8434 32.5344 16.8641 32.1546 14.9546C31.7748 13.0451 30.8373 11.2911 29.4606 9.91445C28.0839 8.53778 26.3299 7.60025 24.4204 7.22043C22.5109 6.8406 20.5317 7.03554 18.733 7.78059C16.9343 8.52564 15.3969 9.78734 14.3152 11.4061C13.2336 13.0249 12.6563 14.9281 12.6563 16.875C12.659 19.4849 13.697 21.9871 15.5425 23.8325C17.388 25.678 19.8901 26.716 22.5 26.7188ZM22.5 9.84378C23.8907 9.84378 25.2501 10.2562 26.4064 11.0288C27.5626 11.8014 28.4639 12.8995 28.996 14.1843C29.5282 15.4691 29.6674 16.8828 29.3961 18.2468C29.1248 19.6107 28.4552 20.8635 27.4718 21.8469C26.4885 22.8302 25.2357 23.4999 23.8717 23.7712C22.5078 24.0425 21.0941 23.9032 19.8093 23.3711C18.5245 22.8389 17.4263 21.9377 16.6537 20.7814C15.8811 19.6251 15.4688 18.2657 15.4688 16.875C15.4688 15.0102 16.2095 13.2218 17.5282 11.9032C18.8468 10.5846 20.6352 9.84378 22.5 9.84378Z" fill="#E60F53"/>
</svg>
