<svg width="45" height="45" viewBox="0 0 45 45" fill="none" xmlns="http://www.w3.org/2000/svg">
<path opacity="0.2" d="M25.3125 12.1447V30.0427L8.83125 35.0982C8.62181 35.1593 8.40103 35.1708 8.18637 35.1318C7.97172 35.0929 7.76907 35.0045 7.59445 34.8737C7.41984 34.7429 7.27805 34.5733 7.1803 34.3783C7.08255 34.1832 7.03152 33.9681 7.03125 33.75V8.43745C7.03152 8.21929 7.08255 8.00418 7.1803 7.80914C7.27805 7.61409 7.41984 7.44447 7.59445 7.31368C7.76907 7.18289 7.97172 7.09452 8.18637 7.05556C8.40103 7.0166 8.62181 7.02812 8.83125 7.08921L25.3125 12.1447Z" fill="#E60F53"/>
<path d="M40.173 15.2332L9.225 5.74104C8.80612 5.61887 8.36457 5.59583 7.93525 5.67375C7.50593 5.75167 7.10063 5.92841 6.75141 6.18999C6.40218 6.45157 6.1186 6.79081 5.9231 7.18089C5.7276 7.57098 5.62555 8.0012 5.625 8.43753V33.75C5.625 34.4959 5.92132 35.2113 6.44876 35.7388C6.97621 36.2662 7.69158 36.5625 8.4375 36.5625C8.70644 36.5626 8.97401 36.5241 9.23203 36.4483L23.9062 31.9447V33.75C23.9062 34.4959 24.2026 35.2113 24.73 35.7388C25.2575 36.2662 25.9728 36.5625 26.7188 36.5625H32.3438C33.0897 36.5625 33.805 36.2662 34.3325 35.7388C34.8599 35.2113 35.1562 34.4959 35.1562 33.75V28.4942L40.173 26.9561C40.7537 26.7816 41.2629 26.4252 41.6256 25.9394C41.9883 25.4536 42.1853 24.8641 42.1875 24.2578V17.9297C42.1849 17.3237 41.9877 16.7346 41.625 16.2492C41.2624 15.7637 40.7534 15.4076 40.173 15.2332ZM23.9062 29.0039L8.4375 33.75V8.43753L23.9062 13.1836V29.0039ZM32.3438 33.75H26.7188V31.0817L32.3438 29.3555V33.75ZM39.375 24.2578H39.3557L26.7188 28.1391V14.0485L39.3557 17.9156H39.375V24.2438V24.2578Z" fill="#E60F53"/>
</svg>
