<svg width="45" height="45" viewBox="0 0 45 45" fill="none" xmlns="http://www.w3.org/2000/svg">
<path opacity="0.2" d="M26.7188 7.03125V12.6562C26.7188 13.0292 26.5706 13.3869 26.3069 13.6506C26.0431 13.9143 25.6855 14.0625 25.3125 14.0625H19.6875C19.3145 14.0625 18.9569 13.9143 18.6931 13.6506C18.4294 13.3869 18.2812 13.0292 18.2812 12.6562V7.03125C18.2812 6.65829 18.4294 6.3006 18.6931 6.03688C18.9569 5.77316 19.3145 5.625 19.6875 5.625H25.3125C25.6855 5.625 26.0431 5.77316 26.3069 6.03688C26.5706 6.3006 26.7188 6.65829 26.7188 7.03125ZM14.0625 29.5312H8.4375C8.06454 29.5312 7.70685 29.6794 7.44313 29.9431C7.17941 30.2069 7.03125 30.5645 7.03125 30.9375V36.5625C7.03125 36.9355 7.17941 37.2931 7.44313 37.5569C7.70685 37.8206 8.06454 37.9688 8.4375 37.9688H14.0625C14.4355 37.9688 14.7931 37.8206 15.0569 37.5569C15.3206 37.2931 15.4688 36.9355 15.4688 36.5625V30.9375C15.4688 30.5645 15.3206 30.2069 15.0569 29.9431C14.7931 29.6794 14.4355 29.5312 14.0625 29.5312ZM36.5625 29.5312H30.9375C30.5645 29.5312 30.2069 29.6794 29.9431 29.9431C29.6794 30.2069 29.5312 30.5645 29.5312 30.9375V36.5625C29.5312 36.9355 29.6794 37.2931 29.9431 37.5569C30.2069 37.8206 30.5645 37.9688 30.9375 37.9688H36.5625C36.9355 37.9688 37.2931 37.8206 37.5569 37.5569C37.8206 37.2931 37.9688 36.9355 37.9688 36.5625V30.9375C37.9688 30.5645 37.8206 30.2069 37.5569 29.9431C37.2931 29.6794 36.9355 29.5312 36.5625 29.5312Z" fill="#E60F53"/>
<path d="M40.7812 19.6875H23.9062V15.4688H25.3125C26.0584 15.4688 26.7738 15.1724 27.3012 14.645C27.8287 14.1175 28.125 13.4022 28.125 12.6562V7.03125C28.125 6.28533 27.8287 5.56996 27.3012 5.04251C26.7738 4.51507 26.0584 4.21875 25.3125 4.21875H19.6875C18.9416 4.21875 18.2262 4.51507 17.6988 5.04251C17.1713 5.56996 16.875 6.28533 16.875 7.03125V12.6562C16.875 13.4022 17.1713 14.1175 17.6988 14.645C18.2262 15.1724 18.9416 15.4688 19.6875 15.4688H21.0938V19.6875H4.21875C3.84579 19.6875 3.4881 19.8357 3.22438 20.0994C2.96066 20.3631 2.8125 20.7208 2.8125 21.0938C2.8125 21.4667 2.96066 21.8244 3.22438 22.0881C3.4881 22.3518 3.84579 22.5 4.21875 22.5H9.84375V28.125H8.4375C7.69158 28.125 6.97621 28.4213 6.44876 28.9488C5.92132 29.4762 5.625 30.1916 5.625 30.9375V36.5625C5.625 37.3084 5.92132 38.0238 6.44876 38.5512C6.97621 39.0787 7.69158 39.375 8.4375 39.375H14.0625C14.8084 39.375 15.5238 39.0787 16.0512 38.5512C16.5787 38.0238 16.875 37.3084 16.875 36.5625V30.9375C16.875 30.1916 16.5787 29.4762 16.0512 28.9488C15.5238 28.4213 14.8084 28.125 14.0625 28.125H12.6562V22.5H32.3438V28.125H30.9375C30.1916 28.125 29.4762 28.4213 28.9488 28.9488C28.4213 29.4762 28.125 30.1916 28.125 30.9375V36.5625C28.125 37.3084 28.4213 38.0238 28.9488 38.5512C29.4762 39.0787 30.1916 39.375 30.9375 39.375H36.5625C37.3084 39.375 38.0238 39.0787 38.5512 38.5512C39.0787 38.0238 39.375 37.3084 39.375 36.5625V30.9375C39.375 30.1916 39.0787 29.4762 38.5512 28.9488C38.0238 28.4213 37.3084 28.125 36.5625 28.125H35.1562V22.5H40.7812C41.1542 22.5 41.5119 22.3518 41.7756 22.0881C42.0393 21.8244 42.1875 21.4667 42.1875 21.0938C42.1875 20.7208 42.0393 20.3631 41.7756 20.0994C41.5119 19.8357 41.1542 19.6875 40.7812 19.6875ZM19.6875 7.03125H25.3125V12.6562H19.6875V7.03125ZM14.0625 36.5625H8.4375V30.9375H14.0625V36.5625ZM36.5625 36.5625H30.9375V30.9375H36.5625V36.5625Z" fill="#E60F53"/>
</svg>
