<svg width="45" height="45" viewBox="0 0 45 45" fill="none" xmlns="http://www.w3.org/2000/svg">
<path opacity="0.2" d="M37.9688 28.125L28.125 37.9688V28.125H37.9688Z" fill="#E60F53"/>
<path d="M15.4688 16.875C15.4688 16.502 15.6169 16.1444 15.8806 15.8806C16.1444 15.6169 16.502 15.4688 16.875 15.4688H28.125C28.498 15.4688 28.8556 15.6169 29.1194 15.8806C29.3831 16.1444 29.5313 16.502 29.5313 16.875C29.5313 17.248 29.3831 17.6056 29.1194 17.8694C28.8556 18.1331 28.498 18.2813 28.125 18.2813H16.875C16.502 18.2813 16.1444 18.1331 15.8806 17.8694C15.6169 17.6056 15.4688 17.248 15.4688 16.875ZM16.875 23.9063H28.125C28.498 23.9063 28.8556 23.7581 29.1194 23.4944C29.3831 23.2306 29.5313 22.873 29.5313 22.5C29.5313 22.127 29.3831 21.7694 29.1194 21.5056C28.8556 21.2419 28.498 21.0938 28.125 21.0938H16.875C16.502 21.0938 16.1444 21.2419 15.8806 21.5056C15.6169 21.7694 15.4688 22.127 15.4688 22.5C15.4688 22.873 15.6169 23.2306 15.8806 23.4944C16.1444 23.7581 16.502 23.9063 16.875 23.9063ZM22.5 26.7188H16.875C16.502 26.7188 16.1444 26.8669 15.8806 27.1306C15.6169 27.3944 15.4688 27.752 15.4688 28.125C15.4688 28.498 15.6169 28.8556 15.8806 29.1194C16.1444 29.3831 16.502 29.5313 16.875 29.5313H22.5C22.873 29.5313 23.2306 29.3831 23.4944 29.1194C23.7581 28.8556 23.9063 28.498 23.9063 28.125C23.9063 27.752 23.7581 27.3944 23.4944 27.1306C23.2306 26.8669 22.873 26.7188 22.5 26.7188ZM39.375 8.4375V27.5432C39.3762 27.9126 39.3039 28.2787 39.1624 28.62C39.0209 28.9613 38.8129 29.271 38.5506 29.5313L29.5313 38.5506C29.271 38.8129 28.9613 39.0209 28.62 39.1624C28.2787 39.3039 27.9126 39.3762 27.5432 39.375H8.4375C7.69158 39.375 6.97621 39.0787 6.44876 38.5512C5.92132 38.0238 5.625 37.3084 5.625 36.5625V8.4375C5.625 7.69158 5.92132 6.97621 6.44876 6.44876C6.97621 5.92132 7.69158 5.625 8.4375 5.625H36.5625C37.3084 5.625 38.0238 5.92132 38.5512 6.44876C39.0787 6.97621 39.375 7.69158 39.375 8.4375ZM8.4375 36.5625H26.7188V28.125C26.7188 27.752 26.8669 27.3944 27.1306 27.1306C27.3944 26.8669 27.752 26.7188 28.125 26.7188H36.5625V8.4375H8.4375V36.5625ZM29.5313 29.5313V34.5762L34.5744 29.5313H29.5313Z" fill="#E60F53"/>
</svg>
