<svg width="45" height="45" viewBox="0 0 45 45" fill="none" xmlns="http://www.w3.org/2000/svg">
<path opacity="0.2" d="M31.7725 18.4131L35.8594 22.5L21.4348 36.9035C19.8481 38.4646 17.7088 39.3354 15.483 39.3264C13.2571 39.3173 11.125 38.4291 9.55112 36.8552C7.9772 35.2812 7.08897 33.1491 7.0799 30.9233C7.07084 28.6975 7.94168 26.5582 9.50273 24.9715L26.9596 7.2721C28.0146 6.21709 29.4455 5.62439 30.9375 5.62439C32.4295 5.62439 33.8604 6.21709 34.9154 7.2721C35.9704 8.32711 36.5631 9.75802 36.5631 11.25C36.5631 12.742 35.9704 14.1729 34.9154 15.228L31.7725 18.4131Z" fill="#E60F53"/>
<path d="M36.8544 21.5051C36.9851 21.6357 37.0889 21.7908 37.1596 21.9615C37.2304 22.1323 37.2668 22.3153 37.2668 22.5001C37.2668 22.6849 37.2304 22.8679 37.1596 23.0386C37.0889 23.2093 36.9851 23.3644 36.8544 23.495L22.4315 37.909C20.5852 39.7552 18.081 40.7923 15.47 40.7921C12.859 40.7919 10.3549 39.7546 8.50879 37.9082C6.66263 36.0618 5.62557 33.5576 5.62573 30.9466C5.6259 28.3356 6.66328 25.8316 8.50967 23.9854L25.9577 6.28072C27.2759 4.96114 29.0643 4.21925 30.9295 4.21826C32.7947 4.21727 34.5838 4.95727 35.9034 6.27545C37.223 7.59363 37.9649 9.38203 37.9659 11.2472C37.9669 13.1124 37.2269 14.9016 35.9087 16.2212L18.4571 33.9258C17.6646 34.7184 16.5897 35.1636 15.4688 35.1636C14.348 35.1636 13.2731 34.7184 12.4806 33.9258C11.688 33.1333 11.2428 32.0584 11.2428 30.9376C11.2428 29.8167 11.688 28.7418 12.4806 27.9493L27.1231 13.0747C27.2514 12.9378 27.4058 12.828 27.5771 12.7518C27.7484 12.6755 27.9333 12.6342 28.1208 12.6304C28.3083 12.6267 28.4947 12.6604 28.669 12.7298C28.8432 12.7991 29.0019 12.9026 29.1355 13.0342C29.2692 13.1657 29.3752 13.3227 29.4473 13.4958C29.5194 13.669 29.5561 13.8548 29.5553 14.0423C29.5546 14.2299 29.5163 14.4154 29.4427 14.5879C29.3691 14.7604 29.2618 14.9165 29.1271 15.0469L14.4827 29.9374C14.3516 30.0674 14.2474 30.2221 14.176 30.3924C14.1047 30.5628 14.0676 30.7455 14.0668 30.9302C14.0661 31.1149 14.1017 31.2979 14.1717 31.4688C14.2417 31.6398 14.3447 31.7952 14.4748 31.9263C14.6049 32.0574 14.7595 32.1617 14.9299 32.233C15.1002 32.3044 15.283 32.3415 15.4676 32.3422C15.6523 32.3429 15.8354 32.3073 16.0063 32.2373C16.1772 32.1673 16.3327 32.0643 16.4638 31.9342L33.9136 14.2383C34.7061 13.4474 35.152 12.3741 35.1532 11.2544C35.1543 10.1347 34.7106 9.06047 33.9197 8.26793C33.1288 7.47539 32.0555 7.02949 30.9358 7.02834C29.8161 7.02719 28.7419 7.47087 27.9493 8.26178L10.5048 25.9594C9.85128 26.6119 9.33269 27.3867 8.97861 28.2396C8.62454 29.0925 8.44192 30.0067 8.44119 30.9302C8.44045 31.8537 8.62162 32.7682 8.97433 33.6217C9.32705 34.4751 9.84441 35.2508 10.4969 35.9043C11.1493 36.5578 11.9241 37.0764 12.777 37.4304C13.6299 37.7845 14.5442 37.9671 15.4676 37.9679C16.3911 37.9686 17.3057 37.7874 18.1591 37.4347C19.0126 37.082 19.7882 36.5646 20.4417 35.9122L34.8663 21.4981C35.1309 21.2355 35.489 21.0887 35.8618 21.0901C36.2346 21.0914 36.5916 21.2407 36.8544 21.5051Z" fill="#E60F53"/>
</svg>
