<svg width="45" height="45" viewBox="0 0 45 45" fill="none" xmlns="http://www.w3.org/2000/svg">
<path opacity="0.2" d="M39.375 22.5C39.3743 19.538 38.594 16.6283 37.1125 14.0634C35.631 11.4985 33.5005 9.36876 30.935 7.88818C28.3696 6.40761 25.4597 5.62837 22.4976 5.62878C19.5356 5.6292 16.6259 6.40925 14.0609 7.89055C11.4958 9.37185 9.3659 11.5022 7.88511 14.0675C6.40432 16.6328 5.62483 19.5427 5.625 22.5047C5.62517 25.4667 6.40498 28.3765 7.88606 30.9417C9.36714 33.5068 11.4973 35.637 14.0625 37.118V30.9375L22.5 12.6562L30.9375 30.9375V37.118C33.5034 35.6365 35.634 33.5057 37.1151 30.9396C38.5962 28.3736 39.3757 25.4628 39.375 22.5Z" fill="#E60F53"/>
<path d="M35.4269 9.57302C31.9985 6.14458 27.3485 4.21851 22.5 4.21851C17.6514 4.21851 13.0015 6.14458 9.57303 9.57303C6.14458 13.0015 4.21851 17.6514 4.21851 22.5C4.21851 27.3485 6.14458 31.9985 9.57302 35.4269C13.0015 38.8554 17.6514 40.7814 22.5 40.7814C27.3485 40.7814 31.9985 38.8554 35.4269 35.4269C38.8554 31.9985 40.7814 27.3485 40.7814 22.5C40.7814 17.6514 38.8554 13.0015 35.4269 9.57302ZM15.4687 33.75C15.4687 33.0041 15.765 32.2887 16.2925 31.7612C16.8199 31.2338 17.5353 30.9375 18.2812 30.9375C19.0271 30.9375 19.7425 31.2338 20.27 31.7612C20.7974 32.2887 21.0937 33.0041 21.0937 33.75V37.8967C19.1327 37.7194 17.2235 37.1693 15.4687 36.276V33.75ZM23.9062 33.75C23.9062 33.0041 24.2025 32.2887 24.73 31.7612C25.2574 31.2338 25.9728 30.9375 26.7187 30.9375C27.4646 30.9375 28.18 31.2338 28.7075 31.7612C29.2349 32.2887 29.5312 33.0041 29.5312 33.75V36.276C27.7765 37.1693 25.8673 37.7194 23.9062 37.8967V33.75ZM18.856 23.9062H26.1439L28.1795 28.3183C27.1669 28.0454 26.0981 28.0616 25.0942 28.3652C24.0904 28.6687 23.1917 29.2474 22.5 30.0357C21.8083 29.2474 20.9096 28.6687 19.9057 28.3652C18.9019 28.0616 17.8331 28.0454 16.8205 28.3183L18.856 23.9062ZM20.1551 21.0937L22.5 16.0119L24.8449 21.0937H20.1551ZM33.4371 33.4388C33.0855 33.7904 32.7199 34.1191 32.3437 34.4302V30.9375C32.344 30.734 32.2996 30.533 32.2136 30.3486L23.7761 12.0674C23.6634 11.8238 23.4834 11.6176 23.2572 11.4731C23.0311 11.3286 22.7683 11.2518 22.5 11.2518C22.2316 11.2518 21.9689 11.3286 21.7427 11.4731C21.5166 11.6176 21.3365 11.8238 21.2238 12.0674L12.7863 30.3486C12.7004 30.533 12.656 30.734 12.6562 30.9375V34.4302C12.2801 34.1191 11.9144 33.7904 11.5629 33.4388C9.39926 31.2756 7.92573 28.5193 7.32865 25.5186C6.73157 22.5179 7.03775 19.4075 8.20846 16.5808C9.37917 13.7541 11.3618 11.3381 13.9057 9.63823C16.4496 7.93838 19.4404 7.03109 22.5 7.03109C25.5595 7.03109 28.5504 7.93838 31.0942 9.63823C33.6381 11.3381 35.6208 13.7541 36.7915 16.5808C37.9622 19.4075 38.2684 22.5179 37.6713 25.5186C37.0742 28.5193 35.6007 31.2756 33.4371 33.4388Z" fill="#E60F53"/>
</svg>
