<svg width="45" height="45" viewBox="0 0 45 45" fill="none" xmlns="http://www.w3.org/2000/svg">
<path opacity="0.2" d="M13.3594 21.7969L23.2031 31.6406L18.1055 36.7383C17.3143 37.5294 16.2413 37.9738 15.1225 37.9738C14.0036 37.9738 12.9306 37.5294 12.1395 36.7383L8.26172 32.8553C7.47222 32.0643 7.02881 30.9924 7.02881 29.8749C7.02881 28.7574 7.47222 27.6855 8.26172 26.8945L13.3594 21.7969ZM36.7383 12.1447L32.8553 8.26172C32.0643 7.47222 30.9924 7.02881 29.8749 7.02881C28.7574 7.02881 27.6855 7.47222 26.8945 8.26172L21.7969 13.3594L31.6406 23.2031L36.7383 18.1055C37.5278 17.3145 37.9712 16.2426 37.9712 15.1251C37.9712 14.0076 37.5278 12.9357 36.7383 12.1447Z" fill="#E60F53"/>
<path d="M26.3075 24.3176C26.1769 24.1868 26.0218 24.0831 25.8511 24.0123C25.6803 23.9416 25.4974 23.9052 25.3126 23.9052C25.1277 23.9052 24.9448 23.9416 24.774 24.0123C24.6033 24.0831 24.4482 24.1868 24.3176 24.3176L21.0938 27.5432L17.4569 23.9063L20.6825 20.6824C20.9463 20.4186 21.0946 20.0607 21.0946 19.6875C21.0946 19.3143 20.9463 18.9565 20.6825 18.6926C20.4186 18.4287 20.0607 18.2805 19.6875 18.2805C19.3144 18.2805 18.9565 18.4287 18.6926 18.6926L15.4688 21.9182L12.245 18.6926C11.9811 18.4287 11.6232 18.2805 11.25 18.2805C10.8769 18.2805 10.519 18.4287 10.2551 18.6926C9.99126 18.9565 9.84302 19.3143 9.84302 19.6875C9.84302 20.0607 9.99126 20.4186 10.2551 20.6824L11.3713 21.7969L7.27212 25.8943C6.74965 26.4167 6.33521 27.0368 6.05244 27.7194C5.76968 28.4019 5.62414 29.1335 5.62414 29.8723C5.62414 30.6111 5.76968 31.3426 6.05244 32.0252C6.33521 32.7077 6.74965 33.3279 7.27212 33.8502L8.21782 34.7941L3.22388 39.7863C3.09322 39.917 2.98958 40.0721 2.91887 40.2428C2.84816 40.4135 2.81177 40.5965 2.81177 40.7813C2.81177 40.966 2.84816 41.149 2.91887 41.3197C2.98958 41.4904 3.09322 41.6455 3.22388 41.7762C3.48775 42.0401 3.84563 42.1883 4.2188 42.1883C4.40357 42.1883 4.58654 42.1519 4.75725 42.0812C4.92796 42.0105 5.08307 41.9068 5.21372 41.7762L10.2059 36.7822L11.1499 37.7279C11.6722 38.2504 12.2924 38.6649 12.9749 38.9476C13.6574 39.2304 14.389 39.3759 15.1278 39.3759C15.8666 39.3759 16.5981 39.2304 17.2807 38.9476C17.9632 38.6649 18.5834 38.2504 19.1057 37.7279L23.2032 33.6287L24.3176 34.7449C24.4483 34.8756 24.6034 34.9792 24.7741 35.0499C24.9448 35.1206 25.1278 35.157 25.3126 35.157C25.4973 35.157 25.6803 35.1206 25.851 35.0499C26.0217 34.9792 26.1768 34.8756 26.3075 34.7449C26.4381 34.6143 26.5418 34.4592 26.6125 34.2885C26.6832 34.1177 26.7196 33.9348 26.7196 33.75C26.7196 33.5652 26.6832 33.3823 26.6125 33.2116C26.5418 33.0408 26.4381 32.8857 26.3075 32.7551L23.0819 29.5313L26.3075 26.3074C26.4382 26.1768 26.5419 26.0217 26.6127 25.851C26.6835 25.6803 26.7199 25.4973 26.7199 25.3125C26.7199 25.1277 26.6835 24.9447 26.6127 24.774C26.5419 24.6033 26.4382 24.4482 26.3075 24.3176ZM17.1159 35.7434C16.5885 36.2704 15.8734 36.5665 15.1278 36.5665C14.3822 36.5665 13.6671 36.2704 13.1397 35.7434L9.26196 31.8604C8.73492 31.333 8.43885 30.6179 8.43885 29.8723C8.43885 29.1267 8.73492 28.4116 9.26196 27.8842L13.3594 23.785L21.2151 31.6406L17.1159 35.7434ZM41.7762 3.22384C41.6456 3.09309 41.4905 2.98936 41.3198 2.9186C41.1491 2.84783 40.9661 2.8114 40.7813 2.8114C40.5965 2.8114 40.4135 2.84783 40.2428 2.9186C40.0721 2.98936 39.917 3.09309 39.7864 3.22384L34.7942 8.21778L33.8502 7.27208C32.7942 6.21906 31.3637 5.62773 29.8723 5.62773C28.381 5.62773 26.9505 6.21906 25.8944 7.27208L21.7969 11.3713L20.6825 10.2551C20.4186 9.99122 20.0607 9.84298 19.6875 9.84298C19.3144 9.84298 18.9565 9.99122 18.6926 10.2551C18.4288 10.519 18.2805 10.8768 18.2805 11.25C18.2805 11.6232 18.4288 11.9811 18.6926 12.2449L32.7551 26.3074C32.8858 26.4381 33.0409 26.5417 33.2116 26.6124C33.3823 26.6831 33.5653 26.7195 33.7501 26.7195C33.9348 26.7195 34.1178 26.6831 34.2885 26.6124C34.4592 26.5417 34.6143 26.4381 34.745 26.3074C34.8756 26.1768 34.9793 26.0217 35.05 25.851C35.1207 25.6802 35.1571 25.4973 35.1571 25.3125C35.1571 25.1277 35.1207 24.9448 35.05 24.7741C34.9793 24.6034 34.8756 24.4482 34.745 24.3176L33.6288 23.2031L37.728 19.1057C38.2504 18.5833 38.6649 17.9632 38.9477 17.2806C39.2304 16.5981 39.376 15.8665 39.376 15.1277C39.376 14.3889 39.2304 13.6574 38.9477 12.9749C38.6649 12.2923 38.2504 11.6722 37.728 11.1498L36.7823 10.2059L41.7762 5.21368C41.907 5.08308 42.0107 4.92798 42.0815 4.75727C42.1522 4.58655 42.1887 4.40356 42.1887 4.21876C42.1887 4.03395 42.1522 3.85096 42.0815 3.68025C42.0107 3.50953 41.907 3.35444 41.7762 3.22384ZM35.7381 17.1106L31.6407 21.215L23.785 13.3594L27.8842 9.26192C28.4116 8.73487 29.1267 8.43881 29.8723 8.43881C30.6179 8.43881 31.333 8.73487 31.8604 9.26192L35.7381 13.1291C36.0007 13.3904 36.209 13.7011 36.3512 14.0431C36.4933 14.3852 36.5665 14.752 36.5665 15.1225C36.5665 15.4929 36.4933 15.8597 36.3512 16.2018C36.209 16.5439 36.0007 16.8545 35.7381 17.1158V17.1106Z" fill="#E60F53"/>
</svg>
