<svg width="45" height="45" viewBox="0 0 45 45" fill="none" xmlns="http://www.w3.org/2000/svg">
<path opacity="0.2" d="M32.3438 26.7188L29.7756 38.2746C29.706 38.5868 29.5321 38.866 29.2825 39.066C29.0329 39.2661 28.7226 39.3751 28.4027 39.375H16.5973C16.2774 39.3751 15.9671 39.2661 15.7175 39.066C15.4679 38.866 15.294 38.5868 15.2244 38.2746L12.6562 26.7188H32.3438Z" fill="#E60F53"/>
<path d="M35.1563 25.3125H21.6739L22.087 24.8994L25.6132 21.3732C27.0374 22.0905 28.6066 22.4728 30.2011 22.4912C31.806 22.4954 33.3809 22.0562 34.752 21.222C38.9216 18.6978 41.1557 12.8549 40.7286 5.59158C40.7085 5.24755 40.5628 4.92287 40.3191 4.67919C40.0754 4.43551 39.7508 4.28979 39.4067 4.2697C32.1434 3.84431 26.3005 6.07673 23.7745 10.2463C22.1309 12.9621 22.0888 16.2422 23.6233 19.3869L21.0938 21.9164L18.9475 19.7701C20.0022 17.441 19.9266 15.024 18.7032 13.006C16.7925 9.84372 12.4102 8.15622 6.98387 8.47615C6.64044 8.49661 6.31642 8.64226 6.07315 8.88554C5.82987 9.12881 5.68422 9.45283 5.66376 9.79626C5.34383 15.2226 7.03133 19.6031 10.1954 21.5156C11.2539 22.1619 12.4707 22.5026 13.711 22.5C14.8362 22.4888 15.9461 22.2377 16.9665 21.7635L19.1057 23.9062L17.6995 25.3125H9.84383C9.47087 25.3125 9.11319 25.4606 8.84947 25.7244C8.58574 25.9881 8.43758 26.3458 8.43758 26.7187C8.43758 27.0917 8.58574 27.4494 8.84947 27.7131C9.11319 27.9768 9.47087 28.125 9.84383 28.125H11.5296L13.8516 38.5787C13.9872 39.2051 14.334 39.7659 14.8339 40.1669C15.3338 40.5679 15.9565 40.7848 16.5974 40.7812H28.4046C29.0453 40.7842 29.6676 40.567 30.1674 40.1661C30.6672 39.7652 31.0142 39.2048 31.1503 38.5787L33.4723 28.125H35.1563C35.5293 28.125 35.887 27.9768 36.1507 27.7131C36.4144 27.4494 36.5626 27.0917 36.5626 26.7187C36.5626 26.3458 36.4144 25.9881 36.1507 25.7244C35.887 25.4606 35.5293 25.3125 35.1563 25.3125ZM26.1915 11.7035C28.0302 8.66951 32.3843 6.9574 37.9688 7.03298C38.0409 12.6246 36.3323 16.9787 33.2983 18.8103C31.2751 20.0408 28.8335 19.9599 26.3936 18.6029C25.0348 16.1719 24.961 13.7267 26.1915 11.7035ZM16.1913 19.0037C14.5741 19.8685 12.9727 19.909 11.6509 19.1092C9.62938 17.884 8.46395 14.9959 8.43758 11.25C12.1835 11.2763 15.0733 12.4418 16.2968 14.4633C17.0983 15.7851 17.0509 17.3865 16.1913 19.0037ZM28.4046 37.9687H16.5974L14.4141 28.125H30.586L28.4046 37.9687Z" fill="#E60F53"/>
</svg>
