<svg width="45" height="45" viewBox="0 0 45 45" fill="none" xmlns="http://www.w3.org/2000/svg">
<path opacity="0.2" d="M40.3699 15.8801L15.8801 40.3699C15.6164 40.6334 15.2588 40.7815 14.886 40.7815C14.5132 40.7815 14.1557 40.6334 13.892 40.3699L4.63006 31.1133C4.36654 30.8496 4.21851 30.492 4.21851 30.1192C4.21851 29.7464 4.36654 29.3889 4.63006 29.1252L29.1199 4.63006C29.3836 4.36654 29.7411 4.21851 30.1139 4.21851C30.4867 4.21851 30.8443 4.36654 31.108 4.63006L40.3699 13.8867C40.5012 14.0174 40.6054 14.1727 40.6764 14.3437C40.7475 14.5148 40.7841 14.6982 40.7841 14.8834C40.7841 15.0686 40.7475 15.252 40.6764 15.423C40.6054 15.5941 40.5012 15.7494 40.3699 15.8801Z" fill="#E60F53"/>
<path d="M41.365 12.897L32.103 3.63686C31.8419 3.37562 31.5318 3.1684 31.1905 3.02702C30.8493 2.88563 30.4835 2.81287 30.1141 2.81287C29.7447 2.81287 29.3789 2.88563 29.0376 3.02702C28.6964 3.1684 28.3863 3.37562 28.1251 3.63686L3.63527 28.1249C3.37404 28.3861 3.16681 28.6962 3.02543 29.0375C2.88405 29.3787 2.81128 29.7445 2.81128 30.1139C2.81128 30.4833 2.88405 30.8491 3.02543 31.1904C3.16681 31.5316 3.37404 31.8417 3.63527 32.1029L12.8972 41.363C13.1584 41.6243 13.4684 41.8315 13.8097 41.9729C14.151 42.1143 14.5167 42.187 14.8861 42.187C15.2555 42.187 15.6213 42.1143 15.9626 41.9729C16.3039 41.8315 16.6139 41.6243 16.8751 41.363L41.365 16.8749C41.6262 16.6138 41.8334 16.3037 41.9748 15.9624C42.1162 15.6212 42.1889 15.2554 42.1889 14.886C42.1889 14.5166 42.1162 14.1508 41.9748 13.8095C41.8334 13.4683 41.6262 13.1582 41.365 12.897ZM14.8853 39.3749L5.62511 30.113L11.2501 24.488L15.8802 29.1199C16.0108 29.2505 16.166 29.3542 16.3367 29.4249C16.5074 29.4956 16.6903 29.532 16.8751 29.532C17.0599 29.532 17.2429 29.4956 17.4136 29.4249C17.5843 29.3542 17.7394 29.2505 17.87 29.1199C18.0007 28.9892 18.1043 28.8341 18.175 28.6634C18.2457 28.4927 18.2821 28.3097 18.2821 28.1249C18.2821 27.9402 18.2457 27.7572 18.175 27.5865C18.1043 27.4158 18.0007 27.2607 17.87 27.13L13.2382 22.4999L16.8751 18.863L21.5052 23.4949C21.7691 23.7587 22.1269 23.907 22.5001 23.907C22.8733 23.907 23.2312 23.7587 23.495 23.4949C23.7589 23.231 23.9071 22.8731 23.9071 22.4999C23.9071 22.1268 23.7589 21.7689 23.495 21.505L18.8632 16.8749L22.5001 13.238L27.1302 17.8699C27.2608 18.0005 27.416 18.1042 27.5867 18.1749C27.7574 18.2456 27.9403 18.282 28.1251 18.282C28.3099 18.282 28.4928 18.2456 28.6636 18.1749C28.8343 18.1042 28.9894 18.0005 29.12 17.8699C29.2507 17.7392 29.3543 17.5841 29.425 17.4134C29.4957 17.2427 29.5321 17.0597 29.5321 16.8749C29.5321 16.6902 29.4957 16.5072 29.425 16.3365C29.3543 16.1658 29.2507 16.0107 29.12 15.88L24.4882 11.2499L30.1132 5.62494L39.3751 14.8869L14.8853 39.3749Z" fill="#E60F53"/>
</svg>
