<svg width="45" height="45" viewBox="0 0 45 45" fill="none" xmlns="http://www.w3.org/2000/svg">
<path opacity="0.2" d="M42.1875 19.6875L36.2777 26.2529C36.146 26.3994 35.985 26.5165 35.8051 26.5967C35.6253 26.677 35.4306 26.7186 35.2336 26.7188H7.03125C6.65829 26.7188 6.3006 26.5706 6.03688 26.3069C5.77316 26.0431 5.625 25.6855 5.625 25.3125V14.0625C5.625 13.6895 5.77316 13.3319 6.03688 13.0681C6.3006 12.8044 6.65829 12.6562 7.03125 12.6562H35.2336C35.4306 12.6564 35.6253 12.698 35.8051 12.7783C35.985 12.8585 36.146 12.9756 36.2777 13.1221L42.1875 19.6875Z" fill="#E60F53"/>
<path d="M43.2422 18.7471L37.3236 12.1816C37.06 11.8885 36.7377 11.6542 36.3776 11.4937C36.0176 11.3332 35.6278 11.2501 35.2336 11.25H23.9062V5.625C23.9062 5.25204 23.7581 4.89435 23.4944 4.63063C23.2306 4.36691 22.873 4.21875 22.5 4.21875C22.127 4.21875 21.7694 4.36691 21.5056 4.63063C21.2419 4.89435 21.0938 5.25204 21.0938 5.625V11.25H7.03125C6.28533 11.25 5.56996 11.5463 5.04251 12.0738C4.51507 12.6012 4.21875 13.3166 4.21875 14.0625V25.3125C4.21875 26.0584 4.51507 26.7738 5.04251 27.3012C5.56996 27.8287 6.28533 28.125 7.03125 28.125H21.0938V39.375C21.0938 39.748 21.2419 40.1056 21.5056 40.3694C21.7694 40.6331 22.127 40.7812 22.5 40.7812C22.873 40.7812 23.2306 40.6331 23.4944 40.3694C23.7581 40.1056 23.9062 39.748 23.9062 39.375V28.125H35.2336C35.6278 28.1249 36.0176 28.0418 36.3776 27.8813C36.7377 27.7208 37.06 27.4865 37.3236 27.1934L43.2422 20.6279C43.4744 20.3697 43.6029 20.0348 43.6029 19.6875C43.6029 19.3402 43.4744 19.0053 43.2422 18.7471ZM35.2336 25.3125H7.03125V14.0625H35.2336L40.2961 19.6875L35.2336 25.3125Z" fill="#E60F53"/>
</svg>
