<svg width="45" height="45" viewBox="0 0 45 45" fill="none" xmlns="http://www.w3.org/2000/svg">
<path opacity="0.2" d="M40.2645 19.1232L31.704 26.506L34.3196 37.5433C34.3888 37.827 34.3723 38.1248 34.2722 38.399C34.1722 38.6733 33.9931 38.9118 33.7576 39.0843C33.522 39.2568 33.2406 39.3556 32.949 39.3682C32.6573 39.3809 32.3684 39.3068 32.1188 39.1552L22.5001 33.2385L12.8813 39.1535C12.6318 39.305 12.3429 39.3791 12.0512 39.3665C11.7595 39.3538 11.4782 39.255 11.2426 39.0825C11.0071 38.91 10.828 38.6715 10.7279 38.3973C10.6279 38.123 10.6114 37.8252 10.6806 37.5416L13.2962 26.5043L4.73564 19.1215C4.51738 18.9298 4.36002 18.6784 4.28299 18.3984C4.20595 18.1183 4.21263 17.8218 4.30217 17.5455C4.39172 17.2692 4.56023 17.0252 4.78689 16.8435C5.01356 16.6619 5.28845 16.5506 5.57763 16.5234L16.8118 15.6094L21.1395 5.13279C21.2499 4.86251 21.4382 4.63121 21.6805 4.46839C21.9228 4.30558 22.2082 4.21863 22.5001 4.21863C22.792 4.21863 23.0773 4.30558 23.3197 4.46839C23.562 4.63121 23.7503 4.86251 23.8606 5.13279L28.1884 15.6094L39.4226 16.5234C39.7121 16.5503 39.9875 16.6615 40.2145 16.8432C40.4416 17.025 40.6103 17.2693 40.6999 17.546C40.7895 17.8226 40.796 18.1195 40.7187 18.3999C40.6413 18.6802 40.4834 18.9317 40.2645 19.1232Z" fill="#E60F53"/>
<path d="M42.0433 17.0965C41.8675 16.556 41.5357 16.0796 41.0896 15.7274C40.6435 15.3752 40.1032 15.1629 39.5367 15.1172L29.1656 14.2805L25.1613 4.59668C24.9447 4.06901 24.5762 3.61766 24.1024 3.30001C23.6287 2.98235 23.0712 2.81274 22.5008 2.81274C21.9305 2.81274 21.373 2.98235 20.8993 3.30001C20.4255 3.61766 20.0569 4.06901 19.8404 4.59668L15.8396 14.2787L5.46325 15.1172C4.89578 15.1652 4.3551 15.3796 3.90894 15.7335C3.46278 16.0874 3.13099 16.5651 2.95513 17.1068C2.77927 17.6484 2.76717 18.2299 2.92033 18.7784C3.0735 19.327 3.38513 19.8181 3.81618 20.1902L11.7263 27.0158L9.31637 37.2217C9.18159 37.7761 9.21459 38.3582 9.41119 38.8938C9.60778 39.4295 9.9591 39.8947 10.4206 40.2303C10.882 40.5659 11.4328 40.7569 12.003 40.7789C12.5732 40.801 13.137 40.6531 13.623 40.3541L22.5 34.8908L31.3822 40.3541C31.8684 40.6496 32.4311 40.7946 32.9995 40.7709C33.5679 40.7472 34.1166 40.5559 34.5765 40.221C35.0364 39.886 35.3869 39.4226 35.5839 38.8888C35.7809 38.3551 35.8156 37.7751 35.6836 37.2217L33.2648 27.0141L41.175 20.1885C41.6095 19.8169 41.924 19.3247 42.0786 18.7743C42.2332 18.2239 42.2209 17.6399 42.0433 17.0965ZM39.3468 18.058L30.7863 25.4408C30.5911 25.6091 30.4458 25.8278 30.3665 26.073C30.2871 26.3182 30.2767 26.5805 30.3363 26.8313L32.9519 37.8703C32.9587 37.8855 32.9594 37.9028 32.9538 37.9185C32.9482 37.9342 32.9369 37.9471 32.922 37.9547C32.8904 37.9793 32.8816 37.974 32.8552 37.9547L23.2365 32.0397C23.015 31.9035 22.76 31.8313 22.5 31.8313C22.2399 31.8313 21.985 31.9035 21.7634 32.0397L12.1447 37.9582C12.1183 37.974 12.1113 37.9793 12.0779 37.9582C12.0631 37.9506 12.0517 37.9377 12.0461 37.922C12.0406 37.9063 12.0412 37.889 12.048 37.8738L14.6636 26.8348C14.7232 26.584 14.7128 26.3217 14.6334 26.0765C14.5541 25.8313 14.4089 25.6126 14.2136 25.4443L5.65309 18.0615C5.632 18.0439 5.61266 18.0281 5.63024 17.9736C5.64782 17.9191 5.66188 17.9262 5.68825 17.9227L16.9242 17.0156C17.1819 16.9935 17.4285 16.9008 17.6369 16.7476C17.8453 16.5944 18.0074 16.3866 18.1054 16.1473L22.4332 5.66895C22.4472 5.63906 22.4525 5.625 22.4947 5.625C22.5369 5.625 22.5422 5.63906 22.5562 5.66895L26.8945 16.1473C26.9934 16.3867 27.1566 16.5942 27.3659 16.7468C27.5753 16.8994 27.8228 16.9913 28.081 17.0121L39.317 17.9191C39.3433 17.9191 39.3591 17.9191 39.375 17.9701C39.3908 18.0211 39.375 18.0404 39.3468 18.058Z" fill="#E60F53"/>
</svg>
