<svg width="45" height="45" viewBox="0 0 45 45" fill="none" xmlns="http://www.w3.org/2000/svg">
<path opacity="0.2" d="M23.8853 7.57788L19.4907 32.7392C19.3523 33.5542 19.0543 34.3338 18.6138 35.0333C18.1732 35.7328 17.5989 36.3384 16.9237 36.8153C16.2485 37.2922 15.4857 37.6311 14.6792 37.8124C13.8727 37.9938 13.0383 38.014 12.2239 37.872C10.579 37.5703 9.12043 36.6298 8.16688 35.256C7.21333 33.8821 6.84237 32.1867 7.13505 30.5402L11.5296 5.38062C11.5944 5.01609 11.8004 4.69185 12.1029 4.47827C12.4053 4.26469 12.7798 4.179 13.145 4.2398L22.755 5.95015C23.1201 6.01734 23.4438 6.22617 23.6555 6.5311C23.8673 6.83603 23.9499 7.21232 23.8853 7.57788Z" fill="#E60F53"/>
<path d="M15.4687 31.6406C15.4687 32.0578 15.345 32.4657 15.1132 32.8125C14.8814 33.1594 14.552 33.4298 14.1666 33.5894C13.7811 33.7491 13.357 33.7909 12.9478 33.7095C12.5386 33.6281 12.1628 33.4272 11.8678 33.1322C11.5728 32.8372 11.3719 32.4613 11.2905 32.0522C11.2091 31.643 11.2509 31.2189 11.4105 30.8334C11.5702 30.448 11.8406 30.1185 12.1874 29.8868C12.5343 29.655 12.9421 29.5313 13.3593 29.5313C13.9188 29.5313 14.4553 29.7535 14.8509 30.1491C15.2465 30.5447 15.4687 31.0812 15.4687 31.6406ZM42.1875 27.4553V36.5625C42.1875 37.3084 41.8912 38.0238 41.3637 38.5513C40.8363 39.0787 40.1209 39.375 39.375 39.375H13.3593C12.8915 39.3753 12.4246 39.3353 11.9636 39.2555C9.95275 38.8886 8.16887 37.7406 7.00186 36.0624C5.83486 34.3842 5.37965 32.3123 5.73571 30.2994L10.1302 5.13986C10.1927 4.77632 10.3263 4.42868 10.5235 4.1169C10.7206 3.80512 10.9774 3.53534 11.279 3.32303C11.5807 3.11071 11.9213 2.96005 12.2813 2.87969C12.6413 2.79932 13.0136 2.79083 13.3769 2.85471L22.9992 4.57033C23.7313 4.70228 24.3814 5.11892 24.807 5.72906C25.2327 6.3392 25.3992 7.09312 25.2703 7.8258L23.1468 19.9547L35.0666 15.6446C35.7653 15.3922 36.5355 15.4265 37.209 15.74C37.8825 16.0536 38.4046 16.6208 38.6613 17.318L42.0117 26.4885C42.1193 26.7999 42.1786 27.1259 42.1875 27.4553ZM18.1054 32.4967L22.5 7.33713L12.9129 5.62502L8.51833 30.7793C8.2889 32.0588 8.5749 33.377 9.31391 34.4463C10.0529 35.5157 11.1849 36.2492 12.4629 36.4869C13.0884 36.5991 13.7301 36.5859 14.3505 36.448C14.9709 36.3101 15.5578 36.0503 16.0769 35.6836C16.6093 35.3133 17.0629 34.8409 17.4111 34.2938C17.7593 33.7467 17.9954 33.1358 18.1054 32.4967ZM20.5277 34.2774L39.375 27.4412L36.0211 18.2813L22.5879 23.1504L20.8687 32.9801C20.7923 33.4215 20.6782 33.8555 20.5277 34.2774ZM39.375 30.4313L22.4543 36.5625H39.375V30.4313Z" fill="#E60F53"/>
</svg>
