<svg width="45" height="45" viewBox="0 0 45 45" fill="none" xmlns="http://www.w3.org/2000/svg">
<path opacity="0.2" d="M40.7812 22.5V33.75H29.5312L40.7812 22.5Z" fill="#E60F53"/>
<path d="M41.3192 21.201C41.0623 21.0944 40.7795 21.0664 40.5067 21.1206C40.2338 21.1747 39.9832 21.3085 39.7864 21.5051L35.1563 26.137L24.9012 15.8801C24.7706 15.7494 24.6155 15.6457 24.4448 15.5749C24.2741 15.5041 24.0911 15.4677 23.9063 15.4677C23.7215 15.4677 23.5385 15.5041 23.3678 15.5749C23.1971 15.6457 23.042 15.7494 22.9114 15.8801L16.875 21.9182L5.21372 10.2551C4.94985 9.99126 4.59197 9.84302 4.2188 9.84302C3.84563 9.84302 3.48775 9.99126 3.22388 10.2551C2.96001 10.519 2.81177 10.8769 2.81177 11.25C2.81177 11.6232 2.96001 11.9811 3.22388 12.245L15.8801 24.9012C16.0107 25.032 16.1658 25.1357 16.3365 25.2065C16.5073 25.2772 16.6902 25.3137 16.875 25.3137C17.0599 25.3137 17.2428 25.2772 17.4136 25.2065C17.5843 25.1357 17.7394 25.032 17.87 24.9012L23.9063 18.8631L33.1682 28.125L28.5364 32.7551C28.3395 32.9518 28.2054 33.2025 28.151 33.4754C28.0967 33.7483 28.1245 34.0313 28.2311 34.2883C28.3376 34.5454 28.518 34.7651 28.7495 34.9197C28.9809 35.0742 29.253 35.1565 29.5313 35.1563H40.7813C41.1543 35.1563 41.5119 35.0081 41.7757 34.7444C42.0394 34.4807 42.1875 34.123 42.1875 33.75V22.5C42.1875 22.2219 42.105 21.9501 41.9504 21.7188C41.7958 21.4876 41.5762 21.3074 41.3192 21.201ZM39.375 32.3438H32.9256L39.375 25.8944V32.3438Z" fill="#E60F53"/>
</svg>
