<?xml version="1.0" encoding="UTF-8"?>
<svg xmlns="http://www.w3.org/2000/svg" version="1.1" viewBox="0 0 529.5 595.3">
  <defs>
    <style>
      .cls-1 {
        fill: #545454;
      }

      .cls-2 {
        fill: #fff;
      }

      .cls-3 {
        fill: #df0023;
      }
    </style>
  </defs>
  <!-- Generator: Adobe Illustrator 28.7.1, SVG Export Plug-In . SVG Version: 1.2.0 Build 142)  -->
  <g>
    <g id="Layer_1">
      <g>
        <g>
          <path d="M71.4,198.9c1.4.2,3.3.4,4.3.4.4,2.2.4,7,0,9.5-.3,2.4-1,6.6-2.9,9.5-2.8,4.3-7.3,6.5-11.9,6-5.2-.6-8.6-3.6-10.4-7.1-1.9-3.6-2.1-7.4-1.7-11.1.4-3.1,1.3-6.9,1.9-8.1-.6-.2-2.6-.9-3.3-1.1v-.9c1.3.4,7.7,1.5,11.1,1.8l-.5.8c-1.3-.1-2.6,0-3.4,0-1.2.8-4,3.1-4.7,9.1-.7,6.4,3.5,11.2,9.3,11.8,6,.7,14.2-3.5,15.1-11.4,0-1,.2-3.1-.4-4.8-.5-.1-1.8-.3-3.6-.5l-1.9-.2c-1.1-.1-2.3-.2-2.9-.2-.2.7-.6,3-.8,3.6h-.8c.3-1.8.7-4.6.8-5.9.2-1.8.6-5.3.6-5.8l.7.3c0,.3,0,2.4,0,3.2.6.2,3,.5,4,.6l1.3.5Z"/>
          <path d="M63.8,187.3c-2-.6-7.4-2.1-8.6-2.2-.4.7-1.2,2.7-1.5,3.6h-.8c.3-1,1.2-4,1.8-6.1.7-2.4,1.5-5.8,1.7-6.5l.7.4c-.2.9-.4,2.8-.7,4.3,1.1.5,6.1,1.9,8.9,2.7l1.3.4c4.6,1.3,11.3,3.1,12.2,3.2,1.2-4.2,1.1-7.3.6-8.9-1-.9-2.7-1.8-3.6-2.4v-.9c3,1.6,6.6,3.3,11.1,5.1l-.4.8c-.5-.1-3.1-1.1-4.1-1.3-.3.8-2.6,8.3-3.1,10.2-.5,1.8-1.3,5-1.5,6l-.7-.3c0-.5.6-3.1.6-3.9-1.5-.6-8.3-2.5-11.7-3.5l-2.2-.7Z"/>
          <path d="M81.4,171.9c-3.6,1.4-6.4,1.2-9.7-.2-6.8-2.8-10.6-11-6.7-20.4,1.5-3.6,3.3-6.3,6.7-8.3,3.1-1.9,7-1.9,10.2-.6,8.4,3.5,11.1,12.1,7.6,20.5-1.3,3.5-3.5,7.2-8.1,9ZM82.8,147.6c-7.3-3-14.6-.2-16.9,5.5-2,4.7-.9,11.1,6.1,14.1,6.1,2.6,14.2.1,17-6.5,2-4.9-.7-10.8-6.2-13.1Z"/>
          <path d="M86.2,136.5c-2.2-1.5-7.1-4.5-8.4-5.2-.9.9-1.7,2.1-2.4,3l-.7-.3c.6-1,4.3-7.1,5.6-9,4-6,7.1-5.2,8.6-4.3.9.6,1.6,1.1,2.4,2.7,1,2.3.8,4.8.6,6.1h0c2.5-2.6,6.8-4.4,10.1-2.3,3.5,2.3,4,6.8,1.2,11.1-.3.4-1,1.4-1.8,2.5-.8,1-1.6,2.1-2,2.8s-2.4,3.8-3,4.8l-.6-.5c.4-.7,1.4-2.7,1.7-3.5-2-1.6-6.6-4.6-9.3-6.4l-2.1-1.5ZM89.1,133.6c.6-1,1.5-2.6,1.4-4.4,0-1.7-1.1-3.3-2.7-4.3-2.6-1.7-5.5-1.3-7.2,1.2-.3.5-.6,1-.6,1.4.3.3,4.6,3.2,7.4,5l1.7,1.1ZM91.6,135.3c2.6,1.7,7.4,4.6,7.9,4.7,1-.4,1.9-1.4,2.3-2,1.9-2.9,1.1-5.2-1-6.6-2-1.3-5.2-1.6-7.7-.2-1.5.8-2.7,2.3-3.1,3.1l1.6,1Z"/>
          <path d="M117.7,117.7c.8-1.1,1.5-2.1,2.1-3.2-1.9-.8-9.6-3.9-10.8-4.2-.9,1-4.5,5.7-5.3,6.8.2.5,4.3,6.7,6.2,8.8.8-.5,1.7-1.4,2.5-2.1l.7.4c-.8.8-3.1,3.3-3.8,4.2-.6.7-2.2,2.7-2.7,3.4l-.5-.6c.6-.9,1.2-1.9,1.7-2.8-.9-2.6-11.2-21.3-12-22.7-.7.5-1.6,1.3-2.3,1.9l-.6-.5c.8-.8,2.9-3.1,3.3-3.6,1-1.2,3.4-4.1,4.1-4.9l.5.6c-.5.8-1.1,1.7-1.5,2.5,1.5.7,7.3,3,11.2,4.5,2.9,1.1,9.1,3.4,12.7,4.3.9-.7,1.7-1.4,2.5-2.1l.7.4c-.4.3-2.9,3.1-4.2,4.6-.7.8-3.4,4.1-4,4.9l-.5-.6ZM96.9,105.3h0c1.7,3.1,5,9.2,5.7,10.3l5.2-5.8c-2.3-1-8.9-3.6-10.9-4.5Z"/>
          <path d="M117,95.9c-1.4-1.5-5.4-5.7-6.3-6.4-.7.4-2.5,1.7-3.2,2.3l-.6-.5c.7-.6,3.1-2.7,4.8-4.2,1.8-1.7,4.4-4.2,4.9-4.7l.4.6c-.6.7-1.8,2.2-2.8,3.3.7,1,4.3,4.9,6.3,7l.9,1c3.3,3.5,8.1,8.7,8.8,9.2,3.2-3,4.8-5.7,5.2-7.4-.4-1.3-1.4-3-1.9-4l.5-.7c1.7,2.9,3.8,6.2,6.8,10.2l-.7.4c-.4-.4-2.1-2.5-2.8-3.3-.6.5-6.6,5.8-8,7.2s-3.8,3.6-4.5,4.4l-.4-.7c.4-.4,2.1-2.3,2.5-3-1-1.3-5.8-6.5-8.3-9.2l-1.6-1.5Z"/>
          <path d="M154.9,63.2c-.4-.6-1.5-1.9-1.9-2.4-1.5-.9-5.8-1.2-9.7,1.5-5.5,3.8-6.3,10.2-3,14.9,4.1,5.9,12.4,7.6,18.8,3.2,2.3-1.6,4.8-3.8,6.1-6.6l.5,1.6c-.3,1.1-2.5,4.4-7.3,7.7-1.1.8-4.5,2.9-7.8,3.4-5.3.8-10-1.1-12.7-5-2.9-4.2-2.9-8.8-1.4-12.4,1.7-4.3,4.3-6.6,7.3-8.7,2.7-1.8,5.9-3.2,6.9-3.6-.1-.5-1.1-2.7-1.2-3.1l.6-.6c1.8,3.7,3.8,7,5.8,9.9l-1,.2Z"/>
          <path d="M167.8,71.8c-3.7-1.4-5.6-3.5-7.1-6.6-3.2-6.7-.5-15.3,8.8-19.7,3.6-1.7,6.7-2.5,10.6-1.7,3.6.7,6.6,3.3,8,6.4,3.9,8.3.2,16.6-8.1,20.5-3.4,1.6-7.5,2.8-12.2,1.1ZM185.2,54.6c-3.4-7.1-10.8-9.9-16.4-7.3-4.6,2.2-8.2,7.7-4.9,14.6,2.9,6,10.5,9.7,17.1,6.6,4.8-2.3,6.7-8.5,4.2-13.9Z"/>
          <path d="M218.4,53.9c.5-.2,3-1.3,3.7-1.6-.5-1.3-8.4-16.1-9.6-18.6h-.1c-.3,2.4-2,21.4-2.4,23.7-1.7-1.9-13.7-17.3-14.5-18.5h-.1c.8,5.7,1.7,16,3.2,20.5.7,0,2.7-.4,3.3-.5l.4.7c-.5,0-4.6,1.3-5.3,1.5-.9.3-2.7.9-3.9,1.3v-.8c.6-.3,1.6-.8,2.3-1.2.1-2.4-1.5-21-1.8-24-1,.2-3.2.5-3.6.6l-.4-.7c.5,0,3.2-.8,5.1-1.4,1.5-.5,4.3-1.4,5.2-1.8v.8c-.9.4-1.8,1-2.4,1.3,2,2.9,9.8,13,11.8,15.4.4-2.3,2-18.7,1.8-19.6-.7,0-1.9.2-2.5.2l-.4-.7c1.1-.3,3.6-.9,4.8-1.3,1.1-.3,4-1.3,4.8-1.7v.8c-.4.2-2,1-2.7,1.4,1.9,3.7,10.2,18.9,11.5,21,.9,0,2.4-.3,3.1-.4l.4.7c-1.2.3-3.3.9-5,1.4-1.6.5-5.5,1.8-6.4,2.2l-.3-.7Z"/>
          <path d="M236.3,36.3c.4,3.1,1.4,11.5,1.7,12.5.9,0,3.5,0,4.7,0l.3.7c-1.2,0-5.3.5-7,.7-1.8.2-5.3.7-6.3.9v-.8c.6,0,3-.7,3.9-1,0-1.6-.9-9.4-1.4-12.7l-.2-1.5c-.1-1.2-1-7.8-1.3-9-.7-.2-3.1-.1-3.9,0l-.2-.7c1.1-.1,6.4-.8,8.1-1,4-.5,7-.5,8.9,0,3.4,1,4,3.1,4.1,4,.3,2.5-.5,4.4-1.8,6.1-2.1,2.7-5.9,4.1-7.2,4.5v-.9c1.3-.5,5.5-2.3,4.8-7.8-.3-2.2-1.6-3.9-3.5-4.6-1.3-.4-3.2-.4-4.8-.2,0,1.1.6,6.2,1,9.4v1.5Z"/>
          <path d="M254.4,32.5c-.1-2.1-.4-7.8-.6-8.9-.8-.1-3-.3-3.9-.3v-.8c.8,0,4-.1,6.2-.2,2.5-.1,6-.4,6.7-.5v.8c-1,.1-2.9.5-4.4.7-.1,1.2.1,6.5.3,9.4v1.3c.3,4.8.7,11.8.9,12.6,4.4-.2,7.3-1.3,8.7-2.3.5-1.3.9-3.2,1.1-4.2l.9-.2c-.6,3.3-1.1,7.2-1.3,12.1h-.9v-4.4c-.8,0-8.7.2-10.7.3-1.8,0-5.2.3-6.2.5v-.8c.6,0,3.2-.4,4-.7.1-1.6-.3-8.7-.4-12.3l-.4-2.1Z"/>
          <path d="M279.7,35.2c-.2,4.8-.4,10.9-.3,11.6.9.3,3.1.6,3.8.7l.2.8c-.8,0-4.6-.3-6.9-.4-1.2,0-4.6,0-5.7,0l.2-.8c.6,0,3.1-.2,3.9-.4.2-1.5.5-8.3.7-11.9v-2.2c.1-1.2.4-8.1.3-9.3-.7-.2-3.1-.6-3.8-.7l-.2-.8c.7.1,4.1.3,7,.4,1.9.1,5,.1,5.7.1l-.2.8c-.7,0-2.5.3-3.9.4-.2.7-.4,5-.6,9.5l-.2,2.3Z"/>
          <path d="M299.3,49.3c1.3,0,2.6,0,3.8,0-.4-2-1.8-10.1-2.2-11.3-1.3-.2-7.1-.8-8.5-.8-.3.5-3.3,7.1-4.1,9.8.9.4,2.1.7,3.1,1v.8c-1.1-.2-4.4-.8-5.5-1-1,0-3.4-.4-4.3-.5l.2-.7c1.1,0,2.2,0,3.2,0,1.7-2.1,11.9-20.6,12.7-21.9-.8-.3-2-.7-2.8-.9v-.8c1.2.2,4.2.8,4.8.9,1.5.2,5.2.7,6.3.8l-.2.7h-2.8c.2,1.7,1.3,7.7,2.1,11.8.6,3,1.9,9.4,3.1,12.9,1,.4,2.1.7,3.1,1v.8c-.4,0-4.1-.8-6-1.1-1.1-.2-5.2-.7-6.2-.8l.2-.8ZM298.7,25.5h0c-1.7,3.1-5,9-5.6,10.2l7.6,1.3c-.4-2.6-1.7-9.4-2-11.5Z"/>
          <path d="M316,26.4c2,.5,5.3,1.5,8.1,2.2.4,1.4,4.7,12.5,5.1,13.3.6,1.3,4.1,9.8,4.9,11.1,1.2-3.9,5-16.2,4.9-18.3-.7-.4-2.4-1.2-3.4-1.6v-.8c.7.3,4.5,1.5,5.3,1.8.8.2,3.7,1.1,4.5,1.2l-.4.7c-.5,0-1.8-.2-2.8-.3-.8,1.2-2.6,6.1-3,7.2-.6,1.6-5.5,16.3-6.1,17.6-.7-1.3-6.9-15.7-7.5-16.8-.3-.7-4.5-10.9-5.2-12.6-.3.7-5.6,19.2-5.6,20.6.5.3,3,1.4,3.7,1.7v.8c-.7-.3-4.3-1.5-5.3-1.8s-3.8-1.1-4.8-1.3l.3-.7c1,.2,2.2.4,3.1.4,1.1-1.3,7.6-20.9,7.9-22-.8-.4-2.4-1.1-3.7-1.6v-.8Z"/>
          <path d="M368.8,55.4c.3-.6.9-2.3,1.1-2.9.1-1.8-1.9-5.6-6.2-7.7-6.1-2.9-12-.3-14.5,4.9-3.1,6.5-.3,14.6,6.7,17.9,2.5,1.2,5.7,2.2,8.8,1.9l-1.1,1.2c-1.1.3-5.1,0-10.3-2.4-1.2-.6-4.8-2.4-6.9-5.1-3.3-4.2-4.1-9.2-2.1-13.5,2.2-4.6,6.1-6.9,10-7.5,4.6-.7,7.9.3,11.3,1.9,2.9,1.4,5.8,3.5,6.6,4.2.4-.3,1.8-2.3,2.1-2.6l.7.3c-2.2,3.4-4.1,6.8-5.6,10l-.6-.6Z"/>
          <path d="M374.5,63.3c1.9-2.8,5.1-7.8,5.6-8.8-.5-.5-2.2-2-2.9-2.6l.3-.7c.7.5,1.7,1.3,2.7,2s2,1.4,2.7,1.9c1,.7,8.3,5.6,9.3,5.9.3-.3.8-.8,1.2-1.3l.8.4c-.6.5-4.2,5.1-4.9,6l-.5-.7c.1-.2,1.1-1.6,1.5-2.2,0-1.3-4.5-4.9-6.1-6-.4.4-4.5,6.3-5.8,8.1l-.4.6c2.7,1.8,5.8,3.6,6.7,3.8.5-.4.9-.7,1.2-1.1l.7.4c-.5.5-3.9,4.4-4.7,5.3l-.4-.6c.5-.6,1-1.4,1.5-2-.6-1.1-2.9-3-5.6-4.8l-.4.6c-1.3,1.9-5.7,8.7-6.2,9.7,3.1,2.1,6.2,3.8,8.1,4,1.1-.9,1.9-1.7,2.5-2.3l.8.3c-.8.8-4.7,5-5.8,6.5l-.6-.6c.6-.8.9-1.4,1.2-1.9-.8-.8-7.6-5.5-9.5-6.8-1.1-.7-3.5-2.3-4.8-3.1l.6-.5c.5.3,2.5,1.4,3.5,1.7.5-.5,4.4-6.1,6.7-9.5l1-1.7Z"/>
          <path d="M417.1,92.6c.5-.5,1.6-1.8,1.9-2.4.6-1.7,0-5.9-3.4-9.2-4.8-4.6-11.2-4-15.2,0-4.9,5.2-4.9,13.6.7,19,2,1.9,4.7,3.9,7.7,4.6l-1.5.8c-1.1,0-4.8-1.6-9-5.5-1-.9-3.8-3.8-4.9-6.9-1.8-5-1-10,2.3-13.4,3.5-3.7,7.9-4.6,11.8-3.9,4.5.8,7.3,2.8,10,5.4,2.3,2.2,4.3,5.1,4.9,6,.5-.2,2.4-1.6,2.8-1.8l.7.5c-3.2,2.5-6,5.1-8.4,7.6l-.4-.9Z"/>
          <path d="M421,101.6c2.5-2.2,6.8-6.1,7.6-6.9-.3-.6-1.6-2.5-2.1-3.2l.5-.6c.5.7,1.3,1.6,2.1,2.6.8.9,1.6,1.9,2.1,2.5.8.9,6.4,7.4,7.3,8,.4-.2.9-.5,1.5-.9l.7.5c-.7.4-5.3,3.7-6.2,4.4l-.3-.8c.2-.2,1.5-1.2,2-1.7.4-1.2-3-5.8-4.2-7.2-.5.3-5.9,4.8-7.5,6.2l-.6.5c2.1,2.4,4.6,4.9,5.4,5.4.5-.2,1-.5,1.4-.8l.6.5c-.6.3-4.8,3.1-5.8,3.8l-.2-.7c.6-.5,1.3-1.1,1.9-1.6-.3-1.2-2-3.5-4.1-5.9l-.6.5c-1.7,1.5-7.6,6.8-8.4,7.6,2.4,2.8,4.9,5.2,6.7,5.8,1.2-.5,2.2-1.1,3-1.5l.7.5c-1,.5-5.7,3.5-7.2,4.6l-.4-.7c.7-.6,1.2-1.1,1.7-1.5-.6-.9-5.8-7.2-7.3-8.9-.8-.9-2.8-3.1-3.8-4.1l.7-.4c.4.4,2,1.9,2.9,2.5.6-.3,5.8-4.7,8.8-7.3l1.1-1.2Z"/>
          <path d="M436.9,118.7c1.1-.7,6.9-4.7,7.4-5.2-.2-.6-1.4-2.8-1.8-3.5l.6-.5,4.4,6.5c1.9,2.9,4.3,6.5,4.9,9.1.4,2,0,3.8-1.7,4.9-1.9,1.3-5.7,1-8.6-.4-.5.8-5.2,11.1-6.4,16.5l-1.1-1.2c-.5-2.8,3.4-17.1,3.7-18-.9-1.1-1.8-2.3-2.1-2.8l-.8.5c-2,1.3-6.6,4.5-7.9,5.6.2.6,1.3,2.8,1.7,3.5l-.6.6c-.5-.8-2.5-3.9-3.4-5.3-.8-1.2-3-4.4-3.6-5l.7-.3c.3.4,1.8,2.2,2.6,2.9,1-.5,6.9-4.4,10.1-6.6l1.9-1.3ZM437.1,123.4c.7,1.1,1.7,2.3,3.1,3.3s4.2,2.2,7.2.2c1.9-1.3,3.1-4.7-.4-9.9-1.3.7-6.8,4.3-8.9,5.8l-1,.6Z"/>
          <path d="M454.1,145.9c2.4-1.3,7.2-4,7.9-4.5-2.8-5.2-4.9-7.2-5.9-7.7-.9.1-2.2.6-3.4,1l-.6-.6c1.6-.7,5.9-2.5,8.5-3.9l.3.8c-.4.3-1.4.9-2,1.3.2.6,3,6.3,5.3,10.7,2.5,4.7,5.8,10.3,6.2,10.8.5-.1,1.6-.4,2.3-.6l.6.7c-.9.2-8,3-9,3.5l-.2-.9c1.3-.6,2.7-1.3,3.4-1.7.2-1.2-1.5-6.1-3.2-9.3-.9.4-5.8,2.9-8.1,4.1l-1.5.8c-2.9,1.5-8.4,4.6-10.9,6.1.2.7,1.5,3.8,1.8,4.5l-.6.5c-.4-.8-2.3-4.7-3.3-6.5-.8-1.5-3-5.4-3.5-6.3l.8-.2c.5.7,2.2,3.2,2.7,3.9,2.6-1.3,8.3-4.2,11.1-5.7l1.3-.8Z"/>
          <path d="M463.1,169.6c-4.4,2-10,4.5-10.6,4.9.2.9.9,3,1.1,3.7l-.6.5c-.3-.8-1.8-4.3-2.7-6.4-.5-1.1-2-4.2-2.5-5.2l.8-.2c.3.6,1.6,2.7,2.1,3.4,1.5-.5,7.7-3.3,11-4.7l2-.9c1.1-.5,7.4-3.3,8.5-4-.2-.7-.9-3.1-1.1-3.7l.6-.5c.2.7,1.5,3.8,2.7,6.5.8,1.7,2.1,4.6,2.5,5.1h-.8c-.4-.5-1.4-2.1-2.1-3.2-.7.2-4.7,1.9-8.8,3.7l-2.1,1Z"/>
          <path d="M468.4,179.3c3.2-1,8.8-3,9.7-3.4.1-.5-.5-2.8-.7-3.9l.7-.4c.3,1.3,1.4,4.8,1.9,6.2.5,1.5,3.4,10.4,3.9,11.1.5,0,1.8-.2,2.6-.4l.4.7c-1.7.3-6.2,1.4-8.8,2.3v-.9c.6-.2,2.1-.8,2.7-1.1.8-1.7-.6-7.4-1.2-9.2-.5,0-6.9,2-9.5,2.8l-.8.3c.6,1.7,2.2,6.2,3,7.2.6,0,1.5-.1,2.2-.2l.3.7c-1.8.3-5.4,1.2-8,2v-.8c.7-.2,1.9-.7,2.9-1.2.4-1.1-.8-5.5-1.5-7.5l-1.1.3c-2.9,1-9.1,3.1-10,3.6.2,1.4.6,3.2.8,4l-.7.4c-.3-1.3-1.2-4.2-2-6.5-.7-2-1.6-4.6-2.1-5.8h.8c.2.3,1.1,2.6,1.7,3.5.8-.2,6.6-2,10.5-3.3l2.3-.5Z"/>
          <path d="M474.5,205.7c-4.7,1-10.7,2.3-11.3,2.6,0,.9.2,3.1.3,3.9l-.7.3c-.1-.8-.8-4.6-1.3-6.8-.3-1.2-1-4.5-1.3-5.6h.8c.2.6,1,3,1.3,3.7,1.5-.2,8.2-1.6,11.7-2.3l2.1-.5c1.2-.3,7.9-1.7,9.1-2.1,0-.7-.2-3.2-.3-3.9l.7-.3c.1.7.7,4,1.3,6.9.4,1.8,1.1,4.9,1.3,5.5h-.8c-.2-.7-.9-2.4-1.3-3.7-.7,0-4.9.9-9.3,1.8l-2.3.5Z"/>
          <path d="M484.5,235.6c.7-.1,2.4-.4,3-.6,1.5-.9,3.7-4.6,3.2-9.3-.8-6.6-6.1-10.2-11.8-9.6-7.1.8-12.4,7.4-11.5,15.1.3,2.8,1.2,6,3,8.4l-1.6-.3c-.8-.8-2.7-4.3-3.4-10-.2-1.3-.5-5.3.6-8.5,1.8-5,5.6-8.3,10.3-8.9,5-.6,9,1.5,11.6,4.5,3,3.5,3.9,6.8,4.3,10.5.4,3.2.1,6.7,0,7.7.5.2,2.9.3,3.3.4l.3.8c-4.1-.1-7.9.2-11.4.5v-.7Z"/>
          <path d="M468.1,256.1c.1,1.3.3,2.6.6,3.7,1.9-.7,9.7-3.5,10.8-4.1,0-1.3-.4-7.2-.6-8.5-.5-.2-7.6-2.1-10.4-2.4-.2.9-.4,2.2-.5,3.2l-.8.2c.1-1.1.1-4.5,0-5.6,0-1-.1-3.4-.2-4.3h.8c.1,1.2.3,2.3.6,3.3,2.4,1.3,22.4,8.3,23.8,8.8.2-.8.3-2,.4-2.9h.8c-.1,1-.1,4.1-.1,4.7,0,1.6.2,5.3.3,6.3h-.8c-.1-1.1-.3-2.1-.5-2.9-1.6.5-7.4,2.6-11.3,4.1-2.8,1.1-9,3.5-12.2,5.2-.2,1.1-.3,2.2-.5,3.3h-.8c.1-.3.1-4.1,0-6,0-1.1-.2-5.3-.3-6.3l.9.2ZM491.6,251.6h0c-3.3-1.2-9.8-3.5-11-3.8v7.8c2.4-.9,9-3.4,11-4Z"/>
          <path d="M482.4,275.4c2.7,0,8.2-.1,9-.2,0-5.9-1-8.5-1.6-9.5-.8-.3-2.2-.5-3.5-.7l-.2-.8c1.8.1,6.4.6,9.3.5v.8c-.6,0-1.7.1-2.5.2-.1.6-.3,6.9-.3,11.9s.3,11.7.4,12.3c.4.1,1.6.4,2.3.5v.9c-.7-.2-8.3-1-9.4-1.1l.2-.8c1.5.1,3,.1,3.8.1.7-.9,1.5-6,1.5-9.6-1-.1-6.4-.2-9-.2h-1.7c-3.2,0-9.5.1-12.4.2-.1.7-.4,4.1-.5,4.7l-.8.2c.1-.9.1-5.2.1-7.2s-.1-6.1-.2-7.1l.8.2c.1.8.4,3.8.5,4.7,2.9.1,9.2.2,12.4.1h1.8Z"/>
          <path d="M479.8,300.1c-4.7,0-10.8,0-11.5.1-.2.9-.4,3.1-.5,3.8l-.8.2c.1-.8.2-4.6.2-6.8s0-4.6-.1-5.6h.8c0,.7.3,3.2.5,3.9,1.5.2,8.2.2,11.8.2h2.1c1.2,0,8,0,9.2-.1.1-.7.4-3.1.5-3.8l.8-.2c-.1.7-.2,4-.2,6.9s0,5,.1,5.6l-.8-.2c-.1-.7-.3-2.5-.5-3.8-.7-.1-4.9-.2-9.4-.2h-2.2Z"/>
          <path d="M470.2,310.1c2.7-2.7,5.4-3.6,8.9-3.6,7.3,0,13.9,5.9,14,16,0,3.9-.6,7-2.9,10.2-2.1,2.9-5.7,4.5-9.1,4.5-9,.1-14.8-6.7-14.9-15.8-.1-3.6.5-7.8,4-11.3ZM478.3,332.8c7.8,0,13.3-5.5,13.3-11.6s-3.4-10.5-11-10.5-13,5.4-13,12.5c.1,5.3,4.8,9.6,10.7,9.6Z"/>
          <path d="M492.2,339.2c0,2,0,5.5.1,8.3-1.3.8-10.6,7.9-11.2,8.6-1,.9-8.2,6.6-9.2,7.7,4,.1,16.8.3,18.7-.4.2-.7.5-2.7.6-3.7l.8-.2c-.1.7-.2,4.6-.2,5.4s0,3.8.1,4.6l-.8-.2c-.1-.5-.3-1.8-.5-2.8-1.4-.5-6.5-.7-7.7-.8-1.7-.1-17-.7-18.5-.9,1-1.1,13-11,13.9-11.8.6-.5,9.1-7.3,10.5-8.5-.7-.1-19.9,0-21.2.4-.2.5-.5,3.3-.6,4h-.8c.1-.6.2-4.3.2-5.3s0-3.9-.1-5h.8c.1,1.1.2,2.3.5,3.1,1.5.6,21.9,1.4,23.1,1.4.2-.8.4-2.6.5-4h1Z"/>
          <path d="M281.9,381.2v34.5h-2.7c-3.3-9.4-8.2-16.6-14.7-21.5s-13.7-7.4-21.5-7.4-13.6,2.1-18.5,6.2-8.4,9.8-10.5,17.2c-2,7.4-3.1,14.9-3.1,22.7s1.1,17.6,3.4,24.7c2.2,7.1,5.9,12.3,10.9,15.6,5,3.3,10.9,5,17.8,5s4.8-.3,7.4-.8c2.5-.5,5.1-1.2,7.7-2.2v-20.3c0-3.8-.3-6.3-.8-7.5-.5-1.1-1.6-2.2-3.3-3.1s-3.7-1.4-6.1-1.4h-2.6v-2.7h48.2v2.7c-3.7.2-6.2.7-7.6,1.5-1.4.7-2.6,2-3.3,3.7-.4.9-.7,3.2-.7,6.7v20.3c-6.3,2.8-12.9,4.9-19.8,6.3s-14,2.1-21.3,2.1-17.2-1.3-23.5-3.8c-6.2-2.5-11.7-5.8-16.5-10-4.8-4.1-8.5-8.7-11.2-13.9-3.4-6.6-5.1-14.1-5.1-22.3,0-14.7,5.2-27.2,15.7-37.3,10.5-10.1,23.7-15.2,39.6-15.2s9.4.4,13.3,1.2c2.1.4,5.6,1.5,10.4,3.3,4.8,1.8,7.6,2.7,8.5,2.7,1.4,0,2.6-.5,3.8-1.5,1.2-1,2.2-2.8,3.2-5.6h2.9Z"/>
          <path d="M388.7,381v33.7h-2.8c-2.1-8.8-6.1-15.6-11.9-20.2-5.8-4.7-12.4-7-19.7-7s-11.8,1.7-16.9,5.2-8.9,8.1-11.2,13.7c-3,7.2-4.6,15.3-4.6,24.1s1.1,16.6,3.3,23.8c2.2,7.2,5.7,12.6,10.4,16.2,4.7,3.7,10.9,5.5,18.4,5.5s11.8-1.3,17-4c5.1-2.7,10.6-7.3,16.3-13.9v8.4c-5.5,5.7-11.2,9.8-17.2,12.4s-12.9,3.8-20.9,3.8-19.8-2.1-27.9-6.2c-8.1-4.2-14.4-10.1-18.8-17.9s-6.6-16.1-6.6-24.9,2.4-18.1,7.3-26.4,11.5-14.8,19.8-19.4,17.2-6.9,26.5-6.9,14.2,1.5,21.9,4.4c4.4,1.7,7.3,2.6,8.5,2.6s2.9-.6,4-1.7,1.9-2.9,2.2-5.3h2.9Z"/>
          <path d="M491.4,381v33.7h-2.8c-2.1-8.8-6.1-15.6-11.9-20.2-5.8-4.7-12.4-7-19.7-7s-11.8,1.7-16.9,5.2-8.9,8.1-11.2,13.7c-3,7.2-4.6,15.3-4.6,24.1s1.1,16.6,3.3,23.8c2.2,7.2,5.7,12.6,10.4,16.2,4.7,3.7,10.9,5.5,18.4,5.5s11.8-1.3,17-4c5.1-2.7,10.6-7.3,16.3-13.9v8.4c-5.5,5.7-11.2,9.8-17.2,12.4s-12.9,3.8-20.9,3.8-19.8-2.1-27.9-6.2c-8.1-4.2-14.4-10.1-18.8-17.9s-6.6-16.1-6.6-24.9,2.4-18.1,7.3-26.4,11.5-14.8,19.8-19.4,17.2-6.9,26.5-6.9,14.2,1.5,21.9,4.4c4.4,1.7,7.3,2.6,8.5,2.6s2.9-.6,4-1.7,1.9-2.9,2.2-5.3h2.9Z"/>
          <path class="cls-1" d="M209.2,499.8c-26.3,0-46.9-10.5-72.2-25.4-11.2-6.6-32.8-22.3-47.2-35.3-37.5-33.7-56.1-89-56.1-89v216.5h456.8v-66.8H209.2Z"/>
          <path class="cls-3" d="M297.9,232.8c-56.6,52.3-102.6,121.7-102.6,121.7,0,0-3.5-25.5-26.2-51.3-22.8-25.8-56.2,1.1-69.4,14.4,34.8,7.9,63.1,82.4,74.5,113.9.1.2.4.4.7.5.2-17.1,6.6-31.8,18.9-43.7,11.5-11.1,25.8-17.2,42.7-18,2.7-6.1,25.7-56.8,72.4-110.9,80.6-93.5,132.9-101.2,132.9-101.2-33.9-3.6-100,34-143.9,74.6Z"/>
          <path d="M194.7,477.1c-5.7-5-10.3-10.6-13.6-16.9-4.2-8.1-6.3-17.2-6.3-27.1v-1.8c-.5-.2-.7-.2-.7-.2,0,0-42.3-19.3-73.1-68.4-38.2-60-30-117.3-26.8-132.8.6-2.7,1.1-6.5,1.1-6.5,0,0-6.8,11-20.8,8.5-10.5-1.9-15.7-11.7-15.7-11.7,0,0-1.1,3.6-1.5,5.9-2.8,15.9-11.1,84,31.4,155.8,49.6,83.7,130.8,99.8,130.8,99.8.1-.2.2-.3.4-.5-1.8-1.3-3.5-2.6-5.2-4.1Z"/>
        </g>
        <g>
          <path class="cls-2" d="M69.1,550.9h-3.9v-36.9h3.9v36.9Z"/>
          <path class="cls-2" d="M76.2,549.4v-5.1c.5.5,1.1,1,1.9,1.4.7.4,1.5.8,2.3,1,.8.3,1.6.5,2.4.7s1.6.2,2.2.2c2.4,0,4.1-.5,5.3-1.5,1.2-1,1.8-2.4,1.8-4.3s-.2-1.9-.6-2.6c-.4-.7-.9-1.4-1.6-2s-1.5-1.2-2.4-1.7c-.9-.6-2-1.1-3-1.8-1.1-.7-2.2-1.3-3.2-2s-1.9-1.4-2.6-2.2-1.3-1.7-1.7-2.7c-.4-1-.6-2.2-.6-3.6s.3-3.1,1-4.4c.7-1.2,1.5-2.3,2.6-3.1s2.3-1.4,3.7-1.8c1.4-.4,2.8-.6,4.2-.6,3.2,0,5.6.4,7.1,1.3v4.9c-1.9-1.5-4.4-2.3-7.5-2.3s-1.7,0-2.5.3-1.6.5-2.2,1c-.7.4-1.2,1-1.6,1.7s-.6,1.6-.6,2.6.2,1.8.5,2.4c.3.7.8,1.3,1.4,1.9.6.6,1.4,1.1,2.2,1.6.9.5,1.9,1.1,3,1.7,1.2.7,2.3,1.3,3.4,2.1s2,1.5,2.8,2.4,1.4,1.8,1.9,2.9c.5,1.1.7,2.3.7,3.7s-.3,3.4-1,4.6c-.6,1.3-1.5,2.3-2.6,3.1s-2.3,1.4-3.7,1.7c-1.4.4-2.9.5-4.5.5s-1.2,0-1.9,0c-.8,0-1.5-.2-2.3-.4s-1.5-.4-2.3-.7c-1-.1-1.6-.4-2-.8Z"/>
          <path class="cls-2" d="M116,551.5c-4.7,0-8.4-1.7-11.2-5.2s-4.2-7.9-4.2-13.4,1.4-10.7,4.3-14.2,6.8-5.3,11.7-5.3,8.2,1.7,11,5.1c2.8,3.4,4.2,7.9,4.2,13.4s-1.4,10.8-4.3,14.3c-2.9,3.6-6.8,5.3-11.5,5.3ZM116.3,517.4c-3.5,0-6.3,1.4-8.4,4.2-2.2,2.8-3.2,6.5-3.2,11s1.1,8.2,3.2,11,4.8,4.2,8.2,4.2,6.5-1.3,8.5-4c2.1-2.6,3.1-6.3,3.1-11.1s-1-8.6-3-11.3c-2.1-2.7-4.9-4-8.4-4Z"/>
          <path class="cls-2" d="M164.4,523.7c0-1.1-.2-2.1-.5-3-.3-.8-.7-1.5-1.3-2.1-.5-.6-1.2-1-1.9-1.2s-1.5-.4-2.4-.4-1.5,0-2.2.3-1.4.5-2.1.9c-.7.4-1.3.9-1.9,1.4-.6.5-1.2,1.2-1.7,1.8v-4.4c1.1-1.1,2.2-2,3.5-2.6s2.9-.9,4.8-.9,2.6.2,3.7.7c1.1.4,2.1,1.1,3,1.9.8.8,1.5,1.9,2,3.1.5,1.2.7,2.6.7,4.2s-.1,2.8-.4,4c-.3,1.2-.8,2.3-1.4,3.3-.6,1-1.4,2-2.3,3-.9,1-2,1.9-3.2,2.9-1.5,1.2-2.8,2.3-3.8,3.2s-1.8,1.7-2.4,2.5c-.6.8-1,1.5-1.2,2.3s-.4,1.6-.4,2.6h16.4v3.8h-20.3v-1.8c0-1.6.2-3,.5-4.2s.8-2.3,1.5-3.4c.7-1.1,1.6-2.2,2.8-3.2,1.1-1.1,2.5-2.3,4.2-3.6,1.2-1,2.2-1.9,3-2.8.8-.9,1.4-1.7,1.9-2.6.5-.9.8-1.8,1-2.7.3-1,.4-2,.4-3Z"/>
          <path class="cls-2" d="M195.2,516.5c-.5,1-1.1,2.2-1.8,3.7s-1.5,3.1-2.3,4.9c-.8,1.8-1.6,3.8-2.4,5.9s-1.6,4.3-2.3,6.5-1.4,4.5-1.9,6.8-.9,4.5-1.2,6.7h-4c.3-2.2.7-4.4,1.3-6.7s1.2-4.5,2-6.7c.7-2.2,1.5-4.3,2.3-6.4.8-2,1.6-3.9,2.4-5.6.8-1.7,1.5-3.2,2.1-4.5s1.1-2.3,1.5-3.1h-16.5v-3.8h20.9v2.3h-.1Z"/>
          <path class="cls-2" d="M220.8,532.3c0,3.1-.2,5.8-.7,8.2s-1.2,4.4-2.2,6c-.9,1.6-2.1,2.9-3.5,3.7s-2.9,1.3-4.7,1.3-3.1-.4-4.4-1.2c-1.3-.8-2.4-2-3.3-3.6-.9-1.6-1.6-3.5-2-5.7s-.7-4.9-.7-7.8.2-6.1.7-8.5c.5-2.5,1.2-4.5,2.1-6.2.9-1.7,2.1-2.9,3.5-3.8s3-1.3,4.8-1.3c6.9,0,10.4,6.4,10.4,18.9ZM216.9,532.8c0-10.5-2.2-15.7-6.7-15.7s-7,5.3-7,16,2.3,14.9,6.9,14.9,6.8-5.1,6.8-15.2Z"/>
          <path class="cls-2" d="M246.1,532.3c0,3.1-.2,5.8-.7,8.2s-1.2,4.4-2.2,6c-.9,1.6-2.1,2.9-3.5,3.7s-2.9,1.3-4.7,1.3-3.1-.4-4.4-1.2c-1.3-.8-2.4-2-3.3-3.6-.9-1.6-1.6-3.5-2-5.7s-.7-4.9-.7-7.8.2-6.1.7-8.5c.5-2.5,1.2-4.5,2.1-6.2.9-1.7,2.1-2.9,3.5-3.8s3-1.3,4.8-1.3c7,0,10.4,6.4,10.4,18.9ZM242.3,532.8c0-10.5-2.2-15.7-6.7-15.7s-7,5.3-7,16,2.3,14.9,6.9,14.9,6.8-5.1,6.8-15.2Z"/>
          <path class="cls-2" d="M264.7,550.9h-3.8v-31.8c-.3.3-.7.7-1.3,1.1-.6.4-1.2.8-1.9,1.2-.7.4-1.4.8-2.2,1.2s-1.5.6-2.3.8v-4.3c.8-.3,1.7-.6,2.6-1,.9-.4,1.8-.9,2.7-1.5.9-.5,1.7-1.1,2.5-1.7.8-.6,1.5-1.2,2.1-1.7h1.4v37.7h.2Z"/>
          <path class="cls-2" d="M313,549.4c-2.4,1.4-5.5,2.2-9.1,2.2s-8.4-1.7-11.2-5.1c-2.8-3.4-4.2-7.8-4.2-13.3s1.6-10.7,4.8-14.3c3.2-3.6,7.2-5.4,12-5.4s5.7.5,7.8,1.5v4.6c-2.4-1.5-5-2.2-7.8-2.2s-6.8,1.4-9.2,4.2c-2.3,2.8-3.5,6.6-3.5,11.3s1.1,8.1,3.3,10.7c2.2,2.7,5.1,4,8.6,4s6.2-.8,8.6-2.5v4.3h0Z"/>
          <path class="cls-2" d="M338.1,538.8h-16.6c.1,2.9.8,5.2,2.1,6.8,1.3,1.6,3.2,2.4,5.6,2.4s5.1-1,7.3-2.9v4c-2.1,1.7-4.8,2.5-8.2,2.5s-5.9-1.2-7.8-3.6c-1.9-2.4-2.8-5.8-2.8-10.1s1-7.4,3.1-10,4.6-3.9,7.7-3.9,5.5,1.1,7.1,3.3c1.7,2.2,2.5,5.3,2.5,9.3v2.2h0ZM334.2,535.3c0-2.4-.5-4.3-1.6-5.7-1-1.4-2.5-2-4.3-2s-3.3.7-4.5,2.1c-1.2,1.4-2,3.3-2.3,5.6h12.7Z"/>
          <path class="cls-2" d="M356,528.9c-.7-.6-1.6-.8-2.8-.8s-2.9.8-4,2.5-1.6,4-1.6,6.9v13.4h-3.8v-26.3h3.8v5.4h.1c.5-1.9,1.4-3.3,2.5-4.3s2.3-1.6,3.7-1.6,1.7,0,2.2.4v4.4h-.1Z"/>
          <path class="cls-2" d="M372.3,550.7c-.9.5-2.1.8-3.5.8-4.1,0-6.2-2.6-6.2-7.7v-15.6h-4v-3.6h4v-6.4l3.8-1.4v7.8h5.9v3.6h-5.9v14.8c0,1.8.3,3,.8,3.8s1.4,1.1,2.7,1.1,1.8-.3,2.5-.9v3.7h0Z"/>
          <path class="cls-2" d="M379.3,517.9c-.7,0-1.2-.3-1.7-.8s-.7-1.2-.7-2,.2-1.4.7-2c.5-.5,1-.8,1.7-.8s1.3.3,1.8.8.7,1.2.7,2-.2,1.4-.7,1.9c-.5.7-1.1.9-1.8.9ZM381.1,550.9h-3.8v-26.3h3.8v26.3Z"/>
          <path class="cls-2" d="M400.4,515.7c-.7-.5-1.6-.7-2.5-.7-2.6,0-3.9,1.9-3.9,5.6v4.1h5.5v3.6h-5.5v22.7h-3.7v-22.7h-4v-3.6h4v-4.3c0-2.8.7-4.9,2.1-6.5s3.2-2.4,5.3-2.4,2.1.2,2.7.5v3.7Z"/>
          <path class="cls-2" d="M405.4,517.9c-.7,0-1.2-.3-1.7-.8s-.7-1.2-.7-2,.2-1.4.7-2c.5-.5,1-.8,1.7-.8s1.3.3,1.8.8.7,1.2.7,2-.2,1.4-.7,1.9c-.5.7-1.1.9-1.8.9ZM407.2,550.9h-3.8v-26.3h3.8v26.3Z"/>
          <path class="cls-2" d="M433.7,538.8h-16.6c.1,2.9.8,5.2,2.1,6.8,1.3,1.6,3.2,2.4,5.6,2.4s5.1-1,7.3-2.9v4c-2.1,1.7-4.8,2.5-8.2,2.5s-5.9-1.2-7.8-3.6c-1.9-2.4-2.8-5.8-2.8-10.1s1-7.4,3.1-10,4.6-3.9,7.7-3.9,5.5,1.1,7.1,3.3c1.7,2.2,2.5,5.3,2.5,9.3v2.2h0ZM429.9,535.3c0-2.4-.5-4.3-1.6-5.7-1-1.4-2.5-2-4.3-2s-3.3.7-4.5,2.1c-1.2,1.4-2,3.3-2.3,5.6h12.7Z"/>
          <path class="cls-2" d="M459.5,550.9h-3.8v-4.5h-.1c-1.7,3.4-4.4,5.1-8.1,5.1s-5.3-1.2-7.1-3.5c-1.8-2.4-2.7-5.6-2.7-9.6s1-7.8,2.9-10.5c2-2.6,4.6-3.9,7.8-3.9s5.6,1.4,7,4.3h.1v-16.3h3.8v38.9h.2ZM455.7,539v-3.9c0-2.1-.6-3.9-1.9-5.4s-2.8-2.2-4.8-2.2-4.1.9-5.4,2.8c-1.3,1.9-2,4.5-2,7.8s.6,5.4,1.9,7.2,3,2.6,5.1,2.6,3.8-.8,5.1-2.5c1.4-1.6,2-3.8,2-6.4Z"/>
        </g>
      </g>
    </g>
  </g>
</svg>